<?xml version="1.0" standalone="no"?>
<!DOCTYPE svg PUBLIC "-//W3C//DTD SVG 1.1//EN" "http://www.w3.org/Graphics/SVG/1.1/DTD/svg11.dtd">
<svg width="64mm" height="158mm" viewBox="-7 -289 64 158" xmlns="http://www.w3.org/2000/svg" version="1.1">
<title>OpenSCAD Model</title>
<path d="
M 7,-284 L 6.96057,-284.627 L 6.84291,-285.243 L 6.64888,-285.841 L 6.38153,-286.409 L 6.04507,-286.939
 L 5.64484,-287.423 L 5.18712,-287.853 L 4.67912,-288.222 L 4.12889,-288.524 L 3.54507,-288.755 L 2.9369,-288.911
 L 2.31395,-288.99 L -2.31395,-288.99 L -2.9369,-288.911 L -3.54507,-288.755 L -4.12889,-288.524 L -4.67912,-288.222
 L -5.18712,-287.853 L -5.64484,-287.423 L -6.04507,-286.939 L -6.38153,-286.409 L -6.64888,-285.841 L -6.84291,-285.243
 L -6.96057,-284.627 L -7,-284 L -7,-270.7 L 7,-270.7 z
M -0.194641,-278.906 L -0.580872,-278.955 L -0.957947,-279.052 L -1.3199,-279.195 L -1.66106,-279.383 L -1.97601,-279.611
 L -2.2598,-279.878 L -2.50795,-280.178 L -2.71654,-280.507 L -2.88229,-280.859 L -3.00259,-281.229 L -3.07555,-281.611
 L -3.09999,-282 L -3.07555,-282.389 L -3.00259,-282.771 L -2.88229,-283.141 L -2.71654,-283.493 L -2.50795,-283.822
 L -2.2598,-284.122 L -1.97601,-284.389 L -1.66106,-284.617 L -1.3199,-284.805 L -0.957947,-284.948 L -0.580872,-285.045
 L -0.194641,-285.094 L 0.194641,-285.094 L 0.580872,-285.045 L 0.957947,-284.948 L 1.3199,-284.805 L 1.66106,-284.617
 L 1.97601,-284.389 L 2.2598,-284.122 L 2.50795,-283.822 L 2.71654,-283.493 L 2.88229,-283.141 L 3.00259,-282.771
 L 3.07555,-282.389 L 3.09999,-282 L 3.07555,-281.611 L 3.00259,-281.229 L 2.88229,-280.859 L 2.71654,-280.507
 L 2.50795,-280.178 L 2.2598,-279.878 L 1.97601,-279.611 L 1.66106,-279.383 L 1.3199,-279.195 L 0.957947,-279.052
 L 0.580872,-278.955 L 0.194641,-278.906 z
M -0.113022,-272.704 L -0.33728,-272.732 L -0.556229,-272.788 L -0.766388,-272.871 L -0.964478,-272.98 L -1.14735,-273.113
 L -1.31213,-273.268 L -1.45622,-273.442 L -1.57735,-273.633 L -1.67358,-273.837 L -1.74344,-274.052 L -1.7858,-274.274
 L -1.79999,-274.5 L -1.7858,-274.726 L -1.74344,-274.948 L -1.67358,-275.163 L -1.57735,-275.367 L -1.45622,-275.558
 L -1.31213,-275.732 L -1.14735,-275.887 L -0.964478,-276.02 L -0.766388,-276.129 L -0.556229,-276.212 L -0.33728,-276.268
 L -0.113022,-276.296 L 0.113022,-276.296 L 0.33728,-276.268 L 0.556229,-276.212 L 0.766388,-276.129 L 0.964478,-276.02
 L 1.14735,-275.887 L 1.31213,-275.732 L 1.45622,-275.558 L 1.57735,-275.367 L 1.67358,-275.163 L 1.74344,-274.948
 L 1.7858,-274.726 L 1.79999,-274.5 L 1.7858,-274.274 L 1.74344,-274.052 L 1.67358,-273.837 L 1.57735,-273.633
 L 1.45622,-273.442 L 1.31213,-273.268 L 1.14735,-273.113 L 0.964478,-272.98 L 0.766388,-272.871 L 0.556229,-272.788
 L 0.33728,-272.732 L 0.113022,-272.704 z
M 57,-284 L 56.9606,-284.627 L 56.8429,-285.243 L 56.6489,-285.841 L 56.3815,-286.409 L 56.0451,-286.939
 L 55.6448,-287.423 L 55.1871,-287.853 L 54.6791,-288.222 L 54.1289,-288.524 L 53.5451,-288.755 L 52.9369,-288.911
 L 52.3139,-288.99 L 47.686,-288.99 L 47.0631,-288.911 L 46.4549,-288.755 L 45.8711,-288.524 L 45.3209,-288.222
 L 44.8129,-287.853 L 44.3551,-287.423 L 43.9549,-286.939 L 43.6185,-286.409 L 43.3511,-285.841 L 43.1571,-285.243
 L 43.0394,-284.627 L 43,-284 L 43,-270.7 L 57,-270.7 z
M 49.8116,-279.006 L 49.4379,-279.053 L 49.0729,-279.147 L 48.7227,-279.286 L 48.3925,-279.467 L 48.0877,-279.688
 L 47.8131,-279.946 L 47.5729,-280.237 L 47.3711,-280.555 L 47.2107,-280.896 L 47.0942,-281.254 L 47.0237,-281.624
 L 47,-282 L 47.0237,-282.376 L 47.0942,-282.746 L 47.2107,-283.104 L 47.3711,-283.445 L 47.5729,-283.763
 L 47.8131,-284.054 L 48.0877,-284.312 L 48.3925,-284.533 L 48.7227,-284.714 L 49.0729,-284.853 L 49.4379,-284.947
 L 49.8116,-284.994 L 50.1884,-284.994 L 50.5621,-284.947 L 50.927,-284.853 L 51.2773,-284.714 L 51.6075,-284.533
 L 51.9123,-284.312 L 52.1869,-284.054 L 52.427,-283.763 L 52.6289,-283.445 L 52.7893,-283.104 L 52.9057,-282.746
 L 52.9763,-282.376 L 53,-282 L 52.9763,-281.624 L 52.9057,-281.254 L 52.7893,-280.896 L 52.6289,-280.555
 L 52.427,-280.237 L 52.1869,-279.946 L 51.9123,-279.688 L 51.6075,-279.467 L 51.2773,-279.286 L 50.927,-279.147
 L 50.5621,-279.053 L 50.1884,-279.006 z
M 49.887,-272.704 L 49.6627,-272.732 L 49.4438,-272.788 L 49.2336,-272.871 L 49.0355,-272.98 L 48.8526,-273.113
 L 48.6879,-273.268 L 48.5438,-273.442 L 48.4226,-273.633 L 48.3264,-273.837 L 48.2565,-274.052 L 48.2142,-274.274
 L 48.2,-274.5 L 48.2142,-274.726 L 48.2565,-274.948 L 48.3264,-275.163 L 48.4226,-275.367 L 48.5438,-275.558
 L 48.6879,-275.732 L 48.8526,-275.887 L 49.0355,-276.02 L 49.2336,-276.129 L 49.4438,-276.212 L 49.6627,-276.268
 L 49.887,-276.296 L 50.113,-276.296 L 50.3373,-276.268 L 50.5562,-276.212 L 50.7664,-276.129 L 50.9645,-276.02
 L 51.1474,-275.887 L 51.3121,-275.732 L 51.4562,-275.558 L 51.5773,-275.367 L 51.6736,-275.163 L 51.7434,-274.948
 L 51.7858,-274.726 L 51.8,-274.5 L 51.7858,-274.274 L 51.7434,-274.052 L 51.6736,-273.837 L 51.5773,-273.633
 L 51.4562,-273.442 L 51.3121,-273.268 L 51.1474,-273.113 L 50.9645,-272.98 L 50.7664,-272.871 L 50.5562,-272.788
 L 50.3373,-272.732 L 50.113,-272.704 z
M 57,-263.3 L 43,-263.3 L 43,-260.7 L 57,-260.7 z
M 7,-263.3 L -7,-263.3 L -7,-260.7 L 7,-260.7 z
M 57,-253.3 L 43,-253.3 L 43,-250.7 L 57,-250.7 z
M 7,-253.3 L -7,-253.3 L -7,-250.7 L 7,-250.7 z
M 7,-243.3 L -7,-243.3 L -7,-240.7 L 7,-240.7 z
M 57,-243.3 L 43,-243.3 L 43,-240.7 L 57,-240.7 z
M 2.9369,-215.089 L 3.54507,-215.245 L 4.12889,-215.476 L 4.67912,-215.778 L 5.18712,-216.147 L 5.64484,-216.577
 L 6.04507,-217.061 L 6.38153,-217.591 L 6.64888,-218.159 L 6.84291,-218.757 L 6.96057,-219.373 L 7,-220
 L 7,-233.3 L -7,-233.3 L -7,-220 L -6.96057,-219.373 L -6.84291,-218.757 L -6.64888,-218.159
 L -6.38153,-217.591 L -6.04507,-217.061 L -5.64484,-216.577 L -5.18712,-216.147 L -4.67912,-215.778 L -4.12889,-215.476
 L -3.54507,-215.245 L -2.9369,-215.089 L -2.31395,-215.01 L 2.31395,-215.01 z
M -0.113022,-227.704 L -0.33728,-227.732 L -0.556229,-227.788 L -0.766388,-227.871 L -0.964478,-227.98 L -1.14735,-228.113
 L -1.31213,-228.268 L -1.45622,-228.442 L -1.57735,-228.633 L -1.67358,-228.837 L -1.74344,-229.052 L -1.7858,-229.274
 L -1.79999,-229.5 L -1.7858,-229.726 L -1.74344,-229.948 L -1.67358,-230.163 L -1.57735,-230.367 L -1.45622,-230.558
 L -1.31213,-230.732 L -1.14735,-230.887 L -0.964478,-231.02 L -0.766388,-231.129 L -0.556229,-231.212 L -0.33728,-231.268
 L -0.113022,-231.296 L 0.113022,-231.296 L 0.33728,-231.268 L 0.556229,-231.212 L 0.766388,-231.129 L 0.964478,-231.02
 L 1.14735,-230.887 L 1.31213,-230.732 L 1.45622,-230.558 L 1.57735,-230.367 L 1.67358,-230.163 L 1.74344,-229.948
 L 1.7858,-229.726 L 1.79999,-229.5 L 1.7858,-229.274 L 1.74344,-229.052 L 1.67358,-228.837 L 1.57735,-228.633
 L 1.45622,-228.442 L 1.31213,-228.268 L 1.14735,-228.113 L 0.964478,-227.98 L 0.766388,-227.871 L 0.556229,-227.788
 L 0.33728,-227.732 L 0.113022,-227.704 z
M -0.194641,-218.906 L -0.580872,-218.955 L -0.957947,-219.052 L -1.3199,-219.195 L -1.66106,-219.383 L -1.97601,-219.611
 L -2.2598,-219.878 L -2.50795,-220.178 L -2.71654,-220.507 L -2.88229,-220.859 L -3.00259,-221.229 L -3.07555,-221.611
 L -3.09999,-222 L -3.07555,-222.389 L -3.00259,-222.771 L -2.88229,-223.141 L -2.71654,-223.493 L -2.50795,-223.822
 L -2.2598,-224.122 L -1.97601,-224.389 L -1.66106,-224.617 L -1.3199,-224.805 L -0.957947,-224.948 L -0.580872,-225.045
 L -0.194641,-225.094 L 0.194641,-225.094 L 0.580872,-225.045 L 0.957947,-224.948 L 1.3199,-224.805 L 1.66106,-224.617
 L 1.97601,-224.389 L 2.2598,-224.122 L 2.50795,-223.822 L 2.71654,-223.493 L 2.88229,-223.141 L 3.00259,-222.771
 L 3.07555,-222.389 L 3.09999,-222 L 3.07555,-221.611 L 3.00259,-221.229 L 2.88229,-220.859 L 2.71654,-220.507
 L 2.50795,-220.178 L 2.2598,-219.878 L 1.97601,-219.611 L 1.66106,-219.383 L 1.3199,-219.195 L 0.957947,-219.052
 L 0.580872,-218.955 L 0.194641,-218.906 z
M 52.9369,-215.089 L 53.5451,-215.245 L 54.1289,-215.476 L 54.6791,-215.778 L 55.1871,-216.147 L 55.6448,-216.577
 L 56.0451,-217.061 L 56.3815,-217.591 L 56.6489,-218.159 L 56.8429,-218.757 L 56.9606,-219.373 L 57,-220
 L 57,-233.3 L 43,-233.3 L 43,-220 L 43.0394,-219.373 L 43.1571,-218.757 L 43.3511,-218.159
 L 43.6185,-217.591 L 43.9549,-217.061 L 44.3551,-216.577 L 44.8129,-216.147 L 45.3209,-215.778 L 45.8711,-215.476
 L 46.4549,-215.245 L 47.0631,-215.089 L 47.686,-215.01 L 52.3139,-215.01 z
M 49.887,-227.704 L 49.6627,-227.732 L 49.4438,-227.788 L 49.2336,-227.871 L 49.0355,-227.98 L 48.8526,-228.113
 L 48.6879,-228.268 L 48.5438,-228.442 L 48.4226,-228.633 L 48.3264,-228.837 L 48.2565,-229.052 L 48.2142,-229.274
 L 48.2,-229.5 L 48.2142,-229.726 L 48.2565,-229.948 L 48.3264,-230.163 L 48.4226,-230.367 L 48.5438,-230.558
 L 48.6879,-230.732 L 48.8526,-230.887 L 49.0355,-231.02 L 49.2336,-231.129 L 49.4438,-231.212 L 49.6627,-231.268
 L 49.887,-231.296 L 50.113,-231.296 L 50.3373,-231.268 L 50.5562,-231.212 L 50.7664,-231.129 L 50.9645,-231.02
 L 51.1474,-230.887 L 51.3121,-230.732 L 51.4562,-230.558 L 51.5773,-230.367 L 51.6736,-230.163 L 51.7434,-229.948
 L 51.7858,-229.726 L 51.8,-229.5 L 51.7858,-229.274 L 51.7434,-229.052 L 51.6736,-228.837 L 51.5773,-228.633
 L 51.4562,-228.442 L 51.3121,-228.268 L 51.1474,-228.113 L 50.9645,-227.98 L 50.7664,-227.871 L 50.5562,-227.788
 L 50.3373,-227.732 L 50.113,-227.704 z
M 49.8116,-219.006 L 49.4379,-219.053 L 49.0729,-219.147 L 48.7227,-219.286 L 48.3925,-219.467 L 48.0877,-219.688
 L 47.8131,-219.946 L 47.5729,-220.237 L 47.3711,-220.555 L 47.2107,-220.896 L 47.0942,-221.254 L 47.0237,-221.624
 L 47,-222 L 47.0237,-222.376 L 47.0942,-222.746 L 47.2107,-223.104 L 47.3711,-223.445 L 47.5729,-223.763
 L 47.8131,-224.054 L 48.0877,-224.312 L 48.3925,-224.533 L 48.7227,-224.714 L 49.0729,-224.853 L 49.4379,-224.947
 L 49.8116,-224.994 L 50.1884,-224.994 L 50.5621,-224.947 L 50.927,-224.853 L 51.2773,-224.714 L 51.6075,-224.533
 L 51.9123,-224.312 L 52.1869,-224.054 L 52.427,-223.763 L 52.6289,-223.445 L 52.7893,-223.104 L 52.9057,-222.746
 L 52.9763,-222.376 L 53,-222 L 52.9763,-221.624 L 52.9057,-221.254 L 52.7893,-220.896 L 52.6289,-220.555
 L 52.427,-220.237 L 52.1869,-219.946 L 51.9123,-219.688 L 51.6075,-219.467 L 51.2773,-219.286 L 50.927,-219.147
 L 50.5621,-219.053 L 50.1884,-219.006 z
M 52.9369,-131.089 L 53.5451,-131.245 L 54.1289,-131.476 L 54.6791,-131.778 L 55.1871,-132.147 L 55.6448,-132.577
 L 56.0451,-133.061 L 56.3815,-133.591 L 56.6489,-134.159 L 56.8429,-134.757 L 56.9606,-135.373 L 57,-136
 L 57,-200 L 56.9606,-200.627 L 56.8429,-201.243 L 56.6489,-201.841 L 56.3815,-202.409 L 56.0451,-202.939
 L 55.6448,-203.423 L 55.1871,-203.853 L 54.6791,-204.222 L 54.1289,-204.524 L 53.5451,-204.755 L 52.9369,-204.911
 L 52.3139,-204.99 L 47.686,-204.99 L 47.0631,-204.911 L 46.4549,-204.755 L 45.8711,-204.524 L 45.3209,-204.222
 L 44.8129,-203.853 L 44.3551,-203.423 L 43.9549,-202.939 L 43.6185,-202.409 L 43.3511,-201.841 L 43.1571,-201.243
 L 43.0394,-200.627 L 43,-200 L 43,-136 L 43.0394,-135.373 L 43.1571,-134.757 L 43.3511,-134.159
 L 43.6185,-133.591 L 43.9549,-133.061 L 44.3551,-132.577 L 44.8129,-132.147 L 45.3209,-131.778 L 45.8711,-131.476
 L 46.4549,-131.245 L 47.0631,-131.089 L 47.686,-131.01 L 52.3139,-131.01 z
M 49.8116,-195.006 L 49.4379,-195.053 L 49.0729,-195.147 L 48.7227,-195.286 L 48.3925,-195.467 L 48.0877,-195.688
 L 47.8131,-195.946 L 47.5729,-196.237 L 47.3711,-196.555 L 47.2107,-196.896 L 47.0942,-197.254 L 47.0237,-197.624
 L 47,-198 L 47.0237,-198.376 L 47.0942,-198.746 L 47.2107,-199.104 L 47.3711,-199.445 L 47.5729,-199.763
 L 47.8131,-200.054 L 48.0877,-200.312 L 48.3925,-200.533 L 48.7227,-200.714 L 49.0729,-200.853 L 49.4379,-200.947
 L 49.8116,-200.994 L 50.1884,-200.994 L 50.5621,-200.947 L 50.927,-200.853 L 51.2773,-200.714 L 51.6075,-200.533
 L 51.9123,-200.312 L 52.1869,-200.054 L 52.427,-199.763 L 52.6289,-199.445 L 52.7893,-199.104 L 52.9057,-198.746
 L 52.9763,-198.376 L 53,-198 L 52.9763,-197.624 L 52.9057,-197.254 L 52.7893,-196.896 L 52.6289,-196.555
 L 52.427,-196.237 L 52.1869,-195.946 L 51.9123,-195.688 L 51.6075,-195.467 L 51.2773,-195.286 L 50.927,-195.147
 L 50.5621,-195.053 L 50.1884,-195.006 z
M 49.887,-188.704 L 49.6627,-188.732 L 49.4438,-188.788 L 49.2336,-188.871 L 49.0355,-188.98 L 48.8526,-189.113
 L 48.6879,-189.268 L 48.5438,-189.442 L 48.4226,-189.633 L 48.3264,-189.837 L 48.2565,-190.052 L 48.2142,-190.274
 L 48.2,-190.5 L 48.2142,-190.726 L 48.2565,-190.948 L 48.3264,-191.163 L 48.4226,-191.367 L 48.5438,-191.558
 L 48.6879,-191.732 L 48.8526,-191.887 L 49.0355,-192.02 L 49.2336,-192.129 L 49.4438,-192.212 L 49.6627,-192.268
 L 49.887,-192.296 L 50.113,-192.296 L 50.3373,-192.268 L 50.5562,-192.212 L 50.7664,-192.129 L 50.9645,-192.02
 L 51.1474,-191.887 L 51.3121,-191.732 L 51.4562,-191.558 L 51.5773,-191.367 L 51.6736,-191.163 L 51.7434,-190.948
 L 51.7858,-190.726 L 51.8,-190.5 L 51.7858,-190.274 L 51.7434,-190.052 L 51.6736,-189.837 L 51.5773,-189.633
 L 51.4562,-189.442 L 51.3121,-189.268 L 51.1474,-189.113 L 50.9645,-188.98 L 50.7664,-188.871 L 50.5562,-188.788
 L 50.3373,-188.732 L 50.113,-188.704 z
M 49.887,-143.704 L 49.6627,-143.732 L 49.4438,-143.788 L 49.2336,-143.871 L 49.0355,-143.98 L 48.8526,-144.113
 L 48.6879,-144.268 L 48.5438,-144.442 L 48.4226,-144.633 L 48.3264,-144.837 L 48.2565,-145.052 L 48.2142,-145.274
 L 48.2,-145.5 L 48.2142,-145.726 L 48.2565,-145.948 L 48.3264,-146.163 L 48.4226,-146.367 L 48.5438,-146.558
 L 48.6879,-146.732 L 48.8526,-146.887 L 49.0355,-147.02 L 49.2336,-147.129 L 49.4438,-147.212 L 49.6627,-147.268
 L 49.887,-147.296 L 50.113,-147.296 L 50.3373,-147.268 L 50.5562,-147.212 L 50.7664,-147.129 L 50.9645,-147.02
 L 51.1474,-146.887 L 51.3121,-146.732 L 51.4562,-146.558 L 51.5773,-146.367 L 51.6736,-146.163 L 51.7434,-145.948
 L 51.7858,-145.726 L 51.8,-145.5 L 51.7858,-145.274 L 51.7434,-145.052 L 51.6736,-144.837 L 51.5773,-144.633
 L 51.4562,-144.442 L 51.3121,-144.268 L 51.1474,-144.113 L 50.9645,-143.98 L 50.7664,-143.871 L 50.5562,-143.788
 L 50.3373,-143.732 L 50.113,-143.704 z
M 49.8116,-135.006 L 49.4379,-135.053 L 49.0729,-135.147 L 48.7227,-135.286 L 48.3925,-135.467 L 48.0877,-135.688
 L 47.8131,-135.946 L 47.5729,-136.237 L 47.3711,-136.555 L 47.2107,-136.896 L 47.0942,-137.254 L 47.0237,-137.624
 L 47,-138 L 47.0237,-138.376 L 47.0942,-138.746 L 47.2107,-139.104 L 47.3711,-139.445 L 47.5729,-139.763
 L 47.8131,-140.054 L 48.0877,-140.312 L 48.3925,-140.533 L 48.7227,-140.714 L 49.0729,-140.853 L 49.4379,-140.947
 L 49.8116,-140.994 L 50.1884,-140.994 L 50.5621,-140.947 L 50.927,-140.853 L 51.2773,-140.714 L 51.6075,-140.533
 L 51.9123,-140.312 L 52.1869,-140.054 L 52.427,-139.763 L 52.6289,-139.445 L 52.7893,-139.104 L 52.9057,-138.746
 L 52.9763,-138.376 L 53,-138 L 52.9763,-137.624 L 52.9057,-137.254 L 52.7893,-136.896 L 52.6289,-136.555
 L 52.427,-136.237 L 52.1869,-135.946 L 51.9123,-135.688 L 51.6075,-135.467 L 51.2773,-135.286 L 50.927,-135.147
 L 50.5621,-135.053 L 50.1884,-135.006 z
M 2.9369,-131.089 L 3.54507,-131.245 L 4.12889,-131.476 L 4.67912,-131.778 L 5.18712,-132.147 L 5.64484,-132.577
 L 6.04507,-133.061 L 6.38153,-133.591 L 6.64888,-134.159 L 6.84291,-134.757 L 6.96057,-135.373 L 7,-136
 L 7,-200 L 6.96057,-200.627 L 6.84291,-201.243 L 6.64888,-201.841 L 6.38153,-202.409 L 6.04507,-202.939
 L 5.64484,-203.423 L 5.18712,-203.853 L 4.67912,-204.222 L 4.12889,-204.524 L 3.54507,-204.755 L 2.9369,-204.911
 L 2.31395,-204.99 L -2.31395,-204.99 L -2.9369,-204.911 L -3.54507,-204.755 L -4.12889,-204.524 L -4.67912,-204.222
 L -5.18712,-203.853 L -5.64484,-203.423 L -6.04507,-202.939 L -6.38153,-202.409 L -6.64888,-201.841 L -6.84291,-201.243
 L -6.96057,-200.627 L -7,-200 L -7,-136 L -6.96057,-135.373 L -6.84291,-134.757 L -6.64888,-134.159
 L -6.38153,-133.591 L -6.04507,-133.061 L -5.64484,-132.577 L -5.18712,-132.147 L -4.67912,-131.778 L -4.12889,-131.476
 L -3.54507,-131.245 L -2.9369,-131.089 L -2.31395,-131.01 L 2.31395,-131.01 z
M -0.18837,-195.006 L -0.562134,-195.053 L -0.927048,-195.147 L -1.27733,-195.286 L -1.60747,-195.467 L -1.91226,-195.688
 L -2.1869,-195.946 L -2.42705,-196.237 L -2.62891,-196.555 L -2.78932,-196.896 L -2.90575,-197.254 L -2.97633,-197.624
 L -3,-198 L -2.97633,-198.376 L -2.90575,-198.746 L -2.78932,-199.104 L -2.62891,-199.445 L -2.42705,-199.763
 L -2.1869,-200.054 L -1.91226,-200.312 L -1.60747,-200.533 L -1.27733,-200.714 L -0.927048,-200.853 L -0.562134,-200.947
 L -0.18837,-200.994 L 0.18837,-200.994 L 0.562134,-200.947 L 0.927048,-200.853 L 1.27733,-200.714 L 1.60747,-200.533
 L 1.91226,-200.312 L 2.1869,-200.054 L 2.42705,-199.763 L 2.62891,-199.445 L 2.78932,-199.104 L 2.90575,-198.746
 L 2.97633,-198.376 L 3,-198 L 2.97633,-197.624 L 2.90575,-197.254 L 2.78932,-196.896 L 2.62891,-196.555
 L 2.42705,-196.237 L 2.1869,-195.946 L 1.91226,-195.688 L 1.60747,-195.467 L 1.27733,-195.286 L 0.927048,-195.147
 L 0.562134,-195.053 L 0.18837,-195.006 z
M -1.58675,-187.752 L -3.17349,-190.5 L -1.58675,-193.248 L 1.58675,-193.248 L 3.17349,-190.5 L 1.58675,-187.752
 z
M -1.58675,-142.752 L -3.17349,-145.5 L -1.58675,-148.248 L 1.58675,-148.248 L 3.17349,-145.5 L 1.58675,-142.752
 z
M -0.18837,-135.006 L -0.562134,-135.053 L -0.927048,-135.147 L -1.27733,-135.286 L -1.60747,-135.467 L -1.91226,-135.688
 L -2.1869,-135.946 L -2.42705,-136.237 L -2.62891,-136.555 L -2.78932,-136.896 L -2.90575,-137.254 L -2.97633,-137.624
 L -3,-138 L -2.97633,-138.376 L -2.90575,-138.746 L -2.78932,-139.104 L -2.62891,-139.445 L -2.42705,-139.763
 L -2.1869,-140.054 L -1.91226,-140.312 L -1.60747,-140.533 L -1.27733,-140.714 L -0.927048,-140.853 L -0.562134,-140.947
 L -0.18837,-140.994 L 0.18837,-140.994 L 0.562134,-140.947 L 0.927048,-140.853 L 1.27733,-140.714 L 1.60747,-140.533
 L 1.91226,-140.312 L 2.1869,-140.054 L 2.42705,-139.763 L 2.62891,-139.445 L 2.78932,-139.104 L 2.90575,-138.746
 L 2.97633,-138.376 L 3,-138 L 2.97633,-137.624 L 2.90575,-137.254 L 2.78932,-136.896 L 2.62891,-136.555
 L 2.42705,-136.237 L 2.1869,-135.946 L 1.91226,-135.688 L 1.60747,-135.467 L 1.27733,-135.286 L 0.927048,-135.147
 L 0.562134,-135.053 L 0.18837,-135.006 z
" stroke="black" fill="lightgray" stroke-width="0.5"/>
</svg>
