<?xml version="1.0" standalone="no"?>
<!DOCTYPE svg PUBLIC "-//W3C//DTD SVG 1.1//EN" "http://www.w3.org/Graphics/SVG/1.1/DTD/svg11.dtd">
<svg width="80mm" height="158mm" viewBox="-15 -289 80 158" xmlns="http://www.w3.org/2000/svg" version="1.1">
<title>OpenSCAD Model</title>
<path d="
M 64.5,-284 L 64.4606,-284.627 L 64.3429,-285.243 L 64.1489,-285.841 L 63.8815,-286.409 L 63.5451,-286.939
 L 63.1448,-287.423 L 62.6871,-287.853 L 62.1791,-288.222 L 61.6289,-288.524 L 61.0451,-288.755 L 60.4369,-288.911
 L 59.8139,-288.99 L 40.186,-288.99 L 39.5631,-288.911 L 38.9549,-288.755 L 38.3711,-288.524 L 37.8209,-288.222
 L 37.3129,-287.853 L 36.8551,-287.423 L 36.4549,-286.939 L 36.1185,-286.409 L 35.8511,-285.841 L 35.6571,-285.243
 L 35.5394,-284.627 L 35.5,-284 L 35.5,-270.7 L 64.5,-270.7 z
M 57.3116,-279.006 L 56.9379,-279.053 L 56.5729,-279.147 L 56.2227,-279.286 L 55.8925,-279.467 L 55.5877,-279.688
 L 55.3131,-279.946 L 55.0729,-280.237 L 54.8711,-280.555 L 54.7107,-280.896 L 54.5942,-281.254 L 54.5237,-281.624
 L 54.5,-282 L 54.5237,-282.376 L 54.5942,-282.746 L 54.7107,-283.104 L 54.8711,-283.445 L 55.0729,-283.763
 L 55.3131,-284.054 L 55.5877,-284.312 L 55.8925,-284.533 L 56.2227,-284.714 L 56.5729,-284.853 L 56.9379,-284.947
 L 57.3116,-284.994 L 57.6884,-284.994 L 58.0621,-284.947 L 58.427,-284.853 L 58.7773,-284.714 L 59.1075,-284.533
 L 59.4123,-284.312 L 59.6869,-284.054 L 59.927,-283.763 L 60.1289,-283.445 L 60.2893,-283.104 L 60.4057,-282.746
 L 60.4763,-282.376 L 60.5,-282 L 60.4763,-281.624 L 60.4057,-281.254 L 60.2893,-280.896 L 60.1289,-280.555
 L 59.927,-280.237 L 59.6869,-279.946 L 59.4123,-279.688 L 59.1075,-279.467 L 58.7773,-279.286 L 58.427,-279.147
 L 58.0621,-279.053 L 57.6884,-279.006 z
M 42.3116,-279.006 L 41.9379,-279.053 L 41.5729,-279.147 L 41.2227,-279.286 L 40.8925,-279.467 L 40.5877,-279.688
 L 40.3131,-279.946 L 40.0729,-280.237 L 39.8711,-280.555 L 39.7107,-280.896 L 39.5942,-281.254 L 39.5237,-281.624
 L 39.5,-282 L 39.5237,-282.376 L 39.5942,-282.746 L 39.7107,-283.104 L 39.8711,-283.445 L 40.0729,-283.763
 L 40.3131,-284.054 L 40.5877,-284.312 L 40.8925,-284.533 L 41.2227,-284.714 L 41.5729,-284.853 L 41.9379,-284.947
 L 42.3116,-284.994 L 42.6884,-284.994 L 43.0621,-284.947 L 43.427,-284.853 L 43.7773,-284.714 L 44.1075,-284.533
 L 44.4123,-284.312 L 44.6869,-284.054 L 44.927,-283.763 L 45.1289,-283.445 L 45.2893,-283.104 L 45.4057,-282.746
 L 45.4763,-282.376 L 45.5,-282 L 45.4763,-281.624 L 45.4057,-281.254 L 45.2893,-280.896 L 45.1289,-280.555
 L 44.927,-280.237 L 44.6869,-279.946 L 44.4123,-279.688 L 44.1075,-279.467 L 43.7773,-279.286 L 43.427,-279.147
 L 43.0621,-279.053 L 42.6884,-279.006 z
M 49.9058,-280.503 L 49.7189,-280.527 L 49.5365,-280.573 L 49.3613,-280.643 L 49.1963,-280.734 L 49.0439,-280.844
 L 48.9065,-280.973 L 48.7865,-281.118 L 48.6855,-281.277 L 48.6053,-281.448 L 48.5471,-281.627 L 48.5118,-281.812
 L 48.5,-282 L 48.5118,-282.188 L 48.5471,-282.373 L 48.6053,-282.552 L 48.6855,-282.723 L 48.7865,-282.882
 L 48.9065,-283.027 L 49.0439,-283.156 L 49.1963,-283.266 L 49.3613,-283.357 L 49.5365,-283.427 L 49.7189,-283.473
 L 49.9058,-283.497 L 50.0942,-283.497 L 50.2811,-283.473 L 50.4635,-283.427 L 50.6387,-283.357 L 50.8037,-283.266
 L 50.9561,-283.156 L 51.0934,-283.027 L 51.2135,-282.882 L 51.3145,-282.723 L 51.3947,-282.552 L 51.4529,-282.373
 L 51.4882,-282.188 L 51.5,-282 L 51.4882,-281.812 L 51.4529,-281.627 L 51.3947,-281.448 L 51.3145,-281.277
 L 51.2135,-281.118 L 51.0934,-280.973 L 50.9561,-280.844 L 50.8037,-280.734 L 50.6387,-280.643 L 50.4635,-280.573
 L 50.2811,-280.527 L 50.0942,-280.503 z
M 49.887,-272.704 L 49.6627,-272.732 L 49.4438,-272.788 L 49.2336,-272.871 L 49.0355,-272.98 L 48.8526,-273.113
 L 48.6879,-273.268 L 48.5438,-273.442 L 48.4226,-273.633 L 48.3264,-273.837 L 48.2565,-274.052 L 48.2142,-274.274
 L 48.2,-274.5 L 48.2142,-274.726 L 48.2565,-274.948 L 48.3264,-275.163 L 48.4226,-275.367 L 48.5438,-275.558
 L 48.6879,-275.732 L 48.8526,-275.887 L 49.0355,-276.02 L 49.2336,-276.129 L 49.4438,-276.212 L 49.6627,-276.268
 L 49.887,-276.296 L 50.113,-276.296 L 50.3373,-276.268 L 50.5562,-276.212 L 50.7664,-276.129 L 50.9645,-276.02
 L 51.1474,-275.887 L 51.3121,-275.732 L 51.4562,-275.558 L 51.5773,-275.367 L 51.6736,-275.163 L 51.7434,-274.948
 L 51.7858,-274.726 L 51.8,-274.5 L 51.7858,-274.274 L 51.7434,-274.052 L 51.6736,-273.837 L 51.5773,-273.633
 L 51.4562,-273.442 L 51.3121,-273.268 L 51.1474,-273.113 L 50.9645,-272.98 L 50.7664,-272.871 L 50.5562,-272.788
 L 50.3373,-272.732 L 50.113,-272.704 z
M 42.4058,-273.003 L 42.2189,-273.027 L 42.0365,-273.073 L 41.8613,-273.143 L 41.6963,-273.234 L 41.5439,-273.344
 L 41.4065,-273.473 L 41.2865,-273.618 L 41.1855,-273.777 L 41.1053,-273.948 L 41.0471,-274.127 L 41.0118,-274.312
 L 41,-274.5 L 41.0118,-274.688 L 41.0471,-274.873 L 41.1053,-275.052 L 41.1855,-275.223 L 41.2865,-275.382
 L 41.4065,-275.527 L 41.5439,-275.656 L 41.6963,-275.766 L 41.8613,-275.857 L 42.0365,-275.927 L 42.2189,-275.973
 L 42.4058,-275.997 L 42.5942,-275.997 L 42.7811,-275.973 L 42.9635,-275.927 L 43.1387,-275.857 L 43.3037,-275.766
 L 43.4561,-275.656 L 43.5934,-275.527 L 43.7135,-275.382 L 43.8145,-275.223 L 43.8947,-275.052 L 43.9529,-274.873
 L 43.9882,-274.688 L 44,-274.5 L 43.9882,-274.312 L 43.9529,-274.127 L 43.8947,-273.948 L 43.8145,-273.777
 L 43.7135,-273.618 L 43.5934,-273.473 L 43.4561,-273.344 L 43.3037,-273.234 L 43.1387,-273.143 L 42.9635,-273.073
 L 42.7811,-273.027 L 42.5942,-273.003 z
M 57.4058,-273.003 L 57.2189,-273.027 L 57.0365,-273.073 L 56.8613,-273.143 L 56.6963,-273.234 L 56.5439,-273.344
 L 56.4065,-273.473 L 56.2865,-273.618 L 56.1855,-273.777 L 56.1053,-273.948 L 56.0471,-274.127 L 56.0118,-274.312
 L 56,-274.5 L 56.0118,-274.688 L 56.0471,-274.873 L 56.1053,-275.052 L 56.1855,-275.223 L 56.2865,-275.382
 L 56.4065,-275.527 L 56.5439,-275.656 L 56.6963,-275.766 L 56.8613,-275.857 L 57.0365,-275.927 L 57.2189,-275.973
 L 57.4058,-275.997 L 57.5942,-275.997 L 57.7811,-275.973 L 57.9635,-275.927 L 58.1387,-275.857 L 58.3037,-275.766
 L 58.4561,-275.656 L 58.5934,-275.527 L 58.7135,-275.382 L 58.8145,-275.223 L 58.8947,-275.052 L 58.9529,-274.873
 L 58.9882,-274.688 L 59,-274.5 L 58.9882,-274.312 L 58.9529,-274.127 L 58.8947,-273.948 L 58.8145,-273.777
 L 58.7135,-273.618 L 58.5934,-273.473 L 58.4561,-273.344 L 58.3037,-273.234 L 58.1387,-273.143 L 57.9635,-273.073
 L 57.7811,-273.027 L 57.5942,-273.003 z
M 14.5,-284 L 14.4606,-284.627 L 14.3429,-285.243 L 14.1489,-285.841 L 13.8815,-286.409 L 13.5451,-286.939
 L 13.1448,-287.423 L 12.6871,-287.853 L 12.1791,-288.222 L 11.6289,-288.524 L 11.0451,-288.755 L 10.4369,-288.911
 L 9.81395,-288.99 L -9.81395,-288.99 L -10.4369,-288.911 L -11.0451,-288.755 L -11.6289,-288.524 L -12.1791,-288.222
 L -12.6871,-287.853 L -13.1448,-287.423 L -13.5451,-286.939 L -13.8815,-286.409 L -14.1489,-285.841 L -14.3429,-285.243
 L -14.4606,-284.627 L -14.5,-284 L -14.5,-270.7 L 14.5,-270.7 z
M -0.194641,-278.906 L -0.580872,-278.955 L -0.957947,-279.052 L -1.3199,-279.195 L -1.66106,-279.383 L -1.97601,-279.611
 L -2.2598,-279.878 L -2.50795,-280.178 L -2.71654,-280.507 L -2.88229,-280.859 L -3.00259,-281.229 L -3.07555,-281.611
 L -3.09999,-282 L -3.07555,-282.389 L -3.00259,-282.771 L -2.88229,-283.141 L -2.71654,-283.493 L -2.50795,-283.822
 L -2.2598,-284.122 L -1.97601,-284.389 L -1.66106,-284.617 L -1.3199,-284.805 L -0.957947,-284.948 L -0.580872,-285.045
 L -0.194641,-285.094 L 0.194641,-285.094 L 0.580872,-285.045 L 0.957947,-284.948 L 1.3199,-284.805 L 1.66106,-284.617
 L 1.97601,-284.389 L 2.2598,-284.122 L 2.50795,-283.822 L 2.71654,-283.493 L 2.88229,-283.141 L 3.00259,-282.771
 L 3.07555,-282.389 L 3.09999,-282 L 3.07555,-281.611 L 3.00259,-281.229 L 2.88229,-280.859 L 2.71654,-280.507
 L 2.50795,-280.178 L 2.2598,-279.878 L 1.97601,-279.611 L 1.66106,-279.383 L 1.3199,-279.195 L 0.957947,-279.052
 L 0.580872,-278.955 L 0.194641,-278.906 z
M 7.31161,-279.006 L 6.93785,-279.053 L 6.57294,-279.147 L 6.22266,-279.286 L 5.89252,-279.467 L 5.58772,-279.688
 L 5.31308,-279.946 L 5.07294,-280.237 L 4.87108,-280.555 L 4.71066,-280.896 L 4.59424,-281.254 L 4.52365,-281.624
 L 4.5,-282 L 4.52365,-282.376 L 4.59424,-282.746 L 4.71066,-283.104 L 4.87108,-283.445 L 5.07294,-283.763
 L 5.31308,-284.054 L 5.58772,-284.312 L 5.89252,-284.533 L 6.22266,-284.714 L 6.57294,-284.853 L 6.93785,-284.947
 L 7.31161,-284.994 L 7.68837,-284.994 L 8.06213,-284.947 L 8.42705,-284.853 L 8.77733,-284.714 L 9.10747,-284.533
 L 9.41226,-284.312 L 9.6869,-284.054 L 9.92705,-283.763 L 10.1289,-283.445 L 10.2893,-283.104 L 10.4057,-282.746
 L 10.4763,-282.376 L 10.5,-282 L 10.4763,-281.624 L 10.4057,-281.254 L 10.2893,-280.896 L 10.1289,-280.555
 L 9.92705,-280.237 L 9.6869,-279.946 L 9.41226,-279.688 L 9.10747,-279.467 L 8.77733,-279.286 L 8.42705,-279.147
 L 8.06213,-279.053 L 7.68837,-279.006 z
M -7.68837,-279.006 L -8.06213,-279.053 L -8.42705,-279.147 L -8.77733,-279.286 L -9.10747,-279.467 L -9.41226,-279.688
 L -9.6869,-279.946 L -9.92705,-280.237 L -10.1289,-280.555 L -10.2893,-280.896 L -10.4057,-281.254 L -10.4763,-281.624
 L -10.5,-282 L -10.4763,-282.376 L -10.4057,-282.746 L -10.2893,-283.104 L -10.1289,-283.445 L -9.92705,-283.763
 L -9.6869,-284.054 L -9.41226,-284.312 L -9.10747,-284.533 L -8.77733,-284.714 L -8.42705,-284.853 L -8.06213,-284.947
 L -7.68837,-284.994 L -7.31161,-284.994 L -6.93785,-284.947 L -6.57294,-284.853 L -6.22266,-284.714 L -5.89252,-284.533
 L -5.58772,-284.312 L -5.31308,-284.054 L -5.07294,-283.763 L -4.87108,-283.445 L -4.71066,-283.104 L -4.59424,-282.746
 L -4.52365,-282.376 L -4.5,-282 L -4.52365,-281.624 L -4.59424,-281.254 L -4.71066,-280.896 L -4.87108,-280.555
 L -5.07294,-280.237 L -5.31308,-279.946 L -5.58772,-279.688 L -5.89252,-279.467 L -6.22266,-279.286 L -6.57294,-279.147
 L -6.93785,-279.053 L -7.31161,-279.006 z
M -0.113022,-272.704 L -0.33728,-272.732 L -0.556229,-272.788 L -0.766388,-272.871 L -0.964478,-272.98 L -1.14735,-273.113
 L -1.31213,-273.268 L -1.45622,-273.442 L -1.57735,-273.633 L -1.67358,-273.837 L -1.74344,-274.052 L -1.7858,-274.274
 L -1.79999,-274.5 L -1.7858,-274.726 L -1.74344,-274.948 L -1.67358,-275.163 L -1.57735,-275.367 L -1.45622,-275.558
 L -1.31213,-275.732 L -1.14735,-275.887 L -0.964478,-276.02 L -0.766388,-276.129 L -0.556229,-276.212 L -0.33728,-276.268
 L -0.113022,-276.296 L 0.113022,-276.296 L 0.33728,-276.268 L 0.556229,-276.212 L 0.766388,-276.129 L 0.964478,-276.02
 L 1.14735,-275.887 L 1.31213,-275.732 L 1.45622,-275.558 L 1.57735,-275.367 L 1.67358,-275.163 L 1.74344,-274.948
 L 1.7858,-274.726 L 1.79999,-274.5 L 1.7858,-274.274 L 1.74344,-274.052 L 1.67358,-273.837 L 1.57735,-273.633
 L 1.45622,-273.442 L 1.31213,-273.268 L 1.14735,-273.113 L 0.964478,-272.98 L 0.766388,-272.871 L 0.556229,-272.788
 L 0.33728,-272.732 L 0.113022,-272.704 z
M -7.59418,-273.003 L -7.78107,-273.027 L -7.96352,-273.073 L -8.13866,-273.143 L -8.30373,-273.234 L -8.45613,-273.344
 L -8.59344,-273.473 L -8.71352,-273.618 L -8.81445,-273.777 L -8.89465,-273.948 L -8.95287,-274.127 L -8.98816,-274.312
 L -9,-274.5 L -8.98816,-274.688 L -8.95287,-274.873 L -8.89465,-275.052 L -8.81445,-275.223 L -8.71352,-275.382
 L -8.59344,-275.527 L -8.45613,-275.656 L -8.30373,-275.766 L -8.13866,-275.857 L -7.96352,-275.927 L -7.78107,-275.973
 L -7.59418,-275.997 L -7.40581,-275.997 L -7.21892,-275.973 L -7.03647,-275.927 L -6.86133,-275.857 L -6.69626,-275.766
 L -6.54385,-275.656 L -6.40654,-275.527 L -6.28647,-275.382 L -6.18553,-275.223 L -6.10533,-275.052 L -6.04712,-274.873
 L -6.01183,-274.688 L -6,-274.5 L -6.01183,-274.312 L -6.04712,-274.127 L -6.10533,-273.948 L -6.18553,-273.777
 L -6.28647,-273.618 L -6.40654,-273.473 L -6.54385,-273.344 L -6.69626,-273.234 L -6.86133,-273.143 L -7.03647,-273.073
 L -7.21892,-273.027 L -7.40581,-273.003 z
M 7.40581,-273.003 L 7.21892,-273.027 L 7.03647,-273.073 L 6.86133,-273.143 L 6.69626,-273.234 L 6.54385,-273.344
 L 6.40654,-273.473 L 6.28647,-273.618 L 6.18553,-273.777 L 6.10533,-273.948 L 6.04712,-274.127 L 6.01183,-274.312
 L 6,-274.5 L 6.01183,-274.688 L 6.04712,-274.873 L 6.10533,-275.052 L 6.18553,-275.223 L 6.28647,-275.382
 L 6.40654,-275.527 L 6.54385,-275.656 L 6.69626,-275.766 L 6.86133,-275.857 L 7.03647,-275.927 L 7.21892,-275.973
 L 7.40581,-275.997 L 7.59418,-275.997 L 7.78107,-275.973 L 7.96352,-275.927 L 8.13866,-275.857 L 8.30373,-275.766
 L 8.45613,-275.656 L 8.59344,-275.527 L 8.71352,-275.382 L 8.81445,-275.223 L 8.89465,-275.052 L 8.95287,-274.873
 L 8.98816,-274.688 L 9,-274.5 L 8.98816,-274.312 L 8.95287,-274.127 L 8.89465,-273.948 L 8.81445,-273.777
 L 8.71352,-273.618 L 8.59344,-273.473 L 8.45613,-273.344 L 8.30373,-273.234 L 8.13866,-273.143 L 7.96352,-273.073
 L 7.78107,-273.027 L 7.59418,-273.003 z
M 64.5,-263.3 L 35.5,-263.3 L 35.5,-260.7 L 64.5,-260.7 z
M 14.5,-263.3 L -14.5,-263.3 L -14.5,-260.7 L 14.5,-260.7 z
M 64.5,-253.3 L 35.5,-253.3 L 35.5,-250.7 L 64.5,-250.7 z
M 14.5,-253.3 L -14.5,-253.3 L -14.5,-250.7 L 14.5,-250.7 z
M 64.5,-243.3 L 35.5,-243.3 L 35.5,-240.7 L 64.5,-240.7 z
M 14.5,-243.3 L -14.5,-243.3 L -14.5,-240.7 L 14.5,-240.7 z
M 60.4369,-215.089 L 61.0451,-215.245 L 61.6289,-215.476 L 62.1791,-215.778 L 62.6871,-216.147 L 63.1448,-216.577
 L 63.5451,-217.061 L 63.8815,-217.591 L 64.1489,-218.159 L 64.3429,-218.757 L 64.4606,-219.373 L 64.5,-220
 L 64.5,-233.3 L 35.5,-233.3 L 35.5,-220 L 35.5394,-219.373 L 35.6571,-218.757 L 35.8511,-218.159
 L 36.1185,-217.591 L 36.4549,-217.061 L 36.8551,-216.577 L 37.3129,-216.147 L 37.8209,-215.778 L 38.3711,-215.476
 L 38.9549,-215.245 L 39.5631,-215.089 L 40.186,-215.01 L 59.8139,-215.01 z
M 49.887,-227.704 L 49.6627,-227.732 L 49.4438,-227.788 L 49.2336,-227.871 L 49.0355,-227.98 L 48.8526,-228.113
 L 48.6879,-228.268 L 48.5438,-228.442 L 48.4226,-228.633 L 48.3264,-228.837 L 48.2565,-229.052 L 48.2142,-229.274
 L 48.2,-229.5 L 48.2142,-229.726 L 48.2565,-229.948 L 48.3264,-230.163 L 48.4226,-230.367 L 48.5438,-230.558
 L 48.6879,-230.732 L 48.8526,-230.887 L 49.0355,-231.02 L 49.2336,-231.129 L 49.4438,-231.212 L 49.6627,-231.268
 L 49.887,-231.296 L 50.113,-231.296 L 50.3373,-231.268 L 50.5562,-231.212 L 50.7664,-231.129 L 50.9645,-231.02
 L 51.1474,-230.887 L 51.3121,-230.732 L 51.4562,-230.558 L 51.5773,-230.367 L 51.6736,-230.163 L 51.7434,-229.948
 L 51.7858,-229.726 L 51.8,-229.5 L 51.7858,-229.274 L 51.7434,-229.052 L 51.6736,-228.837 L 51.5773,-228.633
 L 51.4562,-228.442 L 51.3121,-228.268 L 51.1474,-228.113 L 50.9645,-227.98 L 50.7664,-227.871 L 50.5562,-227.788
 L 50.3373,-227.732 L 50.113,-227.704 z
M 42.4058,-228.003 L 42.2189,-228.027 L 42.0365,-228.073 L 41.8613,-228.143 L 41.6963,-228.234 L 41.5439,-228.344
 L 41.4065,-228.473 L 41.2865,-228.618 L 41.1855,-228.777 L 41.1053,-228.948 L 41.0471,-229.127 L 41.0118,-229.312
 L 41,-229.5 L 41.0118,-229.688 L 41.0471,-229.873 L 41.1053,-230.052 L 41.1855,-230.223 L 41.2865,-230.382
 L 41.4065,-230.527 L 41.5439,-230.656 L 41.6963,-230.766 L 41.8613,-230.857 L 42.0365,-230.927 L 42.2189,-230.973
 L 42.4058,-230.997 L 42.5942,-230.997 L 42.7811,-230.973 L 42.9635,-230.927 L 43.1387,-230.857 L 43.3037,-230.766
 L 43.4561,-230.656 L 43.5934,-230.527 L 43.7135,-230.382 L 43.8145,-230.223 L 43.8947,-230.052 L 43.9529,-229.873
 L 43.9882,-229.688 L 44,-229.5 L 43.9882,-229.312 L 43.9529,-229.127 L 43.8947,-228.948 L 43.8145,-228.777
 L 43.7135,-228.618 L 43.5934,-228.473 L 43.4561,-228.344 L 43.3037,-228.234 L 43.1387,-228.143 L 42.9635,-228.073
 L 42.7811,-228.027 L 42.5942,-228.003 z
M 57.4058,-228.003 L 57.2189,-228.027 L 57.0365,-228.073 L 56.8613,-228.143 L 56.6963,-228.234 L 56.5439,-228.344
 L 56.4065,-228.473 L 56.2865,-228.618 L 56.1855,-228.777 L 56.1053,-228.948 L 56.0471,-229.127 L 56.0118,-229.312
 L 56,-229.5 L 56.0118,-229.688 L 56.0471,-229.873 L 56.1053,-230.052 L 56.1855,-230.223 L 56.2865,-230.382
 L 56.4065,-230.527 L 56.5439,-230.656 L 56.6963,-230.766 L 56.8613,-230.857 L 57.0365,-230.927 L 57.2189,-230.973
 L 57.4058,-230.997 L 57.5942,-230.997 L 57.7811,-230.973 L 57.9635,-230.927 L 58.1387,-230.857 L 58.3037,-230.766
 L 58.4561,-230.656 L 58.5934,-230.527 L 58.7135,-230.382 L 58.8145,-230.223 L 58.8947,-230.052 L 58.9529,-229.873
 L 58.9882,-229.688 L 59,-229.5 L 58.9882,-229.312 L 58.9529,-229.127 L 58.8947,-228.948 L 58.8145,-228.777
 L 58.7135,-228.618 L 58.5934,-228.473 L 58.4561,-228.344 L 58.3037,-228.234 L 58.1387,-228.143 L 57.9635,-228.073
 L 57.7811,-228.027 L 57.5942,-228.003 z
M 42.3116,-219.006 L 41.9379,-219.053 L 41.5729,-219.147 L 41.2227,-219.286 L 40.8925,-219.467 L 40.5877,-219.688
 L 40.3131,-219.946 L 40.0729,-220.237 L 39.8711,-220.555 L 39.7107,-220.896 L 39.5942,-221.254 L 39.5237,-221.624
 L 39.5,-222 L 39.5237,-222.376 L 39.5942,-222.746 L 39.7107,-223.104 L 39.8711,-223.445 L 40.0729,-223.763
 L 40.3131,-224.054 L 40.5877,-224.312 L 40.8925,-224.533 L 41.2227,-224.714 L 41.5729,-224.853 L 41.9379,-224.947
 L 42.3116,-224.994 L 42.6884,-224.994 L 43.0621,-224.947 L 43.427,-224.853 L 43.7773,-224.714 L 44.1075,-224.533
 L 44.4123,-224.312 L 44.6869,-224.054 L 44.927,-223.763 L 45.1289,-223.445 L 45.2893,-223.104 L 45.4057,-222.746
 L 45.4763,-222.376 L 45.5,-222 L 45.4763,-221.624 L 45.4057,-221.254 L 45.2893,-220.896 L 45.1289,-220.555
 L 44.927,-220.237 L 44.6869,-219.946 L 44.4123,-219.688 L 44.1075,-219.467 L 43.7773,-219.286 L 43.427,-219.147
 L 43.0621,-219.053 L 42.6884,-219.006 z
M 57.3116,-219.006 L 56.9379,-219.053 L 56.5729,-219.147 L 56.2227,-219.286 L 55.8925,-219.467 L 55.5877,-219.688
 L 55.3131,-219.946 L 55.0729,-220.237 L 54.8711,-220.555 L 54.7107,-220.896 L 54.5942,-221.254 L 54.5237,-221.624
 L 54.5,-222 L 54.5237,-222.376 L 54.5942,-222.746 L 54.7107,-223.104 L 54.8711,-223.445 L 55.0729,-223.763
 L 55.3131,-224.054 L 55.5877,-224.312 L 55.8925,-224.533 L 56.2227,-224.714 L 56.5729,-224.853 L 56.9379,-224.947
 L 57.3116,-224.994 L 57.6884,-224.994 L 58.0621,-224.947 L 58.427,-224.853 L 58.7773,-224.714 L 59.1075,-224.533
 L 59.4123,-224.312 L 59.6869,-224.054 L 59.927,-223.763 L 60.1289,-223.445 L 60.2893,-223.104 L 60.4057,-222.746
 L 60.4763,-222.376 L 60.5,-222 L 60.4763,-221.624 L 60.4057,-221.254 L 60.2893,-220.896 L 60.1289,-220.555
 L 59.927,-220.237 L 59.6869,-219.946 L 59.4123,-219.688 L 59.1075,-219.467 L 58.7773,-219.286 L 58.427,-219.147
 L 58.0621,-219.053 L 57.6884,-219.006 z
M 49.9058,-220.503 L 49.7189,-220.527 L 49.5365,-220.573 L 49.3613,-220.643 L 49.1963,-220.734 L 49.0439,-220.844
 L 48.9065,-220.973 L 48.7865,-221.118 L 48.6855,-221.277 L 48.6053,-221.448 L 48.5471,-221.627 L 48.5118,-221.812
 L 48.5,-222 L 48.5118,-222.188 L 48.5471,-222.373 L 48.6053,-222.552 L 48.6855,-222.723 L 48.7865,-222.882
 L 48.9065,-223.027 L 49.0439,-223.156 L 49.1963,-223.266 L 49.3613,-223.357 L 49.5365,-223.427 L 49.7189,-223.473
 L 49.9058,-223.497 L 50.0942,-223.497 L 50.2811,-223.473 L 50.4635,-223.427 L 50.6387,-223.357 L 50.8037,-223.266
 L 50.9561,-223.156 L 51.0934,-223.027 L 51.2135,-222.882 L 51.3145,-222.723 L 51.3947,-222.552 L 51.4529,-222.373
 L 51.4882,-222.188 L 51.5,-222 L 51.4882,-221.812 L 51.4529,-221.627 L 51.3947,-221.448 L 51.3145,-221.277
 L 51.2135,-221.118 L 51.0934,-220.973 L 50.9561,-220.844 L 50.8037,-220.734 L 50.6387,-220.643 L 50.4635,-220.573
 L 50.2811,-220.527 L 50.0942,-220.503 z
M 10.4369,-215.089 L 11.0451,-215.245 L 11.6289,-215.476 L 12.1791,-215.778 L 12.6871,-216.147 L 13.1448,-216.577
 L 13.5451,-217.061 L 13.8815,-217.591 L 14.1489,-218.159 L 14.3429,-218.757 L 14.4606,-219.373 L 14.5,-220
 L 14.5,-233.3 L -14.5,-233.3 L -14.5,-220 L -14.4606,-219.373 L -14.3429,-218.757 L -14.1489,-218.159
 L -13.8815,-217.591 L -13.5451,-217.061 L -13.1448,-216.577 L -12.6871,-216.147 L -12.1791,-215.778 L -11.6289,-215.476
 L -11.0451,-215.245 L -10.4369,-215.089 L -9.81395,-215.01 L 9.81395,-215.01 z
M -0.113022,-227.704 L -0.33728,-227.732 L -0.556229,-227.788 L -0.766388,-227.871 L -0.964478,-227.98 L -1.14735,-228.113
 L -1.31213,-228.268 L -1.45622,-228.442 L -1.57735,-228.633 L -1.67358,-228.837 L -1.74344,-229.052 L -1.7858,-229.274
 L -1.79999,-229.5 L -1.7858,-229.726 L -1.74344,-229.948 L -1.67358,-230.163 L -1.57735,-230.367 L -1.45622,-230.558
 L -1.31213,-230.732 L -1.14735,-230.887 L -0.964478,-231.02 L -0.766388,-231.129 L -0.556229,-231.212 L -0.33728,-231.268
 L -0.113022,-231.296 L 0.113022,-231.296 L 0.33728,-231.268 L 0.556229,-231.212 L 0.766388,-231.129 L 0.964478,-231.02
 L 1.14735,-230.887 L 1.31213,-230.732 L 1.45622,-230.558 L 1.57735,-230.367 L 1.67358,-230.163 L 1.74344,-229.948
 L 1.7858,-229.726 L 1.79999,-229.5 L 1.7858,-229.274 L 1.74344,-229.052 L 1.67358,-228.837 L 1.57735,-228.633
 L 1.45622,-228.442 L 1.31213,-228.268 L 1.14735,-228.113 L 0.964478,-227.98 L 0.766388,-227.871 L 0.556229,-227.788
 L 0.33728,-227.732 L 0.113022,-227.704 z
M 7.40581,-228.003 L 7.21892,-228.027 L 7.03647,-228.073 L 6.86133,-228.143 L 6.69626,-228.234 L 6.54385,-228.344
 L 6.40654,-228.473 L 6.28647,-228.618 L 6.18553,-228.777 L 6.10533,-228.948 L 6.04712,-229.127 L 6.01183,-229.312
 L 6,-229.5 L 6.01183,-229.688 L 6.04712,-229.873 L 6.10533,-230.052 L 6.18553,-230.223 L 6.28647,-230.382
 L 6.40654,-230.527 L 6.54385,-230.656 L 6.69626,-230.766 L 6.86133,-230.857 L 7.03647,-230.927 L 7.21892,-230.973
 L 7.40581,-230.997 L 7.59418,-230.997 L 7.78107,-230.973 L 7.96352,-230.927 L 8.13866,-230.857 L 8.30373,-230.766
 L 8.45613,-230.656 L 8.59344,-230.527 L 8.71352,-230.382 L 8.81445,-230.223 L 8.89465,-230.052 L 8.95287,-229.873
 L 8.98816,-229.688 L 9,-229.5 L 8.98816,-229.312 L 8.95287,-229.127 L 8.89465,-228.948 L 8.81445,-228.777
 L 8.71352,-228.618 L 8.59344,-228.473 L 8.45613,-228.344 L 8.30373,-228.234 L 8.13866,-228.143 L 7.96352,-228.073
 L 7.78107,-228.027 L 7.59418,-228.003 z
M -7.59418,-228.003 L -7.78107,-228.027 L -7.96352,-228.073 L -8.13866,-228.143 L -8.30373,-228.234 L -8.45613,-228.344
 L -8.59344,-228.473 L -8.71352,-228.618 L -8.81445,-228.777 L -8.89465,-228.948 L -8.95287,-229.127 L -8.98816,-229.312
 L -9,-229.5 L -8.98816,-229.688 L -8.95287,-229.873 L -8.89465,-230.052 L -8.81445,-230.223 L -8.71352,-230.382
 L -8.59344,-230.527 L -8.45613,-230.656 L -8.30373,-230.766 L -8.13866,-230.857 L -7.96352,-230.927 L -7.78107,-230.973
 L -7.59418,-230.997 L -7.40581,-230.997 L -7.21892,-230.973 L -7.03647,-230.927 L -6.86133,-230.857 L -6.69626,-230.766
 L -6.54385,-230.656 L -6.40654,-230.527 L -6.28647,-230.382 L -6.18553,-230.223 L -6.10533,-230.052 L -6.04712,-229.873
 L -6.01183,-229.688 L -6,-229.5 L -6.01183,-229.312 L -6.04712,-229.127 L -6.10533,-228.948 L -6.18553,-228.777
 L -6.28647,-228.618 L -6.40654,-228.473 L -6.54385,-228.344 L -6.69626,-228.234 L -6.86133,-228.143 L -7.03647,-228.073
 L -7.21892,-228.027 L -7.40581,-228.003 z
M -0.194641,-218.906 L -0.580872,-218.955 L -0.957947,-219.052 L -1.3199,-219.195 L -1.66106,-219.383 L -1.97601,-219.611
 L -2.2598,-219.878 L -2.50795,-220.178 L -2.71654,-220.507 L -2.88229,-220.859 L -3.00259,-221.229 L -3.07555,-221.611
 L -3.09999,-222 L -3.07555,-222.389 L -3.00259,-222.771 L -2.88229,-223.141 L -2.71654,-223.493 L -2.50795,-223.822
 L -2.2598,-224.122 L -1.97601,-224.389 L -1.66106,-224.617 L -1.3199,-224.805 L -0.957947,-224.948 L -0.580872,-225.045
 L -0.194641,-225.094 L 0.194641,-225.094 L 0.580872,-225.045 L 0.957947,-224.948 L 1.3199,-224.805 L 1.66106,-224.617
 L 1.97601,-224.389 L 2.2598,-224.122 L 2.50795,-223.822 L 2.71654,-223.493 L 2.88229,-223.141 L 3.00259,-222.771
 L 3.07555,-222.389 L 3.09999,-222 L 3.07555,-221.611 L 3.00259,-221.229 L 2.88229,-220.859 L 2.71654,-220.507
 L 2.50795,-220.178 L 2.2598,-219.878 L 1.97601,-219.611 L 1.66106,-219.383 L 1.3199,-219.195 L 0.957947,-219.052
 L 0.580872,-218.955 L 0.194641,-218.906 z
M -7.68837,-219.006 L -8.06213,-219.053 L -8.42705,-219.147 L -8.77733,-219.286 L -9.10747,-219.467 L -9.41226,-219.688
 L -9.6869,-219.946 L -9.92705,-220.237 L -10.1289,-220.555 L -10.2893,-220.896 L -10.4057,-221.254 L -10.4763,-221.624
 L -10.5,-222 L -10.4763,-222.376 L -10.4057,-222.746 L -10.2893,-223.104 L -10.1289,-223.445 L -9.92705,-223.763
 L -9.6869,-224.054 L -9.41226,-224.312 L -9.10747,-224.533 L -8.77733,-224.714 L -8.42705,-224.853 L -8.06213,-224.947
 L -7.68837,-224.994 L -7.31161,-224.994 L -6.93785,-224.947 L -6.57294,-224.853 L -6.22266,-224.714 L -5.89252,-224.533
 L -5.58772,-224.312 L -5.31308,-224.054 L -5.07294,-223.763 L -4.87108,-223.445 L -4.71066,-223.104 L -4.59424,-222.746
 L -4.52365,-222.376 L -4.5,-222 L -4.52365,-221.624 L -4.59424,-221.254 L -4.71066,-220.896 L -4.87108,-220.555
 L -5.07294,-220.237 L -5.31308,-219.946 L -5.58772,-219.688 L -5.89252,-219.467 L -6.22266,-219.286 L -6.57294,-219.147
 L -6.93785,-219.053 L -7.31161,-219.006 z
M 7.31161,-219.006 L 6.93785,-219.053 L 6.57294,-219.147 L 6.22266,-219.286 L 5.89252,-219.467 L 5.58772,-219.688
 L 5.31308,-219.946 L 5.07294,-220.237 L 4.87108,-220.555 L 4.71066,-220.896 L 4.59424,-221.254 L 4.52365,-221.624
 L 4.5,-222 L 4.52365,-222.376 L 4.59424,-222.746 L 4.71066,-223.104 L 4.87108,-223.445 L 5.07294,-223.763
 L 5.31308,-224.054 L 5.58772,-224.312 L 5.89252,-224.533 L 6.22266,-224.714 L 6.57294,-224.853 L 6.93785,-224.947
 L 7.31161,-224.994 L 7.68837,-224.994 L 8.06213,-224.947 L 8.42705,-224.853 L 8.77733,-224.714 L 9.10747,-224.533
 L 9.41226,-224.312 L 9.6869,-224.054 L 9.92705,-223.763 L 10.1289,-223.445 L 10.2893,-223.104 L 10.4057,-222.746
 L 10.4763,-222.376 L 10.5,-222 L 10.4763,-221.624 L 10.4057,-221.254 L 10.2893,-220.896 L 10.1289,-220.555
 L 9.92705,-220.237 L 9.6869,-219.946 L 9.41226,-219.688 L 9.10747,-219.467 L 8.77733,-219.286 L 8.42705,-219.147
 L 8.06213,-219.053 L 7.68837,-219.006 z
M 60.4369,-131.089 L 61.0451,-131.245 L 61.6289,-131.476 L 62.1791,-131.778 L 62.6871,-132.147 L 63.1448,-132.577
 L 63.5451,-133.061 L 63.8815,-133.591 L 64.1489,-134.159 L 64.3429,-134.757 L 64.4606,-135.373 L 64.5,-136
 L 64.5,-200 L 64.4606,-200.627 L 64.3429,-201.243 L 64.1489,-201.841 L 63.8815,-202.409 L 63.5451,-202.939
 L 63.1448,-203.423 L 62.6871,-203.853 L 62.1791,-204.222 L 61.6289,-204.524 L 61.0451,-204.755 L 60.4369,-204.911
 L 59.8139,-204.99 L 40.186,-204.99 L 39.5631,-204.911 L 38.9549,-204.755 L 38.3711,-204.524 L 37.8209,-204.222
 L 37.3129,-203.853 L 36.8551,-203.423 L 36.4549,-202.939 L 36.1185,-202.409 L 35.8511,-201.841 L 35.6571,-201.243
 L 35.5394,-200.627 L 35.5,-200 L 35.5,-136 L 35.5394,-135.373 L 35.6571,-134.757 L 35.8511,-134.159
 L 36.1185,-133.591 L 36.4549,-133.061 L 36.8551,-132.577 L 37.3129,-132.147 L 37.8209,-131.778 L 38.3711,-131.476
 L 38.9549,-131.245 L 39.5631,-131.089 L 40.186,-131.01 L 59.8139,-131.01 z
M 42.3116,-195.006 L 41.9379,-195.053 L 41.5729,-195.147 L 41.2227,-195.286 L 40.8925,-195.467 L 40.5877,-195.688
 L 40.3131,-195.946 L 40.0729,-196.237 L 39.8711,-196.555 L 39.7107,-196.896 L 39.5942,-197.254 L 39.5237,-197.624
 L 39.5,-198 L 39.5237,-198.376 L 39.5942,-198.746 L 39.7107,-199.104 L 39.8711,-199.445 L 40.0729,-199.763
 L 40.3131,-200.054 L 40.5877,-200.312 L 40.8925,-200.533 L 41.2227,-200.714 L 41.5729,-200.853 L 41.9379,-200.947
 L 42.3116,-200.994 L 42.6884,-200.994 L 43.0621,-200.947 L 43.427,-200.853 L 43.7773,-200.714 L 44.1075,-200.533
 L 44.4123,-200.312 L 44.6869,-200.054 L 44.927,-199.763 L 45.1289,-199.445 L 45.2893,-199.104 L 45.4057,-198.746
 L 45.4763,-198.376 L 45.5,-198 L 45.4763,-197.624 L 45.4057,-197.254 L 45.2893,-196.896 L 45.1289,-196.555
 L 44.927,-196.237 L 44.6869,-195.946 L 44.4123,-195.688 L 44.1075,-195.467 L 43.7773,-195.286 L 43.427,-195.147
 L 43.0621,-195.053 L 42.6884,-195.006 z
M 57.3116,-195.006 L 56.9379,-195.053 L 56.5729,-195.147 L 56.2227,-195.286 L 55.8925,-195.467 L 55.5877,-195.688
 L 55.3131,-195.946 L 55.0729,-196.237 L 54.8711,-196.555 L 54.7107,-196.896 L 54.5942,-197.254 L 54.5237,-197.624
 L 54.5,-198 L 54.5237,-198.376 L 54.5942,-198.746 L 54.7107,-199.104 L 54.8711,-199.445 L 55.0729,-199.763
 L 55.3131,-200.054 L 55.5877,-200.312 L 55.8925,-200.533 L 56.2227,-200.714 L 56.5729,-200.853 L 56.9379,-200.947
 L 57.3116,-200.994 L 57.6884,-200.994 L 58.0621,-200.947 L 58.427,-200.853 L 58.7773,-200.714 L 59.1075,-200.533
 L 59.4123,-200.312 L 59.6869,-200.054 L 59.927,-199.763 L 60.1289,-199.445 L 60.2893,-199.104 L 60.4057,-198.746
 L 60.4763,-198.376 L 60.5,-198 L 60.4763,-197.624 L 60.4057,-197.254 L 60.2893,-196.896 L 60.1289,-196.555
 L 59.927,-196.237 L 59.6869,-195.946 L 59.4123,-195.688 L 59.1075,-195.467 L 58.7773,-195.286 L 58.427,-195.147
 L 58.0621,-195.053 L 57.6884,-195.006 z
M 49.9058,-196.503 L 49.7189,-196.527 L 49.5365,-196.573 L 49.3613,-196.643 L 49.1963,-196.734 L 49.0439,-196.844
 L 48.9065,-196.973 L 48.7865,-197.118 L 48.6855,-197.277 L 48.6053,-197.448 L 48.5471,-197.627 L 48.5118,-197.812
 L 48.5,-198 L 48.5118,-198.188 L 48.5471,-198.373 L 48.6053,-198.552 L 48.6855,-198.723 L 48.7865,-198.882
 L 48.9065,-199.027 L 49.0439,-199.156 L 49.1963,-199.266 L 49.3613,-199.357 L 49.5365,-199.427 L 49.7189,-199.473
 L 49.9058,-199.497 L 50.0942,-199.497 L 50.2811,-199.473 L 50.4635,-199.427 L 50.6387,-199.357 L 50.8037,-199.266
 L 50.9561,-199.156 L 51.0934,-199.027 L 51.2135,-198.882 L 51.3145,-198.723 L 51.3947,-198.552 L 51.4529,-198.373
 L 51.4882,-198.188 L 51.5,-198 L 51.4882,-197.812 L 51.4529,-197.627 L 51.3947,-197.448 L 51.3145,-197.277
 L 51.2135,-197.118 L 51.0934,-196.973 L 50.9561,-196.844 L 50.8037,-196.734 L 50.6387,-196.643 L 50.4635,-196.573
 L 50.2811,-196.527 L 50.0942,-196.503 z
M 49.887,-188.704 L 49.6627,-188.732 L 49.4438,-188.788 L 49.2336,-188.871 L 49.0355,-188.98 L 48.8526,-189.113
 L 48.6879,-189.268 L 48.5438,-189.442 L 48.4226,-189.633 L 48.3264,-189.837 L 48.2565,-190.052 L 48.2142,-190.274
 L 48.2,-190.5 L 48.2142,-190.726 L 48.2565,-190.948 L 48.3264,-191.163 L 48.4226,-191.367 L 48.5438,-191.558
 L 48.6879,-191.732 L 48.8526,-191.887 L 49.0355,-192.02 L 49.2336,-192.129 L 49.4438,-192.212 L 49.6627,-192.268
 L 49.887,-192.296 L 50.113,-192.296 L 50.3373,-192.268 L 50.5562,-192.212 L 50.7664,-192.129 L 50.9645,-192.02
 L 51.1474,-191.887 L 51.3121,-191.732 L 51.4562,-191.558 L 51.5773,-191.367 L 51.6736,-191.163 L 51.7434,-190.948
 L 51.7858,-190.726 L 51.8,-190.5 L 51.7858,-190.274 L 51.7434,-190.052 L 51.6736,-189.837 L 51.5773,-189.633
 L 51.4562,-189.442 L 51.3121,-189.268 L 51.1474,-189.113 L 50.9645,-188.98 L 50.7664,-188.871 L 50.5562,-188.788
 L 50.3373,-188.732 L 50.113,-188.704 z
M 42.4058,-189.003 L 42.2189,-189.027 L 42.0365,-189.073 L 41.8613,-189.143 L 41.6963,-189.234 L 41.5439,-189.344
 L 41.4065,-189.473 L 41.2865,-189.618 L 41.1855,-189.777 L 41.1053,-189.948 L 41.0471,-190.127 L 41.0118,-190.312
 L 41,-190.5 L 41.0118,-190.688 L 41.0471,-190.873 L 41.1053,-191.052 L 41.1855,-191.223 L 41.2865,-191.382
 L 41.4065,-191.527 L 41.5439,-191.656 L 41.6963,-191.766 L 41.8613,-191.857 L 42.0365,-191.927 L 42.2189,-191.973
 L 42.4058,-191.997 L 42.5942,-191.997 L 42.7811,-191.973 L 42.9635,-191.927 L 43.1387,-191.857 L 43.3037,-191.766
 L 43.4561,-191.656 L 43.5934,-191.527 L 43.7135,-191.382 L 43.8145,-191.223 L 43.8947,-191.052 L 43.9529,-190.873
 L 43.9882,-190.688 L 44,-190.5 L 43.9882,-190.312 L 43.9529,-190.127 L 43.8947,-189.948 L 43.8145,-189.777
 L 43.7135,-189.618 L 43.5934,-189.473 L 43.4561,-189.344 L 43.3037,-189.234 L 43.1387,-189.143 L 42.9635,-189.073
 L 42.7811,-189.027 L 42.5942,-189.003 z
M 57.4058,-189.003 L 57.2189,-189.027 L 57.0365,-189.073 L 56.8613,-189.143 L 56.6963,-189.234 L 56.5439,-189.344
 L 56.4065,-189.473 L 56.2865,-189.618 L 56.1855,-189.777 L 56.1053,-189.948 L 56.0471,-190.127 L 56.0118,-190.312
 L 56,-190.5 L 56.0118,-190.688 L 56.0471,-190.873 L 56.1053,-191.052 L 56.1855,-191.223 L 56.2865,-191.382
 L 56.4065,-191.527 L 56.5439,-191.656 L 56.6963,-191.766 L 56.8613,-191.857 L 57.0365,-191.927 L 57.2189,-191.973
 L 57.4058,-191.997 L 57.5942,-191.997 L 57.7811,-191.973 L 57.9635,-191.927 L 58.1387,-191.857 L 58.3037,-191.766
 L 58.4561,-191.656 L 58.5934,-191.527 L 58.7135,-191.382 L 58.8145,-191.223 L 58.8947,-191.052 L 58.9529,-190.873
 L 58.9882,-190.688 L 59,-190.5 L 58.9882,-190.312 L 58.9529,-190.127 L 58.8947,-189.948 L 58.8145,-189.777
 L 58.7135,-189.618 L 58.5934,-189.473 L 58.4561,-189.344 L 58.3037,-189.234 L 58.1387,-189.143 L 57.9635,-189.073
 L 57.7811,-189.027 L 57.5942,-189.003 z
M 49.887,-143.704 L 49.6627,-143.732 L 49.4438,-143.788 L 49.2336,-143.871 L 49.0355,-143.98 L 48.8526,-144.113
 L 48.6879,-144.268 L 48.5438,-144.442 L 48.4226,-144.633 L 48.3264,-144.837 L 48.2565,-145.052 L 48.2142,-145.274
 L 48.2,-145.5 L 48.2142,-145.726 L 48.2565,-145.948 L 48.3264,-146.163 L 48.4226,-146.367 L 48.5438,-146.558
 L 48.6879,-146.732 L 48.8526,-146.887 L 49.0355,-147.02 L 49.2336,-147.129 L 49.4438,-147.212 L 49.6627,-147.268
 L 49.887,-147.296 L 50.113,-147.296 L 50.3373,-147.268 L 50.5562,-147.212 L 50.7664,-147.129 L 50.9645,-147.02
 L 51.1474,-146.887 L 51.3121,-146.732 L 51.4562,-146.558 L 51.5773,-146.367 L 51.6736,-146.163 L 51.7434,-145.948
 L 51.7858,-145.726 L 51.8,-145.5 L 51.7858,-145.274 L 51.7434,-145.052 L 51.6736,-144.837 L 51.5773,-144.633
 L 51.4562,-144.442 L 51.3121,-144.268 L 51.1474,-144.113 L 50.9645,-143.98 L 50.7664,-143.871 L 50.5562,-143.788
 L 50.3373,-143.732 L 50.113,-143.704 z
M 57.4058,-144.003 L 57.2189,-144.027 L 57.0365,-144.073 L 56.8613,-144.143 L 56.6963,-144.234 L 56.5439,-144.344
 L 56.4065,-144.473 L 56.2865,-144.618 L 56.1855,-144.777 L 56.1053,-144.948 L 56.0471,-145.127 L 56.0118,-145.312
 L 56,-145.5 L 56.0118,-145.688 L 56.0471,-145.873 L 56.1053,-146.052 L 56.1855,-146.223 L 56.2865,-146.382
 L 56.4065,-146.527 L 56.5439,-146.656 L 56.6963,-146.766 L 56.8613,-146.857 L 57.0365,-146.927 L 57.2189,-146.973
 L 57.4058,-146.997 L 57.5942,-146.997 L 57.7811,-146.973 L 57.9635,-146.927 L 58.1387,-146.857 L 58.3037,-146.766
 L 58.4561,-146.656 L 58.5934,-146.527 L 58.7135,-146.382 L 58.8145,-146.223 L 58.8947,-146.052 L 58.9529,-145.873
 L 58.9882,-145.688 L 59,-145.5 L 58.9882,-145.312 L 58.9529,-145.127 L 58.8947,-144.948 L 58.8145,-144.777
 L 58.7135,-144.618 L 58.5934,-144.473 L 58.4561,-144.344 L 58.3037,-144.234 L 58.1387,-144.143 L 57.9635,-144.073
 L 57.7811,-144.027 L 57.5942,-144.003 z
M 42.4058,-144.003 L 42.2189,-144.027 L 42.0365,-144.073 L 41.8613,-144.143 L 41.6963,-144.234 L 41.5439,-144.344
 L 41.4065,-144.473 L 41.2865,-144.618 L 41.1855,-144.777 L 41.1053,-144.948 L 41.0471,-145.127 L 41.0118,-145.312
 L 41,-145.5 L 41.0118,-145.688 L 41.0471,-145.873 L 41.1053,-146.052 L 41.1855,-146.223 L 41.2865,-146.382
 L 41.4065,-146.527 L 41.5439,-146.656 L 41.6963,-146.766 L 41.8613,-146.857 L 42.0365,-146.927 L 42.2189,-146.973
 L 42.4058,-146.997 L 42.5942,-146.997 L 42.7811,-146.973 L 42.9635,-146.927 L 43.1387,-146.857 L 43.3037,-146.766
 L 43.4561,-146.656 L 43.5934,-146.527 L 43.7135,-146.382 L 43.8145,-146.223 L 43.8947,-146.052 L 43.9529,-145.873
 L 43.9882,-145.688 L 44,-145.5 L 43.9882,-145.312 L 43.9529,-145.127 L 43.8947,-144.948 L 43.8145,-144.777
 L 43.7135,-144.618 L 43.5934,-144.473 L 43.4561,-144.344 L 43.3037,-144.234 L 43.1387,-144.143 L 42.9635,-144.073
 L 42.7811,-144.027 L 42.5942,-144.003 z
M 42.3116,-135.006 L 41.9379,-135.053 L 41.5729,-135.147 L 41.2227,-135.286 L 40.8925,-135.467 L 40.5877,-135.688
 L 40.3131,-135.946 L 40.0729,-136.237 L 39.8711,-136.555 L 39.7107,-136.896 L 39.5942,-137.254 L 39.5237,-137.624
 L 39.5,-138 L 39.5237,-138.376 L 39.5942,-138.746 L 39.7107,-139.104 L 39.8711,-139.445 L 40.0729,-139.763
 L 40.3131,-140.054 L 40.5877,-140.312 L 40.8925,-140.533 L 41.2227,-140.714 L 41.5729,-140.853 L 41.9379,-140.947
 L 42.3116,-140.994 L 42.6884,-140.994 L 43.0621,-140.947 L 43.427,-140.853 L 43.7773,-140.714 L 44.1075,-140.533
 L 44.4123,-140.312 L 44.6869,-140.054 L 44.927,-139.763 L 45.1289,-139.445 L 45.2893,-139.104 L 45.4057,-138.746
 L 45.4763,-138.376 L 45.5,-138 L 45.4763,-137.624 L 45.4057,-137.254 L 45.2893,-136.896 L 45.1289,-136.555
 L 44.927,-136.237 L 44.6869,-135.946 L 44.4123,-135.688 L 44.1075,-135.467 L 43.7773,-135.286 L 43.427,-135.147
 L 43.0621,-135.053 L 42.6884,-135.006 z
M 57.3116,-135.006 L 56.9379,-135.053 L 56.5729,-135.147 L 56.2227,-135.286 L 55.8925,-135.467 L 55.5877,-135.688
 L 55.3131,-135.946 L 55.0729,-136.237 L 54.8711,-136.555 L 54.7107,-136.896 L 54.5942,-137.254 L 54.5237,-137.624
 L 54.5,-138 L 54.5237,-138.376 L 54.5942,-138.746 L 54.7107,-139.104 L 54.8711,-139.445 L 55.0729,-139.763
 L 55.3131,-140.054 L 55.5877,-140.312 L 55.8925,-140.533 L 56.2227,-140.714 L 56.5729,-140.853 L 56.9379,-140.947
 L 57.3116,-140.994 L 57.6884,-140.994 L 58.0621,-140.947 L 58.427,-140.853 L 58.7773,-140.714 L 59.1075,-140.533
 L 59.4123,-140.312 L 59.6869,-140.054 L 59.927,-139.763 L 60.1289,-139.445 L 60.2893,-139.104 L 60.4057,-138.746
 L 60.4763,-138.376 L 60.5,-138 L 60.4763,-137.624 L 60.4057,-137.254 L 60.2893,-136.896 L 60.1289,-136.555
 L 59.927,-136.237 L 59.6869,-135.946 L 59.4123,-135.688 L 59.1075,-135.467 L 58.7773,-135.286 L 58.427,-135.147
 L 58.0621,-135.053 L 57.6884,-135.006 z
M 49.9058,-136.503 L 49.7189,-136.527 L 49.5365,-136.573 L 49.3613,-136.643 L 49.1963,-136.734 L 49.0439,-136.844
 L 48.9065,-136.973 L 48.7865,-137.118 L 48.6855,-137.277 L 48.6053,-137.448 L 48.5471,-137.627 L 48.5118,-137.812
 L 48.5,-138 L 48.5118,-138.188 L 48.5471,-138.373 L 48.6053,-138.552 L 48.6855,-138.723 L 48.7865,-138.882
 L 48.9065,-139.027 L 49.0439,-139.156 L 49.1963,-139.266 L 49.3613,-139.357 L 49.5365,-139.427 L 49.7189,-139.473
 L 49.9058,-139.497 L 50.0942,-139.497 L 50.2811,-139.473 L 50.4635,-139.427 L 50.6387,-139.357 L 50.8037,-139.266
 L 50.9561,-139.156 L 51.0934,-139.027 L 51.2135,-138.882 L 51.3145,-138.723 L 51.3947,-138.552 L 51.4529,-138.373
 L 51.4882,-138.188 L 51.5,-138 L 51.4882,-137.812 L 51.4529,-137.627 L 51.3947,-137.448 L 51.3145,-137.277
 L 51.2135,-137.118 L 51.0934,-136.973 L 50.9561,-136.844 L 50.8037,-136.734 L 50.6387,-136.643 L 50.4635,-136.573
 L 50.2811,-136.527 L 50.0942,-136.503 z
M 10.4369,-131.089 L 11.0451,-131.245 L 11.6289,-131.476 L 12.1791,-131.778 L 12.6871,-132.147 L 13.1448,-132.577
 L 13.5451,-133.061 L 13.8815,-133.591 L 14.1489,-134.159 L 14.3429,-134.757 L 14.4606,-135.373 L 14.5,-136
 L 14.5,-200 L 14.4606,-200.627 L 14.3429,-201.243 L 14.1489,-201.841 L 13.8815,-202.409 L 13.5451,-202.939
 L 13.1448,-203.423 L 12.6871,-203.853 L 12.1791,-204.222 L 11.6289,-204.524 L 11.0451,-204.755 L 10.4369,-204.911
 L 9.81395,-204.99 L -9.81395,-204.99 L -10.4369,-204.911 L -11.0451,-204.755 L -11.6289,-204.524 L -12.1791,-204.222
 L -12.6871,-203.853 L -13.1448,-203.423 L -13.5451,-202.939 L -13.8815,-202.409 L -14.1489,-201.841 L -14.3429,-201.243
 L -14.4606,-200.627 L -14.5,-200 L -14.5,-136 L -14.4606,-135.373 L -14.3429,-134.757 L -14.1489,-134.159
 L -13.8815,-133.591 L -13.5451,-133.061 L -13.1448,-132.577 L -12.6871,-132.147 L -12.1791,-131.778 L -11.6289,-131.476
 L -11.0451,-131.245 L -10.4369,-131.089 L -9.81395,-131.01 L 9.81395,-131.01 z
M 7.31161,-195.006 L 6.93785,-195.053 L 6.57294,-195.147 L 6.22266,-195.286 L 5.89252,-195.467 L 5.58772,-195.688
 L 5.31308,-195.946 L 5.07294,-196.237 L 4.87108,-196.555 L 4.71066,-196.896 L 4.59424,-197.254 L 4.52365,-197.624
 L 4.5,-198 L 4.52365,-198.376 L 4.59424,-198.746 L 4.71066,-199.104 L 4.87108,-199.445 L 5.07294,-199.763
 L 5.31308,-200.054 L 5.58772,-200.312 L 5.89252,-200.533 L 6.22266,-200.714 L 6.57294,-200.853 L 6.93785,-200.947
 L 7.31161,-200.994 L 7.68837,-200.994 L 8.06213,-200.947 L 8.42705,-200.853 L 8.77733,-200.714 L 9.10747,-200.533
 L 9.41226,-200.312 L 9.6869,-200.054 L 9.92705,-199.763 L 10.1289,-199.445 L 10.2893,-199.104 L 10.4057,-198.746
 L 10.4763,-198.376 L 10.5,-198 L 10.4763,-197.624 L 10.4057,-197.254 L 10.2893,-196.896 L 10.1289,-196.555
 L 9.92705,-196.237 L 9.6869,-195.946 L 9.41226,-195.688 L 9.10747,-195.467 L 8.77733,-195.286 L 8.42705,-195.147
 L 8.06213,-195.053 L 7.68837,-195.006 z
M -7.68837,-195.006 L -8.06213,-195.053 L -8.42705,-195.147 L -8.77733,-195.286 L -9.10747,-195.467 L -9.41226,-195.688
 L -9.6869,-195.946 L -9.92705,-196.237 L -10.1289,-196.555 L -10.2893,-196.896 L -10.4057,-197.254 L -10.4763,-197.624
 L -10.5,-198 L -10.4763,-198.376 L -10.4057,-198.746 L -10.2893,-199.104 L -10.1289,-199.445 L -9.92705,-199.763
 L -9.6869,-200.054 L -9.41226,-200.312 L -9.10747,-200.533 L -8.77733,-200.714 L -8.42705,-200.853 L -8.06213,-200.947
 L -7.68837,-200.994 L -7.31161,-200.994 L -6.93785,-200.947 L -6.57294,-200.853 L -6.22266,-200.714 L -5.89252,-200.533
 L -5.58772,-200.312 L -5.31308,-200.054 L -5.07294,-199.763 L -4.87108,-199.445 L -4.71066,-199.104 L -4.59424,-198.746
 L -4.52365,-198.376 L -4.5,-198 L -4.52365,-197.624 L -4.59424,-197.254 L -4.71066,-196.896 L -4.87108,-196.555
 L -5.07294,-196.237 L -5.31308,-195.946 L -5.58772,-195.688 L -5.89252,-195.467 L -6.22266,-195.286 L -6.57294,-195.147
 L -6.93785,-195.053 L -7.31161,-195.006 z
M -0.133423,-195.879 L -0.398178,-195.913 L -0.656647,-195.979 L -0.90477,-196.077 L -1.13863,-196.206 L -1.35452,-196.363
 L -1.54906,-196.545 L -1.71915,-196.751 L -1.86214,-196.976 L -1.97577,-197.218 L -2.05823,-197.472 L -2.10823,-197.734
 L -2.125,-198 L -2.10823,-198.266 L -2.05823,-198.528 L -1.97577,-198.782 L -1.86214,-199.024 L -1.71915,-199.249
 L -1.54906,-199.455 L -1.35452,-199.637 L -1.13863,-199.794 L -0.90477,-199.923 L -0.656647,-200.021 L -0.398178,-200.087
 L -0.133423,-200.121 L 0.133423,-200.121 L 0.398178,-200.087 L 0.656647,-200.021 L 0.90477,-199.923 L 1.13863,-199.794
 L 1.35452,-199.637 L 1.54906,-199.455 L 1.71915,-199.249 L 1.86214,-199.024 L 1.97577,-198.782 L 2.05823,-198.528
 L 2.10823,-198.266 L 2.125,-198 L 2.10823,-197.734 L 2.05823,-197.472 L 1.97577,-197.218 L 1.86214,-196.976
 L 1.71915,-196.751 L 1.54906,-196.545 L 1.35452,-196.363 L 1.13863,-196.206 L 0.90477,-196.077 L 0.656647,-195.979
 L 0.398178,-195.913 L 0.133423,-195.879 z
M -1.58675,-187.752 L -3.17349,-190.5 L -1.58675,-193.248 L 1.58675,-193.248 L 3.17349,-190.5 L 1.58675,-187.752
 z
M 7.40581,-189.003 L 7.21892,-189.027 L 7.03647,-189.073 L 6.86133,-189.143 L 6.69626,-189.234 L 6.54385,-189.344
 L 6.40654,-189.473 L 6.28647,-189.618 L 6.18553,-189.777 L 6.10533,-189.948 L 6.04712,-190.127 L 6.01183,-190.312
 L 6,-190.5 L 6.01183,-190.688 L 6.04712,-190.873 L 6.10533,-191.052 L 6.18553,-191.223 L 6.28647,-191.382
 L 6.40654,-191.527 L 6.54385,-191.656 L 6.69626,-191.766 L 6.86133,-191.857 L 7.03647,-191.927 L 7.21892,-191.973
 L 7.40581,-191.997 L 7.59418,-191.997 L 7.78107,-191.973 L 7.96352,-191.927 L 8.13866,-191.857 L 8.30373,-191.766
 L 8.45613,-191.656 L 8.59344,-191.527 L 8.71352,-191.382 L 8.81445,-191.223 L 8.89465,-191.052 L 8.95287,-190.873
 L 8.98816,-190.688 L 9,-190.5 L 8.98816,-190.312 L 8.95287,-190.127 L 8.89465,-189.948 L 8.81445,-189.777
 L 8.71352,-189.618 L 8.59344,-189.473 L 8.45613,-189.344 L 8.30373,-189.234 L 8.13866,-189.143 L 7.96352,-189.073
 L 7.78107,-189.027 L 7.59418,-189.003 z
M -7.59418,-189.003 L -7.78107,-189.027 L -7.96352,-189.073 L -8.13866,-189.143 L -8.30373,-189.234 L -8.45613,-189.344
 L -8.59344,-189.473 L -8.71352,-189.618 L -8.81445,-189.777 L -8.89465,-189.948 L -8.95287,-190.127 L -8.98816,-190.312
 L -9,-190.5 L -8.98816,-190.688 L -8.95287,-190.873 L -8.89465,-191.052 L -8.81445,-191.223 L -8.71352,-191.382
 L -8.59344,-191.527 L -8.45613,-191.656 L -8.30373,-191.766 L -8.13866,-191.857 L -7.96352,-191.927 L -7.78107,-191.973
 L -7.59418,-191.997 L -7.40581,-191.997 L -7.21892,-191.973 L -7.03647,-191.927 L -6.86133,-191.857 L -6.69626,-191.766
 L -6.54385,-191.656 L -6.40654,-191.527 L -6.28647,-191.382 L -6.18553,-191.223 L -6.10533,-191.052 L -6.04712,-190.873
 L -6.01183,-190.688 L -6,-190.5 L -6.01183,-190.312 L -6.04712,-190.127 L -6.10533,-189.948 L -6.18553,-189.777
 L -6.28647,-189.618 L -6.40654,-189.473 L -6.54385,-189.344 L -6.69626,-189.234 L -6.86133,-189.143 L -7.03647,-189.073
 L -7.21892,-189.027 L -7.40581,-189.003 z
M -1.58675,-142.752 L -3.17349,-145.5 L -1.58675,-148.248 L 1.58675,-148.248 L 3.17349,-145.5 L 1.58675,-142.752
 z
M -7.59418,-144.003 L -7.78107,-144.027 L -7.96352,-144.073 L -8.13866,-144.143 L -8.30373,-144.234 L -8.45613,-144.344
 L -8.59344,-144.473 L -8.71352,-144.618 L -8.81445,-144.777 L -8.89465,-144.948 L -8.95287,-145.127 L -8.98816,-145.312
 L -9,-145.5 L -8.98816,-145.688 L -8.95287,-145.873 L -8.89465,-146.052 L -8.81445,-146.223 L -8.71352,-146.382
 L -8.59344,-146.527 L -8.45613,-146.656 L -8.30373,-146.766 L -8.13866,-146.857 L -7.96352,-146.927 L -7.78107,-146.973
 L -7.59418,-146.997 L -7.40581,-146.997 L -7.21892,-146.973 L -7.03647,-146.927 L -6.86133,-146.857 L -6.69626,-146.766
 L -6.54385,-146.656 L -6.40654,-146.527 L -6.28647,-146.382 L -6.18553,-146.223 L -6.10533,-146.052 L -6.04712,-145.873
 L -6.01183,-145.688 L -6,-145.5 L -6.01183,-145.312 L -6.04712,-145.127 L -6.10533,-144.948 L -6.18553,-144.777
 L -6.28647,-144.618 L -6.40654,-144.473 L -6.54385,-144.344 L -6.69626,-144.234 L -6.86133,-144.143 L -7.03647,-144.073
 L -7.21892,-144.027 L -7.40581,-144.003 z
M 7.40581,-144.003 L 7.21892,-144.027 L 7.03647,-144.073 L 6.86133,-144.143 L 6.69626,-144.234 L 6.54385,-144.344
 L 6.40654,-144.473 L 6.28647,-144.618 L 6.18553,-144.777 L 6.10533,-144.948 L 6.04712,-145.127 L 6.01183,-145.312
 L 6,-145.5 L 6.01183,-145.688 L 6.04712,-145.873 L 6.10533,-146.052 L 6.18553,-146.223 L 6.28647,-146.382
 L 6.40654,-146.527 L 6.54385,-146.656 L 6.69626,-146.766 L 6.86133,-146.857 L 7.03647,-146.927 L 7.21892,-146.973
 L 7.40581,-146.997 L 7.59418,-146.997 L 7.78107,-146.973 L 7.96352,-146.927 L 8.13866,-146.857 L 8.30373,-146.766
 L 8.45613,-146.656 L 8.59344,-146.527 L 8.71352,-146.382 L 8.81445,-146.223 L 8.89465,-146.052 L 8.95287,-145.873
 L 8.98816,-145.688 L 9,-145.5 L 8.98816,-145.312 L 8.95287,-145.127 L 8.89465,-144.948 L 8.81445,-144.777
 L 8.71352,-144.618 L 8.59344,-144.473 L 8.45613,-144.344 L 8.30373,-144.234 L 8.13866,-144.143 L 7.96352,-144.073
 L 7.78107,-144.027 L 7.59418,-144.003 z
M 7.31161,-135.006 L 6.93785,-135.053 L 6.57294,-135.147 L 6.22266,-135.286 L 5.89252,-135.467 L 5.58772,-135.688
 L 5.31308,-135.946 L 5.07294,-136.237 L 4.87108,-136.555 L 4.71066,-136.896 L 4.59424,-137.254 L 4.52365,-137.624
 L 4.5,-138 L 4.52365,-138.376 L 4.59424,-138.746 L 4.71066,-139.104 L 4.87108,-139.445 L 5.07294,-139.763
 L 5.31308,-140.054 L 5.58772,-140.312 L 5.89252,-140.533 L 6.22266,-140.714 L 6.57294,-140.853 L 6.93785,-140.947
 L 7.31161,-140.994 L 7.68837,-140.994 L 8.06213,-140.947 L 8.42705,-140.853 L 8.77733,-140.714 L 9.10747,-140.533
 L 9.41226,-140.312 L 9.6869,-140.054 L 9.92705,-139.763 L 10.1289,-139.445 L 10.2893,-139.104 L 10.4057,-138.746
 L 10.4763,-138.376 L 10.5,-138 L 10.4763,-137.624 L 10.4057,-137.254 L 10.2893,-136.896 L 10.1289,-136.555
 L 9.92705,-136.237 L 9.6869,-135.946 L 9.41226,-135.688 L 9.10747,-135.467 L 8.77733,-135.286 L 8.42705,-135.147
 L 8.06213,-135.053 L 7.68837,-135.006 z
M -7.68837,-135.006 L -8.06213,-135.053 L -8.42705,-135.147 L -8.77733,-135.286 L -9.10747,-135.467 L -9.41226,-135.688
 L -9.6869,-135.946 L -9.92705,-136.237 L -10.1289,-136.555 L -10.2893,-136.896 L -10.4057,-137.254 L -10.4763,-137.624
 L -10.5,-138 L -10.4763,-138.376 L -10.4057,-138.746 L -10.2893,-139.104 L -10.1289,-139.445 L -9.92705,-139.763
 L -9.6869,-140.054 L -9.41226,-140.312 L -9.10747,-140.533 L -8.77733,-140.714 L -8.42705,-140.853 L -8.06213,-140.947
 L -7.68837,-140.994 L -7.31161,-140.994 L -6.93785,-140.947 L -6.57294,-140.853 L -6.22266,-140.714 L -5.89252,-140.533
 L -5.58772,-140.312 L -5.31308,-140.054 L -5.07294,-139.763 L -4.87108,-139.445 L -4.71066,-139.104 L -4.59424,-138.746
 L -4.52365,-138.376 L -4.5,-138 L -4.52365,-137.624 L -4.59424,-137.254 L -4.71066,-136.896 L -4.87108,-136.555
 L -5.07294,-136.237 L -5.31308,-135.946 L -5.58772,-135.688 L -5.89252,-135.467 L -6.22266,-135.286 L -6.57294,-135.147
 L -6.93785,-135.053 L -7.31161,-135.006 z
M -0.133423,-135.879 L -0.398178,-135.913 L -0.656647,-135.979 L -0.90477,-136.077 L -1.13863,-136.206 L -1.35452,-136.363
 L -1.54906,-136.545 L -1.71915,-136.751 L -1.86214,-136.976 L -1.97577,-137.218 L -2.05823,-137.472 L -2.10823,-137.734
 L -2.125,-138 L -2.10823,-138.266 L -2.05823,-138.528 L -1.97577,-138.782 L -1.86214,-139.024 L -1.71915,-139.249
 L -1.54906,-139.455 L -1.35452,-139.637 L -1.13863,-139.794 L -0.90477,-139.923 L -0.656647,-140.021 L -0.398178,-140.087
 L -0.133423,-140.121 L 0.133423,-140.121 L 0.398178,-140.087 L 0.656647,-140.021 L 0.90477,-139.923 L 1.13863,-139.794
 L 1.35452,-139.637 L 1.54906,-139.455 L 1.71915,-139.249 L 1.86214,-139.024 L 1.97577,-138.782 L 2.05823,-138.528
 L 2.10823,-138.266 L 2.125,-138 L 2.10823,-137.734 L 2.05823,-137.472 L 1.97577,-137.218 L 1.86214,-136.976
 L 1.71915,-136.751 L 1.54906,-136.545 L 1.35452,-136.363 L 1.13863,-136.206 L 0.90477,-136.077 L 0.656647,-135.979
 L 0.398178,-135.913 L 0.133423,-135.879 z
" stroke="black" fill="lightgray" stroke-width="0.5"/>
</svg>
