solid OpenSCAD_Model
  facet normal 0.904825 0 -0.425783
    outer loop
      vertex 5.57866 7.5 -2.20875
      vertex 5.25784 11.25 -2.89052
      vertex 5.57866 11.25 -2.20875
    endloop
  endfacet
  facet normal 0.904825 0 -0.425783
    outer loop
      vertex 5.25784 11.25 -2.89052
      vertex 5.57866 7.5 -2.20875
      vertex 5.25784 7.5 -2.89052
    endloop
  endfacet
  facet normal 0.125337 0 -0.992114
    outer loop
      vertex 0.376742 7.5 -5.98816
      vertex 1.12429 11.25 -5.89372
      vertex 1.12429 7.5 -5.89372
    endloop
  endfacet
  facet normal 0.125337 0 -0.992114
    outer loop
      vertex 1.12429 11.25 -5.89372
      vertex 0.376742 7.5 -5.98816
      vertex 0.376742 11.25 -5.98816
    endloop
  endfacet
  facet normal 0 -1 0
    outer loop
      vertex -6 7.5 0
      vertex -3.4724 7.5 -0.438665
      vertex -3.5 7.5 0
    endloop
  endfacet
  facet normal 0 -1 0
    outer loop
      vertex -5.95269 7.5 -0.751999
      vertex -3.4724 7.5 -0.438665
      vertex -6 7.5 0
    endloop
  endfacet
  facet normal 0 -1 0
    outer loop
      vertex -5.95269 7.5 -0.751999
      vertex -3.39004 7.5 -0.870414
      vertex -3.4724 7.5 -0.438665
    endloop
  endfacet
  facet normal 0 -1 0
    outer loop
      vertex -5.8115 7.5 -1.49214
      vertex -3.39004 7.5 -0.870414
      vertex -5.95269 7.5 -0.751999
    endloop
  endfacet
  facet normal 0 -1 -0
    outer loop
      vertex -3.39004 7.5 -0.870414
      vertex -5.8115 7.5 -1.49214
      vertex -3.25422 7.5 -1.28843
    endloop
  endfacet
  facet normal 0 -1 0
    outer loop
      vertex -5.57866 7.5 -2.20875
      vertex -3.25422 7.5 -1.28843
      vertex -5.8115 7.5 -1.49214
    endloop
  endfacet
  facet normal 0 -1 -0
    outer loop
      vertex -3.25422 7.5 -1.28843
      vertex -5.57866 7.5 -2.20875
      vertex -3.06707 7.5 -1.68614
    endloop
  endfacet
  facet normal 0 -1 0
    outer loop
      vertex -5.25784 7.5 -2.89052
      vertex -3.06707 7.5 -1.68614
      vertex -5.57866 7.5 -2.20875
    endloop
  endfacet
  facet normal 0 -1 -0
    outer loop
      vertex -3.06707 7.5 -1.68614
      vertex -5.25784 7.5 -2.89052
      vertex -2.83156 7.5 -2.05725
    endloop
  endfacet
  facet normal 0 -1 0
    outer loop
      vertex -4.8541 7.5 -3.52671
      vertex -2.83156 7.5 -2.05725
      vertex -5.25784 7.5 -2.89052
    endloop
  endfacet
  facet normal 0 -1 -0
    outer loop
      vertex -2.83156 7.5 -2.05725
      vertex -4.8541 7.5 -3.52671
      vertex -2.55139 7.5 -2.39591
    endloop
  endfacet
  facet normal 0 -1 0
    outer loop
      vertex -4.37381 7.5 -4.10728
      vertex -2.55139 7.5 -2.39591
      vertex -4.8541 7.5 -3.52671
    endloop
  endfacet
  facet normal 0 -1 -0
    outer loop
      vertex -2.55139 7.5 -2.39591
      vertex -4.37381 7.5 -4.10728
      vertex -2.23098 7.5 -2.6968
    endloop
  endfacet
  facet normal 0 -1 0
    outer loop
      vertex -3.82454 7.5 -4.62308
      vertex -2.23098 7.5 -2.6968
      vertex -4.37381 7.5 -4.10728
    endloop
  endfacet
  facet normal 0 -1 -0
    outer loop
      vertex -2.23098 7.5 -2.6968
      vertex -3.82454 7.5 -4.62308
      vertex -1.87539 7.5 -2.95515
    endloop
  endfacet
  facet normal 0 -1 0
    outer loop
      vertex -3.21496 7.5 -5.06597
      vertex -1.87539 7.5 -2.95515
      vertex -3.82454 7.5 -4.62308
    endloop
  endfacet
  facet normal 0 -1 0
    outer loop
      vertex -2.55468 7.5 -5.42896
      vertex -1.49023 7.5 -3.16689
      vertex -3.21496 7.5 -5.06597
    endloop
  endfacet
  facet normal 0 -1 -0
    outer loop
      vertex -1.87539 7.5 -2.95515
      vertex -3.21496 7.5 -5.06597
      vertex -1.49023 7.5 -3.16689
    endloop
  endfacet
  facet normal 0 -1 0
    outer loop
      vertex 3.4724 7.5 -0.438665
      vertex 6 7.5 0
      vertex 3.5 7.5 0
    endloop
  endfacet
  facet normal 0 -1 0
    outer loop
      vertex 3.4724 7.5 -0.438665
      vertex 5.95269 7.5 -0.751999
      vertex 6 7.5 0
    endloop
  endfacet
  facet normal 0 -1 0
    outer loop
      vertex 3.39004 7.5 -0.870414
      vertex 5.95269 7.5 -0.751999
      vertex 3.4724 7.5 -0.438665
    endloop
  endfacet
  facet normal 0 -1 0
    outer loop
      vertex 5.8115 7.5 -1.49214
      vertex 3.39004 7.5 -0.870414
      vertex 3.25422 7.5 -1.28843
    endloop
  endfacet
  facet normal 0 -1 0
    outer loop
      vertex 3.39004 7.5 -0.870414
      vertex 5.8115 7.5 -1.49214
      vertex 5.95269 7.5 -0.751999
    endloop
  endfacet
  facet normal 0 -1 0
    outer loop
      vertex 5.57866 7.5 -2.20875
      vertex 3.25422 7.5 -1.28843
      vertex 3.06707 7.5 -1.68614
    endloop
  endfacet
  facet normal 0 -1 0
    outer loop
      vertex 5.25784 7.5 -2.89052
      vertex 3.06707 7.5 -1.68614
      vertex 2.83156 7.5 -2.05725
    endloop
  endfacet
  facet normal 0 -1 0
    outer loop
      vertex 3.25422 7.5 -1.28843
      vertex 5.57866 7.5 -2.20875
      vertex 5.8115 7.5 -1.49214
    endloop
  endfacet
  facet normal 0 -1 0
    outer loop
      vertex 4.8541 7.5 -3.52671
      vertex 2.83156 7.5 -2.05725
      vertex 2.55139 7.5 -2.39591
    endloop
  endfacet
  facet normal 0 -1 0
    outer loop
      vertex 4.37381 7.5 -4.10728
      vertex 2.55139 7.5 -2.39591
      vertex 2.23098 7.5 -2.6968
    endloop
  endfacet
  facet normal 0 -1 0
    outer loop
      vertex 3.06707 7.5 -1.68614
      vertex 5.25784 7.5 -2.89052
      vertex 5.57866 7.5 -2.20875
    endloop
  endfacet
  facet normal 0 -1 0
    outer loop
      vertex 3.82454 7.5 -4.62308
      vertex 2.23098 7.5 -2.6968
      vertex 1.87539 7.5 -2.95515
    endloop
  endfacet
  facet normal 0 -1 0
    outer loop
      vertex 3.21496 7.5 -5.06597
      vertex 1.87539 7.5 -2.95515
      vertex 1.49023 7.5 -3.16689
    endloop
  endfacet
  facet normal 0 -1 0
    outer loop
      vertex 2.55468 7.5 -5.42896
      vertex 1.49023 7.5 -3.16689
      vertex 1.08156 7.5 -3.3287
    endloop
  endfacet
  facet normal 0 -1 0
    outer loop
      vertex 1.8541 7.5 -5.70634
      vertex 1.08156 7.5 -3.3287
      vertex 0.655834 7.5 -3.438
    endloop
  endfacet
  facet normal 0 -1 0
    outer loop
      vertex 1.12429 7.5 -5.89372
      vertex 0.655834 7.5 -3.438
      vertex 0.219767 7.5 -3.49309
    endloop
  endfacet
  facet normal 0 -1 0
    outer loop
      vertex 2.83156 7.5 -2.05725
      vertex 4.8541 7.5 -3.52671
      vertex 5.25784 7.5 -2.89052
    endloop
  endfacet
  facet normal 0 -1 -0
    outer loop
      vertex -1.49023 7.5 -3.16689
      vertex -2.55468 7.5 -5.42896
      vertex -1.08156 7.5 -3.3287
    endloop
  endfacet
  facet normal 0 -1 0
    outer loop
      vertex -1.8541 7.5 -5.70634
      vertex -1.08156 7.5 -3.3287
      vertex -2.55468 7.5 -5.42896
    endloop
  endfacet
  facet normal 0 -1 0
    outer loop
      vertex 2.55139 7.5 -2.39591
      vertex 4.37381 7.5 -4.10728
      vertex 4.8541 7.5 -3.52671
    endloop
  endfacet
  facet normal 0 -1 -0
    outer loop
      vertex -1.08156 7.5 -3.3287
      vertex -1.8541 7.5 -5.70634
      vertex -0.655834 7.5 -3.438
    endloop
  endfacet
  facet normal 0 -1 0
    outer loop
      vertex 2.23098 7.5 -2.6968
      vertex 3.82454 7.5 -4.62308
      vertex 4.37381 7.5 -4.10728
    endloop
  endfacet
  facet normal 0 -1 0
    outer loop
      vertex -1.12429 7.5 -5.89372
      vertex -0.655834 7.5 -3.438
      vertex -1.8541 7.5 -5.70634
    endloop
  endfacet
  facet normal 0 -1 0
    outer loop
      vertex 1.87539 7.5 -2.95515
      vertex 3.21496 7.5 -5.06597
      vertex 3.82454 7.5 -4.62308
    endloop
  endfacet
  facet normal 0 -1 -0
    outer loop
      vertex -0.655834 7.5 -3.438
      vertex -1.12429 7.5 -5.89372
      vertex -0.219767 7.5 -3.49309
    endloop
  endfacet
  facet normal 0 -1 0
    outer loop
      vertex 1.49023 7.5 -3.16689
      vertex 2.55468 7.5 -5.42896
      vertex 3.21496 7.5 -5.06597
    endloop
  endfacet
  facet normal 0 -1 0
    outer loop
      vertex -0.376742 7.5 -5.98816
      vertex -0.219767 7.5 -3.49309
      vertex -1.12429 7.5 -5.89372
    endloop
  endfacet
  facet normal 0 -1 0
    outer loop
      vertex 1.08156 7.5 -3.3287
      vertex 1.8541 7.5 -5.70634
      vertex 2.55468 7.5 -5.42896
    endloop
  endfacet
  facet normal 0 -1 -0
    outer loop
      vertex -0.219767 7.5 -3.49309
      vertex -0.376742 7.5 -5.98816
      vertex 0.219767 7.5 -3.49309
    endloop
  endfacet
  facet normal 0 -1 0
    outer loop
      vertex 0.655834 7.5 -3.438
      vertex 1.12429 7.5 -5.89372
      vertex 1.8541 7.5 -5.70634
    endloop
  endfacet
  facet normal 0 -1 0
    outer loop
      vertex 0.376742 7.5 -5.98816
      vertex 0.219767 7.5 -3.49309
      vertex -0.376742 7.5 -5.98816
    endloop
  endfacet
  facet normal 0 -1 0
    outer loop
      vertex 0.219767 7.5 -3.49309
      vertex 0.376742 7.5 -5.98816
      vertex 1.12429 7.5 -5.89372
    endloop
  endfacet
  facet normal 0.481752 0 -0.876308
    outer loop
      vertex 2.55468 7.5 -5.42896
      vertex 3.21496 11.25 -5.06597
      vertex 3.21496 7.5 -5.06597
    endloop
  endfacet
  facet normal 0.481752 0 -0.876308
    outer loop
      vertex 3.21496 11.25 -5.06597
      vertex 2.55468 7.5 -5.42896
      vertex 2.55468 11.25 -5.42896
    endloop
  endfacet
  facet normal -0.684548 0 -0.728968
    outer loop
      vertex -4.37381 7.5 -4.10728
      vertex -3.82454 11.25 -4.62308
      vertex -3.82454 7.5 -4.62308
    endloop
  endfacet
  facet normal -0.684548 0 -0.728968
    outer loop
      vertex -3.82454 11.25 -4.62308
      vertex -4.37381 7.5 -4.10728
      vertex -4.37381 11.25 -4.10728
    endloop
  endfacet
  facet normal -0.904825 0 -0.425783
    outer loop
      vertex -5.25784 7.5 -2.89052
      vertex -5.57866 11.25 -2.20875
      vertex -5.25784 11.25 -2.89052
    endloop
  endfacet
  facet normal -0.904825 -0 -0.425783
    outer loop
      vertex -5.57866 11.25 -2.20875
      vertex -5.25784 7.5 -2.89052
      vertex -5.57866 7.5 -2.20875
    endloop
  endfacet
  facet normal -0.951057 0 -0.309016
    outer loop
      vertex -5.57866 7.5 -2.20875
      vertex -5.8115 11.25 -1.49214
      vertex -5.57866 11.25 -2.20875
    endloop
  endfacet
  facet normal -0.951057 -0 -0.309016
    outer loop
      vertex -5.8115 11.25 -1.49214
      vertex -5.57866 7.5 -2.20875
      vertex -5.8115 7.5 -1.49214
    endloop
  endfacet
  facet normal -0.844327 0 -0.535828
    outer loop
      vertex -4.8541 7.5 -3.52671
      vertex -5.25784 11.25 -2.89052
      vertex -4.8541 11.25 -3.52671
    endloop
  endfacet
  facet normal -0.844327 -0 -0.535828
    outer loop
      vertex -5.25784 11.25 -2.89052
      vertex -4.8541 7.5 -3.52671
      vertex -5.25784 7.5 -2.89052
    endloop
  endfacet
  facet normal 0 1 0
    outer loop
      vertex 6 11.25 0
      vertex 1.48817 11.25 -0.188
      vertex 1.5 11.25 0
    endloop
  endfacet
  facet normal 0 1 -0
    outer loop
      vertex 5.95269 11.25 -0.751999
      vertex 1.48817 11.25 -0.188
      vertex 6 11.25 0
    endloop
  endfacet
  facet normal 0 1 0
    outer loop
      vertex 1.48817 11.25 -0.188
      vertex 5.95269 11.25 -0.751999
      vertex 1.45287 11.25 -0.373034
    endloop
  endfacet
  facet normal 0 1 -0
    outer loop
      vertex 5.8115 11.25 -1.49214
      vertex 1.45287 11.25 -0.373034
      vertex 5.95269 11.25 -0.751999
    endloop
  endfacet
  facet normal 0 1 0
    outer loop
      vertex 1.45287 11.25 -0.373034
      vertex 5.8115 11.25 -1.49214
      vertex 1.39466 11.25 -0.552186
    endloop
  endfacet
  facet normal 0 1 -0
    outer loop
      vertex 5.57866 11.25 -2.20875
      vertex 1.39466 11.25 -0.552186
      vertex 5.8115 11.25 -1.49214
    endloop
  endfacet
  facet normal 0 1 0
    outer loop
      vertex 1.39466 11.25 -0.552186
      vertex 5.57866 11.25 -2.20875
      vertex 1.31446 11.25 -0.722631
    endloop
  endfacet
  facet normal 0 1 -0
    outer loop
      vertex 5.25784 11.25 -2.89052
      vertex 1.31446 11.25 -0.722631
      vertex 5.57866 11.25 -2.20875
    endloop
  endfacet
  facet normal 0 1 0
    outer loop
      vertex 1.31446 11.25 -0.722631
      vertex 5.25784 11.25 -2.89052
      vertex 1.21352 11.25 -0.881678
    endloop
  endfacet
  facet normal 0 1 -0
    outer loop
      vertex 4.8541 11.25 -3.52671
      vertex 1.21352 11.25 -0.881678
      vertex 5.25784 11.25 -2.89052
    endloop
  endfacet
  facet normal 0 1 0
    outer loop
      vertex 1.21352 11.25 -0.881678
      vertex 4.8541 11.25 -3.52671
      vertex 1.09345 11.25 -1.02682
    endloop
  endfacet
  facet normal 0 1 -0
    outer loop
      vertex 4.37381 11.25 -4.10728
      vertex 1.09345 11.25 -1.02682
      vertex 4.8541 11.25 -3.52671
    endloop
  endfacet
  facet normal 0 1 0
    outer loop
      vertex 1.09345 11.25 -1.02682
      vertex 4.37381 11.25 -4.10728
      vertex 0.956136 11.25 -1.15577
    endloop
  endfacet
  facet normal 0 1 -0
    outer loop
      vertex 3.82454 11.25 -4.62308
      vertex 0.956136 11.25 -1.15577
      vertex 4.37381 11.25 -4.10728
    endloop
  endfacet
  facet normal 0 1 -0
    outer loop
      vertex 3.21496 11.25 -5.06597
      vertex 0.80374 11.25 -1.26649
      vertex 3.82454 11.25 -4.62308
    endloop
  endfacet
  facet normal 0 1 0
    outer loop
      vertex 0.956136 11.25 -1.15577
      vertex 3.82454 11.25 -4.62308
      vertex 0.80374 11.25 -1.26649
    endloop
  endfacet
  facet normal 0 1 0
    outer loop
      vertex -1.48817 11.25 -0.188
      vertex -6 11.25 0
      vertex -1.5 11.25 0
    endloop
  endfacet
  facet normal 0 1 0
    outer loop
      vertex -5.95269 11.25 -0.751999
      vertex -1.48817 11.25 -0.188
      vertex -1.45287 11.25 -0.373034
    endloop
  endfacet
  facet normal 0 1 0
    outer loop
      vertex -5.8115 11.25 -1.49214
      vertex -1.45287 11.25 -0.373034
      vertex -1.39466 11.25 -0.552186
    endloop
  endfacet
  facet normal 0 1 0
    outer loop
      vertex -5.57866 11.25 -2.20875
      vertex -1.39466 11.25 -0.552186
      vertex -1.31446 11.25 -0.722631
    endloop
  endfacet
  facet normal 0 1 0
    outer loop
      vertex -1.48817 11.25 -0.188
      vertex -5.95269 11.25 -0.751999
      vertex -6 11.25 0
    endloop
  endfacet
  facet normal 0 1 0
    outer loop
      vertex -5.25784 11.25 -2.89052
      vertex -1.31446 11.25 -0.722631
      vertex -1.21352 11.25 -0.881678
    endloop
  endfacet
  facet normal 0 1 0
    outer loop
      vertex -4.8541 11.25 -3.52671
      vertex -1.21352 11.25 -0.881678
      vertex -1.09345 11.25 -1.02682
    endloop
  endfacet
  facet normal 0 1 0
    outer loop
      vertex -4.37381 11.25 -4.10728
      vertex -1.09345 11.25 -1.02682
      vertex -0.956136 11.25 -1.15577
    endloop
  endfacet
  facet normal 0 1 0
    outer loop
      vertex -3.82454 11.25 -4.62308
      vertex -0.956136 11.25 -1.15577
      vertex -0.80374 11.25 -1.26649
    endloop
  endfacet
  facet normal 0 1 0
    outer loop
      vertex -3.21496 11.25 -5.06597
      vertex -0.80374 11.25 -1.26649
      vertex -0.638668 11.25 -1.35724
    endloop
  endfacet
  facet normal 0 1 0
    outer loop
      vertex -2.55468 11.25 -5.42896
      vertex -0.638668 11.25 -1.35724
      vertex -0.463525 11.25 -1.42658
    endloop
  endfacet
  facet normal 0 1 0
    outer loop
      vertex -1.8541 11.25 -5.70634
      vertex -0.463525 11.25 -1.42658
      vertex -0.281072 11.25 -1.47343
    endloop
  endfacet
  facet normal 0 1 0
    outer loop
      vertex -1.45287 11.25 -0.373034
      vertex -5.8115 11.25 -1.49214
      vertex -5.95269 11.25 -0.751999
    endloop
  endfacet
  facet normal 0 1 0
    outer loop
      vertex -1.12429 11.25 -5.89372
      vertex -0.281072 11.25 -1.47343
      vertex -0.0941849 11.25 -1.49704
    endloop
  endfacet
  facet normal 0 1 0
    outer loop
      vertex 0.80374 11.25 -1.26649
      vertex 3.21496 11.25 -5.06597
      vertex 0.638668 11.25 -1.35724
    endloop
  endfacet
  facet normal 0 1 0
    outer loop
      vertex -1.39466 11.25 -0.552186
      vertex -5.57866 11.25 -2.20875
      vertex -5.8115 11.25 -1.49214
    endloop
  endfacet
  facet normal 0 1 -0
    outer loop
      vertex 2.55468 11.25 -5.42896
      vertex 0.638668 11.25 -1.35724
      vertex 3.21496 11.25 -5.06597
    endloop
  endfacet
  facet normal 0 1 0
    outer loop
      vertex -1.31446 11.25 -0.722631
      vertex -5.25784 11.25 -2.89052
      vertex -5.57866 11.25 -2.20875
    endloop
  endfacet
  facet normal 0 1 0
    outer loop
      vertex 0.638668 11.25 -1.35724
      vertex 2.55468 11.25 -5.42896
      vertex 0.463525 11.25 -1.42658
    endloop
  endfacet
  facet normal 0 1 0
    outer loop
      vertex -1.21352 11.25 -0.881678
      vertex -4.8541 11.25 -3.52671
      vertex -5.25784 11.25 -2.89052
    endloop
  endfacet
  facet normal 0 1 -0
    outer loop
      vertex 1.8541 11.25 -5.70634
      vertex 0.463525 11.25 -1.42658
      vertex 2.55468 11.25 -5.42896
    endloop
  endfacet
  facet normal 0 1 0
    outer loop
      vertex -1.09345 11.25 -1.02682
      vertex -4.37381 11.25 -4.10728
      vertex -4.8541 11.25 -3.52671
    endloop
  endfacet
  facet normal 0 1 0
    outer loop
      vertex 0.463525 11.25 -1.42658
      vertex 1.8541 11.25 -5.70634
      vertex 0.281072 11.25 -1.47343
    endloop
  endfacet
  facet normal 0 1 0
    outer loop
      vertex -0.956136 11.25 -1.15577
      vertex -3.82454 11.25 -4.62308
      vertex -4.37381 11.25 -4.10728
    endloop
  endfacet
  facet normal 0 1 -0
    outer loop
      vertex 1.12429 11.25 -5.89372
      vertex 0.281072 11.25 -1.47343
      vertex 1.8541 11.25 -5.70634
    endloop
  endfacet
  facet normal 0 1 0
    outer loop
      vertex -0.80374 11.25 -1.26649
      vertex -3.21496 11.25 -5.06597
      vertex -3.82454 11.25 -4.62308
    endloop
  endfacet
  facet normal 0 1 0
    outer loop
      vertex 0.281072 11.25 -1.47343
      vertex 1.12429 11.25 -5.89372
      vertex 0.0941849 11.25 -1.49704
    endloop
  endfacet
  facet normal 0 1 0
    outer loop
      vertex -0.638668 11.25 -1.35724
      vertex -2.55468 11.25 -5.42896
      vertex -3.21496 11.25 -5.06597
    endloop
  endfacet
  facet normal 0 1 -0
    outer loop
      vertex 0.376742 11.25 -5.98816
      vertex 0.0941849 11.25 -1.49704
      vertex 1.12429 11.25 -5.89372
    endloop
  endfacet
  facet normal 0 1 0
    outer loop
      vertex -0.463525 11.25 -1.42658
      vertex -1.8541 11.25 -5.70634
      vertex -2.55468 11.25 -5.42896
    endloop
  endfacet
  facet normal 0 1 0
    outer loop
      vertex 0.0941849 11.25 -1.49704
      vertex 0.376742 11.25 -5.98816
      vertex -0.0941849 11.25 -1.49704
    endloop
  endfacet
  facet normal 0 1 0
    outer loop
      vertex -0.281072 11.25 -1.47343
      vertex -1.12429 11.25 -5.89372
      vertex -1.8541 11.25 -5.70634
    endloop
  endfacet
  facet normal 0 1 0
    outer loop
      vertex -0.376742 11.25 -5.98816
      vertex -0.0941849 11.25 -1.49704
      vertex 0.376742 11.25 -5.98816
    endloop
  endfacet
  facet normal 0 1 0
    outer loop
      vertex -0.0941849 11.25 -1.49704
      vertex -0.376742 11.25 -5.98816
      vertex -1.12429 11.25 -5.89372
    endloop
  endfacet
  facet normal 0 0 -1
    outer loop
      vertex -0.376742 7.5 -5.98816
      vertex 0.376742 11.25 -5.98816
      vertex 0.376742 7.5 -5.98816
    endloop
  endfacet
  facet normal -0 0 -1
    outer loop
      vertex 0.376742 11.25 -5.98816
      vertex -0.376742 7.5 -5.98816
      vertex -0.376742 11.25 -5.98816
    endloop
  endfacet
  facet normal 0.684548 0 -0.728968
    outer loop
      vertex 3.82454 7.5 -4.62308
      vertex 4.37381 11.25 -4.10728
      vertex 4.37381 7.5 -4.10728
    endloop
  endfacet
  facet normal 0.684548 0 -0.728968
    outer loop
      vertex 4.37381 11.25 -4.10728
      vertex 3.82454 7.5 -4.62308
      vertex 3.82454 11.25 -4.62308
    endloop
  endfacet
  facet normal 0.587789 0 -0.809014
    outer loop
      vertex 3.21496 7.5 -5.06597
      vertex 3.82454 11.25 -4.62308
      vertex 3.82454 7.5 -4.62308
    endloop
  endfacet
  facet normal 0.587789 0 -0.809014
    outer loop
      vertex 3.82454 11.25 -4.62308
      vertex 3.21496 7.5 -5.06597
      vertex 3.21496 11.25 -5.06597
    endloop
  endfacet
  facet normal 0.982287 0 -0.187382
    outer loop
      vertex 5.95269 7.5 -0.751999
      vertex 5.8115 11.25 -1.49214
      vertex 5.95269 11.25 -0.751999
    endloop
  endfacet
  facet normal 0.982287 0 -0.187382
    outer loop
      vertex 5.8115 11.25 -1.49214
      vertex 5.95269 7.5 -0.751999
      vertex 5.8115 7.5 -1.49214
    endloop
  endfacet
  facet normal 0.998027 0 -0.0627882
    outer loop
      vertex 6 7.5 0
      vertex 5.95269 11.25 -0.751999
      vertex 6 11.25 0
    endloop
  endfacet
  facet normal 0.998027 0 -0.0627882
    outer loop
      vertex 5.95269 11.25 -0.751999
      vertex 6 7.5 0
      vertex 5.95269 7.5 -0.751999
    endloop
  endfacet
  facet normal -0.368125 0 -0.929776
    outer loop
      vertex -2.55468 7.5 -5.42896
      vertex -1.8541 11.25 -5.70634
      vertex -1.8541 7.5 -5.70634
    endloop
  endfacet
  facet normal -0.368125 0 -0.929776
    outer loop
      vertex -1.8541 11.25 -5.70634
      vertex -2.55468 7.5 -5.42896
      vertex -2.55468 11.25 -5.42896
    endloop
  endfacet
  facet normal -0.770513 0 -0.637425
    outer loop
      vertex -4.37381 7.5 -4.10728
      vertex -4.8541 11.25 -3.52671
      vertex -4.37381 11.25 -4.10728
    endloop
  endfacet
  facet normal -0.770513 -0 -0.637425
    outer loop
      vertex -4.8541 11.25 -3.52671
      vertex -4.37381 7.5 -4.10728
      vertex -4.8541 7.5 -3.52671
    endloop
  endfacet
  facet normal -0.982287 0 -0.187382
    outer loop
      vertex -5.8115 7.5 -1.49214
      vertex -5.95269 11.25 -0.751999
      vertex -5.8115 11.25 -1.49214
    endloop
  endfacet
  facet normal -0.982287 -0 -0.187382
    outer loop
      vertex -5.95269 11.25 -0.751999
      vertex -5.8115 7.5 -1.49214
      vertex -5.95269 7.5 -0.751999
    endloop
  endfacet
  facet normal -0.998027 0 -0.0627882
    outer loop
      vertex -5.95269 7.5 -0.751999
      vertex -6 11.25 0
      vertex -5.95269 11.25 -0.751999
    endloop
  endfacet
  facet normal -0.998027 -0 -0.0627882
    outer loop
      vertex -6 11.25 0
      vertex -5.95269 7.5 -0.751999
      vertex -6 7.5 0
    endloop
  endfacet
  facet normal 0.248686 0 -0.968584
    outer loop
      vertex 1.12429 7.5 -5.89372
      vertex 1.8541 11.25 -5.70634
      vertex 1.8541 7.5 -5.70634
    endloop
  endfacet
  facet normal 0.248686 0 -0.968584
    outer loop
      vertex 1.8541 11.25 -5.70634
      vertex 1.12429 7.5 -5.89372
      vertex 1.12429 11.25 -5.89372
    endloop
  endfacet
  facet normal 0.368125 0 -0.929776
    outer loop
      vertex 1.8541 7.5 -5.70634
      vertex 2.55468 11.25 -5.42896
      vertex 2.55468 7.5 -5.42896
    endloop
  endfacet
  facet normal 0.368125 0 -0.929776
    outer loop
      vertex 2.55468 11.25 -5.42896
      vertex 1.8541 7.5 -5.70634
      vertex 1.8541 11.25 -5.70634
    endloop
  endfacet
  facet normal 0.951057 0 -0.309016
    outer loop
      vertex 5.8115 7.5 -1.49214
      vertex 5.57866 11.25 -2.20875
      vertex 5.8115 11.25 -1.49214
    endloop
  endfacet
  facet normal 0.951057 0 -0.309016
    outer loop
      vertex 5.57866 11.25 -2.20875
      vertex 5.8115 7.5 -1.49214
      vertex 5.57866 7.5 -2.20875
    endloop
  endfacet
  facet normal 0.770513 0 -0.637425
    outer loop
      vertex 4.8541 7.5 -3.52671
      vertex 4.37381 11.25 -4.10728
      vertex 4.8541 11.25 -3.52671
    endloop
  endfacet
  facet normal 0.770513 0 -0.637425
    outer loop
      vertex 4.37381 11.25 -4.10728
      vertex 4.8541 7.5 -3.52671
      vertex 4.37381 7.5 -4.10728
    endloop
  endfacet
  facet normal 0.844327 0 -0.535828
    outer loop
      vertex 5.25784 7.5 -2.89052
      vertex 4.8541 11.25 -3.52671
      vertex 5.25784 11.25 -2.89052
    endloop
  endfacet
  facet normal 0.844327 0 -0.535828
    outer loop
      vertex 4.8541 11.25 -3.52671
      vertex 5.25784 7.5 -2.89052
      vertex 4.8541 7.5 -3.52671
    endloop
  endfacet
  facet normal -0.248686 0 -0.968584
    outer loop
      vertex -1.8541 7.5 -5.70634
      vertex -1.12429 11.25 -5.89372
      vertex -1.12429 7.5 -5.89372
    endloop
  endfacet
  facet normal -0.248686 0 -0.968584
    outer loop
      vertex -1.12429 11.25 -5.89372
      vertex -1.8541 7.5 -5.70634
      vertex -1.8541 11.25 -5.70634
    endloop
  endfacet
  facet normal -0.125337 0 -0.992114
    outer loop
      vertex -1.12429 7.5 -5.89372
      vertex -0.376742 11.25 -5.98816
      vertex -0.376742 7.5 -5.98816
    endloop
  endfacet
  facet normal -0.125337 0 -0.992114
    outer loop
      vertex -0.376742 11.25 -5.98816
      vertex -1.12429 7.5 -5.89372
      vertex -1.12429 11.25 -5.89372
    endloop
  endfacet
  facet normal -0.587789 0 -0.809014
    outer loop
      vertex -3.82454 7.5 -4.62308
      vertex -3.21496 11.25 -5.06597
      vertex -3.21496 7.5 -5.06597
    endloop
  endfacet
  facet normal -0.587789 0 -0.809014
    outer loop
      vertex -3.21496 11.25 -5.06597
      vertex -3.82454 7.5 -4.62308
      vertex -3.82454 11.25 -4.62308
    endloop
  endfacet
  facet normal -0.481752 0 -0.876308
    outer loop
      vertex -3.21496 7.5 -5.06597
      vertex -2.55468 11.25 -5.42896
      vertex -2.55468 7.5 -5.42896
    endloop
  endfacet
  facet normal -0.481752 0 -0.876308
    outer loop
      vertex -2.55468 11.25 -5.42896
      vertex -3.21496 7.5 -5.06597
      vertex -3.21496 11.25 -5.06597
    endloop
  endfacet
  facet normal 0.904825 0 -0.425783
    outer loop
      vertex 5.57866 -11.25 -2.20875
      vertex 5.25784 -7.5 -2.89052
      vertex 5.57866 -7.5 -2.20875
    endloop
  endfacet
  facet normal 0.904825 0 -0.425783
    outer loop
      vertex 5.25784 -7.5 -2.89052
      vertex 5.57866 -11.25 -2.20875
      vertex 5.25784 -11.25 -2.89052
    endloop
  endfacet
  facet normal 0.125337 0 -0.992114
    outer loop
      vertex 0.376742 -11.25 -5.98816
      vertex 1.12429 -7.5 -5.89372
      vertex 1.12429 -11.25 -5.89372
    endloop
  endfacet
  facet normal 0.125337 0 -0.992114
    outer loop
      vertex 1.12429 -7.5 -5.89372
      vertex 0.376742 -11.25 -5.98816
      vertex 0.376742 -7.5 -5.98816
    endloop
  endfacet
  facet normal 0 -1 0
    outer loop
      vertex -6 -11.25 0
      vertex -1.48817 -11.25 -0.188
      vertex -1.5 -11.25 0
    endloop
  endfacet
  facet normal 0 -1 0
    outer loop
      vertex -5.95269 -11.25 -0.751999
      vertex -1.48817 -11.25 -0.188
      vertex -6 -11.25 0
    endloop
  endfacet
  facet normal 0 -1 -0
    outer loop
      vertex -1.48817 -11.25 -0.188
      vertex -5.95269 -11.25 -0.751999
      vertex -1.45287 -11.25 -0.373034
    endloop
  endfacet
  facet normal 0 -1 0
    outer loop
      vertex -5.8115 -11.25 -1.49214
      vertex -1.45287 -11.25 -0.373034
      vertex -5.95269 -11.25 -0.751999
    endloop
  endfacet
  facet normal 0 -1 -0
    outer loop
      vertex -1.45287 -11.25 -0.373034
      vertex -5.8115 -11.25 -1.49214
      vertex -1.39466 -11.25 -0.552186
    endloop
  endfacet
  facet normal 0 -1 0
    outer loop
      vertex -5.57866 -11.25 -2.20875
      vertex -1.39466 -11.25 -0.552186
      vertex -5.8115 -11.25 -1.49214
    endloop
  endfacet
  facet normal 0 -1 -0
    outer loop
      vertex -1.39466 -11.25 -0.552186
      vertex -5.57866 -11.25 -2.20875
      vertex -1.31446 -11.25 -0.722631
    endloop
  endfacet
  facet normal 0 -1 0
    outer loop
      vertex -5.25784 -11.25 -2.89052
      vertex -1.31446 -11.25 -0.722631
      vertex -5.57866 -11.25 -2.20875
    endloop
  endfacet
  facet normal 0 -1 -0
    outer loop
      vertex -1.31446 -11.25 -0.722631
      vertex -5.25784 -11.25 -2.89052
      vertex -1.21352 -11.25 -0.881678
    endloop
  endfacet
  facet normal 0 -1 0
    outer loop
      vertex -4.8541 -11.25 -3.52671
      vertex -1.21352 -11.25 -0.881678
      vertex -5.25784 -11.25 -2.89052
    endloop
  endfacet
  facet normal 0 -1 -0
    outer loop
      vertex -1.21352 -11.25 -0.881678
      vertex -4.8541 -11.25 -3.52671
      vertex -1.09345 -11.25 -1.02682
    endloop
  endfacet
  facet normal 0 -1 0
    outer loop
      vertex -4.37381 -11.25 -4.10728
      vertex -1.09345 -11.25 -1.02682
      vertex -4.8541 -11.25 -3.52671
    endloop
  endfacet
  facet normal 0 -1 -0
    outer loop
      vertex -1.09345 -11.25 -1.02682
      vertex -4.37381 -11.25 -4.10728
      vertex -0.956136 -11.25 -1.15577
    endloop
  endfacet
  facet normal 0 -1 0
    outer loop
      vertex -3.82454 -11.25 -4.62308
      vertex -0.956136 -11.25 -1.15577
      vertex -4.37381 -11.25 -4.10728
    endloop
  endfacet
  facet normal 0 -1 0
    outer loop
      vertex -3.21496 -11.25 -5.06597
      vertex -0.80374 -11.25 -1.26649
      vertex -3.82454 -11.25 -4.62308
    endloop
  endfacet
  facet normal 0 -1 -0
    outer loop
      vertex -0.956136 -11.25 -1.15577
      vertex -3.82454 -11.25 -4.62308
      vertex -0.80374 -11.25 -1.26649
    endloop
  endfacet
  facet normal 0 -1 0
    outer loop
      vertex 1.48817 -11.25 -0.188
      vertex 6 -11.25 0
      vertex 1.5 -11.25 0
    endloop
  endfacet
  facet normal 0 -1 0
    outer loop
      vertex 5.95269 -11.25 -0.751999
      vertex 1.48817 -11.25 -0.188
      vertex 1.45287 -11.25 -0.373034
    endloop
  endfacet
  facet normal 0 -1 0
    outer loop
      vertex 5.8115 -11.25 -1.49214
      vertex 1.45287 -11.25 -0.373034
      vertex 1.39466 -11.25 -0.552186
    endloop
  endfacet
  facet normal 0 -1 0
    outer loop
      vertex 5.57866 -11.25 -2.20875
      vertex 1.39466 -11.25 -0.552186
      vertex 1.31446 -11.25 -0.722631
    endloop
  endfacet
  facet normal 0 -1 0
    outer loop
      vertex 1.48817 -11.25 -0.188
      vertex 5.95269 -11.25 -0.751999
      vertex 6 -11.25 0
    endloop
  endfacet
  facet normal 0 -1 0
    outer loop
      vertex 5.25784 -11.25 -2.89052
      vertex 1.31446 -11.25 -0.722631
      vertex 1.21352 -11.25 -0.881678
    endloop
  endfacet
  facet normal 0 -1 0
    outer loop
      vertex 4.8541 -11.25 -3.52671
      vertex 1.21352 -11.25 -0.881678
      vertex 1.09345 -11.25 -1.02682
    endloop
  endfacet
  facet normal 0 -1 0
    outer loop
      vertex 4.37381 -11.25 -4.10728
      vertex 1.09345 -11.25 -1.02682
      vertex 0.956136 -11.25 -1.15577
    endloop
  endfacet
  facet normal 0 -1 0
    outer loop
      vertex 3.82454 -11.25 -4.62308
      vertex 0.956136 -11.25 -1.15577
      vertex 0.80374 -11.25 -1.26649
    endloop
  endfacet
  facet normal 0 -1 0
    outer loop
      vertex 3.21496 -11.25 -5.06597
      vertex 0.80374 -11.25 -1.26649
      vertex 0.638668 -11.25 -1.35724
    endloop
  endfacet
  facet normal 0 -1 0
    outer loop
      vertex 2.55468 -11.25 -5.42896
      vertex 0.638668 -11.25 -1.35724
      vertex 0.463525 -11.25 -1.42658
    endloop
  endfacet
  facet normal 0 -1 0
    outer loop
      vertex 1.8541 -11.25 -5.70634
      vertex 0.463525 -11.25 -1.42658
      vertex 0.281072 -11.25 -1.47343
    endloop
  endfacet
  facet normal 0 -1 0
    outer loop
      vertex 1.45287 -11.25 -0.373034
      vertex 5.8115 -11.25 -1.49214
      vertex 5.95269 -11.25 -0.751999
    endloop
  endfacet
  facet normal 0 -1 0
    outer loop
      vertex 1.12429 -11.25 -5.89372
      vertex 0.281072 -11.25 -1.47343
      vertex 0.0941849 -11.25 -1.49704
    endloop
  endfacet
  facet normal 0 -1 -0
    outer loop
      vertex -0.80374 -11.25 -1.26649
      vertex -3.21496 -11.25 -5.06597
      vertex -0.638668 -11.25 -1.35724
    endloop
  endfacet
  facet normal 0 -1 0
    outer loop
      vertex 1.39466 -11.25 -0.552186
      vertex 5.57866 -11.25 -2.20875
      vertex 5.8115 -11.25 -1.49214
    endloop
  endfacet
  facet normal 0 -1 0
    outer loop
      vertex -2.55468 -11.25 -5.42896
      vertex -0.638668 -11.25 -1.35724
      vertex -3.21496 -11.25 -5.06597
    endloop
  endfacet
  facet normal 0 -1 0
    outer loop
      vertex 1.31446 -11.25 -0.722631
      vertex 5.25784 -11.25 -2.89052
      vertex 5.57866 -11.25 -2.20875
    endloop
  endfacet
  facet normal 0 -1 -0
    outer loop
      vertex -0.638668 -11.25 -1.35724
      vertex -2.55468 -11.25 -5.42896
      vertex -0.463525 -11.25 -1.42658
    endloop
  endfacet
  facet normal 0 -1 0
    outer loop
      vertex 1.21352 -11.25 -0.881678
      vertex 4.8541 -11.25 -3.52671
      vertex 5.25784 -11.25 -2.89052
    endloop
  endfacet
  facet normal 0 -1 0
    outer loop
      vertex -1.8541 -11.25 -5.70634
      vertex -0.463525 -11.25 -1.42658
      vertex -2.55468 -11.25 -5.42896
    endloop
  endfacet
  facet normal 0 -1 0
    outer loop
      vertex 1.09345 -11.25 -1.02682
      vertex 4.37381 -11.25 -4.10728
      vertex 4.8541 -11.25 -3.52671
    endloop
  endfacet
  facet normal 0 -1 -0
    outer loop
      vertex -0.463525 -11.25 -1.42658
      vertex -1.8541 -11.25 -5.70634
      vertex -0.281072 -11.25 -1.47343
    endloop
  endfacet
  facet normal 0 -1 0
    outer loop
      vertex 0.956136 -11.25 -1.15577
      vertex 3.82454 -11.25 -4.62308
      vertex 4.37381 -11.25 -4.10728
    endloop
  endfacet
  facet normal 0 -1 0
    outer loop
      vertex -1.12429 -11.25 -5.89372
      vertex -0.281072 -11.25 -1.47343
      vertex -1.8541 -11.25 -5.70634
    endloop
  endfacet
  facet normal 0 -1 0
    outer loop
      vertex 0.80374 -11.25 -1.26649
      vertex 3.21496 -11.25 -5.06597
      vertex 3.82454 -11.25 -4.62308
    endloop
  endfacet
  facet normal 0 -1 -0
    outer loop
      vertex -0.281072 -11.25 -1.47343
      vertex -1.12429 -11.25 -5.89372
      vertex -0.0941849 -11.25 -1.49704
    endloop
  endfacet
  facet normal 0 -1 0
    outer loop
      vertex 0.638668 -11.25 -1.35724
      vertex 2.55468 -11.25 -5.42896
      vertex 3.21496 -11.25 -5.06597
    endloop
  endfacet
  facet normal 0 -1 0
    outer loop
      vertex -0.376742 -11.25 -5.98816
      vertex -0.0941849 -11.25 -1.49704
      vertex -1.12429 -11.25 -5.89372
    endloop
  endfacet
  facet normal 0 -1 0
    outer loop
      vertex 0.463525 -11.25 -1.42658
      vertex 1.8541 -11.25 -5.70634
      vertex 2.55468 -11.25 -5.42896
    endloop
  endfacet
  facet normal 0 -1 -0
    outer loop
      vertex -0.0941849 -11.25 -1.49704
      vertex -0.376742 -11.25 -5.98816
      vertex 0.0941849 -11.25 -1.49704
    endloop
  endfacet
  facet normal 0 -1 0
    outer loop
      vertex 0.281072 -11.25 -1.47343
      vertex 1.12429 -11.25 -5.89372
      vertex 1.8541 -11.25 -5.70634
    endloop
  endfacet
  facet normal 0 -1 0
    outer loop
      vertex 0.376742 -11.25 -5.98816
      vertex 0.0941849 -11.25 -1.49704
      vertex -0.376742 -11.25 -5.98816
    endloop
  endfacet
  facet normal 0 -1 0
    outer loop
      vertex 0.0941849 -11.25 -1.49704
      vertex 0.376742 -11.25 -5.98816
      vertex 1.12429 -11.25 -5.89372
    endloop
  endfacet
  facet normal 0.481752 0 -0.876308
    outer loop
      vertex 2.55468 -11.25 -5.42896
      vertex 3.21496 -7.5 -5.06597
      vertex 3.21496 -11.25 -5.06597
    endloop
  endfacet
  facet normal 0.481752 0 -0.876308
    outer loop
      vertex 3.21496 -7.5 -5.06597
      vertex 2.55468 -11.25 -5.42896
      vertex 2.55468 -7.5 -5.42896
    endloop
  endfacet
  facet normal -0.684548 0 -0.728968
    outer loop
      vertex -4.37381 -11.25 -4.10728
      vertex -3.82454 -7.5 -4.62308
      vertex -3.82454 -11.25 -4.62308
    endloop
  endfacet
  facet normal -0.684548 0 -0.728968
    outer loop
      vertex -3.82454 -7.5 -4.62308
      vertex -4.37381 -11.25 -4.10728
      vertex -4.37381 -7.5 -4.10728
    endloop
  endfacet
  facet normal -0.904825 0 -0.425783
    outer loop
      vertex -5.25784 -11.25 -2.89052
      vertex -5.57866 -7.5 -2.20875
      vertex -5.25784 -7.5 -2.89052
    endloop
  endfacet
  facet normal -0.904825 -0 -0.425783
    outer loop
      vertex -5.57866 -7.5 -2.20875
      vertex -5.25784 -11.25 -2.89052
      vertex -5.57866 -11.25 -2.20875
    endloop
  endfacet
  facet normal -0.951057 0 -0.309016
    outer loop
      vertex -5.57866 -11.25 -2.20875
      vertex -5.8115 -7.5 -1.49214
      vertex -5.57866 -7.5 -2.20875
    endloop
  endfacet
  facet normal -0.951057 -0 -0.309016
    outer loop
      vertex -5.8115 -7.5 -1.49214
      vertex -5.57866 -11.25 -2.20875
      vertex -5.8115 -11.25 -1.49214
    endloop
  endfacet
  facet normal -0.844327 0 -0.535828
    outer loop
      vertex -4.8541 -11.25 -3.52671
      vertex -5.25784 -7.5 -2.89052
      vertex -4.8541 -7.5 -3.52671
    endloop
  endfacet
  facet normal -0.844327 -0 -0.535828
    outer loop
      vertex -5.25784 -7.5 -2.89052
      vertex -4.8541 -11.25 -3.52671
      vertex -5.25784 -11.25 -2.89052
    endloop
  endfacet
  facet normal 0 1 0
    outer loop
      vertex 6 -7.5 0
      vertex 3.4724 -7.5 -0.438665
      vertex 3.5 -7.5 0
    endloop
  endfacet
  facet normal 0 1 -0
    outer loop
      vertex 5.95269 -7.5 -0.751999
      vertex 3.4724 -7.5 -0.438665
      vertex 6 -7.5 0
    endloop
  endfacet
  facet normal 0 1 0
    outer loop
      vertex 5.95269 -7.5 -0.751999
      vertex 3.39004 -7.5 -0.870414
      vertex 3.4724 -7.5 -0.438665
    endloop
  endfacet
  facet normal 0 1 -0
    outer loop
      vertex 5.8115 -7.5 -1.49214
      vertex 3.39004 -7.5 -0.870414
      vertex 5.95269 -7.5 -0.751999
    endloop
  endfacet
  facet normal 0 1 0
    outer loop
      vertex 3.39004 -7.5 -0.870414
      vertex 5.8115 -7.5 -1.49214
      vertex 3.25422 -7.5 -1.28843
    endloop
  endfacet
  facet normal 0 1 -0
    outer loop
      vertex 5.57866 -7.5 -2.20875
      vertex 3.25422 -7.5 -1.28843
      vertex 5.8115 -7.5 -1.49214
    endloop
  endfacet
  facet normal 0 1 0
    outer loop
      vertex 3.25422 -7.5 -1.28843
      vertex 5.57866 -7.5 -2.20875
      vertex 3.06707 -7.5 -1.68614
    endloop
  endfacet
  facet normal 0 1 -0
    outer loop
      vertex 5.25784 -7.5 -2.89052
      vertex 3.06707 -7.5 -1.68614
      vertex 5.57866 -7.5 -2.20875
    endloop
  endfacet
  facet normal 0 1 0
    outer loop
      vertex 3.06707 -7.5 -1.68614
      vertex 5.25784 -7.5 -2.89052
      vertex 2.83156 -7.5 -2.05725
    endloop
  endfacet
  facet normal 0 1 -0
    outer loop
      vertex 4.8541 -7.5 -3.52671
      vertex 2.83156 -7.5 -2.05725
      vertex 5.25784 -7.5 -2.89052
    endloop
  endfacet
  facet normal 0 1 0
    outer loop
      vertex 2.83156 -7.5 -2.05725
      vertex 4.8541 -7.5 -3.52671
      vertex 2.55139 -7.5 -2.39591
    endloop
  endfacet
  facet normal 0 1 -0
    outer loop
      vertex 4.37381 -7.5 -4.10728
      vertex 2.55139 -7.5 -2.39591
      vertex 4.8541 -7.5 -3.52671
    endloop
  endfacet
  facet normal 0 1 0
    outer loop
      vertex 2.55139 -7.5 -2.39591
      vertex 4.37381 -7.5 -4.10728
      vertex 2.23098 -7.5 -2.6968
    endloop
  endfacet
  facet normal 0 1 -0
    outer loop
      vertex 3.82454 -7.5 -4.62308
      vertex 2.23098 -7.5 -2.6968
      vertex 4.37381 -7.5 -4.10728
    endloop
  endfacet
  facet normal 0 1 0
    outer loop
      vertex 2.23098 -7.5 -2.6968
      vertex 3.82454 -7.5 -4.62308
      vertex 1.87539 -7.5 -2.95515
    endloop
  endfacet
  facet normal 0 1 -0
    outer loop
      vertex 3.21496 -7.5 -5.06597
      vertex 1.87539 -7.5 -2.95515
      vertex 3.82454 -7.5 -4.62308
    endloop
  endfacet
  facet normal 0 1 -0
    outer loop
      vertex 2.55468 -7.5 -5.42896
      vertex 1.49023 -7.5 -3.16689
      vertex 3.21496 -7.5 -5.06597
    endloop
  endfacet
  facet normal 0 1 0
    outer loop
      vertex 1.87539 -7.5 -2.95515
      vertex 3.21496 -7.5 -5.06597
      vertex 1.49023 -7.5 -3.16689
    endloop
  endfacet
  facet normal 0 1 0
    outer loop
      vertex -3.4724 -7.5 -0.438665
      vertex -6 -7.5 0
      vertex -3.5 -7.5 0
    endloop
  endfacet
  facet normal 0 1 0
    outer loop
      vertex -3.4724 -7.5 -0.438665
      vertex -5.95269 -7.5 -0.751999
      vertex -6 -7.5 0
    endloop
  endfacet
  facet normal 0 1 0
    outer loop
      vertex -3.39004 -7.5 -0.870414
      vertex -5.95269 -7.5 -0.751999
      vertex -3.4724 -7.5 -0.438665
    endloop
  endfacet
  facet normal 0 1 0
    outer loop
      vertex -5.8115 -7.5 -1.49214
      vertex -3.39004 -7.5 -0.870414
      vertex -3.25422 -7.5 -1.28843
    endloop
  endfacet
  facet normal 0 1 0
    outer loop
      vertex -3.39004 -7.5 -0.870414
      vertex -5.8115 -7.5 -1.49214
      vertex -5.95269 -7.5 -0.751999
    endloop
  endfacet
  facet normal 0 1 0
    outer loop
      vertex -5.57866 -7.5 -2.20875
      vertex -3.25422 -7.5 -1.28843
      vertex -3.06707 -7.5 -1.68614
    endloop
  endfacet
  facet normal 0 1 0
    outer loop
      vertex -5.25784 -7.5 -2.89052
      vertex -3.06707 -7.5 -1.68614
      vertex -2.83156 -7.5 -2.05725
    endloop
  endfacet
  facet normal 0 1 0
    outer loop
      vertex -3.25422 -7.5 -1.28843
      vertex -5.57866 -7.5 -2.20875
      vertex -5.8115 -7.5 -1.49214
    endloop
  endfacet
  facet normal 0 1 0
    outer loop
      vertex -4.8541 -7.5 -3.52671
      vertex -2.83156 -7.5 -2.05725
      vertex -2.55139 -7.5 -2.39591
    endloop
  endfacet
  facet normal 0 1 0
    outer loop
      vertex -4.37381 -7.5 -4.10728
      vertex -2.55139 -7.5 -2.39591
      vertex -2.23098 -7.5 -2.6968
    endloop
  endfacet
  facet normal 0 1 0
    outer loop
      vertex -3.06707 -7.5 -1.68614
      vertex -5.25784 -7.5 -2.89052
      vertex -5.57866 -7.5 -2.20875
    endloop
  endfacet
  facet normal 0 1 0
    outer loop
      vertex -3.82454 -7.5 -4.62308
      vertex -2.23098 -7.5 -2.6968
      vertex -1.87539 -7.5 -2.95515
    endloop
  endfacet
  facet normal 0 1 0
    outer loop
      vertex -3.21496 -7.5 -5.06597
      vertex -1.87539 -7.5 -2.95515
      vertex -1.49023 -7.5 -3.16689
    endloop
  endfacet
  facet normal 0 1 0
    outer loop
      vertex -2.55468 -7.5 -5.42896
      vertex -1.49023 -7.5 -3.16689
      vertex -1.08156 -7.5 -3.3287
    endloop
  endfacet
  facet normal 0 1 0
    outer loop
      vertex -1.8541 -7.5 -5.70634
      vertex -1.08156 -7.5 -3.3287
      vertex -0.655834 -7.5 -3.438
    endloop
  endfacet
  facet normal 0 1 0
    outer loop
      vertex -1.12429 -7.5 -5.89372
      vertex -0.655834 -7.5 -3.438
      vertex -0.219767 -7.5 -3.49309
    endloop
  endfacet
  facet normal 0 1 0
    outer loop
      vertex -2.83156 -7.5 -2.05725
      vertex -4.8541 -7.5 -3.52671
      vertex -5.25784 -7.5 -2.89052
    endloop
  endfacet
  facet normal 0 1 0
    outer loop
      vertex 1.49023 -7.5 -3.16689
      vertex 2.55468 -7.5 -5.42896
      vertex 1.08156 -7.5 -3.3287
    endloop
  endfacet
  facet normal 0 1 -0
    outer loop
      vertex 1.8541 -7.5 -5.70634
      vertex 1.08156 -7.5 -3.3287
      vertex 2.55468 -7.5 -5.42896
    endloop
  endfacet
  facet normal 0 1 0
    outer loop
      vertex -2.55139 -7.5 -2.39591
      vertex -4.37381 -7.5 -4.10728
      vertex -4.8541 -7.5 -3.52671
    endloop
  endfacet
  facet normal 0 1 0
    outer loop
      vertex 1.08156 -7.5 -3.3287
      vertex 1.8541 -7.5 -5.70634
      vertex 0.655834 -7.5 -3.438
    endloop
  endfacet
  facet normal 0 1 0
    outer loop
      vertex -2.23098 -7.5 -2.6968
      vertex -3.82454 -7.5 -4.62308
      vertex -4.37381 -7.5 -4.10728
    endloop
  endfacet
  facet normal 0 1 -0
    outer loop
      vertex 1.12429 -7.5 -5.89372
      vertex 0.655834 -7.5 -3.438
      vertex 1.8541 -7.5 -5.70634
    endloop
  endfacet
  facet normal 0 1 0
    outer loop
      vertex -1.87539 -7.5 -2.95515
      vertex -3.21496 -7.5 -5.06597
      vertex -3.82454 -7.5 -4.62308
    endloop
  endfacet
  facet normal 0 1 0
    outer loop
      vertex 0.655834 -7.5 -3.438
      vertex 1.12429 -7.5 -5.89372
      vertex 0.219767 -7.5 -3.49309
    endloop
  endfacet
  facet normal 0 1 0
    outer loop
      vertex -1.49023 -7.5 -3.16689
      vertex -2.55468 -7.5 -5.42896
      vertex -3.21496 -7.5 -5.06597
    endloop
  endfacet
  facet normal 0 1 -0
    outer loop
      vertex 0.376742 -7.5 -5.98816
      vertex 0.219767 -7.5 -3.49309
      vertex 1.12429 -7.5 -5.89372
    endloop
  endfacet
  facet normal 0 1 0
    outer loop
      vertex -1.08156 -7.5 -3.3287
      vertex -1.8541 -7.5 -5.70634
      vertex -2.55468 -7.5 -5.42896
    endloop
  endfacet
  facet normal 0 1 0
    outer loop
      vertex 0.219767 -7.5 -3.49309
      vertex 0.376742 -7.5 -5.98816
      vertex -0.219767 -7.5 -3.49309
    endloop
  endfacet
  facet normal 0 1 0
    outer loop
      vertex -0.655834 -7.5 -3.438
      vertex -1.12429 -7.5 -5.89372
      vertex -1.8541 -7.5 -5.70634
    endloop
  endfacet
  facet normal 0 1 0
    outer loop
      vertex -0.376742 -7.5 -5.98816
      vertex -0.219767 -7.5 -3.49309
      vertex 0.376742 -7.5 -5.98816
    endloop
  endfacet
  facet normal 0 1 0
    outer loop
      vertex -0.219767 -7.5 -3.49309
      vertex -0.376742 -7.5 -5.98816
      vertex -1.12429 -7.5 -5.89372
    endloop
  endfacet
  facet normal 0 0 -1
    outer loop
      vertex -0.376742 -11.25 -5.98816
      vertex 0.376742 -7.5 -5.98816
      vertex 0.376742 -11.25 -5.98816
    endloop
  endfacet
  facet normal -0 0 -1
    outer loop
      vertex 0.376742 -7.5 -5.98816
      vertex -0.376742 -11.25 -5.98816
      vertex -0.376742 -7.5 -5.98816
    endloop
  endfacet
  facet normal 0.684548 0 -0.728968
    outer loop
      vertex 3.82454 -11.25 -4.62308
      vertex 4.37381 -7.5 -4.10728
      vertex 4.37381 -11.25 -4.10728
    endloop
  endfacet
  facet normal 0.684548 0 -0.728968
    outer loop
      vertex 4.37381 -7.5 -4.10728
      vertex 3.82454 -11.25 -4.62308
      vertex 3.82454 -7.5 -4.62308
    endloop
  endfacet
  facet normal 0.587789 0 -0.809014
    outer loop
      vertex 3.21496 -11.25 -5.06597
      vertex 3.82454 -7.5 -4.62308
      vertex 3.82454 -11.25 -4.62308
    endloop
  endfacet
  facet normal 0.587789 0 -0.809014
    outer loop
      vertex 3.82454 -7.5 -4.62308
      vertex 3.21496 -11.25 -5.06597
      vertex 3.21496 -7.5 -5.06597
    endloop
  endfacet
  facet normal 0.982287 0 -0.187382
    outer loop
      vertex 5.95269 -11.25 -0.751999
      vertex 5.8115 -7.5 -1.49214
      vertex 5.95269 -7.5 -0.751999
    endloop
  endfacet
  facet normal 0.982287 0 -0.187382
    outer loop
      vertex 5.8115 -7.5 -1.49214
      vertex 5.95269 -11.25 -0.751999
      vertex 5.8115 -11.25 -1.49214
    endloop
  endfacet
  facet normal 0.998027 0 -0.0627882
    outer loop
      vertex 6 -11.25 0
      vertex 5.95269 -7.5 -0.751999
      vertex 6 -7.5 0
    endloop
  endfacet
  facet normal 0.998027 0 -0.0627882
    outer loop
      vertex 5.95269 -7.5 -0.751999
      vertex 6 -11.25 0
      vertex 5.95269 -11.25 -0.751999
    endloop
  endfacet
  facet normal -0.368125 0 -0.929776
    outer loop
      vertex -2.55468 -11.25 -5.42896
      vertex -1.8541 -7.5 -5.70634
      vertex -1.8541 -11.25 -5.70634
    endloop
  endfacet
  facet normal -0.368125 0 -0.929776
    outer loop
      vertex -1.8541 -7.5 -5.70634
      vertex -2.55468 -11.25 -5.42896
      vertex -2.55468 -7.5 -5.42896
    endloop
  endfacet
  facet normal -0.770513 0 -0.637425
    outer loop
      vertex -4.37381 -11.25 -4.10728
      vertex -4.8541 -7.5 -3.52671
      vertex -4.37381 -7.5 -4.10728
    endloop
  endfacet
  facet normal -0.770513 -0 -0.637425
    outer loop
      vertex -4.8541 -7.5 -3.52671
      vertex -4.37381 -11.25 -4.10728
      vertex -4.8541 -11.25 -3.52671
    endloop
  endfacet
  facet normal -0.982287 0 -0.187382
    outer loop
      vertex -5.8115 -11.25 -1.49214
      vertex -5.95269 -7.5 -0.751999
      vertex -5.8115 -7.5 -1.49214
    endloop
  endfacet
  facet normal -0.982287 -0 -0.187382
    outer loop
      vertex -5.95269 -7.5 -0.751999
      vertex -5.8115 -11.25 -1.49214
      vertex -5.95269 -11.25 -0.751999
    endloop
  endfacet
  facet normal -0.998027 0 -0.0627882
    outer loop
      vertex -5.95269 -11.25 -0.751999
      vertex -6 -7.5 0
      vertex -5.95269 -7.5 -0.751999
    endloop
  endfacet
  facet normal -0.998027 -0 -0.0627882
    outer loop
      vertex -6 -7.5 0
      vertex -5.95269 -11.25 -0.751999
      vertex -6 -11.25 0
    endloop
  endfacet
  facet normal 0.248686 0 -0.968584
    outer loop
      vertex 1.12429 -11.25 -5.89372
      vertex 1.8541 -7.5 -5.70634
      vertex 1.8541 -11.25 -5.70634
    endloop
  endfacet
  facet normal 0.248686 0 -0.968584
    outer loop
      vertex 1.8541 -7.5 -5.70634
      vertex 1.12429 -11.25 -5.89372
      vertex 1.12429 -7.5 -5.89372
    endloop
  endfacet
  facet normal 0.368125 0 -0.929776
    outer loop
      vertex 1.8541 -11.25 -5.70634
      vertex 2.55468 -7.5 -5.42896
      vertex 2.55468 -11.25 -5.42896
    endloop
  endfacet
  facet normal 0.368125 0 -0.929776
    outer loop
      vertex 2.55468 -7.5 -5.42896
      vertex 1.8541 -11.25 -5.70634
      vertex 1.8541 -7.5 -5.70634
    endloop
  endfacet
  facet normal 0.951057 0 -0.309016
    outer loop
      vertex 5.8115 -11.25 -1.49214
      vertex 5.57866 -7.5 -2.20875
      vertex 5.8115 -7.5 -1.49214
    endloop
  endfacet
  facet normal 0.951057 0 -0.309016
    outer loop
      vertex 5.57866 -7.5 -2.20875
      vertex 5.8115 -11.25 -1.49214
      vertex 5.57866 -11.25 -2.20875
    endloop
  endfacet
  facet normal 0.770513 0 -0.637425
    outer loop
      vertex 4.8541 -11.25 -3.52671
      vertex 4.37381 -7.5 -4.10728
      vertex 4.8541 -7.5 -3.52671
    endloop
  endfacet
  facet normal 0.770513 0 -0.637425
    outer loop
      vertex 4.37381 -7.5 -4.10728
      vertex 4.8541 -11.25 -3.52671
      vertex 4.37381 -11.25 -4.10728
    endloop
  endfacet
  facet normal 0.844327 0 -0.535828
    outer loop
      vertex 5.25784 -11.25 -2.89052
      vertex 4.8541 -7.5 -3.52671
      vertex 5.25784 -7.5 -2.89052
    endloop
  endfacet
  facet normal 0.844327 0 -0.535828
    outer loop
      vertex 4.8541 -7.5 -3.52671
      vertex 5.25784 -11.25 -2.89052
      vertex 4.8541 -11.25 -3.52671
    endloop
  endfacet
  facet normal -0.587789 0 -0.809014
    outer loop
      vertex -3.82454 -11.25 -4.62308
      vertex -3.21496 -7.5 -5.06597
      vertex -3.21496 -11.25 -5.06597
    endloop
  endfacet
  facet normal -0.587789 0 -0.809014
    outer loop
      vertex -3.21496 -7.5 -5.06597
      vertex -3.82454 -11.25 -4.62308
      vertex -3.82454 -7.5 -4.62308
    endloop
  endfacet
  facet normal -0.248686 0 -0.968584
    outer loop
      vertex -1.8541 -11.25 -5.70634
      vertex -1.12429 -7.5 -5.89372
      vertex -1.12429 -11.25 -5.89372
    endloop
  endfacet
  facet normal -0.248686 0 -0.968584
    outer loop
      vertex -1.12429 -7.5 -5.89372
      vertex -1.8541 -11.25 -5.70634
      vertex -1.8541 -7.5 -5.70634
    endloop
  endfacet
  facet normal -0.125337 0 -0.992114
    outer loop
      vertex -1.12429 -11.25 -5.89372
      vertex -0.376742 -7.5 -5.98816
      vertex -0.376742 -11.25 -5.98816
    endloop
  endfacet
  facet normal -0.125337 0 -0.992114
    outer loop
      vertex -0.376742 -7.5 -5.98816
      vertex -1.12429 -11.25 -5.89372
      vertex -1.12429 -7.5 -5.89372
    endloop
  endfacet
  facet normal -0.481752 0 -0.876308
    outer loop
      vertex -3.21496 -11.25 -5.06597
      vertex -2.55468 -7.5 -5.42896
      vertex -2.55468 -11.25 -5.42896
    endloop
  endfacet
  facet normal -0.481752 0 -0.876308
    outer loop
      vertex -2.55468 -7.5 -5.42896
      vertex -3.21496 -11.25 -5.06597
      vertex -3.21496 -7.5 -5.06597
    endloop
  endfacet
  facet normal 0.982287 0 -0.18738
    outer loop
      vertex 3.4724 -7.5 -0.438665
      vertex 3.39004 7.5 -0.870414
      vertex 3.4724 7.5 -0.438665
    endloop
  endfacet
  facet normal 0.982287 0 -0.18738
    outer loop
      vertex 3.39004 7.5 -0.870414
      vertex 3.4724 -7.5 -0.438665
      vertex 3.39004 -7.5 -0.870414
    endloop
  endfacet
  facet normal 0.481748 0 -0.87631
    outer loop
      vertex 1.49023 -7.5 -3.16689
      vertex 1.87539 7.5 -2.95515
      vertex 1.87539 -7.5 -2.95515
    endloop
  endfacet
  facet normal 0.481748 0 -0.87631
    outer loop
      vertex 1.87539 7.5 -2.95515
      vertex 1.49023 -7.5 -3.16689
      vertex 1.49023 7.5 -3.16689
    endloop
  endfacet
  facet normal -0.684553 0 -0.728963
    outer loop
      vertex -2.55139 -7.5 -2.39591
      vertex -2.23098 7.5 -2.6968
      vertex -2.23098 -7.5 -2.6968
    endloop
  endfacet
  facet normal -0.684553 0 -0.728963
    outer loop
      vertex -2.23098 7.5 -2.6968
      vertex -2.55139 -7.5 -2.39591
      vertex -2.55139 7.5 -2.39591
    endloop
  endfacet
  facet normal -0.951058 0 -0.309014
    outer loop
      vertex -3.25422 -7.5 -1.28843
      vertex -3.39004 7.5 -0.870414
      vertex -3.25422 7.5 -1.28843
    endloop
  endfacet
  facet normal -0.951058 -0 -0.309014
    outer loop
      vertex -3.39004 7.5 -0.870414
      vertex -3.25422 -7.5 -1.28843
      vertex -3.39004 -7.5 -0.870414
    endloop
  endfacet
  facet normal 0.998027 0 -0.062794
    outer loop
      vertex 3.5 -7.5 0
      vertex 3.4724 7.5 -0.438665
      vertex 3.5 7.5 0
    endloop
  endfacet
  facet normal 0.998027 0 -0.062794
    outer loop
      vertex 3.4724 7.5 -0.438665
      vertex 3.5 -7.5 0
      vertex 3.4724 -7.5 -0.438665
    endloop
  endfacet
  facet normal 0.951058 0 -0.309014
    outer loop
      vertex 3.39004 -7.5 -0.870414
      vertex 3.25422 7.5 -1.28843
      vertex 3.39004 7.5 -0.870414
    endloop
  endfacet
  facet normal 0.951058 0 -0.309014
    outer loop
      vertex 3.25422 7.5 -1.28843
      vertex 3.39004 -7.5 -0.870414
      vertex 3.25422 -7.5 -1.28843
    endloop
  endfacet
  facet normal -0.904825 0 -0.425783
    outer loop
      vertex -3.06707 -7.5 -1.68614
      vertex -3.25422 7.5 -1.28843
      vertex -3.06707 7.5 -1.68614
    endloop
  endfacet
  facet normal -0.904825 -0 -0.425783
    outer loop
      vertex -3.25422 7.5 -1.28843
      vertex -3.06707 -7.5 -1.68614
      vertex -3.25422 -7.5 -1.28843
    endloop
  endfacet
  facet normal 0 0 -1
    outer loop
      vertex -0.219767 -7.5 -3.49309
      vertex 0.219767 7.5 -3.49309
      vertex 0.219767 -7.5 -3.49309
    endloop
  endfacet
  facet normal -0 0 -1
    outer loop
      vertex 0.219767 7.5 -3.49309
      vertex -0.219767 -7.5 -3.49309
      vertex -0.219767 7.5 -3.49309
    endloop
  endfacet
  facet normal 0.125338 0 -0.992114
    outer loop
      vertex 0.219767 -7.5 -3.49309
      vertex 0.655834 7.5 -3.438
      vertex 0.655834 -7.5 -3.438
    endloop
  endfacet
  facet normal 0.125338 0 -0.992114
    outer loop
      vertex 0.655834 7.5 -3.438
      vertex 0.219767 -7.5 -3.49309
      vertex 0.219767 7.5 -3.49309
    endloop
  endfacet
  facet normal -0.998027 0 -0.062794
    outer loop
      vertex -3.4724 -7.5 -0.438665
      vertex -3.5 7.5 0
      vertex -3.4724 7.5 -0.438665
    endloop
  endfacet
  facet normal -0.998027 -0 -0.062794
    outer loop
      vertex -3.5 7.5 0
      vertex -3.4724 -7.5 -0.438665
      vertex -3.5 -7.5 0
    endloop
  endfacet
  facet normal -0.982287 0 -0.18738
    outer loop
      vertex -3.39004 -7.5 -0.870414
      vertex -3.4724 7.5 -0.438665
      vertex -3.39004 7.5 -0.870414
    endloop
  endfacet
  facet normal -0.982287 -0 -0.18738
    outer loop
      vertex -3.4724 7.5 -0.438665
      vertex -3.39004 -7.5 -0.870414
      vertex -3.4724 -7.5 -0.438665
    endloop
  endfacet
  facet normal -0.770506 0 -0.637432
    outer loop
      vertex -2.55139 -7.5 -2.39591
      vertex -2.83156 7.5 -2.05725
      vertex -2.55139 7.5 -2.39591
    endloop
  endfacet
  facet normal -0.770506 -0 -0.637432
    outer loop
      vertex -2.83156 7.5 -2.05725
      vertex -2.55139 -7.5 -2.39591
      vertex -2.83156 -7.5 -2.05725
    endloop
  endfacet
  facet normal 0.248673 0 -0.968587
    outer loop
      vertex 0.655834 -7.5 -3.438
      vertex 1.08156 7.5 -3.3287
      vertex 1.08156 -7.5 -3.3287
    endloop
  endfacet
  facet normal 0.248673 0 -0.968587
    outer loop
      vertex 1.08156 7.5 -3.3287
      vertex 0.655834 -7.5 -3.438
      vertex 0.655834 7.5 -3.438
    endloop
  endfacet
  facet normal 0.368137 0 -0.929772
    outer loop
      vertex 1.08156 -7.5 -3.3287
      vertex 1.49023 7.5 -3.16689
      vertex 1.49023 -7.5 -3.16689
    endloop
  endfacet
  facet normal 0.368137 0 -0.929772
    outer loop
      vertex 1.49023 7.5 -3.16689
      vertex 1.08156 -7.5 -3.3287
      vertex 1.08156 7.5 -3.3287
    endloop
  endfacet
  facet normal 0.684553 0 -0.728963
    outer loop
      vertex 2.23098 -7.5 -2.6968
      vertex 2.55139 7.5 -2.39591
      vertex 2.55139 -7.5 -2.39591
    endloop
  endfacet
  facet normal 0.684553 0 -0.728963
    outer loop
      vertex 2.55139 7.5 -2.39591
      vertex 2.23098 -7.5 -2.6968
      vertex 2.23098 7.5 -2.6968
    endloop
  endfacet
  facet normal 0.587783 0 -0.809018
    outer loop
      vertex 1.87539 -7.5 -2.95515
      vertex 2.23098 7.5 -2.6968
      vertex 2.23098 -7.5 -2.6968
    endloop
  endfacet
  facet normal 0.587783 0 -0.809018
    outer loop
      vertex 2.23098 7.5 -2.6968
      vertex 1.87539 -7.5 -2.95515
      vertex 1.87539 7.5 -2.95515
    endloop
  endfacet
  facet normal 0.844332 0 -0.535821
    outer loop
      vertex 3.06707 -7.5 -1.68614
      vertex 2.83156 7.5 -2.05725
      vertex 3.06707 7.5 -1.68614
    endloop
  endfacet
  facet normal 0.844332 0 -0.535821
    outer loop
      vertex 2.83156 7.5 -2.05725
      vertex 3.06707 -7.5 -1.68614
      vertex 2.83156 -7.5 -2.05725
    endloop
  endfacet
  facet normal 0.904825 0 -0.425783
    outer loop
      vertex 3.25422 -7.5 -1.28843
      vertex 3.06707 7.5 -1.68614
      vertex 3.25422 7.5 -1.28843
    endloop
  endfacet
  facet normal 0.904825 0 -0.425783
    outer loop
      vertex 3.06707 7.5 -1.68614
      vertex 3.25422 -7.5 -1.28843
      vertex 3.06707 -7.5 -1.68614
    endloop
  endfacet
  facet normal -0.368137 0 -0.929772
    outer loop
      vertex -1.49023 -7.5 -3.16689
      vertex -1.08156 7.5 -3.3287
      vertex -1.08156 -7.5 -3.3287
    endloop
  endfacet
  facet normal -0.368137 0 -0.929772
    outer loop
      vertex -1.08156 7.5 -3.3287
      vertex -1.49023 -7.5 -3.16689
      vertex -1.49023 7.5 -3.16689
    endloop
  endfacet
  facet normal -0.248673 0 -0.968587
    outer loop
      vertex -1.08156 -7.5 -3.3287
      vertex -0.655834 7.5 -3.438
      vertex -0.655834 -7.5 -3.438
    endloop
  endfacet
  facet normal -0.248673 0 -0.968587
    outer loop
      vertex -0.655834 7.5 -3.438
      vertex -1.08156 -7.5 -3.3287
      vertex -1.08156 7.5 -3.3287
    endloop
  endfacet
  facet normal -0.844332 0 -0.535821
    outer loop
      vertex -2.83156 -7.5 -2.05725
      vertex -3.06707 7.5 -1.68614
      vertex -2.83156 7.5 -2.05725
    endloop
  endfacet
  facet normal -0.844332 -0 -0.535821
    outer loop
      vertex -3.06707 7.5 -1.68614
      vertex -2.83156 -7.5 -2.05725
      vertex -3.06707 -7.5 -1.68614
    endloop
  endfacet
  facet normal 0.770506 0 -0.637432
    outer loop
      vertex 2.83156 -7.5 -2.05725
      vertex 2.55139 7.5 -2.39591
      vertex 2.83156 7.5 -2.05725
    endloop
  endfacet
  facet normal 0.770506 0 -0.637432
    outer loop
      vertex 2.55139 7.5 -2.39591
      vertex 2.83156 -7.5 -2.05725
      vertex 2.55139 -7.5 -2.39591
    endloop
  endfacet
  facet normal -0.587783 0 -0.809018
    outer loop
      vertex -2.23098 -7.5 -2.6968
      vertex -1.87539 7.5 -2.95515
      vertex -1.87539 -7.5 -2.95515
    endloop
  endfacet
  facet normal -0.587783 0 -0.809018
    outer loop
      vertex -1.87539 7.5 -2.95515
      vertex -2.23098 -7.5 -2.6968
      vertex -2.23098 7.5 -2.6968
    endloop
  endfacet
  facet normal -0.125338 0 -0.992114
    outer loop
      vertex -0.655834 -7.5 -3.438
      vertex -0.219767 7.5 -3.49309
      vertex -0.219767 -7.5 -3.49309
    endloop
  endfacet
  facet normal -0.125338 0 -0.992114
    outer loop
      vertex -0.219767 7.5 -3.49309
      vertex -0.655834 -7.5 -3.438
      vertex -0.655834 7.5 -3.438
    endloop
  endfacet
  facet normal -0.481748 0 -0.87631
    outer loop
      vertex -1.87539 -7.5 -2.95515
      vertex -1.49023 7.5 -3.16689
      vertex -1.49023 -7.5 -3.16689
    endloop
  endfacet
  facet normal -0.481748 0 -0.87631
    outer loop
      vertex -1.49023 7.5 -3.16689
      vertex -1.87539 -7.5 -2.95515
      vertex -1.87539 7.5 -2.95515
    endloop
  endfacet
  facet normal -0.904838 0 0.425756
    outer loop
      vertex 1.31446 -11.25 -0.722631
      vertex 1.39466 11.25 -0.552186
      vertex 1.31446 11.25 -0.722631
    endloop
  endfacet
  facet normal -0.904838 0 0.425756
    outer loop
      vertex 1.39466 11.25 -0.552186
      vertex 1.31446 -11.25 -0.722631
      vertex 1.39466 -11.25 -0.552186
    endloop
  endfacet
  facet normal 0.770518 -0 0.637418
    outer loop
      vertex -1.21352 -11.25 -0.881678
      vertex -1.09345 11.25 -1.02682
      vertex -1.21352 11.25 -0.881678
    endloop
  endfacet
  facet normal 0.770518 0 0.637418
    outer loop
      vertex -1.09345 11.25 -1.02682
      vertex -1.21352 -11.25 -0.881678
      vertex -1.09345 -11.25 -1.02682
    endloop
  endfacet
  facet normal -0.125337 0 0.992114
    outer loop
      vertex 0.0941849 11.25 -1.49704
      vertex 0.281072 -11.25 -1.47343
      vertex 0.281072 11.25 -1.47343
    endloop
  endfacet
  facet normal -0.125337 0 0.992114
    outer loop
      vertex 0.281072 -11.25 -1.47343
      vertex 0.0941849 11.25 -1.49704
      vertex 0.0941849 -11.25 -1.49704
    endloop
  endfacet
  facet normal -0.481757 0 0.876305
    outer loop
      vertex 0.638668 11.25 -1.35724
      vertex 0.80374 -11.25 -1.26649
      vertex 0.80374 11.25 -1.26649
    endloop
  endfacet
  facet normal -0.481757 0 0.876305
    outer loop
      vertex 0.80374 -11.25 -1.26649
      vertex 0.638668 11.25 -1.35724
      vertex 0.638668 -11.25 -1.35724
    endloop
  endfacet
  facet normal 0.684557 0 0.728959
    outer loop
      vertex -1.09345 11.25 -1.02682
      vertex -0.956136 -11.25 -1.15577
      vertex -0.956136 11.25 -1.15577
    endloop
  endfacet
  facet normal 0.684557 0 0.728959
    outer loop
      vertex -0.956136 -11.25 -1.15577
      vertex -1.09345 11.25 -1.02682
      vertex -1.09345 -11.25 -1.02682
    endloop
  endfacet
  facet normal -0 0 1
    outer loop
      vertex -0.0941849 11.25 -1.49704
      vertex 0.0941849 -11.25 -1.49704
      vertex 0.0941849 11.25 -1.49704
    endloop
  endfacet
  facet normal 0 0 1
    outer loop
      vertex 0.0941849 -11.25 -1.49704
      vertex -0.0941849 11.25 -1.49704
      vertex -0.0941849 -11.25 -1.49704
    endloop
  endfacet
  facet normal -0.684557 0 0.728959
    outer loop
      vertex 0.956136 11.25 -1.15577
      vertex 1.09345 -11.25 -1.02682
      vertex 1.09345 11.25 -1.02682
    endloop
  endfacet
  facet normal -0.684557 0 0.728959
    outer loop
      vertex 1.09345 -11.25 -1.02682
      vertex 0.956136 11.25 -1.15577
      vertex 0.956136 -11.25 -1.15577
    endloop
  endfacet
  facet normal -0.587778 0 0.809022
    outer loop
      vertex 0.80374 11.25 -1.26649
      vertex 0.956136 -11.25 -1.15577
      vertex 0.956136 11.25 -1.15577
    endloop
  endfacet
  facet normal -0.587778 0 0.809022
    outer loop
      vertex 0.956136 -11.25 -1.15577
      vertex 0.80374 11.25 -1.26649
      vertex 0.80374 -11.25 -1.26649
    endloop
  endfacet
  facet normal -0.982284 0 0.187396
    outer loop
      vertex 1.45287 -11.25 -0.373034
      vertex 1.48817 11.25 -0.188
      vertex 1.45287 11.25 -0.373034
    endloop
  endfacet
  facet normal -0.982284 0 0.187396
    outer loop
      vertex 1.48817 11.25 -0.188
      vertex 1.45287 -11.25 -0.373034
      vertex 1.48817 -11.25 -0.188
    endloop
  endfacet
  facet normal -0.998026 0 0.0628013
    outer loop
      vertex 1.48817 -11.25 -0.188
      vertex 1.5 11.25 0
      vertex 1.48817 11.25 -0.188
    endloop
  endfacet
  facet normal -0.998026 0 0.0628013
    outer loop
      vertex 1.5 11.25 0
      vertex 1.48817 -11.25 -0.188
      vertex 1.5 -11.25 0
    endloop
  endfacet
  facet normal 0.368106 0 0.929784
    outer loop
      vertex -0.638668 11.25 -1.35724
      vertex -0.463525 -11.25 -1.42658
      vertex -0.463525 11.25 -1.42658
    endloop
  endfacet
  facet normal 0.368106 0 0.929784
    outer loop
      vertex -0.463525 -11.25 -1.42658
      vertex -0.638668 11.25 -1.35724
      vertex -0.638668 -11.25 -1.35724
    endloop
  endfacet
  facet normal 0.951057 -0 0.309017
    outer loop
      vertex -1.45287 -11.25 -0.373034
      vertex -1.39466 11.25 -0.552186
      vertex -1.45287 11.25 -0.373034
    endloop
  endfacet
  facet normal 0.951057 0 0.309017
    outer loop
      vertex -1.39466 11.25 -0.552186
      vertex -1.45287 -11.25 -0.373034
      vertex -1.39466 -11.25 -0.552186
    endloop
  endfacet
  facet normal 0.982284 -0 0.187396
    outer loop
      vertex -1.48817 -11.25 -0.188
      vertex -1.45287 11.25 -0.373034
      vertex -1.48817 11.25 -0.188
    endloop
  endfacet
  facet normal 0.982284 0 0.187396
    outer loop
      vertex -1.45287 11.25 -0.373034
      vertex -1.48817 -11.25 -0.188
      vertex -1.45287 -11.25 -0.373034
    endloop
  endfacet
  facet normal 0.998026 -0 0.0628013
    outer loop
      vertex -1.5 -11.25 0
      vertex -1.48817 11.25 -0.188
      vertex -1.5 11.25 0
    endloop
  endfacet
  facet normal 0.998026 0 0.0628013
    outer loop
      vertex -1.48817 11.25 -0.188
      vertex -1.5 -11.25 0
      vertex -1.48817 -11.25 -0.188
    endloop
  endfacet
  facet normal -0.24871 0 0.968578
    outer loop
      vertex 0.281072 11.25 -1.47343
      vertex 0.463525 -11.25 -1.42658
      vertex 0.463525 11.25 -1.42658
    endloop
  endfacet
  facet normal -0.24871 0 0.968578
    outer loop
      vertex 0.463525 -11.25 -1.42658
      vertex 0.281072 11.25 -1.47343
      vertex 0.281072 -11.25 -1.47343
    endloop
  endfacet
  facet normal -0.368106 0 0.929784
    outer loop
      vertex 0.463525 11.25 -1.42658
      vertex 0.638668 -11.25 -1.35724
      vertex 0.638668 11.25 -1.35724
    endloop
  endfacet
  facet normal -0.368106 0 0.929784
    outer loop
      vertex 0.638668 -11.25 -1.35724
      vertex 0.463525 11.25 -1.42658
      vertex 0.463525 -11.25 -1.42658
    endloop
  endfacet
  facet normal -0.951057 0 0.309017
    outer loop
      vertex 1.39466 -11.25 -0.552186
      vertex 1.45287 11.25 -0.373034
      vertex 1.39466 11.25 -0.552186
    endloop
  endfacet
  facet normal -0.951057 0 0.309017
    outer loop
      vertex 1.45287 11.25 -0.373034
      vertex 1.39466 -11.25 -0.552186
      vertex 1.45287 -11.25 -0.373034
    endloop
  endfacet
  facet normal -0.770518 0 0.637418
    outer loop
      vertex 1.09345 -11.25 -1.02682
      vertex 1.21352 11.25 -0.881678
      vertex 1.09345 11.25 -1.02682
    endloop
  endfacet
  facet normal -0.770518 0 0.637418
    outer loop
      vertex 1.21352 11.25 -0.881678
      vertex 1.09345 -11.25 -1.02682
      vertex 1.21352 -11.25 -0.881678
    endloop
  endfacet
  facet normal -0.844314 0 0.535848
    outer loop
      vertex 1.21352 -11.25 -0.881678
      vertex 1.31446 11.25 -0.722631
      vertex 1.21352 11.25 -0.881678
    endloop
  endfacet
  facet normal -0.844314 0 0.535848
    outer loop
      vertex 1.31446 11.25 -0.722631
      vertex 1.21352 -11.25 -0.881678
      vertex 1.31446 -11.25 -0.722631
    endloop
  endfacet
  facet normal 0.587778 0 0.809022
    outer loop
      vertex -0.956136 11.25 -1.15577
      vertex -0.80374 -11.25 -1.26649
      vertex -0.80374 11.25 -1.26649
    endloop
  endfacet
  facet normal 0.587778 0 0.809022
    outer loop
      vertex -0.80374 -11.25 -1.26649
      vertex -0.956136 11.25 -1.15577
      vertex -0.956136 -11.25 -1.15577
    endloop
  endfacet
  facet normal 0.904838 -0 0.425756
    outer loop
      vertex -1.39466 -11.25 -0.552186
      vertex -1.31446 11.25 -0.722631
      vertex -1.39466 11.25 -0.552186
    endloop
  endfacet
  facet normal 0.904838 0 0.425756
    outer loop
      vertex -1.31446 11.25 -0.722631
      vertex -1.39466 -11.25 -0.552186
      vertex -1.31446 -11.25 -0.722631
    endloop
  endfacet
  facet normal 0.481757 0 0.876305
    outer loop
      vertex -0.80374 11.25 -1.26649
      vertex -0.638668 -11.25 -1.35724
      vertex -0.638668 11.25 -1.35724
    endloop
  endfacet
  facet normal 0.481757 0 0.876305
    outer loop
      vertex -0.638668 -11.25 -1.35724
      vertex -0.80374 11.25 -1.26649
      vertex -0.80374 -11.25 -1.26649
    endloop
  endfacet
  facet normal 0.24871 0 0.968578
    outer loop
      vertex -0.463525 11.25 -1.42658
      vertex -0.281072 -11.25 -1.47343
      vertex -0.281072 11.25 -1.47343
    endloop
  endfacet
  facet normal 0.24871 0 0.968578
    outer loop
      vertex -0.281072 -11.25 -1.47343
      vertex -0.463525 11.25 -1.42658
      vertex -0.463525 -11.25 -1.42658
    endloop
  endfacet
  facet normal 0.125337 0 0.992114
    outer loop
      vertex -0.281072 11.25 -1.47343
      vertex -0.0941849 -11.25 -1.49704
      vertex -0.0941849 11.25 -1.49704
    endloop
  endfacet
  facet normal 0.125337 0 0.992114
    outer loop
      vertex -0.0941849 -11.25 -1.49704
      vertex -0.281072 11.25 -1.47343
      vertex -0.281072 -11.25 -1.47343
    endloop
  endfacet
  facet normal 0.844314 -0 0.535848
    outer loop
      vertex -1.31446 -11.25 -0.722631
      vertex -1.21352 11.25 -0.881678
      vertex -1.31446 11.25 -0.722631
    endloop
  endfacet
  facet normal 0.844314 0 0.535848
    outer loop
      vertex -1.21352 11.25 -0.881678
      vertex -1.31446 -11.25 -0.722631
      vertex -1.21352 -11.25 -0.881678
    endloop
  endfacet
  facet normal 0 0 1
    outer loop
      vertex 6 11.25 0
      vertex 3.5 7.5 0
      vertex 6 7.5 0
    endloop
  endfacet
  facet normal 0 0 1
    outer loop
      vertex 3.5 7.5 0
      vertex 1.5 11.25 0
      vertex 3.5 -7.5 0
    endloop
  endfacet
  facet normal -0 0 1
    outer loop
      vertex 1.5 11.25 0
      vertex 3.5 7.5 0
      vertex 6 11.25 0
    endloop
  endfacet
  facet normal -0 0 1
    outer loop
      vertex 3.5 -7.5 0
      vertex 6 -11.25 0
      vertex 6 -7.5 0
    endloop
  endfacet
  facet normal 0 0 1
    outer loop
      vertex 3.5 -7.5 0
      vertex 1.5 -11.25 0
      vertex 6 -11.25 0
    endloop
  endfacet
  facet normal 0 0 1
    outer loop
      vertex 1.5 -11.25 0
      vertex 3.5 -7.5 0
      vertex 1.5 11.25 0
    endloop
  endfacet
  facet normal 0 0 1
    outer loop
      vertex -1.5 11.25 0
      vertex -3.5 7.5 0
      vertex -1.5 -11.25 0
    endloop
  endfacet
  facet normal -0 0 1
    outer loop
      vertex -6 11.25 0
      vertex -3.5 7.5 0
      vertex -1.5 11.25 0
    endloop
  endfacet
  facet normal 0 0 1
    outer loop
      vertex -3.5 7.5 0
      vertex -6 11.25 0
      vertex -6 7.5 0
    endloop
  endfacet
  facet normal -0 0 1
    outer loop
      vertex -3.5 -7.5 0
      vertex -1.5 -11.25 0
      vertex -3.5 7.5 0
    endloop
  endfacet
  facet normal 0 0 1
    outer loop
      vertex -6 -11.25 0
      vertex -3.5 -7.5 0
      vertex -6 -7.5 0
    endloop
  endfacet
  facet normal 0 0 1
    outer loop
      vertex -3.5 -7.5 0
      vertex -6 -11.25 0
      vertex -1.5 -11.25 0
    endloop
  endfacet
endsolid OpenSCAD_Model
