<?xml version="1.0" standalone="no"?>
<!DOCTYPE svg PUBLIC "-//W3C//DTD SVG 1.1//EN" "http://www.w3.org/Graphics/SVG/1.1/DTD/svg11.dtd">
<svg width="164mm" height="173mm" viewBox="-7 -334 164 173" xmlns="http://www.w3.org/2000/svg" version="1.1">
<title>OpenSCAD Model</title>
<path d="
M 110.506,-334 L 106.994,-334 L 106.994,-320 L 110.506,-320 z
M 118.006,-334 L 114.494,-334 L 114.494,-320 L 118.006,-320 z
M 133.006,-334 L 129.494,-334 L 129.494,-320 L 133.006,-320 z
M 152.627,-320.039 L 153.243,-320.157 L 153.841,-320.351 L 154.409,-320.618 L 154.939,-320.955 L 155.423,-321.355
 L 155.853,-321.813 L 156.222,-322.321 L 156.524,-322.871 L 156.755,-323.455 L 156.911,-324.063 L 156.99,-324.686
 L 156.99,-329.314 L 156.911,-329.937 L 156.755,-330.545 L 156.524,-331.129 L 156.222,-331.679 L 155.853,-332.187
 L 155.423,-332.645 L 154.939,-333.045 L 154.409,-333.382 L 153.841,-333.649 L 153.243,-333.843 L 152.627,-333.961
 L 152,-334 L 136.994,-334 L 136.994,-320 L 152,-320 z
M 149.624,-324.024 L 149.254,-324.094 L 148.896,-324.211 L 148.555,-324.371 L 148.237,-324.573 L 147.946,-324.813
 L 147.688,-325.088 L 147.467,-325.393 L 147.286,-325.723 L 147.147,-326.073 L 147.053,-326.438 L 147.006,-326.812
 L 147.006,-327.188 L 147.053,-327.562 L 147.147,-327.927 L 147.286,-328.277 L 147.467,-328.607 L 147.688,-328.912
 L 147.946,-329.187 L 148.237,-329.427 L 148.555,-329.629 L 148.896,-329.789 L 149.254,-329.906 L 149.624,-329.976
 L 150,-330 L 150.376,-329.976 L 150.746,-329.906 L 151.104,-329.789 L 151.445,-329.629 L 151.763,-329.427
 L 152.054,-329.187 L 152.312,-328.912 L 152.533,-328.607 L 152.714,-328.277 L 152.853,-327.927 L 152.947,-327.562
 L 152.994,-327.188 L 152.994,-326.812 L 152.947,-326.438 L 152.853,-326.073 L 152.714,-325.723 L 152.533,-325.393
 L 152.312,-325.088 L 152.054,-324.813 L 151.763,-324.573 L 151.445,-324.371 L 151.104,-324.211 L 150.746,-324.094
 L 150.376,-324.024 L 150,-324 z
M 142.274,-325.214 L 142.052,-325.257 L 141.837,-325.326 L 141.633,-325.423 L 141.442,-325.544 L 141.268,-325.688
 L 141.113,-325.853 L 140.98,-326.036 L 140.871,-326.234 L 140.788,-326.444 L 140.732,-326.663 L 140.704,-326.887
 L 140.704,-327.113 L 140.732,-327.337 L 140.788,-327.556 L 140.871,-327.766 L 140.98,-327.964 L 141.113,-328.147
 L 141.268,-328.312 L 141.442,-328.456 L 141.633,-328.577 L 141.837,-328.674 L 142.052,-328.743 L 142.274,-328.786
 L 142.5,-328.8 L 142.726,-328.786 L 142.948,-328.743 L 143.163,-328.674 L 143.367,-328.577 L 143.558,-328.456
 L 143.732,-328.312 L 143.887,-328.147 L 144.02,-327.964 L 144.129,-327.766 L 144.212,-327.556 L 144.268,-327.337
 L 144.296,-327.113 L 144.296,-326.887 L 144.268,-326.663 L 144.212,-326.444 L 144.129,-326.234 L 144.02,-326.036
 L 143.887,-325.853 L 143.732,-325.688 L 143.558,-325.544 L 143.367,-325.423 L 143.163,-325.326 L 142.948,-325.257
 L 142.726,-325.214 L 142.5,-325.2 z
M 97,-320 L 103.006,-320 L 103.006,-334 L 88,-334 L 87.8432,-333.99 L 87.6861,-333.99
 L 87.5302,-333.97 L 87.3733,-333.961 L 87.219,-333.931 L 87.0631,-333.911 L 86.9109,-333.872 L 86.7565,-333.843
 L 86.6071,-333.794 L 86.4549,-333.755 L 86.3088,-333.697 L 86.1594,-333.649 L 86.0172,-333.582 L 85.8711,-333.524
 L 85.7334,-333.448 L 85.5912,-333.382 L 85.4586,-333.297 L 85.3209,-333.222 L 85.1937,-333.129 L 85.0611,-333.045
 L 84.94,-332.945 L 84.8129,-332.853 L 84.6983,-332.745 L 84.5773,-332.645 L 84.4697,-332.53 L 84.3551,-332.423
 L 84.255,-332.302 L 84.1474,-332.187 L 84.0551,-332.06 L 83.9549,-331.939 L 83.8707,-331.806 L 83.7784,-331.679
 L 83.7027,-331.541 L 83.6185,-331.409 L 83.5516,-331.267 L 83.4759,-331.129 L 83.418,-330.983 L 83.3511,-330.841
 L 83.3026,-330.691 L 83.2447,-330.545 L 83.2056,-330.393 L 83.1571,-330.243 L 83.1276,-330.089 L 83.0886,-329.937
 L 83.0689,-329.781 L 83.0394,-329.627 L 83.0296,-329.47 L 83.0099,-329.314 L 83.0099,-329.157 L 83,-329
 L 83,-313.994 L 97,-313.994 z
M 89.9059,-324.006 L 89.7181,-324.018 L 89.5314,-324.041 L 89.3465,-324.077 L 89.1643,-324.123 L 88.9853,-324.182
 L 88.8103,-324.251 L 88.64,-324.331 L 88.4751,-324.422 L 88.3162,-324.522 L 88.164,-324.633 L 88.019,-324.753
 L 87.8818,-324.882 L 87.753,-325.019 L 87.633,-325.164 L 87.5224,-325.316 L 87.4216,-325.475 L 87.3309,-325.64
 L 87.2508,-325.81 L 87.1815,-325.985 L 87.1234,-326.164 L 87.0766,-326.347 L 87.0413,-326.531 L 87.0177,-326.718
 L 87.0059,-326.906 L 87.0059,-327.094 L 87.0177,-327.282 L 87.0413,-327.469 L 87.0766,-327.653 L 87.1234,-327.836
 L 87.1815,-328.015 L 87.2508,-328.19 L 87.3309,-328.36 L 87.4216,-328.525 L 87.5224,-328.684 L 87.633,-328.836
 L 87.753,-328.981 L 87.8818,-329.118 L 88.019,-329.247 L 88.164,-329.367 L 88.3163,-329.478 L 88.4751,-329.578
 L 88.64,-329.669 L 88.8103,-329.749 L 88.9853,-329.818 L 89.1643,-329.877 L 89.3465,-329.923 L 89.5314,-329.959
 L 89.7181,-329.982 L 89.9059,-329.994 L 90.0941,-329.994 L 90.2819,-329.982 L 90.4686,-329.959 L 90.6535,-329.923
 L 90.8357,-329.877 L 91.0147,-329.818 L 91.1897,-329.749 L 91.3599,-329.669 L 91.5249,-329.578 L 91.6837,-329.478
 L 91.836,-329.367 L 91.981,-329.247 L 92.1182,-329.118 L 92.247,-328.981 L 92.367,-328.836 L 92.4776,-328.684
 L 92.5784,-328.525 L 92.6691,-328.36 L 92.7492,-328.19 L 92.8185,-328.015 L 92.8766,-327.836 L 92.9234,-327.653
 L 92.9587,-327.469 L 92.9823,-327.282 L 92.9941,-327.094 L 92.9941,-326.906 L 92.9823,-326.718 L 92.9587,-326.531
 L 92.9234,-326.347 L 92.8766,-326.164 L 92.8185,-325.985 L 92.7492,-325.81 L 92.6691,-325.64 L 92.5784,-325.475
 L 92.4776,-325.316 L 92.367,-325.164 L 92.247,-325.019 L 92.1182,-324.882 L 91.981,-324.753 L 91.836,-324.633
 L 91.6837,-324.522 L 91.5249,-324.422 L 91.36,-324.331 L 91.1897,-324.251 L 91.0147,-324.182 L 90.8357,-324.123
 L 90.6535,-324.077 L 90.4686,-324.041 L 90.2819,-324.018 L 90.0941,-324.006 z
M 97.4435,-325.204 L 97.387,-325.204 L 97.3308,-325.211 L 97.2744,-325.214 L 97.2188,-325.225 L 97.1627,-325.232
 L 97.1079,-325.246 L 97.0524,-325.257 L 97,-325.274 L 97,-325.274 L 96.9438,-325.288 L 96.7336,-325.371
 L 96.5355,-325.48 L 96.3526,-325.613 L 96.1879,-325.768 L 96.0438,-325.942 L 95.9226,-326.133 L 95.8264,-326.337
 L 95.7565,-326.552 L 95.7142,-326.774 L 95.7,-327 L 95.7142,-327.226 L 95.7565,-327.448 L 95.8264,-327.663
 L 95.9226,-327.867 L 96.0438,-328.058 L 96.1879,-328.232 L 96.3526,-328.387 L 96.5355,-328.52 L 96.7336,-328.629
 L 96.9438,-328.712 L 97,-328.726 L 97,-328.726 L 97.0524,-328.743 L 97.1079,-328.754 L 97.1627,-328.768
 L 97.2188,-328.775 L 97.2744,-328.786 L 97.3308,-328.789 L 97.387,-328.796 L 97.4435,-328.796 L 97.5,-328.8
 L 97.5564,-328.796 L 97.613,-328.796 L 97.6691,-328.789 L 97.7256,-328.786 L 97.7812,-328.775 L 97.8373,-328.768
 L 97.8921,-328.754 L 97.9476,-328.743 L 98.0014,-328.726 L 98.0562,-328.712 L 98.1088,-328.691 L 98.1626,-328.674
 L 98.2138,-328.65 L 98.2664,-328.629 L 98.316,-328.601 L 98.3672,-328.577 L 98.4149,-328.547 L 98.4645,-328.52
 L 98.5103,-328.487 L 98.558,-328.456 L 98.6016,-328.42 L 98.6474,-328.387 L 98.6886,-328.348 L 98.7322,-328.312
 L 98.7709,-328.271 L 98.8121,-328.232 L 98.8482,-328.189 L 98.8869,-328.147 L 98.9202,-328.102 L 98.9562,-328.058
 L 98.9865,-328.01 L 99.0198,-327.964 L 99.047,-327.915 L 99.0773,-327.867 L 99.1014,-327.816 L 99.1287,-327.766
 L 99.1495,-327.714 L 99.1736,-327.663 L 99.1911,-327.609 L 99.2119,-327.556 L 99.226,-327.501 L 99.2434,-327.448
 L 99.254,-327.392 L 99.2681,-327.337 L 99.2752,-327.281 L 99.2858,-327.226 L 99.2894,-327.169 L 99.2964,-327.113
 L 99.2964,-327.056 L 99.3,-327 L 99.2964,-326.944 L 99.2964,-326.887 L 99.2894,-326.831 L 99.2858,-326.774
 L 99.2752,-326.719 L 99.2681,-326.663 L 99.254,-326.608 L 99.2434,-326.552 L 99.226,-326.499 L 99.2119,-326.444
 L 99.1911,-326.391 L 99.1736,-326.337 L 99.1495,-326.286 L 99.1287,-326.234 L 99.1014,-326.184 L 99.0773,-326.133
 L 99.047,-326.085 L 99.0198,-326.036 L 98.9865,-325.99 L 98.9562,-325.942 L 98.9202,-325.898 L 98.8869,-325.853
 L 98.8482,-325.811 L 98.8121,-325.768 L 98.7709,-325.729 L 98.7322,-325.688 L 98.6886,-325.652 L 98.6474,-325.613
 L 98.6016,-325.58 L 98.558,-325.544 L 98.5103,-325.513 L 98.4645,-325.48 L 98.4149,-325.453 L 98.3672,-325.423
 L 98.316,-325.399 L 98.2664,-325.371 L 98.2138,-325.35 L 98.1626,-325.326 L 98.1088,-325.309 L 98.0562,-325.288
 L 98.0014,-325.274 L 97.9476,-325.257 L 97.8921,-325.246 L 97.8373,-325.232 L 97.7812,-325.225 L 97.7256,-325.214
 L 97.6691,-325.211 L 97.613,-325.204 L 97.5564,-325.204 L 97.5,-325.2 z
M 89.887,-317.704 L 89.6627,-317.732 L 89.4438,-317.788 L 89.2336,-317.871 L 89.0355,-317.98 L 88.8526,-318.113
 L 88.6879,-318.268 L 88.5438,-318.442 L 88.4226,-318.633 L 88.3264,-318.837 L 88.2565,-319.052 L 88.2142,-319.274
 L 88.2,-319.5 L 88.2142,-319.726 L 88.2565,-319.948 L 88.3264,-320.163 L 88.4226,-320.367 L 88.5438,-320.558
 L 88.6879,-320.732 L 88.8526,-320.887 L 89.0355,-321.02 L 89.2336,-321.129 L 89.4438,-321.212 L 89.6627,-321.268
 L 89.887,-321.296 L 90.113,-321.296 L 90.3373,-321.268 L 90.5562,-321.212 L 90.7664,-321.129 L 90.9645,-321.02
 L 91.1474,-320.887 L 91.3121,-320.732 L 91.4562,-320.558 L 91.5773,-320.367 L 91.6736,-320.163 L 91.7434,-319.948
 L 91.7858,-319.726 L 91.8,-319.5 L 91.7858,-319.274 L 91.7434,-319.052 L 91.6736,-318.837 L 91.5773,-318.633
 L 91.4562,-318.442 L 91.3121,-318.268 L 91.1474,-318.113 L 90.9645,-317.98 L 90.7664,-317.871 L 90.5562,-317.788
 L 90.3373,-317.732 L 90.113,-317.704 z
M 125.506,-334 L 121.994,-334 L 121.994,-320 L 125.506,-320 z
M 7,-314 L 6.96057,-314.627 L 6.84291,-315.243 L 6.64888,-315.841 L 6.38153,-316.409 L 6.04507,-316.939
 L 5.64484,-317.423 L 5.18712,-317.853 L 4.67912,-318.222 L 4.12889,-318.524 L 3.54507,-318.755 L 2.9369,-318.911
 L 2.31395,-318.99 L -2.31395,-318.99 L -2.9369,-318.911 L -3.54507,-318.755 L -4.12889,-318.524 L -4.67912,-318.222
 L -5.18712,-317.853 L -5.64484,-317.423 L -6.04507,-316.939 L -6.38153,-316.409 L -6.64888,-315.841 L -6.84291,-315.243
 L -6.96057,-314.627 L -7,-314 L -7,-298.994 L 7,-298.994 z
M -0.194641,-308.906 L -0.580872,-308.955 L -0.957947,-309.052 L -1.3199,-309.195 L -1.66106,-309.383 L -1.97601,-309.611
 L -2.2598,-309.878 L -2.50795,-310.178 L -2.71654,-310.507 L -2.88229,-310.859 L -3.00259,-311.229 L -3.07555,-311.611
 L -3.09999,-312 L -3.07555,-312.389 L -3.00259,-312.771 L -2.88229,-313.141 L -2.71654,-313.493 L -2.50795,-313.822
 L -2.2598,-314.122 L -1.97601,-314.389 L -1.66106,-314.617 L -1.3199,-314.805 L -0.957947,-314.948 L -0.580872,-315.045
 L -0.194641,-315.094 L 0.194641,-315.094 L 0.580872,-315.045 L 0.957947,-314.948 L 1.3199,-314.805 L 1.66106,-314.617
 L 1.97601,-314.389 L 2.2598,-314.122 L 2.50795,-313.822 L 2.71654,-313.493 L 2.88229,-313.141 L 3.00259,-312.771
 L 3.07555,-312.389 L 3.09999,-312 L 3.07555,-311.611 L 3.00259,-311.229 L 2.88229,-310.859 L 2.71654,-310.507
 L 2.50795,-310.178 L 2.2598,-309.878 L 1.97601,-309.611 L 1.66106,-309.383 L 1.3199,-309.195 L 0.957947,-309.052
 L 0.580872,-308.955 L 0.194641,-308.906 z
M -0.113022,-302.704 L -0.33728,-302.732 L -0.556229,-302.788 L -0.766388,-302.871 L -0.964478,-302.98 L -1.14735,-303.113
 L -1.31213,-303.268 L -1.45622,-303.442 L -1.57735,-303.633 L -1.67358,-303.837 L -1.74344,-304.052 L -1.7858,-304.274
 L -1.79999,-304.5 L -1.7858,-304.726 L -1.74344,-304.948 L -1.67358,-305.163 L -1.57735,-305.367 L -1.45622,-305.558
 L -1.31213,-305.732 L -1.14735,-305.887 L -0.964478,-306.02 L -0.766388,-306.129 L -0.556229,-306.212 L -0.33728,-306.268
 L -0.113022,-306.296 L 0.113022,-306.296 L 0.33728,-306.268 L 0.556229,-306.212 L 0.766388,-306.129 L 0.964478,-306.02
 L 1.14735,-305.887 L 1.31213,-305.732 L 1.45622,-305.558 L 1.57735,-305.367 L 1.67358,-305.163 L 1.74344,-304.948
 L 1.7858,-304.726 L 1.79999,-304.5 L 1.7858,-304.274 L 1.74344,-304.052 L 1.67358,-303.837 L 1.57735,-303.633
 L 1.45622,-303.442 L 1.31213,-303.268 L 1.14735,-303.113 L 0.964478,-302.98 L 0.766388,-302.871 L 0.556229,-302.788
 L 0.33728,-302.732 L 0.113022,-302.704 z
M 97,-310.006 L 83,-310.006 L 83,-306.494 L 97,-306.494 z
M 97,-302.506 L 83,-302.506 L 83,-298.994 L 97,-298.994 z
M 7,-295.006 L -7,-295.006 L -7,-291.494 L 7,-291.494 z
M 97,-295.006 L 83,-295.006 L 83,-291.494 L 97,-291.494 z
M 7,-287.506 L -7,-287.506 L -7,-283.994 L 7,-283.994 z
M 97,-287.506 L 83,-287.506 L 83,-283.994 L 97,-283.994 z
M 92.9369,-260.089 L 93.5451,-260.245 L 94.1289,-260.476 L 94.6791,-260.778 L 95.1871,-261.147 L 95.6448,-261.577
 L 96.0451,-262.061 L 96.3815,-262.591 L 96.6489,-263.159 L 96.8429,-263.757 L 96.9606,-264.373 L 97,-265
 L 97,-280.006 L 83,-280.006 L 83,-265 L 83.0394,-264.373 L 83.1571,-263.757 L 83.3511,-263.159
 L 83.6185,-262.591 L 83.9549,-262.061 L 84.3551,-261.577 L 84.8129,-261.147 L 85.3209,-260.778 L 85.8711,-260.476
 L 86.4549,-260.245 L 87.0631,-260.089 L 87.6861,-260.01 L 92.3139,-260.01 z
M 89.887,-272.704 L 89.6627,-272.732 L 89.4438,-272.788 L 89.2336,-272.871 L 89.0355,-272.98 L 88.8526,-273.113
 L 88.6879,-273.268 L 88.5438,-273.442 L 88.4226,-273.633 L 88.3264,-273.837 L 88.2565,-274.052 L 88.2142,-274.274
 L 88.2,-274.5 L 88.2142,-274.726 L 88.2565,-274.948 L 88.3264,-275.163 L 88.4226,-275.367 L 88.5438,-275.558
 L 88.6879,-275.732 L 88.8526,-275.887 L 89.0355,-276.02 L 89.2336,-276.129 L 89.4438,-276.212 L 89.6627,-276.268
 L 89.887,-276.296 L 90.113,-276.296 L 90.3373,-276.268 L 90.5562,-276.212 L 90.7664,-276.129 L 90.9645,-276.02
 L 91.1474,-275.887 L 91.3121,-275.732 L 91.4562,-275.558 L 91.5773,-275.367 L 91.6736,-275.163 L 91.7434,-274.948
 L 91.7858,-274.726 L 91.8,-274.5 L 91.7858,-274.274 L 91.7434,-274.052 L 91.6736,-273.837 L 91.5773,-273.633
 L 91.4562,-273.442 L 91.3121,-273.268 L 91.1474,-273.113 L 90.9645,-272.98 L 90.7664,-272.871 L 90.5562,-272.788
 L 90.3373,-272.732 L 90.113,-272.704 z
M 89.8116,-264.006 L 89.4379,-264.053 L 89.073,-264.147 L 88.7227,-264.286 L 88.3925,-264.467 L 88.0877,-264.688
 L 87.8131,-264.946 L 87.573,-265.237 L 87.3711,-265.555 L 87.2107,-265.896 L 87.0943,-266.254 L 87.0237,-266.624
 L 87,-267 L 87.0237,-267.376 L 87.0943,-267.746 L 87.2107,-268.104 L 87.3711,-268.445 L 87.573,-268.763
 L 87.8131,-269.054 L 88.0877,-269.312 L 88.3925,-269.533 L 88.7227,-269.714 L 89.073,-269.853 L 89.4379,-269.947
 L 89.8116,-269.994 L 90.1884,-269.994 L 90.5621,-269.947 L 90.927,-269.853 L 91.2773,-269.714 L 91.6075,-269.533
 L 91.9123,-269.312 L 92.1869,-269.054 L 92.427,-268.763 L 92.6289,-268.445 L 92.7893,-268.104 L 92.9057,-267.746
 L 92.9763,-267.376 L 93,-267 L 92.9763,-266.624 L 92.9057,-266.254 L 92.7893,-265.896 L 92.6289,-265.555
 L 92.427,-265.237 L 92.1869,-264.946 L 91.9123,-264.688 L 91.6075,-264.467 L 91.2773,-264.286 L 90.927,-264.147
 L 90.5621,-264.053 L 90.1884,-264.006 z
M 7,-280.006 L -7,-280.006 L -7,-276.494 L 7,-276.494 z
M 7,-272.506 L -7,-272.506 L -7,-268.994 L 7,-268.994 z
M 13.0057,-259 L 7,-259 L 7,-265.006 L -7,-265.006 L -7,-250 L -6.99013,-249.843
 L -6.99013,-249.686 L -6.97043,-249.53 L -6.96057,-249.373 L -6.93112,-249.219 L -6.91142,-249.063 L -6.87234,-248.911
 L -6.84291,-248.757 L -6.79436,-248.607 L -6.75528,-248.455 L -6.69743,-248.309 L -6.64888,-248.159 L -6.58197,-248.017
 L -6.52412,-247.871 L -6.44843,-247.733 L -6.38153,-247.591 L -6.29733,-247.459 L -6.22163,-247.321 L -6.12927,-247.194
 L -6.04507,-247.061 L -5.94492,-246.94 L -5.85255,-246.813 L -5.745,-246.698 L -5.64484,-246.577 L -5.53029,-246.47
 L -5.42273,-246.355 L -5.30165,-246.255 L -5.18712,-246.147 L -5.06,-246.055 L -4.93892,-245.955 L -4.80624,-245.871
 L -4.67912,-245.778 L -4.54143,-245.703 L -4.40877,-245.618 L -4.26659,-245.552 L -4.12889,-245.476 L -3.98279,-245.418
 L -3.84062,-245.351 L -3.69118,-245.303 L -3.54507,-245.245 L -3.39288,-245.206 L -3.24344,-245.157 L -3.0891,-245.128
 L -2.9369,-245.089 L -2.78101,-245.069 L -2.62666,-245.039 L -2.46983,-245.03 L -2.31395,-245.01 L -2.15681,-245.01
 L -2,-245 L 13.0057,-245 z
M -0.113022,-257.704 L -0.33728,-257.732 L -0.556229,-257.788 L -0.766388,-257.871 L -0.964478,-257.98 L -1.14735,-258.113
 L -1.31213,-258.268 L -1.45622,-258.442 L -1.57735,-258.633 L -1.67358,-258.837 L -1.74344,-259.052 L -1.7858,-259.274
 L -1.79999,-259.5 L -1.7858,-259.726 L -1.74344,-259.948 L -1.67358,-260.163 L -1.57735,-260.367 L -1.45622,-260.558
 L -1.31213,-260.732 L -1.14735,-260.887 L -0.964478,-261.02 L -0.766388,-261.129 L -0.556229,-261.212 L -0.33728,-261.268
 L -0.113022,-261.296 L 0.113022,-261.296 L 0.33728,-261.268 L 0.556229,-261.212 L 0.766388,-261.129 L 0.964478,-261.02
 L 1.14735,-260.887 L 1.31213,-260.732 L 1.45622,-260.558 L 1.57735,-260.367 L 1.67358,-260.163 L 1.74344,-259.948
 L 1.7858,-259.726 L 1.79999,-259.5 L 1.7858,-259.274 L 1.74344,-259.052 L 1.67358,-258.837 L 1.57735,-258.633
 L 1.45622,-258.442 L 1.31213,-258.268 L 1.14735,-258.113 L 0.964478,-257.98 L 0.766388,-257.871 L 0.556229,-257.788
 L 0.33728,-257.732 L 0.113022,-257.704 z
M -0.097229,-248.906 L -0.29129,-248.918 L -0.484222,-248.943 L -0.675232,-248.979 L -0.863571,-249.027 L -1.04854,-249.088
 L -1.22932,-249.159 L -1.40527,-249.242 L -1.57568,-249.336 L -1.73987,-249.44 L -1.89719,-249.554 L -2.04703,-249.678
 L -2.18878,-249.811 L -2.3219,-249.953 L -2.44585,-250.103 L -2.56015,-250.26 L -2.66434,-250.424 L -2.75803,-250.595
 L -2.84082,-250.771 L -2.9124,-250.951 L -2.9725,-251.136 L -3.02086,-251.325 L -3.0573,-251.516 L -3.08167,-251.709
 L -3.09387,-251.903 L -3.09387,-252.097 L -3.08167,-252.291 L -3.0573,-252.484 L -3.02086,-252.675 L -2.9725,-252.864
 L -2.9124,-253.049 L -2.84082,-253.229 L -2.75803,-253.405 L -2.66434,-253.576 L -2.56015,-253.74 L -2.44585,-253.897
 L -2.3219,-254.047 L -2.18878,-254.189 L -2.04703,-254.322 L -1.89719,-254.446 L -1.73987,-254.56 L -1.57568,-254.664
 L -1.40527,-254.758 L -1.22932,-254.841 L -1.04854,-254.912 L -0.863571,-254.973 L -0.675232,-255.021 L -0.484222,-255.057
 L -0.29129,-255.082 L -0.097229,-255.094 L 0.097229,-255.094 L 0.29129,-255.082 L 0.484222,-255.057 L 0.675232,-255.021
 L 0.863571,-254.973 L 1.04854,-254.912 L 1.22932,-254.841 L 1.40527,-254.758 L 1.57568,-254.664 L 1.73987,-254.56
 L 1.89719,-254.446 L 2.04703,-254.322 L 2.18878,-254.189 L 2.3219,-254.047 L 2.44585,-253.897 L 2.56015,-253.74
 L 2.66434,-253.576 L 2.75803,-253.405 L 2.84082,-253.229 L 2.9124,-253.049 L 2.9725,-252.864 L 3.02086,-252.675
 L 3.0573,-252.484 L 3.08167,-252.291 L 3.09387,-252.097 L 3.09387,-251.903 L 3.08167,-251.709 L 3.0573,-251.516
 L 3.02086,-251.325 L 2.9725,-251.136 L 2.9124,-250.951 L 2.84082,-250.771 L 2.75803,-250.595 L 2.66434,-250.424
 L 2.56015,-250.26 L 2.44585,-250.103 L 2.3219,-249.953 L 2.18878,-249.811 L 2.04703,-249.678 L 1.89719,-249.554
 L 1.73987,-249.44 L 1.57568,-249.336 L 1.40527,-249.242 L 1.22932,-249.159 L 1.04854,-249.088 L 0.863571,-249.027
 L 0.675232,-248.979 L 0.484222,-248.943 L 0.29129,-248.918 L 0.097229,-248.906 z
M 7.44354,-250.204 L 7.38696,-250.204 L 7.33084,-250.211 L 7.2744,-250.214 L 7.21884,-250.225 L 7.1627,-250.232
 L 7.10791,-250.246 L 7.05235,-250.257 L 7,-250.274 L 7,-250.274 L 6.94376,-250.288 L 6.7336,-250.371
 L 6.53551,-250.48 L 6.35263,-250.613 L 6.18785,-250.768 L 6.04376,-250.942 L 5.92264,-251.133 L 5.8264,-251.337
 L 5.75655,-251.552 L 5.71419,-251.774 L 5.7,-252 L 5.71419,-252.226 L 5.75655,-252.448 L 5.8264,-252.663
 L 5.92264,-252.867 L 6.04376,-253.058 L 6.18785,-253.232 L 6.35263,-253.387 L 6.53551,-253.52 L 6.7336,-253.629
 L 6.94376,-253.712 L 7,-253.726 L 7,-253.726 L 7.05235,-253.743 L 7.10791,-253.754 L 7.1627,-253.768
 L 7.21884,-253.775 L 7.2744,-253.786 L 7.33084,-253.789 L 7.38696,-253.796 L 7.44354,-253.796 L 7.5,-253.8
 L 7.55644,-253.796 L 7.61302,-253.796 L 7.66914,-253.789 L 7.72559,-253.786 L 7.78114,-253.775 L 7.83728,-253.768
 L 7.89207,-253.754 L 7.94763,-253.743 L 8.00142,-253.726 L 8.05623,-253.712 L 8.10883,-253.691 L 8.16261,-253.674
 L 8.21381,-253.65 L 8.26639,-253.629 L 8.31596,-253.601 L 8.36714,-253.577 L 8.41492,-253.547 L 8.46448,-253.52
 L 8.51025,-253.487 L 8.558,-253.456 L 8.60159,-253.42 L 8.64735,-253.387 L 8.6886,-253.348 L 8.73218,-253.312
 L 8.7709,-253.271 L 8.81213,-253.232 L 8.84819,-253.189 L 8.88692,-253.147 L 8.92017,-253.102 L 8.95622,-253.058
 L 8.98653,-253.01 L 9.01978,-252.964 L 9.04703,-252.915 L 9.07735,-252.867 L 9.10143,-252.816 L 9.12868,-252.766
 L 9.14951,-252.714 L 9.17358,-252.663 L 9.19107,-252.609 L 9.2119,-252.556 L 9.22597,-252.501 L 9.24344,-252.448
 L 9.25404,-252.392 L 9.26811,-252.337 L 9.27521,-252.281 L 9.2858,-252.226 L 9.28935,-252.169 L 9.29645,-252.113
 L 9.29645,-252.056 L 9.29999,-252 L 9.29645,-251.944 L 9.29645,-251.887 L 9.28935,-251.831 L 9.2858,-251.774
 L 9.27521,-251.719 L 9.26811,-251.663 L 9.25404,-251.608 L 9.24344,-251.552 L 9.22597,-251.499 L 9.2119,-251.444
 L 9.19107,-251.391 L 9.17358,-251.337 L 9.14951,-251.286 L 9.12868,-251.234 L 9.10143,-251.184 L 9.07735,-251.133
 L 9.04703,-251.085 L 9.01978,-251.036 L 8.98653,-250.99 L 8.95622,-250.942 L 8.92017,-250.898 L 8.88692,-250.853
 L 8.84819,-250.811 L 8.81213,-250.768 L 8.7709,-250.729 L 8.73218,-250.688 L 8.6886,-250.652 L 8.64735,-250.613
 L 8.60159,-250.58 L 8.558,-250.544 L 8.51025,-250.513 L 8.46448,-250.48 L 8.41492,-250.453 L 8.36714,-250.423
 L 8.31596,-250.399 L 8.26639,-250.371 L 8.21381,-250.35 L 8.16261,-250.326 L 8.10883,-250.309 L 8.05623,-250.288
 L 8.00142,-250.274 L 7.94763,-250.257 L 7.89207,-250.246 L 7.83728,-250.232 L 7.78114,-250.225 L 7.72559,-250.214
 L 7.66914,-250.211 L 7.61302,-250.204 L 7.55644,-250.204 L 7.5,-250.2 z
M 62.6267,-245.039 L 63.2434,-245.157 L 63.8406,-245.351 L 64.4088,-245.618 L 64.9389,-245.955 L 65.4227,-246.355
 L 65.8526,-246.813 L 66.2216,-247.321 L 66.5241,-247.871 L 66.7553,-248.455 L 66.9114,-249.063 L 66.9901,-249.686
 L 66.9901,-254.314 L 66.9114,-254.937 L 66.7553,-255.545 L 66.5241,-256.129 L 66.2216,-256.679 L 65.8526,-257.187
 L 65.4227,-257.645 L 64.9389,-258.045 L 64.4088,-258.382 L 63.8406,-258.649 L 63.2434,-258.843 L 62.6267,-258.961
 L 62,-259 L 46.9942,-259 L 46.9942,-245 L 62,-245 z
M 59.6115,-248.924 L 59.229,-248.997 L 58.8588,-249.118 L 58.5066,-249.283 L 58.1779,-249.492 L 57.8779,-249.74
 L 57.6114,-250.024 L 57.3826,-250.339 L 57.195,-250.68 L 57.0517,-251.042 L 56.9549,-251.419 L 56.9061,-251.805
 L 56.9061,-252.195 L 56.9549,-252.581 L 57.0517,-252.958 L 57.195,-253.32 L 57.3826,-253.661 L 57.6114,-253.976
 L 57.8779,-254.26 L 58.1779,-254.508 L 58.5066,-254.717 L 58.8588,-254.882 L 59.229,-255.003 L 59.6115,-255.076
 L 60,-255.1 L 60.3885,-255.076 L 60.7709,-255.003 L 61.1412,-254.882 L 61.4934,-254.717 L 61.8221,-254.508
 L 62.1221,-254.26 L 62.3886,-253.976 L 62.6174,-253.661 L 62.805,-253.32 L 62.9483,-252.958 L 63.0451,-252.581
 L 63.0939,-252.195 L 63.0939,-251.805 L 63.0451,-251.419 L 62.9483,-251.042 L 62.805,-250.68 L 62.6174,-250.339
 L 62.3886,-250.024 L 62.1221,-249.74 L 61.8221,-249.492 L 61.4934,-249.283 L 61.1412,-249.118 L 60.7709,-248.997
 L 60.3885,-248.924 L 60,-248.9 z
M 52.2744,-250.214 L 52.0524,-250.257 L 51.8374,-250.326 L 51.6328,-250.423 L 51.442,-250.544 L 51.2678,-250.688
 L 51.1131,-250.853 L 50.9802,-251.036 L 50.8713,-251.234 L 50.7881,-251.444 L 50.7319,-251.663 L 50.7036,-251.887
 L 50.7036,-252.113 L 50.7319,-252.337 L 50.7881,-252.556 L 50.8713,-252.766 L 50.9802,-252.964 L 51.1131,-253.147
 L 51.2678,-253.312 L 51.442,-253.456 L 51.6328,-253.577 L 51.8374,-253.674 L 52.0524,-253.743 L 52.2744,-253.786
 L 52.5,-253.8 L 52.7256,-253.786 L 52.9476,-253.743 L 53.1626,-253.674 L 53.3672,-253.577 L 53.558,-253.456
 L 53.7322,-253.312 L 53.8869,-253.147 L 54.0198,-252.964 L 54.1287,-252.766 L 54.2119,-252.556 L 54.2681,-252.337
 L 54.2964,-252.113 L 54.2964,-251.887 L 54.2681,-251.663 L 54.2119,-251.444 L 54.1287,-251.234 L 54.0198,-251.036
 L 53.8869,-250.853 L 53.7322,-250.688 L 53.558,-250.544 L 53.3672,-250.423 L 53.1626,-250.326 L 52.9476,-250.257
 L 52.7256,-250.214 L 52.5,-250.2 z
M 43.0057,-259 L 39.4942,-259 L 39.4942,-245 L 43.0057,-245 z
M 35.5057,-259 L 31.9942,-259 L 31.9942,-245 L 35.5057,-245 z
M 28.0057,-259 L 24.4942,-259 L 24.4942,-245 L 28.0057,-245 z
M 20.5057,-259 L 16.9942,-259 L 16.9942,-245 L 20.5057,-245 z
M 92.9369,-176.089 L 93.5451,-176.245 L 94.1289,-176.476 L 94.6791,-176.778 L 95.1871,-177.147 L 95.6448,-177.577
 L 96.0451,-178.061 L 96.3815,-178.591 L 96.6489,-179.159 L 96.8429,-179.757 L 96.9606,-180.373 L 97,-181
 L 97,-236 L 152,-236 L 152.627,-236.039 L 153.243,-236.157 L 153.841,-236.351 L 154.409,-236.618
 L 154.939,-236.955 L 155.423,-237.355 L 155.853,-237.813 L 156.222,-238.321 L 156.524,-238.871 L 156.755,-239.455
 L 156.911,-240.063 L 156.99,-240.686 L 156.99,-245.314 L 156.911,-245.937 L 156.755,-246.545 L 156.524,-247.129
 L 156.222,-247.679 L 155.853,-248.187 L 155.423,-248.645 L 154.939,-249.045 L 154.409,-249.382 L 153.841,-249.649
 L 153.243,-249.843 L 152.627,-249.961 L 152,-250 L 88,-250 L 87.8432,-249.99 L 87.6861,-249.99
 L 87.5302,-249.97 L 87.3733,-249.961 L 87.219,-249.931 L 87.0631,-249.911 L 86.9109,-249.872 L 86.7565,-249.843
 L 86.6071,-249.794 L 86.4549,-249.755 L 86.3088,-249.697 L 86.1594,-249.649 L 86.0172,-249.582 L 85.8711,-249.524
 L 85.7334,-249.448 L 85.5912,-249.382 L 85.4586,-249.297 L 85.3209,-249.222 L 85.1937,-249.129 L 85.0611,-249.045
 L 84.94,-248.945 L 84.8129,-248.853 L 84.6983,-248.745 L 84.5773,-248.645 L 84.4697,-248.53 L 84.3551,-248.423
 L 84.255,-248.302 L 84.1474,-248.187 L 84.0551,-248.06 L 83.9549,-247.939 L 83.8707,-247.806 L 83.7784,-247.679
 L 83.7027,-247.541 L 83.6185,-247.409 L 83.5516,-247.267 L 83.4759,-247.129 L 83.418,-246.983 L 83.3511,-246.841
 L 83.3026,-246.691 L 83.2447,-246.545 L 83.2056,-246.393 L 83.1571,-246.243 L 83.1276,-246.089 L 83.0886,-245.937
 L 83.0689,-245.781 L 83.0394,-245.627 L 83.0296,-245.47 L 83.0099,-245.314 L 83.0099,-245.157 L 83,-245
 L 83,-181 L 83.0394,-180.373 L 83.1571,-179.757 L 83.3511,-179.159 L 83.6185,-178.591 L 83.9549,-178.061
 L 84.3551,-177.577 L 84.8129,-177.147 L 85.3209,-176.778 L 85.8711,-176.476 L 86.4549,-176.245 L 87.0631,-176.089
 L 87.6861,-176.01 L 92.3139,-176.01 z
M 149.624,-240.024 L 149.254,-240.094 L 148.896,-240.211 L 148.555,-240.371 L 148.237,-240.573 L 147.946,-240.813
 L 147.688,-241.088 L 147.467,-241.393 L 147.286,-241.723 L 147.147,-242.073 L 147.053,-242.438 L 147.006,-242.812
 L 147.006,-243.188 L 147.053,-243.562 L 147.147,-243.927 L 147.286,-244.277 L 147.467,-244.607 L 147.688,-244.912
 L 147.946,-245.187 L 148.237,-245.427 L 148.555,-245.629 L 148.896,-245.789 L 149.254,-245.906 L 149.624,-245.976
 L 150,-246 L 150.376,-245.976 L 150.746,-245.906 L 151.104,-245.789 L 151.445,-245.629 L 151.763,-245.427
 L 152.054,-245.187 L 152.312,-244.912 L 152.533,-244.607 L 152.714,-244.277 L 152.853,-243.927 L 152.947,-243.562
 L 152.994,-243.188 L 152.994,-242.812 L 152.947,-242.438 L 152.853,-242.073 L 152.714,-241.723 L 152.533,-241.393
 L 152.312,-241.088 L 152.054,-240.813 L 151.763,-240.573 L 151.445,-240.371 L 151.104,-240.211 L 150.746,-240.094
 L 150.376,-240.024 L 150,-240 z
M 89.9059,-240.006 L 89.7181,-240.018 L 89.5314,-240.041 L 89.3465,-240.077 L 89.1643,-240.123 L 88.9853,-240.182
 L 88.8103,-240.251 L 88.64,-240.331 L 88.4751,-240.422 L 88.3162,-240.522 L 88.164,-240.633 L 88.019,-240.753
 L 87.8818,-240.882 L 87.753,-241.019 L 87.633,-241.164 L 87.5224,-241.316 L 87.4216,-241.475 L 87.3309,-241.64
 L 87.2508,-241.81 L 87.1815,-241.985 L 87.1234,-242.164 L 87.0766,-242.347 L 87.0413,-242.531 L 87.0177,-242.718
 L 87.0059,-242.906 L 87.0059,-243.094 L 87.0177,-243.282 L 87.0413,-243.469 L 87.0766,-243.653 L 87.1234,-243.836
 L 87.1815,-244.015 L 87.2508,-244.19 L 87.3309,-244.36 L 87.4216,-244.525 L 87.5224,-244.684 L 87.633,-244.836
 L 87.753,-244.981 L 87.8818,-245.118 L 88.019,-245.247 L 88.164,-245.367 L 88.3163,-245.478 L 88.4751,-245.578
 L 88.64,-245.669 L 88.8103,-245.749 L 88.9853,-245.818 L 89.1643,-245.877 L 89.3465,-245.923 L 89.5314,-245.959
 L 89.7181,-245.982 L 89.9059,-245.994 L 90.0941,-245.994 L 90.2819,-245.982 L 90.4686,-245.959 L 90.6535,-245.923
 L 90.8357,-245.877 L 91.0147,-245.818 L 91.1897,-245.749 L 91.3599,-245.669 L 91.5249,-245.578 L 91.6837,-245.478
 L 91.836,-245.367 L 91.981,-245.247 L 92.1182,-245.118 L 92.247,-244.981 L 92.367,-244.836 L 92.4776,-244.684
 L 92.5784,-244.525 L 92.6691,-244.36 L 92.7492,-244.19 L 92.8185,-244.015 L 92.8766,-243.836 L 92.9234,-243.653
 L 92.9587,-243.469 L 92.9823,-243.282 L 92.9941,-243.094 L 92.9941,-242.906 L 92.9823,-242.718 L 92.9587,-242.531
 L 92.9234,-242.347 L 92.8766,-242.164 L 92.8185,-241.985 L 92.7492,-241.81 L 92.6691,-241.64 L 92.5784,-241.475
 L 92.4776,-241.316 L 92.367,-241.164 L 92.247,-241.019 L 92.1182,-240.882 L 91.981,-240.753 L 91.836,-240.633
 L 91.6837,-240.522 L 91.5249,-240.422 L 91.36,-240.331 L 91.1897,-240.251 L 91.0147,-240.182 L 90.8357,-240.123
 L 90.6535,-240.077 L 90.4686,-240.041 L 90.2819,-240.018 L 90.0941,-240.006 z
M 97.4435,-241.204 L 97.387,-241.204 L 97.3308,-241.211 L 97.2744,-241.214 L 97.2188,-241.225 L 97.1627,-241.232
 L 97.1079,-241.246 L 97.0524,-241.257 L 97,-241.274 L 97,-241.274 L 96.9438,-241.288 L 96.7336,-241.371
 L 96.5355,-241.48 L 96.3526,-241.613 L 96.1879,-241.768 L 96.0438,-241.942 L 95.9226,-242.133 L 95.8264,-242.337
 L 95.7565,-242.552 L 95.7142,-242.774 L 95.7,-243 L 95.7142,-243.226 L 95.7565,-243.448 L 95.8264,-243.663
 L 95.9226,-243.867 L 96.0438,-244.058 L 96.1879,-244.232 L 96.3526,-244.387 L 96.5355,-244.52 L 96.7336,-244.629
 L 96.9438,-244.712 L 97,-244.726 L 97,-244.726 L 97.0524,-244.743 L 97.1079,-244.754 L 97.1627,-244.768
 L 97.2188,-244.775 L 97.2744,-244.786 L 97.3308,-244.789 L 97.387,-244.796 L 97.4435,-244.796 L 97.5,-244.8
 L 97.5564,-244.796 L 97.613,-244.796 L 97.6691,-244.789 L 97.7256,-244.786 L 97.7812,-244.775 L 97.8373,-244.768
 L 97.8921,-244.754 L 97.9476,-244.743 L 98.0014,-244.726 L 98.0562,-244.712 L 98.1088,-244.691 L 98.1626,-244.674
 L 98.2138,-244.65 L 98.2664,-244.629 L 98.316,-244.601 L 98.3672,-244.577 L 98.4149,-244.547 L 98.4645,-244.52
 L 98.5103,-244.487 L 98.558,-244.456 L 98.6016,-244.42 L 98.6474,-244.387 L 98.6886,-244.348 L 98.7322,-244.312
 L 98.7709,-244.271 L 98.8121,-244.232 L 98.8482,-244.189 L 98.8869,-244.147 L 98.9202,-244.102 L 98.9562,-244.058
 L 98.9865,-244.01 L 99.0198,-243.964 L 99.047,-243.915 L 99.0773,-243.867 L 99.1014,-243.816 L 99.1287,-243.766
 L 99.1495,-243.714 L 99.1736,-243.663 L 99.1911,-243.609 L 99.2119,-243.556 L 99.226,-243.501 L 99.2434,-243.448
 L 99.254,-243.392 L 99.2681,-243.337 L 99.2752,-243.281 L 99.2858,-243.226 L 99.2894,-243.169 L 99.2964,-243.113
 L 99.2964,-243.056 L 99.3,-243 L 99.2964,-242.944 L 99.2964,-242.887 L 99.2894,-242.831 L 99.2858,-242.774
 L 99.2752,-242.719 L 99.2681,-242.663 L 99.254,-242.608 L 99.2434,-242.552 L 99.226,-242.499 L 99.2119,-242.444
 L 99.1911,-242.391 L 99.1736,-242.337 L 99.1495,-242.286 L 99.1287,-242.234 L 99.1014,-242.184 L 99.0773,-242.133
 L 99.047,-242.085 L 99.0198,-242.036 L 98.9865,-241.99 L 98.9562,-241.942 L 98.9202,-241.898 L 98.8869,-241.853
 L 98.8482,-241.811 L 98.8121,-241.768 L 98.7709,-241.729 L 98.7322,-241.688 L 98.6886,-241.652 L 98.6474,-241.613
 L 98.6016,-241.58 L 98.558,-241.544 L 98.5103,-241.513 L 98.4645,-241.48 L 98.4149,-241.453 L 98.3672,-241.423
 L 98.316,-241.399 L 98.2664,-241.371 L 98.2138,-241.35 L 98.1626,-241.326 L 98.1088,-241.309 L 98.0562,-241.288
 L 98.0014,-241.274 L 97.9476,-241.257 L 97.8921,-241.246 L 97.8373,-241.232 L 97.7812,-241.225 L 97.7256,-241.214
 L 97.6691,-241.211 L 97.613,-241.204 L 97.5564,-241.204 L 97.5,-241.2 z
M 142.274,-241.214 L 142.052,-241.257 L 141.837,-241.326 L 141.633,-241.423 L 141.442,-241.544 L 141.268,-241.688
 L 141.113,-241.853 L 140.98,-242.036 L 140.871,-242.234 L 140.788,-242.444 L 140.732,-242.663 L 140.704,-242.887
 L 140.704,-243.113 L 140.732,-243.337 L 140.788,-243.556 L 140.871,-243.766 L 140.98,-243.964 L 141.113,-244.147
 L 141.268,-244.312 L 141.442,-244.456 L 141.633,-244.577 L 141.837,-244.674 L 142.052,-244.743 L 142.274,-244.786
 L 142.5,-244.8 L 142.726,-244.786 L 142.948,-244.743 L 143.163,-244.674 L 143.367,-244.577 L 143.558,-244.456
 L 143.732,-244.312 L 143.887,-244.147 L 144.02,-243.964 L 144.129,-243.766 L 144.212,-243.556 L 144.268,-243.337
 L 144.296,-243.113 L 144.296,-242.887 L 144.268,-242.663 L 144.212,-242.444 L 144.129,-242.234 L 144.02,-242.036
 L 143.887,-241.853 L 143.732,-241.688 L 143.558,-241.544 L 143.367,-241.423 L 143.163,-241.326 L 142.948,-241.257
 L 142.726,-241.214 L 142.5,-241.2 z
M 89.887,-233.704 L 89.6627,-233.732 L 89.4438,-233.788 L 89.2336,-233.871 L 89.0355,-233.98 L 88.8526,-234.113
 L 88.6879,-234.268 L 88.5438,-234.442 L 88.4226,-234.633 L 88.3264,-234.837 L 88.2565,-235.052 L 88.2142,-235.274
 L 88.2,-235.5 L 88.2142,-235.726 L 88.2565,-235.948 L 88.3264,-236.163 L 88.4226,-236.367 L 88.5438,-236.558
 L 88.6879,-236.732 L 88.8526,-236.887 L 89.0355,-237.02 L 89.2336,-237.129 L 89.4438,-237.212 L 89.6627,-237.268
 L 89.887,-237.296 L 90.113,-237.296 L 90.3373,-237.268 L 90.5562,-237.212 L 90.7664,-237.129 L 90.9645,-237.02
 L 91.1474,-236.887 L 91.3121,-236.732 L 91.4562,-236.558 L 91.5773,-236.367 L 91.6736,-236.163 L 91.7434,-235.948
 L 91.7858,-235.726 L 91.8,-235.5 L 91.7858,-235.274 L 91.7434,-235.052 L 91.6736,-234.837 L 91.5773,-234.633
 L 91.4562,-234.442 L 91.3121,-234.268 L 91.1474,-234.113 L 90.9645,-233.98 L 90.7664,-233.871 L 90.5562,-233.788
 L 90.3373,-233.732 L 90.113,-233.704 z
M 89.887,-188.704 L 89.6627,-188.732 L 89.4438,-188.788 L 89.2336,-188.871 L 89.0355,-188.98 L 88.8526,-189.113
 L 88.6879,-189.268 L 88.5438,-189.442 L 88.4226,-189.633 L 88.3264,-189.837 L 88.2565,-190.052 L 88.2142,-190.274
 L 88.2,-190.5 L 88.2142,-190.726 L 88.2565,-190.948 L 88.3264,-191.163 L 88.4226,-191.367 L 88.5438,-191.558
 L 88.6879,-191.732 L 88.8526,-191.887 L 89.0355,-192.02 L 89.2336,-192.129 L 89.4438,-192.212 L 89.6627,-192.268
 L 89.887,-192.296 L 90.113,-192.296 L 90.3373,-192.268 L 90.5562,-192.212 L 90.7664,-192.129 L 90.9645,-192.02
 L 91.1474,-191.887 L 91.3121,-191.732 L 91.4562,-191.558 L 91.5773,-191.367 L 91.6736,-191.163 L 91.7434,-190.948
 L 91.7858,-190.726 L 91.8,-190.5 L 91.7858,-190.274 L 91.7434,-190.052 L 91.6736,-189.837 L 91.5773,-189.633
 L 91.4562,-189.442 L 91.3121,-189.268 L 91.1474,-189.113 L 90.9645,-188.98 L 90.7664,-188.871 L 90.5562,-188.788
 L 90.3373,-188.732 L 90.113,-188.704 z
M 89.8116,-180.006 L 89.4379,-180.053 L 89.073,-180.147 L 88.7227,-180.286 L 88.3925,-180.467 L 88.0877,-180.688
 L 87.8131,-180.946 L 87.573,-181.237 L 87.3711,-181.555 L 87.2107,-181.896 L 87.0943,-182.254 L 87.0237,-182.624
 L 87,-183 L 87.0237,-183.376 L 87.0943,-183.746 L 87.2107,-184.104 L 87.3711,-184.445 L 87.573,-184.763
 L 87.8131,-185.054 L 88.0877,-185.312 L 88.3925,-185.533 L 88.7227,-185.714 L 89.073,-185.853 L 89.4379,-185.947
 L 89.8116,-185.994 L 90.1884,-185.994 L 90.5621,-185.947 L 90.927,-185.853 L 91.2773,-185.714 L 91.6075,-185.533
 L 91.9123,-185.312 L 92.1869,-185.054 L 92.427,-184.763 L 92.6289,-184.445 L 92.7893,-184.104 L 92.9057,-183.746
 L 92.9763,-183.376 L 93,-183 L 92.9763,-182.624 L 92.9057,-182.254 L 92.7893,-181.896 L 92.6289,-181.555
 L 92.427,-181.237 L 92.1869,-180.946 L 91.9123,-180.688 L 91.6075,-180.467 L 91.2773,-180.286 L 90.927,-180.147
 L 90.5621,-180.053 L 90.1884,-180.006 z
M 62.6267,-161.039 L 63.2434,-161.157 L 63.8406,-161.351 L 64.4088,-161.618 L 64.9389,-161.955 L 65.4227,-162.355
 L 65.8526,-162.813 L 66.2216,-163.321 L 66.5241,-163.871 L 66.7553,-164.455 L 66.9114,-165.063 L 66.9901,-165.686
 L 66.9901,-170.314 L 66.9114,-170.937 L 66.7553,-171.545 L 66.5241,-172.129 L 66.2216,-172.679 L 65.8526,-173.187
 L 65.4227,-173.645 L 64.9389,-174.045 L 64.4088,-174.382 L 63.8406,-174.649 L 63.2434,-174.843 L 62.6267,-174.961
 L 62,-175 L 7,-175 L 7,-230 L 6.96057,-230.627 L 6.84291,-231.243 L 6.64888,-231.841
 L 6.38153,-232.409 L 6.04507,-232.939 L 5.64484,-233.423 L 5.18712,-233.853 L 4.67912,-234.222 L 4.12889,-234.524
 L 3.54507,-234.755 L 2.9369,-234.911 L 2.31395,-234.99 L -2.31395,-234.99 L -2.9369,-234.911 L -3.54507,-234.755
 L -4.12889,-234.524 L -4.67912,-234.222 L -5.18712,-233.853 L -5.64484,-233.423 L -6.04507,-232.939 L -6.38153,-232.409
 L -6.64888,-231.841 L -6.84291,-231.243 L -6.96057,-230.627 L -7,-230 L -7,-166 L -6.99013,-165.843
 L -6.99013,-165.686 L -6.97043,-165.53 L -6.96057,-165.373 L -6.93112,-165.219 L -6.91142,-165.063 L -6.87234,-164.911
 L -6.84291,-164.757 L -6.79436,-164.607 L -6.75528,-164.455 L -6.69743,-164.309 L -6.64888,-164.159 L -6.58197,-164.017
 L -6.52412,-163.871 L -6.44843,-163.733 L -6.38153,-163.591 L -6.29733,-163.459 L -6.22163,-163.321 L -6.12927,-163.194
 L -6.04507,-163.061 L -5.94492,-162.94 L -5.85255,-162.813 L -5.745,-162.698 L -5.64484,-162.577 L -5.53029,-162.47
 L -5.42273,-162.355 L -5.30165,-162.255 L -5.18712,-162.147 L -5.06,-162.055 L -4.93892,-161.955 L -4.80624,-161.871
 L -4.67912,-161.778 L -4.54143,-161.703 L -4.40877,-161.618 L -4.26659,-161.552 L -4.12889,-161.476 L -3.98279,-161.418
 L -3.84062,-161.351 L -3.69118,-161.303 L -3.54507,-161.245 L -3.39288,-161.206 L -3.24344,-161.157 L -3.0891,-161.128
 L -2.9369,-161.089 L -2.78101,-161.069 L -2.62666,-161.039 L -2.46983,-161.03 L -2.31395,-161.01 L -2.15681,-161.01
 L -2,-161 L 62,-161 z
M -0.18837,-225.006 L -0.562134,-225.053 L -0.927048,-225.147 L -1.27733,-225.286 L -1.60747,-225.467 L -1.91226,-225.688
 L -2.1869,-225.946 L -2.42705,-226.237 L -2.62891,-226.555 L -2.78932,-226.896 L -2.90575,-227.254 L -2.97633,-227.624
 L -3,-228 L -2.97633,-228.376 L -2.90575,-228.746 L -2.78932,-229.104 L -2.62891,-229.445 L -2.42705,-229.763
 L -2.1869,-230.054 L -1.91226,-230.312 L -1.60747,-230.533 L -1.27733,-230.714 L -0.927048,-230.853 L -0.562134,-230.947
 L -0.18837,-230.994 L 0.18837,-230.994 L 0.562134,-230.947 L 0.927048,-230.853 L 1.27733,-230.714 L 1.60747,-230.533
 L 1.91226,-230.312 L 2.1869,-230.054 L 2.42705,-229.763 L 2.62891,-229.445 L 2.78932,-229.104 L 2.90575,-228.746
 L 2.97633,-228.376 L 3,-228 L 2.97633,-227.624 L 2.90575,-227.254 L 2.78932,-226.896 L 2.62891,-226.555
 L 2.42705,-226.237 L 2.1869,-225.946 L 1.91226,-225.688 L 1.60747,-225.467 L 1.27733,-225.286 L 0.927048,-225.147
 L 0.562134,-225.053 L 0.18837,-225.006 z
M -1.58675,-217.752 L -3.17349,-220.5 L -1.58675,-223.248 L 1.58675,-223.248 L 3.17349,-220.5 L 1.58675,-217.752
 z
M -1.58675,-172.752 L -3.17349,-175.5 L -1.58675,-178.248 L 1.58675,-178.248 L 3.17349,-175.5 L 1.58675,-172.752
 z
M 6.92012,-165.161 L 6.93736,-165.252 L 5.91325,-165.252 L 4.32651,-168 L 5.91325,-170.748 L 7,-170.748
 L 7,-170.885 L 7.5,-171.173 L 8.2364,-170.748 L 9.08675,-170.748 L 9.5119,-170.012 L 10.2483,-169.587
 L 10.2483,-168.736 L 10.6735,-168 L 10.2483,-167.264 L 10.2483,-166.413 L 9.5119,-165.988 L 9.08675,-165.252
 L 8.2364,-165.252 L 7.5,-164.827 z
M 49.7517,-166.413 L 49.7517,-169.587 L 52.5,-171.173 L 55.2483,-169.587 L 55.2483,-166.413 L 52.5,-164.827
 z
M 59.624,-165.024 L 59.2539,-165.094 L 58.8956,-165.211 L 58.5547,-165.371 L 58.2366,-165.573 L 57.9464,-165.813
 L 57.6885,-166.088 L 57.467,-166.393 L 57.2855,-166.723 L 57.1468,-167.073 L 57.0531,-167.438 L 57.0059,-167.812
 L 57.0059,-168.188 L 57.0531,-168.562 L 57.1468,-168.927 L 57.2855,-169.277 L 57.467,-169.607 L 57.6885,-169.912
 L 57.9464,-170.187 L 58.2366,-170.427 L 58.5547,-170.629 L 58.8956,-170.789 L 59.2539,-170.906 L 59.624,-170.976
 L 60,-171 L 60.376,-170.976 L 60.7461,-170.906 L 61.1044,-170.789 L 61.4453,-170.629 L 61.7634,-170.427
 L 62.0536,-170.187 L 62.3115,-169.912 L 62.533,-169.607 L 62.7145,-169.277 L 62.8532,-168.927 L 62.9469,-168.562
 L 62.9941,-168.188 L 62.9941,-167.812 L 62.9469,-167.438 L 62.8532,-167.073 L 62.7145,-166.723 L 62.533,-166.393
 L 62.3115,-166.088 L 62.0536,-165.813 L 61.7634,-165.573 L 61.4453,-165.371 L 61.1044,-165.211 L 60.7461,-165.094
 L 60.376,-165.024 L 60,-165 z
M -0.0940857,-165.006 L -0.281906,-165.018 L -0.468597,-165.041 L -0.653458,-165.077 L -0.835724,-165.123 L -1.01471,-165.182
 L -1.18967,-165.251 L -1.35994,-165.331 L -1.52486,-165.422 L -1.68375,-165.522 L -1.83598,-165.633 L -1.98099,-165.753
 L -2.11816,-165.882 L -2.24699,-166.019 L -2.36694,-166.164 L -2.47757,-166.316 L -2.57838,-166.475 L -2.66905,-166.64
 L -2.74918,-166.81 L -2.81845,-166.985 L -2.8766,-167.164 L -2.9234,-167.347 L -2.95866,-167.531 L -2.98225,-167.718
 L -2.99408,-167.906 L -2.99408,-168.094 L -2.98225,-168.282 L -2.95866,-168.469 L -2.9234,-168.653 L -2.8766,-168.836
 L -2.81845,-169.015 L -2.74918,-169.19 L -2.66907,-169.36 L -2.57838,-169.525 L -2.47757,-169.684 L -2.36694,-169.836
 L -2.24699,-169.981 L -2.11816,-170.118 L -1.981,-170.247 L -1.83598,-170.367 L -1.68375,-170.478 L -1.52486,-170.578
 L -1.35995,-170.669 L -1.18965,-170.749 L -1.01472,-170.818 L -0.835709,-170.877 L -0.653473,-170.923 L -0.468582,-170.959
 L -0.281921,-170.982 L -0.0940704,-170.994 L 0.0940704,-170.994 L 0.281921,-170.982 L 0.468582,-170.959 L 0.653458,-170.923
 L 0.835709,-170.877 L 1.01472,-170.818 L 1.18967,-170.749 L 1.35994,-170.669 L 1.52486,-170.578 L 1.68375,-170.478
 L 1.83598,-170.367 L 1.98099,-170.247 L 2.11818,-170.118 L 2.24699,-169.981 L 2.36694,-169.836 L 2.47755,-169.684
 L 2.5784,-169.525 L 2.66905,-169.36 L 2.74918,-169.19 L 2.81845,-169.015 L 2.87662,-168.836 L 2.9234,-168.653
 L 2.95868,-168.469 L 2.98225,-168.282 L 2.99408,-168.094 L 2.99408,-167.906 L 2.98225,-167.718 L 2.95868,-167.531
 L 2.9234,-167.347 L 2.87662,-167.164 L 2.81845,-166.985 L 2.74919,-166.81 L 2.66905,-166.64 L 2.5784,-166.475
 L 2.47755,-166.316 L 2.36696,-166.164 L 2.24698,-166.019 L 2.11818,-165.882 L 1.98099,-165.753 L 1.836,-165.633
 L 1.68373,-165.522 L 1.52487,-165.422 L 1.35994,-165.331 L 1.18968,-165.251 L 1.01471,-165.182 L 0.835724,-165.123
 L 0.653442,-165.077 L 0.468597,-165.041 L 0.281906,-165.018 L 0.0940857,-165.006 z
" stroke="black" fill="lightgray" stroke-width="0.5"/>
</svg>
