<?xml version="1.0" standalone="no"?>
<!DOCTYPE svg PUBLIC "-//W3C//DTD SVG 1.1//EN" "http://www.w3.org/Graphics/SVG/1.1/DTD/svg11.dtd">
<svg width="64mm" height="158mm" viewBox="-7 -205 64 158" xmlns="http://www.w3.org/2000/svg" version="1.1">
<title>OpenSCAD Model</title>
<path d="
M 7,-200 L 6.96057,-200.627 L 6.84291,-201.243 L 6.64888,-201.841 L 6.38153,-202.409 L 6.04507,-202.939
 L 5.64484,-203.423 L 5.18712,-203.853 L 4.67912,-204.222 L 4.12889,-204.524 L 3.54507,-204.755 L 2.9369,-204.911
 L 2.31395,-204.99 L -2.31395,-204.99 L -2.9369,-204.911 L -3.54507,-204.755 L -4.12889,-204.524 L -4.67912,-204.222
 L -5.18712,-203.853 L -5.64484,-203.423 L -6.04507,-202.939 L -6.38153,-202.409 L -6.64888,-201.841 L -6.84291,-201.243
 L -6.96057,-200.627 L -7,-200 L -7,-184.318 L 7,-184.318 z
M -0.194641,-194.906 L -0.580872,-194.955 L -0.957947,-195.052 L -1.3199,-195.195 L -1.66106,-195.383 L -1.97601,-195.611
 L -2.2598,-195.878 L -2.50795,-196.178 L -2.71654,-196.507 L -2.88229,-196.859 L -3.00259,-197.229 L -3.07555,-197.611
 L -3.09999,-198 L -3.07555,-198.389 L -3.00259,-198.771 L -2.88229,-199.141 L -2.71654,-199.493 L -2.50795,-199.822
 L -2.2598,-200.122 L -1.97601,-200.389 L -1.66106,-200.617 L -1.3199,-200.805 L -0.957947,-200.948 L -0.580872,-201.045
 L -0.194641,-201.094 L 0.194641,-201.094 L 0.580872,-201.045 L 0.957947,-200.948 L 1.3199,-200.805 L 1.66106,-200.617
 L 1.97601,-200.389 L 2.2598,-200.122 L 2.50795,-199.822 L 2.71654,-199.493 L 2.88229,-199.141 L 3.00259,-198.771
 L 3.07555,-198.389 L 3.09999,-198 L 3.07555,-197.611 L 3.00259,-197.229 L 2.88229,-196.859 L 2.71654,-196.507
 L 2.50795,-196.178 L 2.2598,-195.878 L 1.97601,-195.611 L 1.66106,-195.383 L 1.3199,-195.195 L 0.957947,-195.052
 L 0.580872,-194.955 L 0.194641,-194.906 z
M -0.113022,-188.704 L -0.33728,-188.732 L -0.556229,-188.788 L -0.766388,-188.871 L -0.964478,-188.98 L -1.14735,-189.113
 L -1.31213,-189.268 L -1.45622,-189.442 L -1.57735,-189.633 L -1.67358,-189.837 L -1.74344,-190.052 L -1.7858,-190.274
 L -1.79999,-190.5 L -1.7858,-190.726 L -1.74344,-190.948 L -1.67358,-191.163 L -1.57735,-191.367 L -1.45622,-191.558
 L -1.31213,-191.732 L -1.14735,-191.887 L -0.964478,-192.02 L -0.766388,-192.129 L -0.556229,-192.212 L -0.33728,-192.268
 L -0.113022,-192.296 L 0.113022,-192.296 L 0.33728,-192.268 L 0.556229,-192.212 L 0.766388,-192.129 L 0.964478,-192.02
 L 1.14735,-191.887 L 1.31213,-191.732 L 1.45622,-191.558 L 1.57735,-191.367 L 1.67358,-191.163 L 1.74344,-190.948
 L 1.7858,-190.726 L 1.79999,-190.5 L 1.7858,-190.274 L 1.74344,-190.052 L 1.67358,-189.837 L 1.57735,-189.633
 L 1.45622,-189.442 L 1.31213,-189.268 L 1.14735,-189.113 L 0.964478,-188.98 L 0.766388,-188.871 L 0.556229,-188.788
 L 0.33728,-188.732 L 0.113022,-188.704 z
M 57,-200 L 56.9606,-200.627 L 56.8429,-201.243 L 56.6489,-201.841 L 56.3815,-202.409 L 56.0451,-202.939
 L 55.6448,-203.423 L 55.1871,-203.853 L 54.6791,-204.222 L 54.1289,-204.524 L 53.5451,-204.755 L 52.9369,-204.911
 L 52.3139,-204.99 L 47.686,-204.99 L 47.0631,-204.911 L 46.4549,-204.755 L 45.8711,-204.524 L 45.3209,-204.222
 L 44.8129,-203.853 L 44.3551,-203.423 L 43.9549,-202.939 L 43.6185,-202.409 L 43.3511,-201.841 L 43.1571,-201.243
 L 43.0394,-200.627 L 43,-200 L 43,-184.318 L 57,-184.318 z
M 49.8116,-195.006 L 49.4379,-195.053 L 49.0729,-195.147 L 48.7227,-195.286 L 48.3925,-195.467 L 48.0877,-195.688
 L 47.8131,-195.946 L 47.5729,-196.237 L 47.3711,-196.555 L 47.2107,-196.896 L 47.0942,-197.254 L 47.0237,-197.624
 L 47,-198 L 47.0237,-198.376 L 47.0942,-198.746 L 47.2107,-199.104 L 47.3711,-199.445 L 47.5729,-199.763
 L 47.8131,-200.054 L 48.0877,-200.312 L 48.3925,-200.533 L 48.7227,-200.714 L 49.0729,-200.853 L 49.4379,-200.947
 L 49.8116,-200.994 L 50.1884,-200.994 L 50.5621,-200.947 L 50.927,-200.853 L 51.2773,-200.714 L 51.6075,-200.533
 L 51.9123,-200.312 L 52.1869,-200.054 L 52.427,-199.763 L 52.6289,-199.445 L 52.7893,-199.104 L 52.9057,-198.746
 L 52.9763,-198.376 L 53,-198 L 52.9763,-197.624 L 52.9057,-197.254 L 52.7893,-196.896 L 52.6289,-196.555
 L 52.427,-196.237 L 52.1869,-195.946 L 51.9123,-195.688 L 51.6075,-195.467 L 51.2773,-195.286 L 50.927,-195.147
 L 50.5621,-195.053 L 50.1884,-195.006 z
M 49.887,-188.704 L 49.6627,-188.732 L 49.4438,-188.788 L 49.2336,-188.871 L 49.0355,-188.98 L 48.8526,-189.113
 L 48.6879,-189.268 L 48.5438,-189.442 L 48.4226,-189.633 L 48.3264,-189.837 L 48.2565,-190.052 L 48.2142,-190.274
 L 48.2,-190.5 L 48.2142,-190.726 L 48.2565,-190.948 L 48.3264,-191.163 L 48.4226,-191.367 L 48.5438,-191.558
 L 48.6879,-191.732 L 48.8526,-191.887 L 49.0355,-192.02 L 49.2336,-192.129 L 49.4438,-192.212 L 49.6627,-192.268
 L 49.887,-192.296 L 50.113,-192.296 L 50.3373,-192.268 L 50.5562,-192.212 L 50.7664,-192.129 L 50.9645,-192.02
 L 51.1474,-191.887 L 51.3121,-191.732 L 51.4562,-191.558 L 51.5773,-191.367 L 51.6736,-191.163 L 51.7434,-190.948
 L 51.7858,-190.726 L 51.8,-190.5 L 51.7858,-190.274 L 51.7434,-190.052 L 51.6736,-189.837 L 51.5773,-189.633
 L 51.4562,-189.442 L 51.3121,-189.268 L 51.1474,-189.113 L 50.9645,-188.98 L 50.7664,-188.871 L 50.5562,-188.788
 L 50.3373,-188.732 L 50.113,-188.704 z
M 7,-181.682 L -7,-181.682 L -7,-176.818 L 7,-176.818 z
M 57,-181.682 L 43,-181.682 L 43,-176.818 L 57,-176.818 z
M 7,-174.182 L -7,-174.182 L -7,-169.318 L 7,-169.318 z
M 57,-174.182 L 43,-174.182 L 43,-169.318 L 57,-169.318 z
M 57,-166.682 L 43,-166.682 L 43,-161.818 L 57,-161.818 z
M 7,-166.682 L -7,-166.682 L -7,-161.818 L 7,-161.818 z
M 57,-159.182 L 43,-159.182 L 43,-154.318 L 57,-154.318 z
M 7,-159.182 L -7,-159.182 L -7,-154.318 L 7,-154.318 z
M 2.9369,-131.089 L 3.54507,-131.245 L 4.12889,-131.476 L 4.67912,-131.778 L 5.18712,-132.147 L 5.64484,-132.577
 L 6.04507,-133.061 L 6.38153,-133.591 L 6.64888,-134.159 L 6.84291,-134.757 L 6.96057,-135.373 L 7,-136
 L 7,-151.682 L -7,-151.682 L -7,-136 L -6.96057,-135.373 L -6.84291,-134.757 L -6.64888,-134.159
 L -6.38153,-133.591 L -6.04507,-133.061 L -5.64484,-132.577 L -5.18712,-132.147 L -4.67912,-131.778 L -4.12889,-131.476
 L -3.54507,-131.245 L -2.9369,-131.089 L -2.31395,-131.01 L 2.31395,-131.01 z
M -0.113022,-143.704 L -0.33728,-143.732 L -0.556229,-143.788 L -0.766388,-143.871 L -0.964478,-143.98 L -1.14735,-144.113
 L -1.31213,-144.268 L -1.45622,-144.442 L -1.57735,-144.633 L -1.67358,-144.837 L -1.74344,-145.052 L -1.7858,-145.274
 L -1.79999,-145.5 L -1.7858,-145.726 L -1.74344,-145.948 L -1.67358,-146.163 L -1.57735,-146.367 L -1.45622,-146.558
 L -1.31213,-146.732 L -1.14735,-146.887 L -0.964478,-147.02 L -0.766388,-147.129 L -0.556229,-147.212 L -0.33728,-147.268
 L -0.113022,-147.296 L 0.113022,-147.296 L 0.33728,-147.268 L 0.556229,-147.212 L 0.766388,-147.129 L 0.964478,-147.02
 L 1.14735,-146.887 L 1.31213,-146.732 L 1.45622,-146.558 L 1.57735,-146.367 L 1.67358,-146.163 L 1.74344,-145.948
 L 1.7858,-145.726 L 1.79999,-145.5 L 1.7858,-145.274 L 1.74344,-145.052 L 1.67358,-144.837 L 1.57735,-144.633
 L 1.45622,-144.442 L 1.31213,-144.268 L 1.14735,-144.113 L 0.964478,-143.98 L 0.766388,-143.871 L 0.556229,-143.788
 L 0.33728,-143.732 L 0.113022,-143.704 z
M -0.194641,-134.906 L -0.580872,-134.955 L -0.957947,-135.052 L -1.3199,-135.195 L -1.66106,-135.383 L -1.97601,-135.611
 L -2.2598,-135.878 L -2.50795,-136.178 L -2.71654,-136.507 L -2.88229,-136.859 L -3.00259,-137.229 L -3.07555,-137.611
 L -3.09999,-138 L -3.07555,-138.389 L -3.00259,-138.771 L -2.88229,-139.141 L -2.71654,-139.493 L -2.50795,-139.822
 L -2.2598,-140.122 L -1.97601,-140.389 L -1.66106,-140.617 L -1.3199,-140.805 L -0.957947,-140.948 L -0.580872,-141.045
 L -0.194641,-141.094 L 0.194641,-141.094 L 0.580872,-141.045 L 0.957947,-140.948 L 1.3199,-140.805 L 1.66106,-140.617
 L 1.97601,-140.389 L 2.2598,-140.122 L 2.50795,-139.822 L 2.71654,-139.493 L 2.88229,-139.141 L 3.00259,-138.771
 L 3.07555,-138.389 L 3.09999,-138 L 3.07555,-137.611 L 3.00259,-137.229 L 2.88229,-136.859 L 2.71654,-136.507
 L 2.50795,-136.178 L 2.2598,-135.878 L 1.97601,-135.611 L 1.66106,-135.383 L 1.3199,-135.195 L 0.957947,-135.052
 L 0.580872,-134.955 L 0.194641,-134.906 z
M 52.9369,-131.089 L 53.5451,-131.245 L 54.1289,-131.476 L 54.6791,-131.778 L 55.1871,-132.147 L 55.6448,-132.577
 L 56.0451,-133.061 L 56.3815,-133.591 L 56.6489,-134.159 L 56.8429,-134.757 L 56.9606,-135.373 L 57,-136
 L 57,-151.682 L 43,-151.682 L 43,-136 L 43.0394,-135.373 L 43.1571,-134.757 L 43.3511,-134.159
 L 43.6185,-133.591 L 43.9549,-133.061 L 44.3551,-132.577 L 44.8129,-132.147 L 45.3209,-131.778 L 45.8711,-131.476
 L 46.4549,-131.245 L 47.0631,-131.089 L 47.686,-131.01 L 52.3139,-131.01 z
M 49.887,-143.704 L 49.6627,-143.732 L 49.4438,-143.788 L 49.2336,-143.871 L 49.0355,-143.98 L 48.8526,-144.113
 L 48.6879,-144.268 L 48.5438,-144.442 L 48.4226,-144.633 L 48.3264,-144.837 L 48.2565,-145.052 L 48.2142,-145.274
 L 48.2,-145.5 L 48.2142,-145.726 L 48.2565,-145.948 L 48.3264,-146.163 L 48.4226,-146.367 L 48.5438,-146.558
 L 48.6879,-146.732 L 48.8526,-146.887 L 49.0355,-147.02 L 49.2336,-147.129 L 49.4438,-147.212 L 49.6627,-147.268
 L 49.887,-147.296 L 50.113,-147.296 L 50.3373,-147.268 L 50.5562,-147.212 L 50.7664,-147.129 L 50.9645,-147.02
 L 51.1474,-146.887 L 51.3121,-146.732 L 51.4562,-146.558 L 51.5773,-146.367 L 51.6736,-146.163 L 51.7434,-145.948
 L 51.7858,-145.726 L 51.8,-145.5 L 51.7858,-145.274 L 51.7434,-145.052 L 51.6736,-144.837 L 51.5773,-144.633
 L 51.4562,-144.442 L 51.3121,-144.268 L 51.1474,-144.113 L 50.9645,-143.98 L 50.7664,-143.871 L 50.5562,-143.788
 L 50.3373,-143.732 L 50.113,-143.704 z
M 49.8116,-135.006 L 49.4379,-135.053 L 49.0729,-135.147 L 48.7227,-135.286 L 48.3925,-135.467 L 48.0877,-135.688
 L 47.8131,-135.946 L 47.5729,-136.237 L 47.3711,-136.555 L 47.2107,-136.896 L 47.0942,-137.254 L 47.0237,-137.624
 L 47,-138 L 47.0237,-138.376 L 47.0942,-138.746 L 47.2107,-139.104 L 47.3711,-139.445 L 47.5729,-139.763
 L 47.8131,-140.054 L 48.0877,-140.312 L 48.3925,-140.533 L 48.7227,-140.714 L 49.0729,-140.853 L 49.4379,-140.947
 L 49.8116,-140.994 L 50.1884,-140.994 L 50.5621,-140.947 L 50.927,-140.853 L 51.2773,-140.714 L 51.6075,-140.533
 L 51.9123,-140.312 L 52.1869,-140.054 L 52.427,-139.763 L 52.6289,-139.445 L 52.7893,-139.104 L 52.9057,-138.746
 L 52.9763,-138.376 L 53,-138 L 52.9763,-137.624 L 52.9057,-137.254 L 52.7893,-136.896 L 52.6289,-136.555
 L 52.427,-136.237 L 52.1869,-135.946 L 51.9123,-135.688 L 51.6075,-135.467 L 51.2773,-135.286 L 50.927,-135.147
 L 50.5621,-135.053 L 50.1884,-135.006 z
M 2.9369,-47.0886 L 3.54507,-47.2447 L 4.12889,-47.4759 L 4.67912,-47.7784 L 5.18712,-48.1474 L 5.64484,-48.5773
 L 6.04507,-49.0611 L 6.38153,-49.5912 L 6.64888,-50.1594 L 6.84291,-50.7566 L 6.96057,-51.3733 L 7,-52
 L 7,-116 L 6.96057,-116.627 L 6.84291,-117.243 L 6.64888,-117.841 L 6.38153,-118.409 L 6.04507,-118.939
 L 5.64484,-119.423 L 5.18712,-119.853 L 4.67912,-120.222 L 4.12889,-120.524 L 3.54507,-120.755 L 2.9369,-120.911
 L 2.31395,-120.99 L -2.31395,-120.99 L -2.9369,-120.911 L -3.54507,-120.755 L -4.12889,-120.524 L -4.67912,-120.222
 L -5.18712,-119.853 L -5.64484,-119.423 L -6.04507,-118.939 L -6.38153,-118.409 L -6.64888,-117.841 L -6.84291,-117.243
 L -6.96057,-116.627 L -7,-116 L -7,-52 L -6.96057,-51.3733 L -6.84291,-50.7566 L -6.64888,-50.1594
 L -6.38153,-49.5912 L -6.04507,-49.0611 L -5.64484,-48.5773 L -5.18712,-48.1474 L -4.67912,-47.7784 L -4.12889,-47.4759
 L -3.54507,-47.2447 L -2.9369,-47.0886 L -2.31395,-47.0099 L 2.31395,-47.0099 z
M -0.18837,-111.006 L -0.562134,-111.053 L -0.927048,-111.147 L -1.27733,-111.286 L -1.60747,-111.467 L -1.91226,-111.688
 L -2.1869,-111.946 L -2.42705,-112.237 L -2.62891,-112.555 L -2.78932,-112.896 L -2.90575,-113.254 L -2.97633,-113.624
 L -3,-114 L -2.97633,-114.376 L -2.90575,-114.746 L -2.78932,-115.104 L -2.62891,-115.445 L -2.42705,-115.763
 L -2.1869,-116.054 L -1.91226,-116.312 L -1.60747,-116.533 L -1.27733,-116.714 L -0.927048,-116.853 L -0.562134,-116.947
 L -0.18837,-116.994 L 0.18837,-116.994 L 0.562134,-116.947 L 0.927048,-116.853 L 1.27733,-116.714 L 1.60747,-116.533
 L 1.91226,-116.312 L 2.1869,-116.054 L 2.42705,-115.763 L 2.62891,-115.445 L 2.78932,-115.104 L 2.90575,-114.746
 L 2.97633,-114.376 L 3,-114 L 2.97633,-113.624 L 2.90575,-113.254 L 2.78932,-112.896 L 2.62891,-112.555
 L 2.42705,-112.237 L 2.1869,-111.946 L 1.91226,-111.688 L 1.60747,-111.467 L 1.27733,-111.286 L 0.927048,-111.147
 L 0.562134,-111.053 L 0.18837,-111.006 z
M -1.58675,-103.752 L -3.17349,-106.5 L -1.58675,-109.248 L 1.58675,-109.248 L 3.17349,-106.5 L 1.58675,-103.752
 z
M -1.58675,-58.7517 L -3.17349,-61.5 L -1.58675,-64.2483 L 1.58675,-64.2483 L 3.17349,-61.5 L 1.58675,-58.7517
 z
M -0.18837,-51.0059 L -0.562134,-51.0531 L -0.927048,-51.1468 L -1.27733,-51.2855 L -1.60747,-51.467 L -1.91226,-51.6885
 L -2.1869,-51.9464 L -2.42705,-52.2366 L -2.62891,-52.5547 L -2.78932,-52.8956 L -2.90575,-53.2539 L -2.97633,-53.624
 L -3,-54 L -2.97633,-54.376 L -2.90575,-54.7461 L -2.78932,-55.1044 L -2.62891,-55.4453 L -2.42705,-55.7634
 L -2.1869,-56.0536 L -1.91226,-56.3116 L -1.60747,-56.533 L -1.27733,-56.7145 L -0.927048,-56.8532 L -0.562134,-56.9469
 L -0.18837,-56.9941 L 0.18837,-56.9941 L 0.562134,-56.9469 L 0.927048,-56.8532 L 1.27733,-56.7145 L 1.60747,-56.533
 L 1.91226,-56.3116 L 2.1869,-56.0536 L 2.42705,-55.7634 L 2.62891,-55.4453 L 2.78932,-55.1044 L 2.90575,-54.7461
 L 2.97633,-54.376 L 3,-54 L 2.97633,-53.624 L 2.90575,-53.2539 L 2.78932,-52.8956 L 2.62891,-52.5547
 L 2.42705,-52.2366 L 2.1869,-51.9464 L 1.91226,-51.6885 L 1.60747,-51.467 L 1.27733,-51.2855 L 0.927048,-51.1468
 L 0.562134,-51.0531 L 0.18837,-51.0059 z
M 52.9369,-47.0886 L 53.5451,-47.2447 L 54.1289,-47.4759 L 54.6791,-47.7784 L 55.1871,-48.1474 L 55.6448,-48.5773
 L 56.0451,-49.0611 L 56.3815,-49.5912 L 56.6489,-50.1594 L 56.8429,-50.7566 L 56.9606,-51.3733 L 57,-52
 L 57,-116 L 56.9606,-116.627 L 56.8429,-117.243 L 56.6489,-117.841 L 56.3815,-118.409 L 56.0451,-118.939
 L 55.6448,-119.423 L 55.1871,-119.853 L 54.6791,-120.222 L 54.1289,-120.524 L 53.5451,-120.755 L 52.9369,-120.911
 L 52.3139,-120.99 L 47.686,-120.99 L 47.0631,-120.911 L 46.4549,-120.755 L 45.8711,-120.524 L 45.3209,-120.222
 L 44.8129,-119.853 L 44.3551,-119.423 L 43.9549,-118.939 L 43.6185,-118.409 L 43.3511,-117.841 L 43.1571,-117.243
 L 43.0394,-116.627 L 43,-116 L 43,-52 L 43.0394,-51.3733 L 43.1571,-50.7566 L 43.3511,-50.1594
 L 43.6185,-49.5912 L 43.9549,-49.0611 L 44.3551,-48.5773 L 44.8129,-48.1474 L 45.3209,-47.7784 L 45.8711,-47.4759
 L 46.4549,-47.2447 L 47.0631,-47.0886 L 47.686,-47.0099 L 52.3139,-47.0099 z
M 49.8116,-111.006 L 49.4379,-111.053 L 49.0729,-111.147 L 48.7227,-111.286 L 48.3925,-111.467 L 48.0877,-111.688
 L 47.8131,-111.946 L 47.5729,-112.237 L 47.3711,-112.555 L 47.2107,-112.896 L 47.0942,-113.254 L 47.0237,-113.624
 L 47,-114 L 47.0237,-114.376 L 47.0942,-114.746 L 47.2107,-115.104 L 47.3711,-115.445 L 47.5729,-115.763
 L 47.8131,-116.054 L 48.0877,-116.312 L 48.3925,-116.533 L 48.7227,-116.714 L 49.0729,-116.853 L 49.4379,-116.947
 L 49.8116,-116.994 L 50.1884,-116.994 L 50.5621,-116.947 L 50.927,-116.853 L 51.2773,-116.714 L 51.6075,-116.533
 L 51.9123,-116.312 L 52.1869,-116.054 L 52.427,-115.763 L 52.6289,-115.445 L 52.7893,-115.104 L 52.9057,-114.746
 L 52.9763,-114.376 L 53,-114 L 52.9763,-113.624 L 52.9057,-113.254 L 52.7893,-112.896 L 52.6289,-112.555
 L 52.427,-112.237 L 52.1869,-111.946 L 51.9123,-111.688 L 51.6075,-111.467 L 51.2773,-111.286 L 50.927,-111.147
 L 50.5621,-111.053 L 50.1884,-111.006 z
M 49.8526,-104.158 L 49.5602,-104.195 L 49.2747,-104.268 L 49.0007,-104.376 L 48.7424,-104.518 L 48.5039,-104.692
 L 48.2891,-104.893 L 48.1012,-105.12 L 47.9433,-105.369 L 47.8177,-105.636 L 47.7267,-105.916 L 47.6714,-106.206
 L 47.6529,-106.5 L 47.6714,-106.794 L 47.7267,-107.084 L 47.8177,-107.364 L 47.9433,-107.631 L 48.1012,-107.88
 L 48.2891,-108.107 L 48.5039,-108.308 L 48.7424,-108.482 L 49.0007,-108.624 L 49.2747,-108.732 L 49.5602,-108.805
 L 49.8526,-108.842 L 50.1474,-108.842 L 50.4398,-108.805 L 50.7253,-108.732 L 50.9993,-108.624 L 51.2576,-108.482
 L 51.4961,-108.308 L 51.7109,-108.107 L 51.8988,-107.88 L 52.0567,-107.631 L 52.1822,-107.364 L 52.2733,-107.084
 L 52.3286,-106.794 L 52.347,-106.5 L 52.3286,-106.206 L 52.2733,-105.916 L 52.1822,-105.636 L 52.0567,-105.369
 L 51.8988,-105.12 L 51.7109,-104.893 L 51.4961,-104.692 L 51.2576,-104.518 L 50.9993,-104.376 L 50.7253,-104.268
 L 50.4398,-104.195 L 50.1474,-104.158 z
M 49.8526,-59.1576 L 49.5602,-59.1945 L 49.2747,-59.2678 L 49.0007,-59.3763 L 48.7424,-59.5183 L 48.5039,-59.6916
 L 48.2891,-59.8933 L 48.1012,-60.1204 L 47.9433,-60.3693 L 47.8177,-60.636 L 47.7267,-60.9163 L 47.6714,-61.2058
 L 47.6529,-61.5 L 47.6714,-61.7942 L 47.7267,-62.0837 L 47.8177,-62.364 L 47.9433,-62.6307 L 48.1012,-62.8796
 L 48.2891,-63.1067 L 48.5039,-63.3084 L 48.7424,-63.4817 L 49.0007,-63.6237 L 49.2747,-63.7322 L 49.5602,-63.8055
 L 49.8526,-63.8424 L 50.1474,-63.8424 L 50.4398,-63.8055 L 50.7253,-63.7322 L 50.9993,-63.6237 L 51.2576,-63.4817
 L 51.4961,-63.3084 L 51.7109,-63.1067 L 51.8988,-62.8796 L 52.0567,-62.6307 L 52.1822,-62.364 L 52.2733,-62.0837
 L 52.3286,-61.7942 L 52.347,-61.5 L 52.3286,-61.2058 L 52.2733,-60.9163 L 52.1822,-60.636 L 52.0567,-60.3693
 L 51.8988,-60.1204 L 51.7109,-59.8933 L 51.4961,-59.6916 L 51.2576,-59.5183 L 50.9993,-59.3763 L 50.7253,-59.2678
 L 50.4398,-59.1945 L 50.1474,-59.1576 z
M 49.8116,-51.0059 L 49.4379,-51.0531 L 49.0729,-51.1468 L 48.7227,-51.2855 L 48.3925,-51.467 L 48.0877,-51.6885
 L 47.8131,-51.9464 L 47.5729,-52.2366 L 47.3711,-52.5547 L 47.2107,-52.8956 L 47.0942,-53.2539 L 47.0237,-53.624
 L 47,-54 L 47.0237,-54.376 L 47.0942,-54.7461 L 47.2107,-55.1044 L 47.3711,-55.4453 L 47.5729,-55.7634
 L 47.8131,-56.0536 L 48.0877,-56.3116 L 48.3925,-56.533 L 48.7227,-56.7145 L 49.0729,-56.8532 L 49.4379,-56.9469
 L 49.8116,-56.9941 L 50.1884,-56.9941 L 50.5621,-56.9469 L 50.927,-56.8532 L 51.2773,-56.7145 L 51.6075,-56.533
 L 51.9123,-56.3116 L 52.1869,-56.0536 L 52.427,-55.7634 L 52.6289,-55.4453 L 52.7893,-55.1044 L 52.9057,-54.7461
 L 52.9763,-54.376 L 53,-54 L 52.9763,-53.624 L 52.9057,-53.2539 L 52.7893,-52.8956 L 52.6289,-52.5547
 L 52.427,-52.2366 L 52.1869,-51.9464 L 51.9123,-51.6885 L 51.6075,-51.467 L 51.2773,-51.2855 L 50.927,-51.1468
 L 50.5621,-51.0531 L 50.1884,-51.0059 z
" stroke="black" fill="lightgray" stroke-width="0.5"/>
</svg>
