  0
SECTION
  2
BLOCKS
  0
ENDSEC
  0
SECTION
  2
ENTITIES
  0
LINE
  8
0
 10
7
 20
200
 11
6.96057
 21
200.627
  0
LINE
  8
0
 10
6.96057
 20
200.627
 11
6.84291
 21
201.243
  0
LINE
  8
0
 10
6.84291
 20
201.243
 11
6.64888
 21
201.841
  0
LINE
  8
0
 10
6.64888
 20
201.841
 11
6.38153
 21
202.409
  0
LINE
  8
0
 10
6.38153
 20
202.409
 11
6.04507
 21
202.939
  0
LINE
  8
0
 10
6.04507
 20
202.939
 11
5.64484
 21
203.423
  0
LINE
  8
0
 10
5.64484
 20
203.423
 11
5.18712
 21
203.853
  0
LINE
  8
0
 10
5.18712
 20
203.853
 11
4.67912
 21
204.222
  0
LINE
  8
0
 10
4.67912
 20
204.222
 11
4.12889
 21
204.524
  0
LINE
  8
0
 10
4.12889
 20
204.524
 11
3.54507
 21
204.755
  0
LINE
  8
0
 10
3.54507
 20
204.755
 11
2.9369
 21
204.911
  0
LINE
  8
0
 10
2.9369
 20
204.911
 11
2.31395
 21
204.99
  0
LINE
  8
0
 10
2.31395
 20
204.99
 11
-2.31395
 21
204.99
  0
LINE
  8
0
 10
-2.31395
 20
204.99
 11
-2.9369
 21
204.911
  0
LINE
  8
0
 10
-2.9369
 20
204.911
 11
-3.54507
 21
204.755
  0
LINE
  8
0
 10
-3.54507
 20
204.755
 11
-4.12889
 21
204.524
  0
LINE
  8
0
 10
-4.12889
 20
204.524
 11
-4.67912
 21
204.222
  0
LINE
  8
0
 10
-4.67912
 20
204.222
 11
-5.18712
 21
203.853
  0
LINE
  8
0
 10
-5.18712
 20
203.853
 11
-5.64484
 21
203.423
  0
LINE
  8
0
 10
-5.64484
 20
203.423
 11
-6.04507
 21
202.939
  0
LINE
  8
0
 10
-6.04507
 20
202.939
 11
-6.38153
 21
202.409
  0
LINE
  8
0
 10
-6.38153
 20
202.409
 11
-6.64888
 21
201.841
  0
LINE
  8
0
 10
-6.64888
 20
201.841
 11
-6.84291
 21
201.243
  0
LINE
  8
0
 10
-6.84291
 20
201.243
 11
-6.96057
 21
200.627
  0
LINE
  8
0
 10
-6.96057
 20
200.627
 11
-7
 21
200
  0
LINE
  8
0
 10
-7
 20
200
 11
-7
 21
185.592
  0
LINE
  8
0
 10
-7
 20
185.592
 11
7
 21
185.592
  0
LINE
  8
0
 10
7
 20
185.592
 11
7
 21
200
  0
LINE
  8
0
 10
-0.194641
 20
194.906
 11
-0.580872
 21
194.955
  0
LINE
  8
0
 10
-0.580872
 20
194.955
 11
-0.957947
 21
195.052
  0
LINE
  8
0
 10
-0.957947
 20
195.052
 11
-1.3199
 21
195.195
  0
LINE
  8
0
 10
-1.3199
 20
195.195
 11
-1.66106
 21
195.383
  0
LINE
  8
0
 10
-1.66106
 20
195.383
 11
-1.97601
 21
195.611
  0
LINE
  8
0
 10
-1.97601
 20
195.611
 11
-2.2598
 21
195.878
  0
LINE
  8
0
 10
-2.2598
 20
195.878
 11
-2.50795
 21
196.178
  0
LINE
  8
0
 10
-2.50795
 20
196.178
 11
-2.71654
 21
196.507
  0
LINE
  8
0
 10
-2.71654
 20
196.507
 11
-2.88229
 21
196.859
  0
LINE
  8
0
 10
-2.88229
 20
196.859
 11
-3.00259
 21
197.229
  0
LINE
  8
0
 10
-3.00259
 20
197.229
 11
-3.07555
 21
197.611
  0
LINE
  8
0
 10
-3.07555
 20
197.611
 11
-3.09999
 21
198
  0
LINE
  8
0
 10
-3.09999
 20
198
 11
-3.07555
 21
198.389
  0
LINE
  8
0
 10
-3.07555
 20
198.389
 11
-3.00259
 21
198.771
  0
LINE
  8
0
 10
-3.00259
 20
198.771
 11
-2.88229
 21
199.141
  0
LINE
  8
0
 10
-2.88229
 20
199.141
 11
-2.71654
 21
199.493
  0
LINE
  8
0
 10
-2.71654
 20
199.493
 11
-2.50795
 21
199.822
  0
LINE
  8
0
 10
-2.50795
 20
199.822
 11
-2.2598
 21
200.122
  0
LINE
  8
0
 10
-2.2598
 20
200.122
 11
-1.97601
 21
200.389
  0
LINE
  8
0
 10
-1.97601
 20
200.389
 11
-1.66106
 21
200.617
  0
LINE
  8
0
 10
-1.66106
 20
200.617
 11
-1.3199
 21
200.805
  0
LINE
  8
0
 10
-1.3199
 20
200.805
 11
-0.957947
 21
200.948
  0
LINE
  8
0
 10
-0.957947
 20
200.948
 11
-0.580872
 21
201.045
  0
LINE
  8
0
 10
-0.580872
 20
201.045
 11
-0.194641
 21
201.094
  0
LINE
  8
0
 10
-0.194641
 20
201.094
 11
0.194641
 21
201.094
  0
LINE
  8
0
 10
0.194641
 20
201.094
 11
0.580872
 21
201.045
  0
LINE
  8
0
 10
0.580872
 20
201.045
 11
0.957947
 21
200.948
  0
LINE
  8
0
 10
0.957947
 20
200.948
 11
1.3199
 21
200.805
  0
LINE
  8
0
 10
1.3199
 20
200.805
 11
1.66106
 21
200.617
  0
LINE
  8
0
 10
1.66106
 20
200.617
 11
1.97601
 21
200.389
  0
LINE
  8
0
 10
1.97601
 20
200.389
 11
2.2598
 21
200.122
  0
LINE
  8
0
 10
2.2598
 20
200.122
 11
2.50795
 21
199.822
  0
LINE
  8
0
 10
2.50795
 20
199.822
 11
2.71654
 21
199.493
  0
LINE
  8
0
 10
2.71654
 20
199.493
 11
2.88229
 21
199.141
  0
LINE
  8
0
 10
2.88229
 20
199.141
 11
3.00259
 21
198.771
  0
LINE
  8
0
 10
3.00259
 20
198.771
 11
3.07555
 21
198.389
  0
LINE
  8
0
 10
3.07555
 20
198.389
 11
3.09999
 21
198
  0
LINE
  8
0
 10
3.09999
 20
198
 11
3.07555
 21
197.611
  0
LINE
  8
0
 10
3.07555
 20
197.611
 11
3.00259
 21
197.229
  0
LINE
  8
0
 10
3.00259
 20
197.229
 11
2.88229
 21
196.859
  0
LINE
  8
0
 10
2.88229
 20
196.859
 11
2.71654
 21
196.507
  0
LINE
  8
0
 10
2.71654
 20
196.507
 11
2.50795
 21
196.178
  0
LINE
  8
0
 10
2.50795
 20
196.178
 11
2.2598
 21
195.878
  0
LINE
  8
0
 10
2.2598
 20
195.878
 11
1.97601
 21
195.611
  0
LINE
  8
0
 10
1.97601
 20
195.611
 11
1.66106
 21
195.383
  0
LINE
  8
0
 10
1.66106
 20
195.383
 11
1.3199
 21
195.195
  0
LINE
  8
0
 10
1.3199
 20
195.195
 11
0.957947
 21
195.052
  0
LINE
  8
0
 10
0.957947
 20
195.052
 11
0.580872
 21
194.955
  0
LINE
  8
0
 10
0.580872
 20
194.955
 11
0.194641
 21
194.906
  0
LINE
  8
0
 10
0.194641
 20
194.906
 11
-0.194641
 21
194.906
  0
LINE
  8
0
 10
-0.113022
 20
188.704
 11
-0.33728
 21
188.732
  0
LINE
  8
0
 10
-0.33728
 20
188.732
 11
-0.556229
 21
188.788
  0
LINE
  8
0
 10
-0.556229
 20
188.788
 11
-0.766388
 21
188.871
  0
LINE
  8
0
 10
-0.766388
 20
188.871
 11
-0.964478
 21
188.98
  0
LINE
  8
0
 10
-0.964478
 20
188.98
 11
-1.14735
 21
189.113
  0
LINE
  8
0
 10
-1.14735
 20
189.113
 11
-1.31213
 21
189.268
  0
LINE
  8
0
 10
-1.31213
 20
189.268
 11
-1.45622
 21
189.442
  0
LINE
  8
0
 10
-1.45622
 20
189.442
 11
-1.57735
 21
189.633
  0
LINE
  8
0
 10
-1.57735
 20
189.633
 11
-1.67358
 21
189.837
  0
LINE
  8
0
 10
-1.67358
 20
189.837
 11
-1.74344
 21
190.052
  0
LINE
  8
0
 10
-1.74344
 20
190.052
 11
-1.7858
 21
190.274
  0
LINE
  8
0
 10
-1.7858
 20
190.274
 11
-1.79999
 21
190.5
  0
LINE
  8
0
 10
-1.79999
 20
190.5
 11
-1.7858
 21
190.726
  0
LINE
  8
0
 10
-1.7858
 20
190.726
 11
-1.74344
 21
190.948
  0
LINE
  8
0
 10
-1.74344
 20
190.948
 11
-1.67358
 21
191.163
  0
LINE
  8
0
 10
-1.67358
 20
191.163
 11
-1.57735
 21
191.367
  0
LINE
  8
0
 10
-1.57735
 20
191.367
 11
-1.45622
 21
191.558
  0
LINE
  8
0
 10
-1.45622
 20
191.558
 11
-1.31213
 21
191.732
  0
LINE
  8
0
 10
-1.31213
 20
191.732
 11
-1.14735
 21
191.887
  0
LINE
  8
0
 10
-1.14735
 20
191.887
 11
-0.964478
 21
192.02
  0
LINE
  8
0
 10
-0.964478
 20
192.02
 11
-0.766388
 21
192.129
  0
LINE
  8
0
 10
-0.766388
 20
192.129
 11
-0.556229
 21
192.212
  0
LINE
  8
0
 10
-0.556229
 20
192.212
 11
-0.33728
 21
192.268
  0
LINE
  8
0
 10
-0.33728
 20
192.268
 11
-0.113022
 21
192.296
  0
LINE
  8
0
 10
-0.113022
 20
192.296
 11
0.113022
 21
192.296
  0
LINE
  8
0
 10
0.113022
 20
192.296
 11
0.33728
 21
192.268
  0
LINE
  8
0
 10
0.33728
 20
192.268
 11
0.556229
 21
192.212
  0
LINE
  8
0
 10
0.556229
 20
192.212
 11
0.766388
 21
192.129
  0
LINE
  8
0
 10
0.766388
 20
192.129
 11
0.964478
 21
192.02
  0
LINE
  8
0
 10
0.964478
 20
192.02
 11
1.14735
 21
191.887
  0
LINE
  8
0
 10
1.14735
 20
191.887
 11
1.31213
 21
191.732
  0
LINE
  8
0
 10
1.31213
 20
191.732
 11
1.45622
 21
191.558
  0
LINE
  8
0
 10
1.45622
 20
191.558
 11
1.57735
 21
191.367
  0
LINE
  8
0
 10
1.57735
 20
191.367
 11
1.67358
 21
191.163
  0
LINE
  8
0
 10
1.67358
 20
191.163
 11
1.74344
 21
190.948
  0
LINE
  8
0
 10
1.74344
 20
190.948
 11
1.7858
 21
190.726
  0
LINE
  8
0
 10
1.7858
 20
190.726
 11
1.79999
 21
190.5
  0
LINE
  8
0
 10
1.79999
 20
190.5
 11
1.7858
 21
190.274
  0
LINE
  8
0
 10
1.7858
 20
190.274
 11
1.74344
 21
190.052
  0
LINE
  8
0
 10
1.74344
 20
190.052
 11
1.67358
 21
189.837
  0
LINE
  8
0
 10
1.67358
 20
189.837
 11
1.57735
 21
189.633
  0
LINE
  8
0
 10
1.57735
 20
189.633
 11
1.45622
 21
189.442
  0
LINE
  8
0
 10
1.45622
 20
189.442
 11
1.31213
 21
189.268
  0
LINE
  8
0
 10
1.31213
 20
189.268
 11
1.14735
 21
189.113
  0
LINE
  8
0
 10
1.14735
 20
189.113
 11
0.964478
 21
188.98
  0
LINE
  8
0
 10
0.964478
 20
188.98
 11
0.766388
 21
188.871
  0
LINE
  8
0
 10
0.766388
 20
188.871
 11
0.556229
 21
188.788
  0
LINE
  8
0
 10
0.556229
 20
188.788
 11
0.33728
 21
188.732
  0
LINE
  8
0
 10
0.33728
 20
188.732
 11
0.113022
 21
188.704
  0
LINE
  8
0
 10
0.113022
 20
188.704
 11
-0.113022
 21
188.704
  0
LINE
  8
0
 10
57
 20
200
 11
56.9606
 21
200.627
  0
LINE
  8
0
 10
56.9606
 20
200.627
 11
56.8429
 21
201.243
  0
LINE
  8
0
 10
56.8429
 20
201.243
 11
56.6489
 21
201.841
  0
LINE
  8
0
 10
56.6489
 20
201.841
 11
56.3815
 21
202.409
  0
LINE
  8
0
 10
56.3815
 20
202.409
 11
56.0451
 21
202.939
  0
LINE
  8
0
 10
56.0451
 20
202.939
 11
55.6448
 21
203.423
  0
LINE
  8
0
 10
55.6448
 20
203.423
 11
55.1871
 21
203.853
  0
LINE
  8
0
 10
55.1871
 20
203.853
 11
54.6791
 21
204.222
  0
LINE
  8
0
 10
54.6791
 20
204.222
 11
54.1289
 21
204.524
  0
LINE
  8
0
 10
54.1289
 20
204.524
 11
53.5451
 21
204.755
  0
LINE
  8
0
 10
53.5451
 20
204.755
 11
52.9369
 21
204.911
  0
LINE
  8
0
 10
52.9369
 20
204.911
 11
52.3139
 21
204.99
  0
LINE
  8
0
 10
52.3139
 20
204.99
 11
47.686
 21
204.99
  0
LINE
  8
0
 10
47.686
 20
204.99
 11
47.0631
 21
204.911
  0
LINE
  8
0
 10
47.0631
 20
204.911
 11
46.4549
 21
204.755
  0
LINE
  8
0
 10
46.4549
 20
204.755
 11
45.8711
 21
204.524
  0
LINE
  8
0
 10
45.8711
 20
204.524
 11
45.3209
 21
204.222
  0
LINE
  8
0
 10
45.3209
 20
204.222
 11
44.8129
 21
203.853
  0
LINE
  8
0
 10
44.8129
 20
203.853
 11
44.3551
 21
203.423
  0
LINE
  8
0
 10
44.3551
 20
203.423
 11
43.9549
 21
202.939
  0
LINE
  8
0
 10
43.9549
 20
202.939
 11
43.6185
 21
202.409
  0
LINE
  8
0
 10
43.6185
 20
202.409
 11
43.3511
 21
201.841
  0
LINE
  8
0
 10
43.3511
 20
201.841
 11
43.1571
 21
201.243
  0
LINE
  8
0
 10
43.1571
 20
201.243
 11
43.0394
 21
200.627
  0
LINE
  8
0
 10
43.0394
 20
200.627
 11
43
 21
200
  0
LINE
  8
0
 10
43
 20
200
 11
43
 21
185.592
  0
LINE
  8
0
 10
43
 20
185.592
 11
57
 21
185.592
  0
LINE
  8
0
 10
57
 20
185.592
 11
57
 21
200
  0
LINE
  8
0
 10
49.8116
 20
195.006
 11
49.4379
 21
195.053
  0
LINE
  8
0
 10
49.4379
 20
195.053
 11
49.0729
 21
195.147
  0
LINE
  8
0
 10
49.0729
 20
195.147
 11
48.7227
 21
195.286
  0
LINE
  8
0
 10
48.7227
 20
195.286
 11
48.3925
 21
195.467
  0
LINE
  8
0
 10
48.3925
 20
195.467
 11
48.0877
 21
195.688
  0
LINE
  8
0
 10
48.0877
 20
195.688
 11
47.8131
 21
195.946
  0
LINE
  8
0
 10
47.8131
 20
195.946
 11
47.5729
 21
196.237
  0
LINE
  8
0
 10
47.5729
 20
196.237
 11
47.3711
 21
196.555
  0
LINE
  8
0
 10
47.3711
 20
196.555
 11
47.2107
 21
196.896
  0
LINE
  8
0
 10
47.2107
 20
196.896
 11
47.0942
 21
197.254
  0
LINE
  8
0
 10
47.0942
 20
197.254
 11
47.0237
 21
197.624
  0
LINE
  8
0
 10
47.0237
 20
197.624
 11
47
 21
198
  0
LINE
  8
0
 10
47
 20
198
 11
47.0237
 21
198.376
  0
LINE
  8
0
 10
47.0237
 20
198.376
 11
47.0942
 21
198.746
  0
LINE
  8
0
 10
47.0942
 20
198.746
 11
47.2107
 21
199.104
  0
LINE
  8
0
 10
47.2107
 20
199.104
 11
47.3711
 21
199.445
  0
LINE
  8
0
 10
47.3711
 20
199.445
 11
47.5729
 21
199.763
  0
LINE
  8
0
 10
47.5729
 20
199.763
 11
47.8131
 21
200.054
  0
LINE
  8
0
 10
47.8131
 20
200.054
 11
48.0877
 21
200.312
  0
LINE
  8
0
 10
48.0877
 20
200.312
 11
48.3925
 21
200.533
  0
LINE
  8
0
 10
48.3925
 20
200.533
 11
48.7227
 21
200.714
  0
LINE
  8
0
 10
48.7227
 20
200.714
 11
49.0729
 21
200.853
  0
LINE
  8
0
 10
49.0729
 20
200.853
 11
49.4379
 21
200.947
  0
LINE
  8
0
 10
49.4379
 20
200.947
 11
49.8116
 21
200.994
  0
LINE
  8
0
 10
49.8116
 20
200.994
 11
50.1884
 21
200.994
  0
LINE
  8
0
 10
50.1884
 20
200.994
 11
50.5621
 21
200.947
  0
LINE
  8
0
 10
50.5621
 20
200.947
 11
50.927
 21
200.853
  0
LINE
  8
0
 10
50.927
 20
200.853
 11
51.2773
 21
200.714
  0
LINE
  8
0
 10
51.2773
 20
200.714
 11
51.6075
 21
200.533
  0
LINE
  8
0
 10
51.6075
 20
200.533
 11
51.9123
 21
200.312
  0
LINE
  8
0
 10
51.9123
 20
200.312
 11
52.1869
 21
200.054
  0
LINE
  8
0
 10
52.1869
 20
200.054
 11
52.427
 21
199.763
  0
LINE
  8
0
 10
52.427
 20
199.763
 11
52.6289
 21
199.445
  0
LINE
  8
0
 10
52.6289
 20
199.445
 11
52.7893
 21
199.104
  0
LINE
  8
0
 10
52.7893
 20
199.104
 11
52.9057
 21
198.746
  0
LINE
  8
0
 10
52.9057
 20
198.746
 11
52.9763
 21
198.376
  0
LINE
  8
0
 10
52.9763
 20
198.376
 11
53
 21
198
  0
LINE
  8
0
 10
53
 20
198
 11
52.9763
 21
197.624
  0
LINE
  8
0
 10
52.9763
 20
197.624
 11
52.9057
 21
197.254
  0
LINE
  8
0
 10
52.9057
 20
197.254
 11
52.7893
 21
196.896
  0
LINE
  8
0
 10
52.7893
 20
196.896
 11
52.6289
 21
196.555
  0
LINE
  8
0
 10
52.6289
 20
196.555
 11
52.427
 21
196.237
  0
LINE
  8
0
 10
52.427
 20
196.237
 11
52.1869
 21
195.946
  0
LINE
  8
0
 10
52.1869
 20
195.946
 11
51.9123
 21
195.688
  0
LINE
  8
0
 10
51.9123
 20
195.688
 11
51.6075
 21
195.467
  0
LINE
  8
0
 10
51.6075
 20
195.467
 11
51.2773
 21
195.286
  0
LINE
  8
0
 10
51.2773
 20
195.286
 11
50.927
 21
195.147
  0
LINE
  8
0
 10
50.927
 20
195.147
 11
50.5621
 21
195.053
  0
LINE
  8
0
 10
50.5621
 20
195.053
 11
50.1884
 21
195.006
  0
LINE
  8
0
 10
50.1884
 20
195.006
 11
49.8116
 21
195.006
  0
LINE
  8
0
 10
49.887
 20
188.704
 11
49.6627
 21
188.732
  0
LINE
  8
0
 10
49.6627
 20
188.732
 11
49.4438
 21
188.788
  0
LINE
  8
0
 10
49.4438
 20
188.788
 11
49.2336
 21
188.871
  0
LINE
  8
0
 10
49.2336
 20
188.871
 11
49.0355
 21
188.98
  0
LINE
  8
0
 10
49.0355
 20
188.98
 11
48.8526
 21
189.113
  0
LINE
  8
0
 10
48.8526
 20
189.113
 11
48.6879
 21
189.268
  0
LINE
  8
0
 10
48.6879
 20
189.268
 11
48.5438
 21
189.442
  0
LINE
  8
0
 10
48.5438
 20
189.442
 11
48.4226
 21
189.633
  0
LINE
  8
0
 10
48.4226
 20
189.633
 11
48.3264
 21
189.837
  0
LINE
  8
0
 10
48.3264
 20
189.837
 11
48.2565
 21
190.052
  0
LINE
  8
0
 10
48.2565
 20
190.052
 11
48.2142
 21
190.274
  0
LINE
  8
0
 10
48.2142
 20
190.274
 11
48.2
 21
190.5
  0
LINE
  8
0
 10
48.2
 20
190.5
 11
48.2142
 21
190.726
  0
LINE
  8
0
 10
48.2142
 20
190.726
 11
48.2565
 21
190.948
  0
LINE
  8
0
 10
48.2565
 20
190.948
 11
48.3264
 21
191.163
  0
LINE
  8
0
 10
48.3264
 20
191.163
 11
48.4226
 21
191.367
  0
LINE
  8
0
 10
48.4226
 20
191.367
 11
48.5438
 21
191.558
  0
LINE
  8
0
 10
48.5438
 20
191.558
 11
48.6879
 21
191.732
  0
LINE
  8
0
 10
48.6879
 20
191.732
 11
48.8526
 21
191.887
  0
LINE
  8
0
 10
48.8526
 20
191.887
 11
49.0355
 21
192.02
  0
LINE
  8
0
 10
49.0355
 20
192.02
 11
49.2336
 21
192.129
  0
LINE
  8
0
 10
49.2336
 20
192.129
 11
49.4438
 21
192.212
  0
LINE
  8
0
 10
49.4438
 20
192.212
 11
49.6627
 21
192.268
  0
LINE
  8
0
 10
49.6627
 20
192.268
 11
49.887
 21
192.296
  0
LINE
  8
0
 10
49.887
 20
192.296
 11
50.113
 21
192.296
  0
LINE
  8
0
 10
50.113
 20
192.296
 11
50.3373
 21
192.268
  0
LINE
  8
0
 10
50.3373
 20
192.268
 11
50.5562
 21
192.212
  0
LINE
  8
0
 10
50.5562
 20
192.212
 11
50.7664
 21
192.129
  0
LINE
  8
0
 10
50.7664
 20
192.129
 11
50.9645
 21
192.02
  0
LINE
  8
0
 10
50.9645
 20
192.02
 11
51.1474
 21
191.887
  0
LINE
  8
0
 10
51.1474
 20
191.887
 11
51.3121
 21
191.732
  0
LINE
  8
0
 10
51.3121
 20
191.732
 11
51.4562
 21
191.558
  0
LINE
  8
0
 10
51.4562
 20
191.558
 11
51.5773
 21
191.367
  0
LINE
  8
0
 10
51.5773
 20
191.367
 11
51.6736
 21
191.163
  0
LINE
  8
0
 10
51.6736
 20
191.163
 11
51.7434
 21
190.948
  0
LINE
  8
0
 10
51.7434
 20
190.948
 11
51.7858
 21
190.726
  0
LINE
  8
0
 10
51.7858
 20
190.726
 11
51.8
 21
190.5
  0
LINE
  8
0
 10
51.8
 20
190.5
 11
51.7858
 21
190.274
  0
LINE
  8
0
 10
51.7858
 20
190.274
 11
51.7434
 21
190.052
  0
LINE
  8
0
 10
51.7434
 20
190.052
 11
51.6736
 21
189.837
  0
LINE
  8
0
 10
51.6736
 20
189.837
 11
51.5773
 21
189.633
  0
LINE
  8
0
 10
51.5773
 20
189.633
 11
51.4562
 21
189.442
  0
LINE
  8
0
 10
51.4562
 20
189.442
 11
51.3121
 21
189.268
  0
LINE
  8
0
 10
51.3121
 20
189.268
 11
51.1474
 21
189.113
  0
LINE
  8
0
 10
51.1474
 20
189.113
 11
50.9645
 21
188.98
  0
LINE
  8
0
 10
50.9645
 20
188.98
 11
50.7664
 21
188.871
  0
LINE
  8
0
 10
50.7664
 20
188.871
 11
50.5562
 21
188.788
  0
LINE
  8
0
 10
50.5562
 20
188.788
 11
50.3373
 21
188.732
  0
LINE
  8
0
 10
50.3373
 20
188.732
 11
50.113
 21
188.704
  0
LINE
  8
0
 10
50.113
 20
188.704
 11
49.887
 21
188.704
  0
LINE
  8
0
 10
7
 20
180.408
 11
-7
 21
180.408
  0
LINE
  8
0
 10
-7
 20
180.408
 11
-7
 21
178.092
  0
LINE
  8
0
 10
-7
 20
178.092
 11
7
 21
178.092
  0
LINE
  8
0
 10
7
 20
178.092
 11
7
 21
180.408
  0
LINE
  8
0
 10
57
 20
180.408
 11
43
 21
180.408
  0
LINE
  8
0
 10
43
 20
180.408
 11
43
 21
178.092
  0
LINE
  8
0
 10
43
 20
178.092
 11
57
 21
178.092
  0
LINE
  8
0
 10
57
 20
178.092
 11
57
 21
180.408
  0
LINE
  8
0
 10
57
 20
172.908
 11
43
 21
172.908
  0
LINE
  8
0
 10
43
 20
172.908
 11
43
 21
170.592
  0
LINE
  8
0
 10
43
 20
170.592
 11
57
 21
170.592
  0
LINE
  8
0
 10
57
 20
170.592
 11
57
 21
172.908
  0
LINE
  8
0
 10
7
 20
172.908
 11
-7
 21
172.908
  0
LINE
  8
0
 10
-7
 20
172.908
 11
-7
 21
170.592
  0
LINE
  8
0
 10
-7
 20
170.592
 11
7
 21
170.592
  0
LINE
  8
0
 10
7
 20
170.592
 11
7
 21
172.908
  0
LINE
  8
0
 10
7
 20
165.408
 11
-7
 21
165.408
  0
LINE
  8
0
 10
-7
 20
165.408
 11
-7
 21
163.092
  0
LINE
  8
0
 10
-7
 20
163.092
 11
7
 21
163.092
  0
LINE
  8
0
 10
7
 20
163.092
 11
7
 21
165.408
  0
LINE
  8
0
 10
57
 20
165.408
 11
43
 21
165.408
  0
LINE
  8
0
 10
43
 20
165.408
 11
43
 21
163.092
  0
LINE
  8
0
 10
43
 20
163.092
 11
57
 21
163.092
  0
LINE
  8
0
 10
57
 20
163.092
 11
57
 21
165.408
  0
LINE
  8
0
 10
7
 20
157.908
 11
-7
 21
157.908
  0
LINE
  8
0
 10
-7
 20
157.908
 11
-7
 21
155.592
  0
LINE
  8
0
 10
-7
 20
155.592
 11
7
 21
155.592
  0
LINE
  8
0
 10
7
 20
155.592
 11
7
 21
157.908
  0
LINE
  8
0
 10
57
 20
157.908
 11
43
 21
157.908
  0
LINE
  8
0
 10
43
 20
157.908
 11
43
 21
155.592
  0
LINE
  8
0
 10
43
 20
155.592
 11
57
 21
155.592
  0
LINE
  8
0
 10
57
 20
155.592
 11
57
 21
157.908
  0
LINE
  8
0
 10
52.9369
 20
131.089
 11
53.5451
 21
131.245
  0
LINE
  8
0
 10
53.5451
 20
131.245
 11
54.1289
 21
131.476
  0
LINE
  8
0
 10
54.1289
 20
131.476
 11
54.6791
 21
131.778
  0
LINE
  8
0
 10
54.6791
 20
131.778
 11
55.1871
 21
132.147
  0
LINE
  8
0
 10
55.1871
 20
132.147
 11
55.6448
 21
132.577
  0
LINE
  8
0
 10
55.6448
 20
132.577
 11
56.0451
 21
133.061
  0
LINE
  8
0
 10
56.0451
 20
133.061
 11
56.3815
 21
133.591
  0
LINE
  8
0
 10
56.3815
 20
133.591
 11
56.6489
 21
134.159
  0
LINE
  8
0
 10
56.6489
 20
134.159
 11
56.8429
 21
134.757
  0
LINE
  8
0
 10
56.8429
 20
134.757
 11
56.9606
 21
135.373
  0
LINE
  8
0
 10
56.9606
 20
135.373
 11
57
 21
136
  0
LINE
  8
0
 10
57
 20
136
 11
57
 21
150.408
  0
LINE
  8
0
 10
57
 20
150.408
 11
43
 21
150.408
  0
LINE
  8
0
 10
43
 20
150.408
 11
43
 21
136
  0
LINE
  8
0
 10
43
 20
136
 11
43.0394
 21
135.373
  0
LINE
  8
0
 10
43.0394
 20
135.373
 11
43.1571
 21
134.757
  0
LINE
  8
0
 10
43.1571
 20
134.757
 11
43.3511
 21
134.159
  0
LINE
  8
0
 10
43.3511
 20
134.159
 11
43.6185
 21
133.591
  0
LINE
  8
0
 10
43.6185
 20
133.591
 11
43.9549
 21
133.061
  0
LINE
  8
0
 10
43.9549
 20
133.061
 11
44.3551
 21
132.577
  0
LINE
  8
0
 10
44.3551
 20
132.577
 11
44.8129
 21
132.147
  0
LINE
  8
0
 10
44.8129
 20
132.147
 11
45.3209
 21
131.778
  0
LINE
  8
0
 10
45.3209
 20
131.778
 11
45.8711
 21
131.476
  0
LINE
  8
0
 10
45.8711
 20
131.476
 11
46.4549
 21
131.245
  0
LINE
  8
0
 10
46.4549
 20
131.245
 11
47.0631
 21
131.089
  0
LINE
  8
0
 10
47.0631
 20
131.089
 11
47.686
 21
131.01
  0
LINE
  8
0
 10
47.686
 20
131.01
 11
52.3139
 21
131.01
  0
LINE
  8
0
 10
52.3139
 20
131.01
 11
52.9369
 21
131.089
  0
LINE
  8
0
 10
49.887
 20
143.704
 11
49.6627
 21
143.732
  0
LINE
  8
0
 10
49.6627
 20
143.732
 11
49.4438
 21
143.788
  0
LINE
  8
0
 10
49.4438
 20
143.788
 11
49.2336
 21
143.871
  0
LINE
  8
0
 10
49.2336
 20
143.871
 11
49.0355
 21
143.98
  0
LINE
  8
0
 10
49.0355
 20
143.98
 11
48.8526
 21
144.113
  0
LINE
  8
0
 10
48.8526
 20
144.113
 11
48.6879
 21
144.268
  0
LINE
  8
0
 10
48.6879
 20
144.268
 11
48.5438
 21
144.442
  0
LINE
  8
0
 10
48.5438
 20
144.442
 11
48.4226
 21
144.633
  0
LINE
  8
0
 10
48.4226
 20
144.633
 11
48.3264
 21
144.837
  0
LINE
  8
0
 10
48.3264
 20
144.837
 11
48.2565
 21
145.052
  0
LINE
  8
0
 10
48.2565
 20
145.052
 11
48.2142
 21
145.274
  0
LINE
  8
0
 10
48.2142
 20
145.274
 11
48.2
 21
145.5
  0
LINE
  8
0
 10
48.2
 20
145.5
 11
48.2142
 21
145.726
  0
LINE
  8
0
 10
48.2142
 20
145.726
 11
48.2565
 21
145.948
  0
LINE
  8
0
 10
48.2565
 20
145.948
 11
48.3264
 21
146.163
  0
LINE
  8
0
 10
48.3264
 20
146.163
 11
48.4226
 21
146.367
  0
LINE
  8
0
 10
48.4226
 20
146.367
 11
48.5438
 21
146.558
  0
LINE
  8
0
 10
48.5438
 20
146.558
 11
48.6879
 21
146.732
  0
LINE
  8
0
 10
48.6879
 20
146.732
 11
48.8526
 21
146.887
  0
LINE
  8
0
 10
48.8526
 20
146.887
 11
49.0355
 21
147.02
  0
LINE
  8
0
 10
49.0355
 20
147.02
 11
49.2336
 21
147.129
  0
LINE
  8
0
 10
49.2336
 20
147.129
 11
49.4438
 21
147.212
  0
LINE
  8
0
 10
49.4438
 20
147.212
 11
49.6627
 21
147.268
  0
LINE
  8
0
 10
49.6627
 20
147.268
 11
49.887
 21
147.296
  0
LINE
  8
0
 10
49.887
 20
147.296
 11
50.113
 21
147.296
  0
LINE
  8
0
 10
50.113
 20
147.296
 11
50.3373
 21
147.268
  0
LINE
  8
0
 10
50.3373
 20
147.268
 11
50.5562
 21
147.212
  0
LINE
  8
0
 10
50.5562
 20
147.212
 11
50.7664
 21
147.129
  0
LINE
  8
0
 10
50.7664
 20
147.129
 11
50.9645
 21
147.02
  0
LINE
  8
0
 10
50.9645
 20
147.02
 11
51.1474
 21
146.887
  0
LINE
  8
0
 10
51.1474
 20
146.887
 11
51.3121
 21
146.732
  0
LINE
  8
0
 10
51.3121
 20
146.732
 11
51.4562
 21
146.558
  0
LINE
  8
0
 10
51.4562
 20
146.558
 11
51.5773
 21
146.367
  0
LINE
  8
0
 10
51.5773
 20
146.367
 11
51.6736
 21
146.163
  0
LINE
  8
0
 10
51.6736
 20
146.163
 11
51.7434
 21
145.948
  0
LINE
  8
0
 10
51.7434
 20
145.948
 11
51.7858
 21
145.726
  0
LINE
  8
0
 10
51.7858
 20
145.726
 11
51.8
 21
145.5
  0
LINE
  8
0
 10
51.8
 20
145.5
 11
51.7858
 21
145.274
  0
LINE
  8
0
 10
51.7858
 20
145.274
 11
51.7434
 21
145.052
  0
LINE
  8
0
 10
51.7434
 20
145.052
 11
51.6736
 21
144.837
  0
LINE
  8
0
 10
51.6736
 20
144.837
 11
51.5773
 21
144.633
  0
LINE
  8
0
 10
51.5773
 20
144.633
 11
51.4562
 21
144.442
  0
LINE
  8
0
 10
51.4562
 20
144.442
 11
51.3121
 21
144.268
  0
LINE
  8
0
 10
51.3121
 20
144.268
 11
51.1474
 21
144.113
  0
LINE
  8
0
 10
51.1474
 20
144.113
 11
50.9645
 21
143.98
  0
LINE
  8
0
 10
50.9645
 20
143.98
 11
50.7664
 21
143.871
  0
LINE
  8
0
 10
50.7664
 20
143.871
 11
50.5562
 21
143.788
  0
LINE
  8
0
 10
50.5562
 20
143.788
 11
50.3373
 21
143.732
  0
LINE
  8
0
 10
50.3373
 20
143.732
 11
50.113
 21
143.704
  0
LINE
  8
0
 10
50.113
 20
143.704
 11
49.887
 21
143.704
  0
LINE
  8
0
 10
49.8116
 20
135.006
 11
49.4379
 21
135.053
  0
LINE
  8
0
 10
49.4379
 20
135.053
 11
49.0729
 21
135.147
  0
LINE
  8
0
 10
49.0729
 20
135.147
 11
48.7227
 21
135.286
  0
LINE
  8
0
 10
48.7227
 20
135.286
 11
48.3925
 21
135.467
  0
LINE
  8
0
 10
48.3925
 20
135.467
 11
48.0877
 21
135.688
  0
LINE
  8
0
 10
48.0877
 20
135.688
 11
47.8131
 21
135.946
  0
LINE
  8
0
 10
47.8131
 20
135.946
 11
47.5729
 21
136.237
  0
LINE
  8
0
 10
47.5729
 20
136.237
 11
47.3711
 21
136.555
  0
LINE
  8
0
 10
47.3711
 20
136.555
 11
47.2107
 21
136.896
  0
LINE
  8
0
 10
47.2107
 20
136.896
 11
47.0942
 21
137.254
  0
LINE
  8
0
 10
47.0942
 20
137.254
 11
47.0237
 21
137.624
  0
LINE
  8
0
 10
47.0237
 20
137.624
 11
47
 21
138
  0
LINE
  8
0
 10
47
 20
138
 11
47.0237
 21
138.376
  0
LINE
  8
0
 10
47.0237
 20
138.376
 11
47.0942
 21
138.746
  0
LINE
  8
0
 10
47.0942
 20
138.746
 11
47.2107
 21
139.104
  0
LINE
  8
0
 10
47.2107
 20
139.104
 11
47.3711
 21
139.445
  0
LINE
  8
0
 10
47.3711
 20
139.445
 11
47.5729
 21
139.763
  0
LINE
  8
0
 10
47.5729
 20
139.763
 11
47.8131
 21
140.054
  0
LINE
  8
0
 10
47.8131
 20
140.054
 11
48.0877
 21
140.312
  0
LINE
  8
0
 10
48.0877
 20
140.312
 11
48.3925
 21
140.533
  0
LINE
  8
0
 10
48.3925
 20
140.533
 11
48.7227
 21
140.714
  0
LINE
  8
0
 10
48.7227
 20
140.714
 11
49.0729
 21
140.853
  0
LINE
  8
0
 10
49.0729
 20
140.853
 11
49.4379
 21
140.947
  0
LINE
  8
0
 10
49.4379
 20
140.947
 11
49.8116
 21
140.994
  0
LINE
  8
0
 10
49.8116
 20
140.994
 11
50.1884
 21
140.994
  0
LINE
  8
0
 10
50.1884
 20
140.994
 11
50.5621
 21
140.947
  0
LINE
  8
0
 10
50.5621
 20
140.947
 11
50.927
 21
140.853
  0
LINE
  8
0
 10
50.927
 20
140.853
 11
51.2773
 21
140.714
  0
LINE
  8
0
 10
51.2773
 20
140.714
 11
51.6075
 21
140.533
  0
LINE
  8
0
 10
51.6075
 20
140.533
 11
51.9123
 21
140.312
  0
LINE
  8
0
 10
51.9123
 20
140.312
 11
52.1869
 21
140.054
  0
LINE
  8
0
 10
52.1869
 20
140.054
 11
52.427
 21
139.763
  0
LINE
  8
0
 10
52.427
 20
139.763
 11
52.6289
 21
139.445
  0
LINE
  8
0
 10
52.6289
 20
139.445
 11
52.7893
 21
139.104
  0
LINE
  8
0
 10
52.7893
 20
139.104
 11
52.9057
 21
138.746
  0
LINE
  8
0
 10
52.9057
 20
138.746
 11
52.9763
 21
138.376
  0
LINE
  8
0
 10
52.9763
 20
138.376
 11
53
 21
138
  0
LINE
  8
0
 10
53
 20
138
 11
52.9763
 21
137.624
  0
LINE
  8
0
 10
52.9763
 20
137.624
 11
52.9057
 21
137.254
  0
LINE
  8
0
 10
52.9057
 20
137.254
 11
52.7893
 21
136.896
  0
LINE
  8
0
 10
52.7893
 20
136.896
 11
52.6289
 21
136.555
  0
LINE
  8
0
 10
52.6289
 20
136.555
 11
52.427
 21
136.237
  0
LINE
  8
0
 10
52.427
 20
136.237
 11
52.1869
 21
135.946
  0
LINE
  8
0
 10
52.1869
 20
135.946
 11
51.9123
 21
135.688
  0
LINE
  8
0
 10
51.9123
 20
135.688
 11
51.6075
 21
135.467
  0
LINE
  8
0
 10
51.6075
 20
135.467
 11
51.2773
 21
135.286
  0
LINE
  8
0
 10
51.2773
 20
135.286
 11
50.927
 21
135.147
  0
LINE
  8
0
 10
50.927
 20
135.147
 11
50.5621
 21
135.053
  0
LINE
  8
0
 10
50.5621
 20
135.053
 11
50.1884
 21
135.006
  0
LINE
  8
0
 10
50.1884
 20
135.006
 11
49.8116
 21
135.006
  0
LINE
  8
0
 10
2.9369
 20
131.089
 11
3.54507
 21
131.245
  0
LINE
  8
0
 10
3.54507
 20
131.245
 11
4.12889
 21
131.476
  0
LINE
  8
0
 10
4.12889
 20
131.476
 11
4.67912
 21
131.778
  0
LINE
  8
0
 10
4.67912
 20
131.778
 11
5.18712
 21
132.147
  0
LINE
  8
0
 10
5.18712
 20
132.147
 11
5.64484
 21
132.577
  0
LINE
  8
0
 10
5.64484
 20
132.577
 11
6.04507
 21
133.061
  0
LINE
  8
0
 10
6.04507
 20
133.061
 11
6.38153
 21
133.591
  0
LINE
  8
0
 10
6.38153
 20
133.591
 11
6.64888
 21
134.159
  0
LINE
  8
0
 10
6.64888
 20
134.159
 11
6.84291
 21
134.757
  0
LINE
  8
0
 10
6.84291
 20
134.757
 11
6.96057
 21
135.373
  0
LINE
  8
0
 10
6.96057
 20
135.373
 11
7
 21
136
  0
LINE
  8
0
 10
7
 20
136
 11
7
 21
150.408
  0
LINE
  8
0
 10
7
 20
150.408
 11
-7
 21
150.408
  0
LINE
  8
0
 10
-7
 20
150.408
 11
-7
 21
136
  0
LINE
  8
0
 10
-7
 20
136
 11
-6.96057
 21
135.373
  0
LINE
  8
0
 10
-6.96057
 20
135.373
 11
-6.84291
 21
134.757
  0
LINE
  8
0
 10
-6.84291
 20
134.757
 11
-6.64888
 21
134.159
  0
LINE
  8
0
 10
-6.64888
 20
134.159
 11
-6.38153
 21
133.591
  0
LINE
  8
0
 10
-6.38153
 20
133.591
 11
-6.04507
 21
133.061
  0
LINE
  8
0
 10
-6.04507
 20
133.061
 11
-5.64484
 21
132.577
  0
LINE
  8
0
 10
-5.64484
 20
132.577
 11
-5.18712
 21
132.147
  0
LINE
  8
0
 10
-5.18712
 20
132.147
 11
-4.67912
 21
131.778
  0
LINE
  8
0
 10
-4.67912
 20
131.778
 11
-4.12889
 21
131.476
  0
LINE
  8
0
 10
-4.12889
 20
131.476
 11
-3.54507
 21
131.245
  0
LINE
  8
0
 10
-3.54507
 20
131.245
 11
-2.9369
 21
131.089
  0
LINE
  8
0
 10
-2.9369
 20
131.089
 11
-2.31395
 21
131.01
  0
LINE
  8
0
 10
-2.31395
 20
131.01
 11
2.31395
 21
131.01
  0
LINE
  8
0
 10
2.31395
 20
131.01
 11
2.9369
 21
131.089
  0
LINE
  8
0
 10
-0.113022
 20
143.704
 11
-0.33728
 21
143.732
  0
LINE
  8
0
 10
-0.33728
 20
143.732
 11
-0.556229
 21
143.788
  0
LINE
  8
0
 10
-0.556229
 20
143.788
 11
-0.766388
 21
143.871
  0
LINE
  8
0
 10
-0.766388
 20
143.871
 11
-0.964478
 21
143.98
  0
LINE
  8
0
 10
-0.964478
 20
143.98
 11
-1.14735
 21
144.113
  0
LINE
  8
0
 10
-1.14735
 20
144.113
 11
-1.31213
 21
144.268
  0
LINE
  8
0
 10
-1.31213
 20
144.268
 11
-1.45622
 21
144.442
  0
LINE
  8
0
 10
-1.45622
 20
144.442
 11
-1.57735
 21
144.633
  0
LINE
  8
0
 10
-1.57735
 20
144.633
 11
-1.67358
 21
144.837
  0
LINE
  8
0
 10
-1.67358
 20
144.837
 11
-1.74344
 21
145.052
  0
LINE
  8
0
 10
-1.74344
 20
145.052
 11
-1.7858
 21
145.274
  0
LINE
  8
0
 10
-1.7858
 20
145.274
 11
-1.79999
 21
145.5
  0
LINE
  8
0
 10
-1.79999
 20
145.5
 11
-1.7858
 21
145.726
  0
LINE
  8
0
 10
-1.7858
 20
145.726
 11
-1.74344
 21
145.948
  0
LINE
  8
0
 10
-1.74344
 20
145.948
 11
-1.67358
 21
146.163
  0
LINE
  8
0
 10
-1.67358
 20
146.163
 11
-1.57735
 21
146.367
  0
LINE
  8
0
 10
-1.57735
 20
146.367
 11
-1.45622
 21
146.558
  0
LINE
  8
0
 10
-1.45622
 20
146.558
 11
-1.31213
 21
146.732
  0
LINE
  8
0
 10
-1.31213
 20
146.732
 11
-1.14735
 21
146.887
  0
LINE
  8
0
 10
-1.14735
 20
146.887
 11
-0.964478
 21
147.02
  0
LINE
  8
0
 10
-0.964478
 20
147.02
 11
-0.766388
 21
147.129
  0
LINE
  8
0
 10
-0.766388
 20
147.129
 11
-0.556229
 21
147.212
  0
LINE
  8
0
 10
-0.556229
 20
147.212
 11
-0.33728
 21
147.268
  0
LINE
  8
0
 10
-0.33728
 20
147.268
 11
-0.113022
 21
147.296
  0
LINE
  8
0
 10
-0.113022
 20
147.296
 11
0.113022
 21
147.296
  0
LINE
  8
0
 10
0.113022
 20
147.296
 11
0.33728
 21
147.268
  0
LINE
  8
0
 10
0.33728
 20
147.268
 11
0.556229
 21
147.212
  0
LINE
  8
0
 10
0.556229
 20
147.212
 11
0.766388
 21
147.129
  0
LINE
  8
0
 10
0.766388
 20
147.129
 11
0.964478
 21
147.02
  0
LINE
  8
0
 10
0.964478
 20
147.02
 11
1.14735
 21
146.887
  0
LINE
  8
0
 10
1.14735
 20
146.887
 11
1.31213
 21
146.732
  0
LINE
  8
0
 10
1.31213
 20
146.732
 11
1.45622
 21
146.558
  0
LINE
  8
0
 10
1.45622
 20
146.558
 11
1.57735
 21
146.367
  0
LINE
  8
0
 10
1.57735
 20
146.367
 11
1.67358
 21
146.163
  0
LINE
  8
0
 10
1.67358
 20
146.163
 11
1.74344
 21
145.948
  0
LINE
  8
0
 10
1.74344
 20
145.948
 11
1.7858
 21
145.726
  0
LINE
  8
0
 10
1.7858
 20
145.726
 11
1.79999
 21
145.5
  0
LINE
  8
0
 10
1.79999
 20
145.5
 11
1.7858
 21
145.274
  0
LINE
  8
0
 10
1.7858
 20
145.274
 11
1.74344
 21
145.052
  0
LINE
  8
0
 10
1.74344
 20
145.052
 11
1.67358
 21
144.837
  0
LINE
  8
0
 10
1.67358
 20
144.837
 11
1.57735
 21
144.633
  0
LINE
  8
0
 10
1.57735
 20
144.633
 11
1.45622
 21
144.442
  0
LINE
  8
0
 10
1.45622
 20
144.442
 11
1.31213
 21
144.268
  0
LINE
  8
0
 10
1.31213
 20
144.268
 11
1.14735
 21
144.113
  0
LINE
  8
0
 10
1.14735
 20
144.113
 11
0.964478
 21
143.98
  0
LINE
  8
0
 10
0.964478
 20
143.98
 11
0.766388
 21
143.871
  0
LINE
  8
0
 10
0.766388
 20
143.871
 11
0.556229
 21
143.788
  0
LINE
  8
0
 10
0.556229
 20
143.788
 11
0.33728
 21
143.732
  0
LINE
  8
0
 10
0.33728
 20
143.732
 11
0.113022
 21
143.704
  0
LINE
  8
0
 10
0.113022
 20
143.704
 11
-0.113022
 21
143.704
  0
LINE
  8
0
 10
-0.194641
 20
134.906
 11
-0.580872
 21
134.955
  0
LINE
  8
0
 10
-0.580872
 20
134.955
 11
-0.957947
 21
135.052
  0
LINE
  8
0
 10
-0.957947
 20
135.052
 11
-1.3199
 21
135.195
  0
LINE
  8
0
 10
-1.3199
 20
135.195
 11
-1.66106
 21
135.383
  0
LINE
  8
0
 10
-1.66106
 20
135.383
 11
-1.97601
 21
135.611
  0
LINE
  8
0
 10
-1.97601
 20
135.611
 11
-2.2598
 21
135.878
  0
LINE
  8
0
 10
-2.2598
 20
135.878
 11
-2.50795
 21
136.178
  0
LINE
  8
0
 10
-2.50795
 20
136.178
 11
-2.71654
 21
136.507
  0
LINE
  8
0
 10
-2.71654
 20
136.507
 11
-2.88229
 21
136.859
  0
LINE
  8
0
 10
-2.88229
 20
136.859
 11
-3.00259
 21
137.229
  0
LINE
  8
0
 10
-3.00259
 20
137.229
 11
-3.07555
 21
137.611
  0
LINE
  8
0
 10
-3.07555
 20
137.611
 11
-3.09999
 21
138
  0
LINE
  8
0
 10
-3.09999
 20
138
 11
-3.07555
 21
138.389
  0
LINE
  8
0
 10
-3.07555
 20
138.389
 11
-3.00259
 21
138.771
  0
LINE
  8
0
 10
-3.00259
 20
138.771
 11
-2.88229
 21
139.141
  0
LINE
  8
0
 10
-2.88229
 20
139.141
 11
-2.71654
 21
139.493
  0
LINE
  8
0
 10
-2.71654
 20
139.493
 11
-2.50795
 21
139.822
  0
LINE
  8
0
 10
-2.50795
 20
139.822
 11
-2.2598
 21
140.122
  0
LINE
  8
0
 10
-2.2598
 20
140.122
 11
-1.97601
 21
140.389
  0
LINE
  8
0
 10
-1.97601
 20
140.389
 11
-1.66106
 21
140.617
  0
LINE
  8
0
 10
-1.66106
 20
140.617
 11
-1.3199
 21
140.805
  0
LINE
  8
0
 10
-1.3199
 20
140.805
 11
-0.957947
 21
140.948
  0
LINE
  8
0
 10
-0.957947
 20
140.948
 11
-0.580872
 21
141.045
  0
LINE
  8
0
 10
-0.580872
 20
141.045
 11
-0.194641
 21
141.094
  0
LINE
  8
0
 10
-0.194641
 20
141.094
 11
0.194641
 21
141.094
  0
LINE
  8
0
 10
0.194641
 20
141.094
 11
0.580872
 21
141.045
  0
LINE
  8
0
 10
0.580872
 20
141.045
 11
0.957947
 21
140.948
  0
LINE
  8
0
 10
0.957947
 20
140.948
 11
1.3199
 21
140.805
  0
LINE
  8
0
 10
1.3199
 20
140.805
 11
1.66106
 21
140.617
  0
LINE
  8
0
 10
1.66106
 20
140.617
 11
1.97601
 21
140.389
  0
LINE
  8
0
 10
1.97601
 20
140.389
 11
2.2598
 21
140.122
  0
LINE
  8
0
 10
2.2598
 20
140.122
 11
2.50795
 21
139.822
  0
LINE
  8
0
 10
2.50795
 20
139.822
 11
2.71654
 21
139.493
  0
LINE
  8
0
 10
2.71654
 20
139.493
 11
2.88229
 21
139.141
  0
LINE
  8
0
 10
2.88229
 20
139.141
 11
3.00259
 21
138.771
  0
LINE
  8
0
 10
3.00259
 20
138.771
 11
3.07555
 21
138.389
  0
LINE
  8
0
 10
3.07555
 20
138.389
 11
3.09999
 21
138
  0
LINE
  8
0
 10
3.09999
 20
138
 11
3.07555
 21
137.611
  0
LINE
  8
0
 10
3.07555
 20
137.611
 11
3.00259
 21
137.229
  0
LINE
  8
0
 10
3.00259
 20
137.229
 11
2.88229
 21
136.859
  0
LINE
  8
0
 10
2.88229
 20
136.859
 11
2.71654
 21
136.507
  0
LINE
  8
0
 10
2.71654
 20
136.507
 11
2.50795
 21
136.178
  0
LINE
  8
0
 10
2.50795
 20
136.178
 11
2.2598
 21
135.878
  0
LINE
  8
0
 10
2.2598
 20
135.878
 11
1.97601
 21
135.611
  0
LINE
  8
0
 10
1.97601
 20
135.611
 11
1.66106
 21
135.383
  0
LINE
  8
0
 10
1.66106
 20
135.383
 11
1.3199
 21
135.195
  0
LINE
  8
0
 10
1.3199
 20
135.195
 11
0.957947
 21
135.052
  0
LINE
  8
0
 10
0.957947
 20
135.052
 11
0.580872
 21
134.955
  0
LINE
  8
0
 10
0.580872
 20
134.955
 11
0.194641
 21
134.906
  0
LINE
  8
0
 10
0.194641
 20
134.906
 11
-0.194641
 21
134.906
  0
LINE
  8
0
 10
2.9369
 20
47.0886
 11
3.54507
 21
47.2447
  0
LINE
  8
0
 10
3.54507
 20
47.2447
 11
4.12889
 21
47.4759
  0
LINE
  8
0
 10
4.12889
 20
47.4759
 11
4.67912
 21
47.7784
  0
LINE
  8
0
 10
4.67912
 20
47.7784
 11
5.18712
 21
48.1474
  0
LINE
  8
0
 10
5.18712
 20
48.1474
 11
5.64484
 21
48.5773
  0
LINE
  8
0
 10
5.64484
 20
48.5773
 11
6.04507
 21
49.0611
  0
LINE
  8
0
 10
6.04507
 20
49.0611
 11
6.38153
 21
49.5912
  0
LINE
  8
0
 10
6.38153
 20
49.5912
 11
6.64888
 21
50.1594
  0
LINE
  8
0
 10
6.64888
 20
50.1594
 11
6.84291
 21
50.7566
  0
LINE
  8
0
 10
6.84291
 20
50.7566
 11
6.96057
 21
51.3733
  0
LINE
  8
0
 10
6.96057
 20
51.3733
 11
7
 21
52
  0
LINE
  8
0
 10
7
 20
52
 11
7
 21
116
  0
LINE
  8
0
 10
7
 20
116
 11
6.96057
 21
116.627
  0
LINE
  8
0
 10
6.96057
 20
116.627
 11
6.84291
 21
117.243
  0
LINE
  8
0
 10
6.84291
 20
117.243
 11
6.64888
 21
117.841
  0
LINE
  8
0
 10
6.64888
 20
117.841
 11
6.38153
 21
118.409
  0
LINE
  8
0
 10
6.38153
 20
118.409
 11
6.04507
 21
118.939
  0
LINE
  8
0
 10
6.04507
 20
118.939
 11
5.64484
 21
119.423
  0
LINE
  8
0
 10
5.64484
 20
119.423
 11
5.18712
 21
119.853
  0
LINE
  8
0
 10
5.18712
 20
119.853
 11
4.67912
 21
120.222
  0
LINE
  8
0
 10
4.67912
 20
120.222
 11
4.12889
 21
120.524
  0
LINE
  8
0
 10
4.12889
 20
120.524
 11
3.54507
 21
120.755
  0
LINE
  8
0
 10
3.54507
 20
120.755
 11
2.9369
 21
120.911
  0
LINE
  8
0
 10
2.9369
 20
120.911
 11
2.31395
 21
120.99
  0
LINE
  8
0
 10
2.31395
 20
120.99
 11
-2.31395
 21
120.99
  0
LINE
  8
0
 10
-2.31395
 20
120.99
 11
-2.9369
 21
120.911
  0
LINE
  8
0
 10
-2.9369
 20
120.911
 11
-3.54507
 21
120.755
  0
LINE
  8
0
 10
-3.54507
 20
120.755
 11
-4.12889
 21
120.524
  0
LINE
  8
0
 10
-4.12889
 20
120.524
 11
-4.67912
 21
120.222
  0
LINE
  8
0
 10
-4.67912
 20
120.222
 11
-5.18712
 21
119.853
  0
LINE
  8
0
 10
-5.18712
 20
119.853
 11
-5.64484
 21
119.423
  0
LINE
  8
0
 10
-5.64484
 20
119.423
 11
-6.04507
 21
118.939
  0
LINE
  8
0
 10
-6.04507
 20
118.939
 11
-6.38153
 21
118.409
  0
LINE
  8
0
 10
-6.38153
 20
118.409
 11
-6.64888
 21
117.841
  0
LINE
  8
0
 10
-6.64888
 20
117.841
 11
-6.84291
 21
117.243
  0
LINE
  8
0
 10
-6.84291
 20
117.243
 11
-6.96057
 21
116.627
  0
LINE
  8
0
 10
-6.96057
 20
116.627
 11
-7
 21
116
  0
LINE
  8
0
 10
-7
 20
116
 11
-7
 21
52
  0
LINE
  8
0
 10
-7
 20
52
 11
-6.96057
 21
51.3733
  0
LINE
  8
0
 10
-6.96057
 20
51.3733
 11
-6.84291
 21
50.7566
  0
LINE
  8
0
 10
-6.84291
 20
50.7566
 11
-6.64888
 21
50.1594
  0
LINE
  8
0
 10
-6.64888
 20
50.1594
 11
-6.38153
 21
49.5912
  0
LINE
  8
0
 10
-6.38153
 20
49.5912
 11
-6.04507
 21
49.0611
  0
LINE
  8
0
 10
-6.04507
 20
49.0611
 11
-5.64484
 21
48.5773
  0
LINE
  8
0
 10
-5.64484
 20
48.5773
 11
-5.18712
 21
48.1474
  0
LINE
  8
0
 10
-5.18712
 20
48.1474
 11
-4.67912
 21
47.7784
  0
LINE
  8
0
 10
-4.67912
 20
47.7784
 11
-4.12889
 21
47.4759
  0
LINE
  8
0
 10
-4.12889
 20
47.4759
 11
-3.54507
 21
47.2447
  0
LINE
  8
0
 10
-3.54507
 20
47.2447
 11
-2.9369
 21
47.0886
  0
LINE
  8
0
 10
-2.9369
 20
47.0886
 11
-2.31395
 21
47.0099
  0
LINE
  8
0
 10
-2.31395
 20
47.0099
 11
2.31395
 21
47.0099
  0
LINE
  8
0
 10
2.31395
 20
47.0099
 11
2.9369
 21
47.0886
  0
LINE
  8
0
 10
-0.18837
 20
111.006
 11
-0.562134
 21
111.053
  0
LINE
  8
0
 10
-0.562134
 20
111.053
 11
-0.927048
 21
111.147
  0
LINE
  8
0
 10
-0.927048
 20
111.147
 11
-1.27733
 21
111.286
  0
LINE
  8
0
 10
-1.27733
 20
111.286
 11
-1.60747
 21
111.467
  0
LINE
  8
0
 10
-1.60747
 20
111.467
 11
-1.91226
 21
111.688
  0
LINE
  8
0
 10
-1.91226
 20
111.688
 11
-2.1869
 21
111.946
  0
LINE
  8
0
 10
-2.1869
 20
111.946
 11
-2.42705
 21
112.237
  0
LINE
  8
0
 10
-2.42705
 20
112.237
 11
-2.62891
 21
112.555
  0
LINE
  8
0
 10
-2.62891
 20
112.555
 11
-2.78932
 21
112.896
  0
LINE
  8
0
 10
-2.78932
 20
112.896
 11
-2.90575
 21
113.254
  0
LINE
  8
0
 10
-2.90575
 20
113.254
 11
-2.97633
 21
113.624
  0
LINE
  8
0
 10
-2.97633
 20
113.624
 11
-3
 21
114
  0
LINE
  8
0
 10
-3
 20
114
 11
-2.97633
 21
114.376
  0
LINE
  8
0
 10
-2.97633
 20
114.376
 11
-2.90575
 21
114.746
  0
LINE
  8
0
 10
-2.90575
 20
114.746
 11
-2.78932
 21
115.104
  0
LINE
  8
0
 10
-2.78932
 20
115.104
 11
-2.62891
 21
115.445
  0
LINE
  8
0
 10
-2.62891
 20
115.445
 11
-2.42705
 21
115.763
  0
LINE
  8
0
 10
-2.42705
 20
115.763
 11
-2.1869
 21
116.054
  0
LINE
  8
0
 10
-2.1869
 20
116.054
 11
-1.91226
 21
116.312
  0
LINE
  8
0
 10
-1.91226
 20
116.312
 11
-1.60747
 21
116.533
  0
LINE
  8
0
 10
-1.60747
 20
116.533
 11
-1.27733
 21
116.714
  0
LINE
  8
0
 10
-1.27733
 20
116.714
 11
-0.927048
 21
116.853
  0
LINE
  8
0
 10
-0.927048
 20
116.853
 11
-0.562134
 21
116.947
  0
LINE
  8
0
 10
-0.562134
 20
116.947
 11
-0.18837
 21
116.994
  0
LINE
  8
0
 10
-0.18837
 20
116.994
 11
0.18837
 21
116.994
  0
LINE
  8
0
 10
0.18837
 20
116.994
 11
0.562134
 21
116.947
  0
LINE
  8
0
 10
0.562134
 20
116.947
 11
0.927048
 21
116.853
  0
LINE
  8
0
 10
0.927048
 20
116.853
 11
1.27733
 21
116.714
  0
LINE
  8
0
 10
1.27733
 20
116.714
 11
1.60747
 21
116.533
  0
LINE
  8
0
 10
1.60747
 20
116.533
 11
1.91226
 21
116.312
  0
LINE
  8
0
 10
1.91226
 20
116.312
 11
2.1869
 21
116.054
  0
LINE
  8
0
 10
2.1869
 20
116.054
 11
2.42705
 21
115.763
  0
LINE
  8
0
 10
2.42705
 20
115.763
 11
2.62891
 21
115.445
  0
LINE
  8
0
 10
2.62891
 20
115.445
 11
2.78932
 21
115.104
  0
LINE
  8
0
 10
2.78932
 20
115.104
 11
2.90575
 21
114.746
  0
LINE
  8
0
 10
2.90575
 20
114.746
 11
2.97633
 21
114.376
  0
LINE
  8
0
 10
2.97633
 20
114.376
 11
3
 21
114
  0
LINE
  8
0
 10
3
 20
114
 11
2.97633
 21
113.624
  0
LINE
  8
0
 10
2.97633
 20
113.624
 11
2.90575
 21
113.254
  0
LINE
  8
0
 10
2.90575
 20
113.254
 11
2.78932
 21
112.896
  0
LINE
  8
0
 10
2.78932
 20
112.896
 11
2.62891
 21
112.555
  0
LINE
  8
0
 10
2.62891
 20
112.555
 11
2.42705
 21
112.237
  0
LINE
  8
0
 10
2.42705
 20
112.237
 11
2.1869
 21
111.946
  0
LINE
  8
0
 10
2.1869
 20
111.946
 11
1.91226
 21
111.688
  0
LINE
  8
0
 10
1.91226
 20
111.688
 11
1.60747
 21
111.467
  0
LINE
  8
0
 10
1.60747
 20
111.467
 11
1.27733
 21
111.286
  0
LINE
  8
0
 10
1.27733
 20
111.286
 11
0.927048
 21
111.147
  0
LINE
  8
0
 10
0.927048
 20
111.147
 11
0.562134
 21
111.053
  0
LINE
  8
0
 10
0.562134
 20
111.053
 11
0.18837
 21
111.006
  0
LINE
  8
0
 10
0.18837
 20
111.006
 11
-0.18837
 21
111.006
  0
LINE
  8
0
 10
-1.58675
 20
103.752
 11
-3.17349
 21
106.5
  0
LINE
  8
0
 10
-3.17349
 20
106.5
 11
-1.58675
 21
109.248
  0
LINE
  8
0
 10
-1.58675
 20
109.248
 11
1.58675
 21
109.248
  0
LINE
  8
0
 10
1.58675
 20
109.248
 11
3.17349
 21
106.5
  0
LINE
  8
0
 10
3.17349
 20
106.5
 11
1.58675
 21
103.752
  0
LINE
  8
0
 10
1.58675
 20
103.752
 11
-1.58675
 21
103.752
  0
LINE
  8
0
 10
-1.58675
 20
58.7517
 11
-3.17349
 21
61.5
  0
LINE
  8
0
 10
-3.17349
 20
61.5
 11
-1.58675
 21
64.2483
  0
LINE
  8
0
 10
-1.58675
 20
64.2483
 11
1.58675
 21
64.2483
  0
LINE
  8
0
 10
1.58675
 20
64.2483
 11
3.17349
 21
61.5
  0
LINE
  8
0
 10
3.17349
 20
61.5
 11
1.58675
 21
58.7517
  0
LINE
  8
0
 10
1.58675
 20
58.7517
 11
-1.58675
 21
58.7517
  0
LINE
  8
0
 10
-0.18837
 20
51.0059
 11
-0.562134
 21
51.0531
  0
LINE
  8
0
 10
-0.562134
 20
51.0531
 11
-0.927048
 21
51.1468
  0
LINE
  8
0
 10
-0.927048
 20
51.1468
 11
-1.27733
 21
51.2855
  0
LINE
  8
0
 10
-1.27733
 20
51.2855
 11
-1.60747
 21
51.467
  0
LINE
  8
0
 10
-1.60747
 20
51.467
 11
-1.91226
 21
51.6885
  0
LINE
  8
0
 10
-1.91226
 20
51.6885
 11
-2.1869
 21
51.9464
  0
LINE
  8
0
 10
-2.1869
 20
51.9464
 11
-2.42705
 21
52.2366
  0
LINE
  8
0
 10
-2.42705
 20
52.2366
 11
-2.62891
 21
52.5547
  0
LINE
  8
0
 10
-2.62891
 20
52.5547
 11
-2.78932
 21
52.8956
  0
LINE
  8
0
 10
-2.78932
 20
52.8956
 11
-2.90575
 21
53.2539
  0
LINE
  8
0
 10
-2.90575
 20
53.2539
 11
-2.97633
 21
53.624
  0
LINE
  8
0
 10
-2.97633
 20
53.624
 11
-3
 21
54
  0
LINE
  8
0
 10
-3
 20
54
 11
-2.97633
 21
54.376
  0
LINE
  8
0
 10
-2.97633
 20
54.376
 11
-2.90575
 21
54.7461
  0
LINE
  8
0
 10
-2.90575
 20
54.7461
 11
-2.78932
 21
55.1044
  0
LINE
  8
0
 10
-2.78932
 20
55.1044
 11
-2.62891
 21
55.4453
  0
LINE
  8
0
 10
-2.62891
 20
55.4453
 11
-2.42705
 21
55.7634
  0
LINE
  8
0
 10
-2.42705
 20
55.7634
 11
-2.1869
 21
56.0536
  0
LINE
  8
0
 10
-2.1869
 20
56.0536
 11
-1.91226
 21
56.3116
  0
LINE
  8
0
 10
-1.91226
 20
56.3116
 11
-1.60747
 21
56.533
  0
LINE
  8
0
 10
-1.60747
 20
56.533
 11
-1.27733
 21
56.7145
  0
LINE
  8
0
 10
-1.27733
 20
56.7145
 11
-0.927048
 21
56.8532
  0
LINE
  8
0
 10
-0.927048
 20
56.8532
 11
-0.562134
 21
56.9469
  0
LINE
  8
0
 10
-0.562134
 20
56.9469
 11
-0.18837
 21
56.9941
  0
LINE
  8
0
 10
-0.18837
 20
56.9941
 11
0.18837
 21
56.9941
  0
LINE
  8
0
 10
0.18837
 20
56.9941
 11
0.562134
 21
56.9469
  0
LINE
  8
0
 10
0.562134
 20
56.9469
 11
0.927048
 21
56.8532
  0
LINE
  8
0
 10
0.927048
 20
56.8532
 11
1.27733
 21
56.7145
  0
LINE
  8
0
 10
1.27733
 20
56.7145
 11
1.60747
 21
56.533
  0
LINE
  8
0
 10
1.60747
 20
56.533
 11
1.91226
 21
56.3116
  0
LINE
  8
0
 10
1.91226
 20
56.3116
 11
2.1869
 21
56.0536
  0
LINE
  8
0
 10
2.1869
 20
56.0536
 11
2.42705
 21
55.7634
  0
LINE
  8
0
 10
2.42705
 20
55.7634
 11
2.62891
 21
55.4453
  0
LINE
  8
0
 10
2.62891
 20
55.4453
 11
2.78932
 21
55.1044
  0
LINE
  8
0
 10
2.78932
 20
55.1044
 11
2.90575
 21
54.7461
  0
LINE
  8
0
 10
2.90575
 20
54.7461
 11
2.97633
 21
54.376
  0
LINE
  8
0
 10
2.97633
 20
54.376
 11
3
 21
54
  0
LINE
  8
0
 10
3
 20
54
 11
2.97633
 21
53.624
  0
LINE
  8
0
 10
2.97633
 20
53.624
 11
2.90575
 21
53.2539
  0
LINE
  8
0
 10
2.90575
 20
53.2539
 11
2.78932
 21
52.8956
  0
LINE
  8
0
 10
2.78932
 20
52.8956
 11
2.62891
 21
52.5547
  0
LINE
  8
0
 10
2.62891
 20
52.5547
 11
2.42705
 21
52.2366
  0
LINE
  8
0
 10
2.42705
 20
52.2366
 11
2.1869
 21
51.9464
  0
LINE
  8
0
 10
2.1869
 20
51.9464
 11
1.91226
 21
51.6885
  0
LINE
  8
0
 10
1.91226
 20
51.6885
 11
1.60747
 21
51.467
  0
LINE
  8
0
 10
1.60747
 20
51.467
 11
1.27733
 21
51.2855
  0
LINE
  8
0
 10
1.27733
 20
51.2855
 11
0.927048
 21
51.1468
  0
LINE
  8
0
 10
0.927048
 20
51.1468
 11
0.562134
 21
51.0531
  0
LINE
  8
0
 10
0.562134
 20
51.0531
 11
0.18837
 21
51.0059
  0
LINE
  8
0
 10
0.18837
 20
51.0059
 11
-0.18837
 21
51.0059
  0
LINE
  8
0
 10
52.9369
 20
47.0886
 11
53.5451
 21
47.2447
  0
LINE
  8
0
 10
53.5451
 20
47.2447
 11
54.1289
 21
47.4759
  0
LINE
  8
0
 10
54.1289
 20
47.4759
 11
54.6791
 21
47.7784
  0
LINE
  8
0
 10
54.6791
 20
47.7784
 11
55.1871
 21
48.1474
  0
LINE
  8
0
 10
55.1871
 20
48.1474
 11
55.6448
 21
48.5773
  0
LINE
  8
0
 10
55.6448
 20
48.5773
 11
56.0451
 21
49.0611
  0
LINE
  8
0
 10
56.0451
 20
49.0611
 11
56.3815
 21
49.5912
  0
LINE
  8
0
 10
56.3815
 20
49.5912
 11
56.6489
 21
50.1594
  0
LINE
  8
0
 10
56.6489
 20
50.1594
 11
56.8429
 21
50.7566
  0
LINE
  8
0
 10
56.8429
 20
50.7566
 11
56.9606
 21
51.3733
  0
LINE
  8
0
 10
56.9606
 20
51.3733
 11
57
 21
52
  0
LINE
  8
0
 10
57
 20
52
 11
57
 21
116
  0
LINE
  8
0
 10
57
 20
116
 11
56.9606
 21
116.627
  0
LINE
  8
0
 10
56.9606
 20
116.627
 11
56.8429
 21
117.243
  0
LINE
  8
0
 10
56.8429
 20
117.243
 11
56.6489
 21
117.841
  0
LINE
  8
0
 10
56.6489
 20
117.841
 11
56.3815
 21
118.409
  0
LINE
  8
0
 10
56.3815
 20
118.409
 11
56.0451
 21
118.939
  0
LINE
  8
0
 10
56.0451
 20
118.939
 11
55.6448
 21
119.423
  0
LINE
  8
0
 10
55.6448
 20
119.423
 11
55.1871
 21
119.853
  0
LINE
  8
0
 10
55.1871
 20
119.853
 11
54.6791
 21
120.222
  0
LINE
  8
0
 10
54.6791
 20
120.222
 11
54.1289
 21
120.524
  0
LINE
  8
0
 10
54.1289
 20
120.524
 11
53.5451
 21
120.755
  0
LINE
  8
0
 10
53.5451
 20
120.755
 11
52.9369
 21
120.911
  0
LINE
  8
0
 10
52.9369
 20
120.911
 11
52.3139
 21
120.99
  0
LINE
  8
0
 10
52.3139
 20
120.99
 11
47.686
 21
120.99
  0
LINE
  8
0
 10
47.686
 20
120.99
 11
47.0631
 21
120.911
  0
LINE
  8
0
 10
47.0631
 20
120.911
 11
46.4549
 21
120.755
  0
LINE
  8
0
 10
46.4549
 20
120.755
 11
45.8711
 21
120.524
  0
LINE
  8
0
 10
45.8711
 20
120.524
 11
45.3209
 21
120.222
  0
LINE
  8
0
 10
45.3209
 20
120.222
 11
44.8129
 21
119.853
  0
LINE
  8
0
 10
44.8129
 20
119.853
 11
44.3551
 21
119.423
  0
LINE
  8
0
 10
44.3551
 20
119.423
 11
43.9549
 21
118.939
  0
LINE
  8
0
 10
43.9549
 20
118.939
 11
43.6185
 21
118.409
  0
LINE
  8
0
 10
43.6185
 20
118.409
 11
43.3511
 21
117.841
  0
LINE
  8
0
 10
43.3511
 20
117.841
 11
43.1571
 21
117.243
  0
LINE
  8
0
 10
43.1571
 20
117.243
 11
43.0394
 21
116.627
  0
LINE
  8
0
 10
43.0394
 20
116.627
 11
43
 21
116
  0
LINE
  8
0
 10
43
 20
116
 11
43
 21
52
  0
LINE
  8
0
 10
43
 20
52
 11
43.0394
 21
51.3733
  0
LINE
  8
0
 10
43.0394
 20
51.3733
 11
43.1571
 21
50.7566
  0
LINE
  8
0
 10
43.1571
 20
50.7566
 11
43.3511
 21
50.1594
  0
LINE
  8
0
 10
43.3511
 20
50.1594
 11
43.6185
 21
49.5912
  0
LINE
  8
0
 10
43.6185
 20
49.5912
 11
43.9549
 21
49.0611
  0
LINE
  8
0
 10
43.9549
 20
49.0611
 11
44.3551
 21
48.5773
  0
LINE
  8
0
 10
44.3551
 20
48.5773
 11
44.8129
 21
48.1474
  0
LINE
  8
0
 10
44.8129
 20
48.1474
 11
45.3209
 21
47.7784
  0
LINE
  8
0
 10
45.3209
 20
47.7784
 11
45.8711
 21
47.4759
  0
LINE
  8
0
 10
45.8711
 20
47.4759
 11
46.4549
 21
47.2447
  0
LINE
  8
0
 10
46.4549
 20
47.2447
 11
47.0631
 21
47.0886
  0
LINE
  8
0
 10
47.0631
 20
47.0886
 11
47.686
 21
47.0099
  0
LINE
  8
0
 10
47.686
 20
47.0099
 11
52.3139
 21
47.0099
  0
LINE
  8
0
 10
52.3139
 20
47.0099
 11
52.9369
 21
47.0886
  0
LINE
  8
0
 10
49.8116
 20
111.006
 11
49.4379
 21
111.053
  0
LINE
  8
0
 10
49.4379
 20
111.053
 11
49.0729
 21
111.147
  0
LINE
  8
0
 10
49.0729
 20
111.147
 11
48.7227
 21
111.286
  0
LINE
  8
0
 10
48.7227
 20
111.286
 11
48.3925
 21
111.467
  0
LINE
  8
0
 10
48.3925
 20
111.467
 11
48.0877
 21
111.688
  0
LINE
  8
0
 10
48.0877
 20
111.688
 11
47.8131
 21
111.946
  0
LINE
  8
0
 10
47.8131
 20
111.946
 11
47.5729
 21
112.237
  0
LINE
  8
0
 10
47.5729
 20
112.237
 11
47.3711
 21
112.555
  0
LINE
  8
0
 10
47.3711
 20
112.555
 11
47.2107
 21
112.896
  0
LINE
  8
0
 10
47.2107
 20
112.896
 11
47.0942
 21
113.254
  0
LINE
  8
0
 10
47.0942
 20
113.254
 11
47.0237
 21
113.624
  0
LINE
  8
0
 10
47.0237
 20
113.624
 11
47
 21
114
  0
LINE
  8
0
 10
47
 20
114
 11
47.0237
 21
114.376
  0
LINE
  8
0
 10
47.0237
 20
114.376
 11
47.0942
 21
114.746
  0
LINE
  8
0
 10
47.0942
 20
114.746
 11
47.2107
 21
115.104
  0
LINE
  8
0
 10
47.2107
 20
115.104
 11
47.3711
 21
115.445
  0
LINE
  8
0
 10
47.3711
 20
115.445
 11
47.5729
 21
115.763
  0
LINE
  8
0
 10
47.5729
 20
115.763
 11
47.8131
 21
116.054
  0
LINE
  8
0
 10
47.8131
 20
116.054
 11
48.0877
 21
116.312
  0
LINE
  8
0
 10
48.0877
 20
116.312
 11
48.3925
 21
116.533
  0
LINE
  8
0
 10
48.3925
 20
116.533
 11
48.7227
 21
116.714
  0
LINE
  8
0
 10
48.7227
 20
116.714
 11
49.0729
 21
116.853
  0
LINE
  8
0
 10
49.0729
 20
116.853
 11
49.4379
 21
116.947
  0
LINE
  8
0
 10
49.4379
 20
116.947
 11
49.8116
 21
116.994
  0
LINE
  8
0
 10
49.8116
 20
116.994
 11
50.1884
 21
116.994
  0
LINE
  8
0
 10
50.1884
 20
116.994
 11
50.5621
 21
116.947
  0
LINE
  8
0
 10
50.5621
 20
116.947
 11
50.927
 21
116.853
  0
LINE
  8
0
 10
50.927
 20
116.853
 11
51.2773
 21
116.714
  0
LINE
  8
0
 10
51.2773
 20
116.714
 11
51.6075
 21
116.533
  0
LINE
  8
0
 10
51.6075
 20
116.533
 11
51.9123
 21
116.312
  0
LINE
  8
0
 10
51.9123
 20
116.312
 11
52.1869
 21
116.054
  0
LINE
  8
0
 10
52.1869
 20
116.054
 11
52.427
 21
115.763
  0
LINE
  8
0
 10
52.427
 20
115.763
 11
52.6289
 21
115.445
  0
LINE
  8
0
 10
52.6289
 20
115.445
 11
52.7893
 21
115.104
  0
LINE
  8
0
 10
52.7893
 20
115.104
 11
52.9057
 21
114.746
  0
LINE
  8
0
 10
52.9057
 20
114.746
 11
52.9763
 21
114.376
  0
LINE
  8
0
 10
52.9763
 20
114.376
 11
53
 21
114
  0
LINE
  8
0
 10
53
 20
114
 11
52.9763
 21
113.624
  0
LINE
  8
0
 10
52.9763
 20
113.624
 11
52.9057
 21
113.254
  0
LINE
  8
0
 10
52.9057
 20
113.254
 11
52.7893
 21
112.896
  0
LINE
  8
0
 10
52.7893
 20
112.896
 11
52.6289
 21
112.555
  0
LINE
  8
0
 10
52.6289
 20
112.555
 11
52.427
 21
112.237
  0
LINE
  8
0
 10
52.427
 20
112.237
 11
52.1869
 21
111.946
  0
LINE
  8
0
 10
52.1869
 20
111.946
 11
51.9123
 21
111.688
  0
LINE
  8
0
 10
51.9123
 20
111.688
 11
51.6075
 21
111.467
  0
LINE
  8
0
 10
51.6075
 20
111.467
 11
51.2773
 21
111.286
  0
LINE
  8
0
 10
51.2773
 20
111.286
 11
50.927
 21
111.147
  0
LINE
  8
0
 10
50.927
 20
111.147
 11
50.5621
 21
111.053
  0
LINE
  8
0
 10
50.5621
 20
111.053
 11
50.1884
 21
111.006
  0
LINE
  8
0
 10
50.1884
 20
111.006
 11
49.8116
 21
111.006
  0
LINE
  8
0
 10
49.8526
 20
104.158
 11
49.5602
 21
104.195
  0
LINE
  8
0
 10
49.5602
 20
104.195
 11
49.2747
 21
104.268
  0
LINE
  8
0
 10
49.2747
 20
104.268
 11
49.0007
 21
104.376
  0
LINE
  8
0
 10
49.0007
 20
104.376
 11
48.7424
 21
104.518
  0
LINE
  8
0
 10
48.7424
 20
104.518
 11
48.5039
 21
104.692
  0
LINE
  8
0
 10
48.5039
 20
104.692
 11
48.2891
 21
104.893
  0
LINE
  8
0
 10
48.2891
 20
104.893
 11
48.1012
 21
105.12
  0
LINE
  8
0
 10
48.1012
 20
105.12
 11
47.9433
 21
105.369
  0
LINE
  8
0
 10
47.9433
 20
105.369
 11
47.8177
 21
105.636
  0
LINE
  8
0
 10
47.8177
 20
105.636
 11
47.7267
 21
105.916
  0
LINE
  8
0
 10
47.7267
 20
105.916
 11
47.6714
 21
106.206
  0
LINE
  8
0
 10
47.6714
 20
106.206
 11
47.6529
 21
106.5
  0
LINE
  8
0
 10
47.6529
 20
106.5
 11
47.6714
 21
106.794
  0
LINE
  8
0
 10
47.6714
 20
106.794
 11
47.7267
 21
107.084
  0
LINE
  8
0
 10
47.7267
 20
107.084
 11
47.8177
 21
107.364
  0
LINE
  8
0
 10
47.8177
 20
107.364
 11
47.9433
 21
107.631
  0
LINE
  8
0
 10
47.9433
 20
107.631
 11
48.1012
 21
107.88
  0
LINE
  8
0
 10
48.1012
 20
107.88
 11
48.2891
 21
108.107
  0
LINE
  8
0
 10
48.2891
 20
108.107
 11
48.5039
 21
108.308
  0
LINE
  8
0
 10
48.5039
 20
108.308
 11
48.7424
 21
108.482
  0
LINE
  8
0
 10
48.7424
 20
108.482
 11
49.0007
 21
108.624
  0
LINE
  8
0
 10
49.0007
 20
108.624
 11
49.2747
 21
108.732
  0
LINE
  8
0
 10
49.2747
 20
108.732
 11
49.5602
 21
108.805
  0
LINE
  8
0
 10
49.5602
 20
108.805
 11
49.8526
 21
108.842
  0
LINE
  8
0
 10
49.8526
 20
108.842
 11
50.1474
 21
108.842
  0
LINE
  8
0
 10
50.1474
 20
108.842
 11
50.4398
 21
108.805
  0
LINE
  8
0
 10
50.4398
 20
108.805
 11
50.7253
 21
108.732
  0
LINE
  8
0
 10
50.7253
 20
108.732
 11
50.9993
 21
108.624
  0
LINE
  8
0
 10
50.9993
 20
108.624
 11
51.2576
 21
108.482
  0
LINE
  8
0
 10
51.2576
 20
108.482
 11
51.4961
 21
108.308
  0
LINE
  8
0
 10
51.4961
 20
108.308
 11
51.7109
 21
108.107
  0
LINE
  8
0
 10
51.7109
 20
108.107
 11
51.8988
 21
107.88
  0
LINE
  8
0
 10
51.8988
 20
107.88
 11
52.0567
 21
107.631
  0
LINE
  8
0
 10
52.0567
 20
107.631
 11
52.1822
 21
107.364
  0
LINE
  8
0
 10
52.1822
 20
107.364
 11
52.2733
 21
107.084
  0
LINE
  8
0
 10
52.2733
 20
107.084
 11
52.3286
 21
106.794
  0
LINE
  8
0
 10
52.3286
 20
106.794
 11
52.347
 21
106.5
  0
LINE
  8
0
 10
52.347
 20
106.5
 11
52.3286
 21
106.206
  0
LINE
  8
0
 10
52.3286
 20
106.206
 11
52.2733
 21
105.916
  0
LINE
  8
0
 10
52.2733
 20
105.916
 11
52.1822
 21
105.636
  0
LINE
  8
0
 10
52.1822
 20
105.636
 11
52.0567
 21
105.369
  0
LINE
  8
0
 10
52.0567
 20
105.369
 11
51.8988
 21
105.12
  0
LINE
  8
0
 10
51.8988
 20
105.12
 11
51.7109
 21
104.893
  0
LINE
  8
0
 10
51.7109
 20
104.893
 11
51.4961
 21
104.692
  0
LINE
  8
0
 10
51.4961
 20
104.692
 11
51.2576
 21
104.518
  0
LINE
  8
0
 10
51.2576
 20
104.518
 11
50.9993
 21
104.376
  0
LINE
  8
0
 10
50.9993
 20
104.376
 11
50.7253
 21
104.268
  0
LINE
  8
0
 10
50.7253
 20
104.268
 11
50.4398
 21
104.195
  0
LINE
  8
0
 10
50.4398
 20
104.195
 11
50.1474
 21
104.158
  0
LINE
  8
0
 10
50.1474
 20
104.158
 11
49.8526
 21
104.158
  0
LINE
  8
0
 10
49.8526
 20
59.1576
 11
49.5602
 21
59.1945
  0
LINE
  8
0
 10
49.5602
 20
59.1945
 11
49.2747
 21
59.2678
  0
LINE
  8
0
 10
49.2747
 20
59.2678
 11
49.0007
 21
59.3763
  0
LINE
  8
0
 10
49.0007
 20
59.3763
 11
48.7424
 21
59.5183
  0
LINE
  8
0
 10
48.7424
 20
59.5183
 11
48.5039
 21
59.6916
  0
LINE
  8
0
 10
48.5039
 20
59.6916
 11
48.2891
 21
59.8933
  0
LINE
  8
0
 10
48.2891
 20
59.8933
 11
48.1012
 21
60.1204
  0
LINE
  8
0
 10
48.1012
 20
60.1204
 11
47.9433
 21
60.3693
  0
LINE
  8
0
 10
47.9433
 20
60.3693
 11
47.8177
 21
60.636
  0
LINE
  8
0
 10
47.8177
 20
60.636
 11
47.7267
 21
60.9163
  0
LINE
  8
0
 10
47.7267
 20
60.9163
 11
47.6714
 21
61.2058
  0
LINE
  8
0
 10
47.6714
 20
61.2058
 11
47.6529
 21
61.5
  0
LINE
  8
0
 10
47.6529
 20
61.5
 11
47.6714
 21
61.7942
  0
LINE
  8
0
 10
47.6714
 20
61.7942
 11
47.7267
 21
62.0837
  0
LINE
  8
0
 10
47.7267
 20
62.0837
 11
47.8177
 21
62.364
  0
LINE
  8
0
 10
47.8177
 20
62.364
 11
47.9433
 21
62.6307
  0
LINE
  8
0
 10
47.9433
 20
62.6307
 11
48.1012
 21
62.8796
  0
LINE
  8
0
 10
48.1012
 20
62.8796
 11
48.2891
 21
63.1067
  0
LINE
  8
0
 10
48.2891
 20
63.1067
 11
48.5039
 21
63.3084
  0
LINE
  8
0
 10
48.5039
 20
63.3084
 11
48.7424
 21
63.4817
  0
LINE
  8
0
 10
48.7424
 20
63.4817
 11
49.0007
 21
63.6237
  0
LINE
  8
0
 10
49.0007
 20
63.6237
 11
49.2747
 21
63.7322
  0
LINE
  8
0
 10
49.2747
 20
63.7322
 11
49.5602
 21
63.8055
  0
LINE
  8
0
 10
49.5602
 20
63.8055
 11
49.8526
 21
63.8424
  0
LINE
  8
0
 10
49.8526
 20
63.8424
 11
50.1474
 21
63.8424
  0
LINE
  8
0
 10
50.1474
 20
63.8424
 11
50.4398
 21
63.8055
  0
LINE
  8
0
 10
50.4398
 20
63.8055
 11
50.7253
 21
63.7322
  0
LINE
  8
0
 10
50.7253
 20
63.7322
 11
50.9993
 21
63.6237
  0
LINE
  8
0
 10
50.9993
 20
63.6237
 11
51.2576
 21
63.4817
  0
LINE
  8
0
 10
51.2576
 20
63.4817
 11
51.4961
 21
63.3084
  0
LINE
  8
0
 10
51.4961
 20
63.3084
 11
51.7109
 21
63.1067
  0
LINE
  8
0
 10
51.7109
 20
63.1067
 11
51.8988
 21
62.8796
  0
LINE
  8
0
 10
51.8988
 20
62.8796
 11
52.0567
 21
62.6307
  0
LINE
  8
0
 10
52.0567
 20
62.6307
 11
52.1822
 21
62.364
  0
LINE
  8
0
 10
52.1822
 20
62.364
 11
52.2733
 21
62.0837
  0
LINE
  8
0
 10
52.2733
 20
62.0837
 11
52.3286
 21
61.7942
  0
LINE
  8
0
 10
52.3286
 20
61.7942
 11
52.347
 21
61.5
  0
LINE
  8
0
 10
52.347
 20
61.5
 11
52.3286
 21
61.2058
  0
LINE
  8
0
 10
52.3286
 20
61.2058
 11
52.2733
 21
60.9163
  0
LINE
  8
0
 10
52.2733
 20
60.9163
 11
52.1822
 21
60.636
  0
LINE
  8
0
 10
52.1822
 20
60.636
 11
52.0567
 21
60.3693
  0
LINE
  8
0
 10
52.0567
 20
60.3693
 11
51.8988
 21
60.1204
  0
LINE
  8
0
 10
51.8988
 20
60.1204
 11
51.7109
 21
59.8933
  0
LINE
  8
0
 10
51.7109
 20
59.8933
 11
51.4961
 21
59.6916
  0
LINE
  8
0
 10
51.4961
 20
59.6916
 11
51.2576
 21
59.5183
  0
LINE
  8
0
 10
51.2576
 20
59.5183
 11
50.9993
 21
59.3763
  0
LINE
  8
0
 10
50.9993
 20
59.3763
 11
50.7253
 21
59.2678
  0
LINE
  8
0
 10
50.7253
 20
59.2678
 11
50.4398
 21
59.1945
  0
LINE
  8
0
 10
50.4398
 20
59.1945
 11
50.1474
 21
59.1576
  0
LINE
  8
0
 10
50.1474
 20
59.1576
 11
49.8526
 21
59.1576
  0
LINE
  8
0
 10
49.8116
 20
51.0059
 11
49.4379
 21
51.0531
  0
LINE
  8
0
 10
49.4379
 20
51.0531
 11
49.0729
 21
51.1468
  0
LINE
  8
0
 10
49.0729
 20
51.1468
 11
48.7227
 21
51.2855
  0
LINE
  8
0
 10
48.7227
 20
51.2855
 11
48.3925
 21
51.467
  0
LINE
  8
0
 10
48.3925
 20
51.467
 11
48.0877
 21
51.6885
  0
LINE
  8
0
 10
48.0877
 20
51.6885
 11
47.8131
 21
51.9464
  0
LINE
  8
0
 10
47.8131
 20
51.9464
 11
47.5729
 21
52.2366
  0
LINE
  8
0
 10
47.5729
 20
52.2366
 11
47.3711
 21
52.5547
  0
LINE
  8
0
 10
47.3711
 20
52.5547
 11
47.2107
 21
52.8956
  0
LINE
  8
0
 10
47.2107
 20
52.8956
 11
47.0942
 21
53.2539
  0
LINE
  8
0
 10
47.0942
 20
53.2539
 11
47.0237
 21
53.624
  0
LINE
  8
0
 10
47.0237
 20
53.624
 11
47
 21
54
  0
LINE
  8
0
 10
47
 20
54
 11
47.0237
 21
54.376
  0
LINE
  8
0
 10
47.0237
 20
54.376
 11
47.0942
 21
54.7461
  0
LINE
  8
0
 10
47.0942
 20
54.7461
 11
47.2107
 21
55.1044
  0
LINE
  8
0
 10
47.2107
 20
55.1044
 11
47.3711
 21
55.4453
  0
LINE
  8
0
 10
47.3711
 20
55.4453
 11
47.5729
 21
55.7634
  0
LINE
  8
0
 10
47.5729
 20
55.7634
 11
47.8131
 21
56.0536
  0
LINE
  8
0
 10
47.8131
 20
56.0536
 11
48.0877
 21
56.3116
  0
LINE
  8
0
 10
48.0877
 20
56.3116
 11
48.3925
 21
56.533
  0
LINE
  8
0
 10
48.3925
 20
56.533
 11
48.7227
 21
56.7145
  0
LINE
  8
0
 10
48.7227
 20
56.7145
 11
49.0729
 21
56.8532
  0
LINE
  8
0
 10
49.0729
 20
56.8532
 11
49.4379
 21
56.9469
  0
LINE
  8
0
 10
49.4379
 20
56.9469
 11
49.8116
 21
56.9941
  0
LINE
  8
0
 10
49.8116
 20
56.9941
 11
50.1884
 21
56.9941
  0
LINE
  8
0
 10
50.1884
 20
56.9941
 11
50.5621
 21
56.9469
  0
LINE
  8
0
 10
50.5621
 20
56.9469
 11
50.927
 21
56.8532
  0
LINE
  8
0
 10
50.927
 20
56.8532
 11
51.2773
 21
56.7145
  0
LINE
  8
0
 10
51.2773
 20
56.7145
 11
51.6075
 21
56.533
  0
LINE
  8
0
 10
51.6075
 20
56.533
 11
51.9123
 21
56.3116
  0
LINE
  8
0
 10
51.9123
 20
56.3116
 11
52.1869
 21
56.0536
  0
LINE
  8
0
 10
52.1869
 20
56.0536
 11
52.427
 21
55.7634
  0
LINE
  8
0
 10
52.427
 20
55.7634
 11
52.6289
 21
55.4453
  0
LINE
  8
0
 10
52.6289
 20
55.4453
 11
52.7893
 21
55.1044
  0
LINE
  8
0
 10
52.7893
 20
55.1044
 11
52.9057
 21
54.7461
  0
LINE
  8
0
 10
52.9057
 20
54.7461
 11
52.9763
 21
54.376
  0
LINE
  8
0
 10
52.9763
 20
54.376
 11
53
 21
54
  0
LINE
  8
0
 10
53
 20
54
 11
52.9763
 21
53.624
  0
LINE
  8
0
 10
52.9763
 20
53.624
 11
52.9057
 21
53.2539
  0
LINE
  8
0
 10
52.9057
 20
53.2539
 11
52.7893
 21
52.8956
  0
LINE
  8
0
 10
52.7893
 20
52.8956
 11
52.6289
 21
52.5547
  0
LINE
  8
0
 10
52.6289
 20
52.5547
 11
52.427
 21
52.2366
  0
LINE
  8
0
 10
52.427
 20
52.2366
 11
52.1869
 21
51.9464
  0
LINE
  8
0
 10
52.1869
 20
51.9464
 11
51.9123
 21
51.6885
  0
LINE
  8
0
 10
51.9123
 20
51.6885
 11
51.6075
 21
51.467
  0
LINE
  8
0
 10
51.6075
 20
51.467
 11
51.2773
 21
51.2855
  0
LINE
  8
0
 10
51.2773
 20
51.2855
 11
50.927
 21
51.1468
  0
LINE
  8
0
 10
50.927
 20
51.1468
 11
50.5621
 21
51.0531
  0
LINE
  8
0
 10
50.5621
 20
51.0531
 11
50.1884
 21
51.0059
  0
LINE
  8
0
 10
50.1884
 20
51.0059
 11
49.8116
 21
51.0059
  0
ENDSEC
  0
SECTION
  2
OBJECTS
  0
DICTIONARY
  0
ENDSEC
  0
EOF
