  0
SECTION
  2
BLOCKS
  0
ENDSEC
  0
SECTION
  2
ENTITIES
  0
LINE
  8
0
 10
64.5
 20
125
 11
64.4606
 21
125.627
  0
LINE
  8
0
 10
64.4606
 20
125.627
 11
64.3429
 21
126.243
  0
LINE
  8
0
 10
64.3429
 20
126.243
 11
64.1489
 21
126.841
  0
LINE
  8
0
 10
64.1489
 20
126.841
 11
63.8815
 21
127.409
  0
LINE
  8
0
 10
63.8815
 20
127.409
 11
63.5451
 21
127.939
  0
LINE
  8
0
 10
63.5451
 20
127.939
 11
63.1448
 21
128.423
  0
LINE
  8
0
 10
63.1448
 20
128.423
 11
62.6871
 21
128.853
  0
LINE
  8
0
 10
62.6871
 20
128.853
 11
62.1791
 21
129.222
  0
LINE
  8
0
 10
62.1791
 20
129.222
 11
61.6289
 21
129.524
  0
LINE
  8
0
 10
61.6289
 20
129.524
 11
61.0451
 21
129.755
  0
LINE
  8
0
 10
61.0451
 20
129.755
 11
60.4369
 21
129.911
  0
LINE
  8
0
 10
60.4369
 20
129.911
 11
59.8139
 21
129.99
  0
LINE
  8
0
 10
59.8139
 20
129.99
 11
40.186
 21
129.99
  0
LINE
  8
0
 10
40.186
 20
129.99
 11
39.5631
 21
129.911
  0
LINE
  8
0
 10
39.5631
 20
129.911
 11
38.9549
 21
129.755
  0
LINE
  8
0
 10
38.9549
 20
129.755
 11
38.3711
 21
129.524
  0
LINE
  8
0
 10
38.3711
 20
129.524
 11
37.8209
 21
129.222
  0
LINE
  8
0
 10
37.8209
 20
129.222
 11
37.3129
 21
128.853
  0
LINE
  8
0
 10
37.3129
 20
128.853
 11
36.8551
 21
128.423
  0
LINE
  8
0
 10
36.8551
 20
128.423
 11
36.4549
 21
127.939
  0
LINE
  8
0
 10
36.4549
 20
127.939
 11
36.1185
 21
127.409
  0
LINE
  8
0
 10
36.1185
 20
127.409
 11
35.8511
 21
126.841
  0
LINE
  8
0
 10
35.8511
 20
126.841
 11
35.6571
 21
126.243
  0
LINE
  8
0
 10
35.6571
 20
126.243
 11
35.5394
 21
125.627
  0
LINE
  8
0
 10
35.5394
 20
125.627
 11
35.5
 21
125
  0
LINE
  8
0
 10
35.5
 20
125
 11
35.5
 21
109.672
  0
LINE
  8
0
 10
35.5
 20
109.672
 11
64.5
 21
109.672
  0
LINE
  8
0
 10
64.5
 20
109.672
 11
64.5
 21
125
  0
LINE
  8
0
 10
57.3116
 20
120.006
 11
56.9379
 21
120.053
  0
LINE
  8
0
 10
56.9379
 20
120.053
 11
56.5729
 21
120.147
  0
LINE
  8
0
 10
56.5729
 20
120.147
 11
56.2227
 21
120.286
  0
LINE
  8
0
 10
56.2227
 20
120.286
 11
55.8925
 21
120.467
  0
LINE
  8
0
 10
55.8925
 20
120.467
 11
55.5877
 21
120.688
  0
LINE
  8
0
 10
55.5877
 20
120.688
 11
55.3131
 21
120.946
  0
LINE
  8
0
 10
55.3131
 20
120.946
 11
55.0729
 21
121.237
  0
LINE
  8
0
 10
55.0729
 20
121.237
 11
54.8711
 21
121.555
  0
LINE
  8
0
 10
54.8711
 20
121.555
 11
54.7107
 21
121.896
  0
LINE
  8
0
 10
54.7107
 20
121.896
 11
54.5942
 21
122.254
  0
LINE
  8
0
 10
54.5942
 20
122.254
 11
54.5237
 21
122.624
  0
LINE
  8
0
 10
54.5237
 20
122.624
 11
54.5
 21
123
  0
LINE
  8
0
 10
54.5
 20
123
 11
54.5237
 21
123.376
  0
LINE
  8
0
 10
54.5237
 20
123.376
 11
54.5942
 21
123.746
  0
LINE
  8
0
 10
54.5942
 20
123.746
 11
54.7107
 21
124.104
  0
LINE
  8
0
 10
54.7107
 20
124.104
 11
54.8711
 21
124.445
  0
LINE
  8
0
 10
54.8711
 20
124.445
 11
55.0729
 21
124.763
  0
LINE
  8
0
 10
55.0729
 20
124.763
 11
55.3131
 21
125.054
  0
LINE
  8
0
 10
55.3131
 20
125.054
 11
55.5877
 21
125.312
  0
LINE
  8
0
 10
55.5877
 20
125.312
 11
55.8925
 21
125.533
  0
LINE
  8
0
 10
55.8925
 20
125.533
 11
56.2227
 21
125.714
  0
LINE
  8
0
 10
56.2227
 20
125.714
 11
56.5729
 21
125.853
  0
LINE
  8
0
 10
56.5729
 20
125.853
 11
56.9379
 21
125.947
  0
LINE
  8
0
 10
56.9379
 20
125.947
 11
57.3116
 21
125.994
  0
LINE
  8
0
 10
57.3116
 20
125.994
 11
57.6884
 21
125.994
  0
LINE
  8
0
 10
57.6884
 20
125.994
 11
58.0621
 21
125.947
  0
LINE
  8
0
 10
58.0621
 20
125.947
 11
58.427
 21
125.853
  0
LINE
  8
0
 10
58.427
 20
125.853
 11
58.7773
 21
125.714
  0
LINE
  8
0
 10
58.7773
 20
125.714
 11
59.1075
 21
125.533
  0
LINE
  8
0
 10
59.1075
 20
125.533
 11
59.4123
 21
125.312
  0
LINE
  8
0
 10
59.4123
 20
125.312
 11
59.6869
 21
125.054
  0
LINE
  8
0
 10
59.6869
 20
125.054
 11
59.927
 21
124.763
  0
LINE
  8
0
 10
59.927
 20
124.763
 11
60.1289
 21
124.445
  0
LINE
  8
0
 10
60.1289
 20
124.445
 11
60.2893
 21
124.104
  0
LINE
  8
0
 10
60.2893
 20
124.104
 11
60.4057
 21
123.746
  0
LINE
  8
0
 10
60.4057
 20
123.746
 11
60.4763
 21
123.376
  0
LINE
  8
0
 10
60.4763
 20
123.376
 11
60.5
 21
123
  0
LINE
  8
0
 10
60.5
 20
123
 11
60.4763
 21
122.624
  0
LINE
  8
0
 10
60.4763
 20
122.624
 11
60.4057
 21
122.254
  0
LINE
  8
0
 10
60.4057
 20
122.254
 11
60.2893
 21
121.896
  0
LINE
  8
0
 10
60.2893
 20
121.896
 11
60.1289
 21
121.555
  0
LINE
  8
0
 10
60.1289
 20
121.555
 11
59.927
 21
121.237
  0
LINE
  8
0
 10
59.927
 20
121.237
 11
59.6869
 21
120.946
  0
LINE
  8
0
 10
59.6869
 20
120.946
 11
59.4123
 21
120.688
  0
LINE
  8
0
 10
59.4123
 20
120.688
 11
59.1075
 21
120.467
  0
LINE
  8
0
 10
59.1075
 20
120.467
 11
58.7773
 21
120.286
  0
LINE
  8
0
 10
58.7773
 20
120.286
 11
58.427
 21
120.147
  0
LINE
  8
0
 10
58.427
 20
120.147
 11
58.0621
 21
120.053
  0
LINE
  8
0
 10
58.0621
 20
120.053
 11
57.6884
 21
120.006
  0
LINE
  8
0
 10
57.6884
 20
120.006
 11
57.3116
 21
120.006
  0
LINE
  8
0
 10
42.3116
 20
120.006
 11
41.9379
 21
120.053
  0
LINE
  8
0
 10
41.9379
 20
120.053
 11
41.5729
 21
120.147
  0
LINE
  8
0
 10
41.5729
 20
120.147
 11
41.2227
 21
120.286
  0
LINE
  8
0
 10
41.2227
 20
120.286
 11
40.8925
 21
120.467
  0
LINE
  8
0
 10
40.8925
 20
120.467
 11
40.5877
 21
120.688
  0
LINE
  8
0
 10
40.5877
 20
120.688
 11
40.3131
 21
120.946
  0
LINE
  8
0
 10
40.3131
 20
120.946
 11
40.0729
 21
121.237
  0
LINE
  8
0
 10
40.0729
 20
121.237
 11
39.8711
 21
121.555
  0
LINE
  8
0
 10
39.8711
 20
121.555
 11
39.7107
 21
121.896
  0
LINE
  8
0
 10
39.7107
 20
121.896
 11
39.5942
 21
122.254
  0
LINE
  8
0
 10
39.5942
 20
122.254
 11
39.5237
 21
122.624
  0
LINE
  8
0
 10
39.5237
 20
122.624
 11
39.5
 21
123
  0
LINE
  8
0
 10
39.5
 20
123
 11
39.5237
 21
123.376
  0
LINE
  8
0
 10
39.5237
 20
123.376
 11
39.5942
 21
123.746
  0
LINE
  8
0
 10
39.5942
 20
123.746
 11
39.7107
 21
124.104
  0
LINE
  8
0
 10
39.7107
 20
124.104
 11
39.8711
 21
124.445
  0
LINE
  8
0
 10
39.8711
 20
124.445
 11
40.0729
 21
124.763
  0
LINE
  8
0
 10
40.0729
 20
124.763
 11
40.3131
 21
125.054
  0
LINE
  8
0
 10
40.3131
 20
125.054
 11
40.5877
 21
125.312
  0
LINE
  8
0
 10
40.5877
 20
125.312
 11
40.8925
 21
125.533
  0
LINE
  8
0
 10
40.8925
 20
125.533
 11
41.2227
 21
125.714
  0
LINE
  8
0
 10
41.2227
 20
125.714
 11
41.5729
 21
125.853
  0
LINE
  8
0
 10
41.5729
 20
125.853
 11
41.9379
 21
125.947
  0
LINE
  8
0
 10
41.9379
 20
125.947
 11
42.3116
 21
125.994
  0
LINE
  8
0
 10
42.3116
 20
125.994
 11
42.6884
 21
125.994
  0
LINE
  8
0
 10
42.6884
 20
125.994
 11
43.0621
 21
125.947
  0
LINE
  8
0
 10
43.0621
 20
125.947
 11
43.427
 21
125.853
  0
LINE
  8
0
 10
43.427
 20
125.853
 11
43.7773
 21
125.714
  0
LINE
  8
0
 10
43.7773
 20
125.714
 11
44.1075
 21
125.533
  0
LINE
  8
0
 10
44.1075
 20
125.533
 11
44.4123
 21
125.312
  0
LINE
  8
0
 10
44.4123
 20
125.312
 11
44.6869
 21
125.054
  0
LINE
  8
0
 10
44.6869
 20
125.054
 11
44.927
 21
124.763
  0
LINE
  8
0
 10
44.927
 20
124.763
 11
45.1289
 21
124.445
  0
LINE
  8
0
 10
45.1289
 20
124.445
 11
45.2893
 21
124.104
  0
LINE
  8
0
 10
45.2893
 20
124.104
 11
45.4057
 21
123.746
  0
LINE
  8
0
 10
45.4057
 20
123.746
 11
45.4763
 21
123.376
  0
LINE
  8
0
 10
45.4763
 20
123.376
 11
45.5
 21
123
  0
LINE
  8
0
 10
45.5
 20
123
 11
45.4763
 21
122.624
  0
LINE
  8
0
 10
45.4763
 20
122.624
 11
45.4057
 21
122.254
  0
LINE
  8
0
 10
45.4057
 20
122.254
 11
45.2893
 21
121.896
  0
LINE
  8
0
 10
45.2893
 20
121.896
 11
45.1289
 21
121.555
  0
LINE
  8
0
 10
45.1289
 20
121.555
 11
44.927
 21
121.237
  0
LINE
  8
0
 10
44.927
 20
121.237
 11
44.6869
 21
120.946
  0
LINE
  8
0
 10
44.6869
 20
120.946
 11
44.4123
 21
120.688
  0
LINE
  8
0
 10
44.4123
 20
120.688
 11
44.1075
 21
120.467
  0
LINE
  8
0
 10
44.1075
 20
120.467
 11
43.7773
 21
120.286
  0
LINE
  8
0
 10
43.7773
 20
120.286
 11
43.427
 21
120.147
  0
LINE
  8
0
 10
43.427
 20
120.147
 11
43.0621
 21
120.053
  0
LINE
  8
0
 10
43.0621
 20
120.053
 11
42.6884
 21
120.006
  0
LINE
  8
0
 10
42.6884
 20
120.006
 11
42.3116
 21
120.006
  0
LINE
  8
0
 10
49.9058
 20
121.503
 11
49.7189
 21
121.527
  0
LINE
  8
0
 10
49.7189
 20
121.527
 11
49.5365
 21
121.573
  0
LINE
  8
0
 10
49.5365
 20
121.573
 11
49.3613
 21
121.643
  0
LINE
  8
0
 10
49.3613
 20
121.643
 11
49.1963
 21
121.734
  0
LINE
  8
0
 10
49.1963
 20
121.734
 11
49.0439
 21
121.844
  0
LINE
  8
0
 10
49.0439
 20
121.844
 11
48.9065
 21
121.973
  0
LINE
  8
0
 10
48.9065
 20
121.973
 11
48.7865
 21
122.118
  0
LINE
  8
0
 10
48.7865
 20
122.118
 11
48.6855
 21
122.277
  0
LINE
  8
0
 10
48.6855
 20
122.277
 11
48.6053
 21
122.448
  0
LINE
  8
0
 10
48.6053
 20
122.448
 11
48.5471
 21
122.627
  0
LINE
  8
0
 10
48.5471
 20
122.627
 11
48.5118
 21
122.812
  0
LINE
  8
0
 10
48.5118
 20
122.812
 11
48.5
 21
123
  0
LINE
  8
0
 10
48.5
 20
123
 11
48.5118
 21
123.188
  0
LINE
  8
0
 10
48.5118
 20
123.188
 11
48.5471
 21
123.373
  0
LINE
  8
0
 10
48.5471
 20
123.373
 11
48.6053
 21
123.552
  0
LINE
  8
0
 10
48.6053
 20
123.552
 11
48.6855
 21
123.723
  0
LINE
  8
0
 10
48.6855
 20
123.723
 11
48.7865
 21
123.882
  0
LINE
  8
0
 10
48.7865
 20
123.882
 11
48.9065
 21
124.027
  0
LINE
  8
0
 10
48.9065
 20
124.027
 11
49.0439
 21
124.156
  0
LINE
  8
0
 10
49.0439
 20
124.156
 11
49.1963
 21
124.266
  0
LINE
  8
0
 10
49.1963
 20
124.266
 11
49.3613
 21
124.357
  0
LINE
  8
0
 10
49.3613
 20
124.357
 11
49.5365
 21
124.427
  0
LINE
  8
0
 10
49.5365
 20
124.427
 11
49.7189
 21
124.473
  0
LINE
  8
0
 10
49.7189
 20
124.473
 11
49.9058
 21
124.497
  0
LINE
  8
0
 10
49.9058
 20
124.497
 11
50.0942
 21
124.497
  0
LINE
  8
0
 10
50.0942
 20
124.497
 11
50.2811
 21
124.473
  0
LINE
  8
0
 10
50.2811
 20
124.473
 11
50.4635
 21
124.427
  0
LINE
  8
0
 10
50.4635
 20
124.427
 11
50.6387
 21
124.357
  0
LINE
  8
0
 10
50.6387
 20
124.357
 11
50.8037
 21
124.266
  0
LINE
  8
0
 10
50.8037
 20
124.266
 11
50.9561
 21
124.156
  0
LINE
  8
0
 10
50.9561
 20
124.156
 11
51.0934
 21
124.027
  0
LINE
  8
0
 10
51.0934
 20
124.027
 11
51.2135
 21
123.882
  0
LINE
  8
0
 10
51.2135
 20
123.882
 11
51.3145
 21
123.723
  0
LINE
  8
0
 10
51.3145
 20
123.723
 11
51.3947
 21
123.552
  0
LINE
  8
0
 10
51.3947
 20
123.552
 11
51.4529
 21
123.373
  0
LINE
  8
0
 10
51.4529
 20
123.373
 11
51.4882
 21
123.188
  0
LINE
  8
0
 10
51.4882
 20
123.188
 11
51.5
 21
123
  0
LINE
  8
0
 10
51.5
 20
123
 11
51.4882
 21
122.812
  0
LINE
  8
0
 10
51.4882
 20
122.812
 11
51.4529
 21
122.627
  0
LINE
  8
0
 10
51.4529
 20
122.627
 11
51.3947
 21
122.448
  0
LINE
  8
0
 10
51.3947
 20
122.448
 11
51.3145
 21
122.277
  0
LINE
  8
0
 10
51.3145
 20
122.277
 11
51.2135
 21
122.118
  0
LINE
  8
0
 10
51.2135
 20
122.118
 11
51.0934
 21
121.973
  0
LINE
  8
0
 10
51.0934
 20
121.973
 11
50.9561
 21
121.844
  0
LINE
  8
0
 10
50.9561
 20
121.844
 11
50.8037
 21
121.734
  0
LINE
  8
0
 10
50.8037
 20
121.734
 11
50.6387
 21
121.643
  0
LINE
  8
0
 10
50.6387
 20
121.643
 11
50.4635
 21
121.573
  0
LINE
  8
0
 10
50.4635
 20
121.573
 11
50.2811
 21
121.527
  0
LINE
  8
0
 10
50.2811
 20
121.527
 11
50.0942
 21
121.503
  0
LINE
  8
0
 10
50.0942
 20
121.503
 11
49.9058
 21
121.503
  0
LINE
  8
0
 10
49.887
 20
113.704
 11
49.6627
 21
113.732
  0
LINE
  8
0
 10
49.6627
 20
113.732
 11
49.4438
 21
113.788
  0
LINE
  8
0
 10
49.4438
 20
113.788
 11
49.2336
 21
113.871
  0
LINE
  8
0
 10
49.2336
 20
113.871
 11
49.0355
 21
113.98
  0
LINE
  8
0
 10
49.0355
 20
113.98
 11
48.8526
 21
114.113
  0
LINE
  8
0
 10
48.8526
 20
114.113
 11
48.6879
 21
114.268
  0
LINE
  8
0
 10
48.6879
 20
114.268
 11
48.5438
 21
114.442
  0
LINE
  8
0
 10
48.5438
 20
114.442
 11
48.4226
 21
114.633
  0
LINE
  8
0
 10
48.4226
 20
114.633
 11
48.3264
 21
114.837
  0
LINE
  8
0
 10
48.3264
 20
114.837
 11
48.2565
 21
115.052
  0
LINE
  8
0
 10
48.2565
 20
115.052
 11
48.2142
 21
115.274
  0
LINE
  8
0
 10
48.2142
 20
115.274
 11
48.2
 21
115.5
  0
LINE
  8
0
 10
48.2
 20
115.5
 11
48.2142
 21
115.726
  0
LINE
  8
0
 10
48.2142
 20
115.726
 11
48.2565
 21
115.948
  0
LINE
  8
0
 10
48.2565
 20
115.948
 11
48.3264
 21
116.163
  0
LINE
  8
0
 10
48.3264
 20
116.163
 11
48.4226
 21
116.367
  0
LINE
  8
0
 10
48.4226
 20
116.367
 11
48.5438
 21
116.558
  0
LINE
  8
0
 10
48.5438
 20
116.558
 11
48.6879
 21
116.732
  0
LINE
  8
0
 10
48.6879
 20
116.732
 11
48.8526
 21
116.887
  0
LINE
  8
0
 10
48.8526
 20
116.887
 11
49.0355
 21
117.02
  0
LINE
  8
0
 10
49.0355
 20
117.02
 11
49.2336
 21
117.129
  0
LINE
  8
0
 10
49.2336
 20
117.129
 11
49.4438
 21
117.212
  0
LINE
  8
0
 10
49.4438
 20
117.212
 11
49.6627
 21
117.268
  0
LINE
  8
0
 10
49.6627
 20
117.268
 11
49.887
 21
117.296
  0
LINE
  8
0
 10
49.887
 20
117.296
 11
50.113
 21
117.296
  0
LINE
  8
0
 10
50.113
 20
117.296
 11
50.3373
 21
117.268
  0
LINE
  8
0
 10
50.3373
 20
117.268
 11
50.5562
 21
117.212
  0
LINE
  8
0
 10
50.5562
 20
117.212
 11
50.7664
 21
117.129
  0
LINE
  8
0
 10
50.7664
 20
117.129
 11
50.9645
 21
117.02
  0
LINE
  8
0
 10
50.9645
 20
117.02
 11
51.1474
 21
116.887
  0
LINE
  8
0
 10
51.1474
 20
116.887
 11
51.3121
 21
116.732
  0
LINE
  8
0
 10
51.3121
 20
116.732
 11
51.4562
 21
116.558
  0
LINE
  8
0
 10
51.4562
 20
116.558
 11
51.5773
 21
116.367
  0
LINE
  8
0
 10
51.5773
 20
116.367
 11
51.6736
 21
116.163
  0
LINE
  8
0
 10
51.6736
 20
116.163
 11
51.7434
 21
115.948
  0
LINE
  8
0
 10
51.7434
 20
115.948
 11
51.7858
 21
115.726
  0
LINE
  8
0
 10
51.7858
 20
115.726
 11
51.8
 21
115.5
  0
LINE
  8
0
 10
51.8
 20
115.5
 11
51.7858
 21
115.274
  0
LINE
  8
0
 10
51.7858
 20
115.274
 11
51.7434
 21
115.052
  0
LINE
  8
0
 10
51.7434
 20
115.052
 11
51.6736
 21
114.837
  0
LINE
  8
0
 10
51.6736
 20
114.837
 11
51.5773
 21
114.633
  0
LINE
  8
0
 10
51.5773
 20
114.633
 11
51.4562
 21
114.442
  0
LINE
  8
0
 10
51.4562
 20
114.442
 11
51.3121
 21
114.268
  0
LINE
  8
0
 10
51.3121
 20
114.268
 11
51.1474
 21
114.113
  0
LINE
  8
0
 10
51.1474
 20
114.113
 11
50.9645
 21
113.98
  0
LINE
  8
0
 10
50.9645
 20
113.98
 11
50.7664
 21
113.871
  0
LINE
  8
0
 10
50.7664
 20
113.871
 11
50.5562
 21
113.788
  0
LINE
  8
0
 10
50.5562
 20
113.788
 11
50.3373
 21
113.732
  0
LINE
  8
0
 10
50.3373
 20
113.732
 11
50.113
 21
113.704
  0
LINE
  8
0
 10
50.113
 20
113.704
 11
49.887
 21
113.704
  0
LINE
  8
0
 10
42.4058
 20
114.003
 11
42.2189
 21
114.027
  0
LINE
  8
0
 10
42.2189
 20
114.027
 11
42.0365
 21
114.073
  0
LINE
  8
0
 10
42.0365
 20
114.073
 11
41.8613
 21
114.143
  0
LINE
  8
0
 10
41.8613
 20
114.143
 11
41.6963
 21
114.234
  0
LINE
  8
0
 10
41.6963
 20
114.234
 11
41.5439
 21
114.344
  0
LINE
  8
0
 10
41.5439
 20
114.344
 11
41.4065
 21
114.473
  0
LINE
  8
0
 10
41.4065
 20
114.473
 11
41.2865
 21
114.618
  0
LINE
  8
0
 10
41.2865
 20
114.618
 11
41.1855
 21
114.777
  0
LINE
  8
0
 10
41.1855
 20
114.777
 11
41.1053
 21
114.948
  0
LINE
  8
0
 10
41.1053
 20
114.948
 11
41.0471
 21
115.127
  0
LINE
  8
0
 10
41.0471
 20
115.127
 11
41.0118
 21
115.312
  0
LINE
  8
0
 10
41.0118
 20
115.312
 11
41
 21
115.5
  0
LINE
  8
0
 10
41
 20
115.5
 11
41.0118
 21
115.688
  0
LINE
  8
0
 10
41.0118
 20
115.688
 11
41.0471
 21
115.873
  0
LINE
  8
0
 10
41.0471
 20
115.873
 11
41.1053
 21
116.052
  0
LINE
  8
0
 10
41.1053
 20
116.052
 11
41.1855
 21
116.223
  0
LINE
  8
0
 10
41.1855
 20
116.223
 11
41.2865
 21
116.382
  0
LINE
  8
0
 10
41.2865
 20
116.382
 11
41.4065
 21
116.527
  0
LINE
  8
0
 10
41.4065
 20
116.527
 11
41.5439
 21
116.656
  0
LINE
  8
0
 10
41.5439
 20
116.656
 11
41.6963
 21
116.766
  0
LINE
  8
0
 10
41.6963
 20
116.766
 11
41.8613
 21
116.857
  0
LINE
  8
0
 10
41.8613
 20
116.857
 11
42.0365
 21
116.927
  0
LINE
  8
0
 10
42.0365
 20
116.927
 11
42.2189
 21
116.973
  0
LINE
  8
0
 10
42.2189
 20
116.973
 11
42.4058
 21
116.997
  0
LINE
  8
0
 10
42.4058
 20
116.997
 11
42.5942
 21
116.997
  0
LINE
  8
0
 10
42.5942
 20
116.997
 11
42.7811
 21
116.973
  0
LINE
  8
0
 10
42.7811
 20
116.973
 11
42.9635
 21
116.927
  0
LINE
  8
0
 10
42.9635
 20
116.927
 11
43.1387
 21
116.857
  0
LINE
  8
0
 10
43.1387
 20
116.857
 11
43.3037
 21
116.766
  0
LINE
  8
0
 10
43.3037
 20
116.766
 11
43.4561
 21
116.656
  0
LINE
  8
0
 10
43.4561
 20
116.656
 11
43.5934
 21
116.527
  0
LINE
  8
0
 10
43.5934
 20
116.527
 11
43.7135
 21
116.382
  0
LINE
  8
0
 10
43.7135
 20
116.382
 11
43.8145
 21
116.223
  0
LINE
  8
0
 10
43.8145
 20
116.223
 11
43.8947
 21
116.052
  0
LINE
  8
0
 10
43.8947
 20
116.052
 11
43.9529
 21
115.873
  0
LINE
  8
0
 10
43.9529
 20
115.873
 11
43.9882
 21
115.688
  0
LINE
  8
0
 10
43.9882
 20
115.688
 11
44
 21
115.5
  0
LINE
  8
0
 10
44
 20
115.5
 11
43.9882
 21
115.312
  0
LINE
  8
0
 10
43.9882
 20
115.312
 11
43.9529
 21
115.127
  0
LINE
  8
0
 10
43.9529
 20
115.127
 11
43.8947
 21
114.948
  0
LINE
  8
0
 10
43.8947
 20
114.948
 11
43.8145
 21
114.777
  0
LINE
  8
0
 10
43.8145
 20
114.777
 11
43.7135
 21
114.618
  0
LINE
  8
0
 10
43.7135
 20
114.618
 11
43.5934
 21
114.473
  0
LINE
  8
0
 10
43.5934
 20
114.473
 11
43.4561
 21
114.344
  0
LINE
  8
0
 10
43.4561
 20
114.344
 11
43.3037
 21
114.234
  0
LINE
  8
0
 10
43.3037
 20
114.234
 11
43.1387
 21
114.143
  0
LINE
  8
0
 10
43.1387
 20
114.143
 11
42.9635
 21
114.073
  0
LINE
  8
0
 10
42.9635
 20
114.073
 11
42.7811
 21
114.027
  0
LINE
  8
0
 10
42.7811
 20
114.027
 11
42.5942
 21
114.003
  0
LINE
  8
0
 10
42.5942
 20
114.003
 11
42.4058
 21
114.003
  0
LINE
  8
0
 10
57.4058
 20
114.003
 11
57.2189
 21
114.027
  0
LINE
  8
0
 10
57.2189
 20
114.027
 11
57.0365
 21
114.073
  0
LINE
  8
0
 10
57.0365
 20
114.073
 11
56.8613
 21
114.143
  0
LINE
  8
0
 10
56.8613
 20
114.143
 11
56.6963
 21
114.234
  0
LINE
  8
0
 10
56.6963
 20
114.234
 11
56.5439
 21
114.344
  0
LINE
  8
0
 10
56.5439
 20
114.344
 11
56.4065
 21
114.473
  0
LINE
  8
0
 10
56.4065
 20
114.473
 11
56.2865
 21
114.618
  0
LINE
  8
0
 10
56.2865
 20
114.618
 11
56.1855
 21
114.777
  0
LINE
  8
0
 10
56.1855
 20
114.777
 11
56.1053
 21
114.948
  0
LINE
  8
0
 10
56.1053
 20
114.948
 11
56.0471
 21
115.127
  0
LINE
  8
0
 10
56.0471
 20
115.127
 11
56.0118
 21
115.312
  0
LINE
  8
0
 10
56.0118
 20
115.312
 11
56
 21
115.5
  0
LINE
  8
0
 10
56
 20
115.5
 11
56.0118
 21
115.688
  0
LINE
  8
0
 10
56.0118
 20
115.688
 11
56.0471
 21
115.873
  0
LINE
  8
0
 10
56.0471
 20
115.873
 11
56.1053
 21
116.052
  0
LINE
  8
0
 10
56.1053
 20
116.052
 11
56.1855
 21
116.223
  0
LINE
  8
0
 10
56.1855
 20
116.223
 11
56.2865
 21
116.382
  0
LINE
  8
0
 10
56.2865
 20
116.382
 11
56.4065
 21
116.527
  0
LINE
  8
0
 10
56.4065
 20
116.527
 11
56.5439
 21
116.656
  0
LINE
  8
0
 10
56.5439
 20
116.656
 11
56.6963
 21
116.766
  0
LINE
  8
0
 10
56.6963
 20
116.766
 11
56.8613
 21
116.857
  0
LINE
  8
0
 10
56.8613
 20
116.857
 11
57.0365
 21
116.927
  0
LINE
  8
0
 10
57.0365
 20
116.927
 11
57.2189
 21
116.973
  0
LINE
  8
0
 10
57.2189
 20
116.973
 11
57.4058
 21
116.997
  0
LINE
  8
0
 10
57.4058
 20
116.997
 11
57.5942
 21
116.997
  0
LINE
  8
0
 10
57.5942
 20
116.997
 11
57.7811
 21
116.973
  0
LINE
  8
0
 10
57.7811
 20
116.973
 11
57.9635
 21
116.927
  0
LINE
  8
0
 10
57.9635
 20
116.927
 11
58.1387
 21
116.857
  0
LINE
  8
0
 10
58.1387
 20
116.857
 11
58.3037
 21
116.766
  0
LINE
  8
0
 10
58.3037
 20
116.766
 11
58.4561
 21
116.656
  0
LINE
  8
0
 10
58.4561
 20
116.656
 11
58.5934
 21
116.527
  0
LINE
  8
0
 10
58.5934
 20
116.527
 11
58.7135
 21
116.382
  0
LINE
  8
0
 10
58.7135
 20
116.382
 11
58.8145
 21
116.223
  0
LINE
  8
0
 10
58.8145
 20
116.223
 11
58.8947
 21
116.052
  0
LINE
  8
0
 10
58.8947
 20
116.052
 11
58.9529
 21
115.873
  0
LINE
  8
0
 10
58.9529
 20
115.873
 11
58.9882
 21
115.688
  0
LINE
  8
0
 10
58.9882
 20
115.688
 11
59
 21
115.5
  0
LINE
  8
0
 10
59
 20
115.5
 11
58.9882
 21
115.312
  0
LINE
  8
0
 10
58.9882
 20
115.312
 11
58.9529
 21
115.127
  0
LINE
  8
0
 10
58.9529
 20
115.127
 11
58.8947
 21
114.948
  0
LINE
  8
0
 10
58.8947
 20
114.948
 11
58.8145
 21
114.777
  0
LINE
  8
0
 10
58.8145
 20
114.777
 11
58.7135
 21
114.618
  0
LINE
  8
0
 10
58.7135
 20
114.618
 11
58.5934
 21
114.473
  0
LINE
  8
0
 10
58.5934
 20
114.473
 11
58.4561
 21
114.344
  0
LINE
  8
0
 10
58.4561
 20
114.344
 11
58.3037
 21
114.234
  0
LINE
  8
0
 10
58.3037
 20
114.234
 11
58.1387
 21
114.143
  0
LINE
  8
0
 10
58.1387
 20
114.143
 11
57.9635
 21
114.073
  0
LINE
  8
0
 10
57.9635
 20
114.073
 11
57.7811
 21
114.027
  0
LINE
  8
0
 10
57.7811
 20
114.027
 11
57.5942
 21
114.003
  0
LINE
  8
0
 10
57.5942
 20
114.003
 11
57.4058
 21
114.003
  0
LINE
  8
0
 10
14.5
 20
125
 11
14.4606
 21
125.627
  0
LINE
  8
0
 10
14.4606
 20
125.627
 11
14.3429
 21
126.243
  0
LINE
  8
0
 10
14.3429
 20
126.243
 11
14.1489
 21
126.841
  0
LINE
  8
0
 10
14.1489
 20
126.841
 11
13.8815
 21
127.409
  0
LINE
  8
0
 10
13.8815
 20
127.409
 11
13.5451
 21
127.939
  0
LINE
  8
0
 10
13.5451
 20
127.939
 11
13.1448
 21
128.423
  0
LINE
  8
0
 10
13.1448
 20
128.423
 11
12.6871
 21
128.853
  0
LINE
  8
0
 10
12.6871
 20
128.853
 11
12.1791
 21
129.222
  0
LINE
  8
0
 10
12.1791
 20
129.222
 11
11.6289
 21
129.524
  0
LINE
  8
0
 10
11.6289
 20
129.524
 11
11.0451
 21
129.755
  0
LINE
  8
0
 10
11.0451
 20
129.755
 11
10.4369
 21
129.911
  0
LINE
  8
0
 10
10.4369
 20
129.911
 11
9.81395
 21
129.99
  0
LINE
  8
0
 10
9.81395
 20
129.99
 11
-9.81395
 21
129.99
  0
LINE
  8
0
 10
-9.81395
 20
129.99
 11
-10.4369
 21
129.911
  0
LINE
  8
0
 10
-10.4369
 20
129.911
 11
-11.0451
 21
129.755
  0
LINE
  8
0
 10
-11.0451
 20
129.755
 11
-11.6289
 21
129.524
  0
LINE
  8
0
 10
-11.6289
 20
129.524
 11
-12.1791
 21
129.222
  0
LINE
  8
0
 10
-12.1791
 20
129.222
 11
-12.6871
 21
128.853
  0
LINE
  8
0
 10
-12.6871
 20
128.853
 11
-13.1448
 21
128.423
  0
LINE
  8
0
 10
-13.1448
 20
128.423
 11
-13.5451
 21
127.939
  0
LINE
  8
0
 10
-13.5451
 20
127.939
 11
-13.8815
 21
127.409
  0
LINE
  8
0
 10
-13.8815
 20
127.409
 11
-14.1489
 21
126.841
  0
LINE
  8
0
 10
-14.1489
 20
126.841
 11
-14.3429
 21
126.243
  0
LINE
  8
0
 10
-14.3429
 20
126.243
 11
-14.4606
 21
125.627
  0
LINE
  8
0
 10
-14.4606
 20
125.627
 11
-14.5
 21
125
  0
LINE
  8
0
 10
-14.5
 20
125
 11
-14.5
 21
109.672
  0
LINE
  8
0
 10
-14.5
 20
109.672
 11
14.5
 21
109.672
  0
LINE
  8
0
 10
14.5
 20
109.672
 11
14.5
 21
125
  0
LINE
  8
0
 10
-0.194641
 20
119.906
 11
-0.580872
 21
119.955
  0
LINE
  8
0
 10
-0.580872
 20
119.955
 11
-0.957947
 21
120.052
  0
LINE
  8
0
 10
-0.957947
 20
120.052
 11
-1.3199
 21
120.195
  0
LINE
  8
0
 10
-1.3199
 20
120.195
 11
-1.66106
 21
120.383
  0
LINE
  8
0
 10
-1.66106
 20
120.383
 11
-1.97601
 21
120.611
  0
LINE
  8
0
 10
-1.97601
 20
120.611
 11
-2.2598
 21
120.878
  0
LINE
  8
0
 10
-2.2598
 20
120.878
 11
-2.50795
 21
121.178
  0
LINE
  8
0
 10
-2.50795
 20
121.178
 11
-2.71654
 21
121.507
  0
LINE
  8
0
 10
-2.71654
 20
121.507
 11
-2.88229
 21
121.859
  0
LINE
  8
0
 10
-2.88229
 20
121.859
 11
-3.00259
 21
122.229
  0
LINE
  8
0
 10
-3.00259
 20
122.229
 11
-3.07555
 21
122.611
  0
LINE
  8
0
 10
-3.07555
 20
122.611
 11
-3.09999
 21
123
  0
LINE
  8
0
 10
-3.09999
 20
123
 11
-3.07555
 21
123.389
  0
LINE
  8
0
 10
-3.07555
 20
123.389
 11
-3.00259
 21
123.771
  0
LINE
  8
0
 10
-3.00259
 20
123.771
 11
-2.88229
 21
124.141
  0
LINE
  8
0
 10
-2.88229
 20
124.141
 11
-2.71654
 21
124.493
  0
LINE
  8
0
 10
-2.71654
 20
124.493
 11
-2.50795
 21
124.822
  0
LINE
  8
0
 10
-2.50795
 20
124.822
 11
-2.2598
 21
125.122
  0
LINE
  8
0
 10
-2.2598
 20
125.122
 11
-1.97601
 21
125.389
  0
LINE
  8
0
 10
-1.97601
 20
125.389
 11
-1.66106
 21
125.617
  0
LINE
  8
0
 10
-1.66106
 20
125.617
 11
-1.3199
 21
125.805
  0
LINE
  8
0
 10
-1.3199
 20
125.805
 11
-0.957947
 21
125.948
  0
LINE
  8
0
 10
-0.957947
 20
125.948
 11
-0.580872
 21
126.045
  0
LINE
  8
0
 10
-0.580872
 20
126.045
 11
-0.194641
 21
126.094
  0
LINE
  8
0
 10
-0.194641
 20
126.094
 11
0.194641
 21
126.094
  0
LINE
  8
0
 10
0.194641
 20
126.094
 11
0.580872
 21
126.045
  0
LINE
  8
0
 10
0.580872
 20
126.045
 11
0.957947
 21
125.948
  0
LINE
  8
0
 10
0.957947
 20
125.948
 11
1.3199
 21
125.805
  0
LINE
  8
0
 10
1.3199
 20
125.805
 11
1.66106
 21
125.617
  0
LINE
  8
0
 10
1.66106
 20
125.617
 11
1.97601
 21
125.389
  0
LINE
  8
0
 10
1.97601
 20
125.389
 11
2.2598
 21
125.122
  0
LINE
  8
0
 10
2.2598
 20
125.122
 11
2.50795
 21
124.822
  0
LINE
  8
0
 10
2.50795
 20
124.822
 11
2.71654
 21
124.493
  0
LINE
  8
0
 10
2.71654
 20
124.493
 11
2.88229
 21
124.141
  0
LINE
  8
0
 10
2.88229
 20
124.141
 11
3.00259
 21
123.771
  0
LINE
  8
0
 10
3.00259
 20
123.771
 11
3.07555
 21
123.389
  0
LINE
  8
0
 10
3.07555
 20
123.389
 11
3.09999
 21
123
  0
LINE
  8
0
 10
3.09999
 20
123
 11
3.07555
 21
122.611
  0
LINE
  8
0
 10
3.07555
 20
122.611
 11
3.00259
 21
122.229
  0
LINE
  8
0
 10
3.00259
 20
122.229
 11
2.88229
 21
121.859
  0
LINE
  8
0
 10
2.88229
 20
121.859
 11
2.71654
 21
121.507
  0
LINE
  8
0
 10
2.71654
 20
121.507
 11
2.50795
 21
121.178
  0
LINE
  8
0
 10
2.50795
 20
121.178
 11
2.2598
 21
120.878
  0
LINE
  8
0
 10
2.2598
 20
120.878
 11
1.97601
 21
120.611
  0
LINE
  8
0
 10
1.97601
 20
120.611
 11
1.66106
 21
120.383
  0
LINE
  8
0
 10
1.66106
 20
120.383
 11
1.3199
 21
120.195
  0
LINE
  8
0
 10
1.3199
 20
120.195
 11
0.957947
 21
120.052
  0
LINE
  8
0
 10
0.957947
 20
120.052
 11
0.580872
 21
119.955
  0
LINE
  8
0
 10
0.580872
 20
119.955
 11
0.194641
 21
119.906
  0
LINE
  8
0
 10
0.194641
 20
119.906
 11
-0.194641
 21
119.906
  0
LINE
  8
0
 10
7.31161
 20
120.006
 11
6.93785
 21
120.053
  0
LINE
  8
0
 10
6.93785
 20
120.053
 11
6.57294
 21
120.147
  0
LINE
  8
0
 10
6.57294
 20
120.147
 11
6.22266
 21
120.286
  0
LINE
  8
0
 10
6.22266
 20
120.286
 11
5.89252
 21
120.467
  0
LINE
  8
0
 10
5.89252
 20
120.467
 11
5.58772
 21
120.688
  0
LINE
  8
0
 10
5.58772
 20
120.688
 11
5.31308
 21
120.946
  0
LINE
  8
0
 10
5.31308
 20
120.946
 11
5.07294
 21
121.237
  0
LINE
  8
0
 10
5.07294
 20
121.237
 11
4.87108
 21
121.555
  0
LINE
  8
0
 10
4.87108
 20
121.555
 11
4.71066
 21
121.896
  0
LINE
  8
0
 10
4.71066
 20
121.896
 11
4.59424
 21
122.254
  0
LINE
  8
0
 10
4.59424
 20
122.254
 11
4.52365
 21
122.624
  0
LINE
  8
0
 10
4.52365
 20
122.624
 11
4.5
 21
123
  0
LINE
  8
0
 10
4.5
 20
123
 11
4.52365
 21
123.376
  0
LINE
  8
0
 10
4.52365
 20
123.376
 11
4.59424
 21
123.746
  0
LINE
  8
0
 10
4.59424
 20
123.746
 11
4.71066
 21
124.104
  0
LINE
  8
0
 10
4.71066
 20
124.104
 11
4.87108
 21
124.445
  0
LINE
  8
0
 10
4.87108
 20
124.445
 11
5.07294
 21
124.763
  0
LINE
  8
0
 10
5.07294
 20
124.763
 11
5.31308
 21
125.054
  0
LINE
  8
0
 10
5.31308
 20
125.054
 11
5.58772
 21
125.312
  0
LINE
  8
0
 10
5.58772
 20
125.312
 11
5.89252
 21
125.533
  0
LINE
  8
0
 10
5.89252
 20
125.533
 11
6.22266
 21
125.714
  0
LINE
  8
0
 10
6.22266
 20
125.714
 11
6.57294
 21
125.853
  0
LINE
  8
0
 10
6.57294
 20
125.853
 11
6.93785
 21
125.947
  0
LINE
  8
0
 10
6.93785
 20
125.947
 11
7.31161
 21
125.994
  0
LINE
  8
0
 10
7.31161
 20
125.994
 11
7.68837
 21
125.994
  0
LINE
  8
0
 10
7.68837
 20
125.994
 11
8.06213
 21
125.947
  0
LINE
  8
0
 10
8.06213
 20
125.947
 11
8.42705
 21
125.853
  0
LINE
  8
0
 10
8.42705
 20
125.853
 11
8.77733
 21
125.714
  0
LINE
  8
0
 10
8.77733
 20
125.714
 11
9.10747
 21
125.533
  0
LINE
  8
0
 10
9.10747
 20
125.533
 11
9.41226
 21
125.312
  0
LINE
  8
0
 10
9.41226
 20
125.312
 11
9.6869
 21
125.054
  0
LINE
  8
0
 10
9.6869
 20
125.054
 11
9.92705
 21
124.763
  0
LINE
  8
0
 10
9.92705
 20
124.763
 11
10.1289
 21
124.445
  0
LINE
  8
0
 10
10.1289
 20
124.445
 11
10.2893
 21
124.104
  0
LINE
  8
0
 10
10.2893
 20
124.104
 11
10.4057
 21
123.746
  0
LINE
  8
0
 10
10.4057
 20
123.746
 11
10.4763
 21
123.376
  0
LINE
  8
0
 10
10.4763
 20
123.376
 11
10.5
 21
123
  0
LINE
  8
0
 10
10.5
 20
123
 11
10.4763
 21
122.624
  0
LINE
  8
0
 10
10.4763
 20
122.624
 11
10.4057
 21
122.254
  0
LINE
  8
0
 10
10.4057
 20
122.254
 11
10.2893
 21
121.896
  0
LINE
  8
0
 10
10.2893
 20
121.896
 11
10.1289
 21
121.555
  0
LINE
  8
0
 10
10.1289
 20
121.555
 11
9.92705
 21
121.237
  0
LINE
  8
0
 10
9.92705
 20
121.237
 11
9.6869
 21
120.946
  0
LINE
  8
0
 10
9.6869
 20
120.946
 11
9.41226
 21
120.688
  0
LINE
  8
0
 10
9.41226
 20
120.688
 11
9.10747
 21
120.467
  0
LINE
  8
0
 10
9.10747
 20
120.467
 11
8.77733
 21
120.286
  0
LINE
  8
0
 10
8.77733
 20
120.286
 11
8.42705
 21
120.147
  0
LINE
  8
0
 10
8.42705
 20
120.147
 11
8.06213
 21
120.053
  0
LINE
  8
0
 10
8.06213
 20
120.053
 11
7.68837
 21
120.006
  0
LINE
  8
0
 10
7.68837
 20
120.006
 11
7.31161
 21
120.006
  0
LINE
  8
0
 10
-7.68837
 20
120.006
 11
-8.06213
 21
120.053
  0
LINE
  8
0
 10
-8.06213
 20
120.053
 11
-8.42705
 21
120.147
  0
LINE
  8
0
 10
-8.42705
 20
120.147
 11
-8.77733
 21
120.286
  0
LINE
  8
0
 10
-8.77733
 20
120.286
 11
-9.10747
 21
120.467
  0
LINE
  8
0
 10
-9.10747
 20
120.467
 11
-9.41226
 21
120.688
  0
LINE
  8
0
 10
-9.41226
 20
120.688
 11
-9.6869
 21
120.946
  0
LINE
  8
0
 10
-9.6869
 20
120.946
 11
-9.92705
 21
121.237
  0
LINE
  8
0
 10
-9.92705
 20
121.237
 11
-10.1289
 21
121.555
  0
LINE
  8
0
 10
-10.1289
 20
121.555
 11
-10.2893
 21
121.896
  0
LINE
  8
0
 10
-10.2893
 20
121.896
 11
-10.4057
 21
122.254
  0
LINE
  8
0
 10
-10.4057
 20
122.254
 11
-10.4763
 21
122.624
  0
LINE
  8
0
 10
-10.4763
 20
122.624
 11
-10.5
 21
123
  0
LINE
  8
0
 10
-10.5
 20
123
 11
-10.4763
 21
123.376
  0
LINE
  8
0
 10
-10.4763
 20
123.376
 11
-10.4057
 21
123.746
  0
LINE
  8
0
 10
-10.4057
 20
123.746
 11
-10.2893
 21
124.104
  0
LINE
  8
0
 10
-10.2893
 20
124.104
 11
-10.1289
 21
124.445
  0
LINE
  8
0
 10
-10.1289
 20
124.445
 11
-9.92705
 21
124.763
  0
LINE
  8
0
 10
-9.92705
 20
124.763
 11
-9.6869
 21
125.054
  0
LINE
  8
0
 10
-9.6869
 20
125.054
 11
-9.41226
 21
125.312
  0
LINE
  8
0
 10
-9.41226
 20
125.312
 11
-9.10747
 21
125.533
  0
LINE
  8
0
 10
-9.10747
 20
125.533
 11
-8.77733
 21
125.714
  0
LINE
  8
0
 10
-8.77733
 20
125.714
 11
-8.42705
 21
125.853
  0
LINE
  8
0
 10
-8.42705
 20
125.853
 11
-8.06213
 21
125.947
  0
LINE
  8
0
 10
-8.06213
 20
125.947
 11
-7.68837
 21
125.994
  0
LINE
  8
0
 10
-7.68837
 20
125.994
 11
-7.31161
 21
125.994
  0
LINE
  8
0
 10
-7.31161
 20
125.994
 11
-6.93785
 21
125.947
  0
LINE
  8
0
 10
-6.93785
 20
125.947
 11
-6.57294
 21
125.853
  0
LINE
  8
0
 10
-6.57294
 20
125.853
 11
-6.22266
 21
125.714
  0
LINE
  8
0
 10
-6.22266
 20
125.714
 11
-5.89252
 21
125.533
  0
LINE
  8
0
 10
-5.89252
 20
125.533
 11
-5.58772
 21
125.312
  0
LINE
  8
0
 10
-5.58772
 20
125.312
 11
-5.31308
 21
125.054
  0
LINE
  8
0
 10
-5.31308
 20
125.054
 11
-5.07294
 21
124.763
  0
LINE
  8
0
 10
-5.07294
 20
124.763
 11
-4.87108
 21
124.445
  0
LINE
  8
0
 10
-4.87108
 20
124.445
 11
-4.71066
 21
124.104
  0
LINE
  8
0
 10
-4.71066
 20
124.104
 11
-4.59424
 21
123.746
  0
LINE
  8
0
 10
-4.59424
 20
123.746
 11
-4.52365
 21
123.376
  0
LINE
  8
0
 10
-4.52365
 20
123.376
 11
-4.5
 21
123
  0
LINE
  8
0
 10
-4.5
 20
123
 11
-4.52365
 21
122.624
  0
LINE
  8
0
 10
-4.52365
 20
122.624
 11
-4.59424
 21
122.254
  0
LINE
  8
0
 10
-4.59424
 20
122.254
 11
-4.71066
 21
121.896
  0
LINE
  8
0
 10
-4.71066
 20
121.896
 11
-4.87108
 21
121.555
  0
LINE
  8
0
 10
-4.87108
 20
121.555
 11
-5.07294
 21
121.237
  0
LINE
  8
0
 10
-5.07294
 20
121.237
 11
-5.31308
 21
120.946
  0
LINE
  8
0
 10
-5.31308
 20
120.946
 11
-5.58772
 21
120.688
  0
LINE
  8
0
 10
-5.58772
 20
120.688
 11
-5.89252
 21
120.467
  0
LINE
  8
0
 10
-5.89252
 20
120.467
 11
-6.22266
 21
120.286
  0
LINE
  8
0
 10
-6.22266
 20
120.286
 11
-6.57294
 21
120.147
  0
LINE
  8
0
 10
-6.57294
 20
120.147
 11
-6.93785
 21
120.053
  0
LINE
  8
0
 10
-6.93785
 20
120.053
 11
-7.31161
 21
120.006
  0
LINE
  8
0
 10
-7.31161
 20
120.006
 11
-7.68837
 21
120.006
  0
LINE
  8
0
 10
-0.113022
 20
113.704
 11
-0.33728
 21
113.732
  0
LINE
  8
0
 10
-0.33728
 20
113.732
 11
-0.556229
 21
113.788
  0
LINE
  8
0
 10
-0.556229
 20
113.788
 11
-0.766388
 21
113.871
  0
LINE
  8
0
 10
-0.766388
 20
113.871
 11
-0.964478
 21
113.98
  0
LINE
  8
0
 10
-0.964478
 20
113.98
 11
-1.14735
 21
114.113
  0
LINE
  8
0
 10
-1.14735
 20
114.113
 11
-1.31213
 21
114.268
  0
LINE
  8
0
 10
-1.31213
 20
114.268
 11
-1.45622
 21
114.442
  0
LINE
  8
0
 10
-1.45622
 20
114.442
 11
-1.57735
 21
114.633
  0
LINE
  8
0
 10
-1.57735
 20
114.633
 11
-1.67358
 21
114.837
  0
LINE
  8
0
 10
-1.67358
 20
114.837
 11
-1.74344
 21
115.052
  0
LINE
  8
0
 10
-1.74344
 20
115.052
 11
-1.7858
 21
115.274
  0
LINE
  8
0
 10
-1.7858
 20
115.274
 11
-1.79999
 21
115.5
  0
LINE
  8
0
 10
-1.79999
 20
115.5
 11
-1.7858
 21
115.726
  0
LINE
  8
0
 10
-1.7858
 20
115.726
 11
-1.74344
 21
115.948
  0
LINE
  8
0
 10
-1.74344
 20
115.948
 11
-1.67358
 21
116.163
  0
LINE
  8
0
 10
-1.67358
 20
116.163
 11
-1.57735
 21
116.367
  0
LINE
  8
0
 10
-1.57735
 20
116.367
 11
-1.45622
 21
116.558
  0
LINE
  8
0
 10
-1.45622
 20
116.558
 11
-1.31213
 21
116.732
  0
LINE
  8
0
 10
-1.31213
 20
116.732
 11
-1.14735
 21
116.887
  0
LINE
  8
0
 10
-1.14735
 20
116.887
 11
-0.964478
 21
117.02
  0
LINE
  8
0
 10
-0.964478
 20
117.02
 11
-0.766388
 21
117.129
  0
LINE
  8
0
 10
-0.766388
 20
117.129
 11
-0.556229
 21
117.212
  0
LINE
  8
0
 10
-0.556229
 20
117.212
 11
-0.33728
 21
117.268
  0
LINE
  8
0
 10
-0.33728
 20
117.268
 11
-0.113022
 21
117.296
  0
LINE
  8
0
 10
-0.113022
 20
117.296
 11
0.113022
 21
117.296
  0
LINE
  8
0
 10
0.113022
 20
117.296
 11
0.33728
 21
117.268
  0
LINE
  8
0
 10
0.33728
 20
117.268
 11
0.556229
 21
117.212
  0
LINE
  8
0
 10
0.556229
 20
117.212
 11
0.766388
 21
117.129
  0
LINE
  8
0
 10
0.766388
 20
117.129
 11
0.964478
 21
117.02
  0
LINE
  8
0
 10
0.964478
 20
117.02
 11
1.14735
 21
116.887
  0
LINE
  8
0
 10
1.14735
 20
116.887
 11
1.31213
 21
116.732
  0
LINE
  8
0
 10
1.31213
 20
116.732
 11
1.45622
 21
116.558
  0
LINE
  8
0
 10
1.45622
 20
116.558
 11
1.57735
 21
116.367
  0
LINE
  8
0
 10
1.57735
 20
116.367
 11
1.67358
 21
116.163
  0
LINE
  8
0
 10
1.67358
 20
116.163
 11
1.74344
 21
115.948
  0
LINE
  8
0
 10
1.74344
 20
115.948
 11
1.7858
 21
115.726
  0
LINE
  8
0
 10
1.7858
 20
115.726
 11
1.79999
 21
115.5
  0
LINE
  8
0
 10
1.79999
 20
115.5
 11
1.7858
 21
115.274
  0
LINE
  8
0
 10
1.7858
 20
115.274
 11
1.74344
 21
115.052
  0
LINE
  8
0
 10
1.74344
 20
115.052
 11
1.67358
 21
114.837
  0
LINE
  8
0
 10
1.67358
 20
114.837
 11
1.57735
 21
114.633
  0
LINE
  8
0
 10
1.57735
 20
114.633
 11
1.45622
 21
114.442
  0
LINE
  8
0
 10
1.45622
 20
114.442
 11
1.31213
 21
114.268
  0
LINE
  8
0
 10
1.31213
 20
114.268
 11
1.14735
 21
114.113
  0
LINE
  8
0
 10
1.14735
 20
114.113
 11
0.964478
 21
113.98
  0
LINE
  8
0
 10
0.964478
 20
113.98
 11
0.766388
 21
113.871
  0
LINE
  8
0
 10
0.766388
 20
113.871
 11
0.556229
 21
113.788
  0
LINE
  8
0
 10
0.556229
 20
113.788
 11
0.33728
 21
113.732
  0
LINE
  8
0
 10
0.33728
 20
113.732
 11
0.113022
 21
113.704
  0
LINE
  8
0
 10
0.113022
 20
113.704
 11
-0.113022
 21
113.704
  0
LINE
  8
0
 10
7.40581
 20
114.003
 11
7.21892
 21
114.027
  0
LINE
  8
0
 10
7.21892
 20
114.027
 11
7.03647
 21
114.073
  0
LINE
  8
0
 10
7.03647
 20
114.073
 11
6.86133
 21
114.143
  0
LINE
  8
0
 10
6.86133
 20
114.143
 11
6.69626
 21
114.234
  0
LINE
  8
0
 10
6.69626
 20
114.234
 11
6.54385
 21
114.344
  0
LINE
  8
0
 10
6.54385
 20
114.344
 11
6.40654
 21
114.473
  0
LINE
  8
0
 10
6.40654
 20
114.473
 11
6.28647
 21
114.618
  0
LINE
  8
0
 10
6.28647
 20
114.618
 11
6.18553
 21
114.777
  0
LINE
  8
0
 10
6.18553
 20
114.777
 11
6.10533
 21
114.948
  0
LINE
  8
0
 10
6.10533
 20
114.948
 11
6.04712
 21
115.127
  0
LINE
  8
0
 10
6.04712
 20
115.127
 11
6.01183
 21
115.312
  0
LINE
  8
0
 10
6.01183
 20
115.312
 11
6
 21
115.5
  0
LINE
  8
0
 10
6
 20
115.5
 11
6.01183
 21
115.688
  0
LINE
  8
0
 10
6.01183
 20
115.688
 11
6.04712
 21
115.873
  0
LINE
  8
0
 10
6.04712
 20
115.873
 11
6.10533
 21
116.052
  0
LINE
  8
0
 10
6.10533
 20
116.052
 11
6.18553
 21
116.223
  0
LINE
  8
0
 10
6.18553
 20
116.223
 11
6.28647
 21
116.382
  0
LINE
  8
0
 10
6.28647
 20
116.382
 11
6.40654
 21
116.527
  0
LINE
  8
0
 10
6.40654
 20
116.527
 11
6.54385
 21
116.656
  0
LINE
  8
0
 10
6.54385
 20
116.656
 11
6.69626
 21
116.766
  0
LINE
  8
0
 10
6.69626
 20
116.766
 11
6.86133
 21
116.857
  0
LINE
  8
0
 10
6.86133
 20
116.857
 11
7.03647
 21
116.927
  0
LINE
  8
0
 10
7.03647
 20
116.927
 11
7.21892
 21
116.973
  0
LINE
  8
0
 10
7.21892
 20
116.973
 11
7.40581
 21
116.997
  0
LINE
  8
0
 10
7.40581
 20
116.997
 11
7.59418
 21
116.997
  0
LINE
  8
0
 10
7.59418
 20
116.997
 11
7.78107
 21
116.973
  0
LINE
  8
0
 10
7.78107
 20
116.973
 11
7.96352
 21
116.927
  0
LINE
  8
0
 10
7.96352
 20
116.927
 11
8.13866
 21
116.857
  0
LINE
  8
0
 10
8.13866
 20
116.857
 11
8.30373
 21
116.766
  0
LINE
  8
0
 10
8.30373
 20
116.766
 11
8.45613
 21
116.656
  0
LINE
  8
0
 10
8.45613
 20
116.656
 11
8.59344
 21
116.527
  0
LINE
  8
0
 10
8.59344
 20
116.527
 11
8.71352
 21
116.382
  0
LINE
  8
0
 10
8.71352
 20
116.382
 11
8.81445
 21
116.223
  0
LINE
  8
0
 10
8.81445
 20
116.223
 11
8.89465
 21
116.052
  0
LINE
  8
0
 10
8.89465
 20
116.052
 11
8.95287
 21
115.873
  0
LINE
  8
0
 10
8.95287
 20
115.873
 11
8.98816
 21
115.688
  0
LINE
  8
0
 10
8.98816
 20
115.688
 11
9
 21
115.5
  0
LINE
  8
0
 10
9
 20
115.5
 11
8.98816
 21
115.312
  0
LINE
  8
0
 10
8.98816
 20
115.312
 11
8.95287
 21
115.127
  0
LINE
  8
0
 10
8.95287
 20
115.127
 11
8.89465
 21
114.948
  0
LINE
  8
0
 10
8.89465
 20
114.948
 11
8.81445
 21
114.777
  0
LINE
  8
0
 10
8.81445
 20
114.777
 11
8.71352
 21
114.618
  0
LINE
  8
0
 10
8.71352
 20
114.618
 11
8.59344
 21
114.473
  0
LINE
  8
0
 10
8.59344
 20
114.473
 11
8.45613
 21
114.344
  0
LINE
  8
0
 10
8.45613
 20
114.344
 11
8.30373
 21
114.234
  0
LINE
  8
0
 10
8.30373
 20
114.234
 11
8.13866
 21
114.143
  0
LINE
  8
0
 10
8.13866
 20
114.143
 11
7.96352
 21
114.073
  0
LINE
  8
0
 10
7.96352
 20
114.073
 11
7.78107
 21
114.027
  0
LINE
  8
0
 10
7.78107
 20
114.027
 11
7.59418
 21
114.003
  0
LINE
  8
0
 10
7.59418
 20
114.003
 11
7.40581
 21
114.003
  0
LINE
  8
0
 10
-7.59418
 20
114.003
 11
-7.78107
 21
114.027
  0
LINE
  8
0
 10
-7.78107
 20
114.027
 11
-7.96352
 21
114.073
  0
LINE
  8
0
 10
-7.96352
 20
114.073
 11
-8.13866
 21
114.143
  0
LINE
  8
0
 10
-8.13866
 20
114.143
 11
-8.30373
 21
114.234
  0
LINE
  8
0
 10
-8.30373
 20
114.234
 11
-8.45613
 21
114.344
  0
LINE
  8
0
 10
-8.45613
 20
114.344
 11
-8.59344
 21
114.473
  0
LINE
  8
0
 10
-8.59344
 20
114.473
 11
-8.71352
 21
114.618
  0
LINE
  8
0
 10
-8.71352
 20
114.618
 11
-8.81445
 21
114.777
  0
LINE
  8
0
 10
-8.81445
 20
114.777
 11
-8.89465
 21
114.948
  0
LINE
  8
0
 10
-8.89465
 20
114.948
 11
-8.95287
 21
115.127
  0
LINE
  8
0
 10
-8.95287
 20
115.127
 11
-8.98816
 21
115.312
  0
LINE
  8
0
 10
-8.98816
 20
115.312
 11
-9
 21
115.5
  0
LINE
  8
0
 10
-9
 20
115.5
 11
-8.98816
 21
115.688
  0
LINE
  8
0
 10
-8.98816
 20
115.688
 11
-8.95287
 21
115.873
  0
LINE
  8
0
 10
-8.95287
 20
115.873
 11
-8.89465
 21
116.052
  0
LINE
  8
0
 10
-8.89465
 20
116.052
 11
-8.81445
 21
116.223
  0
LINE
  8
0
 10
-8.81445
 20
116.223
 11
-8.71352
 21
116.382
  0
LINE
  8
0
 10
-8.71352
 20
116.382
 11
-8.59344
 21
116.527
  0
LINE
  8
0
 10
-8.59344
 20
116.527
 11
-8.45613
 21
116.656
  0
LINE
  8
0
 10
-8.45613
 20
116.656
 11
-8.30373
 21
116.766
  0
LINE
  8
0
 10
-8.30373
 20
116.766
 11
-8.13866
 21
116.857
  0
LINE
  8
0
 10
-8.13866
 20
116.857
 11
-7.96352
 21
116.927
  0
LINE
  8
0
 10
-7.96352
 20
116.927
 11
-7.78107
 21
116.973
  0
LINE
  8
0
 10
-7.78107
 20
116.973
 11
-7.59418
 21
116.997
  0
LINE
  8
0
 10
-7.59418
 20
116.997
 11
-7.40581
 21
116.997
  0
LINE
  8
0
 10
-7.40581
 20
116.997
 11
-7.21892
 21
116.973
  0
LINE
  8
0
 10
-7.21892
 20
116.973
 11
-7.03647
 21
116.927
  0
LINE
  8
0
 10
-7.03647
 20
116.927
 11
-6.86133
 21
116.857
  0
LINE
  8
0
 10
-6.86133
 20
116.857
 11
-6.69626
 21
116.766
  0
LINE
  8
0
 10
-6.69626
 20
116.766
 11
-6.54385
 21
116.656
  0
LINE
  8
0
 10
-6.54385
 20
116.656
 11
-6.40654
 21
116.527
  0
LINE
  8
0
 10
-6.40654
 20
116.527
 11
-6.28647
 21
116.382
  0
LINE
  8
0
 10
-6.28647
 20
116.382
 11
-6.18553
 21
116.223
  0
LINE
  8
0
 10
-6.18553
 20
116.223
 11
-6.10533
 21
116.052
  0
LINE
  8
0
 10
-6.10533
 20
116.052
 11
-6.04712
 21
115.873
  0
LINE
  8
0
 10
-6.04712
 20
115.873
 11
-6.01183
 21
115.688
  0
LINE
  8
0
 10
-6.01183
 20
115.688
 11
-6
 21
115.5
  0
LINE
  8
0
 10
-6
 20
115.5
 11
-6.01183
 21
115.312
  0
LINE
  8
0
 10
-6.01183
 20
115.312
 11
-6.04712
 21
115.127
  0
LINE
  8
0
 10
-6.04712
 20
115.127
 11
-6.10533
 21
114.948
  0
LINE
  8
0
 10
-6.10533
 20
114.948
 11
-6.18553
 21
114.777
  0
LINE
  8
0
 10
-6.18553
 20
114.777
 11
-6.28647
 21
114.618
  0
LINE
  8
0
 10
-6.28647
 20
114.618
 11
-6.40654
 21
114.473
  0
LINE
  8
0
 10
-6.40654
 20
114.473
 11
-6.54385
 21
114.344
  0
LINE
  8
0
 10
-6.54385
 20
114.344
 11
-6.69626
 21
114.234
  0
LINE
  8
0
 10
-6.69626
 20
114.234
 11
-6.86133
 21
114.143
  0
LINE
  8
0
 10
-6.86133
 20
114.143
 11
-7.03647
 21
114.073
  0
LINE
  8
0
 10
-7.03647
 20
114.073
 11
-7.21892
 21
114.027
  0
LINE
  8
0
 10
-7.21892
 20
114.027
 11
-7.40581
 21
114.003
  0
LINE
  8
0
 10
-7.40581
 20
114.003
 11
-7.59418
 21
114.003
  0
LINE
  8
0
 10
60.4369
 20
86.0886
 11
61.0451
 21
86.2447
  0
LINE
  8
0
 10
61.0451
 20
86.2447
 11
61.6289
 21
86.4759
  0
LINE
  8
0
 10
61.6289
 20
86.4759
 11
62.1791
 21
86.7784
  0
LINE
  8
0
 10
62.1791
 20
86.7784
 11
62.6871
 21
87.1474
  0
LINE
  8
0
 10
62.6871
 20
87.1474
 11
63.1448
 21
87.5773
  0
LINE
  8
0
 10
63.1448
 20
87.5773
 11
63.5451
 21
88.0611
  0
LINE
  8
0
 10
63.5451
 20
88.0611
 11
63.8815
 21
88.5912
  0
LINE
  8
0
 10
63.8815
 20
88.5912
 11
64.1489
 21
89.1594
  0
LINE
  8
0
 10
64.1489
 20
89.1594
 11
64.3429
 21
89.7566
  0
LINE
  8
0
 10
64.3429
 20
89.7566
 11
64.4606
 21
90.3733
  0
LINE
  8
0
 10
64.4606
 20
90.3733
 11
64.5
 21
91
  0
LINE
  8
0
 10
64.5
 20
91
 11
64.5
 21
106.328
  0
LINE
  8
0
 10
64.5
 20
106.328
 11
35.5
 21
106.328
  0
LINE
  8
0
 10
35.5
 20
106.328
 11
35.5
 21
91
  0
LINE
  8
0
 10
35.5
 20
91
 11
35.5394
 21
90.3733
  0
LINE
  8
0
 10
35.5394
 20
90.3733
 11
35.6571
 21
89.7566
  0
LINE
  8
0
 10
35.6571
 20
89.7566
 11
35.8511
 21
89.1594
  0
LINE
  8
0
 10
35.8511
 20
89.1594
 11
36.1185
 21
88.5912
  0
LINE
  8
0
 10
36.1185
 20
88.5912
 11
36.4549
 21
88.0611
  0
LINE
  8
0
 10
36.4549
 20
88.0611
 11
36.8551
 21
87.5773
  0
LINE
  8
0
 10
36.8551
 20
87.5773
 11
37.3129
 21
87.1474
  0
LINE
  8
0
 10
37.3129
 20
87.1474
 11
37.8209
 21
86.7784
  0
LINE
  8
0
 10
37.8209
 20
86.7784
 11
38.3711
 21
86.4759
  0
LINE
  8
0
 10
38.3711
 20
86.4759
 11
38.9549
 21
86.2447
  0
LINE
  8
0
 10
38.9549
 20
86.2447
 11
39.5631
 21
86.0886
  0
LINE
  8
0
 10
39.5631
 20
86.0886
 11
40.186
 21
86.0099
  0
LINE
  8
0
 10
40.186
 20
86.0099
 11
59.8139
 21
86.0099
  0
LINE
  8
0
 10
59.8139
 20
86.0099
 11
60.4369
 21
86.0886
  0
LINE
  8
0
 10
49.887
 20
98.7036
 11
49.6627
 21
98.7319
  0
LINE
  8
0
 10
49.6627
 20
98.7319
 11
49.4438
 21
98.7881
  0
LINE
  8
0
 10
49.4438
 20
98.7881
 11
49.2336
 21
98.8713
  0
LINE
  8
0
 10
49.2336
 20
98.8713
 11
49.0355
 21
98.9802
  0
LINE
  8
0
 10
49.0355
 20
98.9802
 11
48.8526
 21
99.1131
  0
LINE
  8
0
 10
48.8526
 20
99.1131
 11
48.6879
 21
99.2678
  0
LINE
  8
0
 10
48.6879
 20
99.2678
 11
48.5438
 21
99.442
  0
LINE
  8
0
 10
48.5438
 20
99.442
 11
48.4226
 21
99.6329
  0
LINE
  8
0
 10
48.4226
 20
99.6329
 11
48.3264
 21
99.8374
  0
LINE
  8
0
 10
48.3264
 20
99.8374
 11
48.2565
 21
100.052
  0
LINE
  8
0
 10
48.2565
 20
100.052
 11
48.2142
 21
100.274
  0
LINE
  8
0
 10
48.2142
 20
100.274
 11
48.2
 21
100.5
  0
LINE
  8
0
 10
48.2
 20
100.5
 11
48.2142
 21
100.726
  0
LINE
  8
0
 10
48.2142
 20
100.726
 11
48.2565
 21
100.948
  0
LINE
  8
0
 10
48.2565
 20
100.948
 11
48.3264
 21
101.163
  0
LINE
  8
0
 10
48.3264
 20
101.163
 11
48.4226
 21
101.367
  0
LINE
  8
0
 10
48.4226
 20
101.367
 11
48.5438
 21
101.558
  0
LINE
  8
0
 10
48.5438
 20
101.558
 11
48.6879
 21
101.732
  0
LINE
  8
0
 10
48.6879
 20
101.732
 11
48.8526
 21
101.887
  0
LINE
  8
0
 10
48.8526
 20
101.887
 11
49.0355
 21
102.02
  0
LINE
  8
0
 10
49.0355
 20
102.02
 11
49.2336
 21
102.129
  0
LINE
  8
0
 10
49.2336
 20
102.129
 11
49.4438
 21
102.212
  0
LINE
  8
0
 10
49.4438
 20
102.212
 11
49.6627
 21
102.268
  0
LINE
  8
0
 10
49.6627
 20
102.268
 11
49.887
 21
102.296
  0
LINE
  8
0
 10
49.887
 20
102.296
 11
50.113
 21
102.296
  0
LINE
  8
0
 10
50.113
 20
102.296
 11
50.3373
 21
102.268
  0
LINE
  8
0
 10
50.3373
 20
102.268
 11
50.5562
 21
102.212
  0
LINE
  8
0
 10
50.5562
 20
102.212
 11
50.7664
 21
102.129
  0
LINE
  8
0
 10
50.7664
 20
102.129
 11
50.9645
 21
102.02
  0
LINE
  8
0
 10
50.9645
 20
102.02
 11
51.1474
 21
101.887
  0
LINE
  8
0
 10
51.1474
 20
101.887
 11
51.3121
 21
101.732
  0
LINE
  8
0
 10
51.3121
 20
101.732
 11
51.4562
 21
101.558
  0
LINE
  8
0
 10
51.4562
 20
101.558
 11
51.5773
 21
101.367
  0
LINE
  8
0
 10
51.5773
 20
101.367
 11
51.6736
 21
101.163
  0
LINE
  8
0
 10
51.6736
 20
101.163
 11
51.7434
 21
100.948
  0
LINE
  8
0
 10
51.7434
 20
100.948
 11
51.7858
 21
100.726
  0
LINE
  8
0
 10
51.7858
 20
100.726
 11
51.8
 21
100.5
  0
LINE
  8
0
 10
51.8
 20
100.5
 11
51.7858
 21
100.274
  0
LINE
  8
0
 10
51.7858
 20
100.274
 11
51.7434
 21
100.052
  0
LINE
  8
0
 10
51.7434
 20
100.052
 11
51.6736
 21
99.8374
  0
LINE
  8
0
 10
51.6736
 20
99.8374
 11
51.5773
 21
99.6329
  0
LINE
  8
0
 10
51.5773
 20
99.6329
 11
51.4562
 21
99.442
  0
LINE
  8
0
 10
51.4562
 20
99.442
 11
51.3121
 21
99.2678
  0
LINE
  8
0
 10
51.3121
 20
99.2678
 11
51.1474
 21
99.1131
  0
LINE
  8
0
 10
51.1474
 20
99.1131
 11
50.9645
 21
98.9802
  0
LINE
  8
0
 10
50.9645
 20
98.9802
 11
50.7664
 21
98.8713
  0
LINE
  8
0
 10
50.7664
 20
98.8713
 11
50.5562
 21
98.7881
  0
LINE
  8
0
 10
50.5562
 20
98.7881
 11
50.3373
 21
98.7319
  0
LINE
  8
0
 10
50.3373
 20
98.7319
 11
50.113
 21
98.7036
  0
LINE
  8
0
 10
50.113
 20
98.7036
 11
49.887
 21
98.7036
  0
LINE
  8
0
 10
57.4058
 20
99.003
 11
57.2189
 21
99.0266
  0
LINE
  8
0
 10
57.2189
 20
99.0266
 11
57.0365
 21
99.0734
  0
LINE
  8
0
 10
57.0365
 20
99.0734
 11
56.8613
 21
99.1428
  0
LINE
  8
0
 10
56.8613
 20
99.1428
 11
56.6963
 21
99.2335
  0
LINE
  8
0
 10
56.6963
 20
99.2335
 11
56.5439
 21
99.3442
  0
LINE
  8
0
 10
56.5439
 20
99.3442
 11
56.4065
 21
99.4732
  0
LINE
  8
0
 10
56.4065
 20
99.4732
 11
56.2865
 21
99.6183
  0
LINE
  8
0
 10
56.2865
 20
99.6183
 11
56.1855
 21
99.7774
  0
LINE
  8
0
 10
56.1855
 20
99.7774
 11
56.1053
 21
99.9478
  0
LINE
  8
0
 10
56.1053
 20
99.9478
 11
56.0471
 21
100.127
  0
LINE
  8
0
 10
56.0471
 20
100.127
 11
56.0118
 21
100.312
  0
LINE
  8
0
 10
56.0118
 20
100.312
 11
56
 21
100.5
  0
LINE
  8
0
 10
56
 20
100.5
 11
56.0118
 21
100.688
  0
LINE
  8
0
 10
56.0118
 20
100.688
 11
56.0471
 21
100.873
  0
LINE
  8
0
 10
56.0471
 20
100.873
 11
56.1053
 21
101.052
  0
LINE
  8
0
 10
56.1053
 20
101.052
 11
56.1855
 21
101.223
  0
LINE
  8
0
 10
56.1855
 20
101.223
 11
56.2865
 21
101.382
  0
LINE
  8
0
 10
56.2865
 20
101.382
 11
56.4065
 21
101.527
  0
LINE
  8
0
 10
56.4065
 20
101.527
 11
56.5439
 21
101.656
  0
LINE
  8
0
 10
56.5439
 20
101.656
 11
56.6963
 21
101.766
  0
LINE
  8
0
 10
56.6963
 20
101.766
 11
56.8613
 21
101.857
  0
LINE
  8
0
 10
56.8613
 20
101.857
 11
57.0365
 21
101.927
  0
LINE
  8
0
 10
57.0365
 20
101.927
 11
57.2189
 21
101.973
  0
LINE
  8
0
 10
57.2189
 20
101.973
 11
57.4058
 21
101.997
  0
LINE
  8
0
 10
57.4058
 20
101.997
 11
57.5942
 21
101.997
  0
LINE
  8
0
 10
57.5942
 20
101.997
 11
57.7811
 21
101.973
  0
LINE
  8
0
 10
57.7811
 20
101.973
 11
57.9635
 21
101.927
  0
LINE
  8
0
 10
57.9635
 20
101.927
 11
58.1387
 21
101.857
  0
LINE
  8
0
 10
58.1387
 20
101.857
 11
58.3037
 21
101.766
  0
LINE
  8
0
 10
58.3037
 20
101.766
 11
58.4561
 21
101.656
  0
LINE
  8
0
 10
58.4561
 20
101.656
 11
58.5934
 21
101.527
  0
LINE
  8
0
 10
58.5934
 20
101.527
 11
58.7135
 21
101.382
  0
LINE
  8
0
 10
58.7135
 20
101.382
 11
58.8145
 21
101.223
  0
LINE
  8
0
 10
58.8145
 20
101.223
 11
58.8947
 21
101.052
  0
LINE
  8
0
 10
58.8947
 20
101.052
 11
58.9529
 21
100.873
  0
LINE
  8
0
 10
58.9529
 20
100.873
 11
58.9882
 21
100.688
  0
LINE
  8
0
 10
58.9882
 20
100.688
 11
59
 21
100.5
  0
LINE
  8
0
 10
59
 20
100.5
 11
58.9882
 21
100.312
  0
LINE
  8
0
 10
58.9882
 20
100.312
 11
58.9529
 21
100.127
  0
LINE
  8
0
 10
58.9529
 20
100.127
 11
58.8947
 21
99.9478
  0
LINE
  8
0
 10
58.8947
 20
99.9478
 11
58.8145
 21
99.7774
  0
LINE
  8
0
 10
58.8145
 20
99.7774
 11
58.7135
 21
99.6183
  0
LINE
  8
0
 10
58.7135
 20
99.6183
 11
58.5934
 21
99.4732
  0
LINE
  8
0
 10
58.5934
 20
99.4732
 11
58.4561
 21
99.3442
  0
LINE
  8
0
 10
58.4561
 20
99.3442
 11
58.3037
 21
99.2335
  0
LINE
  8
0
 10
58.3037
 20
99.2335
 11
58.1387
 21
99.1428
  0
LINE
  8
0
 10
58.1387
 20
99.1428
 11
57.9635
 21
99.0734
  0
LINE
  8
0
 10
57.9635
 20
99.0734
 11
57.7811
 21
99.0266
  0
LINE
  8
0
 10
57.7811
 20
99.0266
 11
57.5942
 21
99.003
  0
LINE
  8
0
 10
57.5942
 20
99.003
 11
57.4058
 21
99.003
  0
LINE
  8
0
 10
42.4058
 20
99.003
 11
42.2189
 21
99.0266
  0
LINE
  8
0
 10
42.2189
 20
99.0266
 11
42.0365
 21
99.0734
  0
LINE
  8
0
 10
42.0365
 20
99.0734
 11
41.8613
 21
99.1428
  0
LINE
  8
0
 10
41.8613
 20
99.1428
 11
41.6963
 21
99.2335
  0
LINE
  8
0
 10
41.6963
 20
99.2335
 11
41.5439
 21
99.3442
  0
LINE
  8
0
 10
41.5439
 20
99.3442
 11
41.4065
 21
99.4732
  0
LINE
  8
0
 10
41.4065
 20
99.4732
 11
41.2865
 21
99.6183
  0
LINE
  8
0
 10
41.2865
 20
99.6183
 11
41.1855
 21
99.7774
  0
LINE
  8
0
 10
41.1855
 20
99.7774
 11
41.1053
 21
99.9478
  0
LINE
  8
0
 10
41.1053
 20
99.9478
 11
41.0471
 21
100.127
  0
LINE
  8
0
 10
41.0471
 20
100.127
 11
41.0118
 21
100.312
  0
LINE
  8
0
 10
41.0118
 20
100.312
 11
41
 21
100.5
  0
LINE
  8
0
 10
41
 20
100.5
 11
41.0118
 21
100.688
  0
LINE
  8
0
 10
41.0118
 20
100.688
 11
41.0471
 21
100.873
  0
LINE
  8
0
 10
41.0471
 20
100.873
 11
41.1053
 21
101.052
  0
LINE
  8
0
 10
41.1053
 20
101.052
 11
41.1855
 21
101.223
  0
LINE
  8
0
 10
41.1855
 20
101.223
 11
41.2865
 21
101.382
  0
LINE
  8
0
 10
41.2865
 20
101.382
 11
41.4065
 21
101.527
  0
LINE
  8
0
 10
41.4065
 20
101.527
 11
41.5439
 21
101.656
  0
LINE
  8
0
 10
41.5439
 20
101.656
 11
41.6963
 21
101.766
  0
LINE
  8
0
 10
41.6963
 20
101.766
 11
41.8613
 21
101.857
  0
LINE
  8
0
 10
41.8613
 20
101.857
 11
42.0365
 21
101.927
  0
LINE
  8
0
 10
42.0365
 20
101.927
 11
42.2189
 21
101.973
  0
LINE
  8
0
 10
42.2189
 20
101.973
 11
42.4058
 21
101.997
  0
LINE
  8
0
 10
42.4058
 20
101.997
 11
42.5942
 21
101.997
  0
LINE
  8
0
 10
42.5942
 20
101.997
 11
42.7811
 21
101.973
  0
LINE
  8
0
 10
42.7811
 20
101.973
 11
42.9635
 21
101.927
  0
LINE
  8
0
 10
42.9635
 20
101.927
 11
43.1387
 21
101.857
  0
LINE
  8
0
 10
43.1387
 20
101.857
 11
43.3037
 21
101.766
  0
LINE
  8
0
 10
43.3037
 20
101.766
 11
43.4561
 21
101.656
  0
LINE
  8
0
 10
43.4561
 20
101.656
 11
43.5934
 21
101.527
  0
LINE
  8
0
 10
43.5934
 20
101.527
 11
43.7135
 21
101.382
  0
LINE
  8
0
 10
43.7135
 20
101.382
 11
43.8145
 21
101.223
  0
LINE
  8
0
 10
43.8145
 20
101.223
 11
43.8947
 21
101.052
  0
LINE
  8
0
 10
43.8947
 20
101.052
 11
43.9529
 21
100.873
  0
LINE
  8
0
 10
43.9529
 20
100.873
 11
43.9882
 21
100.688
  0
LINE
  8
0
 10
43.9882
 20
100.688
 11
44
 21
100.5
  0
LINE
  8
0
 10
44
 20
100.5
 11
43.9882
 21
100.312
  0
LINE
  8
0
 10
43.9882
 20
100.312
 11
43.9529
 21
100.127
  0
LINE
  8
0
 10
43.9529
 20
100.127
 11
43.8947
 21
99.9478
  0
LINE
  8
0
 10
43.8947
 20
99.9478
 11
43.8145
 21
99.7774
  0
LINE
  8
0
 10
43.8145
 20
99.7774
 11
43.7135
 21
99.6183
  0
LINE
  8
0
 10
43.7135
 20
99.6183
 11
43.5934
 21
99.4732
  0
LINE
  8
0
 10
43.5934
 20
99.4732
 11
43.4561
 21
99.3442
  0
LINE
  8
0
 10
43.4561
 20
99.3442
 11
43.3037
 21
99.2335
  0
LINE
  8
0
 10
43.3037
 20
99.2335
 11
43.1387
 21
99.1428
  0
LINE
  8
0
 10
43.1387
 20
99.1428
 11
42.9635
 21
99.0734
  0
LINE
  8
0
 10
42.9635
 20
99.0734
 11
42.7811
 21
99.0266
  0
LINE
  8
0
 10
42.7811
 20
99.0266
 11
42.5942
 21
99.003
  0
LINE
  8
0
 10
42.5942
 20
99.003
 11
42.4058
 21
99.003
  0
LINE
  8
0
 10
57.3116
 20
90.0059
 11
56.9379
 21
90.0531
  0
LINE
  8
0
 10
56.9379
 20
90.0531
 11
56.5729
 21
90.1468
  0
LINE
  8
0
 10
56.5729
 20
90.1468
 11
56.2227
 21
90.2855
  0
LINE
  8
0
 10
56.2227
 20
90.2855
 11
55.8925
 21
90.467
  0
LINE
  8
0
 10
55.8925
 20
90.467
 11
55.5877
 21
90.6885
  0
LINE
  8
0
 10
55.5877
 20
90.6885
 11
55.3131
 21
90.9464
  0
LINE
  8
0
 10
55.3131
 20
90.9464
 11
55.0729
 21
91.2366
  0
LINE
  8
0
 10
55.0729
 20
91.2366
 11
54.8711
 21
91.5547
  0
LINE
  8
0
 10
54.8711
 20
91.5547
 11
54.7107
 21
91.8956
  0
LINE
  8
0
 10
54.7107
 20
91.8956
 11
54.5942
 21
92.2539
  0
LINE
  8
0
 10
54.5942
 20
92.2539
 11
54.5237
 21
92.624
  0
LINE
  8
0
 10
54.5237
 20
92.624
 11
54.5
 21
93
  0
LINE
  8
0
 10
54.5
 20
93
 11
54.5237
 21
93.376
  0
LINE
  8
0
 10
54.5237
 20
93.376
 11
54.5942
 21
93.7461
  0
LINE
  8
0
 10
54.5942
 20
93.7461
 11
54.7107
 21
94.1044
  0
LINE
  8
0
 10
54.7107
 20
94.1044
 11
54.8711
 21
94.4453
  0
LINE
  8
0
 10
54.8711
 20
94.4453
 11
55.0729
 21
94.7634
  0
LINE
  8
0
 10
55.0729
 20
94.7634
 11
55.3131
 21
95.0536
  0
LINE
  8
0
 10
55.3131
 20
95.0536
 11
55.5877
 21
95.3116
  0
LINE
  8
0
 10
55.5877
 20
95.3116
 11
55.8925
 21
95.533
  0
LINE
  8
0
 10
55.8925
 20
95.533
 11
56.2227
 21
95.7145
  0
LINE
  8
0
 10
56.2227
 20
95.7145
 11
56.5729
 21
95.8532
  0
LINE
  8
0
 10
56.5729
 20
95.8532
 11
56.9379
 21
95.9469
  0
LINE
  8
0
 10
56.9379
 20
95.9469
 11
57.3116
 21
95.9941
  0
LINE
  8
0
 10
57.3116
 20
95.9941
 11
57.6884
 21
95.9941
  0
LINE
  8
0
 10
57.6884
 20
95.9941
 11
58.0621
 21
95.9469
  0
LINE
  8
0
 10
58.0621
 20
95.9469
 11
58.427
 21
95.8532
  0
LINE
  8
0
 10
58.427
 20
95.8532
 11
58.7773
 21
95.7145
  0
LINE
  8
0
 10
58.7773
 20
95.7145
 11
59.1075
 21
95.533
  0
LINE
  8
0
 10
59.1075
 20
95.533
 11
59.4123
 21
95.3116
  0
LINE
  8
0
 10
59.4123
 20
95.3116
 11
59.6869
 21
95.0536
  0
LINE
  8
0
 10
59.6869
 20
95.0536
 11
59.927
 21
94.7634
  0
LINE
  8
0
 10
59.927
 20
94.7634
 11
60.1289
 21
94.4453
  0
LINE
  8
0
 10
60.1289
 20
94.4453
 11
60.2893
 21
94.1044
  0
LINE
  8
0
 10
60.2893
 20
94.1044
 11
60.4057
 21
93.7461
  0
LINE
  8
0
 10
60.4057
 20
93.7461
 11
60.4763
 21
93.376
  0
LINE
  8
0
 10
60.4763
 20
93.376
 11
60.5
 21
93
  0
LINE
  8
0
 10
60.5
 20
93
 11
60.4763
 21
92.624
  0
LINE
  8
0
 10
60.4763
 20
92.624
 11
60.4057
 21
92.2539
  0
LINE
  8
0
 10
60.4057
 20
92.2539
 11
60.2893
 21
91.8956
  0
LINE
  8
0
 10
60.2893
 20
91.8956
 11
60.1289
 21
91.5547
  0
LINE
  8
0
 10
60.1289
 20
91.5547
 11
59.927
 21
91.2366
  0
LINE
  8
0
 10
59.927
 20
91.2366
 11
59.6869
 21
90.9464
  0
LINE
  8
0
 10
59.6869
 20
90.9464
 11
59.4123
 21
90.6885
  0
LINE
  8
0
 10
59.4123
 20
90.6885
 11
59.1075
 21
90.467
  0
LINE
  8
0
 10
59.1075
 20
90.467
 11
58.7773
 21
90.2855
  0
LINE
  8
0
 10
58.7773
 20
90.2855
 11
58.427
 21
90.1468
  0
LINE
  8
0
 10
58.427
 20
90.1468
 11
58.0621
 21
90.0531
  0
LINE
  8
0
 10
58.0621
 20
90.0531
 11
57.6884
 21
90.0059
  0
LINE
  8
0
 10
57.6884
 20
90.0059
 11
57.3116
 21
90.0059
  0
LINE
  8
0
 10
42.3116
 20
90.0059
 11
41.9379
 21
90.0531
  0
LINE
  8
0
 10
41.9379
 20
90.0531
 11
41.5729
 21
90.1468
  0
LINE
  8
0
 10
41.5729
 20
90.1468
 11
41.2227
 21
90.2855
  0
LINE
  8
0
 10
41.2227
 20
90.2855
 11
40.8925
 21
90.467
  0
LINE
  8
0
 10
40.8925
 20
90.467
 11
40.5877
 21
90.6885
  0
LINE
  8
0
 10
40.5877
 20
90.6885
 11
40.3131
 21
90.9464
  0
LINE
  8
0
 10
40.3131
 20
90.9464
 11
40.0729
 21
91.2366
  0
LINE
  8
0
 10
40.0729
 20
91.2366
 11
39.8711
 21
91.5547
  0
LINE
  8
0
 10
39.8711
 20
91.5547
 11
39.7107
 21
91.8956
  0
LINE
  8
0
 10
39.7107
 20
91.8956
 11
39.5942
 21
92.2539
  0
LINE
  8
0
 10
39.5942
 20
92.2539
 11
39.5237
 21
92.624
  0
LINE
  8
0
 10
39.5237
 20
92.624
 11
39.5
 21
93
  0
LINE
  8
0
 10
39.5
 20
93
 11
39.5237
 21
93.376
  0
LINE
  8
0
 10
39.5237
 20
93.376
 11
39.5942
 21
93.7461
  0
LINE
  8
0
 10
39.5942
 20
93.7461
 11
39.7107
 21
94.1044
  0
LINE
  8
0
 10
39.7107
 20
94.1044
 11
39.8711
 21
94.4453
  0
LINE
  8
0
 10
39.8711
 20
94.4453
 11
40.0729
 21
94.7634
  0
LINE
  8
0
 10
40.0729
 20
94.7634
 11
40.3131
 21
95.0536
  0
LINE
  8
0
 10
40.3131
 20
95.0536
 11
40.5877
 21
95.3116
  0
LINE
  8
0
 10
40.5877
 20
95.3116
 11
40.8925
 21
95.533
  0
LINE
  8
0
 10
40.8925
 20
95.533
 11
41.2227
 21
95.7145
  0
LINE
  8
0
 10
41.2227
 20
95.7145
 11
41.5729
 21
95.8532
  0
LINE
  8
0
 10
41.5729
 20
95.8532
 11
41.9379
 21
95.9469
  0
LINE
  8
0
 10
41.9379
 20
95.9469
 11
42.3116
 21
95.9941
  0
LINE
  8
0
 10
42.3116
 20
95.9941
 11
42.6884
 21
95.9941
  0
LINE
  8
0
 10
42.6884
 20
95.9941
 11
43.0621
 21
95.9469
  0
LINE
  8
0
 10
43.0621
 20
95.9469
 11
43.427
 21
95.8532
  0
LINE
  8
0
 10
43.427
 20
95.8532
 11
43.7773
 21
95.7145
  0
LINE
  8
0
 10
43.7773
 20
95.7145
 11
44.1075
 21
95.533
  0
LINE
  8
0
 10
44.1075
 20
95.533
 11
44.4123
 21
95.3116
  0
LINE
  8
0
 10
44.4123
 20
95.3116
 11
44.6869
 21
95.0536
  0
LINE
  8
0
 10
44.6869
 20
95.0536
 11
44.927
 21
94.7634
  0
LINE
  8
0
 10
44.927
 20
94.7634
 11
45.1289
 21
94.4453
  0
LINE
  8
0
 10
45.1289
 20
94.4453
 11
45.2893
 21
94.1044
  0
LINE
  8
0
 10
45.2893
 20
94.1044
 11
45.4057
 21
93.7461
  0
LINE
  8
0
 10
45.4057
 20
93.7461
 11
45.4763
 21
93.376
  0
LINE
  8
0
 10
45.4763
 20
93.376
 11
45.5
 21
93
  0
LINE
  8
0
 10
45.5
 20
93
 11
45.4763
 21
92.624
  0
LINE
  8
0
 10
45.4763
 20
92.624
 11
45.4057
 21
92.2539
  0
LINE
  8
0
 10
45.4057
 20
92.2539
 11
45.2893
 21
91.8956
  0
LINE
  8
0
 10
45.2893
 20
91.8956
 11
45.1289
 21
91.5547
  0
LINE
  8
0
 10
45.1289
 20
91.5547
 11
44.927
 21
91.2366
  0
LINE
  8
0
 10
44.927
 20
91.2366
 11
44.6869
 21
90.9464
  0
LINE
  8
0
 10
44.6869
 20
90.9464
 11
44.4123
 21
90.6885
  0
LINE
  8
0
 10
44.4123
 20
90.6885
 11
44.1075
 21
90.467
  0
LINE
  8
0
 10
44.1075
 20
90.467
 11
43.7773
 21
90.2855
  0
LINE
  8
0
 10
43.7773
 20
90.2855
 11
43.427
 21
90.1468
  0
LINE
  8
0
 10
43.427
 20
90.1468
 11
43.0621
 21
90.0531
  0
LINE
  8
0
 10
43.0621
 20
90.0531
 11
42.6884
 21
90.0059
  0
LINE
  8
0
 10
42.6884
 20
90.0059
 11
42.3116
 21
90.0059
  0
LINE
  8
0
 10
49.9058
 20
91.503
 11
49.7189
 21
91.5266
  0
LINE
  8
0
 10
49.7189
 20
91.5266
 11
49.5365
 21
91.5734
  0
LINE
  8
0
 10
49.5365
 20
91.5734
 11
49.3613
 21
91.6428
  0
LINE
  8
0
 10
49.3613
 20
91.6428
 11
49.1963
 21
91.7335
  0
LINE
  8
0
 10
49.1963
 20
91.7335
 11
49.0439
 21
91.8442
  0
LINE
  8
0
 10
49.0439
 20
91.8442
 11
48.9065
 21
91.9732
  0
LINE
  8
0
 10
48.9065
 20
91.9732
 11
48.7865
 21
92.1183
  0
LINE
  8
0
 10
48.7865
 20
92.1183
 11
48.6855
 21
92.2774
  0
LINE
  8
0
 10
48.6855
 20
92.2774
 11
48.6053
 21
92.4478
  0
LINE
  8
0
 10
48.6053
 20
92.4478
 11
48.5471
 21
92.627
  0
LINE
  8
0
 10
48.5471
 20
92.627
 11
48.5118
 21
92.812
  0
LINE
  8
0
 10
48.5118
 20
92.812
 11
48.5
 21
93
  0
LINE
  8
0
 10
48.5
 20
93
 11
48.5118
 21
93.188
  0
LINE
  8
0
 10
48.5118
 20
93.188
 11
48.5471
 21
93.373
  0
LINE
  8
0
 10
48.5471
 20
93.373
 11
48.6053
 21
93.5522
  0
LINE
  8
0
 10
48.6053
 20
93.5522
 11
48.6855
 21
93.7226
  0
LINE
  8
0
 10
48.6855
 20
93.7226
 11
48.7865
 21
93.8817
  0
LINE
  8
0
 10
48.7865
 20
93.8817
 11
48.9065
 21
94.0268
  0
LINE
  8
0
 10
48.9065
 20
94.0268
 11
49.0439
 21
94.1558
  0
LINE
  8
0
 10
49.0439
 20
94.1558
 11
49.1963
 21
94.2665
  0
LINE
  8
0
 10
49.1963
 20
94.2665
 11
49.3613
 21
94.3573
  0
LINE
  8
0
 10
49.3613
 20
94.3573
 11
49.5365
 21
94.4266
  0
LINE
  8
0
 10
49.5365
 20
94.4266
 11
49.7189
 21
94.4734
  0
LINE
  8
0
 10
49.7189
 20
94.4734
 11
49.9058
 21
94.4971
  0
LINE
  8
0
 10
49.9058
 20
94.4971
 11
50.0942
 21
94.4971
  0
LINE
  8
0
 10
50.0942
 20
94.4971
 11
50.2811
 21
94.4734
  0
LINE
  8
0
 10
50.2811
 20
94.4734
 11
50.4635
 21
94.4266
  0
LINE
  8
0
 10
50.4635
 20
94.4266
 11
50.6387
 21
94.3573
  0
LINE
  8
0
 10
50.6387
 20
94.3573
 11
50.8037
 21
94.2665
  0
LINE
  8
0
 10
50.8037
 20
94.2665
 11
50.9561
 21
94.1558
  0
LINE
  8
0
 10
50.9561
 20
94.1558
 11
51.0934
 21
94.0268
  0
LINE
  8
0
 10
51.0934
 20
94.0268
 11
51.2135
 21
93.8817
  0
LINE
  8
0
 10
51.2135
 20
93.8817
 11
51.3145
 21
93.7226
  0
LINE
  8
0
 10
51.3145
 20
93.7226
 11
51.3947
 21
93.5522
  0
LINE
  8
0
 10
51.3947
 20
93.5522
 11
51.4529
 21
93.373
  0
LINE
  8
0
 10
51.4529
 20
93.373
 11
51.4882
 21
93.188
  0
LINE
  8
0
 10
51.4882
 20
93.188
 11
51.5
 21
93
  0
LINE
  8
0
 10
51.5
 20
93
 11
51.4882
 21
92.812
  0
LINE
  8
0
 10
51.4882
 20
92.812
 11
51.4529
 21
92.627
  0
LINE
  8
0
 10
51.4529
 20
92.627
 11
51.3947
 21
92.4478
  0
LINE
  8
0
 10
51.3947
 20
92.4478
 11
51.3145
 21
92.2774
  0
LINE
  8
0
 10
51.3145
 20
92.2774
 11
51.2135
 21
92.1183
  0
LINE
  8
0
 10
51.2135
 20
92.1183
 11
51.0934
 21
91.9732
  0
LINE
  8
0
 10
51.0934
 20
91.9732
 11
50.9561
 21
91.8442
  0
LINE
  8
0
 10
50.9561
 20
91.8442
 11
50.8037
 21
91.7335
  0
LINE
  8
0
 10
50.8037
 20
91.7335
 11
50.6387
 21
91.6428
  0
LINE
  8
0
 10
50.6387
 20
91.6428
 11
50.4635
 21
91.5734
  0
LINE
  8
0
 10
50.4635
 20
91.5734
 11
50.2811
 21
91.5266
  0
LINE
  8
0
 10
50.2811
 20
91.5266
 11
50.0942
 21
91.503
  0
LINE
  8
0
 10
50.0942
 20
91.503
 11
49.9058
 21
91.503
  0
LINE
  8
0
 10
10.4369
 20
86.0886
 11
11.0451
 21
86.2447
  0
LINE
  8
0
 10
11.0451
 20
86.2447
 11
11.6289
 21
86.4759
  0
LINE
  8
0
 10
11.6289
 20
86.4759
 11
12.1791
 21
86.7784
  0
LINE
  8
0
 10
12.1791
 20
86.7784
 11
12.6871
 21
87.1474
  0
LINE
  8
0
 10
12.6871
 20
87.1474
 11
13.1448
 21
87.5773
  0
LINE
  8
0
 10
13.1448
 20
87.5773
 11
13.5451
 21
88.0611
  0
LINE
  8
0
 10
13.5451
 20
88.0611
 11
13.8815
 21
88.5912
  0
LINE
  8
0
 10
13.8815
 20
88.5912
 11
14.1489
 21
89.1594
  0
LINE
  8
0
 10
14.1489
 20
89.1594
 11
14.3429
 21
89.7566
  0
LINE
  8
0
 10
14.3429
 20
89.7566
 11
14.4606
 21
90.3733
  0
LINE
  8
0
 10
14.4606
 20
90.3733
 11
14.5
 21
91
  0
LINE
  8
0
 10
14.5
 20
91
 11
14.5
 21
106.328
  0
LINE
  8
0
 10
14.5
 20
106.328
 11
-14.5
 21
106.328
  0
LINE
  8
0
 10
-14.5
 20
106.328
 11
-14.5
 21
91
  0
LINE
  8
0
 10
-14.5
 20
91
 11
-14.4606
 21
90.3733
  0
LINE
  8
0
 10
-14.4606
 20
90.3733
 11
-14.3429
 21
89.7566
  0
LINE
  8
0
 10
-14.3429
 20
89.7566
 11
-14.1489
 21
89.1594
  0
LINE
  8
0
 10
-14.1489
 20
89.1594
 11
-13.8815
 21
88.5912
  0
LINE
  8
0
 10
-13.8815
 20
88.5912
 11
-13.5451
 21
88.0611
  0
LINE
  8
0
 10
-13.5451
 20
88.0611
 11
-13.1448
 21
87.5773
  0
LINE
  8
0
 10
-13.1448
 20
87.5773
 11
-12.6871
 21
87.1474
  0
LINE
  8
0
 10
-12.6871
 20
87.1474
 11
-12.1791
 21
86.7784
  0
LINE
  8
0
 10
-12.1791
 20
86.7784
 11
-11.6289
 21
86.4759
  0
LINE
  8
0
 10
-11.6289
 20
86.4759
 11
-11.0451
 21
86.2447
  0
LINE
  8
0
 10
-11.0451
 20
86.2447
 11
-10.4369
 21
86.0886
  0
LINE
  8
0
 10
-10.4369
 20
86.0886
 11
-9.81395
 21
86.0099
  0
LINE
  8
0
 10
-9.81395
 20
86.0099
 11
9.81395
 21
86.0099
  0
LINE
  8
0
 10
9.81395
 20
86.0099
 11
10.4369
 21
86.0886
  0
LINE
  8
0
 10
-0.113022
 20
98.7036
 11
-0.33728
 21
98.7319
  0
LINE
  8
0
 10
-0.33728
 20
98.7319
 11
-0.556229
 21
98.7881
  0
LINE
  8
0
 10
-0.556229
 20
98.7881
 11
-0.766388
 21
98.8713
  0
LINE
  8
0
 10
-0.766388
 20
98.8713
 11
-0.964478
 21
98.9802
  0
LINE
  8
0
 10
-0.964478
 20
98.9802
 11
-1.14735
 21
99.1131
  0
LINE
  8
0
 10
-1.14735
 20
99.1131
 11
-1.31213
 21
99.2678
  0
LINE
  8
0
 10
-1.31213
 20
99.2678
 11
-1.45622
 21
99.442
  0
LINE
  8
0
 10
-1.45622
 20
99.442
 11
-1.57735
 21
99.6329
  0
LINE
  8
0
 10
-1.57735
 20
99.6329
 11
-1.67358
 21
99.8374
  0
LINE
  8
0
 10
-1.67358
 20
99.8374
 11
-1.74344
 21
100.052
  0
LINE
  8
0
 10
-1.74344
 20
100.052
 11
-1.7858
 21
100.274
  0
LINE
  8
0
 10
-1.7858
 20
100.274
 11
-1.79999
 21
100.5
  0
LINE
  8
0
 10
-1.79999
 20
100.5
 11
-1.7858
 21
100.726
  0
LINE
  8
0
 10
-1.7858
 20
100.726
 11
-1.74344
 21
100.948
  0
LINE
  8
0
 10
-1.74344
 20
100.948
 11
-1.67358
 21
101.163
  0
LINE
  8
0
 10
-1.67358
 20
101.163
 11
-1.57735
 21
101.367
  0
LINE
  8
0
 10
-1.57735
 20
101.367
 11
-1.45622
 21
101.558
  0
LINE
  8
0
 10
-1.45622
 20
101.558
 11
-1.31213
 21
101.732
  0
LINE
  8
0
 10
-1.31213
 20
101.732
 11
-1.14735
 21
101.887
  0
LINE
  8
0
 10
-1.14735
 20
101.887
 11
-0.964478
 21
102.02
  0
LINE
  8
0
 10
-0.964478
 20
102.02
 11
-0.766388
 21
102.129
  0
LINE
  8
0
 10
-0.766388
 20
102.129
 11
-0.556229
 21
102.212
  0
LINE
  8
0
 10
-0.556229
 20
102.212
 11
-0.33728
 21
102.268
  0
LINE
  8
0
 10
-0.33728
 20
102.268
 11
-0.113022
 21
102.296
  0
LINE
  8
0
 10
-0.113022
 20
102.296
 11
0.113022
 21
102.296
  0
LINE
  8
0
 10
0.113022
 20
102.296
 11
0.33728
 21
102.268
  0
LINE
  8
0
 10
0.33728
 20
102.268
 11
0.556229
 21
102.212
  0
LINE
  8
0
 10
0.556229
 20
102.212
 11
0.766388
 21
102.129
  0
LINE
  8
0
 10
0.766388
 20
102.129
 11
0.964478
 21
102.02
  0
LINE
  8
0
 10
0.964478
 20
102.02
 11
1.14735
 21
101.887
  0
LINE
  8
0
 10
1.14735
 20
101.887
 11
1.31213
 21
101.732
  0
LINE
  8
0
 10
1.31213
 20
101.732
 11
1.45622
 21
101.558
  0
LINE
  8
0
 10
1.45622
 20
101.558
 11
1.57735
 21
101.367
  0
LINE
  8
0
 10
1.57735
 20
101.367
 11
1.67358
 21
101.163
  0
LINE
  8
0
 10
1.67358
 20
101.163
 11
1.74344
 21
100.948
  0
LINE
  8
0
 10
1.74344
 20
100.948
 11
1.7858
 21
100.726
  0
LINE
  8
0
 10
1.7858
 20
100.726
 11
1.79999
 21
100.5
  0
LINE
  8
0
 10
1.79999
 20
100.5
 11
1.7858
 21
100.274
  0
LINE
  8
0
 10
1.7858
 20
100.274
 11
1.74344
 21
100.052
  0
LINE
  8
0
 10
1.74344
 20
100.052
 11
1.67358
 21
99.8374
  0
LINE
  8
0
 10
1.67358
 20
99.8374
 11
1.57735
 21
99.6329
  0
LINE
  8
0
 10
1.57735
 20
99.6329
 11
1.45622
 21
99.442
  0
LINE
  8
0
 10
1.45622
 20
99.442
 11
1.31213
 21
99.2678
  0
LINE
  8
0
 10
1.31213
 20
99.2678
 11
1.14735
 21
99.1131
  0
LINE
  8
0
 10
1.14735
 20
99.1131
 11
0.964478
 21
98.9802
  0
LINE
  8
0
 10
0.964478
 20
98.9802
 11
0.766388
 21
98.8713
  0
LINE
  8
0
 10
0.766388
 20
98.8713
 11
0.556229
 21
98.7881
  0
LINE
  8
0
 10
0.556229
 20
98.7881
 11
0.33728
 21
98.7319
  0
LINE
  8
0
 10
0.33728
 20
98.7319
 11
0.113022
 21
98.7036
  0
LINE
  8
0
 10
0.113022
 20
98.7036
 11
-0.113022
 21
98.7036
  0
LINE
  8
0
 10
-7.59418
 20
99.003
 11
-7.78107
 21
99.0266
  0
LINE
  8
0
 10
-7.78107
 20
99.0266
 11
-7.96352
 21
99.0734
  0
LINE
  8
0
 10
-7.96352
 20
99.0734
 11
-8.13866
 21
99.1428
  0
LINE
  8
0
 10
-8.13866
 20
99.1428
 11
-8.30373
 21
99.2335
  0
LINE
  8
0
 10
-8.30373
 20
99.2335
 11
-8.45613
 21
99.3442
  0
LINE
  8
0
 10
-8.45613
 20
99.3442
 11
-8.59344
 21
99.4732
  0
LINE
  8
0
 10
-8.59344
 20
99.4732
 11
-8.71352
 21
99.6183
  0
LINE
  8
0
 10
-8.71352
 20
99.6183
 11
-8.81445
 21
99.7774
  0
LINE
  8
0
 10
-8.81445
 20
99.7774
 11
-8.89465
 21
99.9478
  0
LINE
  8
0
 10
-8.89465
 20
99.9478
 11
-8.95287
 21
100.127
  0
LINE
  8
0
 10
-8.95287
 20
100.127
 11
-8.98816
 21
100.312
  0
LINE
  8
0
 10
-8.98816
 20
100.312
 11
-9
 21
100.5
  0
LINE
  8
0
 10
-9
 20
100.5
 11
-8.98816
 21
100.688
  0
LINE
  8
0
 10
-8.98816
 20
100.688
 11
-8.95287
 21
100.873
  0
LINE
  8
0
 10
-8.95287
 20
100.873
 11
-8.89465
 21
101.052
  0
LINE
  8
0
 10
-8.89465
 20
101.052
 11
-8.81445
 21
101.223
  0
LINE
  8
0
 10
-8.81445
 20
101.223
 11
-8.71352
 21
101.382
  0
LINE
  8
0
 10
-8.71352
 20
101.382
 11
-8.59344
 21
101.527
  0
LINE
  8
0
 10
-8.59344
 20
101.527
 11
-8.45613
 21
101.656
  0
LINE
  8
0
 10
-8.45613
 20
101.656
 11
-8.30373
 21
101.766
  0
LINE
  8
0
 10
-8.30373
 20
101.766
 11
-8.13866
 21
101.857
  0
LINE
  8
0
 10
-8.13866
 20
101.857
 11
-7.96352
 21
101.927
  0
LINE
  8
0
 10
-7.96352
 20
101.927
 11
-7.78107
 21
101.973
  0
LINE
  8
0
 10
-7.78107
 20
101.973
 11
-7.59418
 21
101.997
  0
LINE
  8
0
 10
-7.59418
 20
101.997
 11
-7.40581
 21
101.997
  0
LINE
  8
0
 10
-7.40581
 20
101.997
 11
-7.21892
 21
101.973
  0
LINE
  8
0
 10
-7.21892
 20
101.973
 11
-7.03647
 21
101.927
  0
LINE
  8
0
 10
-7.03647
 20
101.927
 11
-6.86133
 21
101.857
  0
LINE
  8
0
 10
-6.86133
 20
101.857
 11
-6.69626
 21
101.766
  0
LINE
  8
0
 10
-6.69626
 20
101.766
 11
-6.54385
 21
101.656
  0
LINE
  8
0
 10
-6.54385
 20
101.656
 11
-6.40654
 21
101.527
  0
LINE
  8
0
 10
-6.40654
 20
101.527
 11
-6.28647
 21
101.382
  0
LINE
  8
0
 10
-6.28647
 20
101.382
 11
-6.18553
 21
101.223
  0
LINE
  8
0
 10
-6.18553
 20
101.223
 11
-6.10533
 21
101.052
  0
LINE
  8
0
 10
-6.10533
 20
101.052
 11
-6.04712
 21
100.873
  0
LINE
  8
0
 10
-6.04712
 20
100.873
 11
-6.01183
 21
100.688
  0
LINE
  8
0
 10
-6.01183
 20
100.688
 11
-6
 21
100.5
  0
LINE
  8
0
 10
-6
 20
100.5
 11
-6.01183
 21
100.312
  0
LINE
  8
0
 10
-6.01183
 20
100.312
 11
-6.04712
 21
100.127
  0
LINE
  8
0
 10
-6.04712
 20
100.127
 11
-6.10533
 21
99.9478
  0
LINE
  8
0
 10
-6.10533
 20
99.9478
 11
-6.18553
 21
99.7774
  0
LINE
  8
0
 10
-6.18553
 20
99.7774
 11
-6.28647
 21
99.6183
  0
LINE
  8
0
 10
-6.28647
 20
99.6183
 11
-6.40654
 21
99.4732
  0
LINE
  8
0
 10
-6.40654
 20
99.4732
 11
-6.54385
 21
99.3442
  0
LINE
  8
0
 10
-6.54385
 20
99.3442
 11
-6.69626
 21
99.2335
  0
LINE
  8
0
 10
-6.69626
 20
99.2335
 11
-6.86133
 21
99.1428
  0
LINE
  8
0
 10
-6.86133
 20
99.1428
 11
-7.03647
 21
99.0734
  0
LINE
  8
0
 10
-7.03647
 20
99.0734
 11
-7.21892
 21
99.0266
  0
LINE
  8
0
 10
-7.21892
 20
99.0266
 11
-7.40581
 21
99.003
  0
LINE
  8
0
 10
-7.40581
 20
99.003
 11
-7.59418
 21
99.003
  0
LINE
  8
0
 10
7.40581
 20
99.003
 11
7.21892
 21
99.0266
  0
LINE
  8
0
 10
7.21892
 20
99.0266
 11
7.03647
 21
99.0734
  0
LINE
  8
0
 10
7.03647
 20
99.0734
 11
6.86133
 21
99.1428
  0
LINE
  8
0
 10
6.86133
 20
99.1428
 11
6.69626
 21
99.2335
  0
LINE
  8
0
 10
6.69626
 20
99.2335
 11
6.54385
 21
99.3442
  0
LINE
  8
0
 10
6.54385
 20
99.3442
 11
6.40654
 21
99.4732
  0
LINE
  8
0
 10
6.40654
 20
99.4732
 11
6.28647
 21
99.6183
  0
LINE
  8
0
 10
6.28647
 20
99.6183
 11
6.18553
 21
99.7774
  0
LINE
  8
0
 10
6.18553
 20
99.7774
 11
6.10533
 21
99.9478
  0
LINE
  8
0
 10
6.10533
 20
99.9478
 11
6.04712
 21
100.127
  0
LINE
  8
0
 10
6.04712
 20
100.127
 11
6.01183
 21
100.312
  0
LINE
  8
0
 10
6.01183
 20
100.312
 11
6
 21
100.5
  0
LINE
  8
0
 10
6
 20
100.5
 11
6.01183
 21
100.688
  0
LINE
  8
0
 10
6.01183
 20
100.688
 11
6.04712
 21
100.873
  0
LINE
  8
0
 10
6.04712
 20
100.873
 11
6.10533
 21
101.052
  0
LINE
  8
0
 10
6.10533
 20
101.052
 11
6.18553
 21
101.223
  0
LINE
  8
0
 10
6.18553
 20
101.223
 11
6.28647
 21
101.382
  0
LINE
  8
0
 10
6.28647
 20
101.382
 11
6.40654
 21
101.527
  0
LINE
  8
0
 10
6.40654
 20
101.527
 11
6.54385
 21
101.656
  0
LINE
  8
0
 10
6.54385
 20
101.656
 11
6.69626
 21
101.766
  0
LINE
  8
0
 10
6.69626
 20
101.766
 11
6.86133
 21
101.857
  0
LINE
  8
0
 10
6.86133
 20
101.857
 11
7.03647
 21
101.927
  0
LINE
  8
0
 10
7.03647
 20
101.927
 11
7.21892
 21
101.973
  0
LINE
  8
0
 10
7.21892
 20
101.973
 11
7.40581
 21
101.997
  0
LINE
  8
0
 10
7.40581
 20
101.997
 11
7.59418
 21
101.997
  0
LINE
  8
0
 10
7.59418
 20
101.997
 11
7.78107
 21
101.973
  0
LINE
  8
0
 10
7.78107
 20
101.973
 11
7.96352
 21
101.927
  0
LINE
  8
0
 10
7.96352
 20
101.927
 11
8.13866
 21
101.857
  0
LINE
  8
0
 10
8.13866
 20
101.857
 11
8.30373
 21
101.766
  0
LINE
  8
0
 10
8.30373
 20
101.766
 11
8.45613
 21
101.656
  0
LINE
  8
0
 10
8.45613
 20
101.656
 11
8.59344
 21
101.527
  0
LINE
  8
0
 10
8.59344
 20
101.527
 11
8.71352
 21
101.382
  0
LINE
  8
0
 10
8.71352
 20
101.382
 11
8.81445
 21
101.223
  0
LINE
  8
0
 10
8.81445
 20
101.223
 11
8.89465
 21
101.052
  0
LINE
  8
0
 10
8.89465
 20
101.052
 11
8.95287
 21
100.873
  0
LINE
  8
0
 10
8.95287
 20
100.873
 11
8.98816
 21
100.688
  0
LINE
  8
0
 10
8.98816
 20
100.688
 11
9
 21
100.5
  0
LINE
  8
0
 10
9
 20
100.5
 11
8.98816
 21
100.312
  0
LINE
  8
0
 10
8.98816
 20
100.312
 11
8.95287
 21
100.127
  0
LINE
  8
0
 10
8.95287
 20
100.127
 11
8.89465
 21
99.9478
  0
LINE
  8
0
 10
8.89465
 20
99.9478
 11
8.81445
 21
99.7774
  0
LINE
  8
0
 10
8.81445
 20
99.7774
 11
8.71352
 21
99.6183
  0
LINE
  8
0
 10
8.71352
 20
99.6183
 11
8.59344
 21
99.4732
  0
LINE
  8
0
 10
8.59344
 20
99.4732
 11
8.45613
 21
99.3442
  0
LINE
  8
0
 10
8.45613
 20
99.3442
 11
8.30373
 21
99.2335
  0
LINE
  8
0
 10
8.30373
 20
99.2335
 11
8.13866
 21
99.1428
  0
LINE
  8
0
 10
8.13866
 20
99.1428
 11
7.96352
 21
99.0734
  0
LINE
  8
0
 10
7.96352
 20
99.0734
 11
7.78107
 21
99.0266
  0
LINE
  8
0
 10
7.78107
 20
99.0266
 11
7.59418
 21
99.003
  0
LINE
  8
0
 10
7.59418
 20
99.003
 11
7.40581
 21
99.003
  0
LINE
  8
0
 10
-0.194641
 20
89.9061
 11
-0.580872
 21
89.9549
  0
LINE
  8
0
 10
-0.580872
 20
89.9549
 11
-0.957947
 21
90.0517
  0
LINE
  8
0
 10
-0.957947
 20
90.0517
 11
-1.3199
 21
90.195
  0
LINE
  8
0
 10
-1.3199
 20
90.195
 11
-1.66106
 21
90.3826
  0
LINE
  8
0
 10
-1.66106
 20
90.3826
 11
-1.97601
 21
90.6114
  0
LINE
  8
0
 10
-1.97601
 20
90.6114
 11
-2.2598
 21
90.8779
  0
LINE
  8
0
 10
-2.2598
 20
90.8779
 11
-2.50795
 21
91.1779
  0
LINE
  8
0
 10
-2.50795
 20
91.1779
 11
-2.71654
 21
91.5066
  0
LINE
  8
0
 10
-2.71654
 20
91.5066
 11
-2.88229
 21
91.8588
  0
LINE
  8
0
 10
-2.88229
 20
91.8588
 11
-3.00259
 21
92.2291
  0
LINE
  8
0
 10
-3.00259
 20
92.2291
 11
-3.07555
 21
92.6115
  0
LINE
  8
0
 10
-3.07555
 20
92.6115
 11
-3.09999
 21
93
  0
LINE
  8
0
 10
-3.09999
 20
93
 11
-3.07555
 21
93.3885
  0
LINE
  8
0
 10
-3.07555
 20
93.3885
 11
-3.00259
 21
93.771
  0
LINE
  8
0
 10
-3.00259
 20
93.771
 11
-2.88229
 21
94.1412
  0
LINE
  8
0
 10
-2.88229
 20
94.1412
 11
-2.71654
 21
94.4934
  0
LINE
  8
0
 10
-2.71654
 20
94.4934
 11
-2.50795
 21
94.8221
  0
LINE
  8
0
 10
-2.50795
 20
94.8221
 11
-2.2598
 21
95.1221
  0
LINE
  8
0
 10
-2.2598
 20
95.1221
 11
-1.97601
 21
95.3886
  0
LINE
  8
0
 10
-1.97601
 20
95.3886
 11
-1.66106
 21
95.6174
  0
LINE
  8
0
 10
-1.66106
 20
95.6174
 11
-1.3199
 21
95.805
  0
LINE
  8
0
 10
-1.3199
 20
95.805
 11
-0.957947
 21
95.9483
  0
LINE
  8
0
 10
-0.957947
 20
95.9483
 11
-0.580872
 21
96.0451
  0
LINE
  8
0
 10
-0.580872
 20
96.0451
 11
-0.194641
 21
96.0939
  0
LINE
  8
0
 10
-0.194641
 20
96.0939
 11
0.194641
 21
96.0939
  0
LINE
  8
0
 10
0.194641
 20
96.0939
 11
0.580872
 21
96.0451
  0
LINE
  8
0
 10
0.580872
 20
96.0451
 11
0.957947
 21
95.9483
  0
LINE
  8
0
 10
0.957947
 20
95.9483
 11
1.3199
 21
95.805
  0
LINE
  8
0
 10
1.3199
 20
95.805
 11
1.66106
 21
95.6174
  0
LINE
  8
0
 10
1.66106
 20
95.6174
 11
1.97601
 21
95.3886
  0
LINE
  8
0
 10
1.97601
 20
95.3886
 11
2.2598
 21
95.1221
  0
LINE
  8
0
 10
2.2598
 20
95.1221
 11
2.50795
 21
94.8221
  0
LINE
  8
0
 10
2.50795
 20
94.8221
 11
2.71654
 21
94.4934
  0
LINE
  8
0
 10
2.71654
 20
94.4934
 11
2.88229
 21
94.1412
  0
LINE
  8
0
 10
2.88229
 20
94.1412
 11
3.00259
 21
93.771
  0
LINE
  8
0
 10
3.00259
 20
93.771
 11
3.07555
 21
93.3885
  0
LINE
  8
0
 10
3.07555
 20
93.3885
 11
3.09999
 21
93
  0
LINE
  8
0
 10
3.09999
 20
93
 11
3.07555
 21
92.6115
  0
LINE
  8
0
 10
3.07555
 20
92.6115
 11
3.00259
 21
92.2291
  0
LINE
  8
0
 10
3.00259
 20
92.2291
 11
2.88229
 21
91.8588
  0
LINE
  8
0
 10
2.88229
 20
91.8588
 11
2.71654
 21
91.5066
  0
LINE
  8
0
 10
2.71654
 20
91.5066
 11
2.50795
 21
91.1779
  0
LINE
  8
0
 10
2.50795
 20
91.1779
 11
2.2598
 21
90.8779
  0
LINE
  8
0
 10
2.2598
 20
90.8779
 11
1.97601
 21
90.6114
  0
LINE
  8
0
 10
1.97601
 20
90.6114
 11
1.66106
 21
90.3826
  0
LINE
  8
0
 10
1.66106
 20
90.3826
 11
1.3199
 21
90.195
  0
LINE
  8
0
 10
1.3199
 20
90.195
 11
0.957947
 21
90.0517
  0
LINE
  8
0
 10
0.957947
 20
90.0517
 11
0.580872
 21
89.9549
  0
LINE
  8
0
 10
0.580872
 20
89.9549
 11
0.194641
 21
89.9061
  0
LINE
  8
0
 10
0.194641
 20
89.9061
 11
-0.194641
 21
89.9061
  0
LINE
  8
0
 10
7.31161
 20
90.0059
 11
6.93785
 21
90.0531
  0
LINE
  8
0
 10
6.93785
 20
90.0531
 11
6.57294
 21
90.1468
  0
LINE
  8
0
 10
6.57294
 20
90.1468
 11
6.22266
 21
90.2855
  0
LINE
  8
0
 10
6.22266
 20
90.2855
 11
5.89252
 21
90.467
  0
LINE
  8
0
 10
5.89252
 20
90.467
 11
5.58772
 21
90.6885
  0
LINE
  8
0
 10
5.58772
 20
90.6885
 11
5.31308
 21
90.9464
  0
LINE
  8
0
 10
5.31308
 20
90.9464
 11
5.07294
 21
91.2366
  0
LINE
  8
0
 10
5.07294
 20
91.2366
 11
4.87108
 21
91.5547
  0
LINE
  8
0
 10
4.87108
 20
91.5547
 11
4.71066
 21
91.8956
  0
LINE
  8
0
 10
4.71066
 20
91.8956
 11
4.59424
 21
92.2539
  0
LINE
  8
0
 10
4.59424
 20
92.2539
 11
4.52365
 21
92.624
  0
LINE
  8
0
 10
4.52365
 20
92.624
 11
4.5
 21
93
  0
LINE
  8
0
 10
4.5
 20
93
 11
4.52365
 21
93.376
  0
LINE
  8
0
 10
4.52365
 20
93.376
 11
4.59424
 21
93.7461
  0
LINE
  8
0
 10
4.59424
 20
93.7461
 11
4.71066
 21
94.1044
  0
LINE
  8
0
 10
4.71066
 20
94.1044
 11
4.87108
 21
94.4453
  0
LINE
  8
0
 10
4.87108
 20
94.4453
 11
5.07294
 21
94.7634
  0
LINE
  8
0
 10
5.07294
 20
94.7634
 11
5.31308
 21
95.0536
  0
LINE
  8
0
 10
5.31308
 20
95.0536
 11
5.58772
 21
95.3116
  0
LINE
  8
0
 10
5.58772
 20
95.3116
 11
5.89252
 21
95.533
  0
LINE
  8
0
 10
5.89252
 20
95.533
 11
6.22266
 21
95.7145
  0
LINE
  8
0
 10
6.22266
 20
95.7145
 11
6.57294
 21
95.8532
  0
LINE
  8
0
 10
6.57294
 20
95.8532
 11
6.93785
 21
95.9469
  0
LINE
  8
0
 10
6.93785
 20
95.9469
 11
7.31161
 21
95.9941
  0
LINE
  8
0
 10
7.31161
 20
95.9941
 11
7.68837
 21
95.9941
  0
LINE
  8
0
 10
7.68837
 20
95.9941
 11
8.06213
 21
95.9469
  0
LINE
  8
0
 10
8.06213
 20
95.9469
 11
8.42705
 21
95.8532
  0
LINE
  8
0
 10
8.42705
 20
95.8532
 11
8.77733
 21
95.7145
  0
LINE
  8
0
 10
8.77733
 20
95.7145
 11
9.10747
 21
95.533
  0
LINE
  8
0
 10
9.10747
 20
95.533
 11
9.41226
 21
95.3116
  0
LINE
  8
0
 10
9.41226
 20
95.3116
 11
9.6869
 21
95.0536
  0
LINE
  8
0
 10
9.6869
 20
95.0536
 11
9.92705
 21
94.7634
  0
LINE
  8
0
 10
9.92705
 20
94.7634
 11
10.1289
 21
94.4453
  0
LINE
  8
0
 10
10.1289
 20
94.4453
 11
10.2893
 21
94.1044
  0
LINE
  8
0
 10
10.2893
 20
94.1044
 11
10.4057
 21
93.7461
  0
LINE
  8
0
 10
10.4057
 20
93.7461
 11
10.4763
 21
93.376
  0
LINE
  8
0
 10
10.4763
 20
93.376
 11
10.5
 21
93
  0
LINE
  8
0
 10
10.5
 20
93
 11
10.4763
 21
92.624
  0
LINE
  8
0
 10
10.4763
 20
92.624
 11
10.4057
 21
92.2539
  0
LINE
  8
0
 10
10.4057
 20
92.2539
 11
10.2893
 21
91.8956
  0
LINE
  8
0
 10
10.2893
 20
91.8956
 11
10.1289
 21
91.5547
  0
LINE
  8
0
 10
10.1289
 20
91.5547
 11
9.92705
 21
91.2366
  0
LINE
  8
0
 10
9.92705
 20
91.2366
 11
9.6869
 21
90.9464
  0
LINE
  8
0
 10
9.6869
 20
90.9464
 11
9.41226
 21
90.6885
  0
LINE
  8
0
 10
9.41226
 20
90.6885
 11
9.10747
 21
90.467
  0
LINE
  8
0
 10
9.10747
 20
90.467
 11
8.77733
 21
90.2855
  0
LINE
  8
0
 10
8.77733
 20
90.2855
 11
8.42705
 21
90.1468
  0
LINE
  8
0
 10
8.42705
 20
90.1468
 11
8.06213
 21
90.0531
  0
LINE
  8
0
 10
8.06213
 20
90.0531
 11
7.68837
 21
90.0059
  0
LINE
  8
0
 10
7.68837
 20
90.0059
 11
7.31161
 21
90.0059
  0
LINE
  8
0
 10
-7.68837
 20
90.0059
 11
-8.06213
 21
90.0531
  0
LINE
  8
0
 10
-8.06213
 20
90.0531
 11
-8.42705
 21
90.1468
  0
LINE
  8
0
 10
-8.42705
 20
90.1468
 11
-8.77733
 21
90.2855
  0
LINE
  8
0
 10
-8.77733
 20
90.2855
 11
-9.10747
 21
90.467
  0
LINE
  8
0
 10
-9.10747
 20
90.467
 11
-9.41226
 21
90.6885
  0
LINE
  8
0
 10
-9.41226
 20
90.6885
 11
-9.6869
 21
90.9464
  0
LINE
  8
0
 10
-9.6869
 20
90.9464
 11
-9.92705
 21
91.2366
  0
LINE
  8
0
 10
-9.92705
 20
91.2366
 11
-10.1289
 21
91.5547
  0
LINE
  8
0
 10
-10.1289
 20
91.5547
 11
-10.2893
 21
91.8956
  0
LINE
  8
0
 10
-10.2893
 20
91.8956
 11
-10.4057
 21
92.2539
  0
LINE
  8
0
 10
-10.4057
 20
92.2539
 11
-10.4763
 21
92.624
  0
LINE
  8
0
 10
-10.4763
 20
92.624
 11
-10.5
 21
93
  0
LINE
  8
0
 10
-10.5
 20
93
 11
-10.4763
 21
93.376
  0
LINE
  8
0
 10
-10.4763
 20
93.376
 11
-10.4057
 21
93.7461
  0
LINE
  8
0
 10
-10.4057
 20
93.7461
 11
-10.2893
 21
94.1044
  0
LINE
  8
0
 10
-10.2893
 20
94.1044
 11
-10.1289
 21
94.4453
  0
LINE
  8
0
 10
-10.1289
 20
94.4453
 11
-9.92705
 21
94.7634
  0
LINE
  8
0
 10
-9.92705
 20
94.7634
 11
-9.6869
 21
95.0536
  0
LINE
  8
0
 10
-9.6869
 20
95.0536
 11
-9.41226
 21
95.3116
  0
LINE
  8
0
 10
-9.41226
 20
95.3116
 11
-9.10747
 21
95.533
  0
LINE
  8
0
 10
-9.10747
 20
95.533
 11
-8.77733
 21
95.7145
  0
LINE
  8
0
 10
-8.77733
 20
95.7145
 11
-8.42705
 21
95.8532
  0
LINE
  8
0
 10
-8.42705
 20
95.8532
 11
-8.06213
 21
95.9469
  0
LINE
  8
0
 10
-8.06213
 20
95.9469
 11
-7.68837
 21
95.9941
  0
LINE
  8
0
 10
-7.68837
 20
95.9941
 11
-7.31161
 21
95.9941
  0
LINE
  8
0
 10
-7.31161
 20
95.9941
 11
-6.93785
 21
95.9469
  0
LINE
  8
0
 10
-6.93785
 20
95.9469
 11
-6.57294
 21
95.8532
  0
LINE
  8
0
 10
-6.57294
 20
95.8532
 11
-6.22266
 21
95.7145
  0
LINE
  8
0
 10
-6.22266
 20
95.7145
 11
-5.89252
 21
95.533
  0
LINE
  8
0
 10
-5.89252
 20
95.533
 11
-5.58772
 21
95.3116
  0
LINE
  8
0
 10
-5.58772
 20
95.3116
 11
-5.31308
 21
95.0536
  0
LINE
  8
0
 10
-5.31308
 20
95.0536
 11
-5.07294
 21
94.7634
  0
LINE
  8
0
 10
-5.07294
 20
94.7634
 11
-4.87108
 21
94.4453
  0
LINE
  8
0
 10
-4.87108
 20
94.4453
 11
-4.71066
 21
94.1044
  0
LINE
  8
0
 10
-4.71066
 20
94.1044
 11
-4.59424
 21
93.7461
  0
LINE
  8
0
 10
-4.59424
 20
93.7461
 11
-4.52365
 21
93.376
  0
LINE
  8
0
 10
-4.52365
 20
93.376
 11
-4.5
 21
93
  0
LINE
  8
0
 10
-4.5
 20
93
 11
-4.52365
 21
92.624
  0
LINE
  8
0
 10
-4.52365
 20
92.624
 11
-4.59424
 21
92.2539
  0
LINE
  8
0
 10
-4.59424
 20
92.2539
 11
-4.71066
 21
91.8956
  0
LINE
  8
0
 10
-4.71066
 20
91.8956
 11
-4.87108
 21
91.5547
  0
LINE
  8
0
 10
-4.87108
 20
91.5547
 11
-5.07294
 21
91.2366
  0
LINE
  8
0
 10
-5.07294
 20
91.2366
 11
-5.31308
 21
90.9464
  0
LINE
  8
0
 10
-5.31308
 20
90.9464
 11
-5.58772
 21
90.6885
  0
LINE
  8
0
 10
-5.58772
 20
90.6885
 11
-5.89252
 21
90.467
  0
LINE
  8
0
 10
-5.89252
 20
90.467
 11
-6.22266
 21
90.2855
  0
LINE
  8
0
 10
-6.22266
 20
90.2855
 11
-6.57294
 21
90.1468
  0
LINE
  8
0
 10
-6.57294
 20
90.1468
 11
-6.93785
 21
90.0531
  0
LINE
  8
0
 10
-6.93785
 20
90.0531
 11
-7.31161
 21
90.0059
  0
LINE
  8
0
 10
-7.31161
 20
90.0059
 11
-7.68837
 21
90.0059
  0
LINE
  8
0
 10
10.4369
 20
32.0886
 11
11.0451
 21
32.2447
  0
LINE
  8
0
 10
11.0451
 20
32.2447
 11
11.6289
 21
32.4759
  0
LINE
  8
0
 10
11.6289
 20
32.4759
 11
12.1791
 21
32.7784
  0
LINE
  8
0
 10
12.1791
 20
32.7784
 11
12.6871
 21
33.1474
  0
LINE
  8
0
 10
12.6871
 20
33.1474
 11
13.1448
 21
33.5773
  0
LINE
  8
0
 10
13.1448
 20
33.5773
 11
13.5451
 21
34.0611
  0
LINE
  8
0
 10
13.5451
 20
34.0611
 11
13.8815
 21
34.5912
  0
LINE
  8
0
 10
13.8815
 20
34.5912
 11
14.1489
 21
35.1594
  0
LINE
  8
0
 10
14.1489
 20
35.1594
 11
14.3429
 21
35.7566
  0
LINE
  8
0
 10
14.3429
 20
35.7566
 11
14.4606
 21
36.3733
  0
LINE
  8
0
 10
14.4606
 20
36.3733
 11
14.5
 21
37
  0
LINE
  8
0
 10
14.5
 20
37
 11
14.5
 21
71
  0
LINE
  8
0
 10
14.5
 20
71
 11
14.4606
 21
71.6267
  0
LINE
  8
0
 10
14.4606
 20
71.6267
 11
14.3429
 21
72.2434
  0
LINE
  8
0
 10
14.3429
 20
72.2434
 11
14.1489
 21
72.8406
  0
LINE
  8
0
 10
14.1489
 20
72.8406
 11
13.8815
 21
73.4088
  0
LINE
  8
0
 10
13.8815
 20
73.4088
 11
13.5451
 21
73.9389
  0
LINE
  8
0
 10
13.5451
 20
73.9389
 11
13.1448
 21
74.4227
  0
LINE
  8
0
 10
13.1448
 20
74.4227
 11
12.6871
 21
74.8526
  0
LINE
  8
0
 10
12.6871
 20
74.8526
 11
12.1791
 21
75.2216
  0
LINE
  8
0
 10
12.1791
 20
75.2216
 11
11.6289
 21
75.5241
  0
LINE
  8
0
 10
11.6289
 20
75.5241
 11
11.0451
 21
75.7553
  0
LINE
  8
0
 10
11.0451
 20
75.7553
 11
10.4369
 21
75.9114
  0
LINE
  8
0
 10
10.4369
 20
75.9114
 11
9.81395
 21
75.9901
  0
LINE
  8
0
 10
9.81395
 20
75.9901
 11
-9.81395
 21
75.9901
  0
LINE
  8
0
 10
-9.81395
 20
75.9901
 11
-10.4369
 21
75.9114
  0
LINE
  8
0
 10
-10.4369
 20
75.9114
 11
-11.0451
 21
75.7553
  0
LINE
  8
0
 10
-11.0451
 20
75.7553
 11
-11.6289
 21
75.5241
  0
LINE
  8
0
 10
-11.6289
 20
75.5241
 11
-12.1791
 21
75.2216
  0
LINE
  8
0
 10
-12.1791
 20
75.2216
 11
-12.6871
 21
74.8526
  0
LINE
  8
0
 10
-12.6871
 20
74.8526
 11
-13.1448
 21
74.4227
  0
LINE
  8
0
 10
-13.1448
 20
74.4227
 11
-13.5451
 21
73.9389
  0
LINE
  8
0
 10
-13.5451
 20
73.9389
 11
-13.8815
 21
73.4088
  0
LINE
  8
0
 10
-13.8815
 20
73.4088
 11
-14.1489
 21
72.8406
  0
LINE
  8
0
 10
-14.1489
 20
72.8406
 11
-14.3429
 21
72.2434
  0
LINE
  8
0
 10
-14.3429
 20
72.2434
 11
-14.4606
 21
71.6267
  0
LINE
  8
0
 10
-14.4606
 20
71.6267
 11
-14.5
 21
71
  0
LINE
  8
0
 10
-14.5
 20
71
 11
-14.5
 21
37
  0
LINE
  8
0
 10
-14.5
 20
37
 11
-14.4606
 21
36.3733
  0
LINE
  8
0
 10
-14.4606
 20
36.3733
 11
-14.3429
 21
35.7566
  0
LINE
  8
0
 10
-14.3429
 20
35.7566
 11
-14.1489
 21
35.1594
  0
LINE
  8
0
 10
-14.1489
 20
35.1594
 11
-13.8815
 21
34.5912
  0
LINE
  8
0
 10
-13.8815
 20
34.5912
 11
-13.5451
 21
34.0611
  0
LINE
  8
0
 10
-13.5451
 20
34.0611
 11
-13.1448
 21
33.5773
  0
LINE
  8
0
 10
-13.1448
 20
33.5773
 11
-12.6871
 21
33.1474
  0
LINE
  8
0
 10
-12.6871
 20
33.1474
 11
-12.1791
 21
32.7784
  0
LINE
  8
0
 10
-12.1791
 20
32.7784
 11
-11.6289
 21
32.4759
  0
LINE
  8
0
 10
-11.6289
 20
32.4759
 11
-11.0451
 21
32.2447
  0
LINE
  8
0
 10
-11.0451
 20
32.2447
 11
-10.4369
 21
32.0886
  0
LINE
  8
0
 10
-10.4369
 20
32.0886
 11
-9.81395
 21
32.0099
  0
LINE
  8
0
 10
-9.81395
 20
32.0099
 11
9.81395
 21
32.0099
  0
LINE
  8
0
 10
9.81395
 20
32.0099
 11
10.4369
 21
32.0886
  0
LINE
  8
0
 10
7.31161
 20
66.0059
 11
6.93785
 21
66.0531
  0
LINE
  8
0
 10
6.93785
 20
66.0531
 11
6.57294
 21
66.1468
  0
LINE
  8
0
 10
6.57294
 20
66.1468
 11
6.22266
 21
66.2855
  0
LINE
  8
0
 10
6.22266
 20
66.2855
 11
5.89252
 21
66.467
  0
LINE
  8
0
 10
5.89252
 20
66.467
 11
5.58772
 21
66.6884
  0
LINE
  8
0
 10
5.58772
 20
66.6884
 11
5.31308
 21
66.9464
  0
LINE
  8
0
 10
5.31308
 20
66.9464
 11
5.07294
 21
67.2366
  0
LINE
  8
0
 10
5.07294
 20
67.2366
 11
4.87108
 21
67.5547
  0
LINE
  8
0
 10
4.87108
 20
67.5547
 11
4.71066
 21
67.8956
  0
LINE
  8
0
 10
4.71066
 20
67.8956
 11
4.59424
 21
68.2539
  0
LINE
  8
0
 10
4.59424
 20
68.2539
 11
4.52365
 21
68.624
  0
LINE
  8
0
 10
4.52365
 20
68.624
 11
4.5
 21
69
  0
LINE
  8
0
 10
4.5
 20
69
 11
4.52365
 21
69.376
  0
LINE
  8
0
 10
4.52365
 20
69.376
 11
4.59424
 21
69.7461
  0
LINE
  8
0
 10
4.59424
 20
69.7461
 11
4.71066
 21
70.1044
  0
LINE
  8
0
 10
4.71066
 20
70.1044
 11
4.87108
 21
70.4453
  0
LINE
  8
0
 10
4.87108
 20
70.4453
 11
5.07294
 21
70.7634
  0
LINE
  8
0
 10
5.07294
 20
70.7634
 11
5.31308
 21
71.0536
  0
LINE
  8
0
 10
5.31308
 20
71.0536
 11
5.58772
 21
71.3115
  0
LINE
  8
0
 10
5.58772
 20
71.3115
 11
5.89252
 21
71.533
  0
LINE
  8
0
 10
5.89252
 20
71.533
 11
6.22266
 21
71.7145
  0
LINE
  8
0
 10
6.22266
 20
71.7145
 11
6.57294
 21
71.8532
  0
LINE
  8
0
 10
6.57294
 20
71.8532
 11
6.93785
 21
71.9469
  0
LINE
  8
0
 10
6.93785
 20
71.9469
 11
7.31161
 21
71.9941
  0
LINE
  8
0
 10
7.31161
 20
71.9941
 11
7.68837
 21
71.9941
  0
LINE
  8
0
 10
7.68837
 20
71.9941
 11
8.06213
 21
71.9469
  0
LINE
  8
0
 10
8.06213
 20
71.9469
 11
8.42705
 21
71.8532
  0
LINE
  8
0
 10
8.42705
 20
71.8532
 11
8.77733
 21
71.7145
  0
LINE
  8
0
 10
8.77733
 20
71.7145
 11
9.10747
 21
71.533
  0
LINE
  8
0
 10
9.10747
 20
71.533
 11
9.41226
 21
71.3115
  0
LINE
  8
0
 10
9.41226
 20
71.3115
 11
9.6869
 21
71.0536
  0
LINE
  8
0
 10
9.6869
 20
71.0536
 11
9.92705
 21
70.7634
  0
LINE
  8
0
 10
9.92705
 20
70.7634
 11
10.1289
 21
70.4453
  0
LINE
  8
0
 10
10.1289
 20
70.4453
 11
10.2893
 21
70.1044
  0
LINE
  8
0
 10
10.2893
 20
70.1044
 11
10.4057
 21
69.7461
  0
LINE
  8
0
 10
10.4057
 20
69.7461
 11
10.4763
 21
69.376
  0
LINE
  8
0
 10
10.4763
 20
69.376
 11
10.5
 21
69
  0
LINE
  8
0
 10
10.5
 20
69
 11
10.4763
 21
68.624
  0
LINE
  8
0
 10
10.4763
 20
68.624
 11
10.4057
 21
68.2539
  0
LINE
  8
0
 10
10.4057
 20
68.2539
 11
10.2893
 21
67.8956
  0
LINE
  8
0
 10
10.2893
 20
67.8956
 11
10.1289
 21
67.5547
  0
LINE
  8
0
 10
10.1289
 20
67.5547
 11
9.92705
 21
67.2366
  0
LINE
  8
0
 10
9.92705
 20
67.2366
 11
9.6869
 21
66.9464
  0
LINE
  8
0
 10
9.6869
 20
66.9464
 11
9.41226
 21
66.6884
  0
LINE
  8
0
 10
9.41226
 20
66.6884
 11
9.10747
 21
66.467
  0
LINE
  8
0
 10
9.10747
 20
66.467
 11
8.77733
 21
66.2855
  0
LINE
  8
0
 10
8.77733
 20
66.2855
 11
8.42705
 21
66.1468
  0
LINE
  8
0
 10
8.42705
 20
66.1468
 11
8.06213
 21
66.0531
  0
LINE
  8
0
 10
8.06213
 20
66.0531
 11
7.68837
 21
66.0059
  0
LINE
  8
0
 10
7.68837
 20
66.0059
 11
7.31161
 21
66.0059
  0
LINE
  8
0
 10
-7.68837
 20
66.0059
 11
-8.06213
 21
66.0531
  0
LINE
  8
0
 10
-8.06213
 20
66.0531
 11
-8.42705
 21
66.1468
  0
LINE
  8
0
 10
-8.42705
 20
66.1468
 11
-8.77733
 21
66.2855
  0
LINE
  8
0
 10
-8.77733
 20
66.2855
 11
-9.10747
 21
66.467
  0
LINE
  8
0
 10
-9.10747
 20
66.467
 11
-9.41226
 21
66.6884
  0
LINE
  8
0
 10
-9.41226
 20
66.6884
 11
-9.6869
 21
66.9464
  0
LINE
  8
0
 10
-9.6869
 20
66.9464
 11
-9.92705
 21
67.2366
  0
LINE
  8
0
 10
-9.92705
 20
67.2366
 11
-10.1289
 21
67.5547
  0
LINE
  8
0
 10
-10.1289
 20
67.5547
 11
-10.2893
 21
67.8956
  0
LINE
  8
0
 10
-10.2893
 20
67.8956
 11
-10.4057
 21
68.2539
  0
LINE
  8
0
 10
-10.4057
 20
68.2539
 11
-10.4763
 21
68.624
  0
LINE
  8
0
 10
-10.4763
 20
68.624
 11
-10.5
 21
69
  0
LINE
  8
0
 10
-10.5
 20
69
 11
-10.4763
 21
69.376
  0
LINE
  8
0
 10
-10.4763
 20
69.376
 11
-10.4057
 21
69.7461
  0
LINE
  8
0
 10
-10.4057
 20
69.7461
 11
-10.2893
 21
70.1044
  0
LINE
  8
0
 10
-10.2893
 20
70.1044
 11
-10.1289
 21
70.4453
  0
LINE
  8
0
 10
-10.1289
 20
70.4453
 11
-9.92705
 21
70.7634
  0
LINE
  8
0
 10
-9.92705
 20
70.7634
 11
-9.6869
 21
71.0536
  0
LINE
  8
0
 10
-9.6869
 20
71.0536
 11
-9.41226
 21
71.3115
  0
LINE
  8
0
 10
-9.41226
 20
71.3115
 11
-9.10747
 21
71.533
  0
LINE
  8
0
 10
-9.10747
 20
71.533
 11
-8.77733
 21
71.7145
  0
LINE
  8
0
 10
-8.77733
 20
71.7145
 11
-8.42705
 21
71.8532
  0
LINE
  8
0
 10
-8.42705
 20
71.8532
 11
-8.06213
 21
71.9469
  0
LINE
  8
0
 10
-8.06213
 20
71.9469
 11
-7.68837
 21
71.9941
  0
LINE
  8
0
 10
-7.68837
 20
71.9941
 11
-7.31161
 21
71.9941
  0
LINE
  8
0
 10
-7.31161
 20
71.9941
 11
-6.93785
 21
71.9469
  0
LINE
  8
0
 10
-6.93785
 20
71.9469
 11
-6.57294
 21
71.8532
  0
LINE
  8
0
 10
-6.57294
 20
71.8532
 11
-6.22266
 21
71.7145
  0
LINE
  8
0
 10
-6.22266
 20
71.7145
 11
-5.89252
 21
71.533
  0
LINE
  8
0
 10
-5.89252
 20
71.533
 11
-5.58772
 21
71.3115
  0
LINE
  8
0
 10
-5.58772
 20
71.3115
 11
-5.31308
 21
71.0536
  0
LINE
  8
0
 10
-5.31308
 20
71.0536
 11
-5.07294
 21
70.7634
  0
LINE
  8
0
 10
-5.07294
 20
70.7634
 11
-4.87108
 21
70.4453
  0
LINE
  8
0
 10
-4.87108
 20
70.4453
 11
-4.71066
 21
70.1044
  0
LINE
  8
0
 10
-4.71066
 20
70.1044
 11
-4.59424
 21
69.7461
  0
LINE
  8
0
 10
-4.59424
 20
69.7461
 11
-4.52365
 21
69.376
  0
LINE
  8
0
 10
-4.52365
 20
69.376
 11
-4.5
 21
69
  0
LINE
  8
0
 10
-4.5
 20
69
 11
-4.52365
 21
68.624
  0
LINE
  8
0
 10
-4.52365
 20
68.624
 11
-4.59424
 21
68.2539
  0
LINE
  8
0
 10
-4.59424
 20
68.2539
 11
-4.71066
 21
67.8956
  0
LINE
  8
0
 10
-4.71066
 20
67.8956
 11
-4.87108
 21
67.5547
  0
LINE
  8
0
 10
-4.87108
 20
67.5547
 11
-5.07294
 21
67.2366
  0
LINE
  8
0
 10
-5.07294
 20
67.2366
 11
-5.31308
 21
66.9464
  0
LINE
  8
0
 10
-5.31308
 20
66.9464
 11
-5.58772
 21
66.6884
  0
LINE
  8
0
 10
-5.58772
 20
66.6884
 11
-5.89252
 21
66.467
  0
LINE
  8
0
 10
-5.89252
 20
66.467
 11
-6.22266
 21
66.2855
  0
LINE
  8
0
 10
-6.22266
 20
66.2855
 11
-6.57294
 21
66.1468
  0
LINE
  8
0
 10
-6.57294
 20
66.1468
 11
-6.93785
 21
66.0531
  0
LINE
  8
0
 10
-6.93785
 20
66.0531
 11
-7.31161
 21
66.0059
  0
LINE
  8
0
 10
-7.31161
 20
66.0059
 11
-7.68837
 21
66.0059
  0
LINE
  8
0
 10
-0.133423
 20
66.8792
 11
-0.398178
 21
66.9126
  0
LINE
  8
0
 10
-0.398178
 20
66.9126
 11
-0.656647
 21
66.979
  0
LINE
  8
0
 10
-0.656647
 20
66.979
 11
-0.90477
 21
67.0772
  0
LINE
  8
0
 10
-0.90477
 20
67.0772
 11
-1.13863
 21
67.2058
  0
LINE
  8
0
 10
-1.13863
 20
67.2058
 11
-1.35452
 21
67.3627
  0
LINE
  8
0
 10
-1.35452
 20
67.3627
 11
-1.54906
 21
67.5453
  0
LINE
  8
0
 10
-1.54906
 20
67.5453
 11
-1.71915
 21
67.7509
  0
LINE
  8
0
 10
-1.71915
 20
67.7509
 11
-1.86214
 21
67.9763
  0
LINE
  8
0
 10
-1.86214
 20
67.9763
 11
-1.97577
 21
68.2177
  0
LINE
  8
0
 10
-1.97577
 20
68.2177
 11
-2.05823
 21
68.4715
  0
LINE
  8
0
 10
-2.05823
 20
68.4715
 11
-2.10823
 21
68.7337
  0
LINE
  8
0
 10
-2.10823
 20
68.7337
 11
-2.125
 21
69
  0
LINE
  8
0
 10
-2.125
 20
69
 11
-2.10823
 21
69.2663
  0
LINE
  8
0
 10
-2.10823
 20
69.2663
 11
-2.05823
 21
69.5285
  0
LINE
  8
0
 10
-2.05823
 20
69.5285
 11
-1.97577
 21
69.7823
  0
LINE
  8
0
 10
-1.97577
 20
69.7823
 11
-1.86214
 21
70.0237
  0
LINE
  8
0
 10
-1.86214
 20
70.0237
 11
-1.71915
 21
70.249
  0
LINE
  8
0
 10
-1.71915
 20
70.249
 11
-1.54906
 21
70.4547
  0
LINE
  8
0
 10
-1.54906
 20
70.4547
 11
-1.35452
 21
70.6373
  0
LINE
  8
0
 10
-1.35452
 20
70.6373
 11
-1.13863
 21
70.7942
  0
LINE
  8
0
 10
-1.13863
 20
70.7942
 11
-0.90477
 21
70.9227
  0
LINE
  8
0
 10
-0.90477
 20
70.9227
 11
-0.656647
 21
71.021
  0
LINE
  8
0
 10
-0.656647
 20
71.021
 11
-0.398178
 21
71.0874
  0
LINE
  8
0
 10
-0.398178
 20
71.0874
 11
-0.133423
 21
71.1208
  0
LINE
  8
0
 10
-0.133423
 20
71.1208
 11
0.133423
 21
71.1208
  0
LINE
  8
0
 10
0.133423
 20
71.1208
 11
0.398178
 21
71.0874
  0
LINE
  8
0
 10
0.398178
 20
71.0874
 11
0.656647
 21
71.021
  0
LINE
  8
0
 10
0.656647
 20
71.021
 11
0.90477
 21
70.9227
  0
LINE
  8
0
 10
0.90477
 20
70.9227
 11
1.13863
 21
70.7942
  0
LINE
  8
0
 10
1.13863
 20
70.7942
 11
1.35452
 21
70.6373
  0
LINE
  8
0
 10
1.35452
 20
70.6373
 11
1.54906
 21
70.4547
  0
LINE
  8
0
 10
1.54906
 20
70.4547
 11
1.71915
 21
70.249
  0
LINE
  8
0
 10
1.71915
 20
70.249
 11
1.86214
 21
70.0237
  0
LINE
  8
0
 10
1.86214
 20
70.0237
 11
1.97577
 21
69.7823
  0
LINE
  8
0
 10
1.97577
 20
69.7823
 11
2.05823
 21
69.5285
  0
LINE
  8
0
 10
2.05823
 20
69.5285
 11
2.10823
 21
69.2663
  0
LINE
  8
0
 10
2.10823
 20
69.2663
 11
2.125
 21
69
  0
LINE
  8
0
 10
2.125
 20
69
 11
2.10823
 21
68.7337
  0
LINE
  8
0
 10
2.10823
 20
68.7337
 11
2.05823
 21
68.4715
  0
LINE
  8
0
 10
2.05823
 20
68.4715
 11
1.97577
 21
68.2177
  0
LINE
  8
0
 10
1.97577
 20
68.2177
 11
1.86214
 21
67.9763
  0
LINE
  8
0
 10
1.86214
 20
67.9763
 11
1.71915
 21
67.7509
  0
LINE
  8
0
 10
1.71915
 20
67.7509
 11
1.54906
 21
67.5453
  0
LINE
  8
0
 10
1.54906
 20
67.5453
 11
1.35452
 21
67.3627
  0
LINE
  8
0
 10
1.35452
 20
67.3627
 11
1.13863
 21
67.2058
  0
LINE
  8
0
 10
1.13863
 20
67.2058
 11
0.90477
 21
67.0772
  0
LINE
  8
0
 10
0.90477
 20
67.0772
 11
0.656647
 21
66.979
  0
LINE
  8
0
 10
0.656647
 20
66.979
 11
0.398178
 21
66.9126
  0
LINE
  8
0
 10
0.398178
 20
66.9126
 11
0.133423
 21
66.8792
  0
LINE
  8
0
 10
0.133423
 20
66.8792
 11
-0.133423
 21
66.8792
  0
LINE
  8
0
 10
-1.58675
 20
58.7517
 11
-3.17349
 21
61.5
  0
LINE
  8
0
 10
-3.17349
 20
61.5
 11
-1.58675
 21
64.2483
  0
LINE
  8
0
 10
-1.58675
 20
64.2483
 11
1.58675
 21
64.2483
  0
LINE
  8
0
 10
1.58675
 20
64.2483
 11
3.17349
 21
61.5
  0
LINE
  8
0
 10
3.17349
 20
61.5
 11
1.58675
 21
58.7517
  0
LINE
  8
0
 10
1.58675
 20
58.7517
 11
-1.58675
 21
58.7517
  0
LINE
  8
0
 10
7.40581
 20
60.0029
 11
7.21892
 21
60.0266
  0
LINE
  8
0
 10
7.21892
 20
60.0266
 11
7.03647
 21
60.0734
  0
LINE
  8
0
 10
7.03647
 20
60.0734
 11
6.86133
 21
60.1427
  0
LINE
  8
0
 10
6.86133
 20
60.1427
 11
6.69626
 21
60.2335
  0
LINE
  8
0
 10
6.69626
 20
60.2335
 11
6.54385
 21
60.3442
  0
LINE
  8
0
 10
6.54385
 20
60.3442
 11
6.40654
 21
60.4732
  0
LINE
  8
0
 10
6.40654
 20
60.4732
 11
6.28647
 21
60.6183
  0
LINE
  8
0
 10
6.28647
 20
60.6183
 11
6.18553
 21
60.7774
  0
LINE
  8
0
 10
6.18553
 20
60.7774
 11
6.10533
 21
60.9478
  0
LINE
  8
0
 10
6.10533
 20
60.9478
 11
6.04712
 21
61.127
  0
LINE
  8
0
 10
6.04712
 20
61.127
 11
6.01183
 21
61.312
  0
LINE
  8
0
 10
6.01183
 20
61.312
 11
6
 21
61.5
  0
LINE
  8
0
 10
6
 20
61.5
 11
6.01183
 21
61.688
  0
LINE
  8
0
 10
6.01183
 20
61.688
 11
6.04712
 21
61.873
  0
LINE
  8
0
 10
6.04712
 20
61.873
 11
6.10533
 21
62.0522
  0
LINE
  8
0
 10
6.10533
 20
62.0522
 11
6.18553
 21
62.2226
  0
LINE
  8
0
 10
6.18553
 20
62.2226
 11
6.28647
 21
62.3817
  0
LINE
  8
0
 10
6.28647
 20
62.3817
 11
6.40654
 21
62.5268
  0
LINE
  8
0
 10
6.40654
 20
62.5268
 11
6.54385
 21
62.6558
  0
LINE
  8
0
 10
6.54385
 20
62.6558
 11
6.69626
 21
62.7665
  0
LINE
  8
0
 10
6.69626
 20
62.7665
 11
6.86133
 21
62.8572
  0
LINE
  8
0
 10
6.86133
 20
62.8572
 11
7.03647
 21
62.9266
  0
LINE
  8
0
 10
7.03647
 20
62.9266
 11
7.21892
 21
62.9734
  0
LINE
  8
0
 10
7.21892
 20
62.9734
 11
7.40581
 21
62.997
  0
LINE
  8
0
 10
7.40581
 20
62.997
 11
7.59418
 21
62.997
  0
LINE
  8
0
 10
7.59418
 20
62.997
 11
7.78107
 21
62.9734
  0
LINE
  8
0
 10
7.78107
 20
62.9734
 11
7.96352
 21
62.9266
  0
LINE
  8
0
 10
7.96352
 20
62.9266
 11
8.13866
 21
62.8572
  0
LINE
  8
0
 10
8.13866
 20
62.8572
 11
8.30373
 21
62.7665
  0
LINE
  8
0
 10
8.30373
 20
62.7665
 11
8.45613
 21
62.6558
  0
LINE
  8
0
 10
8.45613
 20
62.6558
 11
8.59344
 21
62.5268
  0
LINE
  8
0
 10
8.59344
 20
62.5268
 11
8.71352
 21
62.3817
  0
LINE
  8
0
 10
8.71352
 20
62.3817
 11
8.81445
 21
62.2226
  0
LINE
  8
0
 10
8.81445
 20
62.2226
 11
8.89465
 21
62.0522
  0
LINE
  8
0
 10
8.89465
 20
62.0522
 11
8.95287
 21
61.873
  0
LINE
  8
0
 10
8.95287
 20
61.873
 11
8.98816
 21
61.688
  0
LINE
  8
0
 10
8.98816
 20
61.688
 11
9
 21
61.5
  0
LINE
  8
0
 10
9
 20
61.5
 11
8.98816
 21
61.312
  0
LINE
  8
0
 10
8.98816
 20
61.312
 11
8.95287
 21
61.127
  0
LINE
  8
0
 10
8.95287
 20
61.127
 11
8.89465
 21
60.9478
  0
LINE
  8
0
 10
8.89465
 20
60.9478
 11
8.81445
 21
60.7774
  0
LINE
  8
0
 10
8.81445
 20
60.7774
 11
8.71352
 21
60.6183
  0
LINE
  8
0
 10
8.71352
 20
60.6183
 11
8.59344
 21
60.4732
  0
LINE
  8
0
 10
8.59344
 20
60.4732
 11
8.45613
 21
60.3442
  0
LINE
  8
0
 10
8.45613
 20
60.3442
 11
8.30373
 21
60.2335
  0
LINE
  8
0
 10
8.30373
 20
60.2335
 11
8.13866
 21
60.1427
  0
LINE
  8
0
 10
8.13866
 20
60.1427
 11
7.96352
 21
60.0734
  0
LINE
  8
0
 10
7.96352
 20
60.0734
 11
7.78107
 21
60.0266
  0
LINE
  8
0
 10
7.78107
 20
60.0266
 11
7.59418
 21
60.0029
  0
LINE
  8
0
 10
7.59418
 20
60.0029
 11
7.40581
 21
60.0029
  0
LINE
  8
0
 10
-7.59418
 20
60.0029
 11
-7.78107
 21
60.0266
  0
LINE
  8
0
 10
-7.78107
 20
60.0266
 11
-7.96352
 21
60.0734
  0
LINE
  8
0
 10
-7.96352
 20
60.0734
 11
-8.13866
 21
60.1427
  0
LINE
  8
0
 10
-8.13866
 20
60.1427
 11
-8.30373
 21
60.2335
  0
LINE
  8
0
 10
-8.30373
 20
60.2335
 11
-8.45613
 21
60.3442
  0
LINE
  8
0
 10
-8.45613
 20
60.3442
 11
-8.59344
 21
60.4732
  0
LINE
  8
0
 10
-8.59344
 20
60.4732
 11
-8.71352
 21
60.6183
  0
LINE
  8
0
 10
-8.71352
 20
60.6183
 11
-8.81445
 21
60.7774
  0
LINE
  8
0
 10
-8.81445
 20
60.7774
 11
-8.89465
 21
60.9478
  0
LINE
  8
0
 10
-8.89465
 20
60.9478
 11
-8.95287
 21
61.127
  0
LINE
  8
0
 10
-8.95287
 20
61.127
 11
-8.98816
 21
61.312
  0
LINE
  8
0
 10
-8.98816
 20
61.312
 11
-9
 21
61.5
  0
LINE
  8
0
 10
-9
 20
61.5
 11
-8.98816
 21
61.688
  0
LINE
  8
0
 10
-8.98816
 20
61.688
 11
-8.95287
 21
61.873
  0
LINE
  8
0
 10
-8.95287
 20
61.873
 11
-8.89465
 21
62.0522
  0
LINE
  8
0
 10
-8.89465
 20
62.0522
 11
-8.81445
 21
62.2226
  0
LINE
  8
0
 10
-8.81445
 20
62.2226
 11
-8.71352
 21
62.3817
  0
LINE
  8
0
 10
-8.71352
 20
62.3817
 11
-8.59344
 21
62.5268
  0
LINE
  8
0
 10
-8.59344
 20
62.5268
 11
-8.45613
 21
62.6558
  0
LINE
  8
0
 10
-8.45613
 20
62.6558
 11
-8.30373
 21
62.7665
  0
LINE
  8
0
 10
-8.30373
 20
62.7665
 11
-8.13866
 21
62.8572
  0
LINE
  8
0
 10
-8.13866
 20
62.8572
 11
-7.96352
 21
62.9266
  0
LINE
  8
0
 10
-7.96352
 20
62.9266
 11
-7.78107
 21
62.9734
  0
LINE
  8
0
 10
-7.78107
 20
62.9734
 11
-7.59418
 21
62.997
  0
LINE
  8
0
 10
-7.59418
 20
62.997
 11
-7.40581
 21
62.997
  0
LINE
  8
0
 10
-7.40581
 20
62.997
 11
-7.21892
 21
62.9734
  0
LINE
  8
0
 10
-7.21892
 20
62.9734
 11
-7.03647
 21
62.9266
  0
LINE
  8
0
 10
-7.03647
 20
62.9266
 11
-6.86133
 21
62.8572
  0
LINE
  8
0
 10
-6.86133
 20
62.8572
 11
-6.69626
 21
62.7665
  0
LINE
  8
0
 10
-6.69626
 20
62.7665
 11
-6.54385
 21
62.6558
  0
LINE
  8
0
 10
-6.54385
 20
62.6558
 11
-6.40654
 21
62.5268
  0
LINE
  8
0
 10
-6.40654
 20
62.5268
 11
-6.28647
 21
62.3817
  0
LINE
  8
0
 10
-6.28647
 20
62.3817
 11
-6.18553
 21
62.2226
  0
LINE
  8
0
 10
-6.18553
 20
62.2226
 11
-6.10533
 21
62.0522
  0
LINE
  8
0
 10
-6.10533
 20
62.0522
 11
-6.04712
 21
61.873
  0
LINE
  8
0
 10
-6.04712
 20
61.873
 11
-6.01183
 21
61.688
  0
LINE
  8
0
 10
-6.01183
 20
61.688
 11
-6
 21
61.5
  0
LINE
  8
0
 10
-6
 20
61.5
 11
-6.01183
 21
61.312
  0
LINE
  8
0
 10
-6.01183
 20
61.312
 11
-6.04712
 21
61.127
  0
LINE
  8
0
 10
-6.04712
 20
61.127
 11
-6.10533
 21
60.9478
  0
LINE
  8
0
 10
-6.10533
 20
60.9478
 11
-6.18553
 21
60.7774
  0
LINE
  8
0
 10
-6.18553
 20
60.7774
 11
-6.28647
 21
60.6183
  0
LINE
  8
0
 10
-6.28647
 20
60.6183
 11
-6.40654
 21
60.4732
  0
LINE
  8
0
 10
-6.40654
 20
60.4732
 11
-6.54385
 21
60.3442
  0
LINE
  8
0
 10
-6.54385
 20
60.3442
 11
-6.69626
 21
60.2335
  0
LINE
  8
0
 10
-6.69626
 20
60.2335
 11
-6.86133
 21
60.1427
  0
LINE
  8
0
 10
-6.86133
 20
60.1427
 11
-7.03647
 21
60.0734
  0
LINE
  8
0
 10
-7.03647
 20
60.0734
 11
-7.21892
 21
60.0266
  0
LINE
  8
0
 10
-7.21892
 20
60.0266
 11
-7.40581
 21
60.0029
  0
LINE
  8
0
 10
-7.40581
 20
60.0029
 11
-7.59418
 21
60.0029
  0
LINE
  8
0
 10
-1.58675
 20
43.7517
 11
-3.17349
 21
46.5
  0
LINE
  8
0
 10
-3.17349
 20
46.5
 11
-1.58675
 21
49.2483
  0
LINE
  8
0
 10
-1.58675
 20
49.2483
 11
1.58675
 21
49.2483
  0
LINE
  8
0
 10
1.58675
 20
49.2483
 11
3.17349
 21
46.5
  0
LINE
  8
0
 10
3.17349
 20
46.5
 11
1.58675
 21
43.7517
  0
LINE
  8
0
 10
1.58675
 20
43.7517
 11
-1.58675
 21
43.7517
  0
LINE
  8
0
 10
-7.59418
 20
45.003
 11
-7.78107
 21
45.0266
  0
LINE
  8
0
 10
-7.78107
 20
45.0266
 11
-7.96352
 21
45.0734
  0
LINE
  8
0
 10
-7.96352
 20
45.0734
 11
-8.13866
 21
45.1428
  0
LINE
  8
0
 10
-8.13866
 20
45.1428
 11
-8.30373
 21
45.2335
  0
LINE
  8
0
 10
-8.30373
 20
45.2335
 11
-8.45613
 21
45.3442
  0
LINE
  8
0
 10
-8.45613
 20
45.3442
 11
-8.59344
 21
45.4732
  0
LINE
  8
0
 10
-8.59344
 20
45.4732
 11
-8.71352
 21
45.6183
  0
LINE
  8
0
 10
-8.71352
 20
45.6183
 11
-8.81445
 21
45.7774
  0
LINE
  8
0
 10
-8.81445
 20
45.7774
 11
-8.89465
 21
45.9478
  0
LINE
  8
0
 10
-8.89465
 20
45.9478
 11
-8.95287
 21
46.127
  0
LINE
  8
0
 10
-8.95287
 20
46.127
 11
-8.98816
 21
46.312
  0
LINE
  8
0
 10
-8.98816
 20
46.312
 11
-9
 21
46.5
  0
LINE
  8
0
 10
-9
 20
46.5
 11
-8.98816
 21
46.688
  0
LINE
  8
0
 10
-8.98816
 20
46.688
 11
-8.95287
 21
46.873
  0
LINE
  8
0
 10
-8.95287
 20
46.873
 11
-8.89465
 21
47.0522
  0
LINE
  8
0
 10
-8.89465
 20
47.0522
 11
-8.81445
 21
47.2226
  0
LINE
  8
0
 10
-8.81445
 20
47.2226
 11
-8.71352
 21
47.3817
  0
LINE
  8
0
 10
-8.71352
 20
47.3817
 11
-8.59344
 21
47.5268
  0
LINE
  8
0
 10
-8.59344
 20
47.5268
 11
-8.45613
 21
47.6558
  0
LINE
  8
0
 10
-8.45613
 20
47.6558
 11
-8.30373
 21
47.7665
  0
LINE
  8
0
 10
-8.30373
 20
47.7665
 11
-8.13866
 21
47.8573
  0
LINE
  8
0
 10
-8.13866
 20
47.8573
 11
-7.96352
 21
47.9266
  0
LINE
  8
0
 10
-7.96352
 20
47.9266
 11
-7.78107
 21
47.9734
  0
LINE
  8
0
 10
-7.78107
 20
47.9734
 11
-7.59418
 21
47.9971
  0
LINE
  8
0
 10
-7.59418
 20
47.9971
 11
-7.40581
 21
47.9971
  0
LINE
  8
0
 10
-7.40581
 20
47.9971
 11
-7.21892
 21
47.9734
  0
LINE
  8
0
 10
-7.21892
 20
47.9734
 11
-7.03647
 21
47.9266
  0
LINE
  8
0
 10
-7.03647
 20
47.9266
 11
-6.86133
 21
47.8573
  0
LINE
  8
0
 10
-6.86133
 20
47.8573
 11
-6.69626
 21
47.7665
  0
LINE
  8
0
 10
-6.69626
 20
47.7665
 11
-6.54385
 21
47.6558
  0
LINE
  8
0
 10
-6.54385
 20
47.6558
 11
-6.40654
 21
47.5268
  0
LINE
  8
0
 10
-6.40654
 20
47.5268
 11
-6.28647
 21
47.3817
  0
LINE
  8
0
 10
-6.28647
 20
47.3817
 11
-6.18553
 21
47.2226
  0
LINE
  8
0
 10
-6.18553
 20
47.2226
 11
-6.10533
 21
47.0522
  0
LINE
  8
0
 10
-6.10533
 20
47.0522
 11
-6.04712
 21
46.873
  0
LINE
  8
0
 10
-6.04712
 20
46.873
 11
-6.01183
 21
46.688
  0
LINE
  8
0
 10
-6.01183
 20
46.688
 11
-6
 21
46.5
  0
LINE
  8
0
 10
-6
 20
46.5
 11
-6.01183
 21
46.312
  0
LINE
  8
0
 10
-6.01183
 20
46.312
 11
-6.04712
 21
46.127
  0
LINE
  8
0
 10
-6.04712
 20
46.127
 11
-6.10533
 21
45.9478
  0
LINE
  8
0
 10
-6.10533
 20
45.9478
 11
-6.18553
 21
45.7774
  0
LINE
  8
0
 10
-6.18553
 20
45.7774
 11
-6.28647
 21
45.6183
  0
LINE
  8
0
 10
-6.28647
 20
45.6183
 11
-6.40654
 21
45.4732
  0
LINE
  8
0
 10
-6.40654
 20
45.4732
 11
-6.54385
 21
45.3442
  0
LINE
  8
0
 10
-6.54385
 20
45.3442
 11
-6.69626
 21
45.2335
  0
LINE
  8
0
 10
-6.69626
 20
45.2335
 11
-6.86133
 21
45.1428
  0
LINE
  8
0
 10
-6.86133
 20
45.1428
 11
-7.03647
 21
45.0734
  0
LINE
  8
0
 10
-7.03647
 20
45.0734
 11
-7.21892
 21
45.0266
  0
LINE
  8
0
 10
-7.21892
 20
45.0266
 11
-7.40581
 21
45.003
  0
LINE
  8
0
 10
-7.40581
 20
45.003
 11
-7.59418
 21
45.003
  0
LINE
  8
0
 10
7.40581
 20
45.003
 11
7.21892
 21
45.0266
  0
LINE
  8
0
 10
7.21892
 20
45.0266
 11
7.03647
 21
45.0734
  0
LINE
  8
0
 10
7.03647
 20
45.0734
 11
6.86133
 21
45.1428
  0
LINE
  8
0
 10
6.86133
 20
45.1428
 11
6.69626
 21
45.2335
  0
LINE
  8
0
 10
6.69626
 20
45.2335
 11
6.54385
 21
45.3442
  0
LINE
  8
0
 10
6.54385
 20
45.3442
 11
6.40654
 21
45.4732
  0
LINE
  8
0
 10
6.40654
 20
45.4732
 11
6.28647
 21
45.6183
  0
LINE
  8
0
 10
6.28647
 20
45.6183
 11
6.18553
 21
45.7774
  0
LINE
  8
0
 10
6.18553
 20
45.7774
 11
6.10533
 21
45.9478
  0
LINE
  8
0
 10
6.10533
 20
45.9478
 11
6.04712
 21
46.127
  0
LINE
  8
0
 10
6.04712
 20
46.127
 11
6.01183
 21
46.312
  0
LINE
  8
0
 10
6.01183
 20
46.312
 11
6
 21
46.5
  0
LINE
  8
0
 10
6
 20
46.5
 11
6.01183
 21
46.688
  0
LINE
  8
0
 10
6.01183
 20
46.688
 11
6.04712
 21
46.873
  0
LINE
  8
0
 10
6.04712
 20
46.873
 11
6.10533
 21
47.0522
  0
LINE
  8
0
 10
6.10533
 20
47.0522
 11
6.18553
 21
47.2226
  0
LINE
  8
0
 10
6.18553
 20
47.2226
 11
6.28647
 21
47.3817
  0
LINE
  8
0
 10
6.28647
 20
47.3817
 11
6.40654
 21
47.5268
  0
LINE
  8
0
 10
6.40654
 20
47.5268
 11
6.54385
 21
47.6558
  0
LINE
  8
0
 10
6.54385
 20
47.6558
 11
6.69626
 21
47.7665
  0
LINE
  8
0
 10
6.69626
 20
47.7665
 11
6.86133
 21
47.8573
  0
LINE
  8
0
 10
6.86133
 20
47.8573
 11
7.03647
 21
47.9266
  0
LINE
  8
0
 10
7.03647
 20
47.9266
 11
7.21892
 21
47.9734
  0
LINE
  8
0
 10
7.21892
 20
47.9734
 11
7.40581
 21
47.9971
  0
LINE
  8
0
 10
7.40581
 20
47.9971
 11
7.59418
 21
47.9971
  0
LINE
  8
0
 10
7.59418
 20
47.9971
 11
7.78107
 21
47.9734
  0
LINE
  8
0
 10
7.78107
 20
47.9734
 11
7.96352
 21
47.9266
  0
LINE
  8
0
 10
7.96352
 20
47.9266
 11
8.13866
 21
47.8573
  0
LINE
  8
0
 10
8.13866
 20
47.8573
 11
8.30373
 21
47.7665
  0
LINE
  8
0
 10
8.30373
 20
47.7665
 11
8.45613
 21
47.6558
  0
LINE
  8
0
 10
8.45613
 20
47.6558
 11
8.59344
 21
47.5268
  0
LINE
  8
0
 10
8.59344
 20
47.5268
 11
8.71352
 21
47.3817
  0
LINE
  8
0
 10
8.71352
 20
47.3817
 11
8.81445
 21
47.2226
  0
LINE
  8
0
 10
8.81445
 20
47.2226
 11
8.89465
 21
47.0522
  0
LINE
  8
0
 10
8.89465
 20
47.0522
 11
8.95287
 21
46.873
  0
LINE
  8
0
 10
8.95287
 20
46.873
 11
8.98816
 21
46.688
  0
LINE
  8
0
 10
8.98816
 20
46.688
 11
9
 21
46.5
  0
LINE
  8
0
 10
9
 20
46.5
 11
8.98816
 21
46.312
  0
LINE
  8
0
 10
8.98816
 20
46.312
 11
8.95287
 21
46.127
  0
LINE
  8
0
 10
8.95287
 20
46.127
 11
8.89465
 21
45.9478
  0
LINE
  8
0
 10
8.89465
 20
45.9478
 11
8.81445
 21
45.7774
  0
LINE
  8
0
 10
8.81445
 20
45.7774
 11
8.71352
 21
45.6183
  0
LINE
  8
0
 10
8.71352
 20
45.6183
 11
8.59344
 21
45.4732
  0
LINE
  8
0
 10
8.59344
 20
45.4732
 11
8.45613
 21
45.3442
  0
LINE
  8
0
 10
8.45613
 20
45.3442
 11
8.30373
 21
45.2335
  0
LINE
  8
0
 10
8.30373
 20
45.2335
 11
8.13866
 21
45.1428
  0
LINE
  8
0
 10
8.13866
 20
45.1428
 11
7.96352
 21
45.0734
  0
LINE
  8
0
 10
7.96352
 20
45.0734
 11
7.78107
 21
45.0266
  0
LINE
  8
0
 10
7.78107
 20
45.0266
 11
7.59418
 21
45.003
  0
LINE
  8
0
 10
7.59418
 20
45.003
 11
7.40581
 21
45.003
  0
LINE
  8
0
 10
-7.68837
 20
36.0059
 11
-8.06213
 21
36.0531
  0
LINE
  8
0
 10
-8.06213
 20
36.0531
 11
-8.42705
 21
36.1468
  0
LINE
  8
0
 10
-8.42705
 20
36.1468
 11
-8.77733
 21
36.2855
  0
LINE
  8
0
 10
-8.77733
 20
36.2855
 11
-9.10747
 21
36.467
  0
LINE
  8
0
 10
-9.10747
 20
36.467
 11
-9.41226
 21
36.6885
  0
LINE
  8
0
 10
-9.41226
 20
36.6885
 11
-9.6869
 21
36.9464
  0
LINE
  8
0
 10
-9.6869
 20
36.9464
 11
-9.92705
 21
37.2366
  0
LINE
  8
0
 10
-9.92705
 20
37.2366
 11
-10.1289
 21
37.5547
  0
LINE
  8
0
 10
-10.1289
 20
37.5547
 11
-10.2893
 21
37.8956
  0
LINE
  8
0
 10
-10.2893
 20
37.8956
 11
-10.4057
 21
38.2539
  0
LINE
  8
0
 10
-10.4057
 20
38.2539
 11
-10.4763
 21
38.624
  0
LINE
  8
0
 10
-10.4763
 20
38.624
 11
-10.5
 21
39
  0
LINE
  8
0
 10
-10.5
 20
39
 11
-10.4763
 21
39.376
  0
LINE
  8
0
 10
-10.4763
 20
39.376
 11
-10.4057
 21
39.7461
  0
LINE
  8
0
 10
-10.4057
 20
39.7461
 11
-10.2893
 21
40.1044
  0
LINE
  8
0
 10
-10.2893
 20
40.1044
 11
-10.1289
 21
40.4453
  0
LINE
  8
0
 10
-10.1289
 20
40.4453
 11
-9.92705
 21
40.7634
  0
LINE
  8
0
 10
-9.92705
 20
40.7634
 11
-9.6869
 21
41.0536
  0
LINE
  8
0
 10
-9.6869
 20
41.0536
 11
-9.41226
 21
41.3116
  0
LINE
  8
0
 10
-9.41226
 20
41.3116
 11
-9.10747
 21
41.533
  0
LINE
  8
0
 10
-9.10747
 20
41.533
 11
-8.77733
 21
41.7145
  0
LINE
  8
0
 10
-8.77733
 20
41.7145
 11
-8.42705
 21
41.8532
  0
LINE
  8
0
 10
-8.42705
 20
41.8532
 11
-8.06213
 21
41.9469
  0
LINE
  8
0
 10
-8.06213
 20
41.9469
 11
-7.68837
 21
41.9941
  0
LINE
  8
0
 10
-7.68837
 20
41.9941
 11
-7.31161
 21
41.9941
  0
LINE
  8
0
 10
-7.31161
 20
41.9941
 11
-6.93785
 21
41.9469
  0
LINE
  8
0
 10
-6.93785
 20
41.9469
 11
-6.57294
 21
41.8532
  0
LINE
  8
0
 10
-6.57294
 20
41.8532
 11
-6.22266
 21
41.7145
  0
LINE
  8
0
 10
-6.22266
 20
41.7145
 11
-5.89252
 21
41.533
  0
LINE
  8
0
 10
-5.89252
 20
41.533
 11
-5.58772
 21
41.3116
  0
LINE
  8
0
 10
-5.58772
 20
41.3116
 11
-5.31308
 21
41.0536
  0
LINE
  8
0
 10
-5.31308
 20
41.0536
 11
-5.07294
 21
40.7634
  0
LINE
  8
0
 10
-5.07294
 20
40.7634
 11
-4.87108
 21
40.4453
  0
LINE
  8
0
 10
-4.87108
 20
40.4453
 11
-4.71066
 21
40.1044
  0
LINE
  8
0
 10
-4.71066
 20
40.1044
 11
-4.59424
 21
39.7461
  0
LINE
  8
0
 10
-4.59424
 20
39.7461
 11
-4.52365
 21
39.376
  0
LINE
  8
0
 10
-4.52365
 20
39.376
 11
-4.5
 21
39
  0
LINE
  8
0
 10
-4.5
 20
39
 11
-4.52365
 21
38.624
  0
LINE
  8
0
 10
-4.52365
 20
38.624
 11
-4.59424
 21
38.2539
  0
LINE
  8
0
 10
-4.59424
 20
38.2539
 11
-4.71066
 21
37.8956
  0
LINE
  8
0
 10
-4.71066
 20
37.8956
 11
-4.87108
 21
37.5547
  0
LINE
  8
0
 10
-4.87108
 20
37.5547
 11
-5.07294
 21
37.2366
  0
LINE
  8
0
 10
-5.07294
 20
37.2366
 11
-5.31308
 21
36.9464
  0
LINE
  8
0
 10
-5.31308
 20
36.9464
 11
-5.58772
 21
36.6885
  0
LINE
  8
0
 10
-5.58772
 20
36.6885
 11
-5.89252
 21
36.467
  0
LINE
  8
0
 10
-5.89252
 20
36.467
 11
-6.22266
 21
36.2855
  0
LINE
  8
0
 10
-6.22266
 20
36.2855
 11
-6.57294
 21
36.1468
  0
LINE
  8
0
 10
-6.57294
 20
36.1468
 11
-6.93785
 21
36.0531
  0
LINE
  8
0
 10
-6.93785
 20
36.0531
 11
-7.31161
 21
36.0059
  0
LINE
  8
0
 10
-7.31161
 20
36.0059
 11
-7.68837
 21
36.0059
  0
LINE
  8
0
 10
7.31161
 20
36.0059
 11
6.93785
 21
36.0531
  0
LINE
  8
0
 10
6.93785
 20
36.0531
 11
6.57294
 21
36.1468
  0
LINE
  8
0
 10
6.57294
 20
36.1468
 11
6.22266
 21
36.2855
  0
LINE
  8
0
 10
6.22266
 20
36.2855
 11
5.89252
 21
36.467
  0
LINE
  8
0
 10
5.89252
 20
36.467
 11
5.58772
 21
36.6885
  0
LINE
  8
0
 10
5.58772
 20
36.6885
 11
5.31308
 21
36.9464
  0
LINE
  8
0
 10
5.31308
 20
36.9464
 11
5.07294
 21
37.2366
  0
LINE
  8
0
 10
5.07294
 20
37.2366
 11
4.87108
 21
37.5547
  0
LINE
  8
0
 10
4.87108
 20
37.5547
 11
4.71066
 21
37.8956
  0
LINE
  8
0
 10
4.71066
 20
37.8956
 11
4.59424
 21
38.2539
  0
LINE
  8
0
 10
4.59424
 20
38.2539
 11
4.52365
 21
38.624
  0
LINE
  8
0
 10
4.52365
 20
38.624
 11
4.5
 21
39
  0
LINE
  8
0
 10
4.5
 20
39
 11
4.52365
 21
39.376
  0
LINE
  8
0
 10
4.52365
 20
39.376
 11
4.59424
 21
39.7461
  0
LINE
  8
0
 10
4.59424
 20
39.7461
 11
4.71066
 21
40.1044
  0
LINE
  8
0
 10
4.71066
 20
40.1044
 11
4.87108
 21
40.4453
  0
LINE
  8
0
 10
4.87108
 20
40.4453
 11
5.07294
 21
40.7634
  0
LINE
  8
0
 10
5.07294
 20
40.7634
 11
5.31308
 21
41.0536
  0
LINE
  8
0
 10
5.31308
 20
41.0536
 11
5.58772
 21
41.3116
  0
LINE
  8
0
 10
5.58772
 20
41.3116
 11
5.89252
 21
41.533
  0
LINE
  8
0
 10
5.89252
 20
41.533
 11
6.22266
 21
41.7145
  0
LINE
  8
0
 10
6.22266
 20
41.7145
 11
6.57294
 21
41.8532
  0
LINE
  8
0
 10
6.57294
 20
41.8532
 11
6.93785
 21
41.9469
  0
LINE
  8
0
 10
6.93785
 20
41.9469
 11
7.31161
 21
41.9941
  0
LINE
  8
0
 10
7.31161
 20
41.9941
 11
7.68837
 21
41.9941
  0
LINE
  8
0
 10
7.68837
 20
41.9941
 11
8.06213
 21
41.9469
  0
LINE
  8
0
 10
8.06213
 20
41.9469
 11
8.42705
 21
41.8532
  0
LINE
  8
0
 10
8.42705
 20
41.8532
 11
8.77733
 21
41.7145
  0
LINE
  8
0
 10
8.77733
 20
41.7145
 11
9.10747
 21
41.533
  0
LINE
  8
0
 10
9.10747
 20
41.533
 11
9.41226
 21
41.3116
  0
LINE
  8
0
 10
9.41226
 20
41.3116
 11
9.6869
 21
41.0536
  0
LINE
  8
0
 10
9.6869
 20
41.0536
 11
9.92705
 21
40.7634
  0
LINE
  8
0
 10
9.92705
 20
40.7634
 11
10.1289
 21
40.4453
  0
LINE
  8
0
 10
10.1289
 20
40.4453
 11
10.2893
 21
40.1044
  0
LINE
  8
0
 10
10.2893
 20
40.1044
 11
10.4057
 21
39.7461
  0
LINE
  8
0
 10
10.4057
 20
39.7461
 11
10.4763
 21
39.376
  0
LINE
  8
0
 10
10.4763
 20
39.376
 11
10.5
 21
39
  0
LINE
  8
0
 10
10.5
 20
39
 11
10.4763
 21
38.624
  0
LINE
  8
0
 10
10.4763
 20
38.624
 11
10.4057
 21
38.2539
  0
LINE
  8
0
 10
10.4057
 20
38.2539
 11
10.2893
 21
37.8956
  0
LINE
  8
0
 10
10.2893
 20
37.8956
 11
10.1289
 21
37.5547
  0
LINE
  8
0
 10
10.1289
 20
37.5547
 11
9.92705
 21
37.2366
  0
LINE
  8
0
 10
9.92705
 20
37.2366
 11
9.6869
 21
36.9464
  0
LINE
  8
0
 10
9.6869
 20
36.9464
 11
9.41226
 21
36.6885
  0
LINE
  8
0
 10
9.41226
 20
36.6885
 11
9.10747
 21
36.467
  0
LINE
  8
0
 10
9.10747
 20
36.467
 11
8.77733
 21
36.2855
  0
LINE
  8
0
 10
8.77733
 20
36.2855
 11
8.42705
 21
36.1468
  0
LINE
  8
0
 10
8.42705
 20
36.1468
 11
8.06213
 21
36.0531
  0
LINE
  8
0
 10
8.06213
 20
36.0531
 11
7.68837
 21
36.0059
  0
LINE
  8
0
 10
7.68837
 20
36.0059
 11
7.31161
 21
36.0059
  0
LINE
  8
0
 10
-0.133423
 20
36.8792
 11
-0.398178
 21
36.9126
  0
LINE
  8
0
 10
-0.398178
 20
36.9126
 11
-0.656647
 21
36.979
  0
LINE
  8
0
 10
-0.656647
 20
36.979
 11
-0.90477
 21
37.0773
  0
LINE
  8
0
 10
-0.90477
 20
37.0773
 11
-1.13863
 21
37.2058
  0
LINE
  8
0
 10
-1.13863
 20
37.2058
 11
-1.35452
 21
37.3627
  0
LINE
  8
0
 10
-1.35452
 20
37.3627
 11
-1.54906
 21
37.5453
  0
LINE
  8
0
 10
-1.54906
 20
37.5453
 11
-1.71915
 21
37.751
  0
LINE
  8
0
 10
-1.71915
 20
37.751
 11
-1.86214
 21
37.9763
  0
LINE
  8
0
 10
-1.86214
 20
37.9763
 11
-1.97577
 21
38.2177
  0
LINE
  8
0
 10
-1.97577
 20
38.2177
 11
-2.05823
 21
38.4715
  0
LINE
  8
0
 10
-2.05823
 20
38.4715
 11
-2.10823
 21
38.7337
  0
LINE
  8
0
 10
-2.10823
 20
38.7337
 11
-2.125
 21
39
  0
LINE
  8
0
 10
-2.125
 20
39
 11
-2.10823
 21
39.2663
  0
LINE
  8
0
 10
-2.10823
 20
39.2663
 11
-2.05823
 21
39.5285
  0
LINE
  8
0
 10
-2.05823
 20
39.5285
 11
-1.97577
 21
39.7823
  0
LINE
  8
0
 10
-1.97577
 20
39.7823
 11
-1.86214
 21
40.0237
  0
LINE
  8
0
 10
-1.86214
 20
40.0237
 11
-1.71915
 21
40.2491
  0
LINE
  8
0
 10
-1.71915
 20
40.2491
 11
-1.54906
 21
40.4547
  0
LINE
  8
0
 10
-1.54906
 20
40.4547
 11
-1.35452
 21
40.6373
  0
LINE
  8
0
 10
-1.35452
 20
40.6373
 11
-1.13863
 21
40.7942
  0
LINE
  8
0
 10
-1.13863
 20
40.7942
 11
-0.90477
 21
40.9228
  0
LINE
  8
0
 10
-0.90477
 20
40.9228
 11
-0.656647
 21
41.021
  0
LINE
  8
0
 10
-0.656647
 20
41.021
 11
-0.398178
 21
41.0874
  0
LINE
  8
0
 10
-0.398178
 20
41.0874
 11
-0.133423
 21
41.1208
  0
LINE
  8
0
 10
-0.133423
 20
41.1208
 11
0.133423
 21
41.1208
  0
LINE
  8
0
 10
0.133423
 20
41.1208
 11
0.398178
 21
41.0874
  0
LINE
  8
0
 10
0.398178
 20
41.0874
 11
0.656647
 21
41.021
  0
LINE
  8
0
 10
0.656647
 20
41.021
 11
0.90477
 21
40.9228
  0
LINE
  8
0
 10
0.90477
 20
40.9228
 11
1.13863
 21
40.7942
  0
LINE
  8
0
 10
1.13863
 20
40.7942
 11
1.35452
 21
40.6373
  0
LINE
  8
0
 10
1.35452
 20
40.6373
 11
1.54906
 21
40.4547
  0
LINE
  8
0
 10
1.54906
 20
40.4547
 11
1.71915
 21
40.2491
  0
LINE
  8
0
 10
1.71915
 20
40.2491
 11
1.86214
 21
40.0237
  0
LINE
  8
0
 10
1.86214
 20
40.0237
 11
1.97577
 21
39.7823
  0
LINE
  8
0
 10
1.97577
 20
39.7823
 11
2.05823
 21
39.5285
  0
LINE
  8
0
 10
2.05823
 20
39.5285
 11
2.10823
 21
39.2663
  0
LINE
  8
0
 10
2.10823
 20
39.2663
 11
2.125
 21
39
  0
LINE
  8
0
 10
2.125
 20
39
 11
2.10823
 21
38.7337
  0
LINE
  8
0
 10
2.10823
 20
38.7337
 11
2.05823
 21
38.4715
  0
LINE
  8
0
 10
2.05823
 20
38.4715
 11
1.97577
 21
38.2177
  0
LINE
  8
0
 10
1.97577
 20
38.2177
 11
1.86214
 21
37.9763
  0
LINE
  8
0
 10
1.86214
 20
37.9763
 11
1.71915
 21
37.751
  0
LINE
  8
0
 10
1.71915
 20
37.751
 11
1.54906
 21
37.5453
  0
LINE
  8
0
 10
1.54906
 20
37.5453
 11
1.35452
 21
37.3627
  0
LINE
  8
0
 10
1.35452
 20
37.3627
 11
1.13863
 21
37.2058
  0
LINE
  8
0
 10
1.13863
 20
37.2058
 11
0.90477
 21
37.0773
  0
LINE
  8
0
 10
0.90477
 20
37.0773
 11
0.656647
 21
36.979
  0
LINE
  8
0
 10
0.656647
 20
36.979
 11
0.398178
 21
36.9126
  0
LINE
  8
0
 10
0.398178
 20
36.9126
 11
0.133423
 21
36.8792
  0
LINE
  8
0
 10
0.133423
 20
36.8792
 11
-0.133423
 21
36.8792
  0
LINE
  8
0
 10
60.4369
 20
32.0886
 11
61.0451
 21
32.2447
  0
LINE
  8
0
 10
61.0451
 20
32.2447
 11
61.6289
 21
32.4759
  0
LINE
  8
0
 10
61.6289
 20
32.4759
 11
62.1791
 21
32.7784
  0
LINE
  8
0
 10
62.1791
 20
32.7784
 11
62.6871
 21
33.1474
  0
LINE
  8
0
 10
62.6871
 20
33.1474
 11
63.1448
 21
33.5773
  0
LINE
  8
0
 10
63.1448
 20
33.5773
 11
63.5451
 21
34.0611
  0
LINE
  8
0
 10
63.5451
 20
34.0611
 11
63.8815
 21
34.5912
  0
LINE
  8
0
 10
63.8815
 20
34.5912
 11
64.1489
 21
35.1594
  0
LINE
  8
0
 10
64.1489
 20
35.1594
 11
64.3429
 21
35.7566
  0
LINE
  8
0
 10
64.3429
 20
35.7566
 11
64.4606
 21
36.3733
  0
LINE
  8
0
 10
64.4606
 20
36.3733
 11
64.5
 21
37
  0
LINE
  8
0
 10
64.5
 20
37
 11
64.5
 21
71
  0
LINE
  8
0
 10
64.5
 20
71
 11
64.4606
 21
71.6267
  0
LINE
  8
0
 10
64.4606
 20
71.6267
 11
64.3429
 21
72.2434
  0
LINE
  8
0
 10
64.3429
 20
72.2434
 11
64.1489
 21
72.8406
  0
LINE
  8
0
 10
64.1489
 20
72.8406
 11
63.8815
 21
73.4088
  0
LINE
  8
0
 10
63.8815
 20
73.4088
 11
63.5451
 21
73.9389
  0
LINE
  8
0
 10
63.5451
 20
73.9389
 11
63.1448
 21
74.4227
  0
LINE
  8
0
 10
63.1448
 20
74.4227
 11
62.6871
 21
74.8526
  0
LINE
  8
0
 10
62.6871
 20
74.8526
 11
62.1791
 21
75.2216
  0
LINE
  8
0
 10
62.1791
 20
75.2216
 11
61.6289
 21
75.5241
  0
LINE
  8
0
 10
61.6289
 20
75.5241
 11
61.0451
 21
75.7553
  0
LINE
  8
0
 10
61.0451
 20
75.7553
 11
60.4369
 21
75.9114
  0
LINE
  8
0
 10
60.4369
 20
75.9114
 11
59.8139
 21
75.9901
  0
LINE
  8
0
 10
59.8139
 20
75.9901
 11
40.186
 21
75.9901
  0
LINE
  8
0
 10
40.186
 20
75.9901
 11
39.5631
 21
75.9114
  0
LINE
  8
0
 10
39.5631
 20
75.9114
 11
38.9549
 21
75.7553
  0
LINE
  8
0
 10
38.9549
 20
75.7553
 11
38.3711
 21
75.5241
  0
LINE
  8
0
 10
38.3711
 20
75.5241
 11
37.8209
 21
75.2216
  0
LINE
  8
0
 10
37.8209
 20
75.2216
 11
37.3129
 21
74.8526
  0
LINE
  8
0
 10
37.3129
 20
74.8526
 11
36.8551
 21
74.4227
  0
LINE
  8
0
 10
36.8551
 20
74.4227
 11
36.4549
 21
73.9389
  0
LINE
  8
0
 10
36.4549
 20
73.9389
 11
36.1185
 21
73.4088
  0
LINE
  8
0
 10
36.1185
 20
73.4088
 11
35.8511
 21
72.8406
  0
LINE
  8
0
 10
35.8511
 20
72.8406
 11
35.6571
 21
72.2434
  0
LINE
  8
0
 10
35.6571
 20
72.2434
 11
35.5394
 21
71.6267
  0
LINE
  8
0
 10
35.5394
 20
71.6267
 11
35.5
 21
71
  0
LINE
  8
0
 10
35.5
 20
71
 11
35.5
 21
37
  0
LINE
  8
0
 10
35.5
 20
37
 11
35.5394
 21
36.3733
  0
LINE
  8
0
 10
35.5394
 20
36.3733
 11
35.6571
 21
35.7566
  0
LINE
  8
0
 10
35.6571
 20
35.7566
 11
35.8511
 21
35.1594
  0
LINE
  8
0
 10
35.8511
 20
35.1594
 11
36.1185
 21
34.5912
  0
LINE
  8
0
 10
36.1185
 20
34.5912
 11
36.4549
 21
34.0611
  0
LINE
  8
0
 10
36.4549
 20
34.0611
 11
36.8551
 21
33.5773
  0
LINE
  8
0
 10
36.8551
 20
33.5773
 11
37.3129
 21
33.1474
  0
LINE
  8
0
 10
37.3129
 20
33.1474
 11
37.8209
 21
32.7784
  0
LINE
  8
0
 10
37.8209
 20
32.7784
 11
38.3711
 21
32.4759
  0
LINE
  8
0
 10
38.3711
 20
32.4759
 11
38.9549
 21
32.2447
  0
LINE
  8
0
 10
38.9549
 20
32.2447
 11
39.5631
 21
32.0886
  0
LINE
  8
0
 10
39.5631
 20
32.0886
 11
40.186
 21
32.0099
  0
LINE
  8
0
 10
40.186
 20
32.0099
 11
59.8139
 21
32.0099
  0
LINE
  8
0
 10
59.8139
 20
32.0099
 11
60.4369
 21
32.0886
  0
LINE
  8
0
 10
42.3116
 20
66.0059
 11
41.9379
 21
66.0531
  0
LINE
  8
0
 10
41.9379
 20
66.0531
 11
41.5729
 21
66.1468
  0
LINE
  8
0
 10
41.5729
 20
66.1468
 11
41.2227
 21
66.2855
  0
LINE
  8
0
 10
41.2227
 20
66.2855
 11
40.8925
 21
66.467
  0
LINE
  8
0
 10
40.8925
 20
66.467
 11
40.5877
 21
66.6884
  0
LINE
  8
0
 10
40.5877
 20
66.6884
 11
40.3131
 21
66.9464
  0
LINE
  8
0
 10
40.3131
 20
66.9464
 11
40.0729
 21
67.2366
  0
LINE
  8
0
 10
40.0729
 20
67.2366
 11
39.8711
 21
67.5547
  0
LINE
  8
0
 10
39.8711
 20
67.5547
 11
39.7107
 21
67.8956
  0
LINE
  8
0
 10
39.7107
 20
67.8956
 11
39.5942
 21
68.2539
  0
LINE
  8
0
 10
39.5942
 20
68.2539
 11
39.5237
 21
68.624
  0
LINE
  8
0
 10
39.5237
 20
68.624
 11
39.5
 21
69
  0
LINE
  8
0
 10
39.5
 20
69
 11
39.5237
 21
69.376
  0
LINE
  8
0
 10
39.5237
 20
69.376
 11
39.5942
 21
69.7461
  0
LINE
  8
0
 10
39.5942
 20
69.7461
 11
39.7107
 21
70.1044
  0
LINE
  8
0
 10
39.7107
 20
70.1044
 11
39.8711
 21
70.4453
  0
LINE
  8
0
 10
39.8711
 20
70.4453
 11
40.0729
 21
70.7634
  0
LINE
  8
0
 10
40.0729
 20
70.7634
 11
40.3131
 21
71.0536
  0
LINE
  8
0
 10
40.3131
 20
71.0536
 11
40.5877
 21
71.3115
  0
LINE
  8
0
 10
40.5877
 20
71.3115
 11
40.8925
 21
71.533
  0
LINE
  8
0
 10
40.8925
 20
71.533
 11
41.2227
 21
71.7145
  0
LINE
  8
0
 10
41.2227
 20
71.7145
 11
41.5729
 21
71.8532
  0
LINE
  8
0
 10
41.5729
 20
71.8532
 11
41.9379
 21
71.9469
  0
LINE
  8
0
 10
41.9379
 20
71.9469
 11
42.3116
 21
71.9941
  0
LINE
  8
0
 10
42.3116
 20
71.9941
 11
42.6884
 21
71.9941
  0
LINE
  8
0
 10
42.6884
 20
71.9941
 11
43.0621
 21
71.9469
  0
LINE
  8
0
 10
43.0621
 20
71.9469
 11
43.427
 21
71.8532
  0
LINE
  8
0
 10
43.427
 20
71.8532
 11
43.7773
 21
71.7145
  0
LINE
  8
0
 10
43.7773
 20
71.7145
 11
44.1075
 21
71.533
  0
LINE
  8
0
 10
44.1075
 20
71.533
 11
44.4123
 21
71.3115
  0
LINE
  8
0
 10
44.4123
 20
71.3115
 11
44.6869
 21
71.0536
  0
LINE
  8
0
 10
44.6869
 20
71.0536
 11
44.927
 21
70.7634
  0
LINE
  8
0
 10
44.927
 20
70.7634
 11
45.1289
 21
70.4453
  0
LINE
  8
0
 10
45.1289
 20
70.4453
 11
45.2893
 21
70.1044
  0
LINE
  8
0
 10
45.2893
 20
70.1044
 11
45.4057
 21
69.7461
  0
LINE
  8
0
 10
45.4057
 20
69.7461
 11
45.4763
 21
69.376
  0
LINE
  8
0
 10
45.4763
 20
69.376
 11
45.5
 21
69
  0
LINE
  8
0
 10
45.5
 20
69
 11
45.4763
 21
68.624
  0
LINE
  8
0
 10
45.4763
 20
68.624
 11
45.4057
 21
68.2539
  0
LINE
  8
0
 10
45.4057
 20
68.2539
 11
45.2893
 21
67.8956
  0
LINE
  8
0
 10
45.2893
 20
67.8956
 11
45.1289
 21
67.5547
  0
LINE
  8
0
 10
45.1289
 20
67.5547
 11
44.927
 21
67.2366
  0
LINE
  8
0
 10
44.927
 20
67.2366
 11
44.6869
 21
66.9464
  0
LINE
  8
0
 10
44.6869
 20
66.9464
 11
44.4123
 21
66.6884
  0
LINE
  8
0
 10
44.4123
 20
66.6884
 11
44.1075
 21
66.467
  0
LINE
  8
0
 10
44.1075
 20
66.467
 11
43.7773
 21
66.2855
  0
LINE
  8
0
 10
43.7773
 20
66.2855
 11
43.427
 21
66.1468
  0
LINE
  8
0
 10
43.427
 20
66.1468
 11
43.0621
 21
66.0531
  0
LINE
  8
0
 10
43.0621
 20
66.0531
 11
42.6884
 21
66.0059
  0
LINE
  8
0
 10
42.6884
 20
66.0059
 11
42.3116
 21
66.0059
  0
LINE
  8
0
 10
57.3116
 20
66.0059
 11
56.9379
 21
66.0531
  0
LINE
  8
0
 10
56.9379
 20
66.0531
 11
56.5729
 21
66.1468
  0
LINE
  8
0
 10
56.5729
 20
66.1468
 11
56.2227
 21
66.2855
  0
LINE
  8
0
 10
56.2227
 20
66.2855
 11
55.8925
 21
66.467
  0
LINE
  8
0
 10
55.8925
 20
66.467
 11
55.5877
 21
66.6884
  0
LINE
  8
0
 10
55.5877
 20
66.6884
 11
55.3131
 21
66.9464
  0
LINE
  8
0
 10
55.3131
 20
66.9464
 11
55.0729
 21
67.2366
  0
LINE
  8
0
 10
55.0729
 20
67.2366
 11
54.8711
 21
67.5547
  0
LINE
  8
0
 10
54.8711
 20
67.5547
 11
54.7107
 21
67.8956
  0
LINE
  8
0
 10
54.7107
 20
67.8956
 11
54.5942
 21
68.2539
  0
LINE
  8
0
 10
54.5942
 20
68.2539
 11
54.5237
 21
68.624
  0
LINE
  8
0
 10
54.5237
 20
68.624
 11
54.5
 21
69
  0
LINE
  8
0
 10
54.5
 20
69
 11
54.5237
 21
69.376
  0
LINE
  8
0
 10
54.5237
 20
69.376
 11
54.5942
 21
69.7461
  0
LINE
  8
0
 10
54.5942
 20
69.7461
 11
54.7107
 21
70.1044
  0
LINE
  8
0
 10
54.7107
 20
70.1044
 11
54.8711
 21
70.4453
  0
LINE
  8
0
 10
54.8711
 20
70.4453
 11
55.0729
 21
70.7634
  0
LINE
  8
0
 10
55.0729
 20
70.7634
 11
55.3131
 21
71.0536
  0
LINE
  8
0
 10
55.3131
 20
71.0536
 11
55.5877
 21
71.3115
  0
LINE
  8
0
 10
55.5877
 20
71.3115
 11
55.8925
 21
71.533
  0
LINE
  8
0
 10
55.8925
 20
71.533
 11
56.2227
 21
71.7145
  0
LINE
  8
0
 10
56.2227
 20
71.7145
 11
56.5729
 21
71.8532
  0
LINE
  8
0
 10
56.5729
 20
71.8532
 11
56.9379
 21
71.9469
  0
LINE
  8
0
 10
56.9379
 20
71.9469
 11
57.3116
 21
71.9941
  0
LINE
  8
0
 10
57.3116
 20
71.9941
 11
57.6884
 21
71.9941
  0
LINE
  8
0
 10
57.6884
 20
71.9941
 11
58.0621
 21
71.9469
  0
LINE
  8
0
 10
58.0621
 20
71.9469
 11
58.427
 21
71.8532
  0
LINE
  8
0
 10
58.427
 20
71.8532
 11
58.7773
 21
71.7145
  0
LINE
  8
0
 10
58.7773
 20
71.7145
 11
59.1075
 21
71.533
  0
LINE
  8
0
 10
59.1075
 20
71.533
 11
59.4123
 21
71.3115
  0
LINE
  8
0
 10
59.4123
 20
71.3115
 11
59.6869
 21
71.0536
  0
LINE
  8
0
 10
59.6869
 20
71.0536
 11
59.927
 21
70.7634
  0
LINE
  8
0
 10
59.927
 20
70.7634
 11
60.1289
 21
70.4453
  0
LINE
  8
0
 10
60.1289
 20
70.4453
 11
60.2893
 21
70.1044
  0
LINE
  8
0
 10
60.2893
 20
70.1044
 11
60.4057
 21
69.7461
  0
LINE
  8
0
 10
60.4057
 20
69.7461
 11
60.4763
 21
69.376
  0
LINE
  8
0
 10
60.4763
 20
69.376
 11
60.5
 21
69
  0
LINE
  8
0
 10
60.5
 20
69
 11
60.4763
 21
68.624
  0
LINE
  8
0
 10
60.4763
 20
68.624
 11
60.4057
 21
68.2539
  0
LINE
  8
0
 10
60.4057
 20
68.2539
 11
60.2893
 21
67.8956
  0
LINE
  8
0
 10
60.2893
 20
67.8956
 11
60.1289
 21
67.5547
  0
LINE
  8
0
 10
60.1289
 20
67.5547
 11
59.927
 21
67.2366
  0
LINE
  8
0
 10
59.927
 20
67.2366
 11
59.6869
 21
66.9464
  0
LINE
  8
0
 10
59.6869
 20
66.9464
 11
59.4123
 21
66.6884
  0
LINE
  8
0
 10
59.4123
 20
66.6884
 11
59.1075
 21
66.467
  0
LINE
  8
0
 10
59.1075
 20
66.467
 11
58.7773
 21
66.2855
  0
LINE
  8
0
 10
58.7773
 20
66.2855
 11
58.427
 21
66.1468
  0
LINE
  8
0
 10
58.427
 20
66.1468
 11
58.0621
 21
66.0531
  0
LINE
  8
0
 10
58.0621
 20
66.0531
 11
57.6884
 21
66.0059
  0
LINE
  8
0
 10
57.6884
 20
66.0059
 11
57.3116
 21
66.0059
  0
LINE
  8
0
 10
49.9058
 20
67.5029
 11
49.7189
 21
67.5266
  0
LINE
  8
0
 10
49.7189
 20
67.5266
 11
49.5365
 21
67.5734
  0
LINE
  8
0
 10
49.5365
 20
67.5734
 11
49.3613
 21
67.6427
  0
LINE
  8
0
 10
49.3613
 20
67.6427
 11
49.1963
 21
67.7335
  0
LINE
  8
0
 10
49.1963
 20
67.7335
 11
49.0439
 21
67.8442
  0
LINE
  8
0
 10
49.0439
 20
67.8442
 11
48.9065
 21
67.9732
  0
LINE
  8
0
 10
48.9065
 20
67.9732
 11
48.7865
 21
68.1183
  0
LINE
  8
0
 10
48.7865
 20
68.1183
 11
48.6855
 21
68.2774
  0
LINE
  8
0
 10
48.6855
 20
68.2774
 11
48.6053
 21
68.4478
  0
LINE
  8
0
 10
48.6053
 20
68.4478
 11
48.5471
 21
68.627
  0
LINE
  8
0
 10
48.5471
 20
68.627
 11
48.5118
 21
68.812
  0
LINE
  8
0
 10
48.5118
 20
68.812
 11
48.5
 21
69
  0
LINE
  8
0
 10
48.5
 20
69
 11
48.5118
 21
69.188
  0
LINE
  8
0
 10
48.5118
 20
69.188
 11
48.5471
 21
69.373
  0
LINE
  8
0
 10
48.5471
 20
69.373
 11
48.6053
 21
69.5522
  0
LINE
  8
0
 10
48.6053
 20
69.5522
 11
48.6855
 21
69.7226
  0
LINE
  8
0
 10
48.6855
 20
69.7226
 11
48.7865
 21
69.8817
  0
LINE
  8
0
 10
48.7865
 20
69.8817
 11
48.9065
 21
70.0268
  0
LINE
  8
0
 10
48.9065
 20
70.0268
 11
49.0439
 21
70.1558
  0
LINE
  8
0
 10
49.0439
 20
70.1558
 11
49.1963
 21
70.2665
  0
LINE
  8
0
 10
49.1963
 20
70.2665
 11
49.3613
 21
70.3572
  0
LINE
  8
0
 10
49.3613
 20
70.3572
 11
49.5365
 21
70.4266
  0
LINE
  8
0
 10
49.5365
 20
70.4266
 11
49.7189
 21
70.4734
  0
LINE
  8
0
 10
49.7189
 20
70.4734
 11
49.9058
 21
70.497
  0
LINE
  8
0
 10
49.9058
 20
70.497
 11
50.0942
 21
70.497
  0
LINE
  8
0
 10
50.0942
 20
70.497
 11
50.2811
 21
70.4734
  0
LINE
  8
0
 10
50.2811
 20
70.4734
 11
50.4635
 21
70.4266
  0
LINE
  8
0
 10
50.4635
 20
70.4266
 11
50.6387
 21
70.3572
  0
LINE
  8
0
 10
50.6387
 20
70.3572
 11
50.8037
 21
70.2665
  0
LINE
  8
0
 10
50.8037
 20
70.2665
 11
50.9561
 21
70.1558
  0
LINE
  8
0
 10
50.9561
 20
70.1558
 11
51.0934
 21
70.0268
  0
LINE
  8
0
 10
51.0934
 20
70.0268
 11
51.2135
 21
69.8817
  0
LINE
  8
0
 10
51.2135
 20
69.8817
 11
51.3145
 21
69.7226
  0
LINE
  8
0
 10
51.3145
 20
69.7226
 11
51.3947
 21
69.5522
  0
LINE
  8
0
 10
51.3947
 20
69.5522
 11
51.4529
 21
69.373
  0
LINE
  8
0
 10
51.4529
 20
69.373
 11
51.4882
 21
69.188
  0
LINE
  8
0
 10
51.4882
 20
69.188
 11
51.5
 21
69
  0
LINE
  8
0
 10
51.5
 20
69
 11
51.4882
 21
68.812
  0
LINE
  8
0
 10
51.4882
 20
68.812
 11
51.4529
 21
68.627
  0
LINE
  8
0
 10
51.4529
 20
68.627
 11
51.3947
 21
68.4478
  0
LINE
  8
0
 10
51.3947
 20
68.4478
 11
51.3145
 21
68.2774
  0
LINE
  8
0
 10
51.3145
 20
68.2774
 11
51.2135
 21
68.1183
  0
LINE
  8
0
 10
51.2135
 20
68.1183
 11
51.0934
 21
67.9732
  0
LINE
  8
0
 10
51.0934
 20
67.9732
 11
50.9561
 21
67.8442
  0
LINE
  8
0
 10
50.9561
 20
67.8442
 11
50.8037
 21
67.7335
  0
LINE
  8
0
 10
50.8037
 20
67.7335
 11
50.6387
 21
67.6427
  0
LINE
  8
0
 10
50.6387
 20
67.6427
 11
50.4635
 21
67.5734
  0
LINE
  8
0
 10
50.4635
 20
67.5734
 11
50.2811
 21
67.5266
  0
LINE
  8
0
 10
50.2811
 20
67.5266
 11
50.0942
 21
67.5029
  0
LINE
  8
0
 10
50.0942
 20
67.5029
 11
49.9058
 21
67.5029
  0
LINE
  8
0
 10
49.8526
 20
59.1576
 11
49.5602
 21
59.1945
  0
LINE
  8
0
 10
49.5602
 20
59.1945
 11
49.2747
 21
59.2678
  0
LINE
  8
0
 10
49.2747
 20
59.2678
 11
49.0007
 21
59.3763
  0
LINE
  8
0
 10
49.0007
 20
59.3763
 11
48.7424
 21
59.5183
  0
LINE
  8
0
 10
48.7424
 20
59.5183
 11
48.5039
 21
59.6916
  0
LINE
  8
0
 10
48.5039
 20
59.6916
 11
48.2891
 21
59.8933
  0
LINE
  8
0
 10
48.2891
 20
59.8933
 11
48.1012
 21
60.1204
  0
LINE
  8
0
 10
48.1012
 20
60.1204
 11
47.9433
 21
60.3693
  0
LINE
  8
0
 10
47.9433
 20
60.3693
 11
47.8177
 21
60.636
  0
LINE
  8
0
 10
47.8177
 20
60.636
 11
47.7267
 21
60.9163
  0
LINE
  8
0
 10
47.7267
 20
60.9163
 11
47.6714
 21
61.2058
  0
LINE
  8
0
 10
47.6714
 20
61.2058
 11
47.6529
 21
61.5
  0
LINE
  8
0
 10
47.6529
 20
61.5
 11
47.6714
 21
61.7942
  0
LINE
  8
0
 10
47.6714
 20
61.7942
 11
47.7267
 21
62.0837
  0
LINE
  8
0
 10
47.7267
 20
62.0837
 11
47.8177
 21
62.364
  0
LINE
  8
0
 10
47.8177
 20
62.364
 11
47.9433
 21
62.6307
  0
LINE
  8
0
 10
47.9433
 20
62.6307
 11
48.1012
 21
62.8796
  0
LINE
  8
0
 10
48.1012
 20
62.8796
 11
48.2891
 21
63.1067
  0
LINE
  8
0
 10
48.2891
 20
63.1067
 11
48.5039
 21
63.3084
  0
LINE
  8
0
 10
48.5039
 20
63.3084
 11
48.7424
 21
63.4817
  0
LINE
  8
0
 10
48.7424
 20
63.4817
 11
49.0007
 21
63.6237
  0
LINE
  8
0
 10
49.0007
 20
63.6237
 11
49.2747
 21
63.7322
  0
LINE
  8
0
 10
49.2747
 20
63.7322
 11
49.5602
 21
63.8055
  0
LINE
  8
0
 10
49.5602
 20
63.8055
 11
49.8526
 21
63.8424
  0
LINE
  8
0
 10
49.8526
 20
63.8424
 11
50.1474
 21
63.8424
  0
LINE
  8
0
 10
50.1474
 20
63.8424
 11
50.4398
 21
63.8055
  0
LINE
  8
0
 10
50.4398
 20
63.8055
 11
50.7253
 21
63.7322
  0
LINE
  8
0
 10
50.7253
 20
63.7322
 11
50.9993
 21
63.6237
  0
LINE
  8
0
 10
50.9993
 20
63.6237
 11
51.2576
 21
63.4817
  0
LINE
  8
0
 10
51.2576
 20
63.4817
 11
51.4961
 21
63.3084
  0
LINE
  8
0
 10
51.4961
 20
63.3084
 11
51.7109
 21
63.1067
  0
LINE
  8
0
 10
51.7109
 20
63.1067
 11
51.8988
 21
62.8796
  0
LINE
  8
0
 10
51.8988
 20
62.8796
 11
52.0567
 21
62.6307
  0
LINE
  8
0
 10
52.0567
 20
62.6307
 11
52.1822
 21
62.364
  0
LINE
  8
0
 10
52.1822
 20
62.364
 11
52.2733
 21
62.0837
  0
LINE
  8
0
 10
52.2733
 20
62.0837
 11
52.3286
 21
61.7942
  0
LINE
  8
0
 10
52.3286
 20
61.7942
 11
52.347
 21
61.5
  0
LINE
  8
0
 10
52.347
 20
61.5
 11
52.3286
 21
61.2058
  0
LINE
  8
0
 10
52.3286
 20
61.2058
 11
52.2733
 21
60.9163
  0
LINE
  8
0
 10
52.2733
 20
60.9163
 11
52.1822
 21
60.636
  0
LINE
  8
0
 10
52.1822
 20
60.636
 11
52.0567
 21
60.3693
  0
LINE
  8
0
 10
52.0567
 20
60.3693
 11
51.8988
 21
60.1204
  0
LINE
  8
0
 10
51.8988
 20
60.1204
 11
51.7109
 21
59.8933
  0
LINE
  8
0
 10
51.7109
 20
59.8933
 11
51.4961
 21
59.6916
  0
LINE
  8
0
 10
51.4961
 20
59.6916
 11
51.2576
 21
59.5183
  0
LINE
  8
0
 10
51.2576
 20
59.5183
 11
50.9993
 21
59.3763
  0
LINE
  8
0
 10
50.9993
 20
59.3763
 11
50.7253
 21
59.2678
  0
LINE
  8
0
 10
50.7253
 20
59.2678
 11
50.4398
 21
59.1945
  0
LINE
  8
0
 10
50.4398
 20
59.1945
 11
50.1474
 21
59.1576
  0
LINE
  8
0
 10
50.1474
 20
59.1576
 11
49.8526
 21
59.1576
  0
LINE
  8
0
 10
57.4058
 20
60.0029
 11
57.2189
 21
60.0266
  0
LINE
  8
0
 10
57.2189
 20
60.0266
 11
57.0365
 21
60.0734
  0
LINE
  8
0
 10
57.0365
 20
60.0734
 11
56.8613
 21
60.1427
  0
LINE
  8
0
 10
56.8613
 20
60.1427
 11
56.6963
 21
60.2335
  0
LINE
  8
0
 10
56.6963
 20
60.2335
 11
56.5439
 21
60.3442
  0
LINE
  8
0
 10
56.5439
 20
60.3442
 11
56.4065
 21
60.4732
  0
LINE
  8
0
 10
56.4065
 20
60.4732
 11
56.2865
 21
60.6183
  0
LINE
  8
0
 10
56.2865
 20
60.6183
 11
56.1855
 21
60.7774
  0
LINE
  8
0
 10
56.1855
 20
60.7774
 11
56.1053
 21
60.9478
  0
LINE
  8
0
 10
56.1053
 20
60.9478
 11
56.0471
 21
61.127
  0
LINE
  8
0
 10
56.0471
 20
61.127
 11
56.0118
 21
61.312
  0
LINE
  8
0
 10
56.0118
 20
61.312
 11
56
 21
61.5
  0
LINE
  8
0
 10
56
 20
61.5
 11
56.0118
 21
61.688
  0
LINE
  8
0
 10
56.0118
 20
61.688
 11
56.0471
 21
61.873
  0
LINE
  8
0
 10
56.0471
 20
61.873
 11
56.1053
 21
62.0522
  0
LINE
  8
0
 10
56.1053
 20
62.0522
 11
56.1855
 21
62.2226
  0
LINE
  8
0
 10
56.1855
 20
62.2226
 11
56.2865
 21
62.3817
  0
LINE
  8
0
 10
56.2865
 20
62.3817
 11
56.4065
 21
62.5268
  0
LINE
  8
0
 10
56.4065
 20
62.5268
 11
56.5439
 21
62.6558
  0
LINE
  8
0
 10
56.5439
 20
62.6558
 11
56.6963
 21
62.7665
  0
LINE
  8
0
 10
56.6963
 20
62.7665
 11
56.8613
 21
62.8572
  0
LINE
  8
0
 10
56.8613
 20
62.8572
 11
57.0365
 21
62.9266
  0
LINE
  8
0
 10
57.0365
 20
62.9266
 11
57.2189
 21
62.9734
  0
LINE
  8
0
 10
57.2189
 20
62.9734
 11
57.4058
 21
62.997
  0
LINE
  8
0
 10
57.4058
 20
62.997
 11
57.5942
 21
62.997
  0
LINE
  8
0
 10
57.5942
 20
62.997
 11
57.7811
 21
62.9734
  0
LINE
  8
0
 10
57.7811
 20
62.9734
 11
57.9635
 21
62.9266
  0
LINE
  8
0
 10
57.9635
 20
62.9266
 11
58.1387
 21
62.8572
  0
LINE
  8
0
 10
58.1387
 20
62.8572
 11
58.3037
 21
62.7665
  0
LINE
  8
0
 10
58.3037
 20
62.7665
 11
58.4561
 21
62.6558
  0
LINE
  8
0
 10
58.4561
 20
62.6558
 11
58.5934
 21
62.5268
  0
LINE
  8
0
 10
58.5934
 20
62.5268
 11
58.7135
 21
62.3817
  0
LINE
  8
0
 10
58.7135
 20
62.3817
 11
58.8145
 21
62.2226
  0
LINE
  8
0
 10
58.8145
 20
62.2226
 11
58.8947
 21
62.0522
  0
LINE
  8
0
 10
58.8947
 20
62.0522
 11
58.9529
 21
61.873
  0
LINE
  8
0
 10
58.9529
 20
61.873
 11
58.9882
 21
61.688
  0
LINE
  8
0
 10
58.9882
 20
61.688
 11
59
 21
61.5
  0
LINE
  8
0
 10
59
 20
61.5
 11
58.9882
 21
61.312
  0
LINE
  8
0
 10
58.9882
 20
61.312
 11
58.9529
 21
61.127
  0
LINE
  8
0
 10
58.9529
 20
61.127
 11
58.8947
 21
60.9478
  0
LINE
  8
0
 10
58.8947
 20
60.9478
 11
58.8145
 21
60.7774
  0
LINE
  8
0
 10
58.8145
 20
60.7774
 11
58.7135
 21
60.6183
  0
LINE
  8
0
 10
58.7135
 20
60.6183
 11
58.5934
 21
60.4732
  0
LINE
  8
0
 10
58.5934
 20
60.4732
 11
58.4561
 21
60.3442
  0
LINE
  8
0
 10
58.4561
 20
60.3442
 11
58.3037
 21
60.2335
  0
LINE
  8
0
 10
58.3037
 20
60.2335
 11
58.1387
 21
60.1427
  0
LINE
  8
0
 10
58.1387
 20
60.1427
 11
57.9635
 21
60.0734
  0
LINE
  8
0
 10
57.9635
 20
60.0734
 11
57.7811
 21
60.0266
  0
LINE
  8
0
 10
57.7811
 20
60.0266
 11
57.5942
 21
60.0029
  0
LINE
  8
0
 10
57.5942
 20
60.0029
 11
57.4058
 21
60.0029
  0
LINE
  8
0
 10
42.4058
 20
60.0029
 11
42.2189
 21
60.0266
  0
LINE
  8
0
 10
42.2189
 20
60.0266
 11
42.0365
 21
60.0734
  0
LINE
  8
0
 10
42.0365
 20
60.0734
 11
41.8613
 21
60.1427
  0
LINE
  8
0
 10
41.8613
 20
60.1427
 11
41.6963
 21
60.2335
  0
LINE
  8
0
 10
41.6963
 20
60.2335
 11
41.5439
 21
60.3442
  0
LINE
  8
0
 10
41.5439
 20
60.3442
 11
41.4065
 21
60.4732
  0
LINE
  8
0
 10
41.4065
 20
60.4732
 11
41.2865
 21
60.6183
  0
LINE
  8
0
 10
41.2865
 20
60.6183
 11
41.1855
 21
60.7774
  0
LINE
  8
0
 10
41.1855
 20
60.7774
 11
41.1053
 21
60.9478
  0
LINE
  8
0
 10
41.1053
 20
60.9478
 11
41.0471
 21
61.127
  0
LINE
  8
0
 10
41.0471
 20
61.127
 11
41.0118
 21
61.312
  0
LINE
  8
0
 10
41.0118
 20
61.312
 11
41
 21
61.5
  0
LINE
  8
0
 10
41
 20
61.5
 11
41.0118
 21
61.688
  0
LINE
  8
0
 10
41.0118
 20
61.688
 11
41.0471
 21
61.873
  0
LINE
  8
0
 10
41.0471
 20
61.873
 11
41.1053
 21
62.0522
  0
LINE
  8
0
 10
41.1053
 20
62.0522
 11
41.1855
 21
62.2226
  0
LINE
  8
0
 10
41.1855
 20
62.2226
 11
41.2865
 21
62.3817
  0
LINE
  8
0
 10
41.2865
 20
62.3817
 11
41.4065
 21
62.5268
  0
LINE
  8
0
 10
41.4065
 20
62.5268
 11
41.5439
 21
62.6558
  0
LINE
  8
0
 10
41.5439
 20
62.6558
 11
41.6963
 21
62.7665
  0
LINE
  8
0
 10
41.6963
 20
62.7665
 11
41.8613
 21
62.8572
  0
LINE
  8
0
 10
41.8613
 20
62.8572
 11
42.0365
 21
62.9266
  0
LINE
  8
0
 10
42.0365
 20
62.9266
 11
42.2189
 21
62.9734
  0
LINE
  8
0
 10
42.2189
 20
62.9734
 11
42.4058
 21
62.997
  0
LINE
  8
0
 10
42.4058
 20
62.997
 11
42.5942
 21
62.997
  0
LINE
  8
0
 10
42.5942
 20
62.997
 11
42.7811
 21
62.9734
  0
LINE
  8
0
 10
42.7811
 20
62.9734
 11
42.9635
 21
62.9266
  0
LINE
  8
0
 10
42.9635
 20
62.9266
 11
43.1387
 21
62.8572
  0
LINE
  8
0
 10
43.1387
 20
62.8572
 11
43.3037
 21
62.7665
  0
LINE
  8
0
 10
43.3037
 20
62.7665
 11
43.4561
 21
62.6558
  0
LINE
  8
0
 10
43.4561
 20
62.6558
 11
43.5934
 21
62.5268
  0
LINE
  8
0
 10
43.5934
 20
62.5268
 11
43.7135
 21
62.3817
  0
LINE
  8
0
 10
43.7135
 20
62.3817
 11
43.8145
 21
62.2226
  0
LINE
  8
0
 10
43.8145
 20
62.2226
 11
43.8947
 21
62.0522
  0
LINE
  8
0
 10
43.8947
 20
62.0522
 11
43.9529
 21
61.873
  0
LINE
  8
0
 10
43.9529
 20
61.873
 11
43.9882
 21
61.688
  0
LINE
  8
0
 10
43.9882
 20
61.688
 11
44
 21
61.5
  0
LINE
  8
0
 10
44
 20
61.5
 11
43.9882
 21
61.312
  0
LINE
  8
0
 10
43.9882
 20
61.312
 11
43.9529
 21
61.127
  0
LINE
  8
0
 10
43.9529
 20
61.127
 11
43.8947
 21
60.9478
  0
LINE
  8
0
 10
43.8947
 20
60.9478
 11
43.8145
 21
60.7774
  0
LINE
  8
0
 10
43.8145
 20
60.7774
 11
43.7135
 21
60.6183
  0
LINE
  8
0
 10
43.7135
 20
60.6183
 11
43.5934
 21
60.4732
  0
LINE
  8
0
 10
43.5934
 20
60.4732
 11
43.4561
 21
60.3442
  0
LINE
  8
0
 10
43.4561
 20
60.3442
 11
43.3037
 21
60.2335
  0
LINE
  8
0
 10
43.3037
 20
60.2335
 11
43.1387
 21
60.1427
  0
LINE
  8
0
 10
43.1387
 20
60.1427
 11
42.9635
 21
60.0734
  0
LINE
  8
0
 10
42.9635
 20
60.0734
 11
42.7811
 21
60.0266
  0
LINE
  8
0
 10
42.7811
 20
60.0266
 11
42.5942
 21
60.0029
  0
LINE
  8
0
 10
42.5942
 20
60.0029
 11
42.4058
 21
60.0029
  0
LINE
  8
0
 10
49.8526
 20
44.1576
 11
49.5602
 21
44.1945
  0
LINE
  8
0
 10
49.5602
 20
44.1945
 11
49.2747
 21
44.2678
  0
LINE
  8
0
 10
49.2747
 20
44.2678
 11
49.0007
 21
44.3763
  0
LINE
  8
0
 10
49.0007
 20
44.3763
 11
48.7424
 21
44.5183
  0
LINE
  8
0
 10
48.7424
 20
44.5183
 11
48.5039
 21
44.6916
  0
LINE
  8
0
 10
48.5039
 20
44.6916
 11
48.2891
 21
44.8933
  0
LINE
  8
0
 10
48.2891
 20
44.8933
 11
48.1012
 21
45.1204
  0
LINE
  8
0
 10
48.1012
 20
45.1204
 11
47.9433
 21
45.3693
  0
LINE
  8
0
 10
47.9433
 20
45.3693
 11
47.8177
 21
45.636
  0
LINE
  8
0
 10
47.8177
 20
45.636
 11
47.7267
 21
45.9163
  0
LINE
  8
0
 10
47.7267
 20
45.9163
 11
47.6714
 21
46.2058
  0
LINE
  8
0
 10
47.6714
 20
46.2058
 11
47.6529
 21
46.5
  0
LINE
  8
0
 10
47.6529
 20
46.5
 11
47.6714
 21
46.7942
  0
LINE
  8
0
 10
47.6714
 20
46.7942
 11
47.7267
 21
47.0837
  0
LINE
  8
0
 10
47.7267
 20
47.0837
 11
47.8177
 21
47.364
  0
LINE
  8
0
 10
47.8177
 20
47.364
 11
47.9433
 21
47.6307
  0
LINE
  8
0
 10
47.9433
 20
47.6307
 11
48.1012
 21
47.8796
  0
LINE
  8
0
 10
48.1012
 20
47.8796
 11
48.2891
 21
48.1067
  0
LINE
  8
0
 10
48.2891
 20
48.1067
 11
48.5039
 21
48.3084
  0
LINE
  8
0
 10
48.5039
 20
48.3084
 11
48.7424
 21
48.4817
  0
LINE
  8
0
 10
48.7424
 20
48.4817
 11
49.0007
 21
48.6237
  0
LINE
  8
0
 10
49.0007
 20
48.6237
 11
49.2747
 21
48.7322
  0
LINE
  8
0
 10
49.2747
 20
48.7322
 11
49.5602
 21
48.8055
  0
LINE
  8
0
 10
49.5602
 20
48.8055
 11
49.8526
 21
48.8424
  0
LINE
  8
0
 10
49.8526
 20
48.8424
 11
50.1474
 21
48.8424
  0
LINE
  8
0
 10
50.1474
 20
48.8424
 11
50.4398
 21
48.8055
  0
LINE
  8
0
 10
50.4398
 20
48.8055
 11
50.7253
 21
48.7322
  0
LINE
  8
0
 10
50.7253
 20
48.7322
 11
50.9993
 21
48.6237
  0
LINE
  8
0
 10
50.9993
 20
48.6237
 11
51.2576
 21
48.4817
  0
LINE
  8
0
 10
51.2576
 20
48.4817
 11
51.4961
 21
48.3084
  0
LINE
  8
0
 10
51.4961
 20
48.3084
 11
51.7109
 21
48.1067
  0
LINE
  8
0
 10
51.7109
 20
48.1067
 11
51.8988
 21
47.8796
  0
LINE
  8
0
 10
51.8988
 20
47.8796
 11
52.0567
 21
47.6307
  0
LINE
  8
0
 10
52.0567
 20
47.6307
 11
52.1822
 21
47.364
  0
LINE
  8
0
 10
52.1822
 20
47.364
 11
52.2733
 21
47.0837
  0
LINE
  8
0
 10
52.2733
 20
47.0837
 11
52.3286
 21
46.7942
  0
LINE
  8
0
 10
52.3286
 20
46.7942
 11
52.347
 21
46.5
  0
LINE
  8
0
 10
52.347
 20
46.5
 11
52.3286
 21
46.2058
  0
LINE
  8
0
 10
52.3286
 20
46.2058
 11
52.2733
 21
45.9163
  0
LINE
  8
0
 10
52.2733
 20
45.9163
 11
52.1822
 21
45.636
  0
LINE
  8
0
 10
52.1822
 20
45.636
 11
52.0567
 21
45.3693
  0
LINE
  8
0
 10
52.0567
 20
45.3693
 11
51.8988
 21
45.1204
  0
LINE
  8
0
 10
51.8988
 20
45.1204
 11
51.7109
 21
44.8933
  0
LINE
  8
0
 10
51.7109
 20
44.8933
 11
51.4961
 21
44.6916
  0
LINE
  8
0
 10
51.4961
 20
44.6916
 11
51.2576
 21
44.5183
  0
LINE
  8
0
 10
51.2576
 20
44.5183
 11
50.9993
 21
44.3763
  0
LINE
  8
0
 10
50.9993
 20
44.3763
 11
50.7253
 21
44.2678
  0
LINE
  8
0
 10
50.7253
 20
44.2678
 11
50.4398
 21
44.1945
  0
LINE
  8
0
 10
50.4398
 20
44.1945
 11
50.1474
 21
44.1576
  0
LINE
  8
0
 10
50.1474
 20
44.1576
 11
49.8526
 21
44.1576
  0
LINE
  8
0
 10
42.4058
 20
45.003
 11
42.2189
 21
45.0266
  0
LINE
  8
0
 10
42.2189
 20
45.0266
 11
42.0365
 21
45.0734
  0
LINE
  8
0
 10
42.0365
 20
45.0734
 11
41.8613
 21
45.1428
  0
LINE
  8
0
 10
41.8613
 20
45.1428
 11
41.6963
 21
45.2335
  0
LINE
  8
0
 10
41.6963
 20
45.2335
 11
41.5439
 21
45.3442
  0
LINE
  8
0
 10
41.5439
 20
45.3442
 11
41.4065
 21
45.4732
  0
LINE
  8
0
 10
41.4065
 20
45.4732
 11
41.2865
 21
45.6183
  0
LINE
  8
0
 10
41.2865
 20
45.6183
 11
41.1855
 21
45.7774
  0
LINE
  8
0
 10
41.1855
 20
45.7774
 11
41.1053
 21
45.9478
  0
LINE
  8
0
 10
41.1053
 20
45.9478
 11
41.0471
 21
46.127
  0
LINE
  8
0
 10
41.0471
 20
46.127
 11
41.0118
 21
46.312
  0
LINE
  8
0
 10
41.0118
 20
46.312
 11
41
 21
46.5
  0
LINE
  8
0
 10
41
 20
46.5
 11
41.0118
 21
46.688
  0
LINE
  8
0
 10
41.0118
 20
46.688
 11
41.0471
 21
46.873
  0
LINE
  8
0
 10
41.0471
 20
46.873
 11
41.1053
 21
47.0522
  0
LINE
  8
0
 10
41.1053
 20
47.0522
 11
41.1855
 21
47.2226
  0
LINE
  8
0
 10
41.1855
 20
47.2226
 11
41.2865
 21
47.3817
  0
LINE
  8
0
 10
41.2865
 20
47.3817
 11
41.4065
 21
47.5268
  0
LINE
  8
0
 10
41.4065
 20
47.5268
 11
41.5439
 21
47.6558
  0
LINE
  8
0
 10
41.5439
 20
47.6558
 11
41.6963
 21
47.7665
  0
LINE
  8
0
 10
41.6963
 20
47.7665
 11
41.8613
 21
47.8573
  0
LINE
  8
0
 10
41.8613
 20
47.8573
 11
42.0365
 21
47.9266
  0
LINE
  8
0
 10
42.0365
 20
47.9266
 11
42.2189
 21
47.9734
  0
LINE
  8
0
 10
42.2189
 20
47.9734
 11
42.4058
 21
47.9971
  0
LINE
  8
0
 10
42.4058
 20
47.9971
 11
42.5942
 21
47.9971
  0
LINE
  8
0
 10
42.5942
 20
47.9971
 11
42.7811
 21
47.9734
  0
LINE
  8
0
 10
42.7811
 20
47.9734
 11
42.9635
 21
47.9266
  0
LINE
  8
0
 10
42.9635
 20
47.9266
 11
43.1387
 21
47.8573
  0
LINE
  8
0
 10
43.1387
 20
47.8573
 11
43.3037
 21
47.7665
  0
LINE
  8
0
 10
43.3037
 20
47.7665
 11
43.4561
 21
47.6558
  0
LINE
  8
0
 10
43.4561
 20
47.6558
 11
43.5934
 21
47.5268
  0
LINE
  8
0
 10
43.5934
 20
47.5268
 11
43.7135
 21
47.3817
  0
LINE
  8
0
 10
43.7135
 20
47.3817
 11
43.8145
 21
47.2226
  0
LINE
  8
0
 10
43.8145
 20
47.2226
 11
43.8947
 21
47.0522
  0
LINE
  8
0
 10
43.8947
 20
47.0522
 11
43.9529
 21
46.873
  0
LINE
  8
0
 10
43.9529
 20
46.873
 11
43.9882
 21
46.688
  0
LINE
  8
0
 10
43.9882
 20
46.688
 11
44
 21
46.5
  0
LINE
  8
0
 10
44
 20
46.5
 11
43.9882
 21
46.312
  0
LINE
  8
0
 10
43.9882
 20
46.312
 11
43.9529
 21
46.127
  0
LINE
  8
0
 10
43.9529
 20
46.127
 11
43.8947
 21
45.9478
  0
LINE
  8
0
 10
43.8947
 20
45.9478
 11
43.8145
 21
45.7774
  0
LINE
  8
0
 10
43.8145
 20
45.7774
 11
43.7135
 21
45.6183
  0
LINE
  8
0
 10
43.7135
 20
45.6183
 11
43.5934
 21
45.4732
  0
LINE
  8
0
 10
43.5934
 20
45.4732
 11
43.4561
 21
45.3442
  0
LINE
  8
0
 10
43.4561
 20
45.3442
 11
43.3037
 21
45.2335
  0
LINE
  8
0
 10
43.3037
 20
45.2335
 11
43.1387
 21
45.1428
  0
LINE
  8
0
 10
43.1387
 20
45.1428
 11
42.9635
 21
45.0734
  0
LINE
  8
0
 10
42.9635
 20
45.0734
 11
42.7811
 21
45.0266
  0
LINE
  8
0
 10
42.7811
 20
45.0266
 11
42.5942
 21
45.003
  0
LINE
  8
0
 10
42.5942
 20
45.003
 11
42.4058
 21
45.003
  0
LINE
  8
0
 10
57.4058
 20
45.003
 11
57.2189
 21
45.0266
  0
LINE
  8
0
 10
57.2189
 20
45.0266
 11
57.0365
 21
45.0734
  0
LINE
  8
0
 10
57.0365
 20
45.0734
 11
56.8613
 21
45.1428
  0
LINE
  8
0
 10
56.8613
 20
45.1428
 11
56.6963
 21
45.2335
  0
LINE
  8
0
 10
56.6963
 20
45.2335
 11
56.5439
 21
45.3442
  0
LINE
  8
0
 10
56.5439
 20
45.3442
 11
56.4065
 21
45.4732
  0
LINE
  8
0
 10
56.4065
 20
45.4732
 11
56.2865
 21
45.6183
  0
LINE
  8
0
 10
56.2865
 20
45.6183
 11
56.1855
 21
45.7774
  0
LINE
  8
0
 10
56.1855
 20
45.7774
 11
56.1053
 21
45.9478
  0
LINE
  8
0
 10
56.1053
 20
45.9478
 11
56.0471
 21
46.127
  0
LINE
  8
0
 10
56.0471
 20
46.127
 11
56.0118
 21
46.312
  0
LINE
  8
0
 10
56.0118
 20
46.312
 11
56
 21
46.5
  0
LINE
  8
0
 10
56
 20
46.5
 11
56.0118
 21
46.688
  0
LINE
  8
0
 10
56.0118
 20
46.688
 11
56.0471
 21
46.873
  0
LINE
  8
0
 10
56.0471
 20
46.873
 11
56.1053
 21
47.0522
  0
LINE
  8
0
 10
56.1053
 20
47.0522
 11
56.1855
 21
47.2226
  0
LINE
  8
0
 10
56.1855
 20
47.2226
 11
56.2865
 21
47.3817
  0
LINE
  8
0
 10
56.2865
 20
47.3817
 11
56.4065
 21
47.5268
  0
LINE
  8
0
 10
56.4065
 20
47.5268
 11
56.5439
 21
47.6558
  0
LINE
  8
0
 10
56.5439
 20
47.6558
 11
56.6963
 21
47.7665
  0
LINE
  8
0
 10
56.6963
 20
47.7665
 11
56.8613
 21
47.8573
  0
LINE
  8
0
 10
56.8613
 20
47.8573
 11
57.0365
 21
47.9266
  0
LINE
  8
0
 10
57.0365
 20
47.9266
 11
57.2189
 21
47.9734
  0
LINE
  8
0
 10
57.2189
 20
47.9734
 11
57.4058
 21
47.9971
  0
LINE
  8
0
 10
57.4058
 20
47.9971
 11
57.5942
 21
47.9971
  0
LINE
  8
0
 10
57.5942
 20
47.9971
 11
57.7811
 21
47.9734
  0
LINE
  8
0
 10
57.7811
 20
47.9734
 11
57.9635
 21
47.9266
  0
LINE
  8
0
 10
57.9635
 20
47.9266
 11
58.1387
 21
47.8573
  0
LINE
  8
0
 10
58.1387
 20
47.8573
 11
58.3037
 21
47.7665
  0
LINE
  8
0
 10
58.3037
 20
47.7665
 11
58.4561
 21
47.6558
  0
LINE
  8
0
 10
58.4561
 20
47.6558
 11
58.5934
 21
47.5268
  0
LINE
  8
0
 10
58.5934
 20
47.5268
 11
58.7135
 21
47.3817
  0
LINE
  8
0
 10
58.7135
 20
47.3817
 11
58.8145
 21
47.2226
  0
LINE
  8
0
 10
58.8145
 20
47.2226
 11
58.8947
 21
47.0522
  0
LINE
  8
0
 10
58.8947
 20
47.0522
 11
58.9529
 21
46.873
  0
LINE
  8
0
 10
58.9529
 20
46.873
 11
58.9882
 21
46.688
  0
LINE
  8
0
 10
58.9882
 20
46.688
 11
59
 21
46.5
  0
LINE
  8
0
 10
59
 20
46.5
 11
58.9882
 21
46.312
  0
LINE
  8
0
 10
58.9882
 20
46.312
 11
58.9529
 21
46.127
  0
LINE
  8
0
 10
58.9529
 20
46.127
 11
58.8947
 21
45.9478
  0
LINE
  8
0
 10
58.8947
 20
45.9478
 11
58.8145
 21
45.7774
  0
LINE
  8
0
 10
58.8145
 20
45.7774
 11
58.7135
 21
45.6183
  0
LINE
  8
0
 10
58.7135
 20
45.6183
 11
58.5934
 21
45.4732
  0
LINE
  8
0
 10
58.5934
 20
45.4732
 11
58.4561
 21
45.3442
  0
LINE
  8
0
 10
58.4561
 20
45.3442
 11
58.3037
 21
45.2335
  0
LINE
  8
0
 10
58.3037
 20
45.2335
 11
58.1387
 21
45.1428
  0
LINE
  8
0
 10
58.1387
 20
45.1428
 11
57.9635
 21
45.0734
  0
LINE
  8
0
 10
57.9635
 20
45.0734
 11
57.7811
 21
45.0266
  0
LINE
  8
0
 10
57.7811
 20
45.0266
 11
57.5942
 21
45.003
  0
LINE
  8
0
 10
57.5942
 20
45.003
 11
57.4058
 21
45.003
  0
LINE
  8
0
 10
57.3116
 20
36.0059
 11
56.9379
 21
36.0531
  0
LINE
  8
0
 10
56.9379
 20
36.0531
 11
56.5729
 21
36.1468
  0
LINE
  8
0
 10
56.5729
 20
36.1468
 11
56.2227
 21
36.2855
  0
LINE
  8
0
 10
56.2227
 20
36.2855
 11
55.8925
 21
36.467
  0
LINE
  8
0
 10
55.8925
 20
36.467
 11
55.5877
 21
36.6885
  0
LINE
  8
0
 10
55.5877
 20
36.6885
 11
55.3131
 21
36.9464
  0
LINE
  8
0
 10
55.3131
 20
36.9464
 11
55.0729
 21
37.2366
  0
LINE
  8
0
 10
55.0729
 20
37.2366
 11
54.8711
 21
37.5547
  0
LINE
  8
0
 10
54.8711
 20
37.5547
 11
54.7107
 21
37.8956
  0
LINE
  8
0
 10
54.7107
 20
37.8956
 11
54.5942
 21
38.2539
  0
LINE
  8
0
 10
54.5942
 20
38.2539
 11
54.5237
 21
38.624
  0
LINE
  8
0
 10
54.5237
 20
38.624
 11
54.5
 21
39
  0
LINE
  8
0
 10
54.5
 20
39
 11
54.5237
 21
39.376
  0
LINE
  8
0
 10
54.5237
 20
39.376
 11
54.5942
 21
39.7461
  0
LINE
  8
0
 10
54.5942
 20
39.7461
 11
54.7107
 21
40.1044
  0
LINE
  8
0
 10
54.7107
 20
40.1044
 11
54.8711
 21
40.4453
  0
LINE
  8
0
 10
54.8711
 20
40.4453
 11
55.0729
 21
40.7634
  0
LINE
  8
0
 10
55.0729
 20
40.7634
 11
55.3131
 21
41.0536
  0
LINE
  8
0
 10
55.3131
 20
41.0536
 11
55.5877
 21
41.3116
  0
LINE
  8
0
 10
55.5877
 20
41.3116
 11
55.8925
 21
41.533
  0
LINE
  8
0
 10
55.8925
 20
41.533
 11
56.2227
 21
41.7145
  0
LINE
  8
0
 10
56.2227
 20
41.7145
 11
56.5729
 21
41.8532
  0
LINE
  8
0
 10
56.5729
 20
41.8532
 11
56.9379
 21
41.9469
  0
LINE
  8
0
 10
56.9379
 20
41.9469
 11
57.3116
 21
41.9941
  0
LINE
  8
0
 10
57.3116
 20
41.9941
 11
57.6884
 21
41.9941
  0
LINE
  8
0
 10
57.6884
 20
41.9941
 11
58.0621
 21
41.9469
  0
LINE
  8
0
 10
58.0621
 20
41.9469
 11
58.427
 21
41.8532
  0
LINE
  8
0
 10
58.427
 20
41.8532
 11
58.7773
 21
41.7145
  0
LINE
  8
0
 10
58.7773
 20
41.7145
 11
59.1075
 21
41.533
  0
LINE
  8
0
 10
59.1075
 20
41.533
 11
59.4123
 21
41.3116
  0
LINE
  8
0
 10
59.4123
 20
41.3116
 11
59.6869
 21
41.0536
  0
LINE
  8
0
 10
59.6869
 20
41.0536
 11
59.927
 21
40.7634
  0
LINE
  8
0
 10
59.927
 20
40.7634
 11
60.1289
 21
40.4453
  0
LINE
  8
0
 10
60.1289
 20
40.4453
 11
60.2893
 21
40.1044
  0
LINE
  8
0
 10
60.2893
 20
40.1044
 11
60.4057
 21
39.7461
  0
LINE
  8
0
 10
60.4057
 20
39.7461
 11
60.4763
 21
39.376
  0
LINE
  8
0
 10
60.4763
 20
39.376
 11
60.5
 21
39
  0
LINE
  8
0
 10
60.5
 20
39
 11
60.4763
 21
38.624
  0
LINE
  8
0
 10
60.4763
 20
38.624
 11
60.4057
 21
38.2539
  0
LINE
  8
0
 10
60.4057
 20
38.2539
 11
60.2893
 21
37.8956
  0
LINE
  8
0
 10
60.2893
 20
37.8956
 11
60.1289
 21
37.5547
  0
LINE
  8
0
 10
60.1289
 20
37.5547
 11
59.927
 21
37.2366
  0
LINE
  8
0
 10
59.927
 20
37.2366
 11
59.6869
 21
36.9464
  0
LINE
  8
0
 10
59.6869
 20
36.9464
 11
59.4123
 21
36.6885
  0
LINE
  8
0
 10
59.4123
 20
36.6885
 11
59.1075
 21
36.467
  0
LINE
  8
0
 10
59.1075
 20
36.467
 11
58.7773
 21
36.2855
  0
LINE
  8
0
 10
58.7773
 20
36.2855
 11
58.427
 21
36.1468
  0
LINE
  8
0
 10
58.427
 20
36.1468
 11
58.0621
 21
36.0531
  0
LINE
  8
0
 10
58.0621
 20
36.0531
 11
57.6884
 21
36.0059
  0
LINE
  8
0
 10
57.6884
 20
36.0059
 11
57.3116
 21
36.0059
  0
LINE
  8
0
 10
42.3116
 20
36.0059
 11
41.9379
 21
36.0531
  0
LINE
  8
0
 10
41.9379
 20
36.0531
 11
41.5729
 21
36.1468
  0
LINE
  8
0
 10
41.5729
 20
36.1468
 11
41.2227
 21
36.2855
  0
LINE
  8
0
 10
41.2227
 20
36.2855
 11
40.8925
 21
36.467
  0
LINE
  8
0
 10
40.8925
 20
36.467
 11
40.5877
 21
36.6885
  0
LINE
  8
0
 10
40.5877
 20
36.6885
 11
40.3131
 21
36.9464
  0
LINE
  8
0
 10
40.3131
 20
36.9464
 11
40.0729
 21
37.2366
  0
LINE
  8
0
 10
40.0729
 20
37.2366
 11
39.8711
 21
37.5547
  0
LINE
  8
0
 10
39.8711
 20
37.5547
 11
39.7107
 21
37.8956
  0
LINE
  8
0
 10
39.7107
 20
37.8956
 11
39.5942
 21
38.2539
  0
LINE
  8
0
 10
39.5942
 20
38.2539
 11
39.5237
 21
38.624
  0
LINE
  8
0
 10
39.5237
 20
38.624
 11
39.5
 21
39
  0
LINE
  8
0
 10
39.5
 20
39
 11
39.5237
 21
39.376
  0
LINE
  8
0
 10
39.5237
 20
39.376
 11
39.5942
 21
39.7461
  0
LINE
  8
0
 10
39.5942
 20
39.7461
 11
39.7107
 21
40.1044
  0
LINE
  8
0
 10
39.7107
 20
40.1044
 11
39.8711
 21
40.4453
  0
LINE
  8
0
 10
39.8711
 20
40.4453
 11
40.0729
 21
40.7634
  0
LINE
  8
0
 10
40.0729
 20
40.7634
 11
40.3131
 21
41.0536
  0
LINE
  8
0
 10
40.3131
 20
41.0536
 11
40.5877
 21
41.3116
  0
LINE
  8
0
 10
40.5877
 20
41.3116
 11
40.8925
 21
41.533
  0
LINE
  8
0
 10
40.8925
 20
41.533
 11
41.2227
 21
41.7145
  0
LINE
  8
0
 10
41.2227
 20
41.7145
 11
41.5729
 21
41.8532
  0
LINE
  8
0
 10
41.5729
 20
41.8532
 11
41.9379
 21
41.9469
  0
LINE
  8
0
 10
41.9379
 20
41.9469
 11
42.3116
 21
41.9941
  0
LINE
  8
0
 10
42.3116
 20
41.9941
 11
42.6884
 21
41.9941
  0
LINE
  8
0
 10
42.6884
 20
41.9941
 11
43.0621
 21
41.9469
  0
LINE
  8
0
 10
43.0621
 20
41.9469
 11
43.427
 21
41.8532
  0
LINE
  8
0
 10
43.427
 20
41.8532
 11
43.7773
 21
41.7145
  0
LINE
  8
0
 10
43.7773
 20
41.7145
 11
44.1075
 21
41.533
  0
LINE
  8
0
 10
44.1075
 20
41.533
 11
44.4123
 21
41.3116
  0
LINE
  8
0
 10
44.4123
 20
41.3116
 11
44.6869
 21
41.0536
  0
LINE
  8
0
 10
44.6869
 20
41.0536
 11
44.927
 21
40.7634
  0
LINE
  8
0
 10
44.927
 20
40.7634
 11
45.1289
 21
40.4453
  0
LINE
  8
0
 10
45.1289
 20
40.4453
 11
45.2893
 21
40.1044
  0
LINE
  8
0
 10
45.2893
 20
40.1044
 11
45.4057
 21
39.7461
  0
LINE
  8
0
 10
45.4057
 20
39.7461
 11
45.4763
 21
39.376
  0
LINE
  8
0
 10
45.4763
 20
39.376
 11
45.5
 21
39
  0
LINE
  8
0
 10
45.5
 20
39
 11
45.4763
 21
38.624
  0
LINE
  8
0
 10
45.4763
 20
38.624
 11
45.4057
 21
38.2539
  0
LINE
  8
0
 10
45.4057
 20
38.2539
 11
45.2893
 21
37.8956
  0
LINE
  8
0
 10
45.2893
 20
37.8956
 11
45.1289
 21
37.5547
  0
LINE
  8
0
 10
45.1289
 20
37.5547
 11
44.927
 21
37.2366
  0
LINE
  8
0
 10
44.927
 20
37.2366
 11
44.6869
 21
36.9464
  0
LINE
  8
0
 10
44.6869
 20
36.9464
 11
44.4123
 21
36.6885
  0
LINE
  8
0
 10
44.4123
 20
36.6885
 11
44.1075
 21
36.467
  0
LINE
  8
0
 10
44.1075
 20
36.467
 11
43.7773
 21
36.2855
  0
LINE
  8
0
 10
43.7773
 20
36.2855
 11
43.427
 21
36.1468
  0
LINE
  8
0
 10
43.427
 20
36.1468
 11
43.0621
 21
36.0531
  0
LINE
  8
0
 10
43.0621
 20
36.0531
 11
42.6884
 21
36.0059
  0
LINE
  8
0
 10
42.6884
 20
36.0059
 11
42.3116
 21
36.0059
  0
LINE
  8
0
 10
49.9058
 20
37.503
 11
49.7189
 21
37.5266
  0
LINE
  8
0
 10
49.7189
 20
37.5266
 11
49.5365
 21
37.5734
  0
LINE
  8
0
 10
49.5365
 20
37.5734
 11
49.3613
 21
37.6428
  0
LINE
  8
0
 10
49.3613
 20
37.6428
 11
49.1963
 21
37.7335
  0
LINE
  8
0
 10
49.1963
 20
37.7335
 11
49.0439
 21
37.8442
  0
LINE
  8
0
 10
49.0439
 20
37.8442
 11
48.9065
 21
37.9732
  0
LINE
  8
0
 10
48.9065
 20
37.9732
 11
48.7865
 21
38.1183
  0
LINE
  8
0
 10
48.7865
 20
38.1183
 11
48.6855
 21
38.2774
  0
LINE
  8
0
 10
48.6855
 20
38.2774
 11
48.6053
 21
38.4478
  0
LINE
  8
0
 10
48.6053
 20
38.4478
 11
48.5471
 21
38.627
  0
LINE
  8
0
 10
48.5471
 20
38.627
 11
48.5118
 21
38.812
  0
LINE
  8
0
 10
48.5118
 20
38.812
 11
48.5
 21
39
  0
LINE
  8
0
 10
48.5
 20
39
 11
48.5118
 21
39.188
  0
LINE
  8
0
 10
48.5118
 20
39.188
 11
48.5471
 21
39.373
  0
LINE
  8
0
 10
48.5471
 20
39.373
 11
48.6053
 21
39.5522
  0
LINE
  8
0
 10
48.6053
 20
39.5522
 11
48.6855
 21
39.7226
  0
LINE
  8
0
 10
48.6855
 20
39.7226
 11
48.7865
 21
39.8817
  0
LINE
  8
0
 10
48.7865
 20
39.8817
 11
48.9065
 21
40.0268
  0
LINE
  8
0
 10
48.9065
 20
40.0268
 11
49.0439
 21
40.1558
  0
LINE
  8
0
 10
49.0439
 20
40.1558
 11
49.1963
 21
40.2665
  0
LINE
  8
0
 10
49.1963
 20
40.2665
 11
49.3613
 21
40.3573
  0
LINE
  8
0
 10
49.3613
 20
40.3573
 11
49.5365
 21
40.4266
  0
LINE
  8
0
 10
49.5365
 20
40.4266
 11
49.7189
 21
40.4734
  0
LINE
  8
0
 10
49.7189
 20
40.4734
 11
49.9058
 21
40.4971
  0
LINE
  8
0
 10
49.9058
 20
40.4971
 11
50.0942
 21
40.4971
  0
LINE
  8
0
 10
50.0942
 20
40.4971
 11
50.2811
 21
40.4734
  0
LINE
  8
0
 10
50.2811
 20
40.4734
 11
50.4635
 21
40.4266
  0
LINE
  8
0
 10
50.4635
 20
40.4266
 11
50.6387
 21
40.3573
  0
LINE
  8
0
 10
50.6387
 20
40.3573
 11
50.8037
 21
40.2665
  0
LINE
  8
0
 10
50.8037
 20
40.2665
 11
50.9561
 21
40.1558
  0
LINE
  8
0
 10
50.9561
 20
40.1558
 11
51.0934
 21
40.0268
  0
LINE
  8
0
 10
51.0934
 20
40.0268
 11
51.2135
 21
39.8817
  0
LINE
  8
0
 10
51.2135
 20
39.8817
 11
51.3145
 21
39.7226
  0
LINE
  8
0
 10
51.3145
 20
39.7226
 11
51.3947
 21
39.5522
  0
LINE
  8
0
 10
51.3947
 20
39.5522
 11
51.4529
 21
39.373
  0
LINE
  8
0
 10
51.4529
 20
39.373
 11
51.4882
 21
39.188
  0
LINE
  8
0
 10
51.4882
 20
39.188
 11
51.5
 21
39
  0
LINE
  8
0
 10
51.5
 20
39
 11
51.4882
 21
38.812
  0
LINE
  8
0
 10
51.4882
 20
38.812
 11
51.4529
 21
38.627
  0
LINE
  8
0
 10
51.4529
 20
38.627
 11
51.3947
 21
38.4478
  0
LINE
  8
0
 10
51.3947
 20
38.4478
 11
51.3145
 21
38.2774
  0
LINE
  8
0
 10
51.3145
 20
38.2774
 11
51.2135
 21
38.1183
  0
LINE
  8
0
 10
51.2135
 20
38.1183
 11
51.0934
 21
37.9732
  0
LINE
  8
0
 10
51.0934
 20
37.9732
 11
50.9561
 21
37.8442
  0
LINE
  8
0
 10
50.9561
 20
37.8442
 11
50.8037
 21
37.7335
  0
LINE
  8
0
 10
50.8037
 20
37.7335
 11
50.6387
 21
37.6428
  0
LINE
  8
0
 10
50.6387
 20
37.6428
 11
50.4635
 21
37.5734
  0
LINE
  8
0
 10
50.4635
 20
37.5734
 11
50.2811
 21
37.5266
  0
LINE
  8
0
 10
50.2811
 20
37.5266
 11
50.0942
 21
37.503
  0
LINE
  8
0
 10
50.0942
 20
37.503
 11
49.9058
 21
37.503
  0
ENDSEC
  0
SECTION
  2
OBJECTS
  0
DICTIONARY
  0
ENDSEC
  0
EOF
