  0
SECTION
  2
BLOCKS
  0
ENDSEC
  0
SECTION
  2
ENTITIES
  0
LINE
  8
0
 10
14.5
 20
200
 11
14.4606
 21
200.627
  0
LINE
  8
0
 10
14.4606
 20
200.627
 11
14.3429
 21
201.243
  0
LINE
  8
0
 10
14.3429
 20
201.243
 11
14.1489
 21
201.841
  0
LINE
  8
0
 10
14.1489
 20
201.841
 11
13.8815
 21
202.409
  0
LINE
  8
0
 10
13.8815
 20
202.409
 11
13.5451
 21
202.939
  0
LINE
  8
0
 10
13.5451
 20
202.939
 11
13.1448
 21
203.423
  0
LINE
  8
0
 10
13.1448
 20
203.423
 11
12.6871
 21
203.853
  0
LINE
  8
0
 10
12.6871
 20
203.853
 11
12.1791
 21
204.222
  0
LINE
  8
0
 10
12.1791
 20
204.222
 11
11.6289
 21
204.524
  0
LINE
  8
0
 10
11.6289
 20
204.524
 11
11.0451
 21
204.755
  0
LINE
  8
0
 10
11.0451
 20
204.755
 11
10.4369
 21
204.911
  0
LINE
  8
0
 10
10.4369
 20
204.911
 11
9.81395
 21
204.99
  0
LINE
  8
0
 10
9.81395
 20
204.99
 11
-9.81395
 21
204.99
  0
LINE
  8
0
 10
-9.81395
 20
204.99
 11
-10.4369
 21
204.911
  0
LINE
  8
0
 10
-10.4369
 20
204.911
 11
-11.0451
 21
204.755
  0
LINE
  8
0
 10
-11.0451
 20
204.755
 11
-11.6289
 21
204.524
  0
LINE
  8
0
 10
-11.6289
 20
204.524
 11
-12.1791
 21
204.222
  0
LINE
  8
0
 10
-12.1791
 20
204.222
 11
-12.6871
 21
203.853
  0
LINE
  8
0
 10
-12.6871
 20
203.853
 11
-13.1448
 21
203.423
  0
LINE
  8
0
 10
-13.1448
 20
203.423
 11
-13.5451
 21
202.939
  0
LINE
  8
0
 10
-13.5451
 20
202.939
 11
-13.8815
 21
202.409
  0
LINE
  8
0
 10
-13.8815
 20
202.409
 11
-14.1489
 21
201.841
  0
LINE
  8
0
 10
-14.1489
 20
201.841
 11
-14.3429
 21
201.243
  0
LINE
  8
0
 10
-14.3429
 20
201.243
 11
-14.4606
 21
200.627
  0
LINE
  8
0
 10
-14.4606
 20
200.627
 11
-14.5
 21
200
  0
LINE
  8
0
 10
-14.5
 20
200
 11
-14.5
 21
185.592
  0
LINE
  8
0
 10
-14.5
 20
185.592
 11
14.5
 21
185.592
  0
LINE
  8
0
 10
14.5
 20
185.592
 11
14.5
 21
200
  0
LINE
  8
0
 10
-0.194641
 20
194.906
 11
-0.580872
 21
194.955
  0
LINE
  8
0
 10
-0.580872
 20
194.955
 11
-0.957947
 21
195.052
  0
LINE
  8
0
 10
-0.957947
 20
195.052
 11
-1.3199
 21
195.195
  0
LINE
  8
0
 10
-1.3199
 20
195.195
 11
-1.66106
 21
195.383
  0
LINE
  8
0
 10
-1.66106
 20
195.383
 11
-1.97601
 21
195.611
  0
LINE
  8
0
 10
-1.97601
 20
195.611
 11
-2.2598
 21
195.878
  0
LINE
  8
0
 10
-2.2598
 20
195.878
 11
-2.50795
 21
196.178
  0
LINE
  8
0
 10
-2.50795
 20
196.178
 11
-2.71654
 21
196.507
  0
LINE
  8
0
 10
-2.71654
 20
196.507
 11
-2.88229
 21
196.859
  0
LINE
  8
0
 10
-2.88229
 20
196.859
 11
-3.00259
 21
197.229
  0
LINE
  8
0
 10
-3.00259
 20
197.229
 11
-3.07555
 21
197.611
  0
LINE
  8
0
 10
-3.07555
 20
197.611
 11
-3.09999
 21
198
  0
LINE
  8
0
 10
-3.09999
 20
198
 11
-3.07555
 21
198.389
  0
LINE
  8
0
 10
-3.07555
 20
198.389
 11
-3.00259
 21
198.771
  0
LINE
  8
0
 10
-3.00259
 20
198.771
 11
-2.88229
 21
199.141
  0
LINE
  8
0
 10
-2.88229
 20
199.141
 11
-2.71654
 21
199.493
  0
LINE
  8
0
 10
-2.71654
 20
199.493
 11
-2.50795
 21
199.822
  0
LINE
  8
0
 10
-2.50795
 20
199.822
 11
-2.2598
 21
200.122
  0
LINE
  8
0
 10
-2.2598
 20
200.122
 11
-1.97601
 21
200.389
  0
LINE
  8
0
 10
-1.97601
 20
200.389
 11
-1.66106
 21
200.617
  0
LINE
  8
0
 10
-1.66106
 20
200.617
 11
-1.3199
 21
200.805
  0
LINE
  8
0
 10
-1.3199
 20
200.805
 11
-0.957947
 21
200.948
  0
LINE
  8
0
 10
-0.957947
 20
200.948
 11
-0.580872
 21
201.045
  0
LINE
  8
0
 10
-0.580872
 20
201.045
 11
-0.194641
 21
201.094
  0
LINE
  8
0
 10
-0.194641
 20
201.094
 11
0.194641
 21
201.094
  0
LINE
  8
0
 10
0.194641
 20
201.094
 11
0.580872
 21
201.045
  0
LINE
  8
0
 10
0.580872
 20
201.045
 11
0.957947
 21
200.948
  0
LINE
  8
0
 10
0.957947
 20
200.948
 11
1.3199
 21
200.805
  0
LINE
  8
0
 10
1.3199
 20
200.805
 11
1.66106
 21
200.617
  0
LINE
  8
0
 10
1.66106
 20
200.617
 11
1.97601
 21
200.389
  0
LINE
  8
0
 10
1.97601
 20
200.389
 11
2.2598
 21
200.122
  0
LINE
  8
0
 10
2.2598
 20
200.122
 11
2.50795
 21
199.822
  0
LINE
  8
0
 10
2.50795
 20
199.822
 11
2.71654
 21
199.493
  0
LINE
  8
0
 10
2.71654
 20
199.493
 11
2.88229
 21
199.141
  0
LINE
  8
0
 10
2.88229
 20
199.141
 11
3.00259
 21
198.771
  0
LINE
  8
0
 10
3.00259
 20
198.771
 11
3.07555
 21
198.389
  0
LINE
  8
0
 10
3.07555
 20
198.389
 11
3.09999
 21
198
  0
LINE
  8
0
 10
3.09999
 20
198
 11
3.07555
 21
197.611
  0
LINE
  8
0
 10
3.07555
 20
197.611
 11
3.00259
 21
197.229
  0
LINE
  8
0
 10
3.00259
 20
197.229
 11
2.88229
 21
196.859
  0
LINE
  8
0
 10
2.88229
 20
196.859
 11
2.71654
 21
196.507
  0
LINE
  8
0
 10
2.71654
 20
196.507
 11
2.50795
 21
196.178
  0
LINE
  8
0
 10
2.50795
 20
196.178
 11
2.2598
 21
195.878
  0
LINE
  8
0
 10
2.2598
 20
195.878
 11
1.97601
 21
195.611
  0
LINE
  8
0
 10
1.97601
 20
195.611
 11
1.66106
 21
195.383
  0
LINE
  8
0
 10
1.66106
 20
195.383
 11
1.3199
 21
195.195
  0
LINE
  8
0
 10
1.3199
 20
195.195
 11
0.957947
 21
195.052
  0
LINE
  8
0
 10
0.957947
 20
195.052
 11
0.580872
 21
194.955
  0
LINE
  8
0
 10
0.580872
 20
194.955
 11
0.194641
 21
194.906
  0
LINE
  8
0
 10
0.194641
 20
194.906
 11
-0.194641
 21
194.906
  0
LINE
  8
0
 10
7.31161
 20
195.006
 11
6.93785
 21
195.053
  0
LINE
  8
0
 10
6.93785
 20
195.053
 11
6.57294
 21
195.147
  0
LINE
  8
0
 10
6.57294
 20
195.147
 11
6.22266
 21
195.286
  0
LINE
  8
0
 10
6.22266
 20
195.286
 11
5.89252
 21
195.467
  0
LINE
  8
0
 10
5.89252
 20
195.467
 11
5.58772
 21
195.688
  0
LINE
  8
0
 10
5.58772
 20
195.688
 11
5.31308
 21
195.946
  0
LINE
  8
0
 10
5.31308
 20
195.946
 11
5.07294
 21
196.237
  0
LINE
  8
0
 10
5.07294
 20
196.237
 11
4.87108
 21
196.555
  0
LINE
  8
0
 10
4.87108
 20
196.555
 11
4.71066
 21
196.896
  0
LINE
  8
0
 10
4.71066
 20
196.896
 11
4.59424
 21
197.254
  0
LINE
  8
0
 10
4.59424
 20
197.254
 11
4.52365
 21
197.624
  0
LINE
  8
0
 10
4.52365
 20
197.624
 11
4.5
 21
198
  0
LINE
  8
0
 10
4.5
 20
198
 11
4.52365
 21
198.376
  0
LINE
  8
0
 10
4.52365
 20
198.376
 11
4.59424
 21
198.746
  0
LINE
  8
0
 10
4.59424
 20
198.746
 11
4.71066
 21
199.104
  0
LINE
  8
0
 10
4.71066
 20
199.104
 11
4.87108
 21
199.445
  0
LINE
  8
0
 10
4.87108
 20
199.445
 11
5.07294
 21
199.763
  0
LINE
  8
0
 10
5.07294
 20
199.763
 11
5.31308
 21
200.054
  0
LINE
  8
0
 10
5.31308
 20
200.054
 11
5.58772
 21
200.312
  0
LINE
  8
0
 10
5.58772
 20
200.312
 11
5.89252
 21
200.533
  0
LINE
  8
0
 10
5.89252
 20
200.533
 11
6.22266
 21
200.714
  0
LINE
  8
0
 10
6.22266
 20
200.714
 11
6.57294
 21
200.853
  0
LINE
  8
0
 10
6.57294
 20
200.853
 11
6.93785
 21
200.947
  0
LINE
  8
0
 10
6.93785
 20
200.947
 11
7.31161
 21
200.994
  0
LINE
  8
0
 10
7.31161
 20
200.994
 11
7.68837
 21
200.994
  0
LINE
  8
0
 10
7.68837
 20
200.994
 11
8.06213
 21
200.947
  0
LINE
  8
0
 10
8.06213
 20
200.947
 11
8.42705
 21
200.853
  0
LINE
  8
0
 10
8.42705
 20
200.853
 11
8.77733
 21
200.714
  0
LINE
  8
0
 10
8.77733
 20
200.714
 11
9.10747
 21
200.533
  0
LINE
  8
0
 10
9.10747
 20
200.533
 11
9.41226
 21
200.312
  0
LINE
  8
0
 10
9.41226
 20
200.312
 11
9.6869
 21
200.054
  0
LINE
  8
0
 10
9.6869
 20
200.054
 11
9.92705
 21
199.763
  0
LINE
  8
0
 10
9.92705
 20
199.763
 11
10.1289
 21
199.445
  0
LINE
  8
0
 10
10.1289
 20
199.445
 11
10.2893
 21
199.104
  0
LINE
  8
0
 10
10.2893
 20
199.104
 11
10.4057
 21
198.746
  0
LINE
  8
0
 10
10.4057
 20
198.746
 11
10.4763
 21
198.376
  0
LINE
  8
0
 10
10.4763
 20
198.376
 11
10.5
 21
198
  0
LINE
  8
0
 10
10.5
 20
198
 11
10.4763
 21
197.624
  0
LINE
  8
0
 10
10.4763
 20
197.624
 11
10.4057
 21
197.254
  0
LINE
  8
0
 10
10.4057
 20
197.254
 11
10.2893
 21
196.896
  0
LINE
  8
0
 10
10.2893
 20
196.896
 11
10.1289
 21
196.555
  0
LINE
  8
0
 10
10.1289
 20
196.555
 11
9.92705
 21
196.237
  0
LINE
  8
0
 10
9.92705
 20
196.237
 11
9.6869
 21
195.946
  0
LINE
  8
0
 10
9.6869
 20
195.946
 11
9.41226
 21
195.688
  0
LINE
  8
0
 10
9.41226
 20
195.688
 11
9.10747
 21
195.467
  0
LINE
  8
0
 10
9.10747
 20
195.467
 11
8.77733
 21
195.286
  0
LINE
  8
0
 10
8.77733
 20
195.286
 11
8.42705
 21
195.147
  0
LINE
  8
0
 10
8.42705
 20
195.147
 11
8.06213
 21
195.053
  0
LINE
  8
0
 10
8.06213
 20
195.053
 11
7.68837
 21
195.006
  0
LINE
  8
0
 10
7.68837
 20
195.006
 11
7.31161
 21
195.006
  0
LINE
  8
0
 10
-7.68837
 20
195.006
 11
-8.06213
 21
195.053
  0
LINE
  8
0
 10
-8.06213
 20
195.053
 11
-8.42705
 21
195.147
  0
LINE
  8
0
 10
-8.42705
 20
195.147
 11
-8.77733
 21
195.286
  0
LINE
  8
0
 10
-8.77733
 20
195.286
 11
-9.10747
 21
195.467
  0
LINE
  8
0
 10
-9.10747
 20
195.467
 11
-9.41226
 21
195.688
  0
LINE
  8
0
 10
-9.41226
 20
195.688
 11
-9.6869
 21
195.946
  0
LINE
  8
0
 10
-9.6869
 20
195.946
 11
-9.92705
 21
196.237
  0
LINE
  8
0
 10
-9.92705
 20
196.237
 11
-10.1289
 21
196.555
  0
LINE
  8
0
 10
-10.1289
 20
196.555
 11
-10.2893
 21
196.896
  0
LINE
  8
0
 10
-10.2893
 20
196.896
 11
-10.4057
 21
197.254
  0
LINE
  8
0
 10
-10.4057
 20
197.254
 11
-10.4763
 21
197.624
  0
LINE
  8
0
 10
-10.4763
 20
197.624
 11
-10.5
 21
198
  0
LINE
  8
0
 10
-10.5
 20
198
 11
-10.4763
 21
198.376
  0
LINE
  8
0
 10
-10.4763
 20
198.376
 11
-10.4057
 21
198.746
  0
LINE
  8
0
 10
-10.4057
 20
198.746
 11
-10.2893
 21
199.104
  0
LINE
  8
0
 10
-10.2893
 20
199.104
 11
-10.1289
 21
199.445
  0
LINE
  8
0
 10
-10.1289
 20
199.445
 11
-9.92705
 21
199.763
  0
LINE
  8
0
 10
-9.92705
 20
199.763
 11
-9.6869
 21
200.054
  0
LINE
  8
0
 10
-9.6869
 20
200.054
 11
-9.41226
 21
200.312
  0
LINE
  8
0
 10
-9.41226
 20
200.312
 11
-9.10747
 21
200.533
  0
LINE
  8
0
 10
-9.10747
 20
200.533
 11
-8.77733
 21
200.714
  0
LINE
  8
0
 10
-8.77733
 20
200.714
 11
-8.42705
 21
200.853
  0
LINE
  8
0
 10
-8.42705
 20
200.853
 11
-8.06213
 21
200.947
  0
LINE
  8
0
 10
-8.06213
 20
200.947
 11
-7.68837
 21
200.994
  0
LINE
  8
0
 10
-7.68837
 20
200.994
 11
-7.31161
 21
200.994
  0
LINE
  8
0
 10
-7.31161
 20
200.994
 11
-6.93785
 21
200.947
  0
LINE
  8
0
 10
-6.93785
 20
200.947
 11
-6.57294
 21
200.853
  0
LINE
  8
0
 10
-6.57294
 20
200.853
 11
-6.22266
 21
200.714
  0
LINE
  8
0
 10
-6.22266
 20
200.714
 11
-5.89252
 21
200.533
  0
LINE
  8
0
 10
-5.89252
 20
200.533
 11
-5.58772
 21
200.312
  0
LINE
  8
0
 10
-5.58772
 20
200.312
 11
-5.31308
 21
200.054
  0
LINE
  8
0
 10
-5.31308
 20
200.054
 11
-5.07294
 21
199.763
  0
LINE
  8
0
 10
-5.07294
 20
199.763
 11
-4.87108
 21
199.445
  0
LINE
  8
0
 10
-4.87108
 20
199.445
 11
-4.71066
 21
199.104
  0
LINE
  8
0
 10
-4.71066
 20
199.104
 11
-4.59424
 21
198.746
  0
LINE
  8
0
 10
-4.59424
 20
198.746
 11
-4.52365
 21
198.376
  0
LINE
  8
0
 10
-4.52365
 20
198.376
 11
-4.5
 21
198
  0
LINE
  8
0
 10
-4.5
 20
198
 11
-4.52365
 21
197.624
  0
LINE
  8
0
 10
-4.52365
 20
197.624
 11
-4.59424
 21
197.254
  0
LINE
  8
0
 10
-4.59424
 20
197.254
 11
-4.71066
 21
196.896
  0
LINE
  8
0
 10
-4.71066
 20
196.896
 11
-4.87108
 21
196.555
  0
LINE
  8
0
 10
-4.87108
 20
196.555
 11
-5.07294
 21
196.237
  0
LINE
  8
0
 10
-5.07294
 20
196.237
 11
-5.31308
 21
195.946
  0
LINE
  8
0
 10
-5.31308
 20
195.946
 11
-5.58772
 21
195.688
  0
LINE
  8
0
 10
-5.58772
 20
195.688
 11
-5.89252
 21
195.467
  0
LINE
  8
0
 10
-5.89252
 20
195.467
 11
-6.22266
 21
195.286
  0
LINE
  8
0
 10
-6.22266
 20
195.286
 11
-6.57294
 21
195.147
  0
LINE
  8
0
 10
-6.57294
 20
195.147
 11
-6.93785
 21
195.053
  0
LINE
  8
0
 10
-6.93785
 20
195.053
 11
-7.31161
 21
195.006
  0
LINE
  8
0
 10
-7.31161
 20
195.006
 11
-7.68837
 21
195.006
  0
LINE
  8
0
 10
-0.113022
 20
188.704
 11
-0.33728
 21
188.732
  0
LINE
  8
0
 10
-0.33728
 20
188.732
 11
-0.556229
 21
188.788
  0
LINE
  8
0
 10
-0.556229
 20
188.788
 11
-0.766388
 21
188.871
  0
LINE
  8
0
 10
-0.766388
 20
188.871
 11
-0.964478
 21
188.98
  0
LINE
  8
0
 10
-0.964478
 20
188.98
 11
-1.14735
 21
189.113
  0
LINE
  8
0
 10
-1.14735
 20
189.113
 11
-1.31213
 21
189.268
  0
LINE
  8
0
 10
-1.31213
 20
189.268
 11
-1.45622
 21
189.442
  0
LINE
  8
0
 10
-1.45622
 20
189.442
 11
-1.57735
 21
189.633
  0
LINE
  8
0
 10
-1.57735
 20
189.633
 11
-1.67358
 21
189.837
  0
LINE
  8
0
 10
-1.67358
 20
189.837
 11
-1.74344
 21
190.052
  0
LINE
  8
0
 10
-1.74344
 20
190.052
 11
-1.7858
 21
190.274
  0
LINE
  8
0
 10
-1.7858
 20
190.274
 11
-1.79999
 21
190.5
  0
LINE
  8
0
 10
-1.79999
 20
190.5
 11
-1.7858
 21
190.726
  0
LINE
  8
0
 10
-1.7858
 20
190.726
 11
-1.74344
 21
190.948
  0
LINE
  8
0
 10
-1.74344
 20
190.948
 11
-1.67358
 21
191.163
  0
LINE
  8
0
 10
-1.67358
 20
191.163
 11
-1.57735
 21
191.367
  0
LINE
  8
0
 10
-1.57735
 20
191.367
 11
-1.45622
 21
191.558
  0
LINE
  8
0
 10
-1.45622
 20
191.558
 11
-1.31213
 21
191.732
  0
LINE
  8
0
 10
-1.31213
 20
191.732
 11
-1.14735
 21
191.887
  0
LINE
  8
0
 10
-1.14735
 20
191.887
 11
-0.964478
 21
192.02
  0
LINE
  8
0
 10
-0.964478
 20
192.02
 11
-0.766388
 21
192.129
  0
LINE
  8
0
 10
-0.766388
 20
192.129
 11
-0.556229
 21
192.212
  0
LINE
  8
0
 10
-0.556229
 20
192.212
 11
-0.33728
 21
192.268
  0
LINE
  8
0
 10
-0.33728
 20
192.268
 11
-0.113022
 21
192.296
  0
LINE
  8
0
 10
-0.113022
 20
192.296
 11
0.113022
 21
192.296
  0
LINE
  8
0
 10
0.113022
 20
192.296
 11
0.33728
 21
192.268
  0
LINE
  8
0
 10
0.33728
 20
192.268
 11
0.556229
 21
192.212
  0
LINE
  8
0
 10
0.556229
 20
192.212
 11
0.766388
 21
192.129
  0
LINE
  8
0
 10
0.766388
 20
192.129
 11
0.964478
 21
192.02
  0
LINE
  8
0
 10
0.964478
 20
192.02
 11
1.14735
 21
191.887
  0
LINE
  8
0
 10
1.14735
 20
191.887
 11
1.31213
 21
191.732
  0
LINE
  8
0
 10
1.31213
 20
191.732
 11
1.45622
 21
191.558
  0
LINE
  8
0
 10
1.45622
 20
191.558
 11
1.57735
 21
191.367
  0
LINE
  8
0
 10
1.57735
 20
191.367
 11
1.67358
 21
191.163
  0
LINE
  8
0
 10
1.67358
 20
191.163
 11
1.74344
 21
190.948
  0
LINE
  8
0
 10
1.74344
 20
190.948
 11
1.7858
 21
190.726
  0
LINE
  8
0
 10
1.7858
 20
190.726
 11
1.79999
 21
190.5
  0
LINE
  8
0
 10
1.79999
 20
190.5
 11
1.7858
 21
190.274
  0
LINE
  8
0
 10
1.7858
 20
190.274
 11
1.74344
 21
190.052
  0
LINE
  8
0
 10
1.74344
 20
190.052
 11
1.67358
 21
189.837
  0
LINE
  8
0
 10
1.67358
 20
189.837
 11
1.57735
 21
189.633
  0
LINE
  8
0
 10
1.57735
 20
189.633
 11
1.45622
 21
189.442
  0
LINE
  8
0
 10
1.45622
 20
189.442
 11
1.31213
 21
189.268
  0
LINE
  8
0
 10
1.31213
 20
189.268
 11
1.14735
 21
189.113
  0
LINE
  8
0
 10
1.14735
 20
189.113
 11
0.964478
 21
188.98
  0
LINE
  8
0
 10
0.964478
 20
188.98
 11
0.766388
 21
188.871
  0
LINE
  8
0
 10
0.766388
 20
188.871
 11
0.556229
 21
188.788
  0
LINE
  8
0
 10
0.556229
 20
188.788
 11
0.33728
 21
188.732
  0
LINE
  8
0
 10
0.33728
 20
188.732
 11
0.113022
 21
188.704
  0
LINE
  8
0
 10
0.113022
 20
188.704
 11
-0.113022
 21
188.704
  0
LINE
  8
0
 10
7.40581
 20
189.003
 11
7.21892
 21
189.027
  0
LINE
  8
0
 10
7.21892
 20
189.027
 11
7.03647
 21
189.073
  0
LINE
  8
0
 10
7.03647
 20
189.073
 11
6.86133
 21
189.143
  0
LINE
  8
0
 10
6.86133
 20
189.143
 11
6.69626
 21
189.234
  0
LINE
  8
0
 10
6.69626
 20
189.234
 11
6.54385
 21
189.344
  0
LINE
  8
0
 10
6.54385
 20
189.344
 11
6.40654
 21
189.473
  0
LINE
  8
0
 10
6.40654
 20
189.473
 11
6.28647
 21
189.618
  0
LINE
  8
0
 10
6.28647
 20
189.618
 11
6.18553
 21
189.777
  0
LINE
  8
0
 10
6.18553
 20
189.777
 11
6.10533
 21
189.948
  0
LINE
  8
0
 10
6.10533
 20
189.948
 11
6.04712
 21
190.127
  0
LINE
  8
0
 10
6.04712
 20
190.127
 11
6.01183
 21
190.312
  0
LINE
  8
0
 10
6.01183
 20
190.312
 11
6
 21
190.5
  0
LINE
  8
0
 10
6
 20
190.5
 11
6.01183
 21
190.688
  0
LINE
  8
0
 10
6.01183
 20
190.688
 11
6.04712
 21
190.873
  0
LINE
  8
0
 10
6.04712
 20
190.873
 11
6.10533
 21
191.052
  0
LINE
  8
0
 10
6.10533
 20
191.052
 11
6.18553
 21
191.223
  0
LINE
  8
0
 10
6.18553
 20
191.223
 11
6.28647
 21
191.382
  0
LINE
  8
0
 10
6.28647
 20
191.382
 11
6.40654
 21
191.527
  0
LINE
  8
0
 10
6.40654
 20
191.527
 11
6.54385
 21
191.656
  0
LINE
  8
0
 10
6.54385
 20
191.656
 11
6.69626
 21
191.766
  0
LINE
  8
0
 10
6.69626
 20
191.766
 11
6.86133
 21
191.857
  0
LINE
  8
0
 10
6.86133
 20
191.857
 11
7.03647
 21
191.927
  0
LINE
  8
0
 10
7.03647
 20
191.927
 11
7.21892
 21
191.973
  0
LINE
  8
0
 10
7.21892
 20
191.973
 11
7.40581
 21
191.997
  0
LINE
  8
0
 10
7.40581
 20
191.997
 11
7.59418
 21
191.997
  0
LINE
  8
0
 10
7.59418
 20
191.997
 11
7.78107
 21
191.973
  0
LINE
  8
0
 10
7.78107
 20
191.973
 11
7.96352
 21
191.927
  0
LINE
  8
0
 10
7.96352
 20
191.927
 11
8.13866
 21
191.857
  0
LINE
  8
0
 10
8.13866
 20
191.857
 11
8.30373
 21
191.766
  0
LINE
  8
0
 10
8.30373
 20
191.766
 11
8.45613
 21
191.656
  0
LINE
  8
0
 10
8.45613
 20
191.656
 11
8.59344
 21
191.527
  0
LINE
  8
0
 10
8.59344
 20
191.527
 11
8.71352
 21
191.382
  0
LINE
  8
0
 10
8.71352
 20
191.382
 11
8.81445
 21
191.223
  0
LINE
  8
0
 10
8.81445
 20
191.223
 11
8.89465
 21
191.052
  0
LINE
  8
0
 10
8.89465
 20
191.052
 11
8.95287
 21
190.873
  0
LINE
  8
0
 10
8.95287
 20
190.873
 11
8.98816
 21
190.688
  0
LINE
  8
0
 10
8.98816
 20
190.688
 11
9
 21
190.5
  0
LINE
  8
0
 10
9
 20
190.5
 11
8.98816
 21
190.312
  0
LINE
  8
0
 10
8.98816
 20
190.312
 11
8.95287
 21
190.127
  0
LINE
  8
0
 10
8.95287
 20
190.127
 11
8.89465
 21
189.948
  0
LINE
  8
0
 10
8.89465
 20
189.948
 11
8.81445
 21
189.777
  0
LINE
  8
0
 10
8.81445
 20
189.777
 11
8.71352
 21
189.618
  0
LINE
  8
0
 10
8.71352
 20
189.618
 11
8.59344
 21
189.473
  0
LINE
  8
0
 10
8.59344
 20
189.473
 11
8.45613
 21
189.344
  0
LINE
  8
0
 10
8.45613
 20
189.344
 11
8.30373
 21
189.234
  0
LINE
  8
0
 10
8.30373
 20
189.234
 11
8.13866
 21
189.143
  0
LINE
  8
0
 10
8.13866
 20
189.143
 11
7.96352
 21
189.073
  0
LINE
  8
0
 10
7.96352
 20
189.073
 11
7.78107
 21
189.027
  0
LINE
  8
0
 10
7.78107
 20
189.027
 11
7.59418
 21
189.003
  0
LINE
  8
0
 10
7.59418
 20
189.003
 11
7.40581
 21
189.003
  0
LINE
  8
0
 10
-7.59418
 20
189.003
 11
-7.78107
 21
189.027
  0
LINE
  8
0
 10
-7.78107
 20
189.027
 11
-7.96352
 21
189.073
  0
LINE
  8
0
 10
-7.96352
 20
189.073
 11
-8.13866
 21
189.143
  0
LINE
  8
0
 10
-8.13866
 20
189.143
 11
-8.30373
 21
189.234
  0
LINE
  8
0
 10
-8.30373
 20
189.234
 11
-8.45613
 21
189.344
  0
LINE
  8
0
 10
-8.45613
 20
189.344
 11
-8.59344
 21
189.473
  0
LINE
  8
0
 10
-8.59344
 20
189.473
 11
-8.71352
 21
189.618
  0
LINE
  8
0
 10
-8.71352
 20
189.618
 11
-8.81445
 21
189.777
  0
LINE
  8
0
 10
-8.81445
 20
189.777
 11
-8.89465
 21
189.948
  0
LINE
  8
0
 10
-8.89465
 20
189.948
 11
-8.95287
 21
190.127
  0
LINE
  8
0
 10
-8.95287
 20
190.127
 11
-8.98816
 21
190.312
  0
LINE
  8
0
 10
-8.98816
 20
190.312
 11
-9
 21
190.5
  0
LINE
  8
0
 10
-9
 20
190.5
 11
-8.98816
 21
190.688
  0
LINE
  8
0
 10
-8.98816
 20
190.688
 11
-8.95287
 21
190.873
  0
LINE
  8
0
 10
-8.95287
 20
190.873
 11
-8.89465
 21
191.052
  0
LINE
  8
0
 10
-8.89465
 20
191.052
 11
-8.81445
 21
191.223
  0
LINE
  8
0
 10
-8.81445
 20
191.223
 11
-8.71352
 21
191.382
  0
LINE
  8
0
 10
-8.71352
 20
191.382
 11
-8.59344
 21
191.527
  0
LINE
  8
0
 10
-8.59344
 20
191.527
 11
-8.45613
 21
191.656
  0
LINE
  8
0
 10
-8.45613
 20
191.656
 11
-8.30373
 21
191.766
  0
LINE
  8
0
 10
-8.30373
 20
191.766
 11
-8.13866
 21
191.857
  0
LINE
  8
0
 10
-8.13866
 20
191.857
 11
-7.96352
 21
191.927
  0
LINE
  8
0
 10
-7.96352
 20
191.927
 11
-7.78107
 21
191.973
  0
LINE
  8
0
 10
-7.78107
 20
191.973
 11
-7.59418
 21
191.997
  0
LINE
  8
0
 10
-7.59418
 20
191.997
 11
-7.40581
 21
191.997
  0
LINE
  8
0
 10
-7.40581
 20
191.997
 11
-7.21892
 21
191.973
  0
LINE
  8
0
 10
-7.21892
 20
191.973
 11
-7.03647
 21
191.927
  0
LINE
  8
0
 10
-7.03647
 20
191.927
 11
-6.86133
 21
191.857
  0
LINE
  8
0
 10
-6.86133
 20
191.857
 11
-6.69626
 21
191.766
  0
LINE
  8
0
 10
-6.69626
 20
191.766
 11
-6.54385
 21
191.656
  0
LINE
  8
0
 10
-6.54385
 20
191.656
 11
-6.40654
 21
191.527
  0
LINE
  8
0
 10
-6.40654
 20
191.527
 11
-6.28647
 21
191.382
  0
LINE
  8
0
 10
-6.28647
 20
191.382
 11
-6.18553
 21
191.223
  0
LINE
  8
0
 10
-6.18553
 20
191.223
 11
-6.10533
 21
191.052
  0
LINE
  8
0
 10
-6.10533
 20
191.052
 11
-6.04712
 21
190.873
  0
LINE
  8
0
 10
-6.04712
 20
190.873
 11
-6.01183
 21
190.688
  0
LINE
  8
0
 10
-6.01183
 20
190.688
 11
-6
 21
190.5
  0
LINE
  8
0
 10
-6
 20
190.5
 11
-6.01183
 21
190.312
  0
LINE
  8
0
 10
-6.01183
 20
190.312
 11
-6.04712
 21
190.127
  0
LINE
  8
0
 10
-6.04712
 20
190.127
 11
-6.10533
 21
189.948
  0
LINE
  8
0
 10
-6.10533
 20
189.948
 11
-6.18553
 21
189.777
  0
LINE
  8
0
 10
-6.18553
 20
189.777
 11
-6.28647
 21
189.618
  0
LINE
  8
0
 10
-6.28647
 20
189.618
 11
-6.40654
 21
189.473
  0
LINE
  8
0
 10
-6.40654
 20
189.473
 11
-6.54385
 21
189.344
  0
LINE
  8
0
 10
-6.54385
 20
189.344
 11
-6.69626
 21
189.234
  0
LINE
  8
0
 10
-6.69626
 20
189.234
 11
-6.86133
 21
189.143
  0
LINE
  8
0
 10
-6.86133
 20
189.143
 11
-7.03647
 21
189.073
  0
LINE
  8
0
 10
-7.03647
 20
189.073
 11
-7.21892
 21
189.027
  0
LINE
  8
0
 10
-7.21892
 20
189.027
 11
-7.40581
 21
189.003
  0
LINE
  8
0
 10
-7.40581
 20
189.003
 11
-7.59418
 21
189.003
  0
LINE
  8
0
 10
64.5
 20
200
 11
64.4606
 21
200.627
  0
LINE
  8
0
 10
64.4606
 20
200.627
 11
64.3429
 21
201.243
  0
LINE
  8
0
 10
64.3429
 20
201.243
 11
64.1489
 21
201.841
  0
LINE
  8
0
 10
64.1489
 20
201.841
 11
63.8815
 21
202.409
  0
LINE
  8
0
 10
63.8815
 20
202.409
 11
63.5451
 21
202.939
  0
LINE
  8
0
 10
63.5451
 20
202.939
 11
63.1448
 21
203.423
  0
LINE
  8
0
 10
63.1448
 20
203.423
 11
62.6871
 21
203.853
  0
LINE
  8
0
 10
62.6871
 20
203.853
 11
62.1791
 21
204.222
  0
LINE
  8
0
 10
62.1791
 20
204.222
 11
61.6289
 21
204.524
  0
LINE
  8
0
 10
61.6289
 20
204.524
 11
61.0451
 21
204.755
  0
LINE
  8
0
 10
61.0451
 20
204.755
 11
60.4369
 21
204.911
  0
LINE
  8
0
 10
60.4369
 20
204.911
 11
59.8139
 21
204.99
  0
LINE
  8
0
 10
59.8139
 20
204.99
 11
40.186
 21
204.99
  0
LINE
  8
0
 10
40.186
 20
204.99
 11
39.5631
 21
204.911
  0
LINE
  8
0
 10
39.5631
 20
204.911
 11
38.9549
 21
204.755
  0
LINE
  8
0
 10
38.9549
 20
204.755
 11
38.3711
 21
204.524
  0
LINE
  8
0
 10
38.3711
 20
204.524
 11
37.8209
 21
204.222
  0
LINE
  8
0
 10
37.8209
 20
204.222
 11
37.3129
 21
203.853
  0
LINE
  8
0
 10
37.3129
 20
203.853
 11
36.8551
 21
203.423
  0
LINE
  8
0
 10
36.8551
 20
203.423
 11
36.4549
 21
202.939
  0
LINE
  8
0
 10
36.4549
 20
202.939
 11
36.1185
 21
202.409
  0
LINE
  8
0
 10
36.1185
 20
202.409
 11
35.8511
 21
201.841
  0
LINE
  8
0
 10
35.8511
 20
201.841
 11
35.6571
 21
201.243
  0
LINE
  8
0
 10
35.6571
 20
201.243
 11
35.5394
 21
200.627
  0
LINE
  8
0
 10
35.5394
 20
200.627
 11
35.5
 21
200
  0
LINE
  8
0
 10
35.5
 20
200
 11
35.5
 21
185.592
  0
LINE
  8
0
 10
35.5
 20
185.592
 11
64.5
 21
185.592
  0
LINE
  8
0
 10
64.5
 20
185.592
 11
64.5
 21
200
  0
LINE
  8
0
 10
42.3116
 20
195.006
 11
41.9379
 21
195.053
  0
LINE
  8
0
 10
41.9379
 20
195.053
 11
41.5729
 21
195.147
  0
LINE
  8
0
 10
41.5729
 20
195.147
 11
41.2227
 21
195.286
  0
LINE
  8
0
 10
41.2227
 20
195.286
 11
40.8925
 21
195.467
  0
LINE
  8
0
 10
40.8925
 20
195.467
 11
40.5877
 21
195.688
  0
LINE
  8
0
 10
40.5877
 20
195.688
 11
40.3131
 21
195.946
  0
LINE
  8
0
 10
40.3131
 20
195.946
 11
40.0729
 21
196.237
  0
LINE
  8
0
 10
40.0729
 20
196.237
 11
39.8711
 21
196.555
  0
LINE
  8
0
 10
39.8711
 20
196.555
 11
39.7107
 21
196.896
  0
LINE
  8
0
 10
39.7107
 20
196.896
 11
39.5942
 21
197.254
  0
LINE
  8
0
 10
39.5942
 20
197.254
 11
39.5237
 21
197.624
  0
LINE
  8
0
 10
39.5237
 20
197.624
 11
39.5
 21
198
  0
LINE
  8
0
 10
39.5
 20
198
 11
39.5237
 21
198.376
  0
LINE
  8
0
 10
39.5237
 20
198.376
 11
39.5942
 21
198.746
  0
LINE
  8
0
 10
39.5942
 20
198.746
 11
39.7107
 21
199.104
  0
LINE
  8
0
 10
39.7107
 20
199.104
 11
39.8711
 21
199.445
  0
LINE
  8
0
 10
39.8711
 20
199.445
 11
40.0729
 21
199.763
  0
LINE
  8
0
 10
40.0729
 20
199.763
 11
40.3131
 21
200.054
  0
LINE
  8
0
 10
40.3131
 20
200.054
 11
40.5877
 21
200.312
  0
LINE
  8
0
 10
40.5877
 20
200.312
 11
40.8925
 21
200.533
  0
LINE
  8
0
 10
40.8925
 20
200.533
 11
41.2227
 21
200.714
  0
LINE
  8
0
 10
41.2227
 20
200.714
 11
41.5729
 21
200.853
  0
LINE
  8
0
 10
41.5729
 20
200.853
 11
41.9379
 21
200.947
  0
LINE
  8
0
 10
41.9379
 20
200.947
 11
42.3116
 21
200.994
  0
LINE
  8
0
 10
42.3116
 20
200.994
 11
42.6884
 21
200.994
  0
LINE
  8
0
 10
42.6884
 20
200.994
 11
43.0621
 21
200.947
  0
LINE
  8
0
 10
43.0621
 20
200.947
 11
43.427
 21
200.853
  0
LINE
  8
0
 10
43.427
 20
200.853
 11
43.7773
 21
200.714
  0
LINE
  8
0
 10
43.7773
 20
200.714
 11
44.1075
 21
200.533
  0
LINE
  8
0
 10
44.1075
 20
200.533
 11
44.4123
 21
200.312
  0
LINE
  8
0
 10
44.4123
 20
200.312
 11
44.6869
 21
200.054
  0
LINE
  8
0
 10
44.6869
 20
200.054
 11
44.927
 21
199.763
  0
LINE
  8
0
 10
44.927
 20
199.763
 11
45.1289
 21
199.445
  0
LINE
  8
0
 10
45.1289
 20
199.445
 11
45.2893
 21
199.104
  0
LINE
  8
0
 10
45.2893
 20
199.104
 11
45.4057
 21
198.746
  0
LINE
  8
0
 10
45.4057
 20
198.746
 11
45.4763
 21
198.376
  0
LINE
  8
0
 10
45.4763
 20
198.376
 11
45.5
 21
198
  0
LINE
  8
0
 10
45.5
 20
198
 11
45.4763
 21
197.624
  0
LINE
  8
0
 10
45.4763
 20
197.624
 11
45.4057
 21
197.254
  0
LINE
  8
0
 10
45.4057
 20
197.254
 11
45.2893
 21
196.896
  0
LINE
  8
0
 10
45.2893
 20
196.896
 11
45.1289
 21
196.555
  0
LINE
  8
0
 10
45.1289
 20
196.555
 11
44.927
 21
196.237
  0
LINE
  8
0
 10
44.927
 20
196.237
 11
44.6869
 21
195.946
  0
LINE
  8
0
 10
44.6869
 20
195.946
 11
44.4123
 21
195.688
  0
LINE
  8
0
 10
44.4123
 20
195.688
 11
44.1075
 21
195.467
  0
LINE
  8
0
 10
44.1075
 20
195.467
 11
43.7773
 21
195.286
  0
LINE
  8
0
 10
43.7773
 20
195.286
 11
43.427
 21
195.147
  0
LINE
  8
0
 10
43.427
 20
195.147
 11
43.0621
 21
195.053
  0
LINE
  8
0
 10
43.0621
 20
195.053
 11
42.6884
 21
195.006
  0
LINE
  8
0
 10
42.6884
 20
195.006
 11
42.3116
 21
195.006
  0
LINE
  8
0
 10
57.3116
 20
195.006
 11
56.9379
 21
195.053
  0
LINE
  8
0
 10
56.9379
 20
195.053
 11
56.5729
 21
195.147
  0
LINE
  8
0
 10
56.5729
 20
195.147
 11
56.2227
 21
195.286
  0
LINE
  8
0
 10
56.2227
 20
195.286
 11
55.8925
 21
195.467
  0
LINE
  8
0
 10
55.8925
 20
195.467
 11
55.5877
 21
195.688
  0
LINE
  8
0
 10
55.5877
 20
195.688
 11
55.3131
 21
195.946
  0
LINE
  8
0
 10
55.3131
 20
195.946
 11
55.0729
 21
196.237
  0
LINE
  8
0
 10
55.0729
 20
196.237
 11
54.8711
 21
196.555
  0
LINE
  8
0
 10
54.8711
 20
196.555
 11
54.7107
 21
196.896
  0
LINE
  8
0
 10
54.7107
 20
196.896
 11
54.5942
 21
197.254
  0
LINE
  8
0
 10
54.5942
 20
197.254
 11
54.5237
 21
197.624
  0
LINE
  8
0
 10
54.5237
 20
197.624
 11
54.5
 21
198
  0
LINE
  8
0
 10
54.5
 20
198
 11
54.5237
 21
198.376
  0
LINE
  8
0
 10
54.5237
 20
198.376
 11
54.5942
 21
198.746
  0
LINE
  8
0
 10
54.5942
 20
198.746
 11
54.7107
 21
199.104
  0
LINE
  8
0
 10
54.7107
 20
199.104
 11
54.8711
 21
199.445
  0
LINE
  8
0
 10
54.8711
 20
199.445
 11
55.0729
 21
199.763
  0
LINE
  8
0
 10
55.0729
 20
199.763
 11
55.3131
 21
200.054
  0
LINE
  8
0
 10
55.3131
 20
200.054
 11
55.5877
 21
200.312
  0
LINE
  8
0
 10
55.5877
 20
200.312
 11
55.8925
 21
200.533
  0
LINE
  8
0
 10
55.8925
 20
200.533
 11
56.2227
 21
200.714
  0
LINE
  8
0
 10
56.2227
 20
200.714
 11
56.5729
 21
200.853
  0
LINE
  8
0
 10
56.5729
 20
200.853
 11
56.9379
 21
200.947
  0
LINE
  8
0
 10
56.9379
 20
200.947
 11
57.3116
 21
200.994
  0
LINE
  8
0
 10
57.3116
 20
200.994
 11
57.6884
 21
200.994
  0
LINE
  8
0
 10
57.6884
 20
200.994
 11
58.0621
 21
200.947
  0
LINE
  8
0
 10
58.0621
 20
200.947
 11
58.427
 21
200.853
  0
LINE
  8
0
 10
58.427
 20
200.853
 11
58.7773
 21
200.714
  0
LINE
  8
0
 10
58.7773
 20
200.714
 11
59.1075
 21
200.533
  0
LINE
  8
0
 10
59.1075
 20
200.533
 11
59.4123
 21
200.312
  0
LINE
  8
0
 10
59.4123
 20
200.312
 11
59.6869
 21
200.054
  0
LINE
  8
0
 10
59.6869
 20
200.054
 11
59.927
 21
199.763
  0
LINE
  8
0
 10
59.927
 20
199.763
 11
60.1289
 21
199.445
  0
LINE
  8
0
 10
60.1289
 20
199.445
 11
60.2893
 21
199.104
  0
LINE
  8
0
 10
60.2893
 20
199.104
 11
60.4057
 21
198.746
  0
LINE
  8
0
 10
60.4057
 20
198.746
 11
60.4763
 21
198.376
  0
LINE
  8
0
 10
60.4763
 20
198.376
 11
60.5
 21
198
  0
LINE
  8
0
 10
60.5
 20
198
 11
60.4763
 21
197.624
  0
LINE
  8
0
 10
60.4763
 20
197.624
 11
60.4057
 21
197.254
  0
LINE
  8
0
 10
60.4057
 20
197.254
 11
60.2893
 21
196.896
  0
LINE
  8
0
 10
60.2893
 20
196.896
 11
60.1289
 21
196.555
  0
LINE
  8
0
 10
60.1289
 20
196.555
 11
59.927
 21
196.237
  0
LINE
  8
0
 10
59.927
 20
196.237
 11
59.6869
 21
195.946
  0
LINE
  8
0
 10
59.6869
 20
195.946
 11
59.4123
 21
195.688
  0
LINE
  8
0
 10
59.4123
 20
195.688
 11
59.1075
 21
195.467
  0
LINE
  8
0
 10
59.1075
 20
195.467
 11
58.7773
 21
195.286
  0
LINE
  8
0
 10
58.7773
 20
195.286
 11
58.427
 21
195.147
  0
LINE
  8
0
 10
58.427
 20
195.147
 11
58.0621
 21
195.053
  0
LINE
  8
0
 10
58.0621
 20
195.053
 11
57.6884
 21
195.006
  0
LINE
  8
0
 10
57.6884
 20
195.006
 11
57.3116
 21
195.006
  0
LINE
  8
0
 10
49.9058
 20
196.503
 11
49.7189
 21
196.527
  0
LINE
  8
0
 10
49.7189
 20
196.527
 11
49.5365
 21
196.573
  0
LINE
  8
0
 10
49.5365
 20
196.573
 11
49.3613
 21
196.643
  0
LINE
  8
0
 10
49.3613
 20
196.643
 11
49.1963
 21
196.734
  0
LINE
  8
0
 10
49.1963
 20
196.734
 11
49.0439
 21
196.844
  0
LINE
  8
0
 10
49.0439
 20
196.844
 11
48.9065
 21
196.973
  0
LINE
  8
0
 10
48.9065
 20
196.973
 11
48.7865
 21
197.118
  0
LINE
  8
0
 10
48.7865
 20
197.118
 11
48.6855
 21
197.277
  0
LINE
  8
0
 10
48.6855
 20
197.277
 11
48.6053
 21
197.448
  0
LINE
  8
0
 10
48.6053
 20
197.448
 11
48.5471
 21
197.627
  0
LINE
  8
0
 10
48.5471
 20
197.627
 11
48.5118
 21
197.812
  0
LINE
  8
0
 10
48.5118
 20
197.812
 11
48.5
 21
198
  0
LINE
  8
0
 10
48.5
 20
198
 11
48.5118
 21
198.188
  0
LINE
  8
0
 10
48.5118
 20
198.188
 11
48.5471
 21
198.373
  0
LINE
  8
0
 10
48.5471
 20
198.373
 11
48.6053
 21
198.552
  0
LINE
  8
0
 10
48.6053
 20
198.552
 11
48.6855
 21
198.723
  0
LINE
  8
0
 10
48.6855
 20
198.723
 11
48.7865
 21
198.882
  0
LINE
  8
0
 10
48.7865
 20
198.882
 11
48.9065
 21
199.027
  0
LINE
  8
0
 10
48.9065
 20
199.027
 11
49.0439
 21
199.156
  0
LINE
  8
0
 10
49.0439
 20
199.156
 11
49.1963
 21
199.266
  0
LINE
  8
0
 10
49.1963
 20
199.266
 11
49.3613
 21
199.357
  0
LINE
  8
0
 10
49.3613
 20
199.357
 11
49.5365
 21
199.427
  0
LINE
  8
0
 10
49.5365
 20
199.427
 11
49.7189
 21
199.473
  0
LINE
  8
0
 10
49.7189
 20
199.473
 11
49.9058
 21
199.497
  0
LINE
  8
0
 10
49.9058
 20
199.497
 11
50.0942
 21
199.497
  0
LINE
  8
0
 10
50.0942
 20
199.497
 11
50.2811
 21
199.473
  0
LINE
  8
0
 10
50.2811
 20
199.473
 11
50.4635
 21
199.427
  0
LINE
  8
0
 10
50.4635
 20
199.427
 11
50.6387
 21
199.357
  0
LINE
  8
0
 10
50.6387
 20
199.357
 11
50.8037
 21
199.266
  0
LINE
  8
0
 10
50.8037
 20
199.266
 11
50.9561
 21
199.156
  0
LINE
  8
0
 10
50.9561
 20
199.156
 11
51.0934
 21
199.027
  0
LINE
  8
0
 10
51.0934
 20
199.027
 11
51.2135
 21
198.882
  0
LINE
  8
0
 10
51.2135
 20
198.882
 11
51.3145
 21
198.723
  0
LINE
  8
0
 10
51.3145
 20
198.723
 11
51.3947
 21
198.552
  0
LINE
  8
0
 10
51.3947
 20
198.552
 11
51.4529
 21
198.373
  0
LINE
  8
0
 10
51.4529
 20
198.373
 11
51.4882
 21
198.188
  0
LINE
  8
0
 10
51.4882
 20
198.188
 11
51.5
 21
198
  0
LINE
  8
0
 10
51.5
 20
198
 11
51.4882
 21
197.812
  0
LINE
  8
0
 10
51.4882
 20
197.812
 11
51.4529
 21
197.627
  0
LINE
  8
0
 10
51.4529
 20
197.627
 11
51.3947
 21
197.448
  0
LINE
  8
0
 10
51.3947
 20
197.448
 11
51.3145
 21
197.277
  0
LINE
  8
0
 10
51.3145
 20
197.277
 11
51.2135
 21
197.118
  0
LINE
  8
0
 10
51.2135
 20
197.118
 11
51.0934
 21
196.973
  0
LINE
  8
0
 10
51.0934
 20
196.973
 11
50.9561
 21
196.844
  0
LINE
  8
0
 10
50.9561
 20
196.844
 11
50.8037
 21
196.734
  0
LINE
  8
0
 10
50.8037
 20
196.734
 11
50.6387
 21
196.643
  0
LINE
  8
0
 10
50.6387
 20
196.643
 11
50.4635
 21
196.573
  0
LINE
  8
0
 10
50.4635
 20
196.573
 11
50.2811
 21
196.527
  0
LINE
  8
0
 10
50.2811
 20
196.527
 11
50.0942
 21
196.503
  0
LINE
  8
0
 10
50.0942
 20
196.503
 11
49.9058
 21
196.503
  0
LINE
  8
0
 10
49.887
 20
188.704
 11
49.6627
 21
188.732
  0
LINE
  8
0
 10
49.6627
 20
188.732
 11
49.4438
 21
188.788
  0
LINE
  8
0
 10
49.4438
 20
188.788
 11
49.2336
 21
188.871
  0
LINE
  8
0
 10
49.2336
 20
188.871
 11
49.0355
 21
188.98
  0
LINE
  8
0
 10
49.0355
 20
188.98
 11
48.8526
 21
189.113
  0
LINE
  8
0
 10
48.8526
 20
189.113
 11
48.6879
 21
189.268
  0
LINE
  8
0
 10
48.6879
 20
189.268
 11
48.5438
 21
189.442
  0
LINE
  8
0
 10
48.5438
 20
189.442
 11
48.4226
 21
189.633
  0
LINE
  8
0
 10
48.4226
 20
189.633
 11
48.3264
 21
189.837
  0
LINE
  8
0
 10
48.3264
 20
189.837
 11
48.2565
 21
190.052
  0
LINE
  8
0
 10
48.2565
 20
190.052
 11
48.2142
 21
190.274
  0
LINE
  8
0
 10
48.2142
 20
190.274
 11
48.2
 21
190.5
  0
LINE
  8
0
 10
48.2
 20
190.5
 11
48.2142
 21
190.726
  0
LINE
  8
0
 10
48.2142
 20
190.726
 11
48.2565
 21
190.948
  0
LINE
  8
0
 10
48.2565
 20
190.948
 11
48.3264
 21
191.163
  0
LINE
  8
0
 10
48.3264
 20
191.163
 11
48.4226
 21
191.367
  0
LINE
  8
0
 10
48.4226
 20
191.367
 11
48.5438
 21
191.558
  0
LINE
  8
0
 10
48.5438
 20
191.558
 11
48.6879
 21
191.732
  0
LINE
  8
0
 10
48.6879
 20
191.732
 11
48.8526
 21
191.887
  0
LINE
  8
0
 10
48.8526
 20
191.887
 11
49.0355
 21
192.02
  0
LINE
  8
0
 10
49.0355
 20
192.02
 11
49.2336
 21
192.129
  0
LINE
  8
0
 10
49.2336
 20
192.129
 11
49.4438
 21
192.212
  0
LINE
  8
0
 10
49.4438
 20
192.212
 11
49.6627
 21
192.268
  0
LINE
  8
0
 10
49.6627
 20
192.268
 11
49.887
 21
192.296
  0
LINE
  8
0
 10
49.887
 20
192.296
 11
50.113
 21
192.296
  0
LINE
  8
0
 10
50.113
 20
192.296
 11
50.3373
 21
192.268
  0
LINE
  8
0
 10
50.3373
 20
192.268
 11
50.5562
 21
192.212
  0
LINE
  8
0
 10
50.5562
 20
192.212
 11
50.7664
 21
192.129
  0
LINE
  8
0
 10
50.7664
 20
192.129
 11
50.9645
 21
192.02
  0
LINE
  8
0
 10
50.9645
 20
192.02
 11
51.1474
 21
191.887
  0
LINE
  8
0
 10
51.1474
 20
191.887
 11
51.3121
 21
191.732
  0
LINE
  8
0
 10
51.3121
 20
191.732
 11
51.4562
 21
191.558
  0
LINE
  8
0
 10
51.4562
 20
191.558
 11
51.5773
 21
191.367
  0
LINE
  8
0
 10
51.5773
 20
191.367
 11
51.6736
 21
191.163
  0
LINE
  8
0
 10
51.6736
 20
191.163
 11
51.7434
 21
190.948
  0
LINE
  8
0
 10
51.7434
 20
190.948
 11
51.7858
 21
190.726
  0
LINE
  8
0
 10
51.7858
 20
190.726
 11
51.8
 21
190.5
  0
LINE
  8
0
 10
51.8
 20
190.5
 11
51.7858
 21
190.274
  0
LINE
  8
0
 10
51.7858
 20
190.274
 11
51.7434
 21
190.052
  0
LINE
  8
0
 10
51.7434
 20
190.052
 11
51.6736
 21
189.837
  0
LINE
  8
0
 10
51.6736
 20
189.837
 11
51.5773
 21
189.633
  0
LINE
  8
0
 10
51.5773
 20
189.633
 11
51.4562
 21
189.442
  0
LINE
  8
0
 10
51.4562
 20
189.442
 11
51.3121
 21
189.268
  0
LINE
  8
0
 10
51.3121
 20
189.268
 11
51.1474
 21
189.113
  0
LINE
  8
0
 10
51.1474
 20
189.113
 11
50.9645
 21
188.98
  0
LINE
  8
0
 10
50.9645
 20
188.98
 11
50.7664
 21
188.871
  0
LINE
  8
0
 10
50.7664
 20
188.871
 11
50.5562
 21
188.788
  0
LINE
  8
0
 10
50.5562
 20
188.788
 11
50.3373
 21
188.732
  0
LINE
  8
0
 10
50.3373
 20
188.732
 11
50.113
 21
188.704
  0
LINE
  8
0
 10
50.113
 20
188.704
 11
49.887
 21
188.704
  0
LINE
  8
0
 10
42.4058
 20
189.003
 11
42.2189
 21
189.027
  0
LINE
  8
0
 10
42.2189
 20
189.027
 11
42.0365
 21
189.073
  0
LINE
  8
0
 10
42.0365
 20
189.073
 11
41.8613
 21
189.143
  0
LINE
  8
0
 10
41.8613
 20
189.143
 11
41.6963
 21
189.234
  0
LINE
  8
0
 10
41.6963
 20
189.234
 11
41.5439
 21
189.344
  0
LINE
  8
0
 10
41.5439
 20
189.344
 11
41.4065
 21
189.473
  0
LINE
  8
0
 10
41.4065
 20
189.473
 11
41.2865
 21
189.618
  0
LINE
  8
0
 10
41.2865
 20
189.618
 11
41.1855
 21
189.777
  0
LINE
  8
0
 10
41.1855
 20
189.777
 11
41.1053
 21
189.948
  0
LINE
  8
0
 10
41.1053
 20
189.948
 11
41.0471
 21
190.127
  0
LINE
  8
0
 10
41.0471
 20
190.127
 11
41.0118
 21
190.312
  0
LINE
  8
0
 10
41.0118
 20
190.312
 11
41
 21
190.5
  0
LINE
  8
0
 10
41
 20
190.5
 11
41.0118
 21
190.688
  0
LINE
  8
0
 10
41.0118
 20
190.688
 11
41.0471
 21
190.873
  0
LINE
  8
0
 10
41.0471
 20
190.873
 11
41.1053
 21
191.052
  0
LINE
  8
0
 10
41.1053
 20
191.052
 11
41.1855
 21
191.223
  0
LINE
  8
0
 10
41.1855
 20
191.223
 11
41.2865
 21
191.382
  0
LINE
  8
0
 10
41.2865
 20
191.382
 11
41.4065
 21
191.527
  0
LINE
  8
0
 10
41.4065
 20
191.527
 11
41.5439
 21
191.656
  0
LINE
  8
0
 10
41.5439
 20
191.656
 11
41.6963
 21
191.766
  0
LINE
  8
0
 10
41.6963
 20
191.766
 11
41.8613
 21
191.857
  0
LINE
  8
0
 10
41.8613
 20
191.857
 11
42.0365
 21
191.927
  0
LINE
  8
0
 10
42.0365
 20
191.927
 11
42.2189
 21
191.973
  0
LINE
  8
0
 10
42.2189
 20
191.973
 11
42.4058
 21
191.997
  0
LINE
  8
0
 10
42.4058
 20
191.997
 11
42.5942
 21
191.997
  0
LINE
  8
0
 10
42.5942
 20
191.997
 11
42.7811
 21
191.973
  0
LINE
  8
0
 10
42.7811
 20
191.973
 11
42.9635
 21
191.927
  0
LINE
  8
0
 10
42.9635
 20
191.927
 11
43.1387
 21
191.857
  0
LINE
  8
0
 10
43.1387
 20
191.857
 11
43.3037
 21
191.766
  0
LINE
  8
0
 10
43.3037
 20
191.766
 11
43.4561
 21
191.656
  0
LINE
  8
0
 10
43.4561
 20
191.656
 11
43.5934
 21
191.527
  0
LINE
  8
0
 10
43.5934
 20
191.527
 11
43.7135
 21
191.382
  0
LINE
  8
0
 10
43.7135
 20
191.382
 11
43.8145
 21
191.223
  0
LINE
  8
0
 10
43.8145
 20
191.223
 11
43.8947
 21
191.052
  0
LINE
  8
0
 10
43.8947
 20
191.052
 11
43.9529
 21
190.873
  0
LINE
  8
0
 10
43.9529
 20
190.873
 11
43.9882
 21
190.688
  0
LINE
  8
0
 10
43.9882
 20
190.688
 11
44
 21
190.5
  0
LINE
  8
0
 10
44
 20
190.5
 11
43.9882
 21
190.312
  0
LINE
  8
0
 10
43.9882
 20
190.312
 11
43.9529
 21
190.127
  0
LINE
  8
0
 10
43.9529
 20
190.127
 11
43.8947
 21
189.948
  0
LINE
  8
0
 10
43.8947
 20
189.948
 11
43.8145
 21
189.777
  0
LINE
  8
0
 10
43.8145
 20
189.777
 11
43.7135
 21
189.618
  0
LINE
  8
0
 10
43.7135
 20
189.618
 11
43.5934
 21
189.473
  0
LINE
  8
0
 10
43.5934
 20
189.473
 11
43.4561
 21
189.344
  0
LINE
  8
0
 10
43.4561
 20
189.344
 11
43.3037
 21
189.234
  0
LINE
  8
0
 10
43.3037
 20
189.234
 11
43.1387
 21
189.143
  0
LINE
  8
0
 10
43.1387
 20
189.143
 11
42.9635
 21
189.073
  0
LINE
  8
0
 10
42.9635
 20
189.073
 11
42.7811
 21
189.027
  0
LINE
  8
0
 10
42.7811
 20
189.027
 11
42.5942
 21
189.003
  0
LINE
  8
0
 10
42.5942
 20
189.003
 11
42.4058
 21
189.003
  0
LINE
  8
0
 10
57.4058
 20
189.003
 11
57.2189
 21
189.027
  0
LINE
  8
0
 10
57.2189
 20
189.027
 11
57.0365
 21
189.073
  0
LINE
  8
0
 10
57.0365
 20
189.073
 11
56.8613
 21
189.143
  0
LINE
  8
0
 10
56.8613
 20
189.143
 11
56.6963
 21
189.234
  0
LINE
  8
0
 10
56.6963
 20
189.234
 11
56.5439
 21
189.344
  0
LINE
  8
0
 10
56.5439
 20
189.344
 11
56.4065
 21
189.473
  0
LINE
  8
0
 10
56.4065
 20
189.473
 11
56.2865
 21
189.618
  0
LINE
  8
0
 10
56.2865
 20
189.618
 11
56.1855
 21
189.777
  0
LINE
  8
0
 10
56.1855
 20
189.777
 11
56.1053
 21
189.948
  0
LINE
  8
0
 10
56.1053
 20
189.948
 11
56.0471
 21
190.127
  0
LINE
  8
0
 10
56.0471
 20
190.127
 11
56.0118
 21
190.312
  0
LINE
  8
0
 10
56.0118
 20
190.312
 11
56
 21
190.5
  0
LINE
  8
0
 10
56
 20
190.5
 11
56.0118
 21
190.688
  0
LINE
  8
0
 10
56.0118
 20
190.688
 11
56.0471
 21
190.873
  0
LINE
  8
0
 10
56.0471
 20
190.873
 11
56.1053
 21
191.052
  0
LINE
  8
0
 10
56.1053
 20
191.052
 11
56.1855
 21
191.223
  0
LINE
  8
0
 10
56.1855
 20
191.223
 11
56.2865
 21
191.382
  0
LINE
  8
0
 10
56.2865
 20
191.382
 11
56.4065
 21
191.527
  0
LINE
  8
0
 10
56.4065
 20
191.527
 11
56.5439
 21
191.656
  0
LINE
  8
0
 10
56.5439
 20
191.656
 11
56.6963
 21
191.766
  0
LINE
  8
0
 10
56.6963
 20
191.766
 11
56.8613
 21
191.857
  0
LINE
  8
0
 10
56.8613
 20
191.857
 11
57.0365
 21
191.927
  0
LINE
  8
0
 10
57.0365
 20
191.927
 11
57.2189
 21
191.973
  0
LINE
  8
0
 10
57.2189
 20
191.973
 11
57.4058
 21
191.997
  0
LINE
  8
0
 10
57.4058
 20
191.997
 11
57.5942
 21
191.997
  0
LINE
  8
0
 10
57.5942
 20
191.997
 11
57.7811
 21
191.973
  0
LINE
  8
0
 10
57.7811
 20
191.973
 11
57.9635
 21
191.927
  0
LINE
  8
0
 10
57.9635
 20
191.927
 11
58.1387
 21
191.857
  0
LINE
  8
0
 10
58.1387
 20
191.857
 11
58.3037
 21
191.766
  0
LINE
  8
0
 10
58.3037
 20
191.766
 11
58.4561
 21
191.656
  0
LINE
  8
0
 10
58.4561
 20
191.656
 11
58.5934
 21
191.527
  0
LINE
  8
0
 10
58.5934
 20
191.527
 11
58.7135
 21
191.382
  0
LINE
  8
0
 10
58.7135
 20
191.382
 11
58.8145
 21
191.223
  0
LINE
  8
0
 10
58.8145
 20
191.223
 11
58.8947
 21
191.052
  0
LINE
  8
0
 10
58.8947
 20
191.052
 11
58.9529
 21
190.873
  0
LINE
  8
0
 10
58.9529
 20
190.873
 11
58.9882
 21
190.688
  0
LINE
  8
0
 10
58.9882
 20
190.688
 11
59
 21
190.5
  0
LINE
  8
0
 10
59
 20
190.5
 11
58.9882
 21
190.312
  0
LINE
  8
0
 10
58.9882
 20
190.312
 11
58.9529
 21
190.127
  0
LINE
  8
0
 10
58.9529
 20
190.127
 11
58.8947
 21
189.948
  0
LINE
  8
0
 10
58.8947
 20
189.948
 11
58.8145
 21
189.777
  0
LINE
  8
0
 10
58.8145
 20
189.777
 11
58.7135
 21
189.618
  0
LINE
  8
0
 10
58.7135
 20
189.618
 11
58.5934
 21
189.473
  0
LINE
  8
0
 10
58.5934
 20
189.473
 11
58.4561
 21
189.344
  0
LINE
  8
0
 10
58.4561
 20
189.344
 11
58.3037
 21
189.234
  0
LINE
  8
0
 10
58.3037
 20
189.234
 11
58.1387
 21
189.143
  0
LINE
  8
0
 10
58.1387
 20
189.143
 11
57.9635
 21
189.073
  0
LINE
  8
0
 10
57.9635
 20
189.073
 11
57.7811
 21
189.027
  0
LINE
  8
0
 10
57.7811
 20
189.027
 11
57.5942
 21
189.003
  0
LINE
  8
0
 10
57.5942
 20
189.003
 11
57.4058
 21
189.003
  0
LINE
  8
0
 10
64.5
 20
180.408
 11
35.5
 21
180.408
  0
LINE
  8
0
 10
35.5
 20
180.408
 11
35.5
 21
178.092
  0
LINE
  8
0
 10
35.5
 20
178.092
 11
64.5
 21
178.092
  0
LINE
  8
0
 10
64.5
 20
178.092
 11
64.5
 21
180.408
  0
LINE
  8
0
 10
14.5
 20
180.408
 11
-14.5
 21
180.408
  0
LINE
  8
0
 10
-14.5
 20
180.408
 11
-14.5
 21
178.092
  0
LINE
  8
0
 10
-14.5
 20
178.092
 11
14.5
 21
178.092
  0
LINE
  8
0
 10
14.5
 20
178.092
 11
14.5
 21
180.408
  0
LINE
  8
0
 10
64.5
 20
172.908
 11
35.5
 21
172.908
  0
LINE
  8
0
 10
35.5
 20
172.908
 11
35.5
 21
170.592
  0
LINE
  8
0
 10
35.5
 20
170.592
 11
64.5
 21
170.592
  0
LINE
  8
0
 10
64.5
 20
170.592
 11
64.5
 21
172.908
  0
LINE
  8
0
 10
14.5
 20
172.908
 11
-14.5
 21
172.908
  0
LINE
  8
0
 10
-14.5
 20
172.908
 11
-14.5
 21
170.592
  0
LINE
  8
0
 10
-14.5
 20
170.592
 11
14.5
 21
170.592
  0
LINE
  8
0
 10
14.5
 20
170.592
 11
14.5
 21
172.908
  0
LINE
  8
0
 10
64.5
 20
165.408
 11
35.5
 21
165.408
  0
LINE
  8
0
 10
35.5
 20
165.408
 11
35.5
 21
163.092
  0
LINE
  8
0
 10
35.5
 20
163.092
 11
64.5
 21
163.092
  0
LINE
  8
0
 10
64.5
 20
163.092
 11
64.5
 21
165.408
  0
LINE
  8
0
 10
14.5
 20
165.408
 11
-14.5
 21
165.408
  0
LINE
  8
0
 10
-14.5
 20
165.408
 11
-14.5
 21
163.092
  0
LINE
  8
0
 10
-14.5
 20
163.092
 11
14.5
 21
163.092
  0
LINE
  8
0
 10
14.5
 20
163.092
 11
14.5
 21
165.408
  0
LINE
  8
0
 10
14.5
 20
157.908
 11
-14.5
 21
157.908
  0
LINE
  8
0
 10
-14.5
 20
157.908
 11
-14.5
 21
155.592
  0
LINE
  8
0
 10
-14.5
 20
155.592
 11
14.5
 21
155.592
  0
LINE
  8
0
 10
14.5
 20
155.592
 11
14.5
 21
157.908
  0
LINE
  8
0
 10
64.5
 20
157.908
 11
35.5
 21
157.908
  0
LINE
  8
0
 10
35.5
 20
157.908
 11
35.5
 21
155.592
  0
LINE
  8
0
 10
35.5
 20
155.592
 11
64.5
 21
155.592
  0
LINE
  8
0
 10
64.5
 20
155.592
 11
64.5
 21
157.908
  0
LINE
  8
0
 10
60.4369
 20
131.089
 11
61.0451
 21
131.245
  0
LINE
  8
0
 10
61.0451
 20
131.245
 11
61.6289
 21
131.476
  0
LINE
  8
0
 10
61.6289
 20
131.476
 11
62.1791
 21
131.778
  0
LINE
  8
0
 10
62.1791
 20
131.778
 11
62.6871
 21
132.147
  0
LINE
  8
0
 10
62.6871
 20
132.147
 11
63.1448
 21
132.577
  0
LINE
  8
0
 10
63.1448
 20
132.577
 11
63.5451
 21
133.061
  0
LINE
  8
0
 10
63.5451
 20
133.061
 11
63.8815
 21
133.591
  0
LINE
  8
0
 10
63.8815
 20
133.591
 11
64.1489
 21
134.159
  0
LINE
  8
0
 10
64.1489
 20
134.159
 11
64.3429
 21
134.757
  0
LINE
  8
0
 10
64.3429
 20
134.757
 11
64.4606
 21
135.373
  0
LINE
  8
0
 10
64.4606
 20
135.373
 11
64.5
 21
136
  0
LINE
  8
0
 10
64.5
 20
136
 11
64.5
 21
150.408
  0
LINE
  8
0
 10
64.5
 20
150.408
 11
35.5
 21
150.408
  0
LINE
  8
0
 10
35.5
 20
150.408
 11
35.5
 21
136
  0
LINE
  8
0
 10
35.5
 20
136
 11
35.5394
 21
135.373
  0
LINE
  8
0
 10
35.5394
 20
135.373
 11
35.6571
 21
134.757
  0
LINE
  8
0
 10
35.6571
 20
134.757
 11
35.8511
 21
134.159
  0
LINE
  8
0
 10
35.8511
 20
134.159
 11
36.1185
 21
133.591
  0
LINE
  8
0
 10
36.1185
 20
133.591
 11
36.4549
 21
133.061
  0
LINE
  8
0
 10
36.4549
 20
133.061
 11
36.8551
 21
132.577
  0
LINE
  8
0
 10
36.8551
 20
132.577
 11
37.3129
 21
132.147
  0
LINE
  8
0
 10
37.3129
 20
132.147
 11
37.8209
 21
131.778
  0
LINE
  8
0
 10
37.8209
 20
131.778
 11
38.3711
 21
131.476
  0
LINE
  8
0
 10
38.3711
 20
131.476
 11
38.9549
 21
131.245
  0
LINE
  8
0
 10
38.9549
 20
131.245
 11
39.5631
 21
131.089
  0
LINE
  8
0
 10
39.5631
 20
131.089
 11
40.186
 21
131.01
  0
LINE
  8
0
 10
40.186
 20
131.01
 11
59.8139
 21
131.01
  0
LINE
  8
0
 10
59.8139
 20
131.01
 11
60.4369
 21
131.089
  0
LINE
  8
0
 10
49.887
 20
143.704
 11
49.6627
 21
143.732
  0
LINE
  8
0
 10
49.6627
 20
143.732
 11
49.4438
 21
143.788
  0
LINE
  8
0
 10
49.4438
 20
143.788
 11
49.2336
 21
143.871
  0
LINE
  8
0
 10
49.2336
 20
143.871
 11
49.0355
 21
143.98
  0
LINE
  8
0
 10
49.0355
 20
143.98
 11
48.8526
 21
144.113
  0
LINE
  8
0
 10
48.8526
 20
144.113
 11
48.6879
 21
144.268
  0
LINE
  8
0
 10
48.6879
 20
144.268
 11
48.5438
 21
144.442
  0
LINE
  8
0
 10
48.5438
 20
144.442
 11
48.4226
 21
144.633
  0
LINE
  8
0
 10
48.4226
 20
144.633
 11
48.3264
 21
144.837
  0
LINE
  8
0
 10
48.3264
 20
144.837
 11
48.2565
 21
145.052
  0
LINE
  8
0
 10
48.2565
 20
145.052
 11
48.2142
 21
145.274
  0
LINE
  8
0
 10
48.2142
 20
145.274
 11
48.2
 21
145.5
  0
LINE
  8
0
 10
48.2
 20
145.5
 11
48.2142
 21
145.726
  0
LINE
  8
0
 10
48.2142
 20
145.726
 11
48.2565
 21
145.948
  0
LINE
  8
0
 10
48.2565
 20
145.948
 11
48.3264
 21
146.163
  0
LINE
  8
0
 10
48.3264
 20
146.163
 11
48.4226
 21
146.367
  0
LINE
  8
0
 10
48.4226
 20
146.367
 11
48.5438
 21
146.558
  0
LINE
  8
0
 10
48.5438
 20
146.558
 11
48.6879
 21
146.732
  0
LINE
  8
0
 10
48.6879
 20
146.732
 11
48.8526
 21
146.887
  0
LINE
  8
0
 10
48.8526
 20
146.887
 11
49.0355
 21
147.02
  0
LINE
  8
0
 10
49.0355
 20
147.02
 11
49.2336
 21
147.129
  0
LINE
  8
0
 10
49.2336
 20
147.129
 11
49.4438
 21
147.212
  0
LINE
  8
0
 10
49.4438
 20
147.212
 11
49.6627
 21
147.268
  0
LINE
  8
0
 10
49.6627
 20
147.268
 11
49.887
 21
147.296
  0
LINE
  8
0
 10
49.887
 20
147.296
 11
50.113
 21
147.296
  0
LINE
  8
0
 10
50.113
 20
147.296
 11
50.3373
 21
147.268
  0
LINE
  8
0
 10
50.3373
 20
147.268
 11
50.5562
 21
147.212
  0
LINE
  8
0
 10
50.5562
 20
147.212
 11
50.7664
 21
147.129
  0
LINE
  8
0
 10
50.7664
 20
147.129
 11
50.9645
 21
147.02
  0
LINE
  8
0
 10
50.9645
 20
147.02
 11
51.1474
 21
146.887
  0
LINE
  8
0
 10
51.1474
 20
146.887
 11
51.3121
 21
146.732
  0
LINE
  8
0
 10
51.3121
 20
146.732
 11
51.4562
 21
146.558
  0
LINE
  8
0
 10
51.4562
 20
146.558
 11
51.5773
 21
146.367
  0
LINE
  8
0
 10
51.5773
 20
146.367
 11
51.6736
 21
146.163
  0
LINE
  8
0
 10
51.6736
 20
146.163
 11
51.7434
 21
145.948
  0
LINE
  8
0
 10
51.7434
 20
145.948
 11
51.7858
 21
145.726
  0
LINE
  8
0
 10
51.7858
 20
145.726
 11
51.8
 21
145.5
  0
LINE
  8
0
 10
51.8
 20
145.5
 11
51.7858
 21
145.274
  0
LINE
  8
0
 10
51.7858
 20
145.274
 11
51.7434
 21
145.052
  0
LINE
  8
0
 10
51.7434
 20
145.052
 11
51.6736
 21
144.837
  0
LINE
  8
0
 10
51.6736
 20
144.837
 11
51.5773
 21
144.633
  0
LINE
  8
0
 10
51.5773
 20
144.633
 11
51.4562
 21
144.442
  0
LINE
  8
0
 10
51.4562
 20
144.442
 11
51.3121
 21
144.268
  0
LINE
  8
0
 10
51.3121
 20
144.268
 11
51.1474
 21
144.113
  0
LINE
  8
0
 10
51.1474
 20
144.113
 11
50.9645
 21
143.98
  0
LINE
  8
0
 10
50.9645
 20
143.98
 11
50.7664
 21
143.871
  0
LINE
  8
0
 10
50.7664
 20
143.871
 11
50.5562
 21
143.788
  0
LINE
  8
0
 10
50.5562
 20
143.788
 11
50.3373
 21
143.732
  0
LINE
  8
0
 10
50.3373
 20
143.732
 11
50.113
 21
143.704
  0
LINE
  8
0
 10
50.113
 20
143.704
 11
49.887
 21
143.704
  0
LINE
  8
0
 10
57.4058
 20
144.003
 11
57.2189
 21
144.027
  0
LINE
  8
0
 10
57.2189
 20
144.027
 11
57.0365
 21
144.073
  0
LINE
  8
0
 10
57.0365
 20
144.073
 11
56.8613
 21
144.143
  0
LINE
  8
0
 10
56.8613
 20
144.143
 11
56.6963
 21
144.234
  0
LINE
  8
0
 10
56.6963
 20
144.234
 11
56.5439
 21
144.344
  0
LINE
  8
0
 10
56.5439
 20
144.344
 11
56.4065
 21
144.473
  0
LINE
  8
0
 10
56.4065
 20
144.473
 11
56.2865
 21
144.618
  0
LINE
  8
0
 10
56.2865
 20
144.618
 11
56.1855
 21
144.777
  0
LINE
  8
0
 10
56.1855
 20
144.777
 11
56.1053
 21
144.948
  0
LINE
  8
0
 10
56.1053
 20
144.948
 11
56.0471
 21
145.127
  0
LINE
  8
0
 10
56.0471
 20
145.127
 11
56.0118
 21
145.312
  0
LINE
  8
0
 10
56.0118
 20
145.312
 11
56
 21
145.5
  0
LINE
  8
0
 10
56
 20
145.5
 11
56.0118
 21
145.688
  0
LINE
  8
0
 10
56.0118
 20
145.688
 11
56.0471
 21
145.873
  0
LINE
  8
0
 10
56.0471
 20
145.873
 11
56.1053
 21
146.052
  0
LINE
  8
0
 10
56.1053
 20
146.052
 11
56.1855
 21
146.223
  0
LINE
  8
0
 10
56.1855
 20
146.223
 11
56.2865
 21
146.382
  0
LINE
  8
0
 10
56.2865
 20
146.382
 11
56.4065
 21
146.527
  0
LINE
  8
0
 10
56.4065
 20
146.527
 11
56.5439
 21
146.656
  0
LINE
  8
0
 10
56.5439
 20
146.656
 11
56.6963
 21
146.766
  0
LINE
  8
0
 10
56.6963
 20
146.766
 11
56.8613
 21
146.857
  0
LINE
  8
0
 10
56.8613
 20
146.857
 11
57.0365
 21
146.927
  0
LINE
  8
0
 10
57.0365
 20
146.927
 11
57.2189
 21
146.973
  0
LINE
  8
0
 10
57.2189
 20
146.973
 11
57.4058
 21
146.997
  0
LINE
  8
0
 10
57.4058
 20
146.997
 11
57.5942
 21
146.997
  0
LINE
  8
0
 10
57.5942
 20
146.997
 11
57.7811
 21
146.973
  0
LINE
  8
0
 10
57.7811
 20
146.973
 11
57.9635
 21
146.927
  0
LINE
  8
0
 10
57.9635
 20
146.927
 11
58.1387
 21
146.857
  0
LINE
  8
0
 10
58.1387
 20
146.857
 11
58.3037
 21
146.766
  0
LINE
  8
0
 10
58.3037
 20
146.766
 11
58.4561
 21
146.656
  0
LINE
  8
0
 10
58.4561
 20
146.656
 11
58.5934
 21
146.527
  0
LINE
  8
0
 10
58.5934
 20
146.527
 11
58.7135
 21
146.382
  0
LINE
  8
0
 10
58.7135
 20
146.382
 11
58.8145
 21
146.223
  0
LINE
  8
0
 10
58.8145
 20
146.223
 11
58.8947
 21
146.052
  0
LINE
  8
0
 10
58.8947
 20
146.052
 11
58.9529
 21
145.873
  0
LINE
  8
0
 10
58.9529
 20
145.873
 11
58.9882
 21
145.688
  0
LINE
  8
0
 10
58.9882
 20
145.688
 11
59
 21
145.5
  0
LINE
  8
0
 10
59
 20
145.5
 11
58.9882
 21
145.312
  0
LINE
  8
0
 10
58.9882
 20
145.312
 11
58.9529
 21
145.127
  0
LINE
  8
0
 10
58.9529
 20
145.127
 11
58.8947
 21
144.948
  0
LINE
  8
0
 10
58.8947
 20
144.948
 11
58.8145
 21
144.777
  0
LINE
  8
0
 10
58.8145
 20
144.777
 11
58.7135
 21
144.618
  0
LINE
  8
0
 10
58.7135
 20
144.618
 11
58.5934
 21
144.473
  0
LINE
  8
0
 10
58.5934
 20
144.473
 11
58.4561
 21
144.344
  0
LINE
  8
0
 10
58.4561
 20
144.344
 11
58.3037
 21
144.234
  0
LINE
  8
0
 10
58.3037
 20
144.234
 11
58.1387
 21
144.143
  0
LINE
  8
0
 10
58.1387
 20
144.143
 11
57.9635
 21
144.073
  0
LINE
  8
0
 10
57.9635
 20
144.073
 11
57.7811
 21
144.027
  0
LINE
  8
0
 10
57.7811
 20
144.027
 11
57.5942
 21
144.003
  0
LINE
  8
0
 10
57.5942
 20
144.003
 11
57.4058
 21
144.003
  0
LINE
  8
0
 10
42.4058
 20
144.003
 11
42.2189
 21
144.027
  0
LINE
  8
0
 10
42.2189
 20
144.027
 11
42.0365
 21
144.073
  0
LINE
  8
0
 10
42.0365
 20
144.073
 11
41.8613
 21
144.143
  0
LINE
  8
0
 10
41.8613
 20
144.143
 11
41.6963
 21
144.234
  0
LINE
  8
0
 10
41.6963
 20
144.234
 11
41.5439
 21
144.344
  0
LINE
  8
0
 10
41.5439
 20
144.344
 11
41.4065
 21
144.473
  0
LINE
  8
0
 10
41.4065
 20
144.473
 11
41.2865
 21
144.618
  0
LINE
  8
0
 10
41.2865
 20
144.618
 11
41.1855
 21
144.777
  0
LINE
  8
0
 10
41.1855
 20
144.777
 11
41.1053
 21
144.948
  0
LINE
  8
0
 10
41.1053
 20
144.948
 11
41.0471
 21
145.127
  0
LINE
  8
0
 10
41.0471
 20
145.127
 11
41.0118
 21
145.312
  0
LINE
  8
0
 10
41.0118
 20
145.312
 11
41
 21
145.5
  0
LINE
  8
0
 10
41
 20
145.5
 11
41.0118
 21
145.688
  0
LINE
  8
0
 10
41.0118
 20
145.688
 11
41.0471
 21
145.873
  0
LINE
  8
0
 10
41.0471
 20
145.873
 11
41.1053
 21
146.052
  0
LINE
  8
0
 10
41.1053
 20
146.052
 11
41.1855
 21
146.223
  0
LINE
  8
0
 10
41.1855
 20
146.223
 11
41.2865
 21
146.382
  0
LINE
  8
0
 10
41.2865
 20
146.382
 11
41.4065
 21
146.527
  0
LINE
  8
0
 10
41.4065
 20
146.527
 11
41.5439
 21
146.656
  0
LINE
  8
0
 10
41.5439
 20
146.656
 11
41.6963
 21
146.766
  0
LINE
  8
0
 10
41.6963
 20
146.766
 11
41.8613
 21
146.857
  0
LINE
  8
0
 10
41.8613
 20
146.857
 11
42.0365
 21
146.927
  0
LINE
  8
0
 10
42.0365
 20
146.927
 11
42.2189
 21
146.973
  0
LINE
  8
0
 10
42.2189
 20
146.973
 11
42.4058
 21
146.997
  0
LINE
  8
0
 10
42.4058
 20
146.997
 11
42.5942
 21
146.997
  0
LINE
  8
0
 10
42.5942
 20
146.997
 11
42.7811
 21
146.973
  0
LINE
  8
0
 10
42.7811
 20
146.973
 11
42.9635
 21
146.927
  0
LINE
  8
0
 10
42.9635
 20
146.927
 11
43.1387
 21
146.857
  0
LINE
  8
0
 10
43.1387
 20
146.857
 11
43.3037
 21
146.766
  0
LINE
  8
0
 10
43.3037
 20
146.766
 11
43.4561
 21
146.656
  0
LINE
  8
0
 10
43.4561
 20
146.656
 11
43.5934
 21
146.527
  0
LINE
  8
0
 10
43.5934
 20
146.527
 11
43.7135
 21
146.382
  0
LINE
  8
0
 10
43.7135
 20
146.382
 11
43.8145
 21
146.223
  0
LINE
  8
0
 10
43.8145
 20
146.223
 11
43.8947
 21
146.052
  0
LINE
  8
0
 10
43.8947
 20
146.052
 11
43.9529
 21
145.873
  0
LINE
  8
0
 10
43.9529
 20
145.873
 11
43.9882
 21
145.688
  0
LINE
  8
0
 10
43.9882
 20
145.688
 11
44
 21
145.5
  0
LINE
  8
0
 10
44
 20
145.5
 11
43.9882
 21
145.312
  0
LINE
  8
0
 10
43.9882
 20
145.312
 11
43.9529
 21
145.127
  0
LINE
  8
0
 10
43.9529
 20
145.127
 11
43.8947
 21
144.948
  0
LINE
  8
0
 10
43.8947
 20
144.948
 11
43.8145
 21
144.777
  0
LINE
  8
0
 10
43.8145
 20
144.777
 11
43.7135
 21
144.618
  0
LINE
  8
0
 10
43.7135
 20
144.618
 11
43.5934
 21
144.473
  0
LINE
  8
0
 10
43.5934
 20
144.473
 11
43.4561
 21
144.344
  0
LINE
  8
0
 10
43.4561
 20
144.344
 11
43.3037
 21
144.234
  0
LINE
  8
0
 10
43.3037
 20
144.234
 11
43.1387
 21
144.143
  0
LINE
  8
0
 10
43.1387
 20
144.143
 11
42.9635
 21
144.073
  0
LINE
  8
0
 10
42.9635
 20
144.073
 11
42.7811
 21
144.027
  0
LINE
  8
0
 10
42.7811
 20
144.027
 11
42.5942
 21
144.003
  0
LINE
  8
0
 10
42.5942
 20
144.003
 11
42.4058
 21
144.003
  0
LINE
  8
0
 10
42.3116
 20
135.006
 11
41.9379
 21
135.053
  0
LINE
  8
0
 10
41.9379
 20
135.053
 11
41.5729
 21
135.147
  0
LINE
  8
0
 10
41.5729
 20
135.147
 11
41.2227
 21
135.286
  0
LINE
  8
0
 10
41.2227
 20
135.286
 11
40.8925
 21
135.467
  0
LINE
  8
0
 10
40.8925
 20
135.467
 11
40.5877
 21
135.688
  0
LINE
  8
0
 10
40.5877
 20
135.688
 11
40.3131
 21
135.946
  0
LINE
  8
0
 10
40.3131
 20
135.946
 11
40.0729
 21
136.237
  0
LINE
  8
0
 10
40.0729
 20
136.237
 11
39.8711
 21
136.555
  0
LINE
  8
0
 10
39.8711
 20
136.555
 11
39.7107
 21
136.896
  0
LINE
  8
0
 10
39.7107
 20
136.896
 11
39.5942
 21
137.254
  0
LINE
  8
0
 10
39.5942
 20
137.254
 11
39.5237
 21
137.624
  0
LINE
  8
0
 10
39.5237
 20
137.624
 11
39.5
 21
138
  0
LINE
  8
0
 10
39.5
 20
138
 11
39.5237
 21
138.376
  0
LINE
  8
0
 10
39.5237
 20
138.376
 11
39.5942
 21
138.746
  0
LINE
  8
0
 10
39.5942
 20
138.746
 11
39.7107
 21
139.104
  0
LINE
  8
0
 10
39.7107
 20
139.104
 11
39.8711
 21
139.445
  0
LINE
  8
0
 10
39.8711
 20
139.445
 11
40.0729
 21
139.763
  0
LINE
  8
0
 10
40.0729
 20
139.763
 11
40.3131
 21
140.054
  0
LINE
  8
0
 10
40.3131
 20
140.054
 11
40.5877
 21
140.312
  0
LINE
  8
0
 10
40.5877
 20
140.312
 11
40.8925
 21
140.533
  0
LINE
  8
0
 10
40.8925
 20
140.533
 11
41.2227
 21
140.714
  0
LINE
  8
0
 10
41.2227
 20
140.714
 11
41.5729
 21
140.853
  0
LINE
  8
0
 10
41.5729
 20
140.853
 11
41.9379
 21
140.947
  0
LINE
  8
0
 10
41.9379
 20
140.947
 11
42.3116
 21
140.994
  0
LINE
  8
0
 10
42.3116
 20
140.994
 11
42.6884
 21
140.994
  0
LINE
  8
0
 10
42.6884
 20
140.994
 11
43.0621
 21
140.947
  0
LINE
  8
0
 10
43.0621
 20
140.947
 11
43.427
 21
140.853
  0
LINE
  8
0
 10
43.427
 20
140.853
 11
43.7773
 21
140.714
  0
LINE
  8
0
 10
43.7773
 20
140.714
 11
44.1075
 21
140.533
  0
LINE
  8
0
 10
44.1075
 20
140.533
 11
44.4123
 21
140.312
  0
LINE
  8
0
 10
44.4123
 20
140.312
 11
44.6869
 21
140.054
  0
LINE
  8
0
 10
44.6869
 20
140.054
 11
44.927
 21
139.763
  0
LINE
  8
0
 10
44.927
 20
139.763
 11
45.1289
 21
139.445
  0
LINE
  8
0
 10
45.1289
 20
139.445
 11
45.2893
 21
139.104
  0
LINE
  8
0
 10
45.2893
 20
139.104
 11
45.4057
 21
138.746
  0
LINE
  8
0
 10
45.4057
 20
138.746
 11
45.4763
 21
138.376
  0
LINE
  8
0
 10
45.4763
 20
138.376
 11
45.5
 21
138
  0
LINE
  8
0
 10
45.5
 20
138
 11
45.4763
 21
137.624
  0
LINE
  8
0
 10
45.4763
 20
137.624
 11
45.4057
 21
137.254
  0
LINE
  8
0
 10
45.4057
 20
137.254
 11
45.2893
 21
136.896
  0
LINE
  8
0
 10
45.2893
 20
136.896
 11
45.1289
 21
136.555
  0
LINE
  8
0
 10
45.1289
 20
136.555
 11
44.927
 21
136.237
  0
LINE
  8
0
 10
44.927
 20
136.237
 11
44.6869
 21
135.946
  0
LINE
  8
0
 10
44.6869
 20
135.946
 11
44.4123
 21
135.688
  0
LINE
  8
0
 10
44.4123
 20
135.688
 11
44.1075
 21
135.467
  0
LINE
  8
0
 10
44.1075
 20
135.467
 11
43.7773
 21
135.286
  0
LINE
  8
0
 10
43.7773
 20
135.286
 11
43.427
 21
135.147
  0
LINE
  8
0
 10
43.427
 20
135.147
 11
43.0621
 21
135.053
  0
LINE
  8
0
 10
43.0621
 20
135.053
 11
42.6884
 21
135.006
  0
LINE
  8
0
 10
42.6884
 20
135.006
 11
42.3116
 21
135.006
  0
LINE
  8
0
 10
57.3116
 20
135.006
 11
56.9379
 21
135.053
  0
LINE
  8
0
 10
56.9379
 20
135.053
 11
56.5729
 21
135.147
  0
LINE
  8
0
 10
56.5729
 20
135.147
 11
56.2227
 21
135.286
  0
LINE
  8
0
 10
56.2227
 20
135.286
 11
55.8925
 21
135.467
  0
LINE
  8
0
 10
55.8925
 20
135.467
 11
55.5877
 21
135.688
  0
LINE
  8
0
 10
55.5877
 20
135.688
 11
55.3131
 21
135.946
  0
LINE
  8
0
 10
55.3131
 20
135.946
 11
55.0729
 21
136.237
  0
LINE
  8
0
 10
55.0729
 20
136.237
 11
54.8711
 21
136.555
  0
LINE
  8
0
 10
54.8711
 20
136.555
 11
54.7107
 21
136.896
  0
LINE
  8
0
 10
54.7107
 20
136.896
 11
54.5942
 21
137.254
  0
LINE
  8
0
 10
54.5942
 20
137.254
 11
54.5237
 21
137.624
  0
LINE
  8
0
 10
54.5237
 20
137.624
 11
54.5
 21
138
  0
LINE
  8
0
 10
54.5
 20
138
 11
54.5237
 21
138.376
  0
LINE
  8
0
 10
54.5237
 20
138.376
 11
54.5942
 21
138.746
  0
LINE
  8
0
 10
54.5942
 20
138.746
 11
54.7107
 21
139.104
  0
LINE
  8
0
 10
54.7107
 20
139.104
 11
54.8711
 21
139.445
  0
LINE
  8
0
 10
54.8711
 20
139.445
 11
55.0729
 21
139.763
  0
LINE
  8
0
 10
55.0729
 20
139.763
 11
55.3131
 21
140.054
  0
LINE
  8
0
 10
55.3131
 20
140.054
 11
55.5877
 21
140.312
  0
LINE
  8
0
 10
55.5877
 20
140.312
 11
55.8925
 21
140.533
  0
LINE
  8
0
 10
55.8925
 20
140.533
 11
56.2227
 21
140.714
  0
LINE
  8
0
 10
56.2227
 20
140.714
 11
56.5729
 21
140.853
  0
LINE
  8
0
 10
56.5729
 20
140.853
 11
56.9379
 21
140.947
  0
LINE
  8
0
 10
56.9379
 20
140.947
 11
57.3116
 21
140.994
  0
LINE
  8
0
 10
57.3116
 20
140.994
 11
57.6884
 21
140.994
  0
LINE
  8
0
 10
57.6884
 20
140.994
 11
58.0621
 21
140.947
  0
LINE
  8
0
 10
58.0621
 20
140.947
 11
58.427
 21
140.853
  0
LINE
  8
0
 10
58.427
 20
140.853
 11
58.7773
 21
140.714
  0
LINE
  8
0
 10
58.7773
 20
140.714
 11
59.1075
 21
140.533
  0
LINE
  8
0
 10
59.1075
 20
140.533
 11
59.4123
 21
140.312
  0
LINE
  8
0
 10
59.4123
 20
140.312
 11
59.6869
 21
140.054
  0
LINE
  8
0
 10
59.6869
 20
140.054
 11
59.927
 21
139.763
  0
LINE
  8
0
 10
59.927
 20
139.763
 11
60.1289
 21
139.445
  0
LINE
  8
0
 10
60.1289
 20
139.445
 11
60.2893
 21
139.104
  0
LINE
  8
0
 10
60.2893
 20
139.104
 11
60.4057
 21
138.746
  0
LINE
  8
0
 10
60.4057
 20
138.746
 11
60.4763
 21
138.376
  0
LINE
  8
0
 10
60.4763
 20
138.376
 11
60.5
 21
138
  0
LINE
  8
0
 10
60.5
 20
138
 11
60.4763
 21
137.624
  0
LINE
  8
0
 10
60.4763
 20
137.624
 11
60.4057
 21
137.254
  0
LINE
  8
0
 10
60.4057
 20
137.254
 11
60.2893
 21
136.896
  0
LINE
  8
0
 10
60.2893
 20
136.896
 11
60.1289
 21
136.555
  0
LINE
  8
0
 10
60.1289
 20
136.555
 11
59.927
 21
136.237
  0
LINE
  8
0
 10
59.927
 20
136.237
 11
59.6869
 21
135.946
  0
LINE
  8
0
 10
59.6869
 20
135.946
 11
59.4123
 21
135.688
  0
LINE
  8
0
 10
59.4123
 20
135.688
 11
59.1075
 21
135.467
  0
LINE
  8
0
 10
59.1075
 20
135.467
 11
58.7773
 21
135.286
  0
LINE
  8
0
 10
58.7773
 20
135.286
 11
58.427
 21
135.147
  0
LINE
  8
0
 10
58.427
 20
135.147
 11
58.0621
 21
135.053
  0
LINE
  8
0
 10
58.0621
 20
135.053
 11
57.6884
 21
135.006
  0
LINE
  8
0
 10
57.6884
 20
135.006
 11
57.3116
 21
135.006
  0
LINE
  8
0
 10
49.9058
 20
136.503
 11
49.7189
 21
136.527
  0
LINE
  8
0
 10
49.7189
 20
136.527
 11
49.5365
 21
136.573
  0
LINE
  8
0
 10
49.5365
 20
136.573
 11
49.3613
 21
136.643
  0
LINE
  8
0
 10
49.3613
 20
136.643
 11
49.1963
 21
136.734
  0
LINE
  8
0
 10
49.1963
 20
136.734
 11
49.0439
 21
136.844
  0
LINE
  8
0
 10
49.0439
 20
136.844
 11
48.9065
 21
136.973
  0
LINE
  8
0
 10
48.9065
 20
136.973
 11
48.7865
 21
137.118
  0
LINE
  8
0
 10
48.7865
 20
137.118
 11
48.6855
 21
137.277
  0
LINE
  8
0
 10
48.6855
 20
137.277
 11
48.6053
 21
137.448
  0
LINE
  8
0
 10
48.6053
 20
137.448
 11
48.5471
 21
137.627
  0
LINE
  8
0
 10
48.5471
 20
137.627
 11
48.5118
 21
137.812
  0
LINE
  8
0
 10
48.5118
 20
137.812
 11
48.5
 21
138
  0
LINE
  8
0
 10
48.5
 20
138
 11
48.5118
 21
138.188
  0
LINE
  8
0
 10
48.5118
 20
138.188
 11
48.5471
 21
138.373
  0
LINE
  8
0
 10
48.5471
 20
138.373
 11
48.6053
 21
138.552
  0
LINE
  8
0
 10
48.6053
 20
138.552
 11
48.6855
 21
138.723
  0
LINE
  8
0
 10
48.6855
 20
138.723
 11
48.7865
 21
138.882
  0
LINE
  8
0
 10
48.7865
 20
138.882
 11
48.9065
 21
139.027
  0
LINE
  8
0
 10
48.9065
 20
139.027
 11
49.0439
 21
139.156
  0
LINE
  8
0
 10
49.0439
 20
139.156
 11
49.1963
 21
139.266
  0
LINE
  8
0
 10
49.1963
 20
139.266
 11
49.3613
 21
139.357
  0
LINE
  8
0
 10
49.3613
 20
139.357
 11
49.5365
 21
139.427
  0
LINE
  8
0
 10
49.5365
 20
139.427
 11
49.7189
 21
139.473
  0
LINE
  8
0
 10
49.7189
 20
139.473
 11
49.9058
 21
139.497
  0
LINE
  8
0
 10
49.9058
 20
139.497
 11
50.0942
 21
139.497
  0
LINE
  8
0
 10
50.0942
 20
139.497
 11
50.2811
 21
139.473
  0
LINE
  8
0
 10
50.2811
 20
139.473
 11
50.4635
 21
139.427
  0
LINE
  8
0
 10
50.4635
 20
139.427
 11
50.6387
 21
139.357
  0
LINE
  8
0
 10
50.6387
 20
139.357
 11
50.8037
 21
139.266
  0
LINE
  8
0
 10
50.8037
 20
139.266
 11
50.9561
 21
139.156
  0
LINE
  8
0
 10
50.9561
 20
139.156
 11
51.0934
 21
139.027
  0
LINE
  8
0
 10
51.0934
 20
139.027
 11
51.2135
 21
138.882
  0
LINE
  8
0
 10
51.2135
 20
138.882
 11
51.3145
 21
138.723
  0
LINE
  8
0
 10
51.3145
 20
138.723
 11
51.3947
 21
138.552
  0
LINE
  8
0
 10
51.3947
 20
138.552
 11
51.4529
 21
138.373
  0
LINE
  8
0
 10
51.4529
 20
138.373
 11
51.4882
 21
138.188
  0
LINE
  8
0
 10
51.4882
 20
138.188
 11
51.5
 21
138
  0
LINE
  8
0
 10
51.5
 20
138
 11
51.4882
 21
137.812
  0
LINE
  8
0
 10
51.4882
 20
137.812
 11
51.4529
 21
137.627
  0
LINE
  8
0
 10
51.4529
 20
137.627
 11
51.3947
 21
137.448
  0
LINE
  8
0
 10
51.3947
 20
137.448
 11
51.3145
 21
137.277
  0
LINE
  8
0
 10
51.3145
 20
137.277
 11
51.2135
 21
137.118
  0
LINE
  8
0
 10
51.2135
 20
137.118
 11
51.0934
 21
136.973
  0
LINE
  8
0
 10
51.0934
 20
136.973
 11
50.9561
 21
136.844
  0
LINE
  8
0
 10
50.9561
 20
136.844
 11
50.8037
 21
136.734
  0
LINE
  8
0
 10
50.8037
 20
136.734
 11
50.6387
 21
136.643
  0
LINE
  8
0
 10
50.6387
 20
136.643
 11
50.4635
 21
136.573
  0
LINE
  8
0
 10
50.4635
 20
136.573
 11
50.2811
 21
136.527
  0
LINE
  8
0
 10
50.2811
 20
136.527
 11
50.0942
 21
136.503
  0
LINE
  8
0
 10
50.0942
 20
136.503
 11
49.9058
 21
136.503
  0
LINE
  8
0
 10
10.4369
 20
131.089
 11
11.0451
 21
131.245
  0
LINE
  8
0
 10
11.0451
 20
131.245
 11
11.6289
 21
131.476
  0
LINE
  8
0
 10
11.6289
 20
131.476
 11
12.1791
 21
131.778
  0
LINE
  8
0
 10
12.1791
 20
131.778
 11
12.6871
 21
132.147
  0
LINE
  8
0
 10
12.6871
 20
132.147
 11
13.1448
 21
132.577
  0
LINE
  8
0
 10
13.1448
 20
132.577
 11
13.5451
 21
133.061
  0
LINE
  8
0
 10
13.5451
 20
133.061
 11
13.8815
 21
133.591
  0
LINE
  8
0
 10
13.8815
 20
133.591
 11
14.1489
 21
134.159
  0
LINE
  8
0
 10
14.1489
 20
134.159
 11
14.3429
 21
134.757
  0
LINE
  8
0
 10
14.3429
 20
134.757
 11
14.4606
 21
135.373
  0
LINE
  8
0
 10
14.4606
 20
135.373
 11
14.5
 21
136
  0
LINE
  8
0
 10
14.5
 20
136
 11
14.5
 21
150.408
  0
LINE
  8
0
 10
14.5
 20
150.408
 11
-14.5
 21
150.408
  0
LINE
  8
0
 10
-14.5
 20
150.408
 11
-14.5
 21
136
  0
LINE
  8
0
 10
-14.5
 20
136
 11
-14.4606
 21
135.373
  0
LINE
  8
0
 10
-14.4606
 20
135.373
 11
-14.3429
 21
134.757
  0
LINE
  8
0
 10
-14.3429
 20
134.757
 11
-14.1489
 21
134.159
  0
LINE
  8
0
 10
-14.1489
 20
134.159
 11
-13.8815
 21
133.591
  0
LINE
  8
0
 10
-13.8815
 20
133.591
 11
-13.5451
 21
133.061
  0
LINE
  8
0
 10
-13.5451
 20
133.061
 11
-13.1448
 21
132.577
  0
LINE
  8
0
 10
-13.1448
 20
132.577
 11
-12.6871
 21
132.147
  0
LINE
  8
0
 10
-12.6871
 20
132.147
 11
-12.1791
 21
131.778
  0
LINE
  8
0
 10
-12.1791
 20
131.778
 11
-11.6289
 21
131.476
  0
LINE
  8
0
 10
-11.6289
 20
131.476
 11
-11.0451
 21
131.245
  0
LINE
  8
0
 10
-11.0451
 20
131.245
 11
-10.4369
 21
131.089
  0
LINE
  8
0
 10
-10.4369
 20
131.089
 11
-9.81395
 21
131.01
  0
LINE
  8
0
 10
-9.81395
 20
131.01
 11
9.81395
 21
131.01
  0
LINE
  8
0
 10
9.81395
 20
131.01
 11
10.4369
 21
131.089
  0
LINE
  8
0
 10
-0.113022
 20
143.704
 11
-0.33728
 21
143.732
  0
LINE
  8
0
 10
-0.33728
 20
143.732
 11
-0.556229
 21
143.788
  0
LINE
  8
0
 10
-0.556229
 20
143.788
 11
-0.766388
 21
143.871
  0
LINE
  8
0
 10
-0.766388
 20
143.871
 11
-0.964478
 21
143.98
  0
LINE
  8
0
 10
-0.964478
 20
143.98
 11
-1.14735
 21
144.113
  0
LINE
  8
0
 10
-1.14735
 20
144.113
 11
-1.31213
 21
144.268
  0
LINE
  8
0
 10
-1.31213
 20
144.268
 11
-1.45622
 21
144.442
  0
LINE
  8
0
 10
-1.45622
 20
144.442
 11
-1.57735
 21
144.633
  0
LINE
  8
0
 10
-1.57735
 20
144.633
 11
-1.67358
 21
144.837
  0
LINE
  8
0
 10
-1.67358
 20
144.837
 11
-1.74344
 21
145.052
  0
LINE
  8
0
 10
-1.74344
 20
145.052
 11
-1.7858
 21
145.274
  0
LINE
  8
0
 10
-1.7858
 20
145.274
 11
-1.79999
 21
145.5
  0
LINE
  8
0
 10
-1.79999
 20
145.5
 11
-1.7858
 21
145.726
  0
LINE
  8
0
 10
-1.7858
 20
145.726
 11
-1.74344
 21
145.948
  0
LINE
  8
0
 10
-1.74344
 20
145.948
 11
-1.67358
 21
146.163
  0
LINE
  8
0
 10
-1.67358
 20
146.163
 11
-1.57735
 21
146.367
  0
LINE
  8
0
 10
-1.57735
 20
146.367
 11
-1.45622
 21
146.558
  0
LINE
  8
0
 10
-1.45622
 20
146.558
 11
-1.31213
 21
146.732
  0
LINE
  8
0
 10
-1.31213
 20
146.732
 11
-1.14735
 21
146.887
  0
LINE
  8
0
 10
-1.14735
 20
146.887
 11
-0.964478
 21
147.02
  0
LINE
  8
0
 10
-0.964478
 20
147.02
 11
-0.766388
 21
147.129
  0
LINE
  8
0
 10
-0.766388
 20
147.129
 11
-0.556229
 21
147.212
  0
LINE
  8
0
 10
-0.556229
 20
147.212
 11
-0.33728
 21
147.268
  0
LINE
  8
0
 10
-0.33728
 20
147.268
 11
-0.113022
 21
147.296
  0
LINE
  8
0
 10
-0.113022
 20
147.296
 11
0.113022
 21
147.296
  0
LINE
  8
0
 10
0.113022
 20
147.296
 11
0.33728
 21
147.268
  0
LINE
  8
0
 10
0.33728
 20
147.268
 11
0.556229
 21
147.212
  0
LINE
  8
0
 10
0.556229
 20
147.212
 11
0.766388
 21
147.129
  0
LINE
  8
0
 10
0.766388
 20
147.129
 11
0.964478
 21
147.02
  0
LINE
  8
0
 10
0.964478
 20
147.02
 11
1.14735
 21
146.887
  0
LINE
  8
0
 10
1.14735
 20
146.887
 11
1.31213
 21
146.732
  0
LINE
  8
0
 10
1.31213
 20
146.732
 11
1.45622
 21
146.558
  0
LINE
  8
0
 10
1.45622
 20
146.558
 11
1.57735
 21
146.367
  0
LINE
  8
0
 10
1.57735
 20
146.367
 11
1.67358
 21
146.163
  0
LINE
  8
0
 10
1.67358
 20
146.163
 11
1.74344
 21
145.948
  0
LINE
  8
0
 10
1.74344
 20
145.948
 11
1.7858
 21
145.726
  0
LINE
  8
0
 10
1.7858
 20
145.726
 11
1.79999
 21
145.5
  0
LINE
  8
0
 10
1.79999
 20
145.5
 11
1.7858
 21
145.274
  0
LINE
  8
0
 10
1.7858
 20
145.274
 11
1.74344
 21
145.052
  0
LINE
  8
0
 10
1.74344
 20
145.052
 11
1.67358
 21
144.837
  0
LINE
  8
0
 10
1.67358
 20
144.837
 11
1.57735
 21
144.633
  0
LINE
  8
0
 10
1.57735
 20
144.633
 11
1.45622
 21
144.442
  0
LINE
  8
0
 10
1.45622
 20
144.442
 11
1.31213
 21
144.268
  0
LINE
  8
0
 10
1.31213
 20
144.268
 11
1.14735
 21
144.113
  0
LINE
  8
0
 10
1.14735
 20
144.113
 11
0.964478
 21
143.98
  0
LINE
  8
0
 10
0.964478
 20
143.98
 11
0.766388
 21
143.871
  0
LINE
  8
0
 10
0.766388
 20
143.871
 11
0.556229
 21
143.788
  0
LINE
  8
0
 10
0.556229
 20
143.788
 11
0.33728
 21
143.732
  0
LINE
  8
0
 10
0.33728
 20
143.732
 11
0.113022
 21
143.704
  0
LINE
  8
0
 10
0.113022
 20
143.704
 11
-0.113022
 21
143.704
  0
LINE
  8
0
 10
-7.59418
 20
144.003
 11
-7.78107
 21
144.027
  0
LINE
  8
0
 10
-7.78107
 20
144.027
 11
-7.96352
 21
144.073
  0
LINE
  8
0
 10
-7.96352
 20
144.073
 11
-8.13866
 21
144.143
  0
LINE
  8
0
 10
-8.13866
 20
144.143
 11
-8.30373
 21
144.234
  0
LINE
  8
0
 10
-8.30373
 20
144.234
 11
-8.45613
 21
144.344
  0
LINE
  8
0
 10
-8.45613
 20
144.344
 11
-8.59344
 21
144.473
  0
LINE
  8
0
 10
-8.59344
 20
144.473
 11
-8.71352
 21
144.618
  0
LINE
  8
0
 10
-8.71352
 20
144.618
 11
-8.81445
 21
144.777
  0
LINE
  8
0
 10
-8.81445
 20
144.777
 11
-8.89465
 21
144.948
  0
LINE
  8
0
 10
-8.89465
 20
144.948
 11
-8.95287
 21
145.127
  0
LINE
  8
0
 10
-8.95287
 20
145.127
 11
-8.98816
 21
145.312
  0
LINE
  8
0
 10
-8.98816
 20
145.312
 11
-9
 21
145.5
  0
LINE
  8
0
 10
-9
 20
145.5
 11
-8.98816
 21
145.688
  0
LINE
  8
0
 10
-8.98816
 20
145.688
 11
-8.95287
 21
145.873
  0
LINE
  8
0
 10
-8.95287
 20
145.873
 11
-8.89465
 21
146.052
  0
LINE
  8
0
 10
-8.89465
 20
146.052
 11
-8.81445
 21
146.223
  0
LINE
  8
0
 10
-8.81445
 20
146.223
 11
-8.71352
 21
146.382
  0
LINE
  8
0
 10
-8.71352
 20
146.382
 11
-8.59344
 21
146.527
  0
LINE
  8
0
 10
-8.59344
 20
146.527
 11
-8.45613
 21
146.656
  0
LINE
  8
0
 10
-8.45613
 20
146.656
 11
-8.30373
 21
146.766
  0
LINE
  8
0
 10
-8.30373
 20
146.766
 11
-8.13866
 21
146.857
  0
LINE
  8
0
 10
-8.13866
 20
146.857
 11
-7.96352
 21
146.927
  0
LINE
  8
0
 10
-7.96352
 20
146.927
 11
-7.78107
 21
146.973
  0
LINE
  8
0
 10
-7.78107
 20
146.973
 11
-7.59418
 21
146.997
  0
LINE
  8
0
 10
-7.59418
 20
146.997
 11
-7.40581
 21
146.997
  0
LINE
  8
0
 10
-7.40581
 20
146.997
 11
-7.21892
 21
146.973
  0
LINE
  8
0
 10
-7.21892
 20
146.973
 11
-7.03647
 21
146.927
  0
LINE
  8
0
 10
-7.03647
 20
146.927
 11
-6.86133
 21
146.857
  0
LINE
  8
0
 10
-6.86133
 20
146.857
 11
-6.69626
 21
146.766
  0
LINE
  8
0
 10
-6.69626
 20
146.766
 11
-6.54385
 21
146.656
  0
LINE
  8
0
 10
-6.54385
 20
146.656
 11
-6.40654
 21
146.527
  0
LINE
  8
0
 10
-6.40654
 20
146.527
 11
-6.28647
 21
146.382
  0
LINE
  8
0
 10
-6.28647
 20
146.382
 11
-6.18553
 21
146.223
  0
LINE
  8
0
 10
-6.18553
 20
146.223
 11
-6.10533
 21
146.052
  0
LINE
  8
0
 10
-6.10533
 20
146.052
 11
-6.04712
 21
145.873
  0
LINE
  8
0
 10
-6.04712
 20
145.873
 11
-6.01183
 21
145.688
  0
LINE
  8
0
 10
-6.01183
 20
145.688
 11
-6
 21
145.5
  0
LINE
  8
0
 10
-6
 20
145.5
 11
-6.01183
 21
145.312
  0
LINE
  8
0
 10
-6.01183
 20
145.312
 11
-6.04712
 21
145.127
  0
LINE
  8
0
 10
-6.04712
 20
145.127
 11
-6.10533
 21
144.948
  0
LINE
  8
0
 10
-6.10533
 20
144.948
 11
-6.18553
 21
144.777
  0
LINE
  8
0
 10
-6.18553
 20
144.777
 11
-6.28647
 21
144.618
  0
LINE
  8
0
 10
-6.28647
 20
144.618
 11
-6.40654
 21
144.473
  0
LINE
  8
0
 10
-6.40654
 20
144.473
 11
-6.54385
 21
144.344
  0
LINE
  8
0
 10
-6.54385
 20
144.344
 11
-6.69626
 21
144.234
  0
LINE
  8
0
 10
-6.69626
 20
144.234
 11
-6.86133
 21
144.143
  0
LINE
  8
0
 10
-6.86133
 20
144.143
 11
-7.03647
 21
144.073
  0
LINE
  8
0
 10
-7.03647
 20
144.073
 11
-7.21892
 21
144.027
  0
LINE
  8
0
 10
-7.21892
 20
144.027
 11
-7.40581
 21
144.003
  0
LINE
  8
0
 10
-7.40581
 20
144.003
 11
-7.59418
 21
144.003
  0
LINE
  8
0
 10
7.40581
 20
144.003
 11
7.21892
 21
144.027
  0
LINE
  8
0
 10
7.21892
 20
144.027
 11
7.03647
 21
144.073
  0
LINE
  8
0
 10
7.03647
 20
144.073
 11
6.86133
 21
144.143
  0
LINE
  8
0
 10
6.86133
 20
144.143
 11
6.69626
 21
144.234
  0
LINE
  8
0
 10
6.69626
 20
144.234
 11
6.54385
 21
144.344
  0
LINE
  8
0
 10
6.54385
 20
144.344
 11
6.40654
 21
144.473
  0
LINE
  8
0
 10
6.40654
 20
144.473
 11
6.28647
 21
144.618
  0
LINE
  8
0
 10
6.28647
 20
144.618
 11
6.18553
 21
144.777
  0
LINE
  8
0
 10
6.18553
 20
144.777
 11
6.10533
 21
144.948
  0
LINE
  8
0
 10
6.10533
 20
144.948
 11
6.04712
 21
145.127
  0
LINE
  8
0
 10
6.04712
 20
145.127
 11
6.01183
 21
145.312
  0
LINE
  8
0
 10
6.01183
 20
145.312
 11
6
 21
145.5
  0
LINE
  8
0
 10
6
 20
145.5
 11
6.01183
 21
145.688
  0
LINE
  8
0
 10
6.01183
 20
145.688
 11
6.04712
 21
145.873
  0
LINE
  8
0
 10
6.04712
 20
145.873
 11
6.10533
 21
146.052
  0
LINE
  8
0
 10
6.10533
 20
146.052
 11
6.18553
 21
146.223
  0
LINE
  8
0
 10
6.18553
 20
146.223
 11
6.28647
 21
146.382
  0
LINE
  8
0
 10
6.28647
 20
146.382
 11
6.40654
 21
146.527
  0
LINE
  8
0
 10
6.40654
 20
146.527
 11
6.54385
 21
146.656
  0
LINE
  8
0
 10
6.54385
 20
146.656
 11
6.69626
 21
146.766
  0
LINE
  8
0
 10
6.69626
 20
146.766
 11
6.86133
 21
146.857
  0
LINE
  8
0
 10
6.86133
 20
146.857
 11
7.03647
 21
146.927
  0
LINE
  8
0
 10
7.03647
 20
146.927
 11
7.21892
 21
146.973
  0
LINE
  8
0
 10
7.21892
 20
146.973
 11
7.40581
 21
146.997
  0
LINE
  8
0
 10
7.40581
 20
146.997
 11
7.59418
 21
146.997
  0
LINE
  8
0
 10
7.59418
 20
146.997
 11
7.78107
 21
146.973
  0
LINE
  8
0
 10
7.78107
 20
146.973
 11
7.96352
 21
146.927
  0
LINE
  8
0
 10
7.96352
 20
146.927
 11
8.13866
 21
146.857
  0
LINE
  8
0
 10
8.13866
 20
146.857
 11
8.30373
 21
146.766
  0
LINE
  8
0
 10
8.30373
 20
146.766
 11
8.45613
 21
146.656
  0
LINE
  8
0
 10
8.45613
 20
146.656
 11
8.59344
 21
146.527
  0
LINE
  8
0
 10
8.59344
 20
146.527
 11
8.71352
 21
146.382
  0
LINE
  8
0
 10
8.71352
 20
146.382
 11
8.81445
 21
146.223
  0
LINE
  8
0
 10
8.81445
 20
146.223
 11
8.89465
 21
146.052
  0
LINE
  8
0
 10
8.89465
 20
146.052
 11
8.95287
 21
145.873
  0
LINE
  8
0
 10
8.95287
 20
145.873
 11
8.98816
 21
145.688
  0
LINE
  8
0
 10
8.98816
 20
145.688
 11
9
 21
145.5
  0
LINE
  8
0
 10
9
 20
145.5
 11
8.98816
 21
145.312
  0
LINE
  8
0
 10
8.98816
 20
145.312
 11
8.95287
 21
145.127
  0
LINE
  8
0
 10
8.95287
 20
145.127
 11
8.89465
 21
144.948
  0
LINE
  8
0
 10
8.89465
 20
144.948
 11
8.81445
 21
144.777
  0
LINE
  8
0
 10
8.81445
 20
144.777
 11
8.71352
 21
144.618
  0
LINE
  8
0
 10
8.71352
 20
144.618
 11
8.59344
 21
144.473
  0
LINE
  8
0
 10
8.59344
 20
144.473
 11
8.45613
 21
144.344
  0
LINE
  8
0
 10
8.45613
 20
144.344
 11
8.30373
 21
144.234
  0
LINE
  8
0
 10
8.30373
 20
144.234
 11
8.13866
 21
144.143
  0
LINE
  8
0
 10
8.13866
 20
144.143
 11
7.96352
 21
144.073
  0
LINE
  8
0
 10
7.96352
 20
144.073
 11
7.78107
 21
144.027
  0
LINE
  8
0
 10
7.78107
 20
144.027
 11
7.59418
 21
144.003
  0
LINE
  8
0
 10
7.59418
 20
144.003
 11
7.40581
 21
144.003
  0
LINE
  8
0
 10
-0.194641
 20
134.906
 11
-0.580872
 21
134.955
  0
LINE
  8
0
 10
-0.580872
 20
134.955
 11
-0.957947
 21
135.052
  0
LINE
  8
0
 10
-0.957947
 20
135.052
 11
-1.3199
 21
135.195
  0
LINE
  8
0
 10
-1.3199
 20
135.195
 11
-1.66106
 21
135.383
  0
LINE
  8
0
 10
-1.66106
 20
135.383
 11
-1.97601
 21
135.611
  0
LINE
  8
0
 10
-1.97601
 20
135.611
 11
-2.2598
 21
135.878
  0
LINE
  8
0
 10
-2.2598
 20
135.878
 11
-2.50795
 21
136.178
  0
LINE
  8
0
 10
-2.50795
 20
136.178
 11
-2.71654
 21
136.507
  0
LINE
  8
0
 10
-2.71654
 20
136.507
 11
-2.88229
 21
136.859
  0
LINE
  8
0
 10
-2.88229
 20
136.859
 11
-3.00259
 21
137.229
  0
LINE
  8
0
 10
-3.00259
 20
137.229
 11
-3.07555
 21
137.611
  0
LINE
  8
0
 10
-3.07555
 20
137.611
 11
-3.09999
 21
138
  0
LINE
  8
0
 10
-3.09999
 20
138
 11
-3.07555
 21
138.389
  0
LINE
  8
0
 10
-3.07555
 20
138.389
 11
-3.00259
 21
138.771
  0
LINE
  8
0
 10
-3.00259
 20
138.771
 11
-2.88229
 21
139.141
  0
LINE
  8
0
 10
-2.88229
 20
139.141
 11
-2.71654
 21
139.493
  0
LINE
  8
0
 10
-2.71654
 20
139.493
 11
-2.50795
 21
139.822
  0
LINE
  8
0
 10
-2.50795
 20
139.822
 11
-2.2598
 21
140.122
  0
LINE
  8
0
 10
-2.2598
 20
140.122
 11
-1.97601
 21
140.389
  0
LINE
  8
0
 10
-1.97601
 20
140.389
 11
-1.66106
 21
140.617
  0
LINE
  8
0
 10
-1.66106
 20
140.617
 11
-1.3199
 21
140.805
  0
LINE
  8
0
 10
-1.3199
 20
140.805
 11
-0.957947
 21
140.948
  0
LINE
  8
0
 10
-0.957947
 20
140.948
 11
-0.580872
 21
141.045
  0
LINE
  8
0
 10
-0.580872
 20
141.045
 11
-0.194641
 21
141.094
  0
LINE
  8
0
 10
-0.194641
 20
141.094
 11
0.194641
 21
141.094
  0
LINE
  8
0
 10
0.194641
 20
141.094
 11
0.580872
 21
141.045
  0
LINE
  8
0
 10
0.580872
 20
141.045
 11
0.957947
 21
140.948
  0
LINE
  8
0
 10
0.957947
 20
140.948
 11
1.3199
 21
140.805
  0
LINE
  8
0
 10
1.3199
 20
140.805
 11
1.66106
 21
140.617
  0
LINE
  8
0
 10
1.66106
 20
140.617
 11
1.97601
 21
140.389
  0
LINE
  8
0
 10
1.97601
 20
140.389
 11
2.2598
 21
140.122
  0
LINE
  8
0
 10
2.2598
 20
140.122
 11
2.50795
 21
139.822
  0
LINE
  8
0
 10
2.50795
 20
139.822
 11
2.71654
 21
139.493
  0
LINE
  8
0
 10
2.71654
 20
139.493
 11
2.88229
 21
139.141
  0
LINE
  8
0
 10
2.88229
 20
139.141
 11
3.00259
 21
138.771
  0
LINE
  8
0
 10
3.00259
 20
138.771
 11
3.07555
 21
138.389
  0
LINE
  8
0
 10
3.07555
 20
138.389
 11
3.09999
 21
138
  0
LINE
  8
0
 10
3.09999
 20
138
 11
3.07555
 21
137.611
  0
LINE
  8
0
 10
3.07555
 20
137.611
 11
3.00259
 21
137.229
  0
LINE
  8
0
 10
3.00259
 20
137.229
 11
2.88229
 21
136.859
  0
LINE
  8
0
 10
2.88229
 20
136.859
 11
2.71654
 21
136.507
  0
LINE
  8
0
 10
2.71654
 20
136.507
 11
2.50795
 21
136.178
  0
LINE
  8
0
 10
2.50795
 20
136.178
 11
2.2598
 21
135.878
  0
LINE
  8
0
 10
2.2598
 20
135.878
 11
1.97601
 21
135.611
  0
LINE
  8
0
 10
1.97601
 20
135.611
 11
1.66106
 21
135.383
  0
LINE
  8
0
 10
1.66106
 20
135.383
 11
1.3199
 21
135.195
  0
LINE
  8
0
 10
1.3199
 20
135.195
 11
0.957947
 21
135.052
  0
LINE
  8
0
 10
0.957947
 20
135.052
 11
0.580872
 21
134.955
  0
LINE
  8
0
 10
0.580872
 20
134.955
 11
0.194641
 21
134.906
  0
LINE
  8
0
 10
0.194641
 20
134.906
 11
-0.194641
 21
134.906
  0
LINE
  8
0
 10
7.31161
 20
135.006
 11
6.93785
 21
135.053
  0
LINE
  8
0
 10
6.93785
 20
135.053
 11
6.57294
 21
135.147
  0
LINE
  8
0
 10
6.57294
 20
135.147
 11
6.22266
 21
135.286
  0
LINE
  8
0
 10
6.22266
 20
135.286
 11
5.89252
 21
135.467
  0
LINE
  8
0
 10
5.89252
 20
135.467
 11
5.58772
 21
135.688
  0
LINE
  8
0
 10
5.58772
 20
135.688
 11
5.31308
 21
135.946
  0
LINE
  8
0
 10
5.31308
 20
135.946
 11
5.07294
 21
136.237
  0
LINE
  8
0
 10
5.07294
 20
136.237
 11
4.87108
 21
136.555
  0
LINE
  8
0
 10
4.87108
 20
136.555
 11
4.71066
 21
136.896
  0
LINE
  8
0
 10
4.71066
 20
136.896
 11
4.59424
 21
137.254
  0
LINE
  8
0
 10
4.59424
 20
137.254
 11
4.52365
 21
137.624
  0
LINE
  8
0
 10
4.52365
 20
137.624
 11
4.5
 21
138
  0
LINE
  8
0
 10
4.5
 20
138
 11
4.52365
 21
138.376
  0
LINE
  8
0
 10
4.52365
 20
138.376
 11
4.59424
 21
138.746
  0
LINE
  8
0
 10
4.59424
 20
138.746
 11
4.71066
 21
139.104
  0
LINE
  8
0
 10
4.71066
 20
139.104
 11
4.87108
 21
139.445
  0
LINE
  8
0
 10
4.87108
 20
139.445
 11
5.07294
 21
139.763
  0
LINE
  8
0
 10
5.07294
 20
139.763
 11
5.31308
 21
140.054
  0
LINE
  8
0
 10
5.31308
 20
140.054
 11
5.58772
 21
140.312
  0
LINE
  8
0
 10
5.58772
 20
140.312
 11
5.89252
 21
140.533
  0
LINE
  8
0
 10
5.89252
 20
140.533
 11
6.22266
 21
140.714
  0
LINE
  8
0
 10
6.22266
 20
140.714
 11
6.57294
 21
140.853
  0
LINE
  8
0
 10
6.57294
 20
140.853
 11
6.93785
 21
140.947
  0
LINE
  8
0
 10
6.93785
 20
140.947
 11
7.31161
 21
140.994
  0
LINE
  8
0
 10
7.31161
 20
140.994
 11
7.68837
 21
140.994
  0
LINE
  8
0
 10
7.68837
 20
140.994
 11
8.06213
 21
140.947
  0
LINE
  8
0
 10
8.06213
 20
140.947
 11
8.42705
 21
140.853
  0
LINE
  8
0
 10
8.42705
 20
140.853
 11
8.77733
 21
140.714
  0
LINE
  8
0
 10
8.77733
 20
140.714
 11
9.10747
 21
140.533
  0
LINE
  8
0
 10
9.10747
 20
140.533
 11
9.41226
 21
140.312
  0
LINE
  8
0
 10
9.41226
 20
140.312
 11
9.6869
 21
140.054
  0
LINE
  8
0
 10
9.6869
 20
140.054
 11
9.92705
 21
139.763
  0
LINE
  8
0
 10
9.92705
 20
139.763
 11
10.1289
 21
139.445
  0
LINE
  8
0
 10
10.1289
 20
139.445
 11
10.2893
 21
139.104
  0
LINE
  8
0
 10
10.2893
 20
139.104
 11
10.4057
 21
138.746
  0
LINE
  8
0
 10
10.4057
 20
138.746
 11
10.4763
 21
138.376
  0
LINE
  8
0
 10
10.4763
 20
138.376
 11
10.5
 21
138
  0
LINE
  8
0
 10
10.5
 20
138
 11
10.4763
 21
137.624
  0
LINE
  8
0
 10
10.4763
 20
137.624
 11
10.4057
 21
137.254
  0
LINE
  8
0
 10
10.4057
 20
137.254
 11
10.2893
 21
136.896
  0
LINE
  8
0
 10
10.2893
 20
136.896
 11
10.1289
 21
136.555
  0
LINE
  8
0
 10
10.1289
 20
136.555
 11
9.92705
 21
136.237
  0
LINE
  8
0
 10
9.92705
 20
136.237
 11
9.6869
 21
135.946
  0
LINE
  8
0
 10
9.6869
 20
135.946
 11
9.41226
 21
135.688
  0
LINE
  8
0
 10
9.41226
 20
135.688
 11
9.10747
 21
135.467
  0
LINE
  8
0
 10
9.10747
 20
135.467
 11
8.77733
 21
135.286
  0
LINE
  8
0
 10
8.77733
 20
135.286
 11
8.42705
 21
135.147
  0
LINE
  8
0
 10
8.42705
 20
135.147
 11
8.06213
 21
135.053
  0
LINE
  8
0
 10
8.06213
 20
135.053
 11
7.68837
 21
135.006
  0
LINE
  8
0
 10
7.68837
 20
135.006
 11
7.31161
 21
135.006
  0
LINE
  8
0
 10
-7.68837
 20
135.006
 11
-8.06213
 21
135.053
  0
LINE
  8
0
 10
-8.06213
 20
135.053
 11
-8.42705
 21
135.147
  0
LINE
  8
0
 10
-8.42705
 20
135.147
 11
-8.77733
 21
135.286
  0
LINE
  8
0
 10
-8.77733
 20
135.286
 11
-9.10747
 21
135.467
  0
LINE
  8
0
 10
-9.10747
 20
135.467
 11
-9.41226
 21
135.688
  0
LINE
  8
0
 10
-9.41226
 20
135.688
 11
-9.6869
 21
135.946
  0
LINE
  8
0
 10
-9.6869
 20
135.946
 11
-9.92705
 21
136.237
  0
LINE
  8
0
 10
-9.92705
 20
136.237
 11
-10.1289
 21
136.555
  0
LINE
  8
0
 10
-10.1289
 20
136.555
 11
-10.2893
 21
136.896
  0
LINE
  8
0
 10
-10.2893
 20
136.896
 11
-10.4057
 21
137.254
  0
LINE
  8
0
 10
-10.4057
 20
137.254
 11
-10.4763
 21
137.624
  0
LINE
  8
0
 10
-10.4763
 20
137.624
 11
-10.5
 21
138
  0
LINE
  8
0
 10
-10.5
 20
138
 11
-10.4763
 21
138.376
  0
LINE
  8
0
 10
-10.4763
 20
138.376
 11
-10.4057
 21
138.746
  0
LINE
  8
0
 10
-10.4057
 20
138.746
 11
-10.2893
 21
139.104
  0
LINE
  8
0
 10
-10.2893
 20
139.104
 11
-10.1289
 21
139.445
  0
LINE
  8
0
 10
-10.1289
 20
139.445
 11
-9.92705
 21
139.763
  0
LINE
  8
0
 10
-9.92705
 20
139.763
 11
-9.6869
 21
140.054
  0
LINE
  8
0
 10
-9.6869
 20
140.054
 11
-9.41226
 21
140.312
  0
LINE
  8
0
 10
-9.41226
 20
140.312
 11
-9.10747
 21
140.533
  0
LINE
  8
0
 10
-9.10747
 20
140.533
 11
-8.77733
 21
140.714
  0
LINE
  8
0
 10
-8.77733
 20
140.714
 11
-8.42705
 21
140.853
  0
LINE
  8
0
 10
-8.42705
 20
140.853
 11
-8.06213
 21
140.947
  0
LINE
  8
0
 10
-8.06213
 20
140.947
 11
-7.68837
 21
140.994
  0
LINE
  8
0
 10
-7.68837
 20
140.994
 11
-7.31161
 21
140.994
  0
LINE
  8
0
 10
-7.31161
 20
140.994
 11
-6.93785
 21
140.947
  0
LINE
  8
0
 10
-6.93785
 20
140.947
 11
-6.57294
 21
140.853
  0
LINE
  8
0
 10
-6.57294
 20
140.853
 11
-6.22266
 21
140.714
  0
LINE
  8
0
 10
-6.22266
 20
140.714
 11
-5.89252
 21
140.533
  0
LINE
  8
0
 10
-5.89252
 20
140.533
 11
-5.58772
 21
140.312
  0
LINE
  8
0
 10
-5.58772
 20
140.312
 11
-5.31308
 21
140.054
  0
LINE
  8
0
 10
-5.31308
 20
140.054
 11
-5.07294
 21
139.763
  0
LINE
  8
0
 10
-5.07294
 20
139.763
 11
-4.87108
 21
139.445
  0
LINE
  8
0
 10
-4.87108
 20
139.445
 11
-4.71066
 21
139.104
  0
LINE
  8
0
 10
-4.71066
 20
139.104
 11
-4.59424
 21
138.746
  0
LINE
  8
0
 10
-4.59424
 20
138.746
 11
-4.52365
 21
138.376
  0
LINE
  8
0
 10
-4.52365
 20
138.376
 11
-4.5
 21
138
  0
LINE
  8
0
 10
-4.5
 20
138
 11
-4.52365
 21
137.624
  0
LINE
  8
0
 10
-4.52365
 20
137.624
 11
-4.59424
 21
137.254
  0
LINE
  8
0
 10
-4.59424
 20
137.254
 11
-4.71066
 21
136.896
  0
LINE
  8
0
 10
-4.71066
 20
136.896
 11
-4.87108
 21
136.555
  0
LINE
  8
0
 10
-4.87108
 20
136.555
 11
-5.07294
 21
136.237
  0
LINE
  8
0
 10
-5.07294
 20
136.237
 11
-5.31308
 21
135.946
  0
LINE
  8
0
 10
-5.31308
 20
135.946
 11
-5.58772
 21
135.688
  0
LINE
  8
0
 10
-5.58772
 20
135.688
 11
-5.89252
 21
135.467
  0
LINE
  8
0
 10
-5.89252
 20
135.467
 11
-6.22266
 21
135.286
  0
LINE
  8
0
 10
-6.22266
 20
135.286
 11
-6.57294
 21
135.147
  0
LINE
  8
0
 10
-6.57294
 20
135.147
 11
-6.93785
 21
135.053
  0
LINE
  8
0
 10
-6.93785
 20
135.053
 11
-7.31161
 21
135.006
  0
LINE
  8
0
 10
-7.31161
 20
135.006
 11
-7.68837
 21
135.006
  0
LINE
  8
0
 10
10.4369
 20
47.0886
 11
11.0451
 21
47.2447
  0
LINE
  8
0
 10
11.0451
 20
47.2447
 11
11.6289
 21
47.4759
  0
LINE
  8
0
 10
11.6289
 20
47.4759
 11
12.1791
 21
47.7784
  0
LINE
  8
0
 10
12.1791
 20
47.7784
 11
12.6871
 21
48.1474
  0
LINE
  8
0
 10
12.6871
 20
48.1474
 11
13.1448
 21
48.5773
  0
LINE
  8
0
 10
13.1448
 20
48.5773
 11
13.5451
 21
49.0611
  0
LINE
  8
0
 10
13.5451
 20
49.0611
 11
13.8815
 21
49.5912
  0
LINE
  8
0
 10
13.8815
 20
49.5912
 11
14.1489
 21
50.1594
  0
LINE
  8
0
 10
14.1489
 20
50.1594
 11
14.3429
 21
50.7566
  0
LINE
  8
0
 10
14.3429
 20
50.7566
 11
14.4606
 21
51.3733
  0
LINE
  8
0
 10
14.4606
 20
51.3733
 11
14.5
 21
52
  0
LINE
  8
0
 10
14.5
 20
52
 11
14.5
 21
116
  0
LINE
  8
0
 10
14.5
 20
116
 11
14.4606
 21
116.627
  0
LINE
  8
0
 10
14.4606
 20
116.627
 11
14.3429
 21
117.243
  0
LINE
  8
0
 10
14.3429
 20
117.243
 11
14.1489
 21
117.841
  0
LINE
  8
0
 10
14.1489
 20
117.841
 11
13.8815
 21
118.409
  0
LINE
  8
0
 10
13.8815
 20
118.409
 11
13.5451
 21
118.939
  0
LINE
  8
0
 10
13.5451
 20
118.939
 11
13.1448
 21
119.423
  0
LINE
  8
0
 10
13.1448
 20
119.423
 11
12.6871
 21
119.853
  0
LINE
  8
0
 10
12.6871
 20
119.853
 11
12.1791
 21
120.222
  0
LINE
  8
0
 10
12.1791
 20
120.222
 11
11.6289
 21
120.524
  0
LINE
  8
0
 10
11.6289
 20
120.524
 11
11.0451
 21
120.755
  0
LINE
  8
0
 10
11.0451
 20
120.755
 11
10.4369
 21
120.911
  0
LINE
  8
0
 10
10.4369
 20
120.911
 11
9.81395
 21
120.99
  0
LINE
  8
0
 10
9.81395
 20
120.99
 11
-9.81395
 21
120.99
  0
LINE
  8
0
 10
-9.81395
 20
120.99
 11
-10.4369
 21
120.911
  0
LINE
  8
0
 10
-10.4369
 20
120.911
 11
-11.0451
 21
120.755
  0
LINE
  8
0
 10
-11.0451
 20
120.755
 11
-11.6289
 21
120.524
  0
LINE
  8
0
 10
-11.6289
 20
120.524
 11
-12.1791
 21
120.222
  0
LINE
  8
0
 10
-12.1791
 20
120.222
 11
-12.6871
 21
119.853
  0
LINE
  8
0
 10
-12.6871
 20
119.853
 11
-13.1448
 21
119.423
  0
LINE
  8
0
 10
-13.1448
 20
119.423
 11
-13.5451
 21
118.939
  0
LINE
  8
0
 10
-13.5451
 20
118.939
 11
-13.8815
 21
118.409
  0
LINE
  8
0
 10
-13.8815
 20
118.409
 11
-14.1489
 21
117.841
  0
LINE
  8
0
 10
-14.1489
 20
117.841
 11
-14.3429
 21
117.243
  0
LINE
  8
0
 10
-14.3429
 20
117.243
 11
-14.4606
 21
116.627
  0
LINE
  8
0
 10
-14.4606
 20
116.627
 11
-14.5
 21
116
  0
LINE
  8
0
 10
-14.5
 20
116
 11
-14.5
 21
52
  0
LINE
  8
0
 10
-14.5
 20
52
 11
-14.4606
 21
51.3733
  0
LINE
  8
0
 10
-14.4606
 20
51.3733
 11
-14.3429
 21
50.7566
  0
LINE
  8
0
 10
-14.3429
 20
50.7566
 11
-14.1489
 21
50.1594
  0
LINE
  8
0
 10
-14.1489
 20
50.1594
 11
-13.8815
 21
49.5912
  0
LINE
  8
0
 10
-13.8815
 20
49.5912
 11
-13.5451
 21
49.0611
  0
LINE
  8
0
 10
-13.5451
 20
49.0611
 11
-13.1448
 21
48.5773
  0
LINE
  8
0
 10
-13.1448
 20
48.5773
 11
-12.6871
 21
48.1474
  0
LINE
  8
0
 10
-12.6871
 20
48.1474
 11
-12.1791
 21
47.7784
  0
LINE
  8
0
 10
-12.1791
 20
47.7784
 11
-11.6289
 21
47.4759
  0
LINE
  8
0
 10
-11.6289
 20
47.4759
 11
-11.0451
 21
47.2447
  0
LINE
  8
0
 10
-11.0451
 20
47.2447
 11
-10.4369
 21
47.0886
  0
LINE
  8
0
 10
-10.4369
 20
47.0886
 11
-9.81395
 21
47.0099
  0
LINE
  8
0
 10
-9.81395
 20
47.0099
 11
9.81395
 21
47.0099
  0
LINE
  8
0
 10
9.81395
 20
47.0099
 11
10.4369
 21
47.0886
  0
LINE
  8
0
 10
7.31161
 20
111.006
 11
6.93785
 21
111.053
  0
LINE
  8
0
 10
6.93785
 20
111.053
 11
6.57294
 21
111.147
  0
LINE
  8
0
 10
6.57294
 20
111.147
 11
6.22266
 21
111.286
  0
LINE
  8
0
 10
6.22266
 20
111.286
 11
5.89252
 21
111.467
  0
LINE
  8
0
 10
5.89252
 20
111.467
 11
5.58772
 21
111.688
  0
LINE
  8
0
 10
5.58772
 20
111.688
 11
5.31308
 21
111.946
  0
LINE
  8
0
 10
5.31308
 20
111.946
 11
5.07294
 21
112.237
  0
LINE
  8
0
 10
5.07294
 20
112.237
 11
4.87108
 21
112.555
  0
LINE
  8
0
 10
4.87108
 20
112.555
 11
4.71066
 21
112.896
  0
LINE
  8
0
 10
4.71066
 20
112.896
 11
4.59424
 21
113.254
  0
LINE
  8
0
 10
4.59424
 20
113.254
 11
4.52365
 21
113.624
  0
LINE
  8
0
 10
4.52365
 20
113.624
 11
4.5
 21
114
  0
LINE
  8
0
 10
4.5
 20
114
 11
4.52365
 21
114.376
  0
LINE
  8
0
 10
4.52365
 20
114.376
 11
4.59424
 21
114.746
  0
LINE
  8
0
 10
4.59424
 20
114.746
 11
4.71066
 21
115.104
  0
LINE
  8
0
 10
4.71066
 20
115.104
 11
4.87108
 21
115.445
  0
LINE
  8
0
 10
4.87108
 20
115.445
 11
5.07294
 21
115.763
  0
LINE
  8
0
 10
5.07294
 20
115.763
 11
5.31308
 21
116.054
  0
LINE
  8
0
 10
5.31308
 20
116.054
 11
5.58772
 21
116.312
  0
LINE
  8
0
 10
5.58772
 20
116.312
 11
5.89252
 21
116.533
  0
LINE
  8
0
 10
5.89252
 20
116.533
 11
6.22266
 21
116.714
  0
LINE
  8
0
 10
6.22266
 20
116.714
 11
6.57294
 21
116.853
  0
LINE
  8
0
 10
6.57294
 20
116.853
 11
6.93785
 21
116.947
  0
LINE
  8
0
 10
6.93785
 20
116.947
 11
7.31161
 21
116.994
  0
LINE
  8
0
 10
7.31161
 20
116.994
 11
7.68837
 21
116.994
  0
LINE
  8
0
 10
7.68837
 20
116.994
 11
8.06213
 21
116.947
  0
LINE
  8
0
 10
8.06213
 20
116.947
 11
8.42705
 21
116.853
  0
LINE
  8
0
 10
8.42705
 20
116.853
 11
8.77733
 21
116.714
  0
LINE
  8
0
 10
8.77733
 20
116.714
 11
9.10747
 21
116.533
  0
LINE
  8
0
 10
9.10747
 20
116.533
 11
9.41226
 21
116.312
  0
LINE
  8
0
 10
9.41226
 20
116.312
 11
9.6869
 21
116.054
  0
LINE
  8
0
 10
9.6869
 20
116.054
 11
9.92705
 21
115.763
  0
LINE
  8
0
 10
9.92705
 20
115.763
 11
10.1289
 21
115.445
  0
LINE
  8
0
 10
10.1289
 20
115.445
 11
10.2893
 21
115.104
  0
LINE
  8
0
 10
10.2893
 20
115.104
 11
10.4057
 21
114.746
  0
LINE
  8
0
 10
10.4057
 20
114.746
 11
10.4763
 21
114.376
  0
LINE
  8
0
 10
10.4763
 20
114.376
 11
10.5
 21
114
  0
LINE
  8
0
 10
10.5
 20
114
 11
10.4763
 21
113.624
  0
LINE
  8
0
 10
10.4763
 20
113.624
 11
10.4057
 21
113.254
  0
LINE
  8
0
 10
10.4057
 20
113.254
 11
10.2893
 21
112.896
  0
LINE
  8
0
 10
10.2893
 20
112.896
 11
10.1289
 21
112.555
  0
LINE
  8
0
 10
10.1289
 20
112.555
 11
9.92705
 21
112.237
  0
LINE
  8
0
 10
9.92705
 20
112.237
 11
9.6869
 21
111.946
  0
LINE
  8
0
 10
9.6869
 20
111.946
 11
9.41226
 21
111.688
  0
LINE
  8
0
 10
9.41226
 20
111.688
 11
9.10747
 21
111.467
  0
LINE
  8
0
 10
9.10747
 20
111.467
 11
8.77733
 21
111.286
  0
LINE
  8
0
 10
8.77733
 20
111.286
 11
8.42705
 21
111.147
  0
LINE
  8
0
 10
8.42705
 20
111.147
 11
8.06213
 21
111.053
  0
LINE
  8
0
 10
8.06213
 20
111.053
 11
7.68837
 21
111.006
  0
LINE
  8
0
 10
7.68837
 20
111.006
 11
7.31161
 21
111.006
  0
LINE
  8
0
 10
-7.68837
 20
111.006
 11
-8.06213
 21
111.053
  0
LINE
  8
0
 10
-8.06213
 20
111.053
 11
-8.42705
 21
111.147
  0
LINE
  8
0
 10
-8.42705
 20
111.147
 11
-8.77733
 21
111.286
  0
LINE
  8
0
 10
-8.77733
 20
111.286
 11
-9.10747
 21
111.467
  0
LINE
  8
0
 10
-9.10747
 20
111.467
 11
-9.41226
 21
111.688
  0
LINE
  8
0
 10
-9.41226
 20
111.688
 11
-9.6869
 21
111.946
  0
LINE
  8
0
 10
-9.6869
 20
111.946
 11
-9.92705
 21
112.237
  0
LINE
  8
0
 10
-9.92705
 20
112.237
 11
-10.1289
 21
112.555
  0
LINE
  8
0
 10
-10.1289
 20
112.555
 11
-10.2893
 21
112.896
  0
LINE
  8
0
 10
-10.2893
 20
112.896
 11
-10.4057
 21
113.254
  0
LINE
  8
0
 10
-10.4057
 20
113.254
 11
-10.4763
 21
113.624
  0
LINE
  8
0
 10
-10.4763
 20
113.624
 11
-10.5
 21
114
  0
LINE
  8
0
 10
-10.5
 20
114
 11
-10.4763
 21
114.376
  0
LINE
  8
0
 10
-10.4763
 20
114.376
 11
-10.4057
 21
114.746
  0
LINE
  8
0
 10
-10.4057
 20
114.746
 11
-10.2893
 21
115.104
  0
LINE
  8
0
 10
-10.2893
 20
115.104
 11
-10.1289
 21
115.445
  0
LINE
  8
0
 10
-10.1289
 20
115.445
 11
-9.92705
 21
115.763
  0
LINE
  8
0
 10
-9.92705
 20
115.763
 11
-9.6869
 21
116.054
  0
LINE
  8
0
 10
-9.6869
 20
116.054
 11
-9.41226
 21
116.312
  0
LINE
  8
0
 10
-9.41226
 20
116.312
 11
-9.10747
 21
116.533
  0
LINE
  8
0
 10
-9.10747
 20
116.533
 11
-8.77733
 21
116.714
  0
LINE
  8
0
 10
-8.77733
 20
116.714
 11
-8.42705
 21
116.853
  0
LINE
  8
0
 10
-8.42705
 20
116.853
 11
-8.06213
 21
116.947
  0
LINE
  8
0
 10
-8.06213
 20
116.947
 11
-7.68837
 21
116.994
  0
LINE
  8
0
 10
-7.68837
 20
116.994
 11
-7.31161
 21
116.994
  0
LINE
  8
0
 10
-7.31161
 20
116.994
 11
-6.93785
 21
116.947
  0
LINE
  8
0
 10
-6.93785
 20
116.947
 11
-6.57294
 21
116.853
  0
LINE
  8
0
 10
-6.57294
 20
116.853
 11
-6.22266
 21
116.714
  0
LINE
  8
0
 10
-6.22266
 20
116.714
 11
-5.89252
 21
116.533
  0
LINE
  8
0
 10
-5.89252
 20
116.533
 11
-5.58772
 21
116.312
  0
LINE
  8
0
 10
-5.58772
 20
116.312
 11
-5.31308
 21
116.054
  0
LINE
  8
0
 10
-5.31308
 20
116.054
 11
-5.07294
 21
115.763
  0
LINE
  8
0
 10
-5.07294
 20
115.763
 11
-4.87108
 21
115.445
  0
LINE
  8
0
 10
-4.87108
 20
115.445
 11
-4.71066
 21
115.104
  0
LINE
  8
0
 10
-4.71066
 20
115.104
 11
-4.59424
 21
114.746
  0
LINE
  8
0
 10
-4.59424
 20
114.746
 11
-4.52365
 21
114.376
  0
LINE
  8
0
 10
-4.52365
 20
114.376
 11
-4.5
 21
114
  0
LINE
  8
0
 10
-4.5
 20
114
 11
-4.52365
 21
113.624
  0
LINE
  8
0
 10
-4.52365
 20
113.624
 11
-4.59424
 21
113.254
  0
LINE
  8
0
 10
-4.59424
 20
113.254
 11
-4.71066
 21
112.896
  0
LINE
  8
0
 10
-4.71066
 20
112.896
 11
-4.87108
 21
112.555
  0
LINE
  8
0
 10
-4.87108
 20
112.555
 11
-5.07294
 21
112.237
  0
LINE
  8
0
 10
-5.07294
 20
112.237
 11
-5.31308
 21
111.946
  0
LINE
  8
0
 10
-5.31308
 20
111.946
 11
-5.58772
 21
111.688
  0
LINE
  8
0
 10
-5.58772
 20
111.688
 11
-5.89252
 21
111.467
  0
LINE
  8
0
 10
-5.89252
 20
111.467
 11
-6.22266
 21
111.286
  0
LINE
  8
0
 10
-6.22266
 20
111.286
 11
-6.57294
 21
111.147
  0
LINE
  8
0
 10
-6.57294
 20
111.147
 11
-6.93785
 21
111.053
  0
LINE
  8
0
 10
-6.93785
 20
111.053
 11
-7.31161
 21
111.006
  0
LINE
  8
0
 10
-7.31161
 20
111.006
 11
-7.68837
 21
111.006
  0
LINE
  8
0
 10
-0.133423
 20
111.879
 11
-0.398178
 21
111.913
  0
LINE
  8
0
 10
-0.398178
 20
111.913
 11
-0.656647
 21
111.979
  0
LINE
  8
0
 10
-0.656647
 20
111.979
 11
-0.90477
 21
112.077
  0
LINE
  8
0
 10
-0.90477
 20
112.077
 11
-1.13863
 21
112.206
  0
LINE
  8
0
 10
-1.13863
 20
112.206
 11
-1.35452
 21
112.363
  0
LINE
  8
0
 10
-1.35452
 20
112.363
 11
-1.54906
 21
112.545
  0
LINE
  8
0
 10
-1.54906
 20
112.545
 11
-1.71915
 21
112.751
  0
LINE
  8
0
 10
-1.71915
 20
112.751
 11
-1.86214
 21
112.976
  0
LINE
  8
0
 10
-1.86214
 20
112.976
 11
-1.97577
 21
113.218
  0
LINE
  8
0
 10
-1.97577
 20
113.218
 11
-2.05823
 21
113.472
  0
LINE
  8
0
 10
-2.05823
 20
113.472
 11
-2.10823
 21
113.734
  0
LINE
  8
0
 10
-2.10823
 20
113.734
 11
-2.125
 21
114
  0
LINE
  8
0
 10
-2.125
 20
114
 11
-2.10823
 21
114.266
  0
LINE
  8
0
 10
-2.10823
 20
114.266
 11
-2.05823
 21
114.528
  0
LINE
  8
0
 10
-2.05823
 20
114.528
 11
-1.97577
 21
114.782
  0
LINE
  8
0
 10
-1.97577
 20
114.782
 11
-1.86214
 21
115.024
  0
LINE
  8
0
 10
-1.86214
 20
115.024
 11
-1.71915
 21
115.249
  0
LINE
  8
0
 10
-1.71915
 20
115.249
 11
-1.54906
 21
115.455
  0
LINE
  8
0
 10
-1.54906
 20
115.455
 11
-1.35452
 21
115.637
  0
LINE
  8
0
 10
-1.35452
 20
115.637
 11
-1.13863
 21
115.794
  0
LINE
  8
0
 10
-1.13863
 20
115.794
 11
-0.90477
 21
115.923
  0
LINE
  8
0
 10
-0.90477
 20
115.923
 11
-0.656647
 21
116.021
  0
LINE
  8
0
 10
-0.656647
 20
116.021
 11
-0.398178
 21
116.087
  0
LINE
  8
0
 10
-0.398178
 20
116.087
 11
-0.133423
 21
116.121
  0
LINE
  8
0
 10
-0.133423
 20
116.121
 11
0.133423
 21
116.121
  0
LINE
  8
0
 10
0.133423
 20
116.121
 11
0.398178
 21
116.087
  0
LINE
  8
0
 10
0.398178
 20
116.087
 11
0.656647
 21
116.021
  0
LINE
  8
0
 10
0.656647
 20
116.021
 11
0.90477
 21
115.923
  0
LINE
  8
0
 10
0.90477
 20
115.923
 11
1.13863
 21
115.794
  0
LINE
  8
0
 10
1.13863
 20
115.794
 11
1.35452
 21
115.637
  0
LINE
  8
0
 10
1.35452
 20
115.637
 11
1.54906
 21
115.455
  0
LINE
  8
0
 10
1.54906
 20
115.455
 11
1.71915
 21
115.249
  0
LINE
  8
0
 10
1.71915
 20
115.249
 11
1.86214
 21
115.024
  0
LINE
  8
0
 10
1.86214
 20
115.024
 11
1.97577
 21
114.782
  0
LINE
  8
0
 10
1.97577
 20
114.782
 11
2.05823
 21
114.528
  0
LINE
  8
0
 10
2.05823
 20
114.528
 11
2.10823
 21
114.266
  0
LINE
  8
0
 10
2.10823
 20
114.266
 11
2.125
 21
114
  0
LINE
  8
0
 10
2.125
 20
114
 11
2.10823
 21
113.734
  0
LINE
  8
0
 10
2.10823
 20
113.734
 11
2.05823
 21
113.472
  0
LINE
  8
0
 10
2.05823
 20
113.472
 11
1.97577
 21
113.218
  0
LINE
  8
0
 10
1.97577
 20
113.218
 11
1.86214
 21
112.976
  0
LINE
  8
0
 10
1.86214
 20
112.976
 11
1.71915
 21
112.751
  0
LINE
  8
0
 10
1.71915
 20
112.751
 11
1.54906
 21
112.545
  0
LINE
  8
0
 10
1.54906
 20
112.545
 11
1.35452
 21
112.363
  0
LINE
  8
0
 10
1.35452
 20
112.363
 11
1.13863
 21
112.206
  0
LINE
  8
0
 10
1.13863
 20
112.206
 11
0.90477
 21
112.077
  0
LINE
  8
0
 10
0.90477
 20
112.077
 11
0.656647
 21
111.979
  0
LINE
  8
0
 10
0.656647
 20
111.979
 11
0.398178
 21
111.913
  0
LINE
  8
0
 10
0.398178
 20
111.913
 11
0.133423
 21
111.879
  0
LINE
  8
0
 10
0.133423
 20
111.879
 11
-0.133423
 21
111.879
  0
LINE
  8
0
 10
-1.58675
 20
103.752
 11
-3.17349
 21
106.5
  0
LINE
  8
0
 10
-3.17349
 20
106.5
 11
-1.58675
 21
109.248
  0
LINE
  8
0
 10
-1.58675
 20
109.248
 11
1.58675
 21
109.248
  0
LINE
  8
0
 10
1.58675
 20
109.248
 11
3.17349
 21
106.5
  0
LINE
  8
0
 10
3.17349
 20
106.5
 11
1.58675
 21
103.752
  0
LINE
  8
0
 10
1.58675
 20
103.752
 11
-1.58675
 21
103.752
  0
LINE
  8
0
 10
-7.59418
 20
105.003
 11
-7.78107
 21
105.027
  0
LINE
  8
0
 10
-7.78107
 20
105.027
 11
-7.96352
 21
105.073
  0
LINE
  8
0
 10
-7.96352
 20
105.073
 11
-8.13866
 21
105.143
  0
LINE
  8
0
 10
-8.13866
 20
105.143
 11
-8.30373
 21
105.234
  0
LINE
  8
0
 10
-8.30373
 20
105.234
 11
-8.45613
 21
105.344
  0
LINE
  8
0
 10
-8.45613
 20
105.344
 11
-8.59344
 21
105.473
  0
LINE
  8
0
 10
-8.59344
 20
105.473
 11
-8.71352
 21
105.618
  0
LINE
  8
0
 10
-8.71352
 20
105.618
 11
-8.81445
 21
105.777
  0
LINE
  8
0
 10
-8.81445
 20
105.777
 11
-8.89465
 21
105.948
  0
LINE
  8
0
 10
-8.89465
 20
105.948
 11
-8.95287
 21
106.127
  0
LINE
  8
0
 10
-8.95287
 20
106.127
 11
-8.98816
 21
106.312
  0
LINE
  8
0
 10
-8.98816
 20
106.312
 11
-9
 21
106.5
  0
LINE
  8
0
 10
-9
 20
106.5
 11
-8.98816
 21
106.688
  0
LINE
  8
0
 10
-8.98816
 20
106.688
 11
-8.95287
 21
106.873
  0
LINE
  8
0
 10
-8.95287
 20
106.873
 11
-8.89465
 21
107.052
  0
LINE
  8
0
 10
-8.89465
 20
107.052
 11
-8.81445
 21
107.223
  0
LINE
  8
0
 10
-8.81445
 20
107.223
 11
-8.71352
 21
107.382
  0
LINE
  8
0
 10
-8.71352
 20
107.382
 11
-8.59344
 21
107.527
  0
LINE
  8
0
 10
-8.59344
 20
107.527
 11
-8.45613
 21
107.656
  0
LINE
  8
0
 10
-8.45613
 20
107.656
 11
-8.30373
 21
107.766
  0
LINE
  8
0
 10
-8.30373
 20
107.766
 11
-8.13866
 21
107.857
  0
LINE
  8
0
 10
-8.13866
 20
107.857
 11
-7.96352
 21
107.927
  0
LINE
  8
0
 10
-7.96352
 20
107.927
 11
-7.78107
 21
107.973
  0
LINE
  8
0
 10
-7.78107
 20
107.973
 11
-7.59418
 21
107.997
  0
LINE
  8
0
 10
-7.59418
 20
107.997
 11
-7.40581
 21
107.997
  0
LINE
  8
0
 10
-7.40581
 20
107.997
 11
-7.21892
 21
107.973
  0
LINE
  8
0
 10
-7.21892
 20
107.973
 11
-7.03647
 21
107.927
  0
LINE
  8
0
 10
-7.03647
 20
107.927
 11
-6.86133
 21
107.857
  0
LINE
  8
0
 10
-6.86133
 20
107.857
 11
-6.69626
 21
107.766
  0
LINE
  8
0
 10
-6.69626
 20
107.766
 11
-6.54385
 21
107.656
  0
LINE
  8
0
 10
-6.54385
 20
107.656
 11
-6.40654
 21
107.527
  0
LINE
  8
0
 10
-6.40654
 20
107.527
 11
-6.28647
 21
107.382
  0
LINE
  8
0
 10
-6.28647
 20
107.382
 11
-6.18553
 21
107.223
  0
LINE
  8
0
 10
-6.18553
 20
107.223
 11
-6.10533
 21
107.052
  0
LINE
  8
0
 10
-6.10533
 20
107.052
 11
-6.04712
 21
106.873
  0
LINE
  8
0
 10
-6.04712
 20
106.873
 11
-6.01183
 21
106.688
  0
LINE
  8
0
 10
-6.01183
 20
106.688
 11
-6
 21
106.5
  0
LINE
  8
0
 10
-6
 20
106.5
 11
-6.01183
 21
106.312
  0
LINE
  8
0
 10
-6.01183
 20
106.312
 11
-6.04712
 21
106.127
  0
LINE
  8
0
 10
-6.04712
 20
106.127
 11
-6.10533
 21
105.948
  0
LINE
  8
0
 10
-6.10533
 20
105.948
 11
-6.18553
 21
105.777
  0
LINE
  8
0
 10
-6.18553
 20
105.777
 11
-6.28647
 21
105.618
  0
LINE
  8
0
 10
-6.28647
 20
105.618
 11
-6.40654
 21
105.473
  0
LINE
  8
0
 10
-6.40654
 20
105.473
 11
-6.54385
 21
105.344
  0
LINE
  8
0
 10
-6.54385
 20
105.344
 11
-6.69626
 21
105.234
  0
LINE
  8
0
 10
-6.69626
 20
105.234
 11
-6.86133
 21
105.143
  0
LINE
  8
0
 10
-6.86133
 20
105.143
 11
-7.03647
 21
105.073
  0
LINE
  8
0
 10
-7.03647
 20
105.073
 11
-7.21892
 21
105.027
  0
LINE
  8
0
 10
-7.21892
 20
105.027
 11
-7.40581
 21
105.003
  0
LINE
  8
0
 10
-7.40581
 20
105.003
 11
-7.59418
 21
105.003
  0
LINE
  8
0
 10
7.40581
 20
105.003
 11
7.21892
 21
105.027
  0
LINE
  8
0
 10
7.21892
 20
105.027
 11
7.03647
 21
105.073
  0
LINE
  8
0
 10
7.03647
 20
105.073
 11
6.86133
 21
105.143
  0
LINE
  8
0
 10
6.86133
 20
105.143
 11
6.69626
 21
105.234
  0
LINE
  8
0
 10
6.69626
 20
105.234
 11
6.54385
 21
105.344
  0
LINE
  8
0
 10
6.54385
 20
105.344
 11
6.40654
 21
105.473
  0
LINE
  8
0
 10
6.40654
 20
105.473
 11
6.28647
 21
105.618
  0
LINE
  8
0
 10
6.28647
 20
105.618
 11
6.18553
 21
105.777
  0
LINE
  8
0
 10
6.18553
 20
105.777
 11
6.10533
 21
105.948
  0
LINE
  8
0
 10
6.10533
 20
105.948
 11
6.04712
 21
106.127
  0
LINE
  8
0
 10
6.04712
 20
106.127
 11
6.01183
 21
106.312
  0
LINE
  8
0
 10
6.01183
 20
106.312
 11
6
 21
106.5
  0
LINE
  8
0
 10
6
 20
106.5
 11
6.01183
 21
106.688
  0
LINE
  8
0
 10
6.01183
 20
106.688
 11
6.04712
 21
106.873
  0
LINE
  8
0
 10
6.04712
 20
106.873
 11
6.10533
 21
107.052
  0
LINE
  8
0
 10
6.10533
 20
107.052
 11
6.18553
 21
107.223
  0
LINE
  8
0
 10
6.18553
 20
107.223
 11
6.28647
 21
107.382
  0
LINE
  8
0
 10
6.28647
 20
107.382
 11
6.40654
 21
107.527
  0
LINE
  8
0
 10
6.40654
 20
107.527
 11
6.54385
 21
107.656
  0
LINE
  8
0
 10
6.54385
 20
107.656
 11
6.69626
 21
107.766
  0
LINE
  8
0
 10
6.69626
 20
107.766
 11
6.86133
 21
107.857
  0
LINE
  8
0
 10
6.86133
 20
107.857
 11
7.03647
 21
107.927
  0
LINE
  8
0
 10
7.03647
 20
107.927
 11
7.21892
 21
107.973
  0
LINE
  8
0
 10
7.21892
 20
107.973
 11
7.40581
 21
107.997
  0
LINE
  8
0
 10
7.40581
 20
107.997
 11
7.59418
 21
107.997
  0
LINE
  8
0
 10
7.59418
 20
107.997
 11
7.78107
 21
107.973
  0
LINE
  8
0
 10
7.78107
 20
107.973
 11
7.96352
 21
107.927
  0
LINE
  8
0
 10
7.96352
 20
107.927
 11
8.13866
 21
107.857
  0
LINE
  8
0
 10
8.13866
 20
107.857
 11
8.30373
 21
107.766
  0
LINE
  8
0
 10
8.30373
 20
107.766
 11
8.45613
 21
107.656
  0
LINE
  8
0
 10
8.45613
 20
107.656
 11
8.59344
 21
107.527
  0
LINE
  8
0
 10
8.59344
 20
107.527
 11
8.71352
 21
107.382
  0
LINE
  8
0
 10
8.71352
 20
107.382
 11
8.81445
 21
107.223
  0
LINE
  8
0
 10
8.81445
 20
107.223
 11
8.89465
 21
107.052
  0
LINE
  8
0
 10
8.89465
 20
107.052
 11
8.95287
 21
106.873
  0
LINE
  8
0
 10
8.95287
 20
106.873
 11
8.98816
 21
106.688
  0
LINE
  8
0
 10
8.98816
 20
106.688
 11
9
 21
106.5
  0
LINE
  8
0
 10
9
 20
106.5
 11
8.98816
 21
106.312
  0
LINE
  8
0
 10
8.98816
 20
106.312
 11
8.95287
 21
106.127
  0
LINE
  8
0
 10
8.95287
 20
106.127
 11
8.89465
 21
105.948
  0
LINE
  8
0
 10
8.89465
 20
105.948
 11
8.81445
 21
105.777
  0
LINE
  8
0
 10
8.81445
 20
105.777
 11
8.71352
 21
105.618
  0
LINE
  8
0
 10
8.71352
 20
105.618
 11
8.59344
 21
105.473
  0
LINE
  8
0
 10
8.59344
 20
105.473
 11
8.45613
 21
105.344
  0
LINE
  8
0
 10
8.45613
 20
105.344
 11
8.30373
 21
105.234
  0
LINE
  8
0
 10
8.30373
 20
105.234
 11
8.13866
 21
105.143
  0
LINE
  8
0
 10
8.13866
 20
105.143
 11
7.96352
 21
105.073
  0
LINE
  8
0
 10
7.96352
 20
105.073
 11
7.78107
 21
105.027
  0
LINE
  8
0
 10
7.78107
 20
105.027
 11
7.59418
 21
105.003
  0
LINE
  8
0
 10
7.59418
 20
105.003
 11
7.40581
 21
105.003
  0
LINE
  8
0
 10
-1.58675
 20
58.7517
 11
-3.17349
 21
61.5
  0
LINE
  8
0
 10
-3.17349
 20
61.5
 11
-1.58675
 21
64.2483
  0
LINE
  8
0
 10
-1.58675
 20
64.2483
 11
1.58675
 21
64.2483
  0
LINE
  8
0
 10
1.58675
 20
64.2483
 11
3.17349
 21
61.5
  0
LINE
  8
0
 10
3.17349
 20
61.5
 11
1.58675
 21
58.7517
  0
LINE
  8
0
 10
1.58675
 20
58.7517
 11
-1.58675
 21
58.7517
  0
LINE
  8
0
 10
7.40581
 20
60.003
 11
7.21892
 21
60.0266
  0
LINE
  8
0
 10
7.21892
 20
60.0266
 11
7.03647
 21
60.0734
  0
LINE
  8
0
 10
7.03647
 20
60.0734
 11
6.86133
 21
60.1428
  0
LINE
  8
0
 10
6.86133
 20
60.1428
 11
6.69626
 21
60.2335
  0
LINE
  8
0
 10
6.69626
 20
60.2335
 11
6.54385
 21
60.3442
  0
LINE
  8
0
 10
6.54385
 20
60.3442
 11
6.40654
 21
60.4732
  0
LINE
  8
0
 10
6.40654
 20
60.4732
 11
6.28647
 21
60.6183
  0
LINE
  8
0
 10
6.28647
 20
60.6183
 11
6.18553
 21
60.7774
  0
LINE
  8
0
 10
6.18553
 20
60.7774
 11
6.10533
 21
60.9478
  0
LINE
  8
0
 10
6.10533
 20
60.9478
 11
6.04712
 21
61.127
  0
LINE
  8
0
 10
6.04712
 20
61.127
 11
6.01183
 21
61.312
  0
LINE
  8
0
 10
6.01183
 20
61.312
 11
6
 21
61.5
  0
LINE
  8
0
 10
6
 20
61.5
 11
6.01183
 21
61.688
  0
LINE
  8
0
 10
6.01183
 20
61.688
 11
6.04712
 21
61.873
  0
LINE
  8
0
 10
6.04712
 20
61.873
 11
6.10533
 21
62.0522
  0
LINE
  8
0
 10
6.10533
 20
62.0522
 11
6.18553
 21
62.2226
  0
LINE
  8
0
 10
6.18553
 20
62.2226
 11
6.28647
 21
62.3817
  0
LINE
  8
0
 10
6.28647
 20
62.3817
 11
6.40654
 21
62.5268
  0
LINE
  8
0
 10
6.40654
 20
62.5268
 11
6.54385
 21
62.6558
  0
LINE
  8
0
 10
6.54385
 20
62.6558
 11
6.69626
 21
62.7665
  0
LINE
  8
0
 10
6.69626
 20
62.7665
 11
6.86133
 21
62.8573
  0
LINE
  8
0
 10
6.86133
 20
62.8573
 11
7.03647
 21
62.9266
  0
LINE
  8
0
 10
7.03647
 20
62.9266
 11
7.21892
 21
62.9734
  0
LINE
  8
0
 10
7.21892
 20
62.9734
 11
7.40581
 21
62.997
  0
LINE
  8
0
 10
7.40581
 20
62.997
 11
7.59418
 21
62.997
  0
LINE
  8
0
 10
7.59418
 20
62.997
 11
7.78107
 21
62.9734
  0
LINE
  8
0
 10
7.78107
 20
62.9734
 11
7.96352
 21
62.9266
  0
LINE
  8
0
 10
7.96352
 20
62.9266
 11
8.13866
 21
62.8573
  0
LINE
  8
0
 10
8.13866
 20
62.8573
 11
8.30373
 21
62.7665
  0
LINE
  8
0
 10
8.30373
 20
62.7665
 11
8.45613
 21
62.6558
  0
LINE
  8
0
 10
8.45613
 20
62.6558
 11
8.59344
 21
62.5268
  0
LINE
  8
0
 10
8.59344
 20
62.5268
 11
8.71352
 21
62.3817
  0
LINE
  8
0
 10
8.71352
 20
62.3817
 11
8.81445
 21
62.2226
  0
LINE
  8
0
 10
8.81445
 20
62.2226
 11
8.89465
 21
62.0522
  0
LINE
  8
0
 10
8.89465
 20
62.0522
 11
8.95287
 21
61.873
  0
LINE
  8
0
 10
8.95287
 20
61.873
 11
8.98816
 21
61.688
  0
LINE
  8
0
 10
8.98816
 20
61.688
 11
9
 21
61.5
  0
LINE
  8
0
 10
9
 20
61.5
 11
8.98816
 21
61.312
  0
LINE
  8
0
 10
8.98816
 20
61.312
 11
8.95287
 21
61.127
  0
LINE
  8
0
 10
8.95287
 20
61.127
 11
8.89465
 21
60.9478
  0
LINE
  8
0
 10
8.89465
 20
60.9478
 11
8.81445
 21
60.7774
  0
LINE
  8
0
 10
8.81445
 20
60.7774
 11
8.71352
 21
60.6183
  0
LINE
  8
0
 10
8.71352
 20
60.6183
 11
8.59344
 21
60.4732
  0
LINE
  8
0
 10
8.59344
 20
60.4732
 11
8.45613
 21
60.3442
  0
LINE
  8
0
 10
8.45613
 20
60.3442
 11
8.30373
 21
60.2335
  0
LINE
  8
0
 10
8.30373
 20
60.2335
 11
8.13866
 21
60.1428
  0
LINE
  8
0
 10
8.13866
 20
60.1428
 11
7.96352
 21
60.0734
  0
LINE
  8
0
 10
7.96352
 20
60.0734
 11
7.78107
 21
60.0266
  0
LINE
  8
0
 10
7.78107
 20
60.0266
 11
7.59418
 21
60.003
  0
LINE
  8
0
 10
7.59418
 20
60.003
 11
7.40581
 21
60.003
  0
LINE
  8
0
 10
-7.59418
 20
60.003
 11
-7.78107
 21
60.0266
  0
LINE
  8
0
 10
-7.78107
 20
60.0266
 11
-7.96352
 21
60.0734
  0
LINE
  8
0
 10
-7.96352
 20
60.0734
 11
-8.13866
 21
60.1428
  0
LINE
  8
0
 10
-8.13866
 20
60.1428
 11
-8.30373
 21
60.2335
  0
LINE
  8
0
 10
-8.30373
 20
60.2335
 11
-8.45613
 21
60.3442
  0
LINE
  8
0
 10
-8.45613
 20
60.3442
 11
-8.59344
 21
60.4732
  0
LINE
  8
0
 10
-8.59344
 20
60.4732
 11
-8.71352
 21
60.6183
  0
LINE
  8
0
 10
-8.71352
 20
60.6183
 11
-8.81445
 21
60.7774
  0
LINE
  8
0
 10
-8.81445
 20
60.7774
 11
-8.89465
 21
60.9478
  0
LINE
  8
0
 10
-8.89465
 20
60.9478
 11
-8.95287
 21
61.127
  0
LINE
  8
0
 10
-8.95287
 20
61.127
 11
-8.98816
 21
61.312
  0
LINE
  8
0
 10
-8.98816
 20
61.312
 11
-9
 21
61.5
  0
LINE
  8
0
 10
-9
 20
61.5
 11
-8.98816
 21
61.688
  0
LINE
  8
0
 10
-8.98816
 20
61.688
 11
-8.95287
 21
61.873
  0
LINE
  8
0
 10
-8.95287
 20
61.873
 11
-8.89465
 21
62.0522
  0
LINE
  8
0
 10
-8.89465
 20
62.0522
 11
-8.81445
 21
62.2226
  0
LINE
  8
0
 10
-8.81445
 20
62.2226
 11
-8.71352
 21
62.3817
  0
LINE
  8
0
 10
-8.71352
 20
62.3817
 11
-8.59344
 21
62.5268
  0
LINE
  8
0
 10
-8.59344
 20
62.5268
 11
-8.45613
 21
62.6558
  0
LINE
  8
0
 10
-8.45613
 20
62.6558
 11
-8.30373
 21
62.7665
  0
LINE
  8
0
 10
-8.30373
 20
62.7665
 11
-8.13866
 21
62.8573
  0
LINE
  8
0
 10
-8.13866
 20
62.8573
 11
-7.96352
 21
62.9266
  0
LINE
  8
0
 10
-7.96352
 20
62.9266
 11
-7.78107
 21
62.9734
  0
LINE
  8
0
 10
-7.78107
 20
62.9734
 11
-7.59418
 21
62.997
  0
LINE
  8
0
 10
-7.59418
 20
62.997
 11
-7.40581
 21
62.997
  0
LINE
  8
0
 10
-7.40581
 20
62.997
 11
-7.21892
 21
62.9734
  0
LINE
  8
0
 10
-7.21892
 20
62.9734
 11
-7.03647
 21
62.9266
  0
LINE
  8
0
 10
-7.03647
 20
62.9266
 11
-6.86133
 21
62.8573
  0
LINE
  8
0
 10
-6.86133
 20
62.8573
 11
-6.69626
 21
62.7665
  0
LINE
  8
0
 10
-6.69626
 20
62.7665
 11
-6.54385
 21
62.6558
  0
LINE
  8
0
 10
-6.54385
 20
62.6558
 11
-6.40654
 21
62.5268
  0
LINE
  8
0
 10
-6.40654
 20
62.5268
 11
-6.28647
 21
62.3817
  0
LINE
  8
0
 10
-6.28647
 20
62.3817
 11
-6.18553
 21
62.2226
  0
LINE
  8
0
 10
-6.18553
 20
62.2226
 11
-6.10533
 21
62.0522
  0
LINE
  8
0
 10
-6.10533
 20
62.0522
 11
-6.04712
 21
61.873
  0
LINE
  8
0
 10
-6.04712
 20
61.873
 11
-6.01183
 21
61.688
  0
LINE
  8
0
 10
-6.01183
 20
61.688
 11
-6
 21
61.5
  0
LINE
  8
0
 10
-6
 20
61.5
 11
-6.01183
 21
61.312
  0
LINE
  8
0
 10
-6.01183
 20
61.312
 11
-6.04712
 21
61.127
  0
LINE
  8
0
 10
-6.04712
 20
61.127
 11
-6.10533
 21
60.9478
  0
LINE
  8
0
 10
-6.10533
 20
60.9478
 11
-6.18553
 21
60.7774
  0
LINE
  8
0
 10
-6.18553
 20
60.7774
 11
-6.28647
 21
60.6183
  0
LINE
  8
0
 10
-6.28647
 20
60.6183
 11
-6.40654
 21
60.4732
  0
LINE
  8
0
 10
-6.40654
 20
60.4732
 11
-6.54385
 21
60.3442
  0
LINE
  8
0
 10
-6.54385
 20
60.3442
 11
-6.69626
 21
60.2335
  0
LINE
  8
0
 10
-6.69626
 20
60.2335
 11
-6.86133
 21
60.1428
  0
LINE
  8
0
 10
-6.86133
 20
60.1428
 11
-7.03647
 21
60.0734
  0
LINE
  8
0
 10
-7.03647
 20
60.0734
 11
-7.21892
 21
60.0266
  0
LINE
  8
0
 10
-7.21892
 20
60.0266
 11
-7.40581
 21
60.003
  0
LINE
  8
0
 10
-7.40581
 20
60.003
 11
-7.59418
 21
60.003
  0
LINE
  8
0
 10
-7.68837
 20
51.0059
 11
-8.06213
 21
51.0531
  0
LINE
  8
0
 10
-8.06213
 20
51.0531
 11
-8.42705
 21
51.1468
  0
LINE
  8
0
 10
-8.42705
 20
51.1468
 11
-8.77733
 21
51.2855
  0
LINE
  8
0
 10
-8.77733
 20
51.2855
 11
-9.10747
 21
51.467
  0
LINE
  8
0
 10
-9.10747
 20
51.467
 11
-9.41226
 21
51.6885
  0
LINE
  8
0
 10
-9.41226
 20
51.6885
 11
-9.6869
 21
51.9464
  0
LINE
  8
0
 10
-9.6869
 20
51.9464
 11
-9.92705
 21
52.2366
  0
LINE
  8
0
 10
-9.92705
 20
52.2366
 11
-10.1289
 21
52.5547
  0
LINE
  8
0
 10
-10.1289
 20
52.5547
 11
-10.2893
 21
52.8956
  0
LINE
  8
0
 10
-10.2893
 20
52.8956
 11
-10.4057
 21
53.2539
  0
LINE
  8
0
 10
-10.4057
 20
53.2539
 11
-10.4763
 21
53.624
  0
LINE
  8
0
 10
-10.4763
 20
53.624
 11
-10.5
 21
54
  0
LINE
  8
0
 10
-10.5
 20
54
 11
-10.4763
 21
54.376
  0
LINE
  8
0
 10
-10.4763
 20
54.376
 11
-10.4057
 21
54.7461
  0
LINE
  8
0
 10
-10.4057
 20
54.7461
 11
-10.2893
 21
55.1044
  0
LINE
  8
0
 10
-10.2893
 20
55.1044
 11
-10.1289
 21
55.4453
  0
LINE
  8
0
 10
-10.1289
 20
55.4453
 11
-9.92705
 21
55.7634
  0
LINE
  8
0
 10
-9.92705
 20
55.7634
 11
-9.6869
 21
56.0536
  0
LINE
  8
0
 10
-9.6869
 20
56.0536
 11
-9.41226
 21
56.3116
  0
LINE
  8
0
 10
-9.41226
 20
56.3116
 11
-9.10747
 21
56.533
  0
LINE
  8
0
 10
-9.10747
 20
56.533
 11
-8.77733
 21
56.7145
  0
LINE
  8
0
 10
-8.77733
 20
56.7145
 11
-8.42705
 21
56.8532
  0
LINE
  8
0
 10
-8.42705
 20
56.8532
 11
-8.06213
 21
56.9469
  0
LINE
  8
0
 10
-8.06213
 20
56.9469
 11
-7.68837
 21
56.9941
  0
LINE
  8
0
 10
-7.68837
 20
56.9941
 11
-7.31161
 21
56.9941
  0
LINE
  8
0
 10
-7.31161
 20
56.9941
 11
-6.93785
 21
56.9469
  0
LINE
  8
0
 10
-6.93785
 20
56.9469
 11
-6.57294
 21
56.8532
  0
LINE
  8
0
 10
-6.57294
 20
56.8532
 11
-6.22266
 21
56.7145
  0
LINE
  8
0
 10
-6.22266
 20
56.7145
 11
-5.89252
 21
56.533
  0
LINE
  8
0
 10
-5.89252
 20
56.533
 11
-5.58772
 21
56.3116
  0
LINE
  8
0
 10
-5.58772
 20
56.3116
 11
-5.31308
 21
56.0536
  0
LINE
  8
0
 10
-5.31308
 20
56.0536
 11
-5.07294
 21
55.7634
  0
LINE
  8
0
 10
-5.07294
 20
55.7634
 11
-4.87108
 21
55.4453
  0
LINE
  8
0
 10
-4.87108
 20
55.4453
 11
-4.71066
 21
55.1044
  0
LINE
  8
0
 10
-4.71066
 20
55.1044
 11
-4.59424
 21
54.7461
  0
LINE
  8
0
 10
-4.59424
 20
54.7461
 11
-4.52365
 21
54.376
  0
LINE
  8
0
 10
-4.52365
 20
54.376
 11
-4.5
 21
54
  0
LINE
  8
0
 10
-4.5
 20
54
 11
-4.52365
 21
53.624
  0
LINE
  8
0
 10
-4.52365
 20
53.624
 11
-4.59424
 21
53.2539
  0
LINE
  8
0
 10
-4.59424
 20
53.2539
 11
-4.71066
 21
52.8956
  0
LINE
  8
0
 10
-4.71066
 20
52.8956
 11
-4.87108
 21
52.5547
  0
LINE
  8
0
 10
-4.87108
 20
52.5547
 11
-5.07294
 21
52.2366
  0
LINE
  8
0
 10
-5.07294
 20
52.2366
 11
-5.31308
 21
51.9464
  0
LINE
  8
0
 10
-5.31308
 20
51.9464
 11
-5.58772
 21
51.6885
  0
LINE
  8
0
 10
-5.58772
 20
51.6885
 11
-5.89252
 21
51.467
  0
LINE
  8
0
 10
-5.89252
 20
51.467
 11
-6.22266
 21
51.2855
  0
LINE
  8
0
 10
-6.22266
 20
51.2855
 11
-6.57294
 21
51.1468
  0
LINE
  8
0
 10
-6.57294
 20
51.1468
 11
-6.93785
 21
51.0531
  0
LINE
  8
0
 10
-6.93785
 20
51.0531
 11
-7.31161
 21
51.0059
  0
LINE
  8
0
 10
-7.31161
 20
51.0059
 11
-7.68837
 21
51.0059
  0
LINE
  8
0
 10
7.31161
 20
51.0059
 11
6.93785
 21
51.0531
  0
LINE
  8
0
 10
6.93785
 20
51.0531
 11
6.57294
 21
51.1468
  0
LINE
  8
0
 10
6.57294
 20
51.1468
 11
6.22266
 21
51.2855
  0
LINE
  8
0
 10
6.22266
 20
51.2855
 11
5.89252
 21
51.467
  0
LINE
  8
0
 10
5.89252
 20
51.467
 11
5.58772
 21
51.6885
  0
LINE
  8
0
 10
5.58772
 20
51.6885
 11
5.31308
 21
51.9464
  0
LINE
  8
0
 10
5.31308
 20
51.9464
 11
5.07294
 21
52.2366
  0
LINE
  8
0
 10
5.07294
 20
52.2366
 11
4.87108
 21
52.5547
  0
LINE
  8
0
 10
4.87108
 20
52.5547
 11
4.71066
 21
52.8956
  0
LINE
  8
0
 10
4.71066
 20
52.8956
 11
4.59424
 21
53.2539
  0
LINE
  8
0
 10
4.59424
 20
53.2539
 11
4.52365
 21
53.624
  0
LINE
  8
0
 10
4.52365
 20
53.624
 11
4.5
 21
54
  0
LINE
  8
0
 10
4.5
 20
54
 11
4.52365
 21
54.376
  0
LINE
  8
0
 10
4.52365
 20
54.376
 11
4.59424
 21
54.7461
  0
LINE
  8
0
 10
4.59424
 20
54.7461
 11
4.71066
 21
55.1044
  0
LINE
  8
0
 10
4.71066
 20
55.1044
 11
4.87108
 21
55.4453
  0
LINE
  8
0
 10
4.87108
 20
55.4453
 11
5.07294
 21
55.7634
  0
LINE
  8
0
 10
5.07294
 20
55.7634
 11
5.31308
 21
56.0536
  0
LINE
  8
0
 10
5.31308
 20
56.0536
 11
5.58772
 21
56.3116
  0
LINE
  8
0
 10
5.58772
 20
56.3116
 11
5.89252
 21
56.533
  0
LINE
  8
0
 10
5.89252
 20
56.533
 11
6.22266
 21
56.7145
  0
LINE
  8
0
 10
6.22266
 20
56.7145
 11
6.57294
 21
56.8532
  0
LINE
  8
0
 10
6.57294
 20
56.8532
 11
6.93785
 21
56.9469
  0
LINE
  8
0
 10
6.93785
 20
56.9469
 11
7.31161
 21
56.9941
  0
LINE
  8
0
 10
7.31161
 20
56.9941
 11
7.68837
 21
56.9941
  0
LINE
  8
0
 10
7.68837
 20
56.9941
 11
8.06213
 21
56.9469
  0
LINE
  8
0
 10
8.06213
 20
56.9469
 11
8.42705
 21
56.8532
  0
LINE
  8
0
 10
8.42705
 20
56.8532
 11
8.77733
 21
56.7145
  0
LINE
  8
0
 10
8.77733
 20
56.7145
 11
9.10747
 21
56.533
  0
LINE
  8
0
 10
9.10747
 20
56.533
 11
9.41226
 21
56.3116
  0
LINE
  8
0
 10
9.41226
 20
56.3116
 11
9.6869
 21
56.0536
  0
LINE
  8
0
 10
9.6869
 20
56.0536
 11
9.92705
 21
55.7634
  0
LINE
  8
0
 10
9.92705
 20
55.7634
 11
10.1289
 21
55.4453
  0
LINE
  8
0
 10
10.1289
 20
55.4453
 11
10.2893
 21
55.1044
  0
LINE
  8
0
 10
10.2893
 20
55.1044
 11
10.4057
 21
54.7461
  0
LINE
  8
0
 10
10.4057
 20
54.7461
 11
10.4763
 21
54.376
  0
LINE
  8
0
 10
10.4763
 20
54.376
 11
10.5
 21
54
  0
LINE
  8
0
 10
10.5
 20
54
 11
10.4763
 21
53.624
  0
LINE
  8
0
 10
10.4763
 20
53.624
 11
10.4057
 21
53.2539
  0
LINE
  8
0
 10
10.4057
 20
53.2539
 11
10.2893
 21
52.8956
  0
LINE
  8
0
 10
10.2893
 20
52.8956
 11
10.1289
 21
52.5547
  0
LINE
  8
0
 10
10.1289
 20
52.5547
 11
9.92705
 21
52.2366
  0
LINE
  8
0
 10
9.92705
 20
52.2366
 11
9.6869
 21
51.9464
  0
LINE
  8
0
 10
9.6869
 20
51.9464
 11
9.41226
 21
51.6885
  0
LINE
  8
0
 10
9.41226
 20
51.6885
 11
9.10747
 21
51.467
  0
LINE
  8
0
 10
9.10747
 20
51.467
 11
8.77733
 21
51.2855
  0
LINE
  8
0
 10
8.77733
 20
51.2855
 11
8.42705
 21
51.1468
  0
LINE
  8
0
 10
8.42705
 20
51.1468
 11
8.06213
 21
51.0531
  0
LINE
  8
0
 10
8.06213
 20
51.0531
 11
7.68837
 21
51.0059
  0
LINE
  8
0
 10
7.68837
 20
51.0059
 11
7.31161
 21
51.0059
  0
LINE
  8
0
 10
-0.133423
 20
51.8792
 11
-0.398178
 21
51.9126
  0
LINE
  8
0
 10
-0.398178
 20
51.9126
 11
-0.656647
 21
51.979
  0
LINE
  8
0
 10
-0.656647
 20
51.979
 11
-0.90477
 21
52.0773
  0
LINE
  8
0
 10
-0.90477
 20
52.0773
 11
-1.13863
 21
52.2058
  0
LINE
  8
0
 10
-1.13863
 20
52.2058
 11
-1.35452
 21
52.3627
  0
LINE
  8
0
 10
-1.35452
 20
52.3627
 11
-1.54906
 21
52.5453
  0
LINE
  8
0
 10
-1.54906
 20
52.5453
 11
-1.71915
 21
52.751
  0
LINE
  8
0
 10
-1.71915
 20
52.751
 11
-1.86214
 21
52.9763
  0
LINE
  8
0
 10
-1.86214
 20
52.9763
 11
-1.97577
 21
53.2177
  0
LINE
  8
0
 10
-1.97577
 20
53.2177
 11
-2.05823
 21
53.4715
  0
LINE
  8
0
 10
-2.05823
 20
53.4715
 11
-2.10823
 21
53.7337
  0
LINE
  8
0
 10
-2.10823
 20
53.7337
 11
-2.125
 21
54
  0
LINE
  8
0
 10
-2.125
 20
54
 11
-2.10823
 21
54.2663
  0
LINE
  8
0
 10
-2.10823
 20
54.2663
 11
-2.05823
 21
54.5285
  0
LINE
  8
0
 10
-2.05823
 20
54.5285
 11
-1.97577
 21
54.7823
  0
LINE
  8
0
 10
-1.97577
 20
54.7823
 11
-1.86214
 21
55.0237
  0
LINE
  8
0
 10
-1.86214
 20
55.0237
 11
-1.71915
 21
55.2491
  0
LINE
  8
0
 10
-1.71915
 20
55.2491
 11
-1.54906
 21
55.4547
  0
LINE
  8
0
 10
-1.54906
 20
55.4547
 11
-1.35452
 21
55.6373
  0
LINE
  8
0
 10
-1.35452
 20
55.6373
 11
-1.13863
 21
55.7942
  0
LINE
  8
0
 10
-1.13863
 20
55.7942
 11
-0.90477
 21
55.9228
  0
LINE
  8
0
 10
-0.90477
 20
55.9228
 11
-0.656647
 21
56.021
  0
LINE
  8
0
 10
-0.656647
 20
56.021
 11
-0.398178
 21
56.0874
  0
LINE
  8
0
 10
-0.398178
 20
56.0874
 11
-0.133423
 21
56.1208
  0
LINE
  8
0
 10
-0.133423
 20
56.1208
 11
0.133423
 21
56.1208
  0
LINE
  8
0
 10
0.133423
 20
56.1208
 11
0.398178
 21
56.0874
  0
LINE
  8
0
 10
0.398178
 20
56.0874
 11
0.656647
 21
56.021
  0
LINE
  8
0
 10
0.656647
 20
56.021
 11
0.90477
 21
55.9228
  0
LINE
  8
0
 10
0.90477
 20
55.9228
 11
1.13863
 21
55.7942
  0
LINE
  8
0
 10
1.13863
 20
55.7942
 11
1.35452
 21
55.6373
  0
LINE
  8
0
 10
1.35452
 20
55.6373
 11
1.54906
 21
55.4547
  0
LINE
  8
0
 10
1.54906
 20
55.4547
 11
1.71915
 21
55.2491
  0
LINE
  8
0
 10
1.71915
 20
55.2491
 11
1.86214
 21
55.0237
  0
LINE
  8
0
 10
1.86214
 20
55.0237
 11
1.97577
 21
54.7823
  0
LINE
  8
0
 10
1.97577
 20
54.7823
 11
2.05823
 21
54.5285
  0
LINE
  8
0
 10
2.05823
 20
54.5285
 11
2.10823
 21
54.2663
  0
LINE
  8
0
 10
2.10823
 20
54.2663
 11
2.125
 21
54
  0
LINE
  8
0
 10
2.125
 20
54
 11
2.10823
 21
53.7337
  0
LINE
  8
0
 10
2.10823
 20
53.7337
 11
2.05823
 21
53.4715
  0
LINE
  8
0
 10
2.05823
 20
53.4715
 11
1.97577
 21
53.2177
  0
LINE
  8
0
 10
1.97577
 20
53.2177
 11
1.86214
 21
52.9763
  0
LINE
  8
0
 10
1.86214
 20
52.9763
 11
1.71915
 21
52.751
  0
LINE
  8
0
 10
1.71915
 20
52.751
 11
1.54906
 21
52.5453
  0
LINE
  8
0
 10
1.54906
 20
52.5453
 11
1.35452
 21
52.3627
  0
LINE
  8
0
 10
1.35452
 20
52.3627
 11
1.13863
 21
52.2058
  0
LINE
  8
0
 10
1.13863
 20
52.2058
 11
0.90477
 21
52.0773
  0
LINE
  8
0
 10
0.90477
 20
52.0773
 11
0.656647
 21
51.979
  0
LINE
  8
0
 10
0.656647
 20
51.979
 11
0.398178
 21
51.9126
  0
LINE
  8
0
 10
0.398178
 20
51.9126
 11
0.133423
 21
51.8792
  0
LINE
  8
0
 10
0.133423
 20
51.8792
 11
-0.133423
 21
51.8792
  0
LINE
  8
0
 10
60.4369
 20
47.0886
 11
61.0451
 21
47.2447
  0
LINE
  8
0
 10
61.0451
 20
47.2447
 11
61.6289
 21
47.4759
  0
LINE
  8
0
 10
61.6289
 20
47.4759
 11
62.1791
 21
47.7784
  0
LINE
  8
0
 10
62.1791
 20
47.7784
 11
62.6871
 21
48.1474
  0
LINE
  8
0
 10
62.6871
 20
48.1474
 11
63.1448
 21
48.5773
  0
LINE
  8
0
 10
63.1448
 20
48.5773
 11
63.5451
 21
49.0611
  0
LINE
  8
0
 10
63.5451
 20
49.0611
 11
63.8815
 21
49.5912
  0
LINE
  8
0
 10
63.8815
 20
49.5912
 11
64.1489
 21
50.1594
  0
LINE
  8
0
 10
64.1489
 20
50.1594
 11
64.3429
 21
50.7566
  0
LINE
  8
0
 10
64.3429
 20
50.7566
 11
64.4606
 21
51.3733
  0
LINE
  8
0
 10
64.4606
 20
51.3733
 11
64.5
 21
52
  0
LINE
  8
0
 10
64.5
 20
52
 11
64.5
 21
116
  0
LINE
  8
0
 10
64.5
 20
116
 11
64.4606
 21
116.627
  0
LINE
  8
0
 10
64.4606
 20
116.627
 11
64.3429
 21
117.243
  0
LINE
  8
0
 10
64.3429
 20
117.243
 11
64.1489
 21
117.841
  0
LINE
  8
0
 10
64.1489
 20
117.841
 11
63.8815
 21
118.409
  0
LINE
  8
0
 10
63.8815
 20
118.409
 11
63.5451
 21
118.939
  0
LINE
  8
0
 10
63.5451
 20
118.939
 11
63.1448
 21
119.423
  0
LINE
  8
0
 10
63.1448
 20
119.423
 11
62.6871
 21
119.853
  0
LINE
  8
0
 10
62.6871
 20
119.853
 11
62.1791
 21
120.222
  0
LINE
  8
0
 10
62.1791
 20
120.222
 11
61.6289
 21
120.524
  0
LINE
  8
0
 10
61.6289
 20
120.524
 11
61.0451
 21
120.755
  0
LINE
  8
0
 10
61.0451
 20
120.755
 11
60.4369
 21
120.911
  0
LINE
  8
0
 10
60.4369
 20
120.911
 11
59.8139
 21
120.99
  0
LINE
  8
0
 10
59.8139
 20
120.99
 11
40.186
 21
120.99
  0
LINE
  8
0
 10
40.186
 20
120.99
 11
39.5631
 21
120.911
  0
LINE
  8
0
 10
39.5631
 20
120.911
 11
38.9549
 21
120.755
  0
LINE
  8
0
 10
38.9549
 20
120.755
 11
38.3711
 21
120.524
  0
LINE
  8
0
 10
38.3711
 20
120.524
 11
37.8209
 21
120.222
  0
LINE
  8
0
 10
37.8209
 20
120.222
 11
37.3129
 21
119.853
  0
LINE
  8
0
 10
37.3129
 20
119.853
 11
36.8551
 21
119.423
  0
LINE
  8
0
 10
36.8551
 20
119.423
 11
36.4549
 21
118.939
  0
LINE
  8
0
 10
36.4549
 20
118.939
 11
36.1185
 21
118.409
  0
LINE
  8
0
 10
36.1185
 20
118.409
 11
35.8511
 21
117.841
  0
LINE
  8
0
 10
35.8511
 20
117.841
 11
35.6571
 21
117.243
  0
LINE
  8
0
 10
35.6571
 20
117.243
 11
35.5394
 21
116.627
  0
LINE
  8
0
 10
35.5394
 20
116.627
 11
35.5
 21
116
  0
LINE
  8
0
 10
35.5
 20
116
 11
35.5
 21
52
  0
LINE
  8
0
 10
35.5
 20
52
 11
35.5394
 21
51.3733
  0
LINE
  8
0
 10
35.5394
 20
51.3733
 11
35.6571
 21
50.7566
  0
LINE
  8
0
 10
35.6571
 20
50.7566
 11
35.8511
 21
50.1594
  0
LINE
  8
0
 10
35.8511
 20
50.1594
 11
36.1185
 21
49.5912
  0
LINE
  8
0
 10
36.1185
 20
49.5912
 11
36.4549
 21
49.0611
  0
LINE
  8
0
 10
36.4549
 20
49.0611
 11
36.8551
 21
48.5773
  0
LINE
  8
0
 10
36.8551
 20
48.5773
 11
37.3129
 21
48.1474
  0
LINE
  8
0
 10
37.3129
 20
48.1474
 11
37.8209
 21
47.7784
  0
LINE
  8
0
 10
37.8209
 20
47.7784
 11
38.3711
 21
47.4759
  0
LINE
  8
0
 10
38.3711
 20
47.4759
 11
38.9549
 21
47.2447
  0
LINE
  8
0
 10
38.9549
 20
47.2447
 11
39.5631
 21
47.0886
  0
LINE
  8
0
 10
39.5631
 20
47.0886
 11
40.186
 21
47.0099
  0
LINE
  8
0
 10
40.186
 20
47.0099
 11
59.8139
 21
47.0099
  0
LINE
  8
0
 10
59.8139
 20
47.0099
 11
60.4369
 21
47.0886
  0
LINE
  8
0
 10
42.3116
 20
111.006
 11
41.9379
 21
111.053
  0
LINE
  8
0
 10
41.9379
 20
111.053
 11
41.5729
 21
111.147
  0
LINE
  8
0
 10
41.5729
 20
111.147
 11
41.2227
 21
111.286
  0
LINE
  8
0
 10
41.2227
 20
111.286
 11
40.8925
 21
111.467
  0
LINE
  8
0
 10
40.8925
 20
111.467
 11
40.5877
 21
111.688
  0
LINE
  8
0
 10
40.5877
 20
111.688
 11
40.3131
 21
111.946
  0
LINE
  8
0
 10
40.3131
 20
111.946
 11
40.0729
 21
112.237
  0
LINE
  8
0
 10
40.0729
 20
112.237
 11
39.8711
 21
112.555
  0
LINE
  8
0
 10
39.8711
 20
112.555
 11
39.7107
 21
112.896
  0
LINE
  8
0
 10
39.7107
 20
112.896
 11
39.5942
 21
113.254
  0
LINE
  8
0
 10
39.5942
 20
113.254
 11
39.5237
 21
113.624
  0
LINE
  8
0
 10
39.5237
 20
113.624
 11
39.5
 21
114
  0
LINE
  8
0
 10
39.5
 20
114
 11
39.5237
 21
114.376
  0
LINE
  8
0
 10
39.5237
 20
114.376
 11
39.5942
 21
114.746
  0
LINE
  8
0
 10
39.5942
 20
114.746
 11
39.7107
 21
115.104
  0
LINE
  8
0
 10
39.7107
 20
115.104
 11
39.8711
 21
115.445
  0
LINE
  8
0
 10
39.8711
 20
115.445
 11
40.0729
 21
115.763
  0
LINE
  8
0
 10
40.0729
 20
115.763
 11
40.3131
 21
116.054
  0
LINE
  8
0
 10
40.3131
 20
116.054
 11
40.5877
 21
116.312
  0
LINE
  8
0
 10
40.5877
 20
116.312
 11
40.8925
 21
116.533
  0
LINE
  8
0
 10
40.8925
 20
116.533
 11
41.2227
 21
116.714
  0
LINE
  8
0
 10
41.2227
 20
116.714
 11
41.5729
 21
116.853
  0
LINE
  8
0
 10
41.5729
 20
116.853
 11
41.9379
 21
116.947
  0
LINE
  8
0
 10
41.9379
 20
116.947
 11
42.3116
 21
116.994
  0
LINE
  8
0
 10
42.3116
 20
116.994
 11
42.6884
 21
116.994
  0
LINE
  8
0
 10
42.6884
 20
116.994
 11
43.0621
 21
116.947
  0
LINE
  8
0
 10
43.0621
 20
116.947
 11
43.427
 21
116.853
  0
LINE
  8
0
 10
43.427
 20
116.853
 11
43.7773
 21
116.714
  0
LINE
  8
0
 10
43.7773
 20
116.714
 11
44.1075
 21
116.533
  0
LINE
  8
0
 10
44.1075
 20
116.533
 11
44.4123
 21
116.312
  0
LINE
  8
0
 10
44.4123
 20
116.312
 11
44.6869
 21
116.054
  0
LINE
  8
0
 10
44.6869
 20
116.054
 11
44.927
 21
115.763
  0
LINE
  8
0
 10
44.927
 20
115.763
 11
45.1289
 21
115.445
  0
LINE
  8
0
 10
45.1289
 20
115.445
 11
45.2893
 21
115.104
  0
LINE
  8
0
 10
45.2893
 20
115.104
 11
45.4057
 21
114.746
  0
LINE
  8
0
 10
45.4057
 20
114.746
 11
45.4763
 21
114.376
  0
LINE
  8
0
 10
45.4763
 20
114.376
 11
45.5
 21
114
  0
LINE
  8
0
 10
45.5
 20
114
 11
45.4763
 21
113.624
  0
LINE
  8
0
 10
45.4763
 20
113.624
 11
45.4057
 21
113.254
  0
LINE
  8
0
 10
45.4057
 20
113.254
 11
45.2893
 21
112.896
  0
LINE
  8
0
 10
45.2893
 20
112.896
 11
45.1289
 21
112.555
  0
LINE
  8
0
 10
45.1289
 20
112.555
 11
44.927
 21
112.237
  0
LINE
  8
0
 10
44.927
 20
112.237
 11
44.6869
 21
111.946
  0
LINE
  8
0
 10
44.6869
 20
111.946
 11
44.4123
 21
111.688
  0
LINE
  8
0
 10
44.4123
 20
111.688
 11
44.1075
 21
111.467
  0
LINE
  8
0
 10
44.1075
 20
111.467
 11
43.7773
 21
111.286
  0
LINE
  8
0
 10
43.7773
 20
111.286
 11
43.427
 21
111.147
  0
LINE
  8
0
 10
43.427
 20
111.147
 11
43.0621
 21
111.053
  0
LINE
  8
0
 10
43.0621
 20
111.053
 11
42.6884
 21
111.006
  0
LINE
  8
0
 10
42.6884
 20
111.006
 11
42.3116
 21
111.006
  0
LINE
  8
0
 10
57.3116
 20
111.006
 11
56.9379
 21
111.053
  0
LINE
  8
0
 10
56.9379
 20
111.053
 11
56.5729
 21
111.147
  0
LINE
  8
0
 10
56.5729
 20
111.147
 11
56.2227
 21
111.286
  0
LINE
  8
0
 10
56.2227
 20
111.286
 11
55.8925
 21
111.467
  0
LINE
  8
0
 10
55.8925
 20
111.467
 11
55.5877
 21
111.688
  0
LINE
  8
0
 10
55.5877
 20
111.688
 11
55.3131
 21
111.946
  0
LINE
  8
0
 10
55.3131
 20
111.946
 11
55.0729
 21
112.237
  0
LINE
  8
0
 10
55.0729
 20
112.237
 11
54.8711
 21
112.555
  0
LINE
  8
0
 10
54.8711
 20
112.555
 11
54.7107
 21
112.896
  0
LINE
  8
0
 10
54.7107
 20
112.896
 11
54.5942
 21
113.254
  0
LINE
  8
0
 10
54.5942
 20
113.254
 11
54.5237
 21
113.624
  0
LINE
  8
0
 10
54.5237
 20
113.624
 11
54.5
 21
114
  0
LINE
  8
0
 10
54.5
 20
114
 11
54.5237
 21
114.376
  0
LINE
  8
0
 10
54.5237
 20
114.376
 11
54.5942
 21
114.746
  0
LINE
  8
0
 10
54.5942
 20
114.746
 11
54.7107
 21
115.104
  0
LINE
  8
0
 10
54.7107
 20
115.104
 11
54.8711
 21
115.445
  0
LINE
  8
0
 10
54.8711
 20
115.445
 11
55.0729
 21
115.763
  0
LINE
  8
0
 10
55.0729
 20
115.763
 11
55.3131
 21
116.054
  0
LINE
  8
0
 10
55.3131
 20
116.054
 11
55.5877
 21
116.312
  0
LINE
  8
0
 10
55.5877
 20
116.312
 11
55.8925
 21
116.533
  0
LINE
  8
0
 10
55.8925
 20
116.533
 11
56.2227
 21
116.714
  0
LINE
  8
0
 10
56.2227
 20
116.714
 11
56.5729
 21
116.853
  0
LINE
  8
0
 10
56.5729
 20
116.853
 11
56.9379
 21
116.947
  0
LINE
  8
0
 10
56.9379
 20
116.947
 11
57.3116
 21
116.994
  0
LINE
  8
0
 10
57.3116
 20
116.994
 11
57.6884
 21
116.994
  0
LINE
  8
0
 10
57.6884
 20
116.994
 11
58.0621
 21
116.947
  0
LINE
  8
0
 10
58.0621
 20
116.947
 11
58.427
 21
116.853
  0
LINE
  8
0
 10
58.427
 20
116.853
 11
58.7773
 21
116.714
  0
LINE
  8
0
 10
58.7773
 20
116.714
 11
59.1075
 21
116.533
  0
LINE
  8
0
 10
59.1075
 20
116.533
 11
59.4123
 21
116.312
  0
LINE
  8
0
 10
59.4123
 20
116.312
 11
59.6869
 21
116.054
  0
LINE
  8
0
 10
59.6869
 20
116.054
 11
59.927
 21
115.763
  0
LINE
  8
0
 10
59.927
 20
115.763
 11
60.1289
 21
115.445
  0
LINE
  8
0
 10
60.1289
 20
115.445
 11
60.2893
 21
115.104
  0
LINE
  8
0
 10
60.2893
 20
115.104
 11
60.4057
 21
114.746
  0
LINE
  8
0
 10
60.4057
 20
114.746
 11
60.4763
 21
114.376
  0
LINE
  8
0
 10
60.4763
 20
114.376
 11
60.5
 21
114
  0
LINE
  8
0
 10
60.5
 20
114
 11
60.4763
 21
113.624
  0
LINE
  8
0
 10
60.4763
 20
113.624
 11
60.4057
 21
113.254
  0
LINE
  8
0
 10
60.4057
 20
113.254
 11
60.2893
 21
112.896
  0
LINE
  8
0
 10
60.2893
 20
112.896
 11
60.1289
 21
112.555
  0
LINE
  8
0
 10
60.1289
 20
112.555
 11
59.927
 21
112.237
  0
LINE
  8
0
 10
59.927
 20
112.237
 11
59.6869
 21
111.946
  0
LINE
  8
0
 10
59.6869
 20
111.946
 11
59.4123
 21
111.688
  0
LINE
  8
0
 10
59.4123
 20
111.688
 11
59.1075
 21
111.467
  0
LINE
  8
0
 10
59.1075
 20
111.467
 11
58.7773
 21
111.286
  0
LINE
  8
0
 10
58.7773
 20
111.286
 11
58.427
 21
111.147
  0
LINE
  8
0
 10
58.427
 20
111.147
 11
58.0621
 21
111.053
  0
LINE
  8
0
 10
58.0621
 20
111.053
 11
57.6884
 21
111.006
  0
LINE
  8
0
 10
57.6884
 20
111.006
 11
57.3116
 21
111.006
  0
LINE
  8
0
 10
49.9058
 20
112.503
 11
49.7189
 21
112.527
  0
LINE
  8
0
 10
49.7189
 20
112.527
 11
49.5365
 21
112.573
  0
LINE
  8
0
 10
49.5365
 20
112.573
 11
49.3613
 21
112.643
  0
LINE
  8
0
 10
49.3613
 20
112.643
 11
49.1963
 21
112.734
  0
LINE
  8
0
 10
49.1963
 20
112.734
 11
49.0439
 21
112.844
  0
LINE
  8
0
 10
49.0439
 20
112.844
 11
48.9065
 21
112.973
  0
LINE
  8
0
 10
48.9065
 20
112.973
 11
48.7865
 21
113.118
  0
LINE
  8
0
 10
48.7865
 20
113.118
 11
48.6855
 21
113.277
  0
LINE
  8
0
 10
48.6855
 20
113.277
 11
48.6053
 21
113.448
  0
LINE
  8
0
 10
48.6053
 20
113.448
 11
48.5471
 21
113.627
  0
LINE
  8
0
 10
48.5471
 20
113.627
 11
48.5118
 21
113.812
  0
LINE
  8
0
 10
48.5118
 20
113.812
 11
48.5
 21
114
  0
LINE
  8
0
 10
48.5
 20
114
 11
48.5118
 21
114.188
  0
LINE
  8
0
 10
48.5118
 20
114.188
 11
48.5471
 21
114.373
  0
LINE
  8
0
 10
48.5471
 20
114.373
 11
48.6053
 21
114.552
  0
LINE
  8
0
 10
48.6053
 20
114.552
 11
48.6855
 21
114.723
  0
LINE
  8
0
 10
48.6855
 20
114.723
 11
48.7865
 21
114.882
  0
LINE
  8
0
 10
48.7865
 20
114.882
 11
48.9065
 21
115.027
  0
LINE
  8
0
 10
48.9065
 20
115.027
 11
49.0439
 21
115.156
  0
LINE
  8
0
 10
49.0439
 20
115.156
 11
49.1963
 21
115.266
  0
LINE
  8
0
 10
49.1963
 20
115.266
 11
49.3613
 21
115.357
  0
LINE
  8
0
 10
49.3613
 20
115.357
 11
49.5365
 21
115.427
  0
LINE
  8
0
 10
49.5365
 20
115.427
 11
49.7189
 21
115.473
  0
LINE
  8
0
 10
49.7189
 20
115.473
 11
49.9058
 21
115.497
  0
LINE
  8
0
 10
49.9058
 20
115.497
 11
50.0942
 21
115.497
  0
LINE
  8
0
 10
50.0942
 20
115.497
 11
50.2811
 21
115.473
  0
LINE
  8
0
 10
50.2811
 20
115.473
 11
50.4635
 21
115.427
  0
LINE
  8
0
 10
50.4635
 20
115.427
 11
50.6387
 21
115.357
  0
LINE
  8
0
 10
50.6387
 20
115.357
 11
50.8037
 21
115.266
  0
LINE
  8
0
 10
50.8037
 20
115.266
 11
50.9561
 21
115.156
  0
LINE
  8
0
 10
50.9561
 20
115.156
 11
51.0934
 21
115.027
  0
LINE
  8
0
 10
51.0934
 20
115.027
 11
51.2135
 21
114.882
  0
LINE
  8
0
 10
51.2135
 20
114.882
 11
51.3145
 21
114.723
  0
LINE
  8
0
 10
51.3145
 20
114.723
 11
51.3947
 21
114.552
  0
LINE
  8
0
 10
51.3947
 20
114.552
 11
51.4529
 21
114.373
  0
LINE
  8
0
 10
51.4529
 20
114.373
 11
51.4882
 21
114.188
  0
LINE
  8
0
 10
51.4882
 20
114.188
 11
51.5
 21
114
  0
LINE
  8
0
 10
51.5
 20
114
 11
51.4882
 21
113.812
  0
LINE
  8
0
 10
51.4882
 20
113.812
 11
51.4529
 21
113.627
  0
LINE
  8
0
 10
51.4529
 20
113.627
 11
51.3947
 21
113.448
  0
LINE
  8
0
 10
51.3947
 20
113.448
 11
51.3145
 21
113.277
  0
LINE
  8
0
 10
51.3145
 20
113.277
 11
51.2135
 21
113.118
  0
LINE
  8
0
 10
51.2135
 20
113.118
 11
51.0934
 21
112.973
  0
LINE
  8
0
 10
51.0934
 20
112.973
 11
50.9561
 21
112.844
  0
LINE
  8
0
 10
50.9561
 20
112.844
 11
50.8037
 21
112.734
  0
LINE
  8
0
 10
50.8037
 20
112.734
 11
50.6387
 21
112.643
  0
LINE
  8
0
 10
50.6387
 20
112.643
 11
50.4635
 21
112.573
  0
LINE
  8
0
 10
50.4635
 20
112.573
 11
50.2811
 21
112.527
  0
LINE
  8
0
 10
50.2811
 20
112.527
 11
50.0942
 21
112.503
  0
LINE
  8
0
 10
50.0942
 20
112.503
 11
49.9058
 21
112.503
  0
LINE
  8
0
 10
49.8526
 20
104.158
 11
49.5602
 21
104.195
  0
LINE
  8
0
 10
49.5602
 20
104.195
 11
49.2747
 21
104.268
  0
LINE
  8
0
 10
49.2747
 20
104.268
 11
49.0007
 21
104.376
  0
LINE
  8
0
 10
49.0007
 20
104.376
 11
48.7424
 21
104.518
  0
LINE
  8
0
 10
48.7424
 20
104.518
 11
48.5039
 21
104.692
  0
LINE
  8
0
 10
48.5039
 20
104.692
 11
48.2891
 21
104.893
  0
LINE
  8
0
 10
48.2891
 20
104.893
 11
48.1012
 21
105.12
  0
LINE
  8
0
 10
48.1012
 20
105.12
 11
47.9433
 21
105.369
  0
LINE
  8
0
 10
47.9433
 20
105.369
 11
47.8177
 21
105.636
  0
LINE
  8
0
 10
47.8177
 20
105.636
 11
47.7267
 21
105.916
  0
LINE
  8
0
 10
47.7267
 20
105.916
 11
47.6714
 21
106.206
  0
LINE
  8
0
 10
47.6714
 20
106.206
 11
47.6529
 21
106.5
  0
LINE
  8
0
 10
47.6529
 20
106.5
 11
47.6714
 21
106.794
  0
LINE
  8
0
 10
47.6714
 20
106.794
 11
47.7267
 21
107.084
  0
LINE
  8
0
 10
47.7267
 20
107.084
 11
47.8177
 21
107.364
  0
LINE
  8
0
 10
47.8177
 20
107.364
 11
47.9433
 21
107.631
  0
LINE
  8
0
 10
47.9433
 20
107.631
 11
48.1012
 21
107.88
  0
LINE
  8
0
 10
48.1012
 20
107.88
 11
48.2891
 21
108.107
  0
LINE
  8
0
 10
48.2891
 20
108.107
 11
48.5039
 21
108.308
  0
LINE
  8
0
 10
48.5039
 20
108.308
 11
48.7424
 21
108.482
  0
LINE
  8
0
 10
48.7424
 20
108.482
 11
49.0007
 21
108.624
  0
LINE
  8
0
 10
49.0007
 20
108.624
 11
49.2747
 21
108.732
  0
LINE
  8
0
 10
49.2747
 20
108.732
 11
49.5602
 21
108.805
  0
LINE
  8
0
 10
49.5602
 20
108.805
 11
49.8526
 21
108.842
  0
LINE
  8
0
 10
49.8526
 20
108.842
 11
50.1474
 21
108.842
  0
LINE
  8
0
 10
50.1474
 20
108.842
 11
50.4398
 21
108.805
  0
LINE
  8
0
 10
50.4398
 20
108.805
 11
50.7253
 21
108.732
  0
LINE
  8
0
 10
50.7253
 20
108.732
 11
50.9993
 21
108.624
  0
LINE
  8
0
 10
50.9993
 20
108.624
 11
51.2576
 21
108.482
  0
LINE
  8
0
 10
51.2576
 20
108.482
 11
51.4961
 21
108.308
  0
LINE
  8
0
 10
51.4961
 20
108.308
 11
51.7109
 21
108.107
  0
LINE
  8
0
 10
51.7109
 20
108.107
 11
51.8988
 21
107.88
  0
LINE
  8
0
 10
51.8988
 20
107.88
 11
52.0567
 21
107.631
  0
LINE
  8
0
 10
52.0567
 20
107.631
 11
52.1822
 21
107.364
  0
LINE
  8
0
 10
52.1822
 20
107.364
 11
52.2733
 21
107.084
  0
LINE
  8
0
 10
52.2733
 20
107.084
 11
52.3286
 21
106.794
  0
LINE
  8
0
 10
52.3286
 20
106.794
 11
52.347
 21
106.5
  0
LINE
  8
0
 10
52.347
 20
106.5
 11
52.3286
 21
106.206
  0
LINE
  8
0
 10
52.3286
 20
106.206
 11
52.2733
 21
105.916
  0
LINE
  8
0
 10
52.2733
 20
105.916
 11
52.1822
 21
105.636
  0
LINE
  8
0
 10
52.1822
 20
105.636
 11
52.0567
 21
105.369
  0
LINE
  8
0
 10
52.0567
 20
105.369
 11
51.8988
 21
105.12
  0
LINE
  8
0
 10
51.8988
 20
105.12
 11
51.7109
 21
104.893
  0
LINE
  8
0
 10
51.7109
 20
104.893
 11
51.4961
 21
104.692
  0
LINE
  8
0
 10
51.4961
 20
104.692
 11
51.2576
 21
104.518
  0
LINE
  8
0
 10
51.2576
 20
104.518
 11
50.9993
 21
104.376
  0
LINE
  8
0
 10
50.9993
 20
104.376
 11
50.7253
 21
104.268
  0
LINE
  8
0
 10
50.7253
 20
104.268
 11
50.4398
 21
104.195
  0
LINE
  8
0
 10
50.4398
 20
104.195
 11
50.1474
 21
104.158
  0
LINE
  8
0
 10
50.1474
 20
104.158
 11
49.8526
 21
104.158
  0
LINE
  8
0
 10
57.4058
 20
105.003
 11
57.2189
 21
105.027
  0
LINE
  8
0
 10
57.2189
 20
105.027
 11
57.0365
 21
105.073
  0
LINE
  8
0
 10
57.0365
 20
105.073
 11
56.8613
 21
105.143
  0
LINE
  8
0
 10
56.8613
 20
105.143
 11
56.6963
 21
105.234
  0
LINE
  8
0
 10
56.6963
 20
105.234
 11
56.5439
 21
105.344
  0
LINE
  8
0
 10
56.5439
 20
105.344
 11
56.4065
 21
105.473
  0
LINE
  8
0
 10
56.4065
 20
105.473
 11
56.2865
 21
105.618
  0
LINE
  8
0
 10
56.2865
 20
105.618
 11
56.1855
 21
105.777
  0
LINE
  8
0
 10
56.1855
 20
105.777
 11
56.1053
 21
105.948
  0
LINE
  8
0
 10
56.1053
 20
105.948
 11
56.0471
 21
106.127
  0
LINE
  8
0
 10
56.0471
 20
106.127
 11
56.0118
 21
106.312
  0
LINE
  8
0
 10
56.0118
 20
106.312
 11
56
 21
106.5
  0
LINE
  8
0
 10
56
 20
106.5
 11
56.0118
 21
106.688
  0
LINE
  8
0
 10
56.0118
 20
106.688
 11
56.0471
 21
106.873
  0
LINE
  8
0
 10
56.0471
 20
106.873
 11
56.1053
 21
107.052
  0
LINE
  8
0
 10
56.1053
 20
107.052
 11
56.1855
 21
107.223
  0
LINE
  8
0
 10
56.1855
 20
107.223
 11
56.2865
 21
107.382
  0
LINE
  8
0
 10
56.2865
 20
107.382
 11
56.4065
 21
107.527
  0
LINE
  8
0
 10
56.4065
 20
107.527
 11
56.5439
 21
107.656
  0
LINE
  8
0
 10
56.5439
 20
107.656
 11
56.6963
 21
107.766
  0
LINE
  8
0
 10
56.6963
 20
107.766
 11
56.8613
 21
107.857
  0
LINE
  8
0
 10
56.8613
 20
107.857
 11
57.0365
 21
107.927
  0
LINE
  8
0
 10
57.0365
 20
107.927
 11
57.2189
 21
107.973
  0
LINE
  8
0
 10
57.2189
 20
107.973
 11
57.4058
 21
107.997
  0
LINE
  8
0
 10
57.4058
 20
107.997
 11
57.5942
 21
107.997
  0
LINE
  8
0
 10
57.5942
 20
107.997
 11
57.7811
 21
107.973
  0
LINE
  8
0
 10
57.7811
 20
107.973
 11
57.9635
 21
107.927
  0
LINE
  8
0
 10
57.9635
 20
107.927
 11
58.1387
 21
107.857
  0
LINE
  8
0
 10
58.1387
 20
107.857
 11
58.3037
 21
107.766
  0
LINE
  8
0
 10
58.3037
 20
107.766
 11
58.4561
 21
107.656
  0
LINE
  8
0
 10
58.4561
 20
107.656
 11
58.5934
 21
107.527
  0
LINE
  8
0
 10
58.5934
 20
107.527
 11
58.7135
 21
107.382
  0
LINE
  8
0
 10
58.7135
 20
107.382
 11
58.8145
 21
107.223
  0
LINE
  8
0
 10
58.8145
 20
107.223
 11
58.8947
 21
107.052
  0
LINE
  8
0
 10
58.8947
 20
107.052
 11
58.9529
 21
106.873
  0
LINE
  8
0
 10
58.9529
 20
106.873
 11
58.9882
 21
106.688
  0
LINE
  8
0
 10
58.9882
 20
106.688
 11
59
 21
106.5
  0
LINE
  8
0
 10
59
 20
106.5
 11
58.9882
 21
106.312
  0
LINE
  8
0
 10
58.9882
 20
106.312
 11
58.9529
 21
106.127
  0
LINE
  8
0
 10
58.9529
 20
106.127
 11
58.8947
 21
105.948
  0
LINE
  8
0
 10
58.8947
 20
105.948
 11
58.8145
 21
105.777
  0
LINE
  8
0
 10
58.8145
 20
105.777
 11
58.7135
 21
105.618
  0
LINE
  8
0
 10
58.7135
 20
105.618
 11
58.5934
 21
105.473
  0
LINE
  8
0
 10
58.5934
 20
105.473
 11
58.4561
 21
105.344
  0
LINE
  8
0
 10
58.4561
 20
105.344
 11
58.3037
 21
105.234
  0
LINE
  8
0
 10
58.3037
 20
105.234
 11
58.1387
 21
105.143
  0
LINE
  8
0
 10
58.1387
 20
105.143
 11
57.9635
 21
105.073
  0
LINE
  8
0
 10
57.9635
 20
105.073
 11
57.7811
 21
105.027
  0
LINE
  8
0
 10
57.7811
 20
105.027
 11
57.5942
 21
105.003
  0
LINE
  8
0
 10
57.5942
 20
105.003
 11
57.4058
 21
105.003
  0
LINE
  8
0
 10
42.4058
 20
105.003
 11
42.2189
 21
105.027
  0
LINE
  8
0
 10
42.2189
 20
105.027
 11
42.0365
 21
105.073
  0
LINE
  8
0
 10
42.0365
 20
105.073
 11
41.8613
 21
105.143
  0
LINE
  8
0
 10
41.8613
 20
105.143
 11
41.6963
 21
105.234
  0
LINE
  8
0
 10
41.6963
 20
105.234
 11
41.5439
 21
105.344
  0
LINE
  8
0
 10
41.5439
 20
105.344
 11
41.4065
 21
105.473
  0
LINE
  8
0
 10
41.4065
 20
105.473
 11
41.2865
 21
105.618
  0
LINE
  8
0
 10
41.2865
 20
105.618
 11
41.1855
 21
105.777
  0
LINE
  8
0
 10
41.1855
 20
105.777
 11
41.1053
 21
105.948
  0
LINE
  8
0
 10
41.1053
 20
105.948
 11
41.0471
 21
106.127
  0
LINE
  8
0
 10
41.0471
 20
106.127
 11
41.0118
 21
106.312
  0
LINE
  8
0
 10
41.0118
 20
106.312
 11
41
 21
106.5
  0
LINE
  8
0
 10
41
 20
106.5
 11
41.0118
 21
106.688
  0
LINE
  8
0
 10
41.0118
 20
106.688
 11
41.0471
 21
106.873
  0
LINE
  8
0
 10
41.0471
 20
106.873
 11
41.1053
 21
107.052
  0
LINE
  8
0
 10
41.1053
 20
107.052
 11
41.1855
 21
107.223
  0
LINE
  8
0
 10
41.1855
 20
107.223
 11
41.2865
 21
107.382
  0
LINE
  8
0
 10
41.2865
 20
107.382
 11
41.4065
 21
107.527
  0
LINE
  8
0
 10
41.4065
 20
107.527
 11
41.5439
 21
107.656
  0
LINE
  8
0
 10
41.5439
 20
107.656
 11
41.6963
 21
107.766
  0
LINE
  8
0
 10
41.6963
 20
107.766
 11
41.8613
 21
107.857
  0
LINE
  8
0
 10
41.8613
 20
107.857
 11
42.0365
 21
107.927
  0
LINE
  8
0
 10
42.0365
 20
107.927
 11
42.2189
 21
107.973
  0
LINE
  8
0
 10
42.2189
 20
107.973
 11
42.4058
 21
107.997
  0
LINE
  8
0
 10
42.4058
 20
107.997
 11
42.5942
 21
107.997
  0
LINE
  8
0
 10
42.5942
 20
107.997
 11
42.7811
 21
107.973
  0
LINE
  8
0
 10
42.7811
 20
107.973
 11
42.9635
 21
107.927
  0
LINE
  8
0
 10
42.9635
 20
107.927
 11
43.1387
 21
107.857
  0
LINE
  8
0
 10
43.1387
 20
107.857
 11
43.3037
 21
107.766
  0
LINE
  8
0
 10
43.3037
 20
107.766
 11
43.4561
 21
107.656
  0
LINE
  8
0
 10
43.4561
 20
107.656
 11
43.5934
 21
107.527
  0
LINE
  8
0
 10
43.5934
 20
107.527
 11
43.7135
 21
107.382
  0
LINE
  8
0
 10
43.7135
 20
107.382
 11
43.8145
 21
107.223
  0
LINE
  8
0
 10
43.8145
 20
107.223
 11
43.8947
 21
107.052
  0
LINE
  8
0
 10
43.8947
 20
107.052
 11
43.9529
 21
106.873
  0
LINE
  8
0
 10
43.9529
 20
106.873
 11
43.9882
 21
106.688
  0
LINE
  8
0
 10
43.9882
 20
106.688
 11
44
 21
106.5
  0
LINE
  8
0
 10
44
 20
106.5
 11
43.9882
 21
106.312
  0
LINE
  8
0
 10
43.9882
 20
106.312
 11
43.9529
 21
106.127
  0
LINE
  8
0
 10
43.9529
 20
106.127
 11
43.8947
 21
105.948
  0
LINE
  8
0
 10
43.8947
 20
105.948
 11
43.8145
 21
105.777
  0
LINE
  8
0
 10
43.8145
 20
105.777
 11
43.7135
 21
105.618
  0
LINE
  8
0
 10
43.7135
 20
105.618
 11
43.5934
 21
105.473
  0
LINE
  8
0
 10
43.5934
 20
105.473
 11
43.4561
 21
105.344
  0
LINE
  8
0
 10
43.4561
 20
105.344
 11
43.3037
 21
105.234
  0
LINE
  8
0
 10
43.3037
 20
105.234
 11
43.1387
 21
105.143
  0
LINE
  8
0
 10
43.1387
 20
105.143
 11
42.9635
 21
105.073
  0
LINE
  8
0
 10
42.9635
 20
105.073
 11
42.7811
 21
105.027
  0
LINE
  8
0
 10
42.7811
 20
105.027
 11
42.5942
 21
105.003
  0
LINE
  8
0
 10
42.5942
 20
105.003
 11
42.4058
 21
105.003
  0
LINE
  8
0
 10
49.8526
 20
59.1576
 11
49.5602
 21
59.1945
  0
LINE
  8
0
 10
49.5602
 20
59.1945
 11
49.2747
 21
59.2678
  0
LINE
  8
0
 10
49.2747
 20
59.2678
 11
49.0007
 21
59.3763
  0
LINE
  8
0
 10
49.0007
 20
59.3763
 11
48.7424
 21
59.5183
  0
LINE
  8
0
 10
48.7424
 20
59.5183
 11
48.5039
 21
59.6916
  0
LINE
  8
0
 10
48.5039
 20
59.6916
 11
48.2891
 21
59.8933
  0
LINE
  8
0
 10
48.2891
 20
59.8933
 11
48.1012
 21
60.1204
  0
LINE
  8
0
 10
48.1012
 20
60.1204
 11
47.9433
 21
60.3693
  0
LINE
  8
0
 10
47.9433
 20
60.3693
 11
47.8177
 21
60.636
  0
LINE
  8
0
 10
47.8177
 20
60.636
 11
47.7267
 21
60.9163
  0
LINE
  8
0
 10
47.7267
 20
60.9163
 11
47.6714
 21
61.2058
  0
LINE
  8
0
 10
47.6714
 20
61.2058
 11
47.6529
 21
61.5
  0
LINE
  8
0
 10
47.6529
 20
61.5
 11
47.6714
 21
61.7942
  0
LINE
  8
0
 10
47.6714
 20
61.7942
 11
47.7267
 21
62.0837
  0
LINE
  8
0
 10
47.7267
 20
62.0837
 11
47.8177
 21
62.364
  0
LINE
  8
0
 10
47.8177
 20
62.364
 11
47.9433
 21
62.6307
  0
LINE
  8
0
 10
47.9433
 20
62.6307
 11
48.1012
 21
62.8796
  0
LINE
  8
0
 10
48.1012
 20
62.8796
 11
48.2891
 21
63.1067
  0
LINE
  8
0
 10
48.2891
 20
63.1067
 11
48.5039
 21
63.3084
  0
LINE
  8
0
 10
48.5039
 20
63.3084
 11
48.7424
 21
63.4817
  0
LINE
  8
0
 10
48.7424
 20
63.4817
 11
49.0007
 21
63.6237
  0
LINE
  8
0
 10
49.0007
 20
63.6237
 11
49.2747
 21
63.7322
  0
LINE
  8
0
 10
49.2747
 20
63.7322
 11
49.5602
 21
63.8055
  0
LINE
  8
0
 10
49.5602
 20
63.8055
 11
49.8526
 21
63.8424
  0
LINE
  8
0
 10
49.8526
 20
63.8424
 11
50.1474
 21
63.8424
  0
LINE
  8
0
 10
50.1474
 20
63.8424
 11
50.4398
 21
63.8055
  0
LINE
  8
0
 10
50.4398
 20
63.8055
 11
50.7253
 21
63.7322
  0
LINE
  8
0
 10
50.7253
 20
63.7322
 11
50.9993
 21
63.6237
  0
LINE
  8
0
 10
50.9993
 20
63.6237
 11
51.2576
 21
63.4817
  0
LINE
  8
0
 10
51.2576
 20
63.4817
 11
51.4961
 21
63.3084
  0
LINE
  8
0
 10
51.4961
 20
63.3084
 11
51.7109
 21
63.1067
  0
LINE
  8
0
 10
51.7109
 20
63.1067
 11
51.8988
 21
62.8796
  0
LINE
  8
0
 10
51.8988
 20
62.8796
 11
52.0567
 21
62.6307
  0
LINE
  8
0
 10
52.0567
 20
62.6307
 11
52.1822
 21
62.364
  0
LINE
  8
0
 10
52.1822
 20
62.364
 11
52.2733
 21
62.0837
  0
LINE
  8
0
 10
52.2733
 20
62.0837
 11
52.3286
 21
61.7942
  0
LINE
  8
0
 10
52.3286
 20
61.7942
 11
52.347
 21
61.5
  0
LINE
  8
0
 10
52.347
 20
61.5
 11
52.3286
 21
61.2058
  0
LINE
  8
0
 10
52.3286
 20
61.2058
 11
52.2733
 21
60.9163
  0
LINE
  8
0
 10
52.2733
 20
60.9163
 11
52.1822
 21
60.636
  0
LINE
  8
0
 10
52.1822
 20
60.636
 11
52.0567
 21
60.3693
  0
LINE
  8
0
 10
52.0567
 20
60.3693
 11
51.8988
 21
60.1204
  0
LINE
  8
0
 10
51.8988
 20
60.1204
 11
51.7109
 21
59.8933
  0
LINE
  8
0
 10
51.7109
 20
59.8933
 11
51.4961
 21
59.6916
  0
LINE
  8
0
 10
51.4961
 20
59.6916
 11
51.2576
 21
59.5183
  0
LINE
  8
0
 10
51.2576
 20
59.5183
 11
50.9993
 21
59.3763
  0
LINE
  8
0
 10
50.9993
 20
59.3763
 11
50.7253
 21
59.2678
  0
LINE
  8
0
 10
50.7253
 20
59.2678
 11
50.4398
 21
59.1945
  0
LINE
  8
0
 10
50.4398
 20
59.1945
 11
50.1474
 21
59.1576
  0
LINE
  8
0
 10
50.1474
 20
59.1576
 11
49.8526
 21
59.1576
  0
LINE
  8
0
 10
42.4058
 20
60.003
 11
42.2189
 21
60.0266
  0
LINE
  8
0
 10
42.2189
 20
60.0266
 11
42.0365
 21
60.0734
  0
LINE
  8
0
 10
42.0365
 20
60.0734
 11
41.8613
 21
60.1428
  0
LINE
  8
0
 10
41.8613
 20
60.1428
 11
41.6963
 21
60.2335
  0
LINE
  8
0
 10
41.6963
 20
60.2335
 11
41.5439
 21
60.3442
  0
LINE
  8
0
 10
41.5439
 20
60.3442
 11
41.4065
 21
60.4732
  0
LINE
  8
0
 10
41.4065
 20
60.4732
 11
41.2865
 21
60.6183
  0
LINE
  8
0
 10
41.2865
 20
60.6183
 11
41.1855
 21
60.7774
  0
LINE
  8
0
 10
41.1855
 20
60.7774
 11
41.1053
 21
60.9478
  0
LINE
  8
0
 10
41.1053
 20
60.9478
 11
41.0471
 21
61.127
  0
LINE
  8
0
 10
41.0471
 20
61.127
 11
41.0118
 21
61.312
  0
LINE
  8
0
 10
41.0118
 20
61.312
 11
41
 21
61.5
  0
LINE
  8
0
 10
41
 20
61.5
 11
41.0118
 21
61.688
  0
LINE
  8
0
 10
41.0118
 20
61.688
 11
41.0471
 21
61.873
  0
LINE
  8
0
 10
41.0471
 20
61.873
 11
41.1053
 21
62.0522
  0
LINE
  8
0
 10
41.1053
 20
62.0522
 11
41.1855
 21
62.2226
  0
LINE
  8
0
 10
41.1855
 20
62.2226
 11
41.2865
 21
62.3817
  0
LINE
  8
0
 10
41.2865
 20
62.3817
 11
41.4065
 21
62.5268
  0
LINE
  8
0
 10
41.4065
 20
62.5268
 11
41.5439
 21
62.6558
  0
LINE
  8
0
 10
41.5439
 20
62.6558
 11
41.6963
 21
62.7665
  0
LINE
  8
0
 10
41.6963
 20
62.7665
 11
41.8613
 21
62.8573
  0
LINE
  8
0
 10
41.8613
 20
62.8573
 11
42.0365
 21
62.9266
  0
LINE
  8
0
 10
42.0365
 20
62.9266
 11
42.2189
 21
62.9734
  0
LINE
  8
0
 10
42.2189
 20
62.9734
 11
42.4058
 21
62.997
  0
LINE
  8
0
 10
42.4058
 20
62.997
 11
42.5942
 21
62.997
  0
LINE
  8
0
 10
42.5942
 20
62.997
 11
42.7811
 21
62.9734
  0
LINE
  8
0
 10
42.7811
 20
62.9734
 11
42.9635
 21
62.9266
  0
LINE
  8
0
 10
42.9635
 20
62.9266
 11
43.1387
 21
62.8573
  0
LINE
  8
0
 10
43.1387
 20
62.8573
 11
43.3037
 21
62.7665
  0
LINE
  8
0
 10
43.3037
 20
62.7665
 11
43.4561
 21
62.6558
  0
LINE
  8
0
 10
43.4561
 20
62.6558
 11
43.5934
 21
62.5268
  0
LINE
  8
0
 10
43.5934
 20
62.5268
 11
43.7135
 21
62.3817
  0
LINE
  8
0
 10
43.7135
 20
62.3817
 11
43.8145
 21
62.2226
  0
LINE
  8
0
 10
43.8145
 20
62.2226
 11
43.8947
 21
62.0522
  0
LINE
  8
0
 10
43.8947
 20
62.0522
 11
43.9529
 21
61.873
  0
LINE
  8
0
 10
43.9529
 20
61.873
 11
43.9882
 21
61.688
  0
LINE
  8
0
 10
43.9882
 20
61.688
 11
44
 21
61.5
  0
LINE
  8
0
 10
44
 20
61.5
 11
43.9882
 21
61.312
  0
LINE
  8
0
 10
43.9882
 20
61.312
 11
43.9529
 21
61.127
  0
LINE
  8
0
 10
43.9529
 20
61.127
 11
43.8947
 21
60.9478
  0
LINE
  8
0
 10
43.8947
 20
60.9478
 11
43.8145
 21
60.7774
  0
LINE
  8
0
 10
43.8145
 20
60.7774
 11
43.7135
 21
60.6183
  0
LINE
  8
0
 10
43.7135
 20
60.6183
 11
43.5934
 21
60.4732
  0
LINE
  8
0
 10
43.5934
 20
60.4732
 11
43.4561
 21
60.3442
  0
LINE
  8
0
 10
43.4561
 20
60.3442
 11
43.3037
 21
60.2335
  0
LINE
  8
0
 10
43.3037
 20
60.2335
 11
43.1387
 21
60.1428
  0
LINE
  8
0
 10
43.1387
 20
60.1428
 11
42.9635
 21
60.0734
  0
LINE
  8
0
 10
42.9635
 20
60.0734
 11
42.7811
 21
60.0266
  0
LINE
  8
0
 10
42.7811
 20
60.0266
 11
42.5942
 21
60.003
  0
LINE
  8
0
 10
42.5942
 20
60.003
 11
42.4058
 21
60.003
  0
LINE
  8
0
 10
57.4058
 20
60.003
 11
57.2189
 21
60.0266
  0
LINE
  8
0
 10
57.2189
 20
60.0266
 11
57.0365
 21
60.0734
  0
LINE
  8
0
 10
57.0365
 20
60.0734
 11
56.8613
 21
60.1428
  0
LINE
  8
0
 10
56.8613
 20
60.1428
 11
56.6963
 21
60.2335
  0
LINE
  8
0
 10
56.6963
 20
60.2335
 11
56.5439
 21
60.3442
  0
LINE
  8
0
 10
56.5439
 20
60.3442
 11
56.4065
 21
60.4732
  0
LINE
  8
0
 10
56.4065
 20
60.4732
 11
56.2865
 21
60.6183
  0
LINE
  8
0
 10
56.2865
 20
60.6183
 11
56.1855
 21
60.7774
  0
LINE
  8
0
 10
56.1855
 20
60.7774
 11
56.1053
 21
60.9478
  0
LINE
  8
0
 10
56.1053
 20
60.9478
 11
56.0471
 21
61.127
  0
LINE
  8
0
 10
56.0471
 20
61.127
 11
56.0118
 21
61.312
  0
LINE
  8
0
 10
56.0118
 20
61.312
 11
56
 21
61.5
  0
LINE
  8
0
 10
56
 20
61.5
 11
56.0118
 21
61.688
  0
LINE
  8
0
 10
56.0118
 20
61.688
 11
56.0471
 21
61.873
  0
LINE
  8
0
 10
56.0471
 20
61.873
 11
56.1053
 21
62.0522
  0
LINE
  8
0
 10
56.1053
 20
62.0522
 11
56.1855
 21
62.2226
  0
LINE
  8
0
 10
56.1855
 20
62.2226
 11
56.2865
 21
62.3817
  0
LINE
  8
0
 10
56.2865
 20
62.3817
 11
56.4065
 21
62.5268
  0
LINE
  8
0
 10
56.4065
 20
62.5268
 11
56.5439
 21
62.6558
  0
LINE
  8
0
 10
56.5439
 20
62.6558
 11
56.6963
 21
62.7665
  0
LINE
  8
0
 10
56.6963
 20
62.7665
 11
56.8613
 21
62.8573
  0
LINE
  8
0
 10
56.8613
 20
62.8573
 11
57.0365
 21
62.9266
  0
LINE
  8
0
 10
57.0365
 20
62.9266
 11
57.2189
 21
62.9734
  0
LINE
  8
0
 10
57.2189
 20
62.9734
 11
57.4058
 21
62.997
  0
LINE
  8
0
 10
57.4058
 20
62.997
 11
57.5942
 21
62.997
  0
LINE
  8
0
 10
57.5942
 20
62.997
 11
57.7811
 21
62.9734
  0
LINE
  8
0
 10
57.7811
 20
62.9734
 11
57.9635
 21
62.9266
  0
LINE
  8
0
 10
57.9635
 20
62.9266
 11
58.1387
 21
62.8573
  0
LINE
  8
0
 10
58.1387
 20
62.8573
 11
58.3037
 21
62.7665
  0
LINE
  8
0
 10
58.3037
 20
62.7665
 11
58.4561
 21
62.6558
  0
LINE
  8
0
 10
58.4561
 20
62.6558
 11
58.5934
 21
62.5268
  0
LINE
  8
0
 10
58.5934
 20
62.5268
 11
58.7135
 21
62.3817
  0
LINE
  8
0
 10
58.7135
 20
62.3817
 11
58.8145
 21
62.2226
  0
LINE
  8
0
 10
58.8145
 20
62.2226
 11
58.8947
 21
62.0522
  0
LINE
  8
0
 10
58.8947
 20
62.0522
 11
58.9529
 21
61.873
  0
LINE
  8
0
 10
58.9529
 20
61.873
 11
58.9882
 21
61.688
  0
LINE
  8
0
 10
58.9882
 20
61.688
 11
59
 21
61.5
  0
LINE
  8
0
 10
59
 20
61.5
 11
58.9882
 21
61.312
  0
LINE
  8
0
 10
58.9882
 20
61.312
 11
58.9529
 21
61.127
  0
LINE
  8
0
 10
58.9529
 20
61.127
 11
58.8947
 21
60.9478
  0
LINE
  8
0
 10
58.8947
 20
60.9478
 11
58.8145
 21
60.7774
  0
LINE
  8
0
 10
58.8145
 20
60.7774
 11
58.7135
 21
60.6183
  0
LINE
  8
0
 10
58.7135
 20
60.6183
 11
58.5934
 21
60.4732
  0
LINE
  8
0
 10
58.5934
 20
60.4732
 11
58.4561
 21
60.3442
  0
LINE
  8
0
 10
58.4561
 20
60.3442
 11
58.3037
 21
60.2335
  0
LINE
  8
0
 10
58.3037
 20
60.2335
 11
58.1387
 21
60.1428
  0
LINE
  8
0
 10
58.1387
 20
60.1428
 11
57.9635
 21
60.0734
  0
LINE
  8
0
 10
57.9635
 20
60.0734
 11
57.7811
 21
60.0266
  0
LINE
  8
0
 10
57.7811
 20
60.0266
 11
57.5942
 21
60.003
  0
LINE
  8
0
 10
57.5942
 20
60.003
 11
57.4058
 21
60.003
  0
LINE
  8
0
 10
57.3116
 20
51.0059
 11
56.9379
 21
51.0531
  0
LINE
  8
0
 10
56.9379
 20
51.0531
 11
56.5729
 21
51.1468
  0
LINE
  8
0
 10
56.5729
 20
51.1468
 11
56.2227
 21
51.2855
  0
LINE
  8
0
 10
56.2227
 20
51.2855
 11
55.8925
 21
51.467
  0
LINE
  8
0
 10
55.8925
 20
51.467
 11
55.5877
 21
51.6885
  0
LINE
  8
0
 10
55.5877
 20
51.6885
 11
55.3131
 21
51.9464
  0
LINE
  8
0
 10
55.3131
 20
51.9464
 11
55.0729
 21
52.2366
  0
LINE
  8
0
 10
55.0729
 20
52.2366
 11
54.8711
 21
52.5547
  0
LINE
  8
0
 10
54.8711
 20
52.5547
 11
54.7107
 21
52.8956
  0
LINE
  8
0
 10
54.7107
 20
52.8956
 11
54.5942
 21
53.2539
  0
LINE
  8
0
 10
54.5942
 20
53.2539
 11
54.5237
 21
53.624
  0
LINE
  8
0
 10
54.5237
 20
53.624
 11
54.5
 21
54
  0
LINE
  8
0
 10
54.5
 20
54
 11
54.5237
 21
54.376
  0
LINE
  8
0
 10
54.5237
 20
54.376
 11
54.5942
 21
54.7461
  0
LINE
  8
0
 10
54.5942
 20
54.7461
 11
54.7107
 21
55.1044
  0
LINE
  8
0
 10
54.7107
 20
55.1044
 11
54.8711
 21
55.4453
  0
LINE
  8
0
 10
54.8711
 20
55.4453
 11
55.0729
 21
55.7634
  0
LINE
  8
0
 10
55.0729
 20
55.7634
 11
55.3131
 21
56.0536
  0
LINE
  8
0
 10
55.3131
 20
56.0536
 11
55.5877
 21
56.3116
  0
LINE
  8
0
 10
55.5877
 20
56.3116
 11
55.8925
 21
56.533
  0
LINE
  8
0
 10
55.8925
 20
56.533
 11
56.2227
 21
56.7145
  0
LINE
  8
0
 10
56.2227
 20
56.7145
 11
56.5729
 21
56.8532
  0
LINE
  8
0
 10
56.5729
 20
56.8532
 11
56.9379
 21
56.9469
  0
LINE
  8
0
 10
56.9379
 20
56.9469
 11
57.3116
 21
56.9941
  0
LINE
  8
0
 10
57.3116
 20
56.9941
 11
57.6884
 21
56.9941
  0
LINE
  8
0
 10
57.6884
 20
56.9941
 11
58.0621
 21
56.9469
  0
LINE
  8
0
 10
58.0621
 20
56.9469
 11
58.427
 21
56.8532
  0
LINE
  8
0
 10
58.427
 20
56.8532
 11
58.7773
 21
56.7145
  0
LINE
  8
0
 10
58.7773
 20
56.7145
 11
59.1075
 21
56.533
  0
LINE
  8
0
 10
59.1075
 20
56.533
 11
59.4123
 21
56.3116
  0
LINE
  8
0
 10
59.4123
 20
56.3116
 11
59.6869
 21
56.0536
  0
LINE
  8
0
 10
59.6869
 20
56.0536
 11
59.927
 21
55.7634
  0
LINE
  8
0
 10
59.927
 20
55.7634
 11
60.1289
 21
55.4453
  0
LINE
  8
0
 10
60.1289
 20
55.4453
 11
60.2893
 21
55.1044
  0
LINE
  8
0
 10
60.2893
 20
55.1044
 11
60.4057
 21
54.7461
  0
LINE
  8
0
 10
60.4057
 20
54.7461
 11
60.4763
 21
54.376
  0
LINE
  8
0
 10
60.4763
 20
54.376
 11
60.5
 21
54
  0
LINE
  8
0
 10
60.5
 20
54
 11
60.4763
 21
53.624
  0
LINE
  8
0
 10
60.4763
 20
53.624
 11
60.4057
 21
53.2539
  0
LINE
  8
0
 10
60.4057
 20
53.2539
 11
60.2893
 21
52.8956
  0
LINE
  8
0
 10
60.2893
 20
52.8956
 11
60.1289
 21
52.5547
  0
LINE
  8
0
 10
60.1289
 20
52.5547
 11
59.927
 21
52.2366
  0
LINE
  8
0
 10
59.927
 20
52.2366
 11
59.6869
 21
51.9464
  0
LINE
  8
0
 10
59.6869
 20
51.9464
 11
59.4123
 21
51.6885
  0
LINE
  8
0
 10
59.4123
 20
51.6885
 11
59.1075
 21
51.467
  0
LINE
  8
0
 10
59.1075
 20
51.467
 11
58.7773
 21
51.2855
  0
LINE
  8
0
 10
58.7773
 20
51.2855
 11
58.427
 21
51.1468
  0
LINE
  8
0
 10
58.427
 20
51.1468
 11
58.0621
 21
51.0531
  0
LINE
  8
0
 10
58.0621
 20
51.0531
 11
57.6884
 21
51.0059
  0
LINE
  8
0
 10
57.6884
 20
51.0059
 11
57.3116
 21
51.0059
  0
LINE
  8
0
 10
42.3116
 20
51.0059
 11
41.9379
 21
51.0531
  0
LINE
  8
0
 10
41.9379
 20
51.0531
 11
41.5729
 21
51.1468
  0
LINE
  8
0
 10
41.5729
 20
51.1468
 11
41.2227
 21
51.2855
  0
LINE
  8
0
 10
41.2227
 20
51.2855
 11
40.8925
 21
51.467
  0
LINE
  8
0
 10
40.8925
 20
51.467
 11
40.5877
 21
51.6885
  0
LINE
  8
0
 10
40.5877
 20
51.6885
 11
40.3131
 21
51.9464
  0
LINE
  8
0
 10
40.3131
 20
51.9464
 11
40.0729
 21
52.2366
  0
LINE
  8
0
 10
40.0729
 20
52.2366
 11
39.8711
 21
52.5547
  0
LINE
  8
0
 10
39.8711
 20
52.5547
 11
39.7107
 21
52.8956
  0
LINE
  8
0
 10
39.7107
 20
52.8956
 11
39.5942
 21
53.2539
  0
LINE
  8
0
 10
39.5942
 20
53.2539
 11
39.5237
 21
53.624
  0
LINE
  8
0
 10
39.5237
 20
53.624
 11
39.5
 21
54
  0
LINE
  8
0
 10
39.5
 20
54
 11
39.5237
 21
54.376
  0
LINE
  8
0
 10
39.5237
 20
54.376
 11
39.5942
 21
54.7461
  0
LINE
  8
0
 10
39.5942
 20
54.7461
 11
39.7107
 21
55.1044
  0
LINE
  8
0
 10
39.7107
 20
55.1044
 11
39.8711
 21
55.4453
  0
LINE
  8
0
 10
39.8711
 20
55.4453
 11
40.0729
 21
55.7634
  0
LINE
  8
0
 10
40.0729
 20
55.7634
 11
40.3131
 21
56.0536
  0
LINE
  8
0
 10
40.3131
 20
56.0536
 11
40.5877
 21
56.3116
  0
LINE
  8
0
 10
40.5877
 20
56.3116
 11
40.8925
 21
56.533
  0
LINE
  8
0
 10
40.8925
 20
56.533
 11
41.2227
 21
56.7145
  0
LINE
  8
0
 10
41.2227
 20
56.7145
 11
41.5729
 21
56.8532
  0
LINE
  8
0
 10
41.5729
 20
56.8532
 11
41.9379
 21
56.9469
  0
LINE
  8
0
 10
41.9379
 20
56.9469
 11
42.3116
 21
56.9941
  0
LINE
  8
0
 10
42.3116
 20
56.9941
 11
42.6884
 21
56.9941
  0
LINE
  8
0
 10
42.6884
 20
56.9941
 11
43.0621
 21
56.9469
  0
LINE
  8
0
 10
43.0621
 20
56.9469
 11
43.427
 21
56.8532
  0
LINE
  8
0
 10
43.427
 20
56.8532
 11
43.7773
 21
56.7145
  0
LINE
  8
0
 10
43.7773
 20
56.7145
 11
44.1075
 21
56.533
  0
LINE
  8
0
 10
44.1075
 20
56.533
 11
44.4123
 21
56.3116
  0
LINE
  8
0
 10
44.4123
 20
56.3116
 11
44.6869
 21
56.0536
  0
LINE
  8
0
 10
44.6869
 20
56.0536
 11
44.927
 21
55.7634
  0
LINE
  8
0
 10
44.927
 20
55.7634
 11
45.1289
 21
55.4453
  0
LINE
  8
0
 10
45.1289
 20
55.4453
 11
45.2893
 21
55.1044
  0
LINE
  8
0
 10
45.2893
 20
55.1044
 11
45.4057
 21
54.7461
  0
LINE
  8
0
 10
45.4057
 20
54.7461
 11
45.4763
 21
54.376
  0
LINE
  8
0
 10
45.4763
 20
54.376
 11
45.5
 21
54
  0
LINE
  8
0
 10
45.5
 20
54
 11
45.4763
 21
53.624
  0
LINE
  8
0
 10
45.4763
 20
53.624
 11
45.4057
 21
53.2539
  0
LINE
  8
0
 10
45.4057
 20
53.2539
 11
45.2893
 21
52.8956
  0
LINE
  8
0
 10
45.2893
 20
52.8956
 11
45.1289
 21
52.5547
  0
LINE
  8
0
 10
45.1289
 20
52.5547
 11
44.927
 21
52.2366
  0
LINE
  8
0
 10
44.927
 20
52.2366
 11
44.6869
 21
51.9464
  0
LINE
  8
0
 10
44.6869
 20
51.9464
 11
44.4123
 21
51.6885
  0
LINE
  8
0
 10
44.4123
 20
51.6885
 11
44.1075
 21
51.467
  0
LINE
  8
0
 10
44.1075
 20
51.467
 11
43.7773
 21
51.2855
  0
LINE
  8
0
 10
43.7773
 20
51.2855
 11
43.427
 21
51.1468
  0
LINE
  8
0
 10
43.427
 20
51.1468
 11
43.0621
 21
51.0531
  0
LINE
  8
0
 10
43.0621
 20
51.0531
 11
42.6884
 21
51.0059
  0
LINE
  8
0
 10
42.6884
 20
51.0059
 11
42.3116
 21
51.0059
  0
LINE
  8
0
 10
49.9058
 20
52.503
 11
49.7189
 21
52.5266
  0
LINE
  8
0
 10
49.7189
 20
52.5266
 11
49.5365
 21
52.5734
  0
LINE
  8
0
 10
49.5365
 20
52.5734
 11
49.3613
 21
52.6428
  0
LINE
  8
0
 10
49.3613
 20
52.6428
 11
49.1963
 21
52.7335
  0
LINE
  8
0
 10
49.1963
 20
52.7335
 11
49.0439
 21
52.8442
  0
LINE
  8
0
 10
49.0439
 20
52.8442
 11
48.9065
 21
52.9732
  0
LINE
  8
0
 10
48.9065
 20
52.9732
 11
48.7865
 21
53.1183
  0
LINE
  8
0
 10
48.7865
 20
53.1183
 11
48.6855
 21
53.2774
  0
LINE
  8
0
 10
48.6855
 20
53.2774
 11
48.6053
 21
53.4478
  0
LINE
  8
0
 10
48.6053
 20
53.4478
 11
48.5471
 21
53.627
  0
LINE
  8
0
 10
48.5471
 20
53.627
 11
48.5118
 21
53.812
  0
LINE
  8
0
 10
48.5118
 20
53.812
 11
48.5
 21
54
  0
LINE
  8
0
 10
48.5
 20
54
 11
48.5118
 21
54.188
  0
LINE
  8
0
 10
48.5118
 20
54.188
 11
48.5471
 21
54.373
  0
LINE
  8
0
 10
48.5471
 20
54.373
 11
48.6053
 21
54.5522
  0
LINE
  8
0
 10
48.6053
 20
54.5522
 11
48.6855
 21
54.7226
  0
LINE
  8
0
 10
48.6855
 20
54.7226
 11
48.7865
 21
54.8817
  0
LINE
  8
0
 10
48.7865
 20
54.8817
 11
48.9065
 21
55.0268
  0
LINE
  8
0
 10
48.9065
 20
55.0268
 11
49.0439
 21
55.1558
  0
LINE
  8
0
 10
49.0439
 20
55.1558
 11
49.1963
 21
55.2665
  0
LINE
  8
0
 10
49.1963
 20
55.2665
 11
49.3613
 21
55.3573
  0
LINE
  8
0
 10
49.3613
 20
55.3573
 11
49.5365
 21
55.4266
  0
LINE
  8
0
 10
49.5365
 20
55.4266
 11
49.7189
 21
55.4734
  0
LINE
  8
0
 10
49.7189
 20
55.4734
 11
49.9058
 21
55.497
  0
LINE
  8
0
 10
49.9058
 20
55.497
 11
50.0942
 21
55.497
  0
LINE
  8
0
 10
50.0942
 20
55.497
 11
50.2811
 21
55.4734
  0
LINE
  8
0
 10
50.2811
 20
55.4734
 11
50.4635
 21
55.4266
  0
LINE
  8
0
 10
50.4635
 20
55.4266
 11
50.6387
 21
55.3573
  0
LINE
  8
0
 10
50.6387
 20
55.3573
 11
50.8037
 21
55.2665
  0
LINE
  8
0
 10
50.8037
 20
55.2665
 11
50.9561
 21
55.1558
  0
LINE
  8
0
 10
50.9561
 20
55.1558
 11
51.0934
 21
55.0268
  0
LINE
  8
0
 10
51.0934
 20
55.0268
 11
51.2135
 21
54.8817
  0
LINE
  8
0
 10
51.2135
 20
54.8817
 11
51.3145
 21
54.7226
  0
LINE
  8
0
 10
51.3145
 20
54.7226
 11
51.3947
 21
54.5522
  0
LINE
  8
0
 10
51.3947
 20
54.5522
 11
51.4529
 21
54.373
  0
LINE
  8
0
 10
51.4529
 20
54.373
 11
51.4882
 21
54.188
  0
LINE
  8
0
 10
51.4882
 20
54.188
 11
51.5
 21
54
  0
LINE
  8
0
 10
51.5
 20
54
 11
51.4882
 21
53.812
  0
LINE
  8
0
 10
51.4882
 20
53.812
 11
51.4529
 21
53.627
  0
LINE
  8
0
 10
51.4529
 20
53.627
 11
51.3947
 21
53.4478
  0
LINE
  8
0
 10
51.3947
 20
53.4478
 11
51.3145
 21
53.2774
  0
LINE
  8
0
 10
51.3145
 20
53.2774
 11
51.2135
 21
53.1183
  0
LINE
  8
0
 10
51.2135
 20
53.1183
 11
51.0934
 21
52.9732
  0
LINE
  8
0
 10
51.0934
 20
52.9732
 11
50.9561
 21
52.8442
  0
LINE
  8
0
 10
50.9561
 20
52.8442
 11
50.8037
 21
52.7335
  0
LINE
  8
0
 10
50.8037
 20
52.7335
 11
50.6387
 21
52.6428
  0
LINE
  8
0
 10
50.6387
 20
52.6428
 11
50.4635
 21
52.5734
  0
LINE
  8
0
 10
50.4635
 20
52.5734
 11
50.2811
 21
52.5266
  0
LINE
  8
0
 10
50.2811
 20
52.5266
 11
50.0942
 21
52.503
  0
LINE
  8
0
 10
50.0942
 20
52.503
 11
49.9058
 21
52.503
  0
ENDSEC
  0
SECTION
  2
OBJECTS
  0
DICTIONARY
  0
ENDSEC
  0
EOF
