  0
SECTION
  2
BLOCKS
  0
ENDSEC
  0
SECTION
  2
ENTITIES
  0
LINE
  8
0
 10
7
 20
389
 11
6.96057
 21
389.627
  0
LINE
  8
0
 10
6.96057
 20
389.627
 11
6.84291
 21
390.243
  0
LINE
  8
0
 10
6.84291
 20
390.243
 11
6.64888
 21
390.841
  0
LINE
  8
0
 10
6.64888
 20
390.841
 11
6.38153
 21
391.409
  0
LINE
  8
0
 10
6.38153
 20
391.409
 11
6.04507
 21
391.939
  0
LINE
  8
0
 10
6.04507
 20
391.939
 11
5.64484
 21
392.423
  0
LINE
  8
0
 10
5.64484
 20
392.423
 11
5.18712
 21
392.853
  0
LINE
  8
0
 10
5.18712
 20
392.853
 11
4.67912
 21
393.222
  0
LINE
  8
0
 10
4.67912
 20
393.222
 11
4.12889
 21
393.524
  0
LINE
  8
0
 10
4.12889
 20
393.524
 11
3.54507
 21
393.755
  0
LINE
  8
0
 10
3.54507
 20
393.755
 11
2.9369
 21
393.911
  0
LINE
  8
0
 10
2.9369
 20
393.911
 11
2.31395
 21
393.99
  0
LINE
  8
0
 10
2.31395
 20
393.99
 11
-2.31395
 21
393.99
  0
LINE
  8
0
 10
-2.31395
 20
393.99
 11
-2.9369
 21
393.911
  0
LINE
  8
0
 10
-2.9369
 20
393.911
 11
-3.54507
 21
393.755
  0
LINE
  8
0
 10
-3.54507
 20
393.755
 11
-4.12889
 21
393.524
  0
LINE
  8
0
 10
-4.12889
 20
393.524
 11
-4.67912
 21
393.222
  0
LINE
  8
0
 10
-4.67912
 20
393.222
 11
-5.18712
 21
392.853
  0
LINE
  8
0
 10
-5.18712
 20
392.853
 11
-5.64484
 21
392.423
  0
LINE
  8
0
 10
-5.64484
 20
392.423
 11
-6.04507
 21
391.939
  0
LINE
  8
0
 10
-6.04507
 20
391.939
 11
-6.38153
 21
391.409
  0
LINE
  8
0
 10
-6.38153
 20
391.409
 11
-6.64888
 21
390.841
  0
LINE
  8
0
 10
-6.64888
 20
390.841
 11
-6.84291
 21
390.243
  0
LINE
  8
0
 10
-6.84291
 20
390.243
 11
-6.96057
 21
389.627
  0
LINE
  8
0
 10
-6.96057
 20
389.627
 11
-7
 21
389
  0
LINE
  8
0
 10
-7
 20
389
 11
-7
 21
369.592
  0
LINE
  8
0
 10
-7
 20
369.592
 11
7
 21
369.592
  0
LINE
  8
0
 10
7
 20
369.592
 11
7
 21
389
  0
LINE
  8
0
 10
-0.194641
 20
383.906
 11
-0.580872
 21
383.955
  0
LINE
  8
0
 10
-0.580872
 20
383.955
 11
-0.957947
 21
384.052
  0
LINE
  8
0
 10
-0.957947
 20
384.052
 11
-1.3199
 21
384.195
  0
LINE
  8
0
 10
-1.3199
 20
384.195
 11
-1.66106
 21
384.383
  0
LINE
  8
0
 10
-1.66106
 20
384.383
 11
-1.97601
 21
384.611
  0
LINE
  8
0
 10
-1.97601
 20
384.611
 11
-2.2598
 21
384.878
  0
LINE
  8
0
 10
-2.2598
 20
384.878
 11
-2.50795
 21
385.178
  0
LINE
  8
0
 10
-2.50795
 20
385.178
 11
-2.71654
 21
385.507
  0
LINE
  8
0
 10
-2.71654
 20
385.507
 11
-2.88229
 21
385.859
  0
LINE
  8
0
 10
-2.88229
 20
385.859
 11
-3.00259
 21
386.229
  0
LINE
  8
0
 10
-3.00259
 20
386.229
 11
-3.07555
 21
386.611
  0
LINE
  8
0
 10
-3.07555
 20
386.611
 11
-3.09999
 21
387
  0
LINE
  8
0
 10
-3.09999
 20
387
 11
-3.07555
 21
387.389
  0
LINE
  8
0
 10
-3.07555
 20
387.389
 11
-3.00259
 21
387.771
  0
LINE
  8
0
 10
-3.00259
 20
387.771
 11
-2.88229
 21
388.141
  0
LINE
  8
0
 10
-2.88229
 20
388.141
 11
-2.71654
 21
388.493
  0
LINE
  8
0
 10
-2.71654
 20
388.493
 11
-2.50795
 21
388.822
  0
LINE
  8
0
 10
-2.50795
 20
388.822
 11
-2.2598
 21
389.122
  0
LINE
  8
0
 10
-2.2598
 20
389.122
 11
-1.97601
 21
389.389
  0
LINE
  8
0
 10
-1.97601
 20
389.389
 11
-1.66106
 21
389.617
  0
LINE
  8
0
 10
-1.66106
 20
389.617
 11
-1.3199
 21
389.805
  0
LINE
  8
0
 10
-1.3199
 20
389.805
 11
-0.957947
 21
389.948
  0
LINE
  8
0
 10
-0.957947
 20
389.948
 11
-0.580872
 21
390.045
  0
LINE
  8
0
 10
-0.580872
 20
390.045
 11
-0.194641
 21
390.094
  0
LINE
  8
0
 10
-0.194641
 20
390.094
 11
0.194641
 21
390.094
  0
LINE
  8
0
 10
0.194641
 20
390.094
 11
0.580872
 21
390.045
  0
LINE
  8
0
 10
0.580872
 20
390.045
 11
0.957947
 21
389.948
  0
LINE
  8
0
 10
0.957947
 20
389.948
 11
1.3199
 21
389.805
  0
LINE
  8
0
 10
1.3199
 20
389.805
 11
1.66106
 21
389.617
  0
LINE
  8
0
 10
1.66106
 20
389.617
 11
1.97601
 21
389.389
  0
LINE
  8
0
 10
1.97601
 20
389.389
 11
2.2598
 21
389.122
  0
LINE
  8
0
 10
2.2598
 20
389.122
 11
2.50795
 21
388.822
  0
LINE
  8
0
 10
2.50795
 20
388.822
 11
2.71654
 21
388.493
  0
LINE
  8
0
 10
2.71654
 20
388.493
 11
2.88229
 21
388.141
  0
LINE
  8
0
 10
2.88229
 20
388.141
 11
3.00259
 21
387.771
  0
LINE
  8
0
 10
3.00259
 20
387.771
 11
3.07555
 21
387.389
  0
LINE
  8
0
 10
3.07555
 20
387.389
 11
3.09999
 21
387
  0
LINE
  8
0
 10
3.09999
 20
387
 11
3.07555
 21
386.611
  0
LINE
  8
0
 10
3.07555
 20
386.611
 11
3.00259
 21
386.229
  0
LINE
  8
0
 10
3.00259
 20
386.229
 11
2.88229
 21
385.859
  0
LINE
  8
0
 10
2.88229
 20
385.859
 11
2.71654
 21
385.507
  0
LINE
  8
0
 10
2.71654
 20
385.507
 11
2.50795
 21
385.178
  0
LINE
  8
0
 10
2.50795
 20
385.178
 11
2.2598
 21
384.878
  0
LINE
  8
0
 10
2.2598
 20
384.878
 11
1.97601
 21
384.611
  0
LINE
  8
0
 10
1.97601
 20
384.611
 11
1.66106
 21
384.383
  0
LINE
  8
0
 10
1.66106
 20
384.383
 11
1.3199
 21
384.195
  0
LINE
  8
0
 10
1.3199
 20
384.195
 11
0.957947
 21
384.052
  0
LINE
  8
0
 10
0.957947
 20
384.052
 11
0.580872
 21
383.955
  0
LINE
  8
0
 10
0.580872
 20
383.955
 11
0.194641
 21
383.906
  0
LINE
  8
0
 10
0.194641
 20
383.906
 11
-0.194641
 21
383.906
  0
LINE
  8
0
 10
-0.113022
 20
377.704
 11
-0.33728
 21
377.732
  0
LINE
  8
0
 10
-0.33728
 20
377.732
 11
-0.556229
 21
377.788
  0
LINE
  8
0
 10
-0.556229
 20
377.788
 11
-0.766388
 21
377.871
  0
LINE
  8
0
 10
-0.766388
 20
377.871
 11
-0.964478
 21
377.98
  0
LINE
  8
0
 10
-0.964478
 20
377.98
 11
-1.14735
 21
378.113
  0
LINE
  8
0
 10
-1.14735
 20
378.113
 11
-1.31213
 21
378.268
  0
LINE
  8
0
 10
-1.31213
 20
378.268
 11
-1.45622
 21
378.442
  0
LINE
  8
0
 10
-1.45622
 20
378.442
 11
-1.57735
 21
378.633
  0
LINE
  8
0
 10
-1.57735
 20
378.633
 11
-1.67358
 21
378.837
  0
LINE
  8
0
 10
-1.67358
 20
378.837
 11
-1.74344
 21
379.052
  0
LINE
  8
0
 10
-1.74344
 20
379.052
 11
-1.7858
 21
379.274
  0
LINE
  8
0
 10
-1.7858
 20
379.274
 11
-1.79999
 21
379.5
  0
LINE
  8
0
 10
-1.79999
 20
379.5
 11
-1.7858
 21
379.726
  0
LINE
  8
0
 10
-1.7858
 20
379.726
 11
-1.74344
 21
379.948
  0
LINE
  8
0
 10
-1.74344
 20
379.948
 11
-1.67358
 21
380.163
  0
LINE
  8
0
 10
-1.67358
 20
380.163
 11
-1.57735
 21
380.367
  0
LINE
  8
0
 10
-1.57735
 20
380.367
 11
-1.45622
 21
380.558
  0
LINE
  8
0
 10
-1.45622
 20
380.558
 11
-1.31213
 21
380.732
  0
LINE
  8
0
 10
-1.31213
 20
380.732
 11
-1.14735
 21
380.887
  0
LINE
  8
0
 10
-1.14735
 20
380.887
 11
-0.964478
 21
381.02
  0
LINE
  8
0
 10
-0.964478
 20
381.02
 11
-0.766388
 21
381.129
  0
LINE
  8
0
 10
-0.766388
 20
381.129
 11
-0.556229
 21
381.212
  0
LINE
  8
0
 10
-0.556229
 20
381.212
 11
-0.33728
 21
381.268
  0
LINE
  8
0
 10
-0.33728
 20
381.268
 11
-0.113022
 21
381.296
  0
LINE
  8
0
 10
-0.113022
 20
381.296
 11
0.113022
 21
381.296
  0
LINE
  8
0
 10
0.113022
 20
381.296
 11
0.33728
 21
381.268
  0
LINE
  8
0
 10
0.33728
 20
381.268
 11
0.556229
 21
381.212
  0
LINE
  8
0
 10
0.556229
 20
381.212
 11
0.766388
 21
381.129
  0
LINE
  8
0
 10
0.766388
 20
381.129
 11
0.964478
 21
381.02
  0
LINE
  8
0
 10
0.964478
 20
381.02
 11
1.14735
 21
380.887
  0
LINE
  8
0
 10
1.14735
 20
380.887
 11
1.31213
 21
380.732
  0
LINE
  8
0
 10
1.31213
 20
380.732
 11
1.45622
 21
380.558
  0
LINE
  8
0
 10
1.45622
 20
380.558
 11
1.57735
 21
380.367
  0
LINE
  8
0
 10
1.57735
 20
380.367
 11
1.67358
 21
380.163
  0
LINE
  8
0
 10
1.67358
 20
380.163
 11
1.74344
 21
379.948
  0
LINE
  8
0
 10
1.74344
 20
379.948
 11
1.7858
 21
379.726
  0
LINE
  8
0
 10
1.7858
 20
379.726
 11
1.79999
 21
379.5
  0
LINE
  8
0
 10
1.79999
 20
379.5
 11
1.7858
 21
379.274
  0
LINE
  8
0
 10
1.7858
 20
379.274
 11
1.74344
 21
379.052
  0
LINE
  8
0
 10
1.74344
 20
379.052
 11
1.67358
 21
378.837
  0
LINE
  8
0
 10
1.67358
 20
378.837
 11
1.57735
 21
378.633
  0
LINE
  8
0
 10
1.57735
 20
378.633
 11
1.45622
 21
378.442
  0
LINE
  8
0
 10
1.45622
 20
378.442
 11
1.31213
 21
378.268
  0
LINE
  8
0
 10
1.31213
 20
378.268
 11
1.14735
 21
378.113
  0
LINE
  8
0
 10
1.14735
 20
378.113
 11
0.964478
 21
377.98
  0
LINE
  8
0
 10
0.964478
 20
377.98
 11
0.766388
 21
377.871
  0
LINE
  8
0
 10
0.766388
 20
377.871
 11
0.556229
 21
377.788
  0
LINE
  8
0
 10
0.556229
 20
377.788
 11
0.33728
 21
377.732
  0
LINE
  8
0
 10
0.33728
 20
377.732
 11
0.113022
 21
377.704
  0
LINE
  8
0
 10
0.113022
 20
377.704
 11
-0.113022
 21
377.704
  0
LINE
  8
0
 10
57
 20
389
 11
56.9606
 21
389.627
  0
LINE
  8
0
 10
56.9606
 20
389.627
 11
56.8429
 21
390.243
  0
LINE
  8
0
 10
56.8429
 20
390.243
 11
56.6489
 21
390.841
  0
LINE
  8
0
 10
56.6489
 20
390.841
 11
56.3815
 21
391.409
  0
LINE
  8
0
 10
56.3815
 20
391.409
 11
56.0451
 21
391.939
  0
LINE
  8
0
 10
56.0451
 20
391.939
 11
55.6448
 21
392.423
  0
LINE
  8
0
 10
55.6448
 20
392.423
 11
55.1871
 21
392.853
  0
LINE
  8
0
 10
55.1871
 20
392.853
 11
54.6791
 21
393.222
  0
LINE
  8
0
 10
54.6791
 20
393.222
 11
54.1289
 21
393.524
  0
LINE
  8
0
 10
54.1289
 20
393.524
 11
53.5451
 21
393.755
  0
LINE
  8
0
 10
53.5451
 20
393.755
 11
52.9369
 21
393.911
  0
LINE
  8
0
 10
52.9369
 20
393.911
 11
52.3139
 21
393.99
  0
LINE
  8
0
 10
52.3139
 20
393.99
 11
47.686
 21
393.99
  0
LINE
  8
0
 10
47.686
 20
393.99
 11
47.0631
 21
393.911
  0
LINE
  8
0
 10
47.0631
 20
393.911
 11
46.4549
 21
393.755
  0
LINE
  8
0
 10
46.4549
 20
393.755
 11
45.8711
 21
393.524
  0
LINE
  8
0
 10
45.8711
 20
393.524
 11
45.3209
 21
393.222
  0
LINE
  8
0
 10
45.3209
 20
393.222
 11
44.8129
 21
392.853
  0
LINE
  8
0
 10
44.8129
 20
392.853
 11
44.3551
 21
392.423
  0
LINE
  8
0
 10
44.3551
 20
392.423
 11
43.9549
 21
391.939
  0
LINE
  8
0
 10
43.9549
 20
391.939
 11
43.6185
 21
391.409
  0
LINE
  8
0
 10
43.6185
 20
391.409
 11
43.3511
 21
390.841
  0
LINE
  8
0
 10
43.3511
 20
390.841
 11
43.1571
 21
390.243
  0
LINE
  8
0
 10
43.1571
 20
390.243
 11
43.0394
 21
389.627
  0
LINE
  8
0
 10
43.0394
 20
389.627
 11
43
 21
389
  0
LINE
  8
0
 10
43
 20
389
 11
43
 21
369.592
  0
LINE
  8
0
 10
43
 20
369.592
 11
57
 21
369.592
  0
LINE
  8
0
 10
57
 20
369.592
 11
57
 21
389
  0
LINE
  8
0
 10
49.8116
 20
384.006
 11
49.4379
 21
384.053
  0
LINE
  8
0
 10
49.4379
 20
384.053
 11
49.0729
 21
384.147
  0
LINE
  8
0
 10
49.0729
 20
384.147
 11
48.7227
 21
384.286
  0
LINE
  8
0
 10
48.7227
 20
384.286
 11
48.3925
 21
384.467
  0
LINE
  8
0
 10
48.3925
 20
384.467
 11
48.0877
 21
384.688
  0
LINE
  8
0
 10
48.0877
 20
384.688
 11
47.8131
 21
384.946
  0
LINE
  8
0
 10
47.8131
 20
384.946
 11
47.5729
 21
385.237
  0
LINE
  8
0
 10
47.5729
 20
385.237
 11
47.3711
 21
385.555
  0
LINE
  8
0
 10
47.3711
 20
385.555
 11
47.2107
 21
385.896
  0
LINE
  8
0
 10
47.2107
 20
385.896
 11
47.0942
 21
386.254
  0
LINE
  8
0
 10
47.0942
 20
386.254
 11
47.0237
 21
386.624
  0
LINE
  8
0
 10
47.0237
 20
386.624
 11
47
 21
387
  0
LINE
  8
0
 10
47
 20
387
 11
47.0237
 21
387.376
  0
LINE
  8
0
 10
47.0237
 20
387.376
 11
47.0942
 21
387.746
  0
LINE
  8
0
 10
47.0942
 20
387.746
 11
47.2107
 21
388.104
  0
LINE
  8
0
 10
47.2107
 20
388.104
 11
47.3711
 21
388.445
  0
LINE
  8
0
 10
47.3711
 20
388.445
 11
47.5729
 21
388.763
  0
LINE
  8
0
 10
47.5729
 20
388.763
 11
47.8131
 21
389.054
  0
LINE
  8
0
 10
47.8131
 20
389.054
 11
48.0877
 21
389.312
  0
LINE
  8
0
 10
48.0877
 20
389.312
 11
48.3925
 21
389.533
  0
LINE
  8
0
 10
48.3925
 20
389.533
 11
48.7227
 21
389.714
  0
LINE
  8
0
 10
48.7227
 20
389.714
 11
49.0729
 21
389.853
  0
LINE
  8
0
 10
49.0729
 20
389.853
 11
49.4379
 21
389.947
  0
LINE
  8
0
 10
49.4379
 20
389.947
 11
49.8116
 21
389.994
  0
LINE
  8
0
 10
49.8116
 20
389.994
 11
50.1884
 21
389.994
  0
LINE
  8
0
 10
50.1884
 20
389.994
 11
50.5621
 21
389.947
  0
LINE
  8
0
 10
50.5621
 20
389.947
 11
50.927
 21
389.853
  0
LINE
  8
0
 10
50.927
 20
389.853
 11
51.2773
 21
389.714
  0
LINE
  8
0
 10
51.2773
 20
389.714
 11
51.6075
 21
389.533
  0
LINE
  8
0
 10
51.6075
 20
389.533
 11
51.9123
 21
389.312
  0
LINE
  8
0
 10
51.9123
 20
389.312
 11
52.1869
 21
389.054
  0
LINE
  8
0
 10
52.1869
 20
389.054
 11
52.427
 21
388.763
  0
LINE
  8
0
 10
52.427
 20
388.763
 11
52.6289
 21
388.445
  0
LINE
  8
0
 10
52.6289
 20
388.445
 11
52.7893
 21
388.104
  0
LINE
  8
0
 10
52.7893
 20
388.104
 11
52.9057
 21
387.746
  0
LINE
  8
0
 10
52.9057
 20
387.746
 11
52.9763
 21
387.376
  0
LINE
  8
0
 10
52.9763
 20
387.376
 11
53
 21
387
  0
LINE
  8
0
 10
53
 20
387
 11
52.9763
 21
386.624
  0
LINE
  8
0
 10
52.9763
 20
386.624
 11
52.9057
 21
386.254
  0
LINE
  8
0
 10
52.9057
 20
386.254
 11
52.7893
 21
385.896
  0
LINE
  8
0
 10
52.7893
 20
385.896
 11
52.6289
 21
385.555
  0
LINE
  8
0
 10
52.6289
 20
385.555
 11
52.427
 21
385.237
  0
LINE
  8
0
 10
52.427
 20
385.237
 11
52.1869
 21
384.946
  0
LINE
  8
0
 10
52.1869
 20
384.946
 11
51.9123
 21
384.688
  0
LINE
  8
0
 10
51.9123
 20
384.688
 11
51.6075
 21
384.467
  0
LINE
  8
0
 10
51.6075
 20
384.467
 11
51.2773
 21
384.286
  0
LINE
  8
0
 10
51.2773
 20
384.286
 11
50.927
 21
384.147
  0
LINE
  8
0
 10
50.927
 20
384.147
 11
50.5621
 21
384.053
  0
LINE
  8
0
 10
50.5621
 20
384.053
 11
50.1884
 21
384.006
  0
LINE
  8
0
 10
50.1884
 20
384.006
 11
49.8116
 21
384.006
  0
LINE
  8
0
 10
49.887
 20
377.704
 11
49.6627
 21
377.732
  0
LINE
  8
0
 10
49.6627
 20
377.732
 11
49.4438
 21
377.788
  0
LINE
  8
0
 10
49.4438
 20
377.788
 11
49.2336
 21
377.871
  0
LINE
  8
0
 10
49.2336
 20
377.871
 11
49.0355
 21
377.98
  0
LINE
  8
0
 10
49.0355
 20
377.98
 11
48.8526
 21
378.113
  0
LINE
  8
0
 10
48.8526
 20
378.113
 11
48.6879
 21
378.268
  0
LINE
  8
0
 10
48.6879
 20
378.268
 11
48.5438
 21
378.442
  0
LINE
  8
0
 10
48.5438
 20
378.442
 11
48.4226
 21
378.633
  0
LINE
  8
0
 10
48.4226
 20
378.633
 11
48.3264
 21
378.837
  0
LINE
  8
0
 10
48.3264
 20
378.837
 11
48.2565
 21
379.052
  0
LINE
  8
0
 10
48.2565
 20
379.052
 11
48.2142
 21
379.274
  0
LINE
  8
0
 10
48.2142
 20
379.274
 11
48.2
 21
379.5
  0
LINE
  8
0
 10
48.2
 20
379.5
 11
48.2142
 21
379.726
  0
LINE
  8
0
 10
48.2142
 20
379.726
 11
48.2565
 21
379.948
  0
LINE
  8
0
 10
48.2565
 20
379.948
 11
48.3264
 21
380.163
  0
LINE
  8
0
 10
48.3264
 20
380.163
 11
48.4226
 21
380.367
  0
LINE
  8
0
 10
48.4226
 20
380.367
 11
48.5438
 21
380.558
  0
LINE
  8
0
 10
48.5438
 20
380.558
 11
48.6879
 21
380.732
  0
LINE
  8
0
 10
48.6879
 20
380.732
 11
48.8526
 21
380.887
  0
LINE
  8
0
 10
48.8526
 20
380.887
 11
49.0355
 21
381.02
  0
LINE
  8
0
 10
49.0355
 20
381.02
 11
49.2336
 21
381.129
  0
LINE
  8
0
 10
49.2336
 20
381.129
 11
49.4438
 21
381.212
  0
LINE
  8
0
 10
49.4438
 20
381.212
 11
49.6627
 21
381.268
  0
LINE
  8
0
 10
49.6627
 20
381.268
 11
49.887
 21
381.296
  0
LINE
  8
0
 10
49.887
 20
381.296
 11
50.113
 21
381.296
  0
LINE
  8
0
 10
50.113
 20
381.296
 11
50.3373
 21
381.268
  0
LINE
  8
0
 10
50.3373
 20
381.268
 11
50.5562
 21
381.212
  0
LINE
  8
0
 10
50.5562
 20
381.212
 11
50.7664
 21
381.129
  0
LINE
  8
0
 10
50.7664
 20
381.129
 11
50.9645
 21
381.02
  0
LINE
  8
0
 10
50.9645
 20
381.02
 11
51.1474
 21
380.887
  0
LINE
  8
0
 10
51.1474
 20
380.887
 11
51.3121
 21
380.732
  0
LINE
  8
0
 10
51.3121
 20
380.732
 11
51.4562
 21
380.558
  0
LINE
  8
0
 10
51.4562
 20
380.558
 11
51.5773
 21
380.367
  0
LINE
  8
0
 10
51.5773
 20
380.367
 11
51.6736
 21
380.163
  0
LINE
  8
0
 10
51.6736
 20
380.163
 11
51.7434
 21
379.948
  0
LINE
  8
0
 10
51.7434
 20
379.948
 11
51.7858
 21
379.726
  0
LINE
  8
0
 10
51.7858
 20
379.726
 11
51.8
 21
379.5
  0
LINE
  8
0
 10
51.8
 20
379.5
 11
51.7858
 21
379.274
  0
LINE
  8
0
 10
51.7858
 20
379.274
 11
51.7434
 21
379.052
  0
LINE
  8
0
 10
51.7434
 20
379.052
 11
51.6736
 21
378.837
  0
LINE
  8
0
 10
51.6736
 20
378.837
 11
51.5773
 21
378.633
  0
LINE
  8
0
 10
51.5773
 20
378.633
 11
51.4562
 21
378.442
  0
LINE
  8
0
 10
51.4562
 20
378.442
 11
51.3121
 21
378.268
  0
LINE
  8
0
 10
51.3121
 20
378.268
 11
51.1474
 21
378.113
  0
LINE
  8
0
 10
51.1474
 20
378.113
 11
50.9645
 21
377.98
  0
LINE
  8
0
 10
50.9645
 20
377.98
 11
50.7664
 21
377.871
  0
LINE
  8
0
 10
50.7664
 20
377.871
 11
50.5562
 21
377.788
  0
LINE
  8
0
 10
50.5562
 20
377.788
 11
50.3373
 21
377.732
  0
LINE
  8
0
 10
50.3373
 20
377.732
 11
50.113
 21
377.704
  0
LINE
  8
0
 10
50.113
 20
377.704
 11
49.887
 21
377.704
  0
LINE
  8
0
 10
7
 20
364.408
 11
-7
 21
364.408
  0
LINE
  8
0
 10
-7
 20
364.408
 11
-7
 21
359.592
  0
LINE
  8
0
 10
-7
 20
359.592
 11
7
 21
359.592
  0
LINE
  8
0
 10
7
 20
359.592
 11
7
 21
364.408
  0
LINE
  8
0
 10
57
 20
364.408
 11
43
 21
364.408
  0
LINE
  8
0
 10
43
 20
364.408
 11
43
 21
359.592
  0
LINE
  8
0
 10
43
 20
359.592
 11
57
 21
359.592
  0
LINE
  8
0
 10
57
 20
359.592
 11
57
 21
364.408
  0
LINE
  8
0
 10
57
 20
354.408
 11
43
 21
354.408
  0
LINE
  8
0
 10
43
 20
354.408
 11
43
 21
349.592
  0
LINE
  8
0
 10
43
 20
349.592
 11
57
 21
349.592
  0
LINE
  8
0
 10
57
 20
349.592
 11
57
 21
354.408
  0
LINE
  8
0
 10
7
 20
354.408
 11
-7
 21
354.408
  0
LINE
  8
0
 10
-7
 20
354.408
 11
-7
 21
349.592
  0
LINE
  8
0
 10
-7
 20
349.592
 11
7
 21
349.592
  0
LINE
  8
0
 10
7
 20
349.592
 11
7
 21
354.408
  0
LINE
  8
0
 10
57
 20
344.408
 11
43
 21
344.408
  0
LINE
  8
0
 10
43
 20
344.408
 11
43
 21
339.592
  0
LINE
  8
0
 10
43
 20
339.592
 11
57
 21
339.592
  0
LINE
  8
0
 10
57
 20
339.592
 11
57
 21
344.408
  0
LINE
  8
0
 10
7
 20
344.408
 11
-7
 21
344.408
  0
LINE
  8
0
 10
-7
 20
344.408
 11
-7
 21
339.592
  0
LINE
  8
0
 10
-7
 20
339.592
 11
7
 21
339.592
  0
LINE
  8
0
 10
7
 20
339.592
 11
7
 21
344.408
  0
LINE
  8
0
 10
7
 20
334.408
 11
-7
 21
334.408
  0
LINE
  8
0
 10
-7
 20
334.408
 11
-7
 21
329.592
  0
LINE
  8
0
 10
-7
 20
329.592
 11
7
 21
329.592
  0
LINE
  8
0
 10
7
 20
329.592
 11
7
 21
334.408
  0
LINE
  8
0
 10
57
 20
334.408
 11
43
 21
334.408
  0
LINE
  8
0
 10
43
 20
334.408
 11
43
 21
329.592
  0
LINE
  8
0
 10
43
 20
329.592
 11
57
 21
329.592
  0
LINE
  8
0
 10
57
 20
329.592
 11
57
 21
334.408
  0
LINE
  8
0
 10
57
 20
324.408
 11
43
 21
324.408
  0
LINE
  8
0
 10
43
 20
324.408
 11
43
 21
319.592
  0
LINE
  8
0
 10
43
 20
319.592
 11
57
 21
319.592
  0
LINE
  8
0
 10
57
 20
319.592
 11
57
 21
324.408
  0
LINE
  8
0
 10
7
 20
324.408
 11
-7
 21
324.408
  0
LINE
  8
0
 10
-7
 20
324.408
 11
-7
 21
319.592
  0
LINE
  8
0
 10
-7
 20
319.592
 11
7
 21
319.592
  0
LINE
  8
0
 10
7
 20
319.592
 11
7
 21
324.408
  0
LINE
  8
0
 10
52.9369
 20
290.089
 11
53.5451
 21
290.245
  0
LINE
  8
0
 10
53.5451
 20
290.245
 11
54.1289
 21
290.476
  0
LINE
  8
0
 10
54.1289
 20
290.476
 11
54.6791
 21
290.778
  0
LINE
  8
0
 10
54.6791
 20
290.778
 11
55.1871
 21
291.147
  0
LINE
  8
0
 10
55.1871
 20
291.147
 11
55.6448
 21
291.577
  0
LINE
  8
0
 10
55.6448
 20
291.577
 11
56.0451
 21
292.061
  0
LINE
  8
0
 10
56.0451
 20
292.061
 11
56.3815
 21
292.591
  0
LINE
  8
0
 10
56.3815
 20
292.591
 11
56.6489
 21
293.159
  0
LINE
  8
0
 10
56.6489
 20
293.159
 11
56.8429
 21
293.757
  0
LINE
  8
0
 10
56.8429
 20
293.757
 11
56.9606
 21
294.373
  0
LINE
  8
0
 10
56.9606
 20
294.373
 11
57
 21
295
  0
LINE
  8
0
 10
57
 20
295
 11
57
 21
314.408
  0
LINE
  8
0
 10
57
 20
314.408
 11
43
 21
314.408
  0
LINE
  8
0
 10
43
 20
314.408
 11
43
 21
295
  0
LINE
  8
0
 10
43
 20
295
 11
43.0394
 21
294.373
  0
LINE
  8
0
 10
43.0394
 20
294.373
 11
43.1571
 21
293.757
  0
LINE
  8
0
 10
43.1571
 20
293.757
 11
43.3511
 21
293.159
  0
LINE
  8
0
 10
43.3511
 20
293.159
 11
43.6185
 21
292.591
  0
LINE
  8
0
 10
43.6185
 20
292.591
 11
43.9549
 21
292.061
  0
LINE
  8
0
 10
43.9549
 20
292.061
 11
44.3551
 21
291.577
  0
LINE
  8
0
 10
44.3551
 20
291.577
 11
44.8129
 21
291.147
  0
LINE
  8
0
 10
44.8129
 20
291.147
 11
45.3209
 21
290.778
  0
LINE
  8
0
 10
45.3209
 20
290.778
 11
45.8711
 21
290.476
  0
LINE
  8
0
 10
45.8711
 20
290.476
 11
46.4549
 21
290.245
  0
LINE
  8
0
 10
46.4549
 20
290.245
 11
47.0631
 21
290.089
  0
LINE
  8
0
 10
47.0631
 20
290.089
 11
47.686
 21
290.01
  0
LINE
  8
0
 10
47.686
 20
290.01
 11
52.3139
 21
290.01
  0
LINE
  8
0
 10
52.3139
 20
290.01
 11
52.9369
 21
290.089
  0
LINE
  8
0
 10
49.887
 20
302.704
 11
49.6627
 21
302.732
  0
LINE
  8
0
 10
49.6627
 20
302.732
 11
49.4438
 21
302.788
  0
LINE
  8
0
 10
49.4438
 20
302.788
 11
49.2336
 21
302.871
  0
LINE
  8
0
 10
49.2336
 20
302.871
 11
49.0355
 21
302.98
  0
LINE
  8
0
 10
49.0355
 20
302.98
 11
48.8526
 21
303.113
  0
LINE
  8
0
 10
48.8526
 20
303.113
 11
48.6879
 21
303.268
  0
LINE
  8
0
 10
48.6879
 20
303.268
 11
48.5438
 21
303.442
  0
LINE
  8
0
 10
48.5438
 20
303.442
 11
48.4226
 21
303.633
  0
LINE
  8
0
 10
48.4226
 20
303.633
 11
48.3264
 21
303.837
  0
LINE
  8
0
 10
48.3264
 20
303.837
 11
48.2565
 21
304.052
  0
LINE
  8
0
 10
48.2565
 20
304.052
 11
48.2142
 21
304.274
  0
LINE
  8
0
 10
48.2142
 20
304.274
 11
48.2
 21
304.5
  0
LINE
  8
0
 10
48.2
 20
304.5
 11
48.2142
 21
304.726
  0
LINE
  8
0
 10
48.2142
 20
304.726
 11
48.2565
 21
304.948
  0
LINE
  8
0
 10
48.2565
 20
304.948
 11
48.3264
 21
305.163
  0
LINE
  8
0
 10
48.3264
 20
305.163
 11
48.4226
 21
305.367
  0
LINE
  8
0
 10
48.4226
 20
305.367
 11
48.5438
 21
305.558
  0
LINE
  8
0
 10
48.5438
 20
305.558
 11
48.6879
 21
305.732
  0
LINE
  8
0
 10
48.6879
 20
305.732
 11
48.8526
 21
305.887
  0
LINE
  8
0
 10
48.8526
 20
305.887
 11
49.0355
 21
306.02
  0
LINE
  8
0
 10
49.0355
 20
306.02
 11
49.2336
 21
306.129
  0
LINE
  8
0
 10
49.2336
 20
306.129
 11
49.4438
 21
306.212
  0
LINE
  8
0
 10
49.4438
 20
306.212
 11
49.6627
 21
306.268
  0
LINE
  8
0
 10
49.6627
 20
306.268
 11
49.887
 21
306.296
  0
LINE
  8
0
 10
49.887
 20
306.296
 11
50.113
 21
306.296
  0
LINE
  8
0
 10
50.113
 20
306.296
 11
50.3373
 21
306.268
  0
LINE
  8
0
 10
50.3373
 20
306.268
 11
50.5562
 21
306.212
  0
LINE
  8
0
 10
50.5562
 20
306.212
 11
50.7664
 21
306.129
  0
LINE
  8
0
 10
50.7664
 20
306.129
 11
50.9645
 21
306.02
  0
LINE
  8
0
 10
50.9645
 20
306.02
 11
51.1474
 21
305.887
  0
LINE
  8
0
 10
51.1474
 20
305.887
 11
51.3121
 21
305.732
  0
LINE
  8
0
 10
51.3121
 20
305.732
 11
51.4562
 21
305.558
  0
LINE
  8
0
 10
51.4562
 20
305.558
 11
51.5773
 21
305.367
  0
LINE
  8
0
 10
51.5773
 20
305.367
 11
51.6736
 21
305.163
  0
LINE
  8
0
 10
51.6736
 20
305.163
 11
51.7434
 21
304.948
  0
LINE
  8
0
 10
51.7434
 20
304.948
 11
51.7858
 21
304.726
  0
LINE
  8
0
 10
51.7858
 20
304.726
 11
51.8
 21
304.5
  0
LINE
  8
0
 10
51.8
 20
304.5
 11
51.7858
 21
304.274
  0
LINE
  8
0
 10
51.7858
 20
304.274
 11
51.7434
 21
304.052
  0
LINE
  8
0
 10
51.7434
 20
304.052
 11
51.6736
 21
303.837
  0
LINE
  8
0
 10
51.6736
 20
303.837
 11
51.5773
 21
303.633
  0
LINE
  8
0
 10
51.5773
 20
303.633
 11
51.4562
 21
303.442
  0
LINE
  8
0
 10
51.4562
 20
303.442
 11
51.3121
 21
303.268
  0
LINE
  8
0
 10
51.3121
 20
303.268
 11
51.1474
 21
303.113
  0
LINE
  8
0
 10
51.1474
 20
303.113
 11
50.9645
 21
302.98
  0
LINE
  8
0
 10
50.9645
 20
302.98
 11
50.7664
 21
302.871
  0
LINE
  8
0
 10
50.7664
 20
302.871
 11
50.5562
 21
302.788
  0
LINE
  8
0
 10
50.5562
 20
302.788
 11
50.3373
 21
302.732
  0
LINE
  8
0
 10
50.3373
 20
302.732
 11
50.113
 21
302.704
  0
LINE
  8
0
 10
50.113
 20
302.704
 11
49.887
 21
302.704
  0
LINE
  8
0
 10
49.8116
 20
294.006
 11
49.4379
 21
294.053
  0
LINE
  8
0
 10
49.4379
 20
294.053
 11
49.0729
 21
294.147
  0
LINE
  8
0
 10
49.0729
 20
294.147
 11
48.7227
 21
294.286
  0
LINE
  8
0
 10
48.7227
 20
294.286
 11
48.3925
 21
294.467
  0
LINE
  8
0
 10
48.3925
 20
294.467
 11
48.0877
 21
294.688
  0
LINE
  8
0
 10
48.0877
 20
294.688
 11
47.8131
 21
294.946
  0
LINE
  8
0
 10
47.8131
 20
294.946
 11
47.5729
 21
295.237
  0
LINE
  8
0
 10
47.5729
 20
295.237
 11
47.3711
 21
295.555
  0
LINE
  8
0
 10
47.3711
 20
295.555
 11
47.2107
 21
295.896
  0
LINE
  8
0
 10
47.2107
 20
295.896
 11
47.0942
 21
296.254
  0
LINE
  8
0
 10
47.0942
 20
296.254
 11
47.0237
 21
296.624
  0
LINE
  8
0
 10
47.0237
 20
296.624
 11
47
 21
297
  0
LINE
  8
0
 10
47
 20
297
 11
47.0237
 21
297.376
  0
LINE
  8
0
 10
47.0237
 20
297.376
 11
47.0942
 21
297.746
  0
LINE
  8
0
 10
47.0942
 20
297.746
 11
47.2107
 21
298.104
  0
LINE
  8
0
 10
47.2107
 20
298.104
 11
47.3711
 21
298.445
  0
LINE
  8
0
 10
47.3711
 20
298.445
 11
47.5729
 21
298.763
  0
LINE
  8
0
 10
47.5729
 20
298.763
 11
47.8131
 21
299.054
  0
LINE
  8
0
 10
47.8131
 20
299.054
 11
48.0877
 21
299.312
  0
LINE
  8
0
 10
48.0877
 20
299.312
 11
48.3925
 21
299.533
  0
LINE
  8
0
 10
48.3925
 20
299.533
 11
48.7227
 21
299.714
  0
LINE
  8
0
 10
48.7227
 20
299.714
 11
49.0729
 21
299.853
  0
LINE
  8
0
 10
49.0729
 20
299.853
 11
49.4379
 21
299.947
  0
LINE
  8
0
 10
49.4379
 20
299.947
 11
49.8116
 21
299.994
  0
LINE
  8
0
 10
49.8116
 20
299.994
 11
50.1884
 21
299.994
  0
LINE
  8
0
 10
50.1884
 20
299.994
 11
50.5621
 21
299.947
  0
LINE
  8
0
 10
50.5621
 20
299.947
 11
50.927
 21
299.853
  0
LINE
  8
0
 10
50.927
 20
299.853
 11
51.2773
 21
299.714
  0
LINE
  8
0
 10
51.2773
 20
299.714
 11
51.6075
 21
299.533
  0
LINE
  8
0
 10
51.6075
 20
299.533
 11
51.9123
 21
299.312
  0
LINE
  8
0
 10
51.9123
 20
299.312
 11
52.1869
 21
299.054
  0
LINE
  8
0
 10
52.1869
 20
299.054
 11
52.427
 21
298.763
  0
LINE
  8
0
 10
52.427
 20
298.763
 11
52.6289
 21
298.445
  0
LINE
  8
0
 10
52.6289
 20
298.445
 11
52.7893
 21
298.104
  0
LINE
  8
0
 10
52.7893
 20
298.104
 11
52.9057
 21
297.746
  0
LINE
  8
0
 10
52.9057
 20
297.746
 11
52.9763
 21
297.376
  0
LINE
  8
0
 10
52.9763
 20
297.376
 11
53
 21
297
  0
LINE
  8
0
 10
53
 20
297
 11
52.9763
 21
296.624
  0
LINE
  8
0
 10
52.9763
 20
296.624
 11
52.9057
 21
296.254
  0
LINE
  8
0
 10
52.9057
 20
296.254
 11
52.7893
 21
295.896
  0
LINE
  8
0
 10
52.7893
 20
295.896
 11
52.6289
 21
295.555
  0
LINE
  8
0
 10
52.6289
 20
295.555
 11
52.427
 21
295.237
  0
LINE
  8
0
 10
52.427
 20
295.237
 11
52.1869
 21
294.946
  0
LINE
  8
0
 10
52.1869
 20
294.946
 11
51.9123
 21
294.688
  0
LINE
  8
0
 10
51.9123
 20
294.688
 11
51.6075
 21
294.467
  0
LINE
  8
0
 10
51.6075
 20
294.467
 11
51.2773
 21
294.286
  0
LINE
  8
0
 10
51.2773
 20
294.286
 11
50.927
 21
294.147
  0
LINE
  8
0
 10
50.927
 20
294.147
 11
50.5621
 21
294.053
  0
LINE
  8
0
 10
50.5621
 20
294.053
 11
50.1884
 21
294.006
  0
LINE
  8
0
 10
50.1884
 20
294.006
 11
49.8116
 21
294.006
  0
LINE
  8
0
 10
2.9369
 20
290.089
 11
3.54507
 21
290.245
  0
LINE
  8
0
 10
3.54507
 20
290.245
 11
4.12889
 21
290.476
  0
LINE
  8
0
 10
4.12889
 20
290.476
 11
4.67912
 21
290.778
  0
LINE
  8
0
 10
4.67912
 20
290.778
 11
5.18712
 21
291.147
  0
LINE
  8
0
 10
5.18712
 20
291.147
 11
5.64484
 21
291.577
  0
LINE
  8
0
 10
5.64484
 20
291.577
 11
6.04507
 21
292.061
  0
LINE
  8
0
 10
6.04507
 20
292.061
 11
6.38153
 21
292.591
  0
LINE
  8
0
 10
6.38153
 20
292.591
 11
6.64888
 21
293.159
  0
LINE
  8
0
 10
6.64888
 20
293.159
 11
6.84291
 21
293.757
  0
LINE
  8
0
 10
6.84291
 20
293.757
 11
6.96057
 21
294.373
  0
LINE
  8
0
 10
6.96057
 20
294.373
 11
7
 21
295
  0
LINE
  8
0
 10
7
 20
295
 11
7
 21
314.408
  0
LINE
  8
0
 10
7
 20
314.408
 11
-7
 21
314.408
  0
LINE
  8
0
 10
-7
 20
314.408
 11
-7
 21
295
  0
LINE
  8
0
 10
-7
 20
295
 11
-6.96057
 21
294.373
  0
LINE
  8
0
 10
-6.96057
 20
294.373
 11
-6.84291
 21
293.757
  0
LINE
  8
0
 10
-6.84291
 20
293.757
 11
-6.64888
 21
293.159
  0
LINE
  8
0
 10
-6.64888
 20
293.159
 11
-6.38153
 21
292.591
  0
LINE
  8
0
 10
-6.38153
 20
292.591
 11
-6.04507
 21
292.061
  0
LINE
  8
0
 10
-6.04507
 20
292.061
 11
-5.64484
 21
291.577
  0
LINE
  8
0
 10
-5.64484
 20
291.577
 11
-5.18712
 21
291.147
  0
LINE
  8
0
 10
-5.18712
 20
291.147
 11
-4.67912
 21
290.778
  0
LINE
  8
0
 10
-4.67912
 20
290.778
 11
-4.12889
 21
290.476
  0
LINE
  8
0
 10
-4.12889
 20
290.476
 11
-3.54507
 21
290.245
  0
LINE
  8
0
 10
-3.54507
 20
290.245
 11
-2.9369
 21
290.089
  0
LINE
  8
0
 10
-2.9369
 20
290.089
 11
-2.31395
 21
290.01
  0
LINE
  8
0
 10
-2.31395
 20
290.01
 11
2.31395
 21
290.01
  0
LINE
  8
0
 10
2.31395
 20
290.01
 11
2.9369
 21
290.089
  0
LINE
  8
0
 10
-0.113022
 20
302.704
 11
-0.33728
 21
302.732
  0
LINE
  8
0
 10
-0.33728
 20
302.732
 11
-0.556229
 21
302.788
  0
LINE
  8
0
 10
-0.556229
 20
302.788
 11
-0.766388
 21
302.871
  0
LINE
  8
0
 10
-0.766388
 20
302.871
 11
-0.964478
 21
302.98
  0
LINE
  8
0
 10
-0.964478
 20
302.98
 11
-1.14735
 21
303.113
  0
LINE
  8
0
 10
-1.14735
 20
303.113
 11
-1.31213
 21
303.268
  0
LINE
  8
0
 10
-1.31213
 20
303.268
 11
-1.45622
 21
303.442
  0
LINE
  8
0
 10
-1.45622
 20
303.442
 11
-1.57735
 21
303.633
  0
LINE
  8
0
 10
-1.57735
 20
303.633
 11
-1.67358
 21
303.837
  0
LINE
  8
0
 10
-1.67358
 20
303.837
 11
-1.74344
 21
304.052
  0
LINE
  8
0
 10
-1.74344
 20
304.052
 11
-1.7858
 21
304.274
  0
LINE
  8
0
 10
-1.7858
 20
304.274
 11
-1.79999
 21
304.5
  0
LINE
  8
0
 10
-1.79999
 20
304.5
 11
-1.7858
 21
304.726
  0
LINE
  8
0
 10
-1.7858
 20
304.726
 11
-1.74344
 21
304.948
  0
LINE
  8
0
 10
-1.74344
 20
304.948
 11
-1.67358
 21
305.163
  0
LINE
  8
0
 10
-1.67358
 20
305.163
 11
-1.57735
 21
305.367
  0
LINE
  8
0
 10
-1.57735
 20
305.367
 11
-1.45622
 21
305.558
  0
LINE
  8
0
 10
-1.45622
 20
305.558
 11
-1.31213
 21
305.732
  0
LINE
  8
0
 10
-1.31213
 20
305.732
 11
-1.14735
 21
305.887
  0
LINE
  8
0
 10
-1.14735
 20
305.887
 11
-0.964478
 21
306.02
  0
LINE
  8
0
 10
-0.964478
 20
306.02
 11
-0.766388
 21
306.129
  0
LINE
  8
0
 10
-0.766388
 20
306.129
 11
-0.556229
 21
306.212
  0
LINE
  8
0
 10
-0.556229
 20
306.212
 11
-0.33728
 21
306.268
  0
LINE
  8
0
 10
-0.33728
 20
306.268
 11
-0.113022
 21
306.296
  0
LINE
  8
0
 10
-0.113022
 20
306.296
 11
0.113022
 21
306.296
  0
LINE
  8
0
 10
0.113022
 20
306.296
 11
0.33728
 21
306.268
  0
LINE
  8
0
 10
0.33728
 20
306.268
 11
0.556229
 21
306.212
  0
LINE
  8
0
 10
0.556229
 20
306.212
 11
0.766388
 21
306.129
  0
LINE
  8
0
 10
0.766388
 20
306.129
 11
0.964478
 21
306.02
  0
LINE
  8
0
 10
0.964478
 20
306.02
 11
1.14735
 21
305.887
  0
LINE
  8
0
 10
1.14735
 20
305.887
 11
1.31213
 21
305.732
  0
LINE
  8
0
 10
1.31213
 20
305.732
 11
1.45622
 21
305.558
  0
LINE
  8
0
 10
1.45622
 20
305.558
 11
1.57735
 21
305.367
  0
LINE
  8
0
 10
1.57735
 20
305.367
 11
1.67358
 21
305.163
  0
LINE
  8
0
 10
1.67358
 20
305.163
 11
1.74344
 21
304.948
  0
LINE
  8
0
 10
1.74344
 20
304.948
 11
1.7858
 21
304.726
  0
LINE
  8
0
 10
1.7858
 20
304.726
 11
1.79999
 21
304.5
  0
LINE
  8
0
 10
1.79999
 20
304.5
 11
1.7858
 21
304.274
  0
LINE
  8
0
 10
1.7858
 20
304.274
 11
1.74344
 21
304.052
  0
LINE
  8
0
 10
1.74344
 20
304.052
 11
1.67358
 21
303.837
  0
LINE
  8
0
 10
1.67358
 20
303.837
 11
1.57735
 21
303.633
  0
LINE
  8
0
 10
1.57735
 20
303.633
 11
1.45622
 21
303.442
  0
LINE
  8
0
 10
1.45622
 20
303.442
 11
1.31213
 21
303.268
  0
LINE
  8
0
 10
1.31213
 20
303.268
 11
1.14735
 21
303.113
  0
LINE
  8
0
 10
1.14735
 20
303.113
 11
0.964478
 21
302.98
  0
LINE
  8
0
 10
0.964478
 20
302.98
 11
0.766388
 21
302.871
  0
LINE
  8
0
 10
0.766388
 20
302.871
 11
0.556229
 21
302.788
  0
LINE
  8
0
 10
0.556229
 20
302.788
 11
0.33728
 21
302.732
  0
LINE
  8
0
 10
0.33728
 20
302.732
 11
0.113022
 21
302.704
  0
LINE
  8
0
 10
0.113022
 20
302.704
 11
-0.113022
 21
302.704
  0
LINE
  8
0
 10
-0.194641
 20
293.906
 11
-0.580872
 21
293.955
  0
LINE
  8
0
 10
-0.580872
 20
293.955
 11
-0.957947
 21
294.052
  0
LINE
  8
0
 10
-0.957947
 20
294.052
 11
-1.3199
 21
294.195
  0
LINE
  8
0
 10
-1.3199
 20
294.195
 11
-1.66106
 21
294.383
  0
LINE
  8
0
 10
-1.66106
 20
294.383
 11
-1.97601
 21
294.611
  0
LINE
  8
0
 10
-1.97601
 20
294.611
 11
-2.2598
 21
294.878
  0
LINE
  8
0
 10
-2.2598
 20
294.878
 11
-2.50795
 21
295.178
  0
LINE
  8
0
 10
-2.50795
 20
295.178
 11
-2.71654
 21
295.507
  0
LINE
  8
0
 10
-2.71654
 20
295.507
 11
-2.88229
 21
295.859
  0
LINE
  8
0
 10
-2.88229
 20
295.859
 11
-3.00259
 21
296.229
  0
LINE
  8
0
 10
-3.00259
 20
296.229
 11
-3.07555
 21
296.611
  0
LINE
  8
0
 10
-3.07555
 20
296.611
 11
-3.09999
 21
297
  0
LINE
  8
0
 10
-3.09999
 20
297
 11
-3.07555
 21
297.389
  0
LINE
  8
0
 10
-3.07555
 20
297.389
 11
-3.00259
 21
297.771
  0
LINE
  8
0
 10
-3.00259
 20
297.771
 11
-2.88229
 21
298.141
  0
LINE
  8
0
 10
-2.88229
 20
298.141
 11
-2.71654
 21
298.493
  0
LINE
  8
0
 10
-2.71654
 20
298.493
 11
-2.50795
 21
298.822
  0
LINE
  8
0
 10
-2.50795
 20
298.822
 11
-2.2598
 21
299.122
  0
LINE
  8
0
 10
-2.2598
 20
299.122
 11
-1.97601
 21
299.389
  0
LINE
  8
0
 10
-1.97601
 20
299.389
 11
-1.66106
 21
299.617
  0
LINE
  8
0
 10
-1.66106
 20
299.617
 11
-1.3199
 21
299.805
  0
LINE
  8
0
 10
-1.3199
 20
299.805
 11
-0.957947
 21
299.948
  0
LINE
  8
0
 10
-0.957947
 20
299.948
 11
-0.580872
 21
300.045
  0
LINE
  8
0
 10
-0.580872
 20
300.045
 11
-0.194641
 21
300.094
  0
LINE
  8
0
 10
-0.194641
 20
300.094
 11
0.194641
 21
300.094
  0
LINE
  8
0
 10
0.194641
 20
300.094
 11
0.580872
 21
300.045
  0
LINE
  8
0
 10
0.580872
 20
300.045
 11
0.957947
 21
299.948
  0
LINE
  8
0
 10
0.957947
 20
299.948
 11
1.3199
 21
299.805
  0
LINE
  8
0
 10
1.3199
 20
299.805
 11
1.66106
 21
299.617
  0
LINE
  8
0
 10
1.66106
 20
299.617
 11
1.97601
 21
299.389
  0
LINE
  8
0
 10
1.97601
 20
299.389
 11
2.2598
 21
299.122
  0
LINE
  8
0
 10
2.2598
 20
299.122
 11
2.50795
 21
298.822
  0
LINE
  8
0
 10
2.50795
 20
298.822
 11
2.71654
 21
298.493
  0
LINE
  8
0
 10
2.71654
 20
298.493
 11
2.88229
 21
298.141
  0
LINE
  8
0
 10
2.88229
 20
298.141
 11
3.00259
 21
297.771
  0
LINE
  8
0
 10
3.00259
 20
297.771
 11
3.07555
 21
297.389
  0
LINE
  8
0
 10
3.07555
 20
297.389
 11
3.09999
 21
297
  0
LINE
  8
0
 10
3.09999
 20
297
 11
3.07555
 21
296.611
  0
LINE
  8
0
 10
3.07555
 20
296.611
 11
3.00259
 21
296.229
  0
LINE
  8
0
 10
3.00259
 20
296.229
 11
2.88229
 21
295.859
  0
LINE
  8
0
 10
2.88229
 20
295.859
 11
2.71654
 21
295.507
  0
LINE
  8
0
 10
2.71654
 20
295.507
 11
2.50795
 21
295.178
  0
LINE
  8
0
 10
2.50795
 20
295.178
 11
2.2598
 21
294.878
  0
LINE
  8
0
 10
2.2598
 20
294.878
 11
1.97601
 21
294.611
  0
LINE
  8
0
 10
1.97601
 20
294.611
 11
1.66106
 21
294.383
  0
LINE
  8
0
 10
1.66106
 20
294.383
 11
1.3199
 21
294.195
  0
LINE
  8
0
 10
1.3199
 20
294.195
 11
0.957947
 21
294.052
  0
LINE
  8
0
 10
0.957947
 20
294.052
 11
0.580872
 21
293.955
  0
LINE
  8
0
 10
0.580872
 20
293.955
 11
0.194641
 21
293.906
  0
LINE
  8
0
 10
0.194641
 20
293.906
 11
-0.194641
 21
293.906
  0
LINE
  8
0
 10
52.9369
 20
176.089
 11
53.5451
 21
176.245
  0
LINE
  8
0
 10
53.5451
 20
176.245
 11
54.1289
 21
176.476
  0
LINE
  8
0
 10
54.1289
 20
176.476
 11
54.6791
 21
176.778
  0
LINE
  8
0
 10
54.6791
 20
176.778
 11
55.1871
 21
177.147
  0
LINE
  8
0
 10
55.1871
 20
177.147
 11
55.6448
 21
177.577
  0
LINE
  8
0
 10
55.6448
 20
177.577
 11
56.0451
 21
178.061
  0
LINE
  8
0
 10
56.0451
 20
178.061
 11
56.3815
 21
178.591
  0
LINE
  8
0
 10
56.3815
 20
178.591
 11
56.6489
 21
179.159
  0
LINE
  8
0
 10
56.6489
 20
179.159
 11
56.8429
 21
179.757
  0
LINE
  8
0
 10
56.8429
 20
179.757
 11
56.9606
 21
180.373
  0
LINE
  8
0
 10
56.9606
 20
180.373
 11
57
 21
181
  0
LINE
  8
0
 10
57
 20
181
 11
57
 21
275
  0
LINE
  8
0
 10
57
 20
275
 11
56.9606
 21
275.627
  0
LINE
  8
0
 10
56.9606
 20
275.627
 11
56.8429
 21
276.243
  0
LINE
  8
0
 10
56.8429
 20
276.243
 11
56.6489
 21
276.841
  0
LINE
  8
0
 10
56.6489
 20
276.841
 11
56.3815
 21
277.409
  0
LINE
  8
0
 10
56.3815
 20
277.409
 11
56.0451
 21
277.939
  0
LINE
  8
0
 10
56.0451
 20
277.939
 11
55.6448
 21
278.423
  0
LINE
  8
0
 10
55.6448
 20
278.423
 11
55.1871
 21
278.853
  0
LINE
  8
0
 10
55.1871
 20
278.853
 11
54.6791
 21
279.222
  0
LINE
  8
0
 10
54.6791
 20
279.222
 11
54.1289
 21
279.524
  0
LINE
  8
0
 10
54.1289
 20
279.524
 11
53.5451
 21
279.755
  0
LINE
  8
0
 10
53.5451
 20
279.755
 11
52.9369
 21
279.911
  0
LINE
  8
0
 10
52.9369
 20
279.911
 11
52.3139
 21
279.99
  0
LINE
  8
0
 10
52.3139
 20
279.99
 11
47.686
 21
279.99
  0
LINE
  8
0
 10
47.686
 20
279.99
 11
47.0631
 21
279.911
  0
LINE
  8
0
 10
47.0631
 20
279.911
 11
46.4549
 21
279.755
  0
LINE
  8
0
 10
46.4549
 20
279.755
 11
45.8711
 21
279.524
  0
LINE
  8
0
 10
45.8711
 20
279.524
 11
45.3209
 21
279.222
  0
LINE
  8
0
 10
45.3209
 20
279.222
 11
44.8129
 21
278.853
  0
LINE
  8
0
 10
44.8129
 20
278.853
 11
44.3551
 21
278.423
  0
LINE
  8
0
 10
44.3551
 20
278.423
 11
43.9549
 21
277.939
  0
LINE
  8
0
 10
43.9549
 20
277.939
 11
43.6185
 21
277.409
  0
LINE
  8
0
 10
43.6185
 20
277.409
 11
43.3511
 21
276.841
  0
LINE
  8
0
 10
43.3511
 20
276.841
 11
43.1571
 21
276.243
  0
LINE
  8
0
 10
43.1571
 20
276.243
 11
43.0394
 21
275.627
  0
LINE
  8
0
 10
43.0394
 20
275.627
 11
43
 21
275
  0
LINE
  8
0
 10
43
 20
275
 11
43
 21
181
  0
LINE
  8
0
 10
43
 20
181
 11
43.0394
 21
180.373
  0
LINE
  8
0
 10
43.0394
 20
180.373
 11
43.1571
 21
179.757
  0
LINE
  8
0
 10
43.1571
 20
179.757
 11
43.3511
 21
179.159
  0
LINE
  8
0
 10
43.3511
 20
179.159
 11
43.6185
 21
178.591
  0
LINE
  8
0
 10
43.6185
 20
178.591
 11
43.9549
 21
178.061
  0
LINE
  8
0
 10
43.9549
 20
178.061
 11
44.3551
 21
177.577
  0
LINE
  8
0
 10
44.3551
 20
177.577
 11
44.8129
 21
177.147
  0
LINE
  8
0
 10
44.8129
 20
177.147
 11
45.3209
 21
176.778
  0
LINE
  8
0
 10
45.3209
 20
176.778
 11
45.8711
 21
176.476
  0
LINE
  8
0
 10
45.8711
 20
176.476
 11
46.4549
 21
176.245
  0
LINE
  8
0
 10
46.4549
 20
176.245
 11
47.0631
 21
176.089
  0
LINE
  8
0
 10
47.0631
 20
176.089
 11
47.686
 21
176.01
  0
LINE
  8
0
 10
47.686
 20
176.01
 11
52.3139
 21
176.01
  0
LINE
  8
0
 10
52.3139
 20
176.01
 11
52.9369
 21
176.089
  0
LINE
  8
0
 10
49.8116
 20
270.006
 11
49.4379
 21
270.053
  0
LINE
  8
0
 10
49.4379
 20
270.053
 11
49.0729
 21
270.147
  0
LINE
  8
0
 10
49.0729
 20
270.147
 11
48.7227
 21
270.286
  0
LINE
  8
0
 10
48.7227
 20
270.286
 11
48.3925
 21
270.467
  0
LINE
  8
0
 10
48.3925
 20
270.467
 11
48.0877
 21
270.688
  0
LINE
  8
0
 10
48.0877
 20
270.688
 11
47.8131
 21
270.946
  0
LINE
  8
0
 10
47.8131
 20
270.946
 11
47.5729
 21
271.237
  0
LINE
  8
0
 10
47.5729
 20
271.237
 11
47.3711
 21
271.555
  0
LINE
  8
0
 10
47.3711
 20
271.555
 11
47.2107
 21
271.896
  0
LINE
  8
0
 10
47.2107
 20
271.896
 11
47.0942
 21
272.254
  0
LINE
  8
0
 10
47.0942
 20
272.254
 11
47.0237
 21
272.624
  0
LINE
  8
0
 10
47.0237
 20
272.624
 11
47
 21
273
  0
LINE
  8
0
 10
47
 20
273
 11
47.0237
 21
273.376
  0
LINE
  8
0
 10
47.0237
 20
273.376
 11
47.0942
 21
273.746
  0
LINE
  8
0
 10
47.0942
 20
273.746
 11
47.2107
 21
274.104
  0
LINE
  8
0
 10
47.2107
 20
274.104
 11
47.3711
 21
274.445
  0
LINE
  8
0
 10
47.3711
 20
274.445
 11
47.5729
 21
274.763
  0
LINE
  8
0
 10
47.5729
 20
274.763
 11
47.8131
 21
275.054
  0
LINE
  8
0
 10
47.8131
 20
275.054
 11
48.0877
 21
275.312
  0
LINE
  8
0
 10
48.0877
 20
275.312
 11
48.3925
 21
275.533
  0
LINE
  8
0
 10
48.3925
 20
275.533
 11
48.7227
 21
275.714
  0
LINE
  8
0
 10
48.7227
 20
275.714
 11
49.0729
 21
275.853
  0
LINE
  8
0
 10
49.0729
 20
275.853
 11
49.4379
 21
275.947
  0
LINE
  8
0
 10
49.4379
 20
275.947
 11
49.8116
 21
275.994
  0
LINE
  8
0
 10
49.8116
 20
275.994
 11
50.1884
 21
275.994
  0
LINE
  8
0
 10
50.1884
 20
275.994
 11
50.5621
 21
275.947
  0
LINE
  8
0
 10
50.5621
 20
275.947
 11
50.927
 21
275.853
  0
LINE
  8
0
 10
50.927
 20
275.853
 11
51.2773
 21
275.714
  0
LINE
  8
0
 10
51.2773
 20
275.714
 11
51.6075
 21
275.533
  0
LINE
  8
0
 10
51.6075
 20
275.533
 11
51.9123
 21
275.312
  0
LINE
  8
0
 10
51.9123
 20
275.312
 11
52.1869
 21
275.054
  0
LINE
  8
0
 10
52.1869
 20
275.054
 11
52.427
 21
274.763
  0
LINE
  8
0
 10
52.427
 20
274.763
 11
52.6289
 21
274.445
  0
LINE
  8
0
 10
52.6289
 20
274.445
 11
52.7893
 21
274.104
  0
LINE
  8
0
 10
52.7893
 20
274.104
 11
52.9057
 21
273.746
  0
LINE
  8
0
 10
52.9057
 20
273.746
 11
52.9763
 21
273.376
  0
LINE
  8
0
 10
52.9763
 20
273.376
 11
53
 21
273
  0
LINE
  8
0
 10
53
 20
273
 11
52.9763
 21
272.624
  0
LINE
  8
0
 10
52.9763
 20
272.624
 11
52.9057
 21
272.254
  0
LINE
  8
0
 10
52.9057
 20
272.254
 11
52.7893
 21
271.896
  0
LINE
  8
0
 10
52.7893
 20
271.896
 11
52.6289
 21
271.555
  0
LINE
  8
0
 10
52.6289
 20
271.555
 11
52.427
 21
271.237
  0
LINE
  8
0
 10
52.427
 20
271.237
 11
52.1869
 21
270.946
  0
LINE
  8
0
 10
52.1869
 20
270.946
 11
51.9123
 21
270.688
  0
LINE
  8
0
 10
51.9123
 20
270.688
 11
51.6075
 21
270.467
  0
LINE
  8
0
 10
51.6075
 20
270.467
 11
51.2773
 21
270.286
  0
LINE
  8
0
 10
51.2773
 20
270.286
 11
50.927
 21
270.147
  0
LINE
  8
0
 10
50.927
 20
270.147
 11
50.5621
 21
270.053
  0
LINE
  8
0
 10
50.5621
 20
270.053
 11
50.1884
 21
270.006
  0
LINE
  8
0
 10
50.1884
 20
270.006
 11
49.8116
 21
270.006
  0
LINE
  8
0
 10
49.887
 20
263.704
 11
49.6627
 21
263.732
  0
LINE
  8
0
 10
49.6627
 20
263.732
 11
49.4438
 21
263.788
  0
LINE
  8
0
 10
49.4438
 20
263.788
 11
49.2336
 21
263.871
  0
LINE
  8
0
 10
49.2336
 20
263.871
 11
49.0355
 21
263.98
  0
LINE
  8
0
 10
49.0355
 20
263.98
 11
48.8526
 21
264.113
  0
LINE
  8
0
 10
48.8526
 20
264.113
 11
48.6879
 21
264.268
  0
LINE
  8
0
 10
48.6879
 20
264.268
 11
48.5438
 21
264.442
  0
LINE
  8
0
 10
48.5438
 20
264.442
 11
48.4226
 21
264.633
  0
LINE
  8
0
 10
48.4226
 20
264.633
 11
48.3264
 21
264.837
  0
LINE
  8
0
 10
48.3264
 20
264.837
 11
48.2565
 21
265.052
  0
LINE
  8
0
 10
48.2565
 20
265.052
 11
48.2142
 21
265.274
  0
LINE
  8
0
 10
48.2142
 20
265.274
 11
48.2
 21
265.5
  0
LINE
  8
0
 10
48.2
 20
265.5
 11
48.2142
 21
265.726
  0
LINE
  8
0
 10
48.2142
 20
265.726
 11
48.2565
 21
265.948
  0
LINE
  8
0
 10
48.2565
 20
265.948
 11
48.3264
 21
266.163
  0
LINE
  8
0
 10
48.3264
 20
266.163
 11
48.4226
 21
266.367
  0
LINE
  8
0
 10
48.4226
 20
266.367
 11
48.5438
 21
266.558
  0
LINE
  8
0
 10
48.5438
 20
266.558
 11
48.6879
 21
266.732
  0
LINE
  8
0
 10
48.6879
 20
266.732
 11
48.8526
 21
266.887
  0
LINE
  8
0
 10
48.8526
 20
266.887
 11
49.0355
 21
267.02
  0
LINE
  8
0
 10
49.0355
 20
267.02
 11
49.2336
 21
267.129
  0
LINE
  8
0
 10
49.2336
 20
267.129
 11
49.4438
 21
267.212
  0
LINE
  8
0
 10
49.4438
 20
267.212
 11
49.6627
 21
267.268
  0
LINE
  8
0
 10
49.6627
 20
267.268
 11
49.887
 21
267.296
  0
LINE
  8
0
 10
49.887
 20
267.296
 11
50.113
 21
267.296
  0
LINE
  8
0
 10
50.113
 20
267.296
 11
50.3373
 21
267.268
  0
LINE
  8
0
 10
50.3373
 20
267.268
 11
50.5562
 21
267.212
  0
LINE
  8
0
 10
50.5562
 20
267.212
 11
50.7664
 21
267.129
  0
LINE
  8
0
 10
50.7664
 20
267.129
 11
50.9645
 21
267.02
  0
LINE
  8
0
 10
50.9645
 20
267.02
 11
51.1474
 21
266.887
  0
LINE
  8
0
 10
51.1474
 20
266.887
 11
51.3121
 21
266.732
  0
LINE
  8
0
 10
51.3121
 20
266.732
 11
51.4562
 21
266.558
  0
LINE
  8
0
 10
51.4562
 20
266.558
 11
51.5773
 21
266.367
  0
LINE
  8
0
 10
51.5773
 20
266.367
 11
51.6736
 21
266.163
  0
LINE
  8
0
 10
51.6736
 20
266.163
 11
51.7434
 21
265.948
  0
LINE
  8
0
 10
51.7434
 20
265.948
 11
51.7858
 21
265.726
  0
LINE
  8
0
 10
51.7858
 20
265.726
 11
51.8
 21
265.5
  0
LINE
  8
0
 10
51.8
 20
265.5
 11
51.7858
 21
265.274
  0
LINE
  8
0
 10
51.7858
 20
265.274
 11
51.7434
 21
265.052
  0
LINE
  8
0
 10
51.7434
 20
265.052
 11
51.6736
 21
264.837
  0
LINE
  8
0
 10
51.6736
 20
264.837
 11
51.5773
 21
264.633
  0
LINE
  8
0
 10
51.5773
 20
264.633
 11
51.4562
 21
264.442
  0
LINE
  8
0
 10
51.4562
 20
264.442
 11
51.3121
 21
264.268
  0
LINE
  8
0
 10
51.3121
 20
264.268
 11
51.1474
 21
264.113
  0
LINE
  8
0
 10
51.1474
 20
264.113
 11
50.9645
 21
263.98
  0
LINE
  8
0
 10
50.9645
 20
263.98
 11
50.7664
 21
263.871
  0
LINE
  8
0
 10
50.7664
 20
263.871
 11
50.5562
 21
263.788
  0
LINE
  8
0
 10
50.5562
 20
263.788
 11
50.3373
 21
263.732
  0
LINE
  8
0
 10
50.3373
 20
263.732
 11
50.113
 21
263.704
  0
LINE
  8
0
 10
50.113
 20
263.704
 11
49.887
 21
263.704
  0
LINE
  8
0
 10
49.887
 20
188.704
 11
49.6627
 21
188.732
  0
LINE
  8
0
 10
49.6627
 20
188.732
 11
49.4438
 21
188.788
  0
LINE
  8
0
 10
49.4438
 20
188.788
 11
49.2336
 21
188.871
  0
LINE
  8
0
 10
49.2336
 20
188.871
 11
49.0355
 21
188.98
  0
LINE
  8
0
 10
49.0355
 20
188.98
 11
48.8526
 21
189.113
  0
LINE
  8
0
 10
48.8526
 20
189.113
 11
48.6879
 21
189.268
  0
LINE
  8
0
 10
48.6879
 20
189.268
 11
48.5438
 21
189.442
  0
LINE
  8
0
 10
48.5438
 20
189.442
 11
48.4226
 21
189.633
  0
LINE
  8
0
 10
48.4226
 20
189.633
 11
48.3264
 21
189.837
  0
LINE
  8
0
 10
48.3264
 20
189.837
 11
48.2565
 21
190.052
  0
LINE
  8
0
 10
48.2565
 20
190.052
 11
48.2142
 21
190.274
  0
LINE
  8
0
 10
48.2142
 20
190.274
 11
48.2
 21
190.5
  0
LINE
  8
0
 10
48.2
 20
190.5
 11
48.2142
 21
190.726
  0
LINE
  8
0
 10
48.2142
 20
190.726
 11
48.2565
 21
190.948
  0
LINE
  8
0
 10
48.2565
 20
190.948
 11
48.3264
 21
191.163
  0
LINE
  8
0
 10
48.3264
 20
191.163
 11
48.4226
 21
191.367
  0
LINE
  8
0
 10
48.4226
 20
191.367
 11
48.5438
 21
191.558
  0
LINE
  8
0
 10
48.5438
 20
191.558
 11
48.6879
 21
191.732
  0
LINE
  8
0
 10
48.6879
 20
191.732
 11
48.8526
 21
191.887
  0
LINE
  8
0
 10
48.8526
 20
191.887
 11
49.0355
 21
192.02
  0
LINE
  8
0
 10
49.0355
 20
192.02
 11
49.2336
 21
192.129
  0
LINE
  8
0
 10
49.2336
 20
192.129
 11
49.4438
 21
192.212
  0
LINE
  8
0
 10
49.4438
 20
192.212
 11
49.6627
 21
192.268
  0
LINE
  8
0
 10
49.6627
 20
192.268
 11
49.887
 21
192.296
  0
LINE
  8
0
 10
49.887
 20
192.296
 11
50.113
 21
192.296
  0
LINE
  8
0
 10
50.113
 20
192.296
 11
50.3373
 21
192.268
  0
LINE
  8
0
 10
50.3373
 20
192.268
 11
50.5562
 21
192.212
  0
LINE
  8
0
 10
50.5562
 20
192.212
 11
50.7664
 21
192.129
  0
LINE
  8
0
 10
50.7664
 20
192.129
 11
50.9645
 21
192.02
  0
LINE
  8
0
 10
50.9645
 20
192.02
 11
51.1474
 21
191.887
  0
LINE
  8
0
 10
51.1474
 20
191.887
 11
51.3121
 21
191.732
  0
LINE
  8
0
 10
51.3121
 20
191.732
 11
51.4562
 21
191.558
  0
LINE
  8
0
 10
51.4562
 20
191.558
 11
51.5773
 21
191.367
  0
LINE
  8
0
 10
51.5773
 20
191.367
 11
51.6736
 21
191.163
  0
LINE
  8
0
 10
51.6736
 20
191.163
 11
51.7434
 21
190.948
  0
LINE
  8
0
 10
51.7434
 20
190.948
 11
51.7858
 21
190.726
  0
LINE
  8
0
 10
51.7858
 20
190.726
 11
51.8
 21
190.5
  0
LINE
  8
0
 10
51.8
 20
190.5
 11
51.7858
 21
190.274
  0
LINE
  8
0
 10
51.7858
 20
190.274
 11
51.7434
 21
190.052
  0
LINE
  8
0
 10
51.7434
 20
190.052
 11
51.6736
 21
189.837
  0
LINE
  8
0
 10
51.6736
 20
189.837
 11
51.5773
 21
189.633
  0
LINE
  8
0
 10
51.5773
 20
189.633
 11
51.4562
 21
189.442
  0
LINE
  8
0
 10
51.4562
 20
189.442
 11
51.3121
 21
189.268
  0
LINE
  8
0
 10
51.3121
 20
189.268
 11
51.1474
 21
189.113
  0
LINE
  8
0
 10
51.1474
 20
189.113
 11
50.9645
 21
188.98
  0
LINE
  8
0
 10
50.9645
 20
188.98
 11
50.7664
 21
188.871
  0
LINE
  8
0
 10
50.7664
 20
188.871
 11
50.5562
 21
188.788
  0
LINE
  8
0
 10
50.5562
 20
188.788
 11
50.3373
 21
188.732
  0
LINE
  8
0
 10
50.3373
 20
188.732
 11
50.113
 21
188.704
  0
LINE
  8
0
 10
50.113
 20
188.704
 11
49.887
 21
188.704
  0
LINE
  8
0
 10
49.8116
 20
180.006
 11
49.4379
 21
180.053
  0
LINE
  8
0
 10
49.4379
 20
180.053
 11
49.0729
 21
180.147
  0
LINE
  8
0
 10
49.0729
 20
180.147
 11
48.7227
 21
180.286
  0
LINE
  8
0
 10
48.7227
 20
180.286
 11
48.3925
 21
180.467
  0
LINE
  8
0
 10
48.3925
 20
180.467
 11
48.0877
 21
180.688
  0
LINE
  8
0
 10
48.0877
 20
180.688
 11
47.8131
 21
180.946
  0
LINE
  8
0
 10
47.8131
 20
180.946
 11
47.5729
 21
181.237
  0
LINE
  8
0
 10
47.5729
 20
181.237
 11
47.3711
 21
181.555
  0
LINE
  8
0
 10
47.3711
 20
181.555
 11
47.2107
 21
181.896
  0
LINE
  8
0
 10
47.2107
 20
181.896
 11
47.0942
 21
182.254
  0
LINE
  8
0
 10
47.0942
 20
182.254
 11
47.0237
 21
182.624
  0
LINE
  8
0
 10
47.0237
 20
182.624
 11
47
 21
183
  0
LINE
  8
0
 10
47
 20
183
 11
47.0237
 21
183.376
  0
LINE
  8
0
 10
47.0237
 20
183.376
 11
47.0942
 21
183.746
  0
LINE
  8
0
 10
47.0942
 20
183.746
 11
47.2107
 21
184.104
  0
LINE
  8
0
 10
47.2107
 20
184.104
 11
47.3711
 21
184.445
  0
LINE
  8
0
 10
47.3711
 20
184.445
 11
47.5729
 21
184.763
  0
LINE
  8
0
 10
47.5729
 20
184.763
 11
47.8131
 21
185.054
  0
LINE
  8
0
 10
47.8131
 20
185.054
 11
48.0877
 21
185.312
  0
LINE
  8
0
 10
48.0877
 20
185.312
 11
48.3925
 21
185.533
  0
LINE
  8
0
 10
48.3925
 20
185.533
 11
48.7227
 21
185.714
  0
LINE
  8
0
 10
48.7227
 20
185.714
 11
49.0729
 21
185.853
  0
LINE
  8
0
 10
49.0729
 20
185.853
 11
49.4379
 21
185.947
  0
LINE
  8
0
 10
49.4379
 20
185.947
 11
49.8116
 21
185.994
  0
LINE
  8
0
 10
49.8116
 20
185.994
 11
50.1884
 21
185.994
  0
LINE
  8
0
 10
50.1884
 20
185.994
 11
50.5621
 21
185.947
  0
LINE
  8
0
 10
50.5621
 20
185.947
 11
50.927
 21
185.853
  0
LINE
  8
0
 10
50.927
 20
185.853
 11
51.2773
 21
185.714
  0
LINE
  8
0
 10
51.2773
 20
185.714
 11
51.6075
 21
185.533
  0
LINE
  8
0
 10
51.6075
 20
185.533
 11
51.9123
 21
185.312
  0
LINE
  8
0
 10
51.9123
 20
185.312
 11
52.1869
 21
185.054
  0
LINE
  8
0
 10
52.1869
 20
185.054
 11
52.427
 21
184.763
  0
LINE
  8
0
 10
52.427
 20
184.763
 11
52.6289
 21
184.445
  0
LINE
  8
0
 10
52.6289
 20
184.445
 11
52.7893
 21
184.104
  0
LINE
  8
0
 10
52.7893
 20
184.104
 11
52.9057
 21
183.746
  0
LINE
  8
0
 10
52.9057
 20
183.746
 11
52.9763
 21
183.376
  0
LINE
  8
0
 10
52.9763
 20
183.376
 11
53
 21
183
  0
LINE
  8
0
 10
53
 20
183
 11
52.9763
 21
182.624
  0
LINE
  8
0
 10
52.9763
 20
182.624
 11
52.9057
 21
182.254
  0
LINE
  8
0
 10
52.9057
 20
182.254
 11
52.7893
 21
181.896
  0
LINE
  8
0
 10
52.7893
 20
181.896
 11
52.6289
 21
181.555
  0
LINE
  8
0
 10
52.6289
 20
181.555
 11
52.427
 21
181.237
  0
LINE
  8
0
 10
52.427
 20
181.237
 11
52.1869
 21
180.946
  0
LINE
  8
0
 10
52.1869
 20
180.946
 11
51.9123
 21
180.688
  0
LINE
  8
0
 10
51.9123
 20
180.688
 11
51.6075
 21
180.467
  0
LINE
  8
0
 10
51.6075
 20
180.467
 11
51.2773
 21
180.286
  0
LINE
  8
0
 10
51.2773
 20
180.286
 11
50.927
 21
180.147
  0
LINE
  8
0
 10
50.927
 20
180.147
 11
50.5621
 21
180.053
  0
LINE
  8
0
 10
50.5621
 20
180.053
 11
50.1884
 21
180.006
  0
LINE
  8
0
 10
50.1884
 20
180.006
 11
49.8116
 21
180.006
  0
LINE
  8
0
 10
2.9369
 20
176.089
 11
3.54507
 21
176.245
  0
LINE
  8
0
 10
3.54507
 20
176.245
 11
4.12889
 21
176.476
  0
LINE
  8
0
 10
4.12889
 20
176.476
 11
4.67912
 21
176.778
  0
LINE
  8
0
 10
4.67912
 20
176.778
 11
5.18712
 21
177.147
  0
LINE
  8
0
 10
5.18712
 20
177.147
 11
5.64484
 21
177.577
  0
LINE
  8
0
 10
5.64484
 20
177.577
 11
6.04507
 21
178.061
  0
LINE
  8
0
 10
6.04507
 20
178.061
 11
6.38153
 21
178.591
  0
LINE
  8
0
 10
6.38153
 20
178.591
 11
6.64888
 21
179.159
  0
LINE
  8
0
 10
6.64888
 20
179.159
 11
6.84291
 21
179.757
  0
LINE
  8
0
 10
6.84291
 20
179.757
 11
6.96057
 21
180.373
  0
LINE
  8
0
 10
6.96057
 20
180.373
 11
7
 21
181
  0
LINE
  8
0
 10
7
 20
181
 11
7
 21
275
  0
LINE
  8
0
 10
7
 20
275
 11
6.96057
 21
275.627
  0
LINE
  8
0
 10
6.96057
 20
275.627
 11
6.84291
 21
276.243
  0
LINE
  8
0
 10
6.84291
 20
276.243
 11
6.64888
 21
276.841
  0
LINE
  8
0
 10
6.64888
 20
276.841
 11
6.38153
 21
277.409
  0
LINE
  8
0
 10
6.38153
 20
277.409
 11
6.04507
 21
277.939
  0
LINE
  8
0
 10
6.04507
 20
277.939
 11
5.64484
 21
278.423
  0
LINE
  8
0
 10
5.64484
 20
278.423
 11
5.18712
 21
278.853
  0
LINE
  8
0
 10
5.18712
 20
278.853
 11
4.67912
 21
279.222
  0
LINE
  8
0
 10
4.67912
 20
279.222
 11
4.12889
 21
279.524
  0
LINE
  8
0
 10
4.12889
 20
279.524
 11
3.54507
 21
279.755
  0
LINE
  8
0
 10
3.54507
 20
279.755
 11
2.9369
 21
279.911
  0
LINE
  8
0
 10
2.9369
 20
279.911
 11
2.31395
 21
279.99
  0
LINE
  8
0
 10
2.31395
 20
279.99
 11
-2.31395
 21
279.99
  0
LINE
  8
0
 10
-2.31395
 20
279.99
 11
-2.9369
 21
279.911
  0
LINE
  8
0
 10
-2.9369
 20
279.911
 11
-3.54507
 21
279.755
  0
LINE
  8
0
 10
-3.54507
 20
279.755
 11
-4.12889
 21
279.524
  0
LINE
  8
0
 10
-4.12889
 20
279.524
 11
-4.67912
 21
279.222
  0
LINE
  8
0
 10
-4.67912
 20
279.222
 11
-5.18712
 21
278.853
  0
LINE
  8
0
 10
-5.18712
 20
278.853
 11
-5.64484
 21
278.423
  0
LINE
  8
0
 10
-5.64484
 20
278.423
 11
-6.04507
 21
277.939
  0
LINE
  8
0
 10
-6.04507
 20
277.939
 11
-6.38153
 21
277.409
  0
LINE
  8
0
 10
-6.38153
 20
277.409
 11
-6.64888
 21
276.841
  0
LINE
  8
0
 10
-6.64888
 20
276.841
 11
-6.84291
 21
276.243
  0
LINE
  8
0
 10
-6.84291
 20
276.243
 11
-6.96057
 21
275.627
  0
LINE
  8
0
 10
-6.96057
 20
275.627
 11
-7
 21
275
  0
LINE
  8
0
 10
-7
 20
275
 11
-7
 21
181
  0
LINE
  8
0
 10
-7
 20
181
 11
-6.96057
 21
180.373
  0
LINE
  8
0
 10
-6.96057
 20
180.373
 11
-6.84291
 21
179.757
  0
LINE
  8
0
 10
-6.84291
 20
179.757
 11
-6.64888
 21
179.159
  0
LINE
  8
0
 10
-6.64888
 20
179.159
 11
-6.38153
 21
178.591
  0
LINE
  8
0
 10
-6.38153
 20
178.591
 11
-6.04507
 21
178.061
  0
LINE
  8
0
 10
-6.04507
 20
178.061
 11
-5.64484
 21
177.577
  0
LINE
  8
0
 10
-5.64484
 20
177.577
 11
-5.18712
 21
177.147
  0
LINE
  8
0
 10
-5.18712
 20
177.147
 11
-4.67912
 21
176.778
  0
LINE
  8
0
 10
-4.67912
 20
176.778
 11
-4.12889
 21
176.476
  0
LINE
  8
0
 10
-4.12889
 20
176.476
 11
-3.54507
 21
176.245
  0
LINE
  8
0
 10
-3.54507
 20
176.245
 11
-2.9369
 21
176.089
  0
LINE
  8
0
 10
-2.9369
 20
176.089
 11
-2.31395
 21
176.01
  0
LINE
  8
0
 10
-2.31395
 20
176.01
 11
2.31395
 21
176.01
  0
LINE
  8
0
 10
2.31395
 20
176.01
 11
2.9369
 21
176.089
  0
LINE
  8
0
 10
-0.18837
 20
270.006
 11
-0.562134
 21
270.053
  0
LINE
  8
0
 10
-0.562134
 20
270.053
 11
-0.927048
 21
270.147
  0
LINE
  8
0
 10
-0.927048
 20
270.147
 11
-1.27733
 21
270.286
  0
LINE
  8
0
 10
-1.27733
 20
270.286
 11
-1.60747
 21
270.467
  0
LINE
  8
0
 10
-1.60747
 20
270.467
 11
-1.91226
 21
270.688
  0
LINE
  8
0
 10
-1.91226
 20
270.688
 11
-2.1869
 21
270.946
  0
LINE
  8
0
 10
-2.1869
 20
270.946
 11
-2.42705
 21
271.237
  0
LINE
  8
0
 10
-2.42705
 20
271.237
 11
-2.62891
 21
271.555
  0
LINE
  8
0
 10
-2.62891
 20
271.555
 11
-2.78932
 21
271.896
  0
LINE
  8
0
 10
-2.78932
 20
271.896
 11
-2.90575
 21
272.254
  0
LINE
  8
0
 10
-2.90575
 20
272.254
 11
-2.97633
 21
272.624
  0
LINE
  8
0
 10
-2.97633
 20
272.624
 11
-3
 21
273
  0
LINE
  8
0
 10
-3
 20
273
 11
-2.97633
 21
273.376
  0
LINE
  8
0
 10
-2.97633
 20
273.376
 11
-2.90575
 21
273.746
  0
LINE
  8
0
 10
-2.90575
 20
273.746
 11
-2.78932
 21
274.104
  0
LINE
  8
0
 10
-2.78932
 20
274.104
 11
-2.62891
 21
274.445
  0
LINE
  8
0
 10
-2.62891
 20
274.445
 11
-2.42705
 21
274.763
  0
LINE
  8
0
 10
-2.42705
 20
274.763
 11
-2.1869
 21
275.054
  0
LINE
  8
0
 10
-2.1869
 20
275.054
 11
-1.91226
 21
275.312
  0
LINE
  8
0
 10
-1.91226
 20
275.312
 11
-1.60747
 21
275.533
  0
LINE
  8
0
 10
-1.60747
 20
275.533
 11
-1.27733
 21
275.714
  0
LINE
  8
0
 10
-1.27733
 20
275.714
 11
-0.927048
 21
275.853
  0
LINE
  8
0
 10
-0.927048
 20
275.853
 11
-0.562134
 21
275.947
  0
LINE
  8
0
 10
-0.562134
 20
275.947
 11
-0.18837
 21
275.994
  0
LINE
  8
0
 10
-0.18837
 20
275.994
 11
0.18837
 21
275.994
  0
LINE
  8
0
 10
0.18837
 20
275.994
 11
0.562134
 21
275.947
  0
LINE
  8
0
 10
0.562134
 20
275.947
 11
0.927048
 21
275.853
  0
LINE
  8
0
 10
0.927048
 20
275.853
 11
1.27733
 21
275.714
  0
LINE
  8
0
 10
1.27733
 20
275.714
 11
1.60747
 21
275.533
  0
LINE
  8
0
 10
1.60747
 20
275.533
 11
1.91226
 21
275.312
  0
LINE
  8
0
 10
1.91226
 20
275.312
 11
2.1869
 21
275.054
  0
LINE
  8
0
 10
2.1869
 20
275.054
 11
2.42705
 21
274.763
  0
LINE
  8
0
 10
2.42705
 20
274.763
 11
2.62891
 21
274.445
  0
LINE
  8
0
 10
2.62891
 20
274.445
 11
2.78932
 21
274.104
  0
LINE
  8
0
 10
2.78932
 20
274.104
 11
2.90575
 21
273.746
  0
LINE
  8
0
 10
2.90575
 20
273.746
 11
2.97633
 21
273.376
  0
LINE
  8
0
 10
2.97633
 20
273.376
 11
3
 21
273
  0
LINE
  8
0
 10
3
 20
273
 11
2.97633
 21
272.624
  0
LINE
  8
0
 10
2.97633
 20
272.624
 11
2.90575
 21
272.254
  0
LINE
  8
0
 10
2.90575
 20
272.254
 11
2.78932
 21
271.896
  0
LINE
  8
0
 10
2.78932
 20
271.896
 11
2.62891
 21
271.555
  0
LINE
  8
0
 10
2.62891
 20
271.555
 11
2.42705
 21
271.237
  0
LINE
  8
0
 10
2.42705
 20
271.237
 11
2.1869
 21
270.946
  0
LINE
  8
0
 10
2.1869
 20
270.946
 11
1.91226
 21
270.688
  0
LINE
  8
0
 10
1.91226
 20
270.688
 11
1.60747
 21
270.467
  0
LINE
  8
0
 10
1.60747
 20
270.467
 11
1.27733
 21
270.286
  0
LINE
  8
0
 10
1.27733
 20
270.286
 11
0.927048
 21
270.147
  0
LINE
  8
0
 10
0.927048
 20
270.147
 11
0.562134
 21
270.053
  0
LINE
  8
0
 10
0.562134
 20
270.053
 11
0.18837
 21
270.006
  0
LINE
  8
0
 10
0.18837
 20
270.006
 11
-0.18837
 21
270.006
  0
LINE
  8
0
 10
-1.58675
 20
262.752
 11
-3.17349
 21
265.5
  0
LINE
  8
0
 10
-3.17349
 20
265.5
 11
-1.58675
 21
268.248
  0
LINE
  8
0
 10
-1.58675
 20
268.248
 11
1.58675
 21
268.248
  0
LINE
  8
0
 10
1.58675
 20
268.248
 11
3.17349
 21
265.5
  0
LINE
  8
0
 10
3.17349
 20
265.5
 11
1.58675
 21
262.752
  0
LINE
  8
0
 10
1.58675
 20
262.752
 11
-1.58675
 21
262.752
  0
LINE
  8
0
 10
-1.58675
 20
187.752
 11
-3.17349
 21
190.5
  0
LINE
  8
0
 10
-3.17349
 20
190.5
 11
-1.58675
 21
193.248
  0
LINE
  8
0
 10
-1.58675
 20
193.248
 11
1.58675
 21
193.248
  0
LINE
  8
0
 10
1.58675
 20
193.248
 11
3.17349
 21
190.5
  0
LINE
  8
0
 10
3.17349
 20
190.5
 11
1.58675
 21
187.752
  0
LINE
  8
0
 10
1.58675
 20
187.752
 11
-1.58675
 21
187.752
  0
LINE
  8
0
 10
-0.18837
 20
180.006
 11
-0.562134
 21
180.053
  0
LINE
  8
0
 10
-0.562134
 20
180.053
 11
-0.927048
 21
180.147
  0
LINE
  8
0
 10
-0.927048
 20
180.147
 11
-1.27733
 21
180.286
  0
LINE
  8
0
 10
-1.27733
 20
180.286
 11
-1.60747
 21
180.467
  0
LINE
  8
0
 10
-1.60747
 20
180.467
 11
-1.91226
 21
180.688
  0
LINE
  8
0
 10
-1.91226
 20
180.688
 11
-2.1869
 21
180.946
  0
LINE
  8
0
 10
-2.1869
 20
180.946
 11
-2.42705
 21
181.237
  0
LINE
  8
0
 10
-2.42705
 20
181.237
 11
-2.62891
 21
181.555
  0
LINE
  8
0
 10
-2.62891
 20
181.555
 11
-2.78932
 21
181.896
  0
LINE
  8
0
 10
-2.78932
 20
181.896
 11
-2.90575
 21
182.254
  0
LINE
  8
0
 10
-2.90575
 20
182.254
 11
-2.97633
 21
182.624
  0
LINE
  8
0
 10
-2.97633
 20
182.624
 11
-3
 21
183
  0
LINE
  8
0
 10
-3
 20
183
 11
-2.97633
 21
183.376
  0
LINE
  8
0
 10
-2.97633
 20
183.376
 11
-2.90575
 21
183.746
  0
LINE
  8
0
 10
-2.90575
 20
183.746
 11
-2.78932
 21
184.104
  0
LINE
  8
0
 10
-2.78932
 20
184.104
 11
-2.62891
 21
184.445
  0
LINE
  8
0
 10
-2.62891
 20
184.445
 11
-2.42705
 21
184.763
  0
LINE
  8
0
 10
-2.42705
 20
184.763
 11
-2.1869
 21
185.054
  0
LINE
  8
0
 10
-2.1869
 20
185.054
 11
-1.91226
 21
185.312
  0
LINE
  8
0
 10
-1.91226
 20
185.312
 11
-1.60747
 21
185.533
  0
LINE
  8
0
 10
-1.60747
 20
185.533
 11
-1.27733
 21
185.714
  0
LINE
  8
0
 10
-1.27733
 20
185.714
 11
-0.927048
 21
185.853
  0
LINE
  8
0
 10
-0.927048
 20
185.853
 11
-0.562134
 21
185.947
  0
LINE
  8
0
 10
-0.562134
 20
185.947
 11
-0.18837
 21
185.994
  0
LINE
  8
0
 10
-0.18837
 20
185.994
 11
0.18837
 21
185.994
  0
LINE
  8
0
 10
0.18837
 20
185.994
 11
0.562134
 21
185.947
  0
LINE
  8
0
 10
0.562134
 20
185.947
 11
0.927048
 21
185.853
  0
LINE
  8
0
 10
0.927048
 20
185.853
 11
1.27733
 21
185.714
  0
LINE
  8
0
 10
1.27733
 20
185.714
 11
1.60747
 21
185.533
  0
LINE
  8
0
 10
1.60747
 20
185.533
 11
1.91226
 21
185.312
  0
LINE
  8
0
 10
1.91226
 20
185.312
 11
2.1869
 21
185.054
  0
LINE
  8
0
 10
2.1869
 20
185.054
 11
2.42705
 21
184.763
  0
LINE
  8
0
 10
2.42705
 20
184.763
 11
2.62891
 21
184.445
  0
LINE
  8
0
 10
2.62891
 20
184.445
 11
2.78932
 21
184.104
  0
LINE
  8
0
 10
2.78932
 20
184.104
 11
2.90575
 21
183.746
  0
LINE
  8
0
 10
2.90575
 20
183.746
 11
2.97633
 21
183.376
  0
LINE
  8
0
 10
2.97633
 20
183.376
 11
3
 21
183
  0
LINE
  8
0
 10
3
 20
183
 11
2.97633
 21
182.624
  0
LINE
  8
0
 10
2.97633
 20
182.624
 11
2.90575
 21
182.254
  0
LINE
  8
0
 10
2.90575
 20
182.254
 11
2.78932
 21
181.896
  0
LINE
  8
0
 10
2.78932
 20
181.896
 11
2.62891
 21
181.555
  0
LINE
  8
0
 10
2.62891
 20
181.555
 11
2.42705
 21
181.237
  0
LINE
  8
0
 10
2.42705
 20
181.237
 11
2.1869
 21
180.946
  0
LINE
  8
0
 10
2.1869
 20
180.946
 11
1.91226
 21
180.688
  0
LINE
  8
0
 10
1.91226
 20
180.688
 11
1.60747
 21
180.467
  0
LINE
  8
0
 10
1.60747
 20
180.467
 11
1.27733
 21
180.286
  0
LINE
  8
0
 10
1.27733
 20
180.286
 11
0.927048
 21
180.147
  0
LINE
  8
0
 10
0.927048
 20
180.147
 11
0.562134
 21
180.053
  0
LINE
  8
0
 10
0.562134
 20
180.053
 11
0.18837
 21
180.006
  0
LINE
  8
0
 10
0.18837
 20
180.006
 11
-0.18837
 21
180.006
  0
ENDSEC
  0
SECTION
  2
OBJECTS
  0
DICTIONARY
  0
ENDSEC
  0
EOF
