<?xml version="1.0" standalone="no"?>
<!DOCTYPE svg PUBLIC "-//W3C//DTD SVG 1.1//EN" "http://www.w3.org/Graphics/SVG/1.1/DTD/svg11.dtd">
<svg width="64mm" height="218mm" viewBox="-7 -394 64 218" xmlns="http://www.w3.org/2000/svg" version="1.1">
<title>OpenSCAD Model</title>
<path d="
M 7,-389 L 6.96057,-389.627 L 6.84291,-390.243 L 6.64888,-390.841 L 6.38153,-391.409 L 6.04507,-391.939
 L 5.64484,-392.423 L 5.18712,-392.853 L 4.67912,-393.222 L 4.12889,-393.524 L 3.54507,-393.755 L 2.9369,-393.911
 L 2.31395,-393.99 L -2.31395,-393.99 L -2.9369,-393.911 L -3.54507,-393.755 L -4.12889,-393.524 L -4.67912,-393.222
 L -5.18712,-392.853 L -5.64484,-392.423 L -6.04507,-391.939 L -6.38153,-391.409 L -6.64888,-390.841 L -6.84291,-390.243
 L -6.96057,-389.627 L -7,-389 L -7,-369.592 L 7,-369.592 z
M -0.194641,-383.906 L -0.580872,-383.955 L -0.957947,-384.052 L -1.3199,-384.195 L -1.66106,-384.383 L -1.97601,-384.611
 L -2.2598,-384.878 L -2.50795,-385.178 L -2.71654,-385.507 L -2.88229,-385.859 L -3.00259,-386.229 L -3.07555,-386.611
 L -3.09999,-387 L -3.07555,-387.389 L -3.00259,-387.771 L -2.88229,-388.141 L -2.71654,-388.493 L -2.50795,-388.822
 L -2.2598,-389.122 L -1.97601,-389.389 L -1.66106,-389.617 L -1.3199,-389.805 L -0.957947,-389.948 L -0.580872,-390.045
 L -0.194641,-390.094 L 0.194641,-390.094 L 0.580872,-390.045 L 0.957947,-389.948 L 1.3199,-389.805 L 1.66106,-389.617
 L 1.97601,-389.389 L 2.2598,-389.122 L 2.50795,-388.822 L 2.71654,-388.493 L 2.88229,-388.141 L 3.00259,-387.771
 L 3.07555,-387.389 L 3.09999,-387 L 3.07555,-386.611 L 3.00259,-386.229 L 2.88229,-385.859 L 2.71654,-385.507
 L 2.50795,-385.178 L 2.2598,-384.878 L 1.97601,-384.611 L 1.66106,-384.383 L 1.3199,-384.195 L 0.957947,-384.052
 L 0.580872,-383.955 L 0.194641,-383.906 z
M -0.113022,-377.704 L -0.33728,-377.732 L -0.556229,-377.788 L -0.766388,-377.871 L -0.964478,-377.98 L -1.14735,-378.113
 L -1.31213,-378.268 L -1.45622,-378.442 L -1.57735,-378.633 L -1.67358,-378.837 L -1.74344,-379.052 L -1.7858,-379.274
 L -1.79999,-379.5 L -1.7858,-379.726 L -1.74344,-379.948 L -1.67358,-380.163 L -1.57735,-380.367 L -1.45622,-380.558
 L -1.31213,-380.732 L -1.14735,-380.887 L -0.964478,-381.02 L -0.766388,-381.129 L -0.556229,-381.212 L -0.33728,-381.268
 L -0.113022,-381.296 L 0.113022,-381.296 L 0.33728,-381.268 L 0.556229,-381.212 L 0.766388,-381.129 L 0.964478,-381.02
 L 1.14735,-380.887 L 1.31213,-380.732 L 1.45622,-380.558 L 1.57735,-380.367 L 1.67358,-380.163 L 1.74344,-379.948
 L 1.7858,-379.726 L 1.79999,-379.5 L 1.7858,-379.274 L 1.74344,-379.052 L 1.67358,-378.837 L 1.57735,-378.633
 L 1.45622,-378.442 L 1.31213,-378.268 L 1.14735,-378.113 L 0.964478,-377.98 L 0.766388,-377.871 L 0.556229,-377.788
 L 0.33728,-377.732 L 0.113022,-377.704 z
M 57,-389 L 56.9606,-389.627 L 56.8429,-390.243 L 56.6489,-390.841 L 56.3815,-391.409 L 56.0451,-391.939
 L 55.6448,-392.423 L 55.1871,-392.853 L 54.6791,-393.222 L 54.1289,-393.524 L 53.5451,-393.755 L 52.9369,-393.911
 L 52.3139,-393.99 L 47.686,-393.99 L 47.0631,-393.911 L 46.4549,-393.755 L 45.8711,-393.524 L 45.3209,-393.222
 L 44.8129,-392.853 L 44.3551,-392.423 L 43.9549,-391.939 L 43.6185,-391.409 L 43.3511,-390.841 L 43.1571,-390.243
 L 43.0394,-389.627 L 43,-389 L 43,-369.592 L 57,-369.592 z
M 49.8116,-384.006 L 49.4379,-384.053 L 49.0729,-384.147 L 48.7227,-384.286 L 48.3925,-384.467 L 48.0877,-384.688
 L 47.8131,-384.946 L 47.5729,-385.237 L 47.3711,-385.555 L 47.2107,-385.896 L 47.0942,-386.254 L 47.0237,-386.624
 L 47,-387 L 47.0237,-387.376 L 47.0942,-387.746 L 47.2107,-388.104 L 47.3711,-388.445 L 47.5729,-388.763
 L 47.8131,-389.054 L 48.0877,-389.312 L 48.3925,-389.533 L 48.7227,-389.714 L 49.0729,-389.853 L 49.4379,-389.947
 L 49.8116,-389.994 L 50.1884,-389.994 L 50.5621,-389.947 L 50.927,-389.853 L 51.2773,-389.714 L 51.6075,-389.533
 L 51.9123,-389.312 L 52.1869,-389.054 L 52.427,-388.763 L 52.6289,-388.445 L 52.7893,-388.104 L 52.9057,-387.746
 L 52.9763,-387.376 L 53,-387 L 52.9763,-386.624 L 52.9057,-386.254 L 52.7893,-385.896 L 52.6289,-385.555
 L 52.427,-385.237 L 52.1869,-384.946 L 51.9123,-384.688 L 51.6075,-384.467 L 51.2773,-384.286 L 50.927,-384.147
 L 50.5621,-384.053 L 50.1884,-384.006 z
M 49.887,-377.704 L 49.6627,-377.732 L 49.4438,-377.788 L 49.2336,-377.871 L 49.0355,-377.98 L 48.8526,-378.113
 L 48.6879,-378.268 L 48.5438,-378.442 L 48.4226,-378.633 L 48.3264,-378.837 L 48.2565,-379.052 L 48.2142,-379.274
 L 48.2,-379.5 L 48.2142,-379.726 L 48.2565,-379.948 L 48.3264,-380.163 L 48.4226,-380.367 L 48.5438,-380.558
 L 48.6879,-380.732 L 48.8526,-380.887 L 49.0355,-381.02 L 49.2336,-381.129 L 49.4438,-381.212 L 49.6627,-381.268
 L 49.887,-381.296 L 50.113,-381.296 L 50.3373,-381.268 L 50.5562,-381.212 L 50.7664,-381.129 L 50.9645,-381.02
 L 51.1474,-380.887 L 51.3121,-380.732 L 51.4562,-380.558 L 51.5773,-380.367 L 51.6736,-380.163 L 51.7434,-379.948
 L 51.7858,-379.726 L 51.8,-379.5 L 51.7858,-379.274 L 51.7434,-379.052 L 51.6736,-378.837 L 51.5773,-378.633
 L 51.4562,-378.442 L 51.3121,-378.268 L 51.1474,-378.113 L 50.9645,-377.98 L 50.7664,-377.871 L 50.5562,-377.788
 L 50.3373,-377.732 L 50.113,-377.704 z
M 57,-364.408 L 43,-364.408 L 43,-359.592 L 57,-359.592 z
M 7,-364.408 L -7,-364.408 L -7,-359.592 L 7,-359.592 z
M 7,-354.408 L -7,-354.408 L -7,-349.592 L 7,-349.592 z
M 57,-354.408 L 43,-354.408 L 43,-349.592 L 57,-349.592 z
M 57,-344.408 L 43,-344.408 L 43,-339.592 L 57,-339.592 z
M 7,-344.408 L -7,-344.408 L -7,-339.592 L 7,-339.592 z
M 7,-334.408 L -7,-334.408 L -7,-329.592 L 7,-329.592 z
M 57,-334.408 L 43,-334.408 L 43,-329.592 L 57,-329.592 z
M 57,-324.408 L 43,-324.408 L 43,-319.592 L 57,-319.592 z
M 7,-324.408 L -7,-324.408 L -7,-319.592 L 7,-319.592 z
M 52.9369,-290.089 L 53.5451,-290.245 L 54.1289,-290.476 L 54.6791,-290.778 L 55.1871,-291.147 L 55.6448,-291.577
 L 56.0451,-292.061 L 56.3815,-292.591 L 56.6489,-293.159 L 56.8429,-293.757 L 56.9606,-294.373 L 57,-295
 L 57,-314.408 L 43,-314.408 L 43,-295 L 43.0394,-294.373 L 43.1571,-293.757 L 43.3511,-293.159
 L 43.6185,-292.591 L 43.9549,-292.061 L 44.3551,-291.577 L 44.8129,-291.147 L 45.3209,-290.778 L 45.8711,-290.476
 L 46.4549,-290.245 L 47.0631,-290.089 L 47.686,-290.01 L 52.3139,-290.01 z
M 49.887,-302.704 L 49.6627,-302.732 L 49.4438,-302.788 L 49.2336,-302.871 L 49.0355,-302.98 L 48.8526,-303.113
 L 48.6879,-303.268 L 48.5438,-303.442 L 48.4226,-303.633 L 48.3264,-303.837 L 48.2565,-304.052 L 48.2142,-304.274
 L 48.2,-304.5 L 48.2142,-304.726 L 48.2565,-304.948 L 48.3264,-305.163 L 48.4226,-305.367 L 48.5438,-305.558
 L 48.6879,-305.732 L 48.8526,-305.887 L 49.0355,-306.02 L 49.2336,-306.129 L 49.4438,-306.212 L 49.6627,-306.268
 L 49.887,-306.296 L 50.113,-306.296 L 50.3373,-306.268 L 50.5562,-306.212 L 50.7664,-306.129 L 50.9645,-306.02
 L 51.1474,-305.887 L 51.3121,-305.732 L 51.4562,-305.558 L 51.5773,-305.367 L 51.6736,-305.163 L 51.7434,-304.948
 L 51.7858,-304.726 L 51.8,-304.5 L 51.7858,-304.274 L 51.7434,-304.052 L 51.6736,-303.837 L 51.5773,-303.633
 L 51.4562,-303.442 L 51.3121,-303.268 L 51.1474,-303.113 L 50.9645,-302.98 L 50.7664,-302.871 L 50.5562,-302.788
 L 50.3373,-302.732 L 50.113,-302.704 z
M 49.8116,-294.006 L 49.4379,-294.053 L 49.0729,-294.147 L 48.7227,-294.286 L 48.3925,-294.467 L 48.0877,-294.688
 L 47.8131,-294.946 L 47.5729,-295.237 L 47.3711,-295.555 L 47.2107,-295.896 L 47.0942,-296.254 L 47.0237,-296.624
 L 47,-297 L 47.0237,-297.376 L 47.0942,-297.746 L 47.2107,-298.104 L 47.3711,-298.445 L 47.5729,-298.763
 L 47.8131,-299.054 L 48.0877,-299.312 L 48.3925,-299.533 L 48.7227,-299.714 L 49.0729,-299.853 L 49.4379,-299.947
 L 49.8116,-299.994 L 50.1884,-299.994 L 50.5621,-299.947 L 50.927,-299.853 L 51.2773,-299.714 L 51.6075,-299.533
 L 51.9123,-299.312 L 52.1869,-299.054 L 52.427,-298.763 L 52.6289,-298.445 L 52.7893,-298.104 L 52.9057,-297.746
 L 52.9763,-297.376 L 53,-297 L 52.9763,-296.624 L 52.9057,-296.254 L 52.7893,-295.896 L 52.6289,-295.555
 L 52.427,-295.237 L 52.1869,-294.946 L 51.9123,-294.688 L 51.6075,-294.467 L 51.2773,-294.286 L 50.927,-294.147
 L 50.5621,-294.053 L 50.1884,-294.006 z
M 2.9369,-290.089 L 3.54507,-290.245 L 4.12889,-290.476 L 4.67912,-290.778 L 5.18712,-291.147 L 5.64484,-291.577
 L 6.04507,-292.061 L 6.38153,-292.591 L 6.64888,-293.159 L 6.84291,-293.757 L 6.96057,-294.373 L 7,-295
 L 7,-314.408 L -7,-314.408 L -7,-295 L -6.96057,-294.373 L -6.84291,-293.757 L -6.64888,-293.159
 L -6.38153,-292.591 L -6.04507,-292.061 L -5.64484,-291.577 L -5.18712,-291.147 L -4.67912,-290.778 L -4.12889,-290.476
 L -3.54507,-290.245 L -2.9369,-290.089 L -2.31395,-290.01 L 2.31395,-290.01 z
M -0.113022,-302.704 L -0.33728,-302.732 L -0.556229,-302.788 L -0.766388,-302.871 L -0.964478,-302.98 L -1.14735,-303.113
 L -1.31213,-303.268 L -1.45622,-303.442 L -1.57735,-303.633 L -1.67358,-303.837 L -1.74344,-304.052 L -1.7858,-304.274
 L -1.79999,-304.5 L -1.7858,-304.726 L -1.74344,-304.948 L -1.67358,-305.163 L -1.57735,-305.367 L -1.45622,-305.558
 L -1.31213,-305.732 L -1.14735,-305.887 L -0.964478,-306.02 L -0.766388,-306.129 L -0.556229,-306.212 L -0.33728,-306.268
 L -0.113022,-306.296 L 0.113022,-306.296 L 0.33728,-306.268 L 0.556229,-306.212 L 0.766388,-306.129 L 0.964478,-306.02
 L 1.14735,-305.887 L 1.31213,-305.732 L 1.45622,-305.558 L 1.57735,-305.367 L 1.67358,-305.163 L 1.74344,-304.948
 L 1.7858,-304.726 L 1.79999,-304.5 L 1.7858,-304.274 L 1.74344,-304.052 L 1.67358,-303.837 L 1.57735,-303.633
 L 1.45622,-303.442 L 1.31213,-303.268 L 1.14735,-303.113 L 0.964478,-302.98 L 0.766388,-302.871 L 0.556229,-302.788
 L 0.33728,-302.732 L 0.113022,-302.704 z
M -0.194641,-293.906 L -0.580872,-293.955 L -0.957947,-294.052 L -1.3199,-294.195 L -1.66106,-294.383 L -1.97601,-294.611
 L -2.2598,-294.878 L -2.50795,-295.178 L -2.71654,-295.507 L -2.88229,-295.859 L -3.00259,-296.229 L -3.07555,-296.611
 L -3.09999,-297 L -3.07555,-297.389 L -3.00259,-297.771 L -2.88229,-298.141 L -2.71654,-298.493 L -2.50795,-298.822
 L -2.2598,-299.122 L -1.97601,-299.389 L -1.66106,-299.617 L -1.3199,-299.805 L -0.957947,-299.948 L -0.580872,-300.045
 L -0.194641,-300.094 L 0.194641,-300.094 L 0.580872,-300.045 L 0.957947,-299.948 L 1.3199,-299.805 L 1.66106,-299.617
 L 1.97601,-299.389 L 2.2598,-299.122 L 2.50795,-298.822 L 2.71654,-298.493 L 2.88229,-298.141 L 3.00259,-297.771
 L 3.07555,-297.389 L 3.09999,-297 L 3.07555,-296.611 L 3.00259,-296.229 L 2.88229,-295.859 L 2.71654,-295.507
 L 2.50795,-295.178 L 2.2598,-294.878 L 1.97601,-294.611 L 1.66106,-294.383 L 1.3199,-294.195 L 0.957947,-294.052
 L 0.580872,-293.955 L 0.194641,-293.906 z
M 52.9369,-176.089 L 53.5451,-176.245 L 54.1289,-176.476 L 54.6791,-176.778 L 55.1871,-177.147 L 55.6448,-177.577
 L 56.0451,-178.061 L 56.3815,-178.591 L 56.6489,-179.159 L 56.8429,-179.757 L 56.9606,-180.373 L 57,-181
 L 57,-275 L 56.9606,-275.627 L 56.8429,-276.243 L 56.6489,-276.841 L 56.3815,-277.409 L 56.0451,-277.939
 L 55.6448,-278.423 L 55.1871,-278.853 L 54.6791,-279.222 L 54.1289,-279.524 L 53.5451,-279.755 L 52.9369,-279.911
 L 52.3139,-279.99 L 47.686,-279.99 L 47.0631,-279.911 L 46.4549,-279.755 L 45.8711,-279.524 L 45.3209,-279.222
 L 44.8129,-278.853 L 44.3551,-278.423 L 43.9549,-277.939 L 43.6185,-277.409 L 43.3511,-276.841 L 43.1571,-276.243
 L 43.0394,-275.627 L 43,-275 L 43,-181 L 43.0394,-180.373 L 43.1571,-179.757 L 43.3511,-179.159
 L 43.6185,-178.591 L 43.9549,-178.061 L 44.3551,-177.577 L 44.8129,-177.147 L 45.3209,-176.778 L 45.8711,-176.476
 L 46.4549,-176.245 L 47.0631,-176.089 L 47.686,-176.01 L 52.3139,-176.01 z
M 49.8116,-270.006 L 49.4379,-270.053 L 49.0729,-270.147 L 48.7227,-270.286 L 48.3925,-270.467 L 48.0877,-270.688
 L 47.8131,-270.946 L 47.5729,-271.237 L 47.3711,-271.555 L 47.2107,-271.896 L 47.0942,-272.254 L 47.0237,-272.624
 L 47,-273 L 47.0237,-273.376 L 47.0942,-273.746 L 47.2107,-274.104 L 47.3711,-274.445 L 47.5729,-274.763
 L 47.8131,-275.054 L 48.0877,-275.312 L 48.3925,-275.533 L 48.7227,-275.714 L 49.0729,-275.853 L 49.4379,-275.947
 L 49.8116,-275.994 L 50.1884,-275.994 L 50.5621,-275.947 L 50.927,-275.853 L 51.2773,-275.714 L 51.6075,-275.533
 L 51.9123,-275.312 L 52.1869,-275.054 L 52.427,-274.763 L 52.6289,-274.445 L 52.7893,-274.104 L 52.9057,-273.746
 L 52.9763,-273.376 L 53,-273 L 52.9763,-272.624 L 52.9057,-272.254 L 52.7893,-271.896 L 52.6289,-271.555
 L 52.427,-271.237 L 52.1869,-270.946 L 51.9123,-270.688 L 51.6075,-270.467 L 51.2773,-270.286 L 50.927,-270.147
 L 50.5621,-270.053 L 50.1884,-270.006 z
M 49.887,-263.704 L 49.6627,-263.732 L 49.4438,-263.788 L 49.2336,-263.871 L 49.0355,-263.98 L 48.8526,-264.113
 L 48.6879,-264.268 L 48.5438,-264.442 L 48.4226,-264.633 L 48.3264,-264.837 L 48.2565,-265.052 L 48.2142,-265.274
 L 48.2,-265.5 L 48.2142,-265.726 L 48.2565,-265.948 L 48.3264,-266.163 L 48.4226,-266.367 L 48.5438,-266.558
 L 48.6879,-266.732 L 48.8526,-266.887 L 49.0355,-267.02 L 49.2336,-267.129 L 49.4438,-267.212 L 49.6627,-267.268
 L 49.887,-267.296 L 50.113,-267.296 L 50.3373,-267.268 L 50.5562,-267.212 L 50.7664,-267.129 L 50.9645,-267.02
 L 51.1474,-266.887 L 51.3121,-266.732 L 51.4562,-266.558 L 51.5773,-266.367 L 51.6736,-266.163 L 51.7434,-265.948
 L 51.7858,-265.726 L 51.8,-265.5 L 51.7858,-265.274 L 51.7434,-265.052 L 51.6736,-264.837 L 51.5773,-264.633
 L 51.4562,-264.442 L 51.3121,-264.268 L 51.1474,-264.113 L 50.9645,-263.98 L 50.7664,-263.871 L 50.5562,-263.788
 L 50.3373,-263.732 L 50.113,-263.704 z
M 49.887,-188.704 L 49.6627,-188.732 L 49.4438,-188.788 L 49.2336,-188.871 L 49.0355,-188.98 L 48.8526,-189.113
 L 48.6879,-189.268 L 48.5438,-189.442 L 48.4226,-189.633 L 48.3264,-189.837 L 48.2565,-190.052 L 48.2142,-190.274
 L 48.2,-190.5 L 48.2142,-190.726 L 48.2565,-190.948 L 48.3264,-191.163 L 48.4226,-191.367 L 48.5438,-191.558
 L 48.6879,-191.732 L 48.8526,-191.887 L 49.0355,-192.02 L 49.2336,-192.129 L 49.4438,-192.212 L 49.6627,-192.268
 L 49.887,-192.296 L 50.113,-192.296 L 50.3373,-192.268 L 50.5562,-192.212 L 50.7664,-192.129 L 50.9645,-192.02
 L 51.1474,-191.887 L 51.3121,-191.732 L 51.4562,-191.558 L 51.5773,-191.367 L 51.6736,-191.163 L 51.7434,-190.948
 L 51.7858,-190.726 L 51.8,-190.5 L 51.7858,-190.274 L 51.7434,-190.052 L 51.6736,-189.837 L 51.5773,-189.633
 L 51.4562,-189.442 L 51.3121,-189.268 L 51.1474,-189.113 L 50.9645,-188.98 L 50.7664,-188.871 L 50.5562,-188.788
 L 50.3373,-188.732 L 50.113,-188.704 z
M 49.8116,-180.006 L 49.4379,-180.053 L 49.0729,-180.147 L 48.7227,-180.286 L 48.3925,-180.467 L 48.0877,-180.688
 L 47.8131,-180.946 L 47.5729,-181.237 L 47.3711,-181.555 L 47.2107,-181.896 L 47.0942,-182.254 L 47.0237,-182.624
 L 47,-183 L 47.0237,-183.376 L 47.0942,-183.746 L 47.2107,-184.104 L 47.3711,-184.445 L 47.5729,-184.763
 L 47.8131,-185.054 L 48.0877,-185.312 L 48.3925,-185.533 L 48.7227,-185.714 L 49.0729,-185.853 L 49.4379,-185.947
 L 49.8116,-185.994 L 50.1884,-185.994 L 50.5621,-185.947 L 50.927,-185.853 L 51.2773,-185.714 L 51.6075,-185.533
 L 51.9123,-185.312 L 52.1869,-185.054 L 52.427,-184.763 L 52.6289,-184.445 L 52.7893,-184.104 L 52.9057,-183.746
 L 52.9763,-183.376 L 53,-183 L 52.9763,-182.624 L 52.9057,-182.254 L 52.7893,-181.896 L 52.6289,-181.555
 L 52.427,-181.237 L 52.1869,-180.946 L 51.9123,-180.688 L 51.6075,-180.467 L 51.2773,-180.286 L 50.927,-180.147
 L 50.5621,-180.053 L 50.1884,-180.006 z
M 2.9369,-176.089 L 3.54507,-176.245 L 4.12889,-176.476 L 4.67912,-176.778 L 5.18712,-177.147 L 5.64484,-177.577
 L 6.04507,-178.061 L 6.38153,-178.591 L 6.64888,-179.159 L 6.84291,-179.757 L 6.96057,-180.373 L 7,-181
 L 7,-275 L 6.96057,-275.627 L 6.84291,-276.243 L 6.64888,-276.841 L 6.38153,-277.409 L 6.04507,-277.939
 L 5.64484,-278.423 L 5.18712,-278.853 L 4.67912,-279.222 L 4.12889,-279.524 L 3.54507,-279.755 L 2.9369,-279.911
 L 2.31395,-279.99 L -2.31395,-279.99 L -2.9369,-279.911 L -3.54507,-279.755 L -4.12889,-279.524 L -4.67912,-279.222
 L -5.18712,-278.853 L -5.64484,-278.423 L -6.04507,-277.939 L -6.38153,-277.409 L -6.64888,-276.841 L -6.84291,-276.243
 L -6.96057,-275.627 L -7,-275 L -7,-181 L -6.96057,-180.373 L -6.84291,-179.757 L -6.64888,-179.159
 L -6.38153,-178.591 L -6.04507,-178.061 L -5.64484,-177.577 L -5.18712,-177.147 L -4.67912,-176.778 L -4.12889,-176.476
 L -3.54507,-176.245 L -2.9369,-176.089 L -2.31395,-176.01 L 2.31395,-176.01 z
M -0.18837,-270.006 L -0.562134,-270.053 L -0.927048,-270.147 L -1.27733,-270.286 L -1.60747,-270.467 L -1.91226,-270.688
 L -2.1869,-270.946 L -2.42705,-271.237 L -2.62891,-271.555 L -2.78932,-271.896 L -2.90575,-272.254 L -2.97633,-272.624
 L -3,-273 L -2.97633,-273.376 L -2.90575,-273.746 L -2.78932,-274.104 L -2.62891,-274.445 L -2.42705,-274.763
 L -2.1869,-275.054 L -1.91226,-275.312 L -1.60747,-275.533 L -1.27733,-275.714 L -0.927048,-275.853 L -0.562134,-275.947
 L -0.18837,-275.994 L 0.18837,-275.994 L 0.562134,-275.947 L 0.927048,-275.853 L 1.27733,-275.714 L 1.60747,-275.533
 L 1.91226,-275.312 L 2.1869,-275.054 L 2.42705,-274.763 L 2.62891,-274.445 L 2.78932,-274.104 L 2.90575,-273.746
 L 2.97633,-273.376 L 3,-273 L 2.97633,-272.624 L 2.90575,-272.254 L 2.78932,-271.896 L 2.62891,-271.555
 L 2.42705,-271.237 L 2.1869,-270.946 L 1.91226,-270.688 L 1.60747,-270.467 L 1.27733,-270.286 L 0.927048,-270.147
 L 0.562134,-270.053 L 0.18837,-270.006 z
M -1.58675,-262.752 L -3.17349,-265.5 L -1.58675,-268.248 L 1.58675,-268.248 L 3.17349,-265.5 L 1.58675,-262.752
 z
M -1.58675,-187.752 L -3.17349,-190.5 L -1.58675,-193.248 L 1.58675,-193.248 L 3.17349,-190.5 L 1.58675,-187.752
 z
M -0.18837,-180.006 L -0.562134,-180.053 L -0.927048,-180.147 L -1.27733,-180.286 L -1.60747,-180.467 L -1.91226,-180.688
 L -2.1869,-180.946 L -2.42705,-181.237 L -2.62891,-181.555 L -2.78932,-181.896 L -2.90575,-182.254 L -2.97633,-182.624
 L -3,-183 L -2.97633,-183.376 L -2.90575,-183.746 L -2.78932,-184.104 L -2.62891,-184.445 L -2.42705,-184.763
 L -2.1869,-185.054 L -1.91226,-185.312 L -1.60747,-185.533 L -1.27733,-185.714 L -0.927048,-185.853 L -0.562134,-185.947
 L -0.18837,-185.994 L 0.18837,-185.994 L 0.562134,-185.947 L 0.927048,-185.853 L 1.27733,-185.714 L 1.60747,-185.533
 L 1.91226,-185.312 L 2.1869,-185.054 L 2.42705,-184.763 L 2.62891,-184.445 L 2.78932,-184.104 L 2.90575,-183.746
 L 2.97633,-183.376 L 3,-183 L 2.97633,-182.624 L 2.90575,-182.254 L 2.78932,-181.896 L 2.62891,-181.555
 L 2.42705,-181.237 L 2.1869,-180.946 L 1.91226,-180.688 L 1.60747,-180.467 L 1.27733,-180.286 L 0.927048,-180.147
 L 0.562134,-180.053 L 0.18837,-180.006 z
" stroke="black" fill="lightgray" stroke-width="0.5"/>
</svg>
