<?xml version="1.0" standalone="no"?>
<!DOCTYPE svg PUBLIC "-//W3C//DTD SVG 1.1//EN" "http://www.w3.org/Graphics/SVG/1.1/DTD/svg11.dtd">
<svg width="80mm" height="218mm" viewBox="-15 -394 80 218" xmlns="http://www.w3.org/2000/svg" version="1.1">
<title>OpenSCAD Model</title>
<path d="
M 64.5,-389 L 64.4606,-389.627 L 64.3429,-390.243 L 64.1489,-390.841 L 63.8815,-391.409 L 63.5451,-391.939
 L 63.1448,-392.423 L 62.6871,-392.853 L 62.1791,-393.222 L 61.6289,-393.524 L 61.0451,-393.755 L 60.4369,-393.911
 L 59.8139,-393.99 L 40.186,-393.99 L 39.5631,-393.911 L 38.9549,-393.755 L 38.3711,-393.524 L 37.8209,-393.222
 L 37.3129,-392.853 L 36.8551,-392.423 L 36.4549,-391.939 L 36.1185,-391.409 L 35.8511,-390.841 L 35.6571,-390.243
 L 35.5394,-389.627 L 35.5,-389 L 35.5,-369.592 L 64.5,-369.592 z
M 57.3116,-384.006 L 56.9379,-384.053 L 56.5729,-384.147 L 56.2227,-384.286 L 55.8925,-384.467 L 55.5877,-384.688
 L 55.3131,-384.946 L 55.0729,-385.237 L 54.8711,-385.555 L 54.7107,-385.896 L 54.5942,-386.254 L 54.5237,-386.624
 L 54.5,-387 L 54.5237,-387.376 L 54.5942,-387.746 L 54.7107,-388.104 L 54.8711,-388.445 L 55.0729,-388.763
 L 55.3131,-389.054 L 55.5877,-389.312 L 55.8925,-389.533 L 56.2227,-389.714 L 56.5729,-389.853 L 56.9379,-389.947
 L 57.3116,-389.994 L 57.6884,-389.994 L 58.0621,-389.947 L 58.427,-389.853 L 58.7773,-389.714 L 59.1075,-389.533
 L 59.4123,-389.312 L 59.6869,-389.054 L 59.927,-388.763 L 60.1289,-388.445 L 60.2893,-388.104 L 60.4057,-387.746
 L 60.4763,-387.376 L 60.5,-387 L 60.4763,-386.624 L 60.4057,-386.254 L 60.2893,-385.896 L 60.1289,-385.555
 L 59.927,-385.237 L 59.6869,-384.946 L 59.4123,-384.688 L 59.1075,-384.467 L 58.7773,-384.286 L 58.427,-384.147
 L 58.0621,-384.053 L 57.6884,-384.006 z
M 42.3116,-384.006 L 41.9379,-384.053 L 41.5729,-384.147 L 41.2227,-384.286 L 40.8925,-384.467 L 40.5877,-384.688
 L 40.3131,-384.946 L 40.0729,-385.237 L 39.8711,-385.555 L 39.7107,-385.896 L 39.5942,-386.254 L 39.5237,-386.624
 L 39.5,-387 L 39.5237,-387.376 L 39.5942,-387.746 L 39.7107,-388.104 L 39.8711,-388.445 L 40.0729,-388.763
 L 40.3131,-389.054 L 40.5877,-389.312 L 40.8925,-389.533 L 41.2227,-389.714 L 41.5729,-389.853 L 41.9379,-389.947
 L 42.3116,-389.994 L 42.6884,-389.994 L 43.0621,-389.947 L 43.427,-389.853 L 43.7773,-389.714 L 44.1075,-389.533
 L 44.4123,-389.312 L 44.6869,-389.054 L 44.927,-388.763 L 45.1289,-388.445 L 45.2893,-388.104 L 45.4057,-387.746
 L 45.4763,-387.376 L 45.5,-387 L 45.4763,-386.624 L 45.4057,-386.254 L 45.2893,-385.896 L 45.1289,-385.555
 L 44.927,-385.237 L 44.6869,-384.946 L 44.4123,-384.688 L 44.1075,-384.467 L 43.7773,-384.286 L 43.427,-384.147
 L 43.0621,-384.053 L 42.6884,-384.006 z
M 49.9058,-385.503 L 49.7189,-385.527 L 49.5365,-385.573 L 49.3613,-385.643 L 49.1963,-385.734 L 49.0439,-385.844
 L 48.9065,-385.973 L 48.7865,-386.118 L 48.6855,-386.277 L 48.6053,-386.448 L 48.5471,-386.627 L 48.5118,-386.812
 L 48.5,-387 L 48.5118,-387.188 L 48.5471,-387.373 L 48.6053,-387.552 L 48.6855,-387.723 L 48.7865,-387.882
 L 48.9065,-388.027 L 49.0439,-388.156 L 49.1963,-388.266 L 49.3613,-388.357 L 49.5365,-388.427 L 49.7189,-388.473
 L 49.9058,-388.497 L 50.0942,-388.497 L 50.2811,-388.473 L 50.4635,-388.427 L 50.6387,-388.357 L 50.8037,-388.266
 L 50.9561,-388.156 L 51.0934,-388.027 L 51.2135,-387.882 L 51.3145,-387.723 L 51.3947,-387.552 L 51.4529,-387.373
 L 51.4882,-387.188 L 51.5,-387 L 51.4882,-386.812 L 51.4529,-386.627 L 51.3947,-386.448 L 51.3145,-386.277
 L 51.2135,-386.118 L 51.0934,-385.973 L 50.9561,-385.844 L 50.8037,-385.734 L 50.6387,-385.643 L 50.4635,-385.573
 L 50.2811,-385.527 L 50.0942,-385.503 z
M 49.887,-377.704 L 49.6627,-377.732 L 49.4438,-377.788 L 49.2336,-377.871 L 49.0355,-377.98 L 48.8526,-378.113
 L 48.6879,-378.268 L 48.5438,-378.442 L 48.4226,-378.633 L 48.3264,-378.837 L 48.2565,-379.052 L 48.2142,-379.274
 L 48.2,-379.5 L 48.2142,-379.726 L 48.2565,-379.948 L 48.3264,-380.163 L 48.4226,-380.367 L 48.5438,-380.558
 L 48.6879,-380.732 L 48.8526,-380.887 L 49.0355,-381.02 L 49.2336,-381.129 L 49.4438,-381.212 L 49.6627,-381.268
 L 49.887,-381.296 L 50.113,-381.296 L 50.3373,-381.268 L 50.5562,-381.212 L 50.7664,-381.129 L 50.9645,-381.02
 L 51.1474,-380.887 L 51.3121,-380.732 L 51.4562,-380.558 L 51.5773,-380.367 L 51.6736,-380.163 L 51.7434,-379.948
 L 51.7858,-379.726 L 51.8,-379.5 L 51.7858,-379.274 L 51.7434,-379.052 L 51.6736,-378.837 L 51.5773,-378.633
 L 51.4562,-378.442 L 51.3121,-378.268 L 51.1474,-378.113 L 50.9645,-377.98 L 50.7664,-377.871 L 50.5562,-377.788
 L 50.3373,-377.732 L 50.113,-377.704 z
M 42.4058,-378.003 L 42.2189,-378.027 L 42.0365,-378.073 L 41.8613,-378.143 L 41.6963,-378.234 L 41.5439,-378.344
 L 41.4065,-378.473 L 41.2865,-378.618 L 41.1855,-378.777 L 41.1053,-378.948 L 41.0471,-379.127 L 41.0118,-379.312
 L 41,-379.5 L 41.0118,-379.688 L 41.0471,-379.873 L 41.1053,-380.052 L 41.1855,-380.223 L 41.2865,-380.382
 L 41.4065,-380.527 L 41.5439,-380.656 L 41.6963,-380.766 L 41.8613,-380.857 L 42.0365,-380.927 L 42.2189,-380.973
 L 42.4058,-380.997 L 42.5942,-380.997 L 42.7811,-380.973 L 42.9635,-380.927 L 43.1387,-380.857 L 43.3037,-380.766
 L 43.4561,-380.656 L 43.5934,-380.527 L 43.7135,-380.382 L 43.8145,-380.223 L 43.8947,-380.052 L 43.9529,-379.873
 L 43.9882,-379.688 L 44,-379.5 L 43.9882,-379.312 L 43.9529,-379.127 L 43.8947,-378.948 L 43.8145,-378.777
 L 43.7135,-378.618 L 43.5934,-378.473 L 43.4561,-378.344 L 43.3037,-378.234 L 43.1387,-378.143 L 42.9635,-378.073
 L 42.7811,-378.027 L 42.5942,-378.003 z
M 57.4058,-378.003 L 57.2189,-378.027 L 57.0365,-378.073 L 56.8613,-378.143 L 56.6963,-378.234 L 56.5439,-378.344
 L 56.4065,-378.473 L 56.2865,-378.618 L 56.1855,-378.777 L 56.1053,-378.948 L 56.0471,-379.127 L 56.0118,-379.312
 L 56,-379.5 L 56.0118,-379.688 L 56.0471,-379.873 L 56.1053,-380.052 L 56.1855,-380.223 L 56.2865,-380.382
 L 56.4065,-380.527 L 56.5439,-380.656 L 56.6963,-380.766 L 56.8613,-380.857 L 57.0365,-380.927 L 57.2189,-380.973
 L 57.4058,-380.997 L 57.5942,-380.997 L 57.7811,-380.973 L 57.9635,-380.927 L 58.1387,-380.857 L 58.3037,-380.766
 L 58.4561,-380.656 L 58.5934,-380.527 L 58.7135,-380.382 L 58.8145,-380.223 L 58.8947,-380.052 L 58.9529,-379.873
 L 58.9882,-379.688 L 59,-379.5 L 58.9882,-379.312 L 58.9529,-379.127 L 58.8947,-378.948 L 58.8145,-378.777
 L 58.7135,-378.618 L 58.5934,-378.473 L 58.4561,-378.344 L 58.3037,-378.234 L 58.1387,-378.143 L 57.9635,-378.073
 L 57.7811,-378.027 L 57.5942,-378.003 z
M 14.5,-389 L 14.4606,-389.627 L 14.3429,-390.243 L 14.1489,-390.841 L 13.8815,-391.409 L 13.5451,-391.939
 L 13.1448,-392.423 L 12.6871,-392.853 L 12.1791,-393.222 L 11.6289,-393.524 L 11.0451,-393.755 L 10.4369,-393.911
 L 9.81395,-393.99 L -9.81395,-393.99 L -10.4369,-393.911 L -11.0451,-393.755 L -11.6289,-393.524 L -12.1791,-393.222
 L -12.6871,-392.853 L -13.1448,-392.423 L -13.5451,-391.939 L -13.8815,-391.409 L -14.1489,-390.841 L -14.3429,-390.243
 L -14.4606,-389.627 L -14.5,-389 L -14.5,-369.592 L 14.5,-369.592 z
M -0.194641,-383.906 L -0.580872,-383.955 L -0.957947,-384.052 L -1.3199,-384.195 L -1.66106,-384.383 L -1.97601,-384.611
 L -2.2598,-384.878 L -2.50795,-385.178 L -2.71654,-385.507 L -2.88229,-385.859 L -3.00259,-386.229 L -3.07555,-386.611
 L -3.09999,-387 L -3.07555,-387.389 L -3.00259,-387.771 L -2.88229,-388.141 L -2.71654,-388.493 L -2.50795,-388.822
 L -2.2598,-389.122 L -1.97601,-389.389 L -1.66106,-389.617 L -1.3199,-389.805 L -0.957947,-389.948 L -0.580872,-390.045
 L -0.194641,-390.094 L 0.194641,-390.094 L 0.580872,-390.045 L 0.957947,-389.948 L 1.3199,-389.805 L 1.66106,-389.617
 L 1.97601,-389.389 L 2.2598,-389.122 L 2.50795,-388.822 L 2.71654,-388.493 L 2.88229,-388.141 L 3.00259,-387.771
 L 3.07555,-387.389 L 3.09999,-387 L 3.07555,-386.611 L 3.00259,-386.229 L 2.88229,-385.859 L 2.71654,-385.507
 L 2.50795,-385.178 L 2.2598,-384.878 L 1.97601,-384.611 L 1.66106,-384.383 L 1.3199,-384.195 L 0.957947,-384.052
 L 0.580872,-383.955 L 0.194641,-383.906 z
M 7.31161,-384.006 L 6.93785,-384.053 L 6.57294,-384.147 L 6.22266,-384.286 L 5.89252,-384.467 L 5.58772,-384.688
 L 5.31308,-384.946 L 5.07294,-385.237 L 4.87108,-385.555 L 4.71066,-385.896 L 4.59424,-386.254 L 4.52365,-386.624
 L 4.5,-387 L 4.52365,-387.376 L 4.59424,-387.746 L 4.71066,-388.104 L 4.87108,-388.445 L 5.07294,-388.763
 L 5.31308,-389.054 L 5.58772,-389.312 L 5.89252,-389.533 L 6.22266,-389.714 L 6.57294,-389.853 L 6.93785,-389.947
 L 7.31161,-389.994 L 7.68837,-389.994 L 8.06213,-389.947 L 8.42705,-389.853 L 8.77733,-389.714 L 9.10747,-389.533
 L 9.41226,-389.312 L 9.6869,-389.054 L 9.92705,-388.763 L 10.1289,-388.445 L 10.2893,-388.104 L 10.4057,-387.746
 L 10.4763,-387.376 L 10.5,-387 L 10.4763,-386.624 L 10.4057,-386.254 L 10.2893,-385.896 L 10.1289,-385.555
 L 9.92705,-385.237 L 9.6869,-384.946 L 9.41226,-384.688 L 9.10747,-384.467 L 8.77733,-384.286 L 8.42705,-384.147
 L 8.06213,-384.053 L 7.68837,-384.006 z
M -7.68837,-384.006 L -8.06213,-384.053 L -8.42705,-384.147 L -8.77733,-384.286 L -9.10747,-384.467 L -9.41226,-384.688
 L -9.6869,-384.946 L -9.92705,-385.237 L -10.1289,-385.555 L -10.2893,-385.896 L -10.4057,-386.254 L -10.4763,-386.624
 L -10.5,-387 L -10.4763,-387.376 L -10.4057,-387.746 L -10.2893,-388.104 L -10.1289,-388.445 L -9.92705,-388.763
 L -9.6869,-389.054 L -9.41226,-389.312 L -9.10747,-389.533 L -8.77733,-389.714 L -8.42705,-389.853 L -8.06213,-389.947
 L -7.68837,-389.994 L -7.31161,-389.994 L -6.93785,-389.947 L -6.57294,-389.853 L -6.22266,-389.714 L -5.89252,-389.533
 L -5.58772,-389.312 L -5.31308,-389.054 L -5.07294,-388.763 L -4.87108,-388.445 L -4.71066,-388.104 L -4.59424,-387.746
 L -4.52365,-387.376 L -4.5,-387 L -4.52365,-386.624 L -4.59424,-386.254 L -4.71066,-385.896 L -4.87108,-385.555
 L -5.07294,-385.237 L -5.31308,-384.946 L -5.58772,-384.688 L -5.89252,-384.467 L -6.22266,-384.286 L -6.57294,-384.147
 L -6.93785,-384.053 L -7.31161,-384.006 z
M -0.113022,-377.704 L -0.33728,-377.732 L -0.556229,-377.788 L -0.766388,-377.871 L -0.964478,-377.98 L -1.14735,-378.113
 L -1.31213,-378.268 L -1.45622,-378.442 L -1.57735,-378.633 L -1.67358,-378.837 L -1.74344,-379.052 L -1.7858,-379.274
 L -1.79999,-379.5 L -1.7858,-379.726 L -1.74344,-379.948 L -1.67358,-380.163 L -1.57735,-380.367 L -1.45622,-380.558
 L -1.31213,-380.732 L -1.14735,-380.887 L -0.964478,-381.02 L -0.766388,-381.129 L -0.556229,-381.212 L -0.33728,-381.268
 L -0.113022,-381.296 L 0.113022,-381.296 L 0.33728,-381.268 L 0.556229,-381.212 L 0.766388,-381.129 L 0.964478,-381.02
 L 1.14735,-380.887 L 1.31213,-380.732 L 1.45622,-380.558 L 1.57735,-380.367 L 1.67358,-380.163 L 1.74344,-379.948
 L 1.7858,-379.726 L 1.79999,-379.5 L 1.7858,-379.274 L 1.74344,-379.052 L 1.67358,-378.837 L 1.57735,-378.633
 L 1.45622,-378.442 L 1.31213,-378.268 L 1.14735,-378.113 L 0.964478,-377.98 L 0.766388,-377.871 L 0.556229,-377.788
 L 0.33728,-377.732 L 0.113022,-377.704 z
M 7.40581,-378.003 L 7.21892,-378.027 L 7.03647,-378.073 L 6.86133,-378.143 L 6.69626,-378.234 L 6.54385,-378.344
 L 6.40654,-378.473 L 6.28647,-378.618 L 6.18553,-378.777 L 6.10533,-378.948 L 6.04712,-379.127 L 6.01183,-379.312
 L 6,-379.5 L 6.01183,-379.688 L 6.04712,-379.873 L 6.10533,-380.052 L 6.18553,-380.223 L 6.28647,-380.382
 L 6.40654,-380.527 L 6.54385,-380.656 L 6.69626,-380.766 L 6.86133,-380.857 L 7.03647,-380.927 L 7.21892,-380.973
 L 7.40581,-380.997 L 7.59418,-380.997 L 7.78107,-380.973 L 7.96352,-380.927 L 8.13866,-380.857 L 8.30373,-380.766
 L 8.45613,-380.656 L 8.59344,-380.527 L 8.71352,-380.382 L 8.81445,-380.223 L 8.89465,-380.052 L 8.95287,-379.873
 L 8.98816,-379.688 L 9,-379.5 L 8.98816,-379.312 L 8.95287,-379.127 L 8.89465,-378.948 L 8.81445,-378.777
 L 8.71352,-378.618 L 8.59344,-378.473 L 8.45613,-378.344 L 8.30373,-378.234 L 8.13866,-378.143 L 7.96352,-378.073
 L 7.78107,-378.027 L 7.59418,-378.003 z
M -7.59418,-378.003 L -7.78107,-378.027 L -7.96352,-378.073 L -8.13866,-378.143 L -8.30373,-378.234 L -8.45613,-378.344
 L -8.59344,-378.473 L -8.71352,-378.618 L -8.81445,-378.777 L -8.89465,-378.948 L -8.95287,-379.127 L -8.98816,-379.312
 L -9,-379.5 L -8.98816,-379.688 L -8.95287,-379.873 L -8.89465,-380.052 L -8.81445,-380.223 L -8.71352,-380.382
 L -8.59344,-380.527 L -8.45613,-380.656 L -8.30373,-380.766 L -8.13866,-380.857 L -7.96352,-380.927 L -7.78107,-380.973
 L -7.59418,-380.997 L -7.40581,-380.997 L -7.21892,-380.973 L -7.03647,-380.927 L -6.86133,-380.857 L -6.69626,-380.766
 L -6.54385,-380.656 L -6.40654,-380.527 L -6.28647,-380.382 L -6.18553,-380.223 L -6.10533,-380.052 L -6.04712,-379.873
 L -6.01183,-379.688 L -6,-379.5 L -6.01183,-379.312 L -6.04712,-379.127 L -6.10533,-378.948 L -6.18553,-378.777
 L -6.28647,-378.618 L -6.40654,-378.473 L -6.54385,-378.344 L -6.69626,-378.234 L -6.86133,-378.143 L -7.03647,-378.073
 L -7.21892,-378.027 L -7.40581,-378.003 z
M 14.5,-364.408 L -14.5,-364.408 L -14.5,-359.592 L 14.5,-359.592 z
M 64.5,-364.408 L 35.5,-364.408 L 35.5,-359.592 L 64.5,-359.592 z
M 14.5,-354.408 L -14.5,-354.408 L -14.5,-349.592 L 14.5,-349.592 z
M 64.5,-354.408 L 35.5,-354.408 L 35.5,-349.592 L 64.5,-349.592 z
M 64.5,-344.408 L 35.5,-344.408 L 35.5,-339.592 L 64.5,-339.592 z
M 14.5,-344.408 L -14.5,-344.408 L -14.5,-339.592 L 14.5,-339.592 z
M 14.5,-334.408 L -14.5,-334.408 L -14.5,-329.592 L 14.5,-329.592 z
M 64.5,-334.408 L 35.5,-334.408 L 35.5,-329.592 L 64.5,-329.592 z
M 64.5,-324.408 L 35.5,-324.408 L 35.5,-319.592 L 64.5,-319.592 z
M 14.5,-324.408 L -14.5,-324.408 L -14.5,-319.592 L 14.5,-319.592 z
M 60.4369,-290.089 L 61.0451,-290.245 L 61.6289,-290.476 L 62.1791,-290.778 L 62.6871,-291.147 L 63.1448,-291.577
 L 63.5451,-292.061 L 63.8815,-292.591 L 64.1489,-293.159 L 64.3429,-293.757 L 64.4606,-294.373 L 64.5,-295
 L 64.5,-314.408 L 35.5,-314.408 L 35.5,-295 L 35.5394,-294.373 L 35.6571,-293.757 L 35.8511,-293.159
 L 36.1185,-292.591 L 36.4549,-292.061 L 36.8551,-291.577 L 37.3129,-291.147 L 37.8209,-290.778 L 38.3711,-290.476
 L 38.9549,-290.245 L 39.5631,-290.089 L 40.186,-290.01 L 59.8139,-290.01 z
M 49.887,-302.704 L 49.6627,-302.732 L 49.4438,-302.788 L 49.2336,-302.871 L 49.0355,-302.98 L 48.8526,-303.113
 L 48.6879,-303.268 L 48.5438,-303.442 L 48.4226,-303.633 L 48.3264,-303.837 L 48.2565,-304.052 L 48.2142,-304.274
 L 48.2,-304.5 L 48.2142,-304.726 L 48.2565,-304.948 L 48.3264,-305.163 L 48.4226,-305.367 L 48.5438,-305.558
 L 48.6879,-305.732 L 48.8526,-305.887 L 49.0355,-306.02 L 49.2336,-306.129 L 49.4438,-306.212 L 49.6627,-306.268
 L 49.887,-306.296 L 50.113,-306.296 L 50.3373,-306.268 L 50.5562,-306.212 L 50.7664,-306.129 L 50.9645,-306.02
 L 51.1474,-305.887 L 51.3121,-305.732 L 51.4562,-305.558 L 51.5773,-305.367 L 51.6736,-305.163 L 51.7434,-304.948
 L 51.7858,-304.726 L 51.8,-304.5 L 51.7858,-304.274 L 51.7434,-304.052 L 51.6736,-303.837 L 51.5773,-303.633
 L 51.4562,-303.442 L 51.3121,-303.268 L 51.1474,-303.113 L 50.9645,-302.98 L 50.7664,-302.871 L 50.5562,-302.788
 L 50.3373,-302.732 L 50.113,-302.704 z
M 42.4058,-303.003 L 42.2189,-303.027 L 42.0365,-303.073 L 41.8613,-303.143 L 41.6963,-303.234 L 41.5439,-303.344
 L 41.4065,-303.473 L 41.2865,-303.618 L 41.1855,-303.777 L 41.1053,-303.948 L 41.0471,-304.127 L 41.0118,-304.312
 L 41,-304.5 L 41.0118,-304.688 L 41.0471,-304.873 L 41.1053,-305.052 L 41.1855,-305.223 L 41.2865,-305.382
 L 41.4065,-305.527 L 41.5439,-305.656 L 41.6963,-305.766 L 41.8613,-305.857 L 42.0365,-305.927 L 42.2189,-305.973
 L 42.4058,-305.997 L 42.5942,-305.997 L 42.7811,-305.973 L 42.9635,-305.927 L 43.1387,-305.857 L 43.3037,-305.766
 L 43.4561,-305.656 L 43.5934,-305.527 L 43.7135,-305.382 L 43.8145,-305.223 L 43.8947,-305.052 L 43.9529,-304.873
 L 43.9882,-304.688 L 44,-304.5 L 43.9882,-304.312 L 43.9529,-304.127 L 43.8947,-303.948 L 43.8145,-303.777
 L 43.7135,-303.618 L 43.5934,-303.473 L 43.4561,-303.344 L 43.3037,-303.234 L 43.1387,-303.143 L 42.9635,-303.073
 L 42.7811,-303.027 L 42.5942,-303.003 z
M 57.4058,-303.003 L 57.2189,-303.027 L 57.0365,-303.073 L 56.8613,-303.143 L 56.6963,-303.234 L 56.5439,-303.344
 L 56.4065,-303.473 L 56.2865,-303.618 L 56.1855,-303.777 L 56.1053,-303.948 L 56.0471,-304.127 L 56.0118,-304.312
 L 56,-304.5 L 56.0118,-304.688 L 56.0471,-304.873 L 56.1053,-305.052 L 56.1855,-305.223 L 56.2865,-305.382
 L 56.4065,-305.527 L 56.5439,-305.656 L 56.6963,-305.766 L 56.8613,-305.857 L 57.0365,-305.927 L 57.2189,-305.973
 L 57.4058,-305.997 L 57.5942,-305.997 L 57.7811,-305.973 L 57.9635,-305.927 L 58.1387,-305.857 L 58.3037,-305.766
 L 58.4561,-305.656 L 58.5934,-305.527 L 58.7135,-305.382 L 58.8145,-305.223 L 58.8947,-305.052 L 58.9529,-304.873
 L 58.9882,-304.688 L 59,-304.5 L 58.9882,-304.312 L 58.9529,-304.127 L 58.8947,-303.948 L 58.8145,-303.777
 L 58.7135,-303.618 L 58.5934,-303.473 L 58.4561,-303.344 L 58.3037,-303.234 L 58.1387,-303.143 L 57.9635,-303.073
 L 57.7811,-303.027 L 57.5942,-303.003 z
M 42.3116,-294.006 L 41.9379,-294.053 L 41.5729,-294.147 L 41.2227,-294.286 L 40.8925,-294.467 L 40.5877,-294.688
 L 40.3131,-294.946 L 40.0729,-295.237 L 39.8711,-295.555 L 39.7107,-295.896 L 39.5942,-296.254 L 39.5237,-296.624
 L 39.5,-297 L 39.5237,-297.376 L 39.5942,-297.746 L 39.7107,-298.104 L 39.8711,-298.445 L 40.0729,-298.763
 L 40.3131,-299.054 L 40.5877,-299.312 L 40.8925,-299.533 L 41.2227,-299.714 L 41.5729,-299.853 L 41.9379,-299.947
 L 42.3116,-299.994 L 42.6884,-299.994 L 43.0621,-299.947 L 43.427,-299.853 L 43.7773,-299.714 L 44.1075,-299.533
 L 44.4123,-299.312 L 44.6869,-299.054 L 44.927,-298.763 L 45.1289,-298.445 L 45.2893,-298.104 L 45.4057,-297.746
 L 45.4763,-297.376 L 45.5,-297 L 45.4763,-296.624 L 45.4057,-296.254 L 45.2893,-295.896 L 45.1289,-295.555
 L 44.927,-295.237 L 44.6869,-294.946 L 44.4123,-294.688 L 44.1075,-294.467 L 43.7773,-294.286 L 43.427,-294.147
 L 43.0621,-294.053 L 42.6884,-294.006 z
M 57.3116,-294.006 L 56.9379,-294.053 L 56.5729,-294.147 L 56.2227,-294.286 L 55.8925,-294.467 L 55.5877,-294.688
 L 55.3131,-294.946 L 55.0729,-295.237 L 54.8711,-295.555 L 54.7107,-295.896 L 54.5942,-296.254 L 54.5237,-296.624
 L 54.5,-297 L 54.5237,-297.376 L 54.5942,-297.746 L 54.7107,-298.104 L 54.8711,-298.445 L 55.0729,-298.763
 L 55.3131,-299.054 L 55.5877,-299.312 L 55.8925,-299.533 L 56.2227,-299.714 L 56.5729,-299.853 L 56.9379,-299.947
 L 57.3116,-299.994 L 57.6884,-299.994 L 58.0621,-299.947 L 58.427,-299.853 L 58.7773,-299.714 L 59.1075,-299.533
 L 59.4123,-299.312 L 59.6869,-299.054 L 59.927,-298.763 L 60.1289,-298.445 L 60.2893,-298.104 L 60.4057,-297.746
 L 60.4763,-297.376 L 60.5,-297 L 60.4763,-296.624 L 60.4057,-296.254 L 60.2893,-295.896 L 60.1289,-295.555
 L 59.927,-295.237 L 59.6869,-294.946 L 59.4123,-294.688 L 59.1075,-294.467 L 58.7773,-294.286 L 58.427,-294.147
 L 58.0621,-294.053 L 57.6884,-294.006 z
M 49.9058,-295.503 L 49.7189,-295.527 L 49.5365,-295.573 L 49.3613,-295.643 L 49.1963,-295.734 L 49.0439,-295.844
 L 48.9065,-295.973 L 48.7865,-296.118 L 48.6855,-296.277 L 48.6053,-296.448 L 48.5471,-296.627 L 48.5118,-296.812
 L 48.5,-297 L 48.5118,-297.188 L 48.5471,-297.373 L 48.6053,-297.552 L 48.6855,-297.723 L 48.7865,-297.882
 L 48.9065,-298.027 L 49.0439,-298.156 L 49.1963,-298.266 L 49.3613,-298.357 L 49.5365,-298.427 L 49.7189,-298.473
 L 49.9058,-298.497 L 50.0942,-298.497 L 50.2811,-298.473 L 50.4635,-298.427 L 50.6387,-298.357 L 50.8037,-298.266
 L 50.9561,-298.156 L 51.0934,-298.027 L 51.2135,-297.882 L 51.3145,-297.723 L 51.3947,-297.552 L 51.4529,-297.373
 L 51.4882,-297.188 L 51.5,-297 L 51.4882,-296.812 L 51.4529,-296.627 L 51.3947,-296.448 L 51.3145,-296.277
 L 51.2135,-296.118 L 51.0934,-295.973 L 50.9561,-295.844 L 50.8037,-295.734 L 50.6387,-295.643 L 50.4635,-295.573
 L 50.2811,-295.527 L 50.0942,-295.503 z
M 10.4369,-290.089 L 11.0451,-290.245 L 11.6289,-290.476 L 12.1791,-290.778 L 12.6871,-291.147 L 13.1448,-291.577
 L 13.5451,-292.061 L 13.8815,-292.591 L 14.1489,-293.159 L 14.3429,-293.757 L 14.4606,-294.373 L 14.5,-295
 L 14.5,-314.408 L -14.5,-314.408 L -14.5,-295 L -14.4606,-294.373 L -14.3429,-293.757 L -14.1489,-293.159
 L -13.8815,-292.591 L -13.5451,-292.061 L -13.1448,-291.577 L -12.6871,-291.147 L -12.1791,-290.778 L -11.6289,-290.476
 L -11.0451,-290.245 L -10.4369,-290.089 L -9.81395,-290.01 L 9.81395,-290.01 z
M -0.113022,-302.704 L -0.33728,-302.732 L -0.556229,-302.788 L -0.766388,-302.871 L -0.964478,-302.98 L -1.14735,-303.113
 L -1.31213,-303.268 L -1.45622,-303.442 L -1.57735,-303.633 L -1.67358,-303.837 L -1.74344,-304.052 L -1.7858,-304.274
 L -1.79999,-304.5 L -1.7858,-304.726 L -1.74344,-304.948 L -1.67358,-305.163 L -1.57735,-305.367 L -1.45622,-305.558
 L -1.31213,-305.732 L -1.14735,-305.887 L -0.964478,-306.02 L -0.766388,-306.129 L -0.556229,-306.212 L -0.33728,-306.268
 L -0.113022,-306.296 L 0.113022,-306.296 L 0.33728,-306.268 L 0.556229,-306.212 L 0.766388,-306.129 L 0.964478,-306.02
 L 1.14735,-305.887 L 1.31213,-305.732 L 1.45622,-305.558 L 1.57735,-305.367 L 1.67358,-305.163 L 1.74344,-304.948
 L 1.7858,-304.726 L 1.79999,-304.5 L 1.7858,-304.274 L 1.74344,-304.052 L 1.67358,-303.837 L 1.57735,-303.633
 L 1.45622,-303.442 L 1.31213,-303.268 L 1.14735,-303.113 L 0.964478,-302.98 L 0.766388,-302.871 L 0.556229,-302.788
 L 0.33728,-302.732 L 0.113022,-302.704 z
M 7.40581,-303.003 L 7.21892,-303.027 L 7.03647,-303.073 L 6.86133,-303.143 L 6.69626,-303.234 L 6.54385,-303.344
 L 6.40654,-303.473 L 6.28647,-303.618 L 6.18553,-303.777 L 6.10533,-303.948 L 6.04712,-304.127 L 6.01183,-304.312
 L 6,-304.5 L 6.01183,-304.688 L 6.04712,-304.873 L 6.10533,-305.052 L 6.18553,-305.223 L 6.28647,-305.382
 L 6.40654,-305.527 L 6.54385,-305.656 L 6.69626,-305.766 L 6.86133,-305.857 L 7.03647,-305.927 L 7.21892,-305.973
 L 7.40581,-305.997 L 7.59418,-305.997 L 7.78107,-305.973 L 7.96352,-305.927 L 8.13866,-305.857 L 8.30373,-305.766
 L 8.45613,-305.656 L 8.59344,-305.527 L 8.71352,-305.382 L 8.81445,-305.223 L 8.89465,-305.052 L 8.95287,-304.873
 L 8.98816,-304.688 L 9,-304.5 L 8.98816,-304.312 L 8.95287,-304.127 L 8.89465,-303.948 L 8.81445,-303.777
 L 8.71352,-303.618 L 8.59344,-303.473 L 8.45613,-303.344 L 8.30373,-303.234 L 8.13866,-303.143 L 7.96352,-303.073
 L 7.78107,-303.027 L 7.59418,-303.003 z
M -7.59418,-303.003 L -7.78107,-303.027 L -7.96352,-303.073 L -8.13866,-303.143 L -8.30373,-303.234 L -8.45613,-303.344
 L -8.59344,-303.473 L -8.71352,-303.618 L -8.81445,-303.777 L -8.89465,-303.948 L -8.95287,-304.127 L -8.98816,-304.312
 L -9,-304.5 L -8.98816,-304.688 L -8.95287,-304.873 L -8.89465,-305.052 L -8.81445,-305.223 L -8.71352,-305.382
 L -8.59344,-305.527 L -8.45613,-305.656 L -8.30373,-305.766 L -8.13866,-305.857 L -7.96352,-305.927 L -7.78107,-305.973
 L -7.59418,-305.997 L -7.40581,-305.997 L -7.21892,-305.973 L -7.03647,-305.927 L -6.86133,-305.857 L -6.69626,-305.766
 L -6.54385,-305.656 L -6.40654,-305.527 L -6.28647,-305.382 L -6.18553,-305.223 L -6.10533,-305.052 L -6.04712,-304.873
 L -6.01183,-304.688 L -6,-304.5 L -6.01183,-304.312 L -6.04712,-304.127 L -6.10533,-303.948 L -6.18553,-303.777
 L -6.28647,-303.618 L -6.40654,-303.473 L -6.54385,-303.344 L -6.69626,-303.234 L -6.86133,-303.143 L -7.03647,-303.073
 L -7.21892,-303.027 L -7.40581,-303.003 z
M -0.194641,-293.906 L -0.580872,-293.955 L -0.957947,-294.052 L -1.3199,-294.195 L -1.66106,-294.383 L -1.97601,-294.611
 L -2.2598,-294.878 L -2.50795,-295.178 L -2.71654,-295.507 L -2.88229,-295.859 L -3.00259,-296.229 L -3.07555,-296.611
 L -3.09999,-297 L -3.07555,-297.389 L -3.00259,-297.771 L -2.88229,-298.141 L -2.71654,-298.493 L -2.50795,-298.822
 L -2.2598,-299.122 L -1.97601,-299.389 L -1.66106,-299.617 L -1.3199,-299.805 L -0.957947,-299.948 L -0.580872,-300.045
 L -0.194641,-300.094 L 0.194641,-300.094 L 0.580872,-300.045 L 0.957947,-299.948 L 1.3199,-299.805 L 1.66106,-299.617
 L 1.97601,-299.389 L 2.2598,-299.122 L 2.50795,-298.822 L 2.71654,-298.493 L 2.88229,-298.141 L 3.00259,-297.771
 L 3.07555,-297.389 L 3.09999,-297 L 3.07555,-296.611 L 3.00259,-296.229 L 2.88229,-295.859 L 2.71654,-295.507
 L 2.50795,-295.178 L 2.2598,-294.878 L 1.97601,-294.611 L 1.66106,-294.383 L 1.3199,-294.195 L 0.957947,-294.052
 L 0.580872,-293.955 L 0.194641,-293.906 z
M 7.31161,-294.006 L 6.93785,-294.053 L 6.57294,-294.147 L 6.22266,-294.286 L 5.89252,-294.467 L 5.58772,-294.688
 L 5.31308,-294.946 L 5.07294,-295.237 L 4.87108,-295.555 L 4.71066,-295.896 L 4.59424,-296.254 L 4.52365,-296.624
 L 4.5,-297 L 4.52365,-297.376 L 4.59424,-297.746 L 4.71066,-298.104 L 4.87108,-298.445 L 5.07294,-298.763
 L 5.31308,-299.054 L 5.58772,-299.312 L 5.89252,-299.533 L 6.22266,-299.714 L 6.57294,-299.853 L 6.93785,-299.947
 L 7.31161,-299.994 L 7.68837,-299.994 L 8.06213,-299.947 L 8.42705,-299.853 L 8.77733,-299.714 L 9.10747,-299.533
 L 9.41226,-299.312 L 9.6869,-299.054 L 9.92705,-298.763 L 10.1289,-298.445 L 10.2893,-298.104 L 10.4057,-297.746
 L 10.4763,-297.376 L 10.5,-297 L 10.4763,-296.624 L 10.4057,-296.254 L 10.2893,-295.896 L 10.1289,-295.555
 L 9.92705,-295.237 L 9.6869,-294.946 L 9.41226,-294.688 L 9.10747,-294.467 L 8.77733,-294.286 L 8.42705,-294.147
 L 8.06213,-294.053 L 7.68837,-294.006 z
M -7.68837,-294.006 L -8.06213,-294.053 L -8.42705,-294.147 L -8.77733,-294.286 L -9.10747,-294.467 L -9.41226,-294.688
 L -9.6869,-294.946 L -9.92705,-295.237 L -10.1289,-295.555 L -10.2893,-295.896 L -10.4057,-296.254 L -10.4763,-296.624
 L -10.5,-297 L -10.4763,-297.376 L -10.4057,-297.746 L -10.2893,-298.104 L -10.1289,-298.445 L -9.92705,-298.763
 L -9.6869,-299.054 L -9.41226,-299.312 L -9.10747,-299.533 L -8.77733,-299.714 L -8.42705,-299.853 L -8.06213,-299.947
 L -7.68837,-299.994 L -7.31161,-299.994 L -6.93785,-299.947 L -6.57294,-299.853 L -6.22266,-299.714 L -5.89252,-299.533
 L -5.58772,-299.312 L -5.31308,-299.054 L -5.07294,-298.763 L -4.87108,-298.445 L -4.71066,-298.104 L -4.59424,-297.746
 L -4.52365,-297.376 L -4.5,-297 L -4.52365,-296.624 L -4.59424,-296.254 L -4.71066,-295.896 L -4.87108,-295.555
 L -5.07294,-295.237 L -5.31308,-294.946 L -5.58772,-294.688 L -5.89252,-294.467 L -6.22266,-294.286 L -6.57294,-294.147
 L -6.93785,-294.053 L -7.31161,-294.006 z
M 10.4369,-176.089 L 11.0451,-176.245 L 11.6289,-176.476 L 12.1791,-176.778 L 12.6871,-177.147 L 13.1448,-177.577
 L 13.5451,-178.061 L 13.8815,-178.591 L 14.1489,-179.159 L 14.3429,-179.757 L 14.4606,-180.373 L 14.5,-181
 L 14.5,-275 L 14.4606,-275.627 L 14.3429,-276.243 L 14.1489,-276.841 L 13.8815,-277.409 L 13.5451,-277.939
 L 13.1448,-278.423 L 12.6871,-278.853 L 12.1791,-279.222 L 11.6289,-279.524 L 11.0451,-279.755 L 10.4369,-279.911
 L 9.81395,-279.99 L -9.81395,-279.99 L -10.4369,-279.911 L -11.0451,-279.755 L -11.6289,-279.524 L -12.1791,-279.222
 L -12.6871,-278.853 L -13.1448,-278.423 L -13.5451,-277.939 L -13.8815,-277.409 L -14.1489,-276.841 L -14.3429,-276.243
 L -14.4606,-275.627 L -14.5,-275 L -14.5,-181 L -14.4606,-180.373 L -14.3429,-179.757 L -14.1489,-179.159
 L -13.8815,-178.591 L -13.5451,-178.061 L -13.1448,-177.577 L -12.6871,-177.147 L -12.1791,-176.778 L -11.6289,-176.476
 L -11.0451,-176.245 L -10.4369,-176.089 L -9.81395,-176.01 L 9.81395,-176.01 z
M 7.31161,-270.006 L 6.93785,-270.053 L 6.57294,-270.147 L 6.22266,-270.286 L 5.89252,-270.467 L 5.58772,-270.688
 L 5.31308,-270.946 L 5.07294,-271.237 L 4.87108,-271.555 L 4.71066,-271.896 L 4.59424,-272.254 L 4.52365,-272.624
 L 4.5,-273 L 4.52365,-273.376 L 4.59424,-273.746 L 4.71066,-274.104 L 4.87108,-274.445 L 5.07294,-274.763
 L 5.31308,-275.054 L 5.58772,-275.312 L 5.89252,-275.533 L 6.22266,-275.714 L 6.57294,-275.853 L 6.93785,-275.947
 L 7.31161,-275.994 L 7.68837,-275.994 L 8.06213,-275.947 L 8.42705,-275.853 L 8.77733,-275.714 L 9.10747,-275.533
 L 9.41226,-275.312 L 9.6869,-275.054 L 9.92705,-274.763 L 10.1289,-274.445 L 10.2893,-274.104 L 10.4057,-273.746
 L 10.4763,-273.376 L 10.5,-273 L 10.4763,-272.624 L 10.4057,-272.254 L 10.2893,-271.896 L 10.1289,-271.555
 L 9.92705,-271.237 L 9.6869,-270.946 L 9.41226,-270.688 L 9.10747,-270.467 L 8.77733,-270.286 L 8.42705,-270.147
 L 8.06213,-270.053 L 7.68837,-270.006 z
M -7.68837,-270.006 L -8.06213,-270.053 L -8.42705,-270.147 L -8.77733,-270.286 L -9.10747,-270.467 L -9.41226,-270.688
 L -9.6869,-270.946 L -9.92705,-271.237 L -10.1289,-271.555 L -10.2893,-271.896 L -10.4057,-272.254 L -10.4763,-272.624
 L -10.5,-273 L -10.4763,-273.376 L -10.4057,-273.746 L -10.2893,-274.104 L -10.1289,-274.445 L -9.92705,-274.763
 L -9.6869,-275.054 L -9.41226,-275.312 L -9.10747,-275.533 L -8.77733,-275.714 L -8.42705,-275.853 L -8.06213,-275.947
 L -7.68837,-275.994 L -7.31161,-275.994 L -6.93785,-275.947 L -6.57294,-275.853 L -6.22266,-275.714 L -5.89252,-275.533
 L -5.58772,-275.312 L -5.31308,-275.054 L -5.07294,-274.763 L -4.87108,-274.445 L -4.71066,-274.104 L -4.59424,-273.746
 L -4.52365,-273.376 L -4.5,-273 L -4.52365,-272.624 L -4.59424,-272.254 L -4.71066,-271.896 L -4.87108,-271.555
 L -5.07294,-271.237 L -5.31308,-270.946 L -5.58772,-270.688 L -5.89252,-270.467 L -6.22266,-270.286 L -6.57294,-270.147
 L -6.93785,-270.053 L -7.31161,-270.006 z
M -0.133423,-270.879 L -0.398178,-270.913 L -0.656647,-270.979 L -0.90477,-271.077 L -1.13863,-271.206 L -1.35452,-271.363
 L -1.54906,-271.545 L -1.71915,-271.751 L -1.86214,-271.976 L -1.97577,-272.218 L -2.05823,-272.472 L -2.10823,-272.734
 L -2.125,-273 L -2.10823,-273.266 L -2.05823,-273.528 L -1.97577,-273.782 L -1.86214,-274.024 L -1.71915,-274.249
 L -1.54906,-274.455 L -1.35452,-274.637 L -1.13863,-274.794 L -0.90477,-274.923 L -0.656647,-275.021 L -0.398178,-275.087
 L -0.133423,-275.121 L 0.133423,-275.121 L 0.398178,-275.087 L 0.656647,-275.021 L 0.90477,-274.923 L 1.13863,-274.794
 L 1.35452,-274.637 L 1.54906,-274.455 L 1.71915,-274.249 L 1.86214,-274.024 L 1.97577,-273.782 L 2.05823,-273.528
 L 2.10823,-273.266 L 2.125,-273 L 2.10823,-272.734 L 2.05823,-272.472 L 1.97577,-272.218 L 1.86214,-271.976
 L 1.71915,-271.751 L 1.54906,-271.545 L 1.35452,-271.363 L 1.13863,-271.206 L 0.90477,-271.077 L 0.656647,-270.979
 L 0.398178,-270.913 L 0.133423,-270.879 z
M -1.58675,-262.752 L -3.17349,-265.5 L -1.58675,-268.248 L 1.58675,-268.248 L 3.17349,-265.5 L 1.58675,-262.752
 z
M -7.59418,-264.003 L -7.78107,-264.027 L -7.96352,-264.073 L -8.13866,-264.143 L -8.30373,-264.234 L -8.45613,-264.344
 L -8.59344,-264.473 L -8.71352,-264.618 L -8.81445,-264.777 L -8.89465,-264.948 L -8.95287,-265.127 L -8.98816,-265.312
 L -9,-265.5 L -8.98816,-265.688 L -8.95287,-265.873 L -8.89465,-266.052 L -8.81445,-266.223 L -8.71352,-266.382
 L -8.59344,-266.527 L -8.45613,-266.656 L -8.30373,-266.766 L -8.13866,-266.857 L -7.96352,-266.927 L -7.78107,-266.973
 L -7.59418,-266.997 L -7.40581,-266.997 L -7.21892,-266.973 L -7.03647,-266.927 L -6.86133,-266.857 L -6.69626,-266.766
 L -6.54385,-266.656 L -6.40654,-266.527 L -6.28647,-266.382 L -6.18553,-266.223 L -6.10533,-266.052 L -6.04712,-265.873
 L -6.01183,-265.688 L -6,-265.5 L -6.01183,-265.312 L -6.04712,-265.127 L -6.10533,-264.948 L -6.18553,-264.777
 L -6.28647,-264.618 L -6.40654,-264.473 L -6.54385,-264.344 L -6.69626,-264.234 L -6.86133,-264.143 L -7.03647,-264.073
 L -7.21892,-264.027 L -7.40581,-264.003 z
M 7.40581,-264.003 L 7.21892,-264.027 L 7.03647,-264.073 L 6.86133,-264.143 L 6.69626,-264.234 L 6.54385,-264.344
 L 6.40654,-264.473 L 6.28647,-264.618 L 6.18553,-264.777 L 6.10533,-264.948 L 6.04712,-265.127 L 6.01183,-265.312
 L 6,-265.5 L 6.01183,-265.688 L 6.04712,-265.873 L 6.10533,-266.052 L 6.18553,-266.223 L 6.28647,-266.382
 L 6.40654,-266.527 L 6.54385,-266.656 L 6.69626,-266.766 L 6.86133,-266.857 L 7.03647,-266.927 L 7.21892,-266.973
 L 7.40581,-266.997 L 7.59418,-266.997 L 7.78107,-266.973 L 7.96352,-266.927 L 8.13866,-266.857 L 8.30373,-266.766
 L 8.45613,-266.656 L 8.59344,-266.527 L 8.71352,-266.382 L 8.81445,-266.223 L 8.89465,-266.052 L 8.95287,-265.873
 L 8.98816,-265.688 L 9,-265.5 L 8.98816,-265.312 L 8.95287,-265.127 L 8.89465,-264.948 L 8.81445,-264.777
 L 8.71352,-264.618 L 8.59344,-264.473 L 8.45613,-264.344 L 8.30373,-264.234 L 8.13866,-264.143 L 7.96352,-264.073
 L 7.78107,-264.027 L 7.59418,-264.003 z
M -1.58675,-187.752 L -3.17349,-190.5 L -1.58675,-193.248 L 1.58675,-193.248 L 3.17349,-190.5 L 1.58675,-187.752
 z
M -7.59418,-189.003 L -7.78107,-189.027 L -7.96352,-189.073 L -8.13866,-189.143 L -8.30373,-189.234 L -8.45613,-189.344
 L -8.59344,-189.473 L -8.71352,-189.618 L -8.81445,-189.777 L -8.89465,-189.948 L -8.95287,-190.127 L -8.98816,-190.312
 L -9,-190.5 L -8.98816,-190.688 L -8.95287,-190.873 L -8.89465,-191.052 L -8.81445,-191.223 L -8.71352,-191.382
 L -8.59344,-191.527 L -8.45613,-191.656 L -8.30373,-191.766 L -8.13866,-191.857 L -7.96352,-191.927 L -7.78107,-191.973
 L -7.59418,-191.997 L -7.40581,-191.997 L -7.21892,-191.973 L -7.03647,-191.927 L -6.86133,-191.857 L -6.69626,-191.766
 L -6.54385,-191.656 L -6.40654,-191.527 L -6.28647,-191.382 L -6.18553,-191.223 L -6.10533,-191.052 L -6.04712,-190.873
 L -6.01183,-190.688 L -6,-190.5 L -6.01183,-190.312 L -6.04712,-190.127 L -6.10533,-189.948 L -6.18553,-189.777
 L -6.28647,-189.618 L -6.40654,-189.473 L -6.54385,-189.344 L -6.69626,-189.234 L -6.86133,-189.143 L -7.03647,-189.073
 L -7.21892,-189.027 L -7.40581,-189.003 z
M 7.40581,-189.003 L 7.21892,-189.027 L 7.03647,-189.073 L 6.86133,-189.143 L 6.69626,-189.234 L 6.54385,-189.344
 L 6.40654,-189.473 L 6.28647,-189.618 L 6.18553,-189.777 L 6.10533,-189.948 L 6.04712,-190.127 L 6.01183,-190.312
 L 6,-190.5 L 6.01183,-190.688 L 6.04712,-190.873 L 6.10533,-191.052 L 6.18553,-191.223 L 6.28647,-191.382
 L 6.40654,-191.527 L 6.54385,-191.656 L 6.69626,-191.766 L 6.86133,-191.857 L 7.03647,-191.927 L 7.21892,-191.973
 L 7.40581,-191.997 L 7.59418,-191.997 L 7.78107,-191.973 L 7.96352,-191.927 L 8.13866,-191.857 L 8.30373,-191.766
 L 8.45613,-191.656 L 8.59344,-191.527 L 8.71352,-191.382 L 8.81445,-191.223 L 8.89465,-191.052 L 8.95287,-190.873
 L 8.98816,-190.688 L 9,-190.5 L 8.98816,-190.312 L 8.95287,-190.127 L 8.89465,-189.948 L 8.81445,-189.777
 L 8.71352,-189.618 L 8.59344,-189.473 L 8.45613,-189.344 L 8.30373,-189.234 L 8.13866,-189.143 L 7.96352,-189.073
 L 7.78107,-189.027 L 7.59418,-189.003 z
M -7.68837,-180.006 L -8.06213,-180.053 L -8.42705,-180.147 L -8.77733,-180.286 L -9.10747,-180.467 L -9.41226,-180.688
 L -9.6869,-180.946 L -9.92705,-181.237 L -10.1289,-181.555 L -10.2893,-181.896 L -10.4057,-182.254 L -10.4763,-182.624
 L -10.5,-183 L -10.4763,-183.376 L -10.4057,-183.746 L -10.2893,-184.104 L -10.1289,-184.445 L -9.92705,-184.763
 L -9.6869,-185.054 L -9.41226,-185.312 L -9.10747,-185.533 L -8.77733,-185.714 L -8.42705,-185.853 L -8.06213,-185.947
 L -7.68837,-185.994 L -7.31161,-185.994 L -6.93785,-185.947 L -6.57294,-185.853 L -6.22266,-185.714 L -5.89252,-185.533
 L -5.58772,-185.312 L -5.31308,-185.054 L -5.07294,-184.763 L -4.87108,-184.445 L -4.71066,-184.104 L -4.59424,-183.746
 L -4.52365,-183.376 L -4.5,-183 L -4.52365,-182.624 L -4.59424,-182.254 L -4.71066,-181.896 L -4.87108,-181.555
 L -5.07294,-181.237 L -5.31308,-180.946 L -5.58772,-180.688 L -5.89252,-180.467 L -6.22266,-180.286 L -6.57294,-180.147
 L -6.93785,-180.053 L -7.31161,-180.006 z
M 7.31161,-180.006 L 6.93785,-180.053 L 6.57294,-180.147 L 6.22266,-180.286 L 5.89252,-180.467 L 5.58772,-180.688
 L 5.31308,-180.946 L 5.07294,-181.237 L 4.87108,-181.555 L 4.71066,-181.896 L 4.59424,-182.254 L 4.52365,-182.624
 L 4.5,-183 L 4.52365,-183.376 L 4.59424,-183.746 L 4.71066,-184.104 L 4.87108,-184.445 L 5.07294,-184.763
 L 5.31308,-185.054 L 5.58772,-185.312 L 5.89252,-185.533 L 6.22266,-185.714 L 6.57294,-185.853 L 6.93785,-185.947
 L 7.31161,-185.994 L 7.68837,-185.994 L 8.06213,-185.947 L 8.42705,-185.853 L 8.77733,-185.714 L 9.10747,-185.533
 L 9.41226,-185.312 L 9.6869,-185.054 L 9.92705,-184.763 L 10.1289,-184.445 L 10.2893,-184.104 L 10.4057,-183.746
 L 10.4763,-183.376 L 10.5,-183 L 10.4763,-182.624 L 10.4057,-182.254 L 10.2893,-181.896 L 10.1289,-181.555
 L 9.92705,-181.237 L 9.6869,-180.946 L 9.41226,-180.688 L 9.10747,-180.467 L 8.77733,-180.286 L 8.42705,-180.147
 L 8.06213,-180.053 L 7.68837,-180.006 z
M -0.133423,-180.879 L -0.398178,-180.913 L -0.656647,-180.979 L -0.90477,-181.077 L -1.13863,-181.206 L -1.35452,-181.363
 L -1.54906,-181.545 L -1.71915,-181.751 L -1.86214,-181.976 L -1.97577,-182.218 L -2.05823,-182.472 L -2.10823,-182.734
 L -2.125,-183 L -2.10823,-183.266 L -2.05823,-183.528 L -1.97577,-183.782 L -1.86214,-184.024 L -1.71915,-184.249
 L -1.54906,-184.455 L -1.35452,-184.637 L -1.13863,-184.794 L -0.90477,-184.923 L -0.656647,-185.021 L -0.398178,-185.087
 L -0.133423,-185.121 L 0.133423,-185.121 L 0.398178,-185.087 L 0.656647,-185.021 L 0.90477,-184.923 L 1.13863,-184.794
 L 1.35452,-184.637 L 1.54906,-184.455 L 1.71915,-184.249 L 1.86214,-184.024 L 1.97577,-183.782 L 2.05823,-183.528
 L 2.10823,-183.266 L 2.125,-183 L 2.10823,-182.734 L 2.05823,-182.472 L 1.97577,-182.218 L 1.86214,-181.976
 L 1.71915,-181.751 L 1.54906,-181.545 L 1.35452,-181.363 L 1.13863,-181.206 L 0.90477,-181.077 L 0.656647,-180.979
 L 0.398178,-180.913 L 0.133423,-180.879 z
M 60.4369,-176.089 L 61.0451,-176.245 L 61.6289,-176.476 L 62.1791,-176.778 L 62.6871,-177.147 L 63.1448,-177.577
 L 63.5451,-178.061 L 63.8815,-178.591 L 64.1489,-179.159 L 64.3429,-179.757 L 64.4606,-180.373 L 64.5,-181
 L 64.5,-275 L 64.4606,-275.627 L 64.3429,-276.243 L 64.1489,-276.841 L 63.8815,-277.409 L 63.5451,-277.939
 L 63.1448,-278.423 L 62.6871,-278.853 L 62.1791,-279.222 L 61.6289,-279.524 L 61.0451,-279.755 L 60.4369,-279.911
 L 59.8139,-279.99 L 40.186,-279.99 L 39.5631,-279.911 L 38.9549,-279.755 L 38.3711,-279.524 L 37.8209,-279.222
 L 37.3129,-278.853 L 36.8551,-278.423 L 36.4549,-277.939 L 36.1185,-277.409 L 35.8511,-276.841 L 35.6571,-276.243
 L 35.5394,-275.627 L 35.5,-275 L 35.5,-181 L 35.5394,-180.373 L 35.6571,-179.757 L 35.8511,-179.159
 L 36.1185,-178.591 L 36.4549,-178.061 L 36.8551,-177.577 L 37.3129,-177.147 L 37.8209,-176.778 L 38.3711,-176.476
 L 38.9549,-176.245 L 39.5631,-176.089 L 40.186,-176.01 L 59.8139,-176.01 z
M 42.3116,-270.006 L 41.9379,-270.053 L 41.5729,-270.147 L 41.2227,-270.286 L 40.8925,-270.467 L 40.5877,-270.688
 L 40.3131,-270.946 L 40.0729,-271.237 L 39.8711,-271.555 L 39.7107,-271.896 L 39.5942,-272.254 L 39.5237,-272.624
 L 39.5,-273 L 39.5237,-273.376 L 39.5942,-273.746 L 39.7107,-274.104 L 39.8711,-274.445 L 40.0729,-274.763
 L 40.3131,-275.054 L 40.5877,-275.312 L 40.8925,-275.533 L 41.2227,-275.714 L 41.5729,-275.853 L 41.9379,-275.947
 L 42.3116,-275.994 L 42.6884,-275.994 L 43.0621,-275.947 L 43.427,-275.853 L 43.7773,-275.714 L 44.1075,-275.533
 L 44.4123,-275.312 L 44.6869,-275.054 L 44.927,-274.763 L 45.1289,-274.445 L 45.2893,-274.104 L 45.4057,-273.746
 L 45.4763,-273.376 L 45.5,-273 L 45.4763,-272.624 L 45.4057,-272.254 L 45.2893,-271.896 L 45.1289,-271.555
 L 44.927,-271.237 L 44.6869,-270.946 L 44.4123,-270.688 L 44.1075,-270.467 L 43.7773,-270.286 L 43.427,-270.147
 L 43.0621,-270.053 L 42.6884,-270.006 z
M 57.3116,-270.006 L 56.9379,-270.053 L 56.5729,-270.147 L 56.2227,-270.286 L 55.8925,-270.467 L 55.5877,-270.688
 L 55.3131,-270.946 L 55.0729,-271.237 L 54.8711,-271.555 L 54.7107,-271.896 L 54.5942,-272.254 L 54.5237,-272.624
 L 54.5,-273 L 54.5237,-273.376 L 54.5942,-273.746 L 54.7107,-274.104 L 54.8711,-274.445 L 55.0729,-274.763
 L 55.3131,-275.054 L 55.5877,-275.312 L 55.8925,-275.533 L 56.2227,-275.714 L 56.5729,-275.853 L 56.9379,-275.947
 L 57.3116,-275.994 L 57.6884,-275.994 L 58.0621,-275.947 L 58.427,-275.853 L 58.7773,-275.714 L 59.1075,-275.533
 L 59.4123,-275.312 L 59.6869,-275.054 L 59.927,-274.763 L 60.1289,-274.445 L 60.2893,-274.104 L 60.4057,-273.746
 L 60.4763,-273.376 L 60.5,-273 L 60.4763,-272.624 L 60.4057,-272.254 L 60.2893,-271.896 L 60.1289,-271.555
 L 59.927,-271.237 L 59.6869,-270.946 L 59.4123,-270.688 L 59.1075,-270.467 L 58.7773,-270.286 L 58.427,-270.147
 L 58.0621,-270.053 L 57.6884,-270.006 z
M 49.9058,-271.503 L 49.7189,-271.527 L 49.5365,-271.573 L 49.3613,-271.643 L 49.1963,-271.734 L 49.0439,-271.844
 L 48.9065,-271.973 L 48.7865,-272.118 L 48.6855,-272.277 L 48.6053,-272.448 L 48.5471,-272.627 L 48.5118,-272.812
 L 48.5,-273 L 48.5118,-273.188 L 48.5471,-273.373 L 48.6053,-273.552 L 48.6855,-273.723 L 48.7865,-273.882
 L 48.9065,-274.027 L 49.0439,-274.156 L 49.1963,-274.266 L 49.3613,-274.357 L 49.5365,-274.427 L 49.7189,-274.473
 L 49.9058,-274.497 L 50.0942,-274.497 L 50.2811,-274.473 L 50.4635,-274.427 L 50.6387,-274.357 L 50.8037,-274.266
 L 50.9561,-274.156 L 51.0934,-274.027 L 51.2135,-273.882 L 51.3145,-273.723 L 51.3947,-273.552 L 51.4529,-273.373
 L 51.4882,-273.188 L 51.5,-273 L 51.4882,-272.812 L 51.4529,-272.627 L 51.3947,-272.448 L 51.3145,-272.277
 L 51.2135,-272.118 L 51.0934,-271.973 L 50.9561,-271.844 L 50.8037,-271.734 L 50.6387,-271.643 L 50.4635,-271.573
 L 50.2811,-271.527 L 50.0942,-271.503 z
M 49.887,-263.704 L 49.6627,-263.732 L 49.4438,-263.788 L 49.2336,-263.871 L 49.0355,-263.98 L 48.8526,-264.113
 L 48.6879,-264.268 L 48.5438,-264.442 L 48.4226,-264.633 L 48.3264,-264.837 L 48.2565,-265.052 L 48.2142,-265.274
 L 48.2,-265.5 L 48.2142,-265.726 L 48.2565,-265.948 L 48.3264,-266.163 L 48.4226,-266.367 L 48.5438,-266.558
 L 48.6879,-266.732 L 48.8526,-266.887 L 49.0355,-267.02 L 49.2336,-267.129 L 49.4438,-267.212 L 49.6627,-267.268
 L 49.887,-267.296 L 50.113,-267.296 L 50.3373,-267.268 L 50.5562,-267.212 L 50.7664,-267.129 L 50.9645,-267.02
 L 51.1474,-266.887 L 51.3121,-266.732 L 51.4562,-266.558 L 51.5773,-266.367 L 51.6736,-266.163 L 51.7434,-265.948
 L 51.7858,-265.726 L 51.8,-265.5 L 51.7858,-265.274 L 51.7434,-265.052 L 51.6736,-264.837 L 51.5773,-264.633
 L 51.4562,-264.442 L 51.3121,-264.268 L 51.1474,-264.113 L 50.9645,-263.98 L 50.7664,-263.871 L 50.5562,-263.788
 L 50.3373,-263.732 L 50.113,-263.704 z
M 57.4058,-264.003 L 57.2189,-264.027 L 57.0365,-264.073 L 56.8613,-264.143 L 56.6963,-264.234 L 56.5439,-264.344
 L 56.4065,-264.473 L 56.2865,-264.618 L 56.1855,-264.777 L 56.1053,-264.948 L 56.0471,-265.127 L 56.0118,-265.312
 L 56,-265.5 L 56.0118,-265.688 L 56.0471,-265.873 L 56.1053,-266.052 L 56.1855,-266.223 L 56.2865,-266.382
 L 56.4065,-266.527 L 56.5439,-266.656 L 56.6963,-266.766 L 56.8613,-266.857 L 57.0365,-266.927 L 57.2189,-266.973
 L 57.4058,-266.997 L 57.5942,-266.997 L 57.7811,-266.973 L 57.9635,-266.927 L 58.1387,-266.857 L 58.3037,-266.766
 L 58.4561,-266.656 L 58.5934,-266.527 L 58.7135,-266.382 L 58.8145,-266.223 L 58.8947,-266.052 L 58.9529,-265.873
 L 58.9882,-265.688 L 59,-265.5 L 58.9882,-265.312 L 58.9529,-265.127 L 58.8947,-264.948 L 58.8145,-264.777
 L 58.7135,-264.618 L 58.5934,-264.473 L 58.4561,-264.344 L 58.3037,-264.234 L 58.1387,-264.143 L 57.9635,-264.073
 L 57.7811,-264.027 L 57.5942,-264.003 z
M 42.4058,-264.003 L 42.2189,-264.027 L 42.0365,-264.073 L 41.8613,-264.143 L 41.6963,-264.234 L 41.5439,-264.344
 L 41.4065,-264.473 L 41.2865,-264.618 L 41.1855,-264.777 L 41.1053,-264.948 L 41.0471,-265.127 L 41.0118,-265.312
 L 41,-265.5 L 41.0118,-265.688 L 41.0471,-265.873 L 41.1053,-266.052 L 41.1855,-266.223 L 41.2865,-266.382
 L 41.4065,-266.527 L 41.5439,-266.656 L 41.6963,-266.766 L 41.8613,-266.857 L 42.0365,-266.927 L 42.2189,-266.973
 L 42.4058,-266.997 L 42.5942,-266.997 L 42.7811,-266.973 L 42.9635,-266.927 L 43.1387,-266.857 L 43.3037,-266.766
 L 43.4561,-266.656 L 43.5934,-266.527 L 43.7135,-266.382 L 43.8145,-266.223 L 43.8947,-266.052 L 43.9529,-265.873
 L 43.9882,-265.688 L 44,-265.5 L 43.9882,-265.312 L 43.9529,-265.127 L 43.8947,-264.948 L 43.8145,-264.777
 L 43.7135,-264.618 L 43.5934,-264.473 L 43.4561,-264.344 L 43.3037,-264.234 L 43.1387,-264.143 L 42.9635,-264.073
 L 42.7811,-264.027 L 42.5942,-264.003 z
M 49.887,-188.704 L 49.6627,-188.732 L 49.4438,-188.788 L 49.2336,-188.871 L 49.0355,-188.98 L 48.8526,-189.113
 L 48.6879,-189.268 L 48.5438,-189.442 L 48.4226,-189.633 L 48.3264,-189.837 L 48.2565,-190.052 L 48.2142,-190.274
 L 48.2,-190.5 L 48.2142,-190.726 L 48.2565,-190.948 L 48.3264,-191.163 L 48.4226,-191.367 L 48.5438,-191.558
 L 48.6879,-191.732 L 48.8526,-191.887 L 49.0355,-192.02 L 49.2336,-192.129 L 49.4438,-192.212 L 49.6627,-192.268
 L 49.887,-192.296 L 50.113,-192.296 L 50.3373,-192.268 L 50.5562,-192.212 L 50.7664,-192.129 L 50.9645,-192.02
 L 51.1474,-191.887 L 51.3121,-191.732 L 51.4562,-191.558 L 51.5773,-191.367 L 51.6736,-191.163 L 51.7434,-190.948
 L 51.7858,-190.726 L 51.8,-190.5 L 51.7858,-190.274 L 51.7434,-190.052 L 51.6736,-189.837 L 51.5773,-189.633
 L 51.4562,-189.442 L 51.3121,-189.268 L 51.1474,-189.113 L 50.9645,-188.98 L 50.7664,-188.871 L 50.5562,-188.788
 L 50.3373,-188.732 L 50.113,-188.704 z
M 57.4058,-189.003 L 57.2189,-189.027 L 57.0365,-189.073 L 56.8613,-189.143 L 56.6963,-189.234 L 56.5439,-189.344
 L 56.4065,-189.473 L 56.2865,-189.618 L 56.1855,-189.777 L 56.1053,-189.948 L 56.0471,-190.127 L 56.0118,-190.312
 L 56,-190.5 L 56.0118,-190.688 L 56.0471,-190.873 L 56.1053,-191.052 L 56.1855,-191.223 L 56.2865,-191.382
 L 56.4065,-191.527 L 56.5439,-191.656 L 56.6963,-191.766 L 56.8613,-191.857 L 57.0365,-191.927 L 57.2189,-191.973
 L 57.4058,-191.997 L 57.5942,-191.997 L 57.7811,-191.973 L 57.9635,-191.927 L 58.1387,-191.857 L 58.3037,-191.766
 L 58.4561,-191.656 L 58.5934,-191.527 L 58.7135,-191.382 L 58.8145,-191.223 L 58.8947,-191.052 L 58.9529,-190.873
 L 58.9882,-190.688 L 59,-190.5 L 58.9882,-190.312 L 58.9529,-190.127 L 58.8947,-189.948 L 58.8145,-189.777
 L 58.7135,-189.618 L 58.5934,-189.473 L 58.4561,-189.344 L 58.3037,-189.234 L 58.1387,-189.143 L 57.9635,-189.073
 L 57.7811,-189.027 L 57.5942,-189.003 z
M 42.4058,-189.003 L 42.2189,-189.027 L 42.0365,-189.073 L 41.8613,-189.143 L 41.6963,-189.234 L 41.5439,-189.344
 L 41.4065,-189.473 L 41.2865,-189.618 L 41.1855,-189.777 L 41.1053,-189.948 L 41.0471,-190.127 L 41.0118,-190.312
 L 41,-190.5 L 41.0118,-190.688 L 41.0471,-190.873 L 41.1053,-191.052 L 41.1855,-191.223 L 41.2865,-191.382
 L 41.4065,-191.527 L 41.5439,-191.656 L 41.6963,-191.766 L 41.8613,-191.857 L 42.0365,-191.927 L 42.2189,-191.973
 L 42.4058,-191.997 L 42.5942,-191.997 L 42.7811,-191.973 L 42.9635,-191.927 L 43.1387,-191.857 L 43.3037,-191.766
 L 43.4561,-191.656 L 43.5934,-191.527 L 43.7135,-191.382 L 43.8145,-191.223 L 43.8947,-191.052 L 43.9529,-190.873
 L 43.9882,-190.688 L 44,-190.5 L 43.9882,-190.312 L 43.9529,-190.127 L 43.8947,-189.948 L 43.8145,-189.777
 L 43.7135,-189.618 L 43.5934,-189.473 L 43.4561,-189.344 L 43.3037,-189.234 L 43.1387,-189.143 L 42.9635,-189.073
 L 42.7811,-189.027 L 42.5942,-189.003 z
M 57.3116,-180.006 L 56.9379,-180.053 L 56.5729,-180.147 L 56.2227,-180.286 L 55.8925,-180.467 L 55.5877,-180.688
 L 55.3131,-180.946 L 55.0729,-181.237 L 54.8711,-181.555 L 54.7107,-181.896 L 54.5942,-182.254 L 54.5237,-182.624
 L 54.5,-183 L 54.5237,-183.376 L 54.5942,-183.746 L 54.7107,-184.104 L 54.8711,-184.445 L 55.0729,-184.763
 L 55.3131,-185.054 L 55.5877,-185.312 L 55.8925,-185.533 L 56.2227,-185.714 L 56.5729,-185.853 L 56.9379,-185.947
 L 57.3116,-185.994 L 57.6884,-185.994 L 58.0621,-185.947 L 58.427,-185.853 L 58.7773,-185.714 L 59.1075,-185.533
 L 59.4123,-185.312 L 59.6869,-185.054 L 59.927,-184.763 L 60.1289,-184.445 L 60.2893,-184.104 L 60.4057,-183.746
 L 60.4763,-183.376 L 60.5,-183 L 60.4763,-182.624 L 60.4057,-182.254 L 60.2893,-181.896 L 60.1289,-181.555
 L 59.927,-181.237 L 59.6869,-180.946 L 59.4123,-180.688 L 59.1075,-180.467 L 58.7773,-180.286 L 58.427,-180.147
 L 58.0621,-180.053 L 57.6884,-180.006 z
M 42.3116,-180.006 L 41.9379,-180.053 L 41.5729,-180.147 L 41.2227,-180.286 L 40.8925,-180.467 L 40.5877,-180.688
 L 40.3131,-180.946 L 40.0729,-181.237 L 39.8711,-181.555 L 39.7107,-181.896 L 39.5942,-182.254 L 39.5237,-182.624
 L 39.5,-183 L 39.5237,-183.376 L 39.5942,-183.746 L 39.7107,-184.104 L 39.8711,-184.445 L 40.0729,-184.763
 L 40.3131,-185.054 L 40.5877,-185.312 L 40.8925,-185.533 L 41.2227,-185.714 L 41.5729,-185.853 L 41.9379,-185.947
 L 42.3116,-185.994 L 42.6884,-185.994 L 43.0621,-185.947 L 43.427,-185.853 L 43.7773,-185.714 L 44.1075,-185.533
 L 44.4123,-185.312 L 44.6869,-185.054 L 44.927,-184.763 L 45.1289,-184.445 L 45.2893,-184.104 L 45.4057,-183.746
 L 45.4763,-183.376 L 45.5,-183 L 45.4763,-182.624 L 45.4057,-182.254 L 45.2893,-181.896 L 45.1289,-181.555
 L 44.927,-181.237 L 44.6869,-180.946 L 44.4123,-180.688 L 44.1075,-180.467 L 43.7773,-180.286 L 43.427,-180.147
 L 43.0621,-180.053 L 42.6884,-180.006 z
M 49.9058,-181.503 L 49.7189,-181.527 L 49.5365,-181.573 L 49.3613,-181.643 L 49.1963,-181.734 L 49.0439,-181.844
 L 48.9065,-181.973 L 48.7865,-182.118 L 48.6855,-182.277 L 48.6053,-182.448 L 48.5471,-182.627 L 48.5118,-182.812
 L 48.5,-183 L 48.5118,-183.188 L 48.5471,-183.373 L 48.6053,-183.552 L 48.6855,-183.723 L 48.7865,-183.882
 L 48.9065,-184.027 L 49.0439,-184.156 L 49.1963,-184.266 L 49.3613,-184.357 L 49.5365,-184.427 L 49.7189,-184.473
 L 49.9058,-184.497 L 50.0942,-184.497 L 50.2811,-184.473 L 50.4635,-184.427 L 50.6387,-184.357 L 50.8037,-184.266
 L 50.9561,-184.156 L 51.0934,-184.027 L 51.2135,-183.882 L 51.3145,-183.723 L 51.3947,-183.552 L 51.4529,-183.373
 L 51.4882,-183.188 L 51.5,-183 L 51.4882,-182.812 L 51.4529,-182.627 L 51.3947,-182.448 L 51.3145,-182.277
 L 51.2135,-182.118 L 51.0934,-181.973 L 50.9561,-181.844 L 50.8037,-181.734 L 50.6387,-181.643 L 50.4635,-181.573
 L 50.2811,-181.527 L 50.0942,-181.503 z
" stroke="black" fill="lightgray" stroke-width="0.5"/>
</svg>
