<?xml version="1.0" standalone="no"?>
<!DOCTYPE svg PUBLIC "-//W3C//DTD SVG 1.1//EN" "http://www.w3.org/Graphics/SVG/1.1/DTD/svg11.dtd">
<svg width="80mm" height="98mm" viewBox="-15 -130 80 98" xmlns="http://www.w3.org/2000/svg" version="1.1">
<title>OpenSCAD Model</title>
<path d="
M 14.5,-125 L 14.4606,-125.627 L 14.3429,-126.243 L 14.1489,-126.841 L 13.8815,-127.409 L 13.5451,-127.939
 L 13.1448,-128.423 L 12.6871,-128.853 L 12.1791,-129.222 L 11.6289,-129.524 L 11.0451,-129.755 L 10.4369,-129.911
 L 9.81395,-129.99 L -9.81395,-129.99 L -10.4369,-129.911 L -11.0451,-129.755 L -11.6289,-129.524 L -12.1791,-129.222
 L -12.6871,-128.853 L -13.1448,-128.423 L -13.5451,-127.939 L -13.8815,-127.409 L -14.1489,-126.841 L -14.3429,-126.243
 L -14.4606,-125.627 L -14.5,-125 L -14.5,-110.592 L 14.5,-110.592 z
M -0.194641,-119.906 L -0.580872,-119.955 L -0.957947,-120.052 L -1.3199,-120.195 L -1.66106,-120.383 L -1.97601,-120.611
 L -2.2598,-120.878 L -2.50795,-121.178 L -2.71654,-121.507 L -2.88229,-121.859 L -3.00259,-122.229 L -3.07555,-122.611
 L -3.09999,-123 L -3.07555,-123.389 L -3.00259,-123.771 L -2.88229,-124.141 L -2.71654,-124.493 L -2.50795,-124.822
 L -2.2598,-125.122 L -1.97601,-125.389 L -1.66106,-125.617 L -1.3199,-125.805 L -0.957947,-125.948 L -0.580872,-126.045
 L -0.194641,-126.094 L 0.194641,-126.094 L 0.580872,-126.045 L 0.957947,-125.948 L 1.3199,-125.805 L 1.66106,-125.617
 L 1.97601,-125.389 L 2.2598,-125.122 L 2.50795,-124.822 L 2.71654,-124.493 L 2.88229,-124.141 L 3.00259,-123.771
 L 3.07555,-123.389 L 3.09999,-123 L 3.07555,-122.611 L 3.00259,-122.229 L 2.88229,-121.859 L 2.71654,-121.507
 L 2.50795,-121.178 L 2.2598,-120.878 L 1.97601,-120.611 L 1.66106,-120.383 L 1.3199,-120.195 L 0.957947,-120.052
 L 0.580872,-119.955 L 0.194641,-119.906 z
M -7.68837,-120.006 L -8.06213,-120.053 L -8.42705,-120.147 L -8.77733,-120.286 L -9.10747,-120.467 L -9.41226,-120.688
 L -9.6869,-120.946 L -9.92705,-121.237 L -10.1289,-121.555 L -10.2893,-121.896 L -10.4057,-122.254 L -10.4763,-122.624
 L -10.5,-123 L -10.4763,-123.376 L -10.4057,-123.746 L -10.2893,-124.104 L -10.1289,-124.445 L -9.92705,-124.763
 L -9.6869,-125.054 L -9.41226,-125.312 L -9.10747,-125.533 L -8.77733,-125.714 L -8.42705,-125.853 L -8.06213,-125.947
 L -7.68837,-125.994 L -7.31161,-125.994 L -6.93785,-125.947 L -6.57294,-125.853 L -6.22266,-125.714 L -5.89252,-125.533
 L -5.58772,-125.312 L -5.31308,-125.054 L -5.07294,-124.763 L -4.87108,-124.445 L -4.71066,-124.104 L -4.59424,-123.746
 L -4.52365,-123.376 L -4.5,-123 L -4.52365,-122.624 L -4.59424,-122.254 L -4.71066,-121.896 L -4.87108,-121.555
 L -5.07294,-121.237 L -5.31308,-120.946 L -5.58772,-120.688 L -5.89252,-120.467 L -6.22266,-120.286 L -6.57294,-120.147
 L -6.93785,-120.053 L -7.31161,-120.006 z
M 7.31161,-120.006 L 6.93785,-120.053 L 6.57294,-120.147 L 6.22266,-120.286 L 5.89252,-120.467 L 5.58772,-120.688
 L 5.31308,-120.946 L 5.07294,-121.237 L 4.87108,-121.555 L 4.71066,-121.896 L 4.59424,-122.254 L 4.52365,-122.624
 L 4.5,-123 L 4.52365,-123.376 L 4.59424,-123.746 L 4.71066,-124.104 L 4.87108,-124.445 L 5.07294,-124.763
 L 5.31308,-125.054 L 5.58772,-125.312 L 5.89252,-125.533 L 6.22266,-125.714 L 6.57294,-125.853 L 6.93785,-125.947
 L 7.31161,-125.994 L 7.68837,-125.994 L 8.06213,-125.947 L 8.42705,-125.853 L 8.77733,-125.714 L 9.10747,-125.533
 L 9.41226,-125.312 L 9.6869,-125.054 L 9.92705,-124.763 L 10.1289,-124.445 L 10.2893,-124.104 L 10.4057,-123.746
 L 10.4763,-123.376 L 10.5,-123 L 10.4763,-122.624 L 10.4057,-122.254 L 10.2893,-121.896 L 10.1289,-121.555
 L 9.92705,-121.237 L 9.6869,-120.946 L 9.41226,-120.688 L 9.10747,-120.467 L 8.77733,-120.286 L 8.42705,-120.147
 L 8.06213,-120.053 L 7.68837,-120.006 z
M -0.113022,-113.704 L -0.33728,-113.732 L -0.556229,-113.788 L -0.766388,-113.871 L -0.964478,-113.98 L -1.14735,-114.113
 L -1.31213,-114.268 L -1.45622,-114.442 L -1.57735,-114.633 L -1.67358,-114.837 L -1.74344,-115.052 L -1.7858,-115.274
 L -1.79999,-115.5 L -1.7858,-115.726 L -1.74344,-115.948 L -1.67358,-116.163 L -1.57735,-116.367 L -1.45622,-116.558
 L -1.31213,-116.732 L -1.14735,-116.887 L -0.964478,-117.02 L -0.766388,-117.129 L -0.556229,-117.212 L -0.33728,-117.268
 L -0.113022,-117.296 L 0.113022,-117.296 L 0.33728,-117.268 L 0.556229,-117.212 L 0.766388,-117.129 L 0.964478,-117.02
 L 1.14735,-116.887 L 1.31213,-116.732 L 1.45622,-116.558 L 1.57735,-116.367 L 1.67358,-116.163 L 1.74344,-115.948
 L 1.7858,-115.726 L 1.79999,-115.5 L 1.7858,-115.274 L 1.74344,-115.052 L 1.67358,-114.837 L 1.57735,-114.633
 L 1.45622,-114.442 L 1.31213,-114.268 L 1.14735,-114.113 L 0.964478,-113.98 L 0.766388,-113.871 L 0.556229,-113.788
 L 0.33728,-113.732 L 0.113022,-113.704 z
M -7.59418,-114.003 L -7.78107,-114.027 L -7.96352,-114.073 L -8.13866,-114.143 L -8.30373,-114.234 L -8.45613,-114.344
 L -8.59344,-114.473 L -8.71352,-114.618 L -8.81445,-114.777 L -8.89465,-114.948 L -8.95287,-115.127 L -8.98816,-115.312
 L -9,-115.5 L -8.98816,-115.688 L -8.95287,-115.873 L -8.89465,-116.052 L -8.81445,-116.223 L -8.71352,-116.382
 L -8.59344,-116.527 L -8.45613,-116.656 L -8.30373,-116.766 L -8.13866,-116.857 L -7.96352,-116.927 L -7.78107,-116.973
 L -7.59418,-116.997 L -7.40581,-116.997 L -7.21892,-116.973 L -7.03647,-116.927 L -6.86133,-116.857 L -6.69626,-116.766
 L -6.54385,-116.656 L -6.40654,-116.527 L -6.28647,-116.382 L -6.18553,-116.223 L -6.10533,-116.052 L -6.04712,-115.873
 L -6.01183,-115.688 L -6,-115.5 L -6.01183,-115.312 L -6.04712,-115.127 L -6.10533,-114.948 L -6.18553,-114.777
 L -6.28647,-114.618 L -6.40654,-114.473 L -6.54385,-114.344 L -6.69626,-114.234 L -6.86133,-114.143 L -7.03647,-114.073
 L -7.21892,-114.027 L -7.40581,-114.003 z
M 7.40581,-114.003 L 7.21892,-114.027 L 7.03647,-114.073 L 6.86133,-114.143 L 6.69626,-114.234 L 6.54385,-114.344
 L 6.40654,-114.473 L 6.28647,-114.618 L 6.18553,-114.777 L 6.10533,-114.948 L 6.04712,-115.127 L 6.01183,-115.312
 L 6,-115.5 L 6.01183,-115.688 L 6.04712,-115.873 L 6.10533,-116.052 L 6.18553,-116.223 L 6.28647,-116.382
 L 6.40654,-116.527 L 6.54385,-116.656 L 6.69626,-116.766 L 6.86133,-116.857 L 7.03647,-116.927 L 7.21892,-116.973
 L 7.40581,-116.997 L 7.59418,-116.997 L 7.78107,-116.973 L 7.96352,-116.927 L 8.13866,-116.857 L 8.30373,-116.766
 L 8.45613,-116.656 L 8.59344,-116.527 L 8.71352,-116.382 L 8.81445,-116.223 L 8.89465,-116.052 L 8.95287,-115.873
 L 8.98816,-115.688 L 9,-115.5 L 8.98816,-115.312 L 8.95287,-115.127 L 8.89465,-114.948 L 8.81445,-114.777
 L 8.71352,-114.618 L 8.59344,-114.473 L 8.45613,-114.344 L 8.30373,-114.234 L 8.13866,-114.143 L 7.96352,-114.073
 L 7.78107,-114.027 L 7.59418,-114.003 z
M 64.5,-125 L 64.4606,-125.627 L 64.3429,-126.243 L 64.1489,-126.841 L 63.8815,-127.409 L 63.5451,-127.939
 L 63.1448,-128.423 L 62.6871,-128.853 L 62.1791,-129.222 L 61.6289,-129.524 L 61.0451,-129.755 L 60.4369,-129.911
 L 59.8139,-129.99 L 40.186,-129.99 L 39.5631,-129.911 L 38.9549,-129.755 L 38.3711,-129.524 L 37.8209,-129.222
 L 37.3129,-128.853 L 36.8551,-128.423 L 36.4549,-127.939 L 36.1185,-127.409 L 35.8511,-126.841 L 35.6571,-126.243
 L 35.5394,-125.627 L 35.5,-125 L 35.5,-110.592 L 64.5,-110.592 z
M 57.3116,-120.006 L 56.9379,-120.053 L 56.5729,-120.147 L 56.2227,-120.286 L 55.8925,-120.467 L 55.5877,-120.688
 L 55.3131,-120.946 L 55.0729,-121.237 L 54.8711,-121.555 L 54.7107,-121.896 L 54.5942,-122.254 L 54.5237,-122.624
 L 54.5,-123 L 54.5237,-123.376 L 54.5942,-123.746 L 54.7107,-124.104 L 54.8711,-124.445 L 55.0729,-124.763
 L 55.3131,-125.054 L 55.5877,-125.312 L 55.8925,-125.533 L 56.2227,-125.714 L 56.5729,-125.853 L 56.9379,-125.947
 L 57.3116,-125.994 L 57.6884,-125.994 L 58.0621,-125.947 L 58.427,-125.853 L 58.7773,-125.714 L 59.1075,-125.533
 L 59.4123,-125.312 L 59.6869,-125.054 L 59.927,-124.763 L 60.1289,-124.445 L 60.2893,-124.104 L 60.4057,-123.746
 L 60.4763,-123.376 L 60.5,-123 L 60.4763,-122.624 L 60.4057,-122.254 L 60.2893,-121.896 L 60.1289,-121.555
 L 59.927,-121.237 L 59.6869,-120.946 L 59.4123,-120.688 L 59.1075,-120.467 L 58.7773,-120.286 L 58.427,-120.147
 L 58.0621,-120.053 L 57.6884,-120.006 z
M 42.3116,-120.006 L 41.9379,-120.053 L 41.5729,-120.147 L 41.2227,-120.286 L 40.8925,-120.467 L 40.5877,-120.688
 L 40.3131,-120.946 L 40.0729,-121.237 L 39.8711,-121.555 L 39.7107,-121.896 L 39.5942,-122.254 L 39.5237,-122.624
 L 39.5,-123 L 39.5237,-123.376 L 39.5942,-123.746 L 39.7107,-124.104 L 39.8711,-124.445 L 40.0729,-124.763
 L 40.3131,-125.054 L 40.5877,-125.312 L 40.8925,-125.533 L 41.2227,-125.714 L 41.5729,-125.853 L 41.9379,-125.947
 L 42.3116,-125.994 L 42.6884,-125.994 L 43.0621,-125.947 L 43.427,-125.853 L 43.7773,-125.714 L 44.1075,-125.533
 L 44.4123,-125.312 L 44.6869,-125.054 L 44.927,-124.763 L 45.1289,-124.445 L 45.2893,-124.104 L 45.4057,-123.746
 L 45.4763,-123.376 L 45.5,-123 L 45.4763,-122.624 L 45.4057,-122.254 L 45.2893,-121.896 L 45.1289,-121.555
 L 44.927,-121.237 L 44.6869,-120.946 L 44.4123,-120.688 L 44.1075,-120.467 L 43.7773,-120.286 L 43.427,-120.147
 L 43.0621,-120.053 L 42.6884,-120.006 z
M 49.9058,-121.503 L 49.7189,-121.527 L 49.5365,-121.573 L 49.3613,-121.643 L 49.1963,-121.734 L 49.0439,-121.844
 L 48.9065,-121.973 L 48.7865,-122.118 L 48.6855,-122.277 L 48.6053,-122.448 L 48.5471,-122.627 L 48.5118,-122.812
 L 48.5,-123 L 48.5118,-123.188 L 48.5471,-123.373 L 48.6053,-123.552 L 48.6855,-123.723 L 48.7865,-123.882
 L 48.9065,-124.027 L 49.0439,-124.156 L 49.1963,-124.266 L 49.3613,-124.357 L 49.5365,-124.427 L 49.7189,-124.473
 L 49.9058,-124.497 L 50.0942,-124.497 L 50.2811,-124.473 L 50.4635,-124.427 L 50.6387,-124.357 L 50.8037,-124.266
 L 50.9561,-124.156 L 51.0934,-124.027 L 51.2135,-123.882 L 51.3145,-123.723 L 51.3947,-123.552 L 51.4529,-123.373
 L 51.4882,-123.188 L 51.5,-123 L 51.4882,-122.812 L 51.4529,-122.627 L 51.3947,-122.448 L 51.3145,-122.277
 L 51.2135,-122.118 L 51.0934,-121.973 L 50.9561,-121.844 L 50.8037,-121.734 L 50.6387,-121.643 L 50.4635,-121.573
 L 50.2811,-121.527 L 50.0942,-121.503 z
M 49.887,-113.704 L 49.6627,-113.732 L 49.4438,-113.788 L 49.2336,-113.871 L 49.0355,-113.98 L 48.8526,-114.113
 L 48.6879,-114.268 L 48.5438,-114.442 L 48.4226,-114.633 L 48.3264,-114.837 L 48.2565,-115.052 L 48.2142,-115.274
 L 48.2,-115.5 L 48.2142,-115.726 L 48.2565,-115.948 L 48.3264,-116.163 L 48.4226,-116.367 L 48.5438,-116.558
 L 48.6879,-116.732 L 48.8526,-116.887 L 49.0355,-117.02 L 49.2336,-117.129 L 49.4438,-117.212 L 49.6627,-117.268
 L 49.887,-117.296 L 50.113,-117.296 L 50.3373,-117.268 L 50.5562,-117.212 L 50.7664,-117.129 L 50.9645,-117.02
 L 51.1474,-116.887 L 51.3121,-116.732 L 51.4562,-116.558 L 51.5773,-116.367 L 51.6736,-116.163 L 51.7434,-115.948
 L 51.7858,-115.726 L 51.8,-115.5 L 51.7858,-115.274 L 51.7434,-115.052 L 51.6736,-114.837 L 51.5773,-114.633
 L 51.4562,-114.442 L 51.3121,-114.268 L 51.1474,-114.113 L 50.9645,-113.98 L 50.7664,-113.871 L 50.5562,-113.788
 L 50.3373,-113.732 L 50.113,-113.704 z
M 42.4058,-114.003 L 42.2189,-114.027 L 42.0365,-114.073 L 41.8613,-114.143 L 41.6963,-114.234 L 41.5439,-114.344
 L 41.4065,-114.473 L 41.2865,-114.618 L 41.1855,-114.777 L 41.1053,-114.948 L 41.0471,-115.127 L 41.0118,-115.312
 L 41,-115.5 L 41.0118,-115.688 L 41.0471,-115.873 L 41.1053,-116.052 L 41.1855,-116.223 L 41.2865,-116.382
 L 41.4065,-116.527 L 41.5439,-116.656 L 41.6963,-116.766 L 41.8613,-116.857 L 42.0365,-116.927 L 42.2189,-116.973
 L 42.4058,-116.997 L 42.5942,-116.997 L 42.7811,-116.973 L 42.9635,-116.927 L 43.1387,-116.857 L 43.3037,-116.766
 L 43.4561,-116.656 L 43.5934,-116.527 L 43.7135,-116.382 L 43.8145,-116.223 L 43.8947,-116.052 L 43.9529,-115.873
 L 43.9882,-115.688 L 44,-115.5 L 43.9882,-115.312 L 43.9529,-115.127 L 43.8947,-114.948 L 43.8145,-114.777
 L 43.7135,-114.618 L 43.5934,-114.473 L 43.4561,-114.344 L 43.3037,-114.234 L 43.1387,-114.143 L 42.9635,-114.073
 L 42.7811,-114.027 L 42.5942,-114.003 z
M 57.4058,-114.003 L 57.2189,-114.027 L 57.0365,-114.073 L 56.8613,-114.143 L 56.6963,-114.234 L 56.5439,-114.344
 L 56.4065,-114.473 L 56.2865,-114.618 L 56.1855,-114.777 L 56.1053,-114.948 L 56.0471,-115.127 L 56.0118,-115.312
 L 56,-115.5 L 56.0118,-115.688 L 56.0471,-115.873 L 56.1053,-116.052 L 56.1855,-116.223 L 56.2865,-116.382
 L 56.4065,-116.527 L 56.5439,-116.656 L 56.6963,-116.766 L 56.8613,-116.857 L 57.0365,-116.927 L 57.2189,-116.973
 L 57.4058,-116.997 L 57.5942,-116.997 L 57.7811,-116.973 L 57.9635,-116.927 L 58.1387,-116.857 L 58.3037,-116.766
 L 58.4561,-116.656 L 58.5934,-116.527 L 58.7135,-116.382 L 58.8145,-116.223 L 58.8947,-116.052 L 58.9529,-115.873
 L 58.9882,-115.688 L 59,-115.5 L 58.9882,-115.312 L 58.9529,-115.127 L 58.8947,-114.948 L 58.8145,-114.777
 L 58.7135,-114.618 L 58.5934,-114.473 L 58.4561,-114.344 L 58.3037,-114.234 L 58.1387,-114.143 L 57.9635,-114.073
 L 57.7811,-114.027 L 57.5942,-114.003 z
M 60.4369,-86.0886 L 61.0451,-86.2447 L 61.6289,-86.4759 L 62.1791,-86.7784 L 62.6871,-87.1474 L 63.1448,-87.5773
 L 63.5451,-88.0611 L 63.8815,-88.5912 L 64.1489,-89.1594 L 64.3429,-89.7566 L 64.4606,-90.3733 L 64.5,-91
 L 64.5,-105.408 L 35.5,-105.408 L 35.5,-91 L 35.5394,-90.3733 L 35.6571,-89.7566 L 35.8511,-89.1594
 L 36.1185,-88.5912 L 36.4549,-88.0611 L 36.8551,-87.5773 L 37.3129,-87.1474 L 37.8209,-86.7784 L 38.3711,-86.4759
 L 38.9549,-86.2447 L 39.5631,-86.0886 L 40.186,-86.0099 L 59.8139,-86.0099 z
M 49.887,-98.7036 L 49.6627,-98.7319 L 49.4438,-98.7881 L 49.2336,-98.8713 L 49.0355,-98.9802 L 48.8526,-99.1131
 L 48.6879,-99.2678 L 48.5438,-99.442 L 48.4226,-99.6329 L 48.3264,-99.8374 L 48.2565,-100.052 L 48.2142,-100.274
 L 48.2,-100.5 L 48.2142,-100.726 L 48.2565,-100.948 L 48.3264,-101.163 L 48.4226,-101.367 L 48.5438,-101.558
 L 48.6879,-101.732 L 48.8526,-101.887 L 49.0355,-102.02 L 49.2336,-102.129 L 49.4438,-102.212 L 49.6627,-102.268
 L 49.887,-102.296 L 50.113,-102.296 L 50.3373,-102.268 L 50.5562,-102.212 L 50.7664,-102.129 L 50.9645,-102.02
 L 51.1474,-101.887 L 51.3121,-101.732 L 51.4562,-101.558 L 51.5773,-101.367 L 51.6736,-101.163 L 51.7434,-100.948
 L 51.7858,-100.726 L 51.8,-100.5 L 51.7858,-100.274 L 51.7434,-100.052 L 51.6736,-99.8374 L 51.5773,-99.6329
 L 51.4562,-99.442 L 51.3121,-99.2678 L 51.1474,-99.1131 L 50.9645,-98.9802 L 50.7664,-98.8713 L 50.5562,-98.7881
 L 50.3373,-98.7319 L 50.113,-98.7036 z
M 57.4058,-99.003 L 57.2189,-99.0266 L 57.0365,-99.0734 L 56.8613,-99.1428 L 56.6963,-99.2335 L 56.5439,-99.3442
 L 56.4065,-99.4732 L 56.2865,-99.6183 L 56.1855,-99.7774 L 56.1053,-99.9478 L 56.0471,-100.127 L 56.0118,-100.312
 L 56,-100.5 L 56.0118,-100.688 L 56.0471,-100.873 L 56.1053,-101.052 L 56.1855,-101.223 L 56.2865,-101.382
 L 56.4065,-101.527 L 56.5439,-101.656 L 56.6963,-101.766 L 56.8613,-101.857 L 57.0365,-101.927 L 57.2189,-101.973
 L 57.4058,-101.997 L 57.5942,-101.997 L 57.7811,-101.973 L 57.9635,-101.927 L 58.1387,-101.857 L 58.3037,-101.766
 L 58.4561,-101.656 L 58.5934,-101.527 L 58.7135,-101.382 L 58.8145,-101.223 L 58.8947,-101.052 L 58.9529,-100.873
 L 58.9882,-100.688 L 59,-100.5 L 58.9882,-100.312 L 58.9529,-100.127 L 58.8947,-99.9478 L 58.8145,-99.7774
 L 58.7135,-99.6183 L 58.5934,-99.4732 L 58.4561,-99.3442 L 58.3037,-99.2335 L 58.1387,-99.1428 L 57.9635,-99.0734
 L 57.7811,-99.0266 L 57.5942,-99.003 z
M 42.4058,-99.003 L 42.2189,-99.0266 L 42.0365,-99.0734 L 41.8613,-99.1428 L 41.6963,-99.2335 L 41.5439,-99.3442
 L 41.4065,-99.4732 L 41.2865,-99.6183 L 41.1855,-99.7774 L 41.1053,-99.9478 L 41.0471,-100.127 L 41.0118,-100.312
 L 41,-100.5 L 41.0118,-100.688 L 41.0471,-100.873 L 41.1053,-101.052 L 41.1855,-101.223 L 41.2865,-101.382
 L 41.4065,-101.527 L 41.5439,-101.656 L 41.6963,-101.766 L 41.8613,-101.857 L 42.0365,-101.927 L 42.2189,-101.973
 L 42.4058,-101.997 L 42.5942,-101.997 L 42.7811,-101.973 L 42.9635,-101.927 L 43.1387,-101.857 L 43.3037,-101.766
 L 43.4561,-101.656 L 43.5934,-101.527 L 43.7135,-101.382 L 43.8145,-101.223 L 43.8947,-101.052 L 43.9529,-100.873
 L 43.9882,-100.688 L 44,-100.5 L 43.9882,-100.312 L 43.9529,-100.127 L 43.8947,-99.9478 L 43.8145,-99.7774
 L 43.7135,-99.6183 L 43.5934,-99.4732 L 43.4561,-99.3442 L 43.3037,-99.2335 L 43.1387,-99.1428 L 42.9635,-99.0734
 L 42.7811,-99.0266 L 42.5942,-99.003 z
M 57.3116,-90.0059 L 56.9379,-90.0531 L 56.5729,-90.1468 L 56.2227,-90.2855 L 55.8925,-90.467 L 55.5877,-90.6885
 L 55.3131,-90.9464 L 55.0729,-91.2366 L 54.8711,-91.5547 L 54.7107,-91.8956 L 54.5942,-92.2539 L 54.5237,-92.624
 L 54.5,-93 L 54.5237,-93.376 L 54.5942,-93.7461 L 54.7107,-94.1044 L 54.8711,-94.4453 L 55.0729,-94.7634
 L 55.3131,-95.0536 L 55.5877,-95.3116 L 55.8925,-95.533 L 56.2227,-95.7145 L 56.5729,-95.8532 L 56.9379,-95.9469
 L 57.3116,-95.9941 L 57.6884,-95.9941 L 58.0621,-95.9469 L 58.427,-95.8532 L 58.7773,-95.7145 L 59.1075,-95.533
 L 59.4123,-95.3116 L 59.6869,-95.0536 L 59.927,-94.7634 L 60.1289,-94.4453 L 60.2893,-94.1044 L 60.4057,-93.7461
 L 60.4763,-93.376 L 60.5,-93 L 60.4763,-92.624 L 60.4057,-92.2539 L 60.2893,-91.8956 L 60.1289,-91.5547
 L 59.927,-91.2366 L 59.6869,-90.9464 L 59.4123,-90.6885 L 59.1075,-90.467 L 58.7773,-90.2855 L 58.427,-90.1468
 L 58.0621,-90.0531 L 57.6884,-90.0059 z
M 42.3116,-90.0059 L 41.9379,-90.0531 L 41.5729,-90.1468 L 41.2227,-90.2855 L 40.8925,-90.467 L 40.5877,-90.6885
 L 40.3131,-90.9464 L 40.0729,-91.2366 L 39.8711,-91.5547 L 39.7107,-91.8956 L 39.5942,-92.2539 L 39.5237,-92.624
 L 39.5,-93 L 39.5237,-93.376 L 39.5942,-93.7461 L 39.7107,-94.1044 L 39.8711,-94.4453 L 40.0729,-94.7634
 L 40.3131,-95.0536 L 40.5877,-95.3116 L 40.8925,-95.533 L 41.2227,-95.7145 L 41.5729,-95.8532 L 41.9379,-95.9469
 L 42.3116,-95.9941 L 42.6884,-95.9941 L 43.0621,-95.9469 L 43.427,-95.8532 L 43.7773,-95.7145 L 44.1075,-95.533
 L 44.4123,-95.3116 L 44.6869,-95.0536 L 44.927,-94.7634 L 45.1289,-94.4453 L 45.2893,-94.1044 L 45.4057,-93.7461
 L 45.4763,-93.376 L 45.5,-93 L 45.4763,-92.624 L 45.4057,-92.2539 L 45.2893,-91.8956 L 45.1289,-91.5547
 L 44.927,-91.2366 L 44.6869,-90.9464 L 44.4123,-90.6885 L 44.1075,-90.467 L 43.7773,-90.2855 L 43.427,-90.1468
 L 43.0621,-90.0531 L 42.6884,-90.0059 z
M 49.9058,-91.503 L 49.7189,-91.5266 L 49.5365,-91.5734 L 49.3613,-91.6428 L 49.1963,-91.7335 L 49.0439,-91.8442
 L 48.9065,-91.9732 L 48.7865,-92.1183 L 48.6855,-92.2774 L 48.6053,-92.4478 L 48.5471,-92.627 L 48.5118,-92.812
 L 48.5,-93 L 48.5118,-93.188 L 48.5471,-93.373 L 48.6053,-93.5522 L 48.6855,-93.7226 L 48.7865,-93.8817
 L 48.9065,-94.0268 L 49.0439,-94.1558 L 49.1963,-94.2665 L 49.3613,-94.3573 L 49.5365,-94.4266 L 49.7189,-94.4734
 L 49.9058,-94.4971 L 50.0942,-94.4971 L 50.2811,-94.4734 L 50.4635,-94.4266 L 50.6387,-94.3573 L 50.8037,-94.2665
 L 50.9561,-94.1558 L 51.0934,-94.0268 L 51.2135,-93.8817 L 51.3145,-93.7226 L 51.3947,-93.5522 L 51.4529,-93.373
 L 51.4882,-93.188 L 51.5,-93 L 51.4882,-92.812 L 51.4529,-92.627 L 51.3947,-92.4478 L 51.3145,-92.2774
 L 51.2135,-92.1183 L 51.0934,-91.9732 L 50.9561,-91.8442 L 50.8037,-91.7335 L 50.6387,-91.6428 L 50.4635,-91.5734
 L 50.2811,-91.5266 L 50.0942,-91.503 z
M 10.4369,-86.0886 L 11.0451,-86.2447 L 11.6289,-86.4759 L 12.1791,-86.7784 L 12.6871,-87.1474 L 13.1448,-87.5773
 L 13.5451,-88.0611 L 13.8815,-88.5912 L 14.1489,-89.1594 L 14.3429,-89.7566 L 14.4606,-90.3733 L 14.5,-91
 L 14.5,-105.408 L -14.5,-105.408 L -14.5,-91 L -14.4606,-90.3733 L -14.3429,-89.7566 L -14.1489,-89.1594
 L -13.8815,-88.5912 L -13.5451,-88.0611 L -13.1448,-87.5773 L -12.6871,-87.1474 L -12.1791,-86.7784 L -11.6289,-86.4759
 L -11.0451,-86.2447 L -10.4369,-86.0886 L -9.81395,-86.0099 L 9.81395,-86.0099 z
M -0.113022,-98.7036 L -0.33728,-98.7319 L -0.556229,-98.7881 L -0.766388,-98.8713 L -0.964478,-98.9802 L -1.14735,-99.1131
 L -1.31213,-99.2678 L -1.45622,-99.442 L -1.57735,-99.6329 L -1.67358,-99.8374 L -1.74344,-100.052 L -1.7858,-100.274
 L -1.79999,-100.5 L -1.7858,-100.726 L -1.74344,-100.948 L -1.67358,-101.163 L -1.57735,-101.367 L -1.45622,-101.558
 L -1.31213,-101.732 L -1.14735,-101.887 L -0.964478,-102.02 L -0.766388,-102.129 L -0.556229,-102.212 L -0.33728,-102.268
 L -0.113022,-102.296 L 0.113022,-102.296 L 0.33728,-102.268 L 0.556229,-102.212 L 0.766388,-102.129 L 0.964478,-102.02
 L 1.14735,-101.887 L 1.31213,-101.732 L 1.45622,-101.558 L 1.57735,-101.367 L 1.67358,-101.163 L 1.74344,-100.948
 L 1.7858,-100.726 L 1.79999,-100.5 L 1.7858,-100.274 L 1.74344,-100.052 L 1.67358,-99.8374 L 1.57735,-99.6329
 L 1.45622,-99.442 L 1.31213,-99.2678 L 1.14735,-99.1131 L 0.964478,-98.9802 L 0.766388,-98.8713 L 0.556229,-98.7881
 L 0.33728,-98.7319 L 0.113022,-98.7036 z
M 7.40581,-99.003 L 7.21892,-99.0266 L 7.03647,-99.0734 L 6.86133,-99.1428 L 6.69626,-99.2335 L 6.54385,-99.3442
 L 6.40654,-99.4732 L 6.28647,-99.6183 L 6.18553,-99.7774 L 6.10533,-99.9478 L 6.04712,-100.127 L 6.01183,-100.312
 L 6,-100.5 L 6.01183,-100.688 L 6.04712,-100.873 L 6.10533,-101.052 L 6.18553,-101.223 L 6.28647,-101.382
 L 6.40654,-101.527 L 6.54385,-101.656 L 6.69626,-101.766 L 6.86133,-101.857 L 7.03647,-101.927 L 7.21892,-101.973
 L 7.40581,-101.997 L 7.59418,-101.997 L 7.78107,-101.973 L 7.96352,-101.927 L 8.13866,-101.857 L 8.30373,-101.766
 L 8.45613,-101.656 L 8.59344,-101.527 L 8.71352,-101.382 L 8.81445,-101.223 L 8.89465,-101.052 L 8.95287,-100.873
 L 8.98816,-100.688 L 9,-100.5 L 8.98816,-100.312 L 8.95287,-100.127 L 8.89465,-99.9478 L 8.81445,-99.7774
 L 8.71352,-99.6183 L 8.59344,-99.4732 L 8.45613,-99.3442 L 8.30373,-99.2335 L 8.13866,-99.1428 L 7.96352,-99.0734
 L 7.78107,-99.0266 L 7.59418,-99.003 z
M -7.59418,-99.003 L -7.78107,-99.0266 L -7.96352,-99.0734 L -8.13866,-99.1428 L -8.30373,-99.2335 L -8.45613,-99.3442
 L -8.59344,-99.4732 L -8.71352,-99.6183 L -8.81445,-99.7774 L -8.89465,-99.9478 L -8.95287,-100.127 L -8.98816,-100.312
 L -9,-100.5 L -8.98816,-100.688 L -8.95287,-100.873 L -8.89465,-101.052 L -8.81445,-101.223 L -8.71352,-101.382
 L -8.59344,-101.527 L -8.45613,-101.656 L -8.30373,-101.766 L -8.13866,-101.857 L -7.96352,-101.927 L -7.78107,-101.973
 L -7.59418,-101.997 L -7.40581,-101.997 L -7.21892,-101.973 L -7.03647,-101.927 L -6.86133,-101.857 L -6.69626,-101.766
 L -6.54385,-101.656 L -6.40654,-101.527 L -6.28647,-101.382 L -6.18553,-101.223 L -6.10533,-101.052 L -6.04712,-100.873
 L -6.01183,-100.688 L -6,-100.5 L -6.01183,-100.312 L -6.04712,-100.127 L -6.10533,-99.9478 L -6.18553,-99.7774
 L -6.28647,-99.6183 L -6.40654,-99.4732 L -6.54385,-99.3442 L -6.69626,-99.2335 L -6.86133,-99.1428 L -7.03647,-99.0734
 L -7.21892,-99.0266 L -7.40581,-99.003 z
M -0.194641,-89.9061 L -0.580872,-89.9549 L -0.957947,-90.0517 L -1.3199,-90.195 L -1.66106,-90.3826 L -1.97601,-90.6114
 L -2.2598,-90.8779 L -2.50795,-91.1779 L -2.71654,-91.5066 L -2.88229,-91.8588 L -3.00259,-92.2291 L -3.07555,-92.6115
 L -3.09999,-93 L -3.07555,-93.3885 L -3.00259,-93.771 L -2.88229,-94.1412 L -2.71654,-94.4934 L -2.50795,-94.8221
 L -2.2598,-95.1221 L -1.97601,-95.3886 L -1.66106,-95.6174 L -1.3199,-95.805 L -0.957947,-95.9483 L -0.580872,-96.0451
 L -0.194641,-96.0939 L 0.194641,-96.0939 L 0.580872,-96.0451 L 0.957947,-95.9483 L 1.3199,-95.805 L 1.66106,-95.6174
 L 1.97601,-95.3886 L 2.2598,-95.1221 L 2.50795,-94.8221 L 2.71654,-94.4934 L 2.88229,-94.1412 L 3.00259,-93.771
 L 3.07555,-93.3885 L 3.09999,-93 L 3.07555,-92.6115 L 3.00259,-92.2291 L 2.88229,-91.8588 L 2.71654,-91.5066
 L 2.50795,-91.1779 L 2.2598,-90.8779 L 1.97601,-90.6114 L 1.66106,-90.3826 L 1.3199,-90.195 L 0.957947,-90.0517
 L 0.580872,-89.9549 L 0.194641,-89.9061 z
M -7.68837,-90.0059 L -8.06213,-90.0531 L -8.42705,-90.1468 L -8.77733,-90.2855 L -9.10747,-90.467 L -9.41226,-90.6885
 L -9.6869,-90.9464 L -9.92705,-91.2366 L -10.1289,-91.5547 L -10.2893,-91.8956 L -10.4057,-92.2539 L -10.4763,-92.624
 L -10.5,-93 L -10.4763,-93.376 L -10.4057,-93.7461 L -10.2893,-94.1044 L -10.1289,-94.4453 L -9.92705,-94.7634
 L -9.6869,-95.0536 L -9.41226,-95.3116 L -9.10747,-95.533 L -8.77733,-95.7145 L -8.42705,-95.8532 L -8.06213,-95.9469
 L -7.68837,-95.9941 L -7.31161,-95.9941 L -6.93785,-95.9469 L -6.57294,-95.8532 L -6.22266,-95.7145 L -5.89252,-95.533
 L -5.58772,-95.3116 L -5.31308,-95.0536 L -5.07294,-94.7634 L -4.87108,-94.4453 L -4.71066,-94.1044 L -4.59424,-93.7461
 L -4.52365,-93.376 L -4.5,-93 L -4.52365,-92.624 L -4.59424,-92.2539 L -4.71066,-91.8956 L -4.87108,-91.5547
 L -5.07294,-91.2366 L -5.31308,-90.9464 L -5.58772,-90.6885 L -5.89252,-90.467 L -6.22266,-90.2855 L -6.57294,-90.1468
 L -6.93785,-90.0531 L -7.31161,-90.0059 z
M 7.31161,-90.0059 L 6.93785,-90.0531 L 6.57294,-90.1468 L 6.22266,-90.2855 L 5.89252,-90.467 L 5.58772,-90.6885
 L 5.31308,-90.9464 L 5.07294,-91.2366 L 4.87108,-91.5547 L 4.71066,-91.8956 L 4.59424,-92.2539 L 4.52365,-92.624
 L 4.5,-93 L 4.52365,-93.376 L 4.59424,-93.7461 L 4.71066,-94.1044 L 4.87108,-94.4453 L 5.07294,-94.7634
 L 5.31308,-95.0536 L 5.58772,-95.3116 L 5.89252,-95.533 L 6.22266,-95.7145 L 6.57294,-95.8532 L 6.93785,-95.9469
 L 7.31161,-95.9941 L 7.68837,-95.9941 L 8.06213,-95.9469 L 8.42705,-95.8532 L 8.77733,-95.7145 L 9.10747,-95.533
 L 9.41226,-95.3116 L 9.6869,-95.0536 L 9.92705,-94.7634 L 10.1289,-94.4453 L 10.2893,-94.1044 L 10.4057,-93.7461
 L 10.4763,-93.376 L 10.5,-93 L 10.4763,-92.624 L 10.4057,-92.2539 L 10.2893,-91.8956 L 10.1289,-91.5547
 L 9.92705,-91.2366 L 9.6869,-90.9464 L 9.41226,-90.6885 L 9.10747,-90.467 L 8.77733,-90.2855 L 8.42705,-90.1468
 L 8.06213,-90.0531 L 7.68837,-90.0059 z
M 10.4369,-32.0886 L 11.0451,-32.2447 L 11.6289,-32.4759 L 12.1791,-32.7784 L 12.6871,-33.1474 L 13.1448,-33.5773
 L 13.5451,-34.0611 L 13.8815,-34.5912 L 14.1489,-35.1594 L 14.3429,-35.7566 L 14.4606,-36.3733 L 14.5,-37
 L 14.5,-71 L 14.4606,-71.6267 L 14.3429,-72.2434 L 14.1489,-72.8406 L 13.8815,-73.4088 L 13.5451,-73.9389
 L 13.1448,-74.4227 L 12.6871,-74.8526 L 12.1791,-75.2216 L 11.6289,-75.5241 L 11.0451,-75.7553 L 10.4369,-75.9114
 L 9.81395,-75.9901 L -9.81395,-75.9901 L -10.4369,-75.9114 L -11.0451,-75.7553 L -11.6289,-75.5241 L -12.1791,-75.2216
 L -12.6871,-74.8526 L -13.1448,-74.4227 L -13.5451,-73.9389 L -13.8815,-73.4088 L -14.1489,-72.8406 L -14.3429,-72.2434
 L -14.4606,-71.6267 L -14.5,-71 L -14.5,-37 L -14.4606,-36.3733 L -14.3429,-35.7566 L -14.1489,-35.1594
 L -13.8815,-34.5912 L -13.5451,-34.0611 L -13.1448,-33.5773 L -12.6871,-33.1474 L -12.1791,-32.7784 L -11.6289,-32.4759
 L -11.0451,-32.2447 L -10.4369,-32.0886 L -9.81395,-32.0099 L 9.81395,-32.0099 z
M -7.68837,-66.0059 L -8.06213,-66.0531 L -8.42705,-66.1468 L -8.77733,-66.2855 L -9.10747,-66.467 L -9.41226,-66.6884
 L -9.6869,-66.9464 L -9.92705,-67.2366 L -10.1289,-67.5547 L -10.2893,-67.8956 L -10.4057,-68.2539 L -10.4763,-68.624
 L -10.5,-69 L -10.4763,-69.376 L -10.4057,-69.7461 L -10.2893,-70.1044 L -10.1289,-70.4453 L -9.92705,-70.7634
 L -9.6869,-71.0536 L -9.41226,-71.3115 L -9.10747,-71.533 L -8.77733,-71.7145 L -8.42705,-71.8532 L -8.06213,-71.9469
 L -7.68837,-71.9941 L -7.31161,-71.9941 L -6.93785,-71.9469 L -6.57294,-71.8532 L -6.22266,-71.7145 L -5.89252,-71.533
 L -5.58772,-71.3115 L -5.31308,-71.0536 L -5.07294,-70.7634 L -4.87108,-70.4453 L -4.71066,-70.1044 L -4.59424,-69.7461
 L -4.52365,-69.376 L -4.5,-69 L -4.52365,-68.624 L -4.59424,-68.2539 L -4.71066,-67.8956 L -4.87108,-67.5547
 L -5.07294,-67.2366 L -5.31308,-66.9464 L -5.58772,-66.6884 L -5.89252,-66.467 L -6.22266,-66.2855 L -6.57294,-66.1468
 L -6.93785,-66.0531 L -7.31161,-66.0059 z
M 7.31161,-66.0059 L 6.93785,-66.0531 L 6.57294,-66.1468 L 6.22266,-66.2855 L 5.89252,-66.467 L 5.58772,-66.6884
 L 5.31308,-66.9464 L 5.07294,-67.2366 L 4.87108,-67.5547 L 4.71066,-67.8956 L 4.59424,-68.2539 L 4.52365,-68.624
 L 4.5,-69 L 4.52365,-69.376 L 4.59424,-69.7461 L 4.71066,-70.1044 L 4.87108,-70.4453 L 5.07294,-70.7634
 L 5.31308,-71.0536 L 5.58772,-71.3115 L 5.89252,-71.533 L 6.22266,-71.7145 L 6.57294,-71.8532 L 6.93785,-71.9469
 L 7.31161,-71.9941 L 7.68837,-71.9941 L 8.06213,-71.9469 L 8.42705,-71.8532 L 8.77733,-71.7145 L 9.10747,-71.533
 L 9.41226,-71.3115 L 9.6869,-71.0536 L 9.92705,-70.7634 L 10.1289,-70.4453 L 10.2893,-70.1044 L 10.4057,-69.7461
 L 10.4763,-69.376 L 10.5,-69 L 10.4763,-68.624 L 10.4057,-68.2539 L 10.2893,-67.8956 L 10.1289,-67.5547
 L 9.92705,-67.2366 L 9.6869,-66.9464 L 9.41226,-66.6884 L 9.10747,-66.467 L 8.77733,-66.2855 L 8.42705,-66.1468
 L 8.06213,-66.0531 L 7.68837,-66.0059 z
M -0.133423,-66.8792 L -0.398178,-66.9126 L -0.656647,-66.979 L -0.90477,-67.0772 L -1.13863,-67.2058 L -1.35452,-67.3627
 L -1.54906,-67.5453 L -1.71915,-67.7509 L -1.86214,-67.9763 L -1.97577,-68.2177 L -2.05823,-68.4715 L -2.10823,-68.7337
 L -2.125,-69 L -2.10823,-69.2663 L -2.05823,-69.5285 L -1.97577,-69.7823 L -1.86214,-70.0237 L -1.71915,-70.249
 L -1.54906,-70.4547 L -1.35452,-70.6373 L -1.13863,-70.7942 L -0.90477,-70.9227 L -0.656647,-71.021 L -0.398178,-71.0874
 L -0.133423,-71.1208 L 0.133423,-71.1208 L 0.398178,-71.0874 L 0.656647,-71.021 L 0.90477,-70.9227 L 1.13863,-70.7942
 L 1.35452,-70.6373 L 1.54906,-70.4547 L 1.71915,-70.249 L 1.86214,-70.0237 L 1.97577,-69.7823 L 2.05823,-69.5285
 L 2.10823,-69.2663 L 2.125,-69 L 2.10823,-68.7337 L 2.05823,-68.4715 L 1.97577,-68.2177 L 1.86214,-67.9763
 L 1.71915,-67.7509 L 1.54906,-67.5453 L 1.35452,-67.3627 L 1.13863,-67.2058 L 0.90477,-67.0772 L 0.656647,-66.979
 L 0.398178,-66.9126 L 0.133423,-66.8792 z
M -1.58675,-58.7517 L -3.17349,-61.5 L -1.58675,-64.2483 L 1.58675,-64.2483 L 3.17349,-61.5 L 1.58675,-58.7517
 z
M 7.40581,-60.0029 L 7.21892,-60.0266 L 7.03647,-60.0734 L 6.86133,-60.1427 L 6.69626,-60.2335 L 6.54385,-60.3442
 L 6.40654,-60.4732 L 6.28647,-60.6183 L 6.18553,-60.7774 L 6.10533,-60.9478 L 6.04712,-61.127 L 6.01183,-61.312
 L 6,-61.5 L 6.01183,-61.688 L 6.04712,-61.873 L 6.10533,-62.0522 L 6.18553,-62.2226 L 6.28647,-62.3817
 L 6.40654,-62.5268 L 6.54385,-62.6558 L 6.69626,-62.7665 L 6.86133,-62.8572 L 7.03647,-62.9266 L 7.21892,-62.9734
 L 7.40581,-62.997 L 7.59418,-62.997 L 7.78107,-62.9734 L 7.96352,-62.9266 L 8.13866,-62.8572 L 8.30373,-62.7665
 L 8.45613,-62.6558 L 8.59344,-62.5268 L 8.71352,-62.3817 L 8.81445,-62.2226 L 8.89465,-62.0522 L 8.95287,-61.873
 L 8.98816,-61.688 L 9,-61.5 L 8.98816,-61.312 L 8.95287,-61.127 L 8.89465,-60.9478 L 8.81445,-60.7774
 L 8.71352,-60.6183 L 8.59344,-60.4732 L 8.45613,-60.3442 L 8.30373,-60.2335 L 8.13866,-60.1427 L 7.96352,-60.0734
 L 7.78107,-60.0266 L 7.59418,-60.0029 z
M -7.59418,-60.0029 L -7.78107,-60.0266 L -7.96352,-60.0734 L -8.13866,-60.1427 L -8.30373,-60.2335 L -8.45613,-60.3442
 L -8.59344,-60.4732 L -8.71352,-60.6183 L -8.81445,-60.7774 L -8.89465,-60.9478 L -8.95287,-61.127 L -8.98816,-61.312
 L -9,-61.5 L -8.98816,-61.688 L -8.95287,-61.873 L -8.89465,-62.0522 L -8.81445,-62.2226 L -8.71352,-62.3817
 L -8.59344,-62.5268 L -8.45613,-62.6558 L -8.30373,-62.7665 L -8.13866,-62.8572 L -7.96352,-62.9266 L -7.78107,-62.9734
 L -7.59418,-62.997 L -7.40581,-62.997 L -7.21892,-62.9734 L -7.03647,-62.9266 L -6.86133,-62.8572 L -6.69626,-62.7665
 L -6.54385,-62.6558 L -6.40654,-62.5268 L -6.28647,-62.3817 L -6.18553,-62.2226 L -6.10533,-62.0522 L -6.04712,-61.873
 L -6.01183,-61.688 L -6,-61.5 L -6.01183,-61.312 L -6.04712,-61.127 L -6.10533,-60.9478 L -6.18553,-60.7774
 L -6.28647,-60.6183 L -6.40654,-60.4732 L -6.54385,-60.3442 L -6.69626,-60.2335 L -6.86133,-60.1427 L -7.03647,-60.0734
 L -7.21892,-60.0266 L -7.40581,-60.0029 z
M -1.58675,-43.7517 L -3.17349,-46.5 L -1.58675,-49.2483 L 1.58675,-49.2483 L 3.17349,-46.5 L 1.58675,-43.7517
 z
M -7.59418,-45.003 L -7.78107,-45.0266 L -7.96352,-45.0734 L -8.13866,-45.1428 L -8.30373,-45.2335 L -8.45613,-45.3442
 L -8.59344,-45.4732 L -8.71352,-45.6183 L -8.81445,-45.7774 L -8.89465,-45.9478 L -8.95287,-46.127 L -8.98816,-46.312
 L -9,-46.5 L -8.98816,-46.688 L -8.95287,-46.873 L -8.89465,-47.0522 L -8.81445,-47.2226 L -8.71352,-47.3817
 L -8.59344,-47.5268 L -8.45613,-47.6558 L -8.30373,-47.7665 L -8.13866,-47.8573 L -7.96352,-47.9266 L -7.78107,-47.9734
 L -7.59418,-47.9971 L -7.40581,-47.9971 L -7.21892,-47.9734 L -7.03647,-47.9266 L -6.86133,-47.8573 L -6.69626,-47.7665
 L -6.54385,-47.6558 L -6.40654,-47.5268 L -6.28647,-47.3817 L -6.18553,-47.2226 L -6.10533,-47.0522 L -6.04712,-46.873
 L -6.01183,-46.688 L -6,-46.5 L -6.01183,-46.312 L -6.04712,-46.127 L -6.10533,-45.9478 L -6.18553,-45.7774
 L -6.28647,-45.6183 L -6.40654,-45.4732 L -6.54385,-45.3442 L -6.69626,-45.2335 L -6.86133,-45.1428 L -7.03647,-45.0734
 L -7.21892,-45.0266 L -7.40581,-45.003 z
M 7.40581,-45.003 L 7.21892,-45.0266 L 7.03647,-45.0734 L 6.86133,-45.1428 L 6.69626,-45.2335 L 6.54385,-45.3442
 L 6.40654,-45.4732 L 6.28647,-45.6183 L 6.18553,-45.7774 L 6.10533,-45.9478 L 6.04712,-46.127 L 6.01183,-46.312
 L 6,-46.5 L 6.01183,-46.688 L 6.04712,-46.873 L 6.10533,-47.0522 L 6.18553,-47.2226 L 6.28647,-47.3817
 L 6.40654,-47.5268 L 6.54385,-47.6558 L 6.69626,-47.7665 L 6.86133,-47.8573 L 7.03647,-47.9266 L 7.21892,-47.9734
 L 7.40581,-47.9971 L 7.59418,-47.9971 L 7.78107,-47.9734 L 7.96352,-47.9266 L 8.13866,-47.8573 L 8.30373,-47.7665
 L 8.45613,-47.6558 L 8.59344,-47.5268 L 8.71352,-47.3817 L 8.81445,-47.2226 L 8.89465,-47.0522 L 8.95287,-46.873
 L 8.98816,-46.688 L 9,-46.5 L 8.98816,-46.312 L 8.95287,-46.127 L 8.89465,-45.9478 L 8.81445,-45.7774
 L 8.71352,-45.6183 L 8.59344,-45.4732 L 8.45613,-45.3442 L 8.30373,-45.2335 L 8.13866,-45.1428 L 7.96352,-45.0734
 L 7.78107,-45.0266 L 7.59418,-45.003 z
M -7.68837,-36.0059 L -8.06213,-36.0531 L -8.42705,-36.1468 L -8.77733,-36.2855 L -9.10747,-36.467 L -9.41226,-36.6885
 L -9.6869,-36.9464 L -9.92705,-37.2366 L -10.1289,-37.5547 L -10.2893,-37.8956 L -10.4057,-38.2539 L -10.4763,-38.624
 L -10.5,-39 L -10.4763,-39.376 L -10.4057,-39.7461 L -10.2893,-40.1044 L -10.1289,-40.4453 L -9.92705,-40.7634
 L -9.6869,-41.0536 L -9.41226,-41.3116 L -9.10747,-41.533 L -8.77733,-41.7145 L -8.42705,-41.8532 L -8.06213,-41.9469
 L -7.68837,-41.9941 L -7.31161,-41.9941 L -6.93785,-41.9469 L -6.57294,-41.8532 L -6.22266,-41.7145 L -5.89252,-41.533
 L -5.58772,-41.3116 L -5.31308,-41.0536 L -5.07294,-40.7634 L -4.87108,-40.4453 L -4.71066,-40.1044 L -4.59424,-39.7461
 L -4.52365,-39.376 L -4.5,-39 L -4.52365,-38.624 L -4.59424,-38.2539 L -4.71066,-37.8956 L -4.87108,-37.5547
 L -5.07294,-37.2366 L -5.31308,-36.9464 L -5.58772,-36.6885 L -5.89252,-36.467 L -6.22266,-36.2855 L -6.57294,-36.1468
 L -6.93785,-36.0531 L -7.31161,-36.0059 z
M 7.31161,-36.0059 L 6.93785,-36.0531 L 6.57294,-36.1468 L 6.22266,-36.2855 L 5.89252,-36.467 L 5.58772,-36.6885
 L 5.31308,-36.9464 L 5.07294,-37.2366 L 4.87108,-37.5547 L 4.71066,-37.8956 L 4.59424,-38.2539 L 4.52365,-38.624
 L 4.5,-39 L 4.52365,-39.376 L 4.59424,-39.7461 L 4.71066,-40.1044 L 4.87108,-40.4453 L 5.07294,-40.7634
 L 5.31308,-41.0536 L 5.58772,-41.3116 L 5.89252,-41.533 L 6.22266,-41.7145 L 6.57294,-41.8532 L 6.93785,-41.9469
 L 7.31161,-41.9941 L 7.68837,-41.9941 L 8.06213,-41.9469 L 8.42705,-41.8532 L 8.77733,-41.7145 L 9.10747,-41.533
 L 9.41226,-41.3116 L 9.6869,-41.0536 L 9.92705,-40.7634 L 10.1289,-40.4453 L 10.2893,-40.1044 L 10.4057,-39.7461
 L 10.4763,-39.376 L 10.5,-39 L 10.4763,-38.624 L 10.4057,-38.2539 L 10.2893,-37.8956 L 10.1289,-37.5547
 L 9.92705,-37.2366 L 9.6869,-36.9464 L 9.41226,-36.6885 L 9.10747,-36.467 L 8.77733,-36.2855 L 8.42705,-36.1468
 L 8.06213,-36.0531 L 7.68837,-36.0059 z
M -0.133423,-36.8792 L -0.398178,-36.9126 L -0.656647,-36.979 L -0.90477,-37.0773 L -1.13863,-37.2058 L -1.35452,-37.3627
 L -1.54906,-37.5453 L -1.71915,-37.751 L -1.86214,-37.9763 L -1.97577,-38.2177 L -2.05823,-38.4715 L -2.10823,-38.7337
 L -2.125,-39 L -2.10823,-39.2663 L -2.05823,-39.5285 L -1.97577,-39.7823 L -1.86214,-40.0237 L -1.71915,-40.2491
 L -1.54906,-40.4547 L -1.35452,-40.6373 L -1.13863,-40.7942 L -0.90477,-40.9228 L -0.656647,-41.021 L -0.398178,-41.0874
 L -0.133423,-41.1208 L 0.133423,-41.1208 L 0.398178,-41.0874 L 0.656647,-41.021 L 0.90477,-40.9228 L 1.13863,-40.7942
 L 1.35452,-40.6373 L 1.54906,-40.4547 L 1.71915,-40.2491 L 1.86214,-40.0237 L 1.97577,-39.7823 L 2.05823,-39.5285
 L 2.10823,-39.2663 L 2.125,-39 L 2.10823,-38.7337 L 2.05823,-38.4715 L 1.97577,-38.2177 L 1.86214,-37.9763
 L 1.71915,-37.751 L 1.54906,-37.5453 L 1.35452,-37.3627 L 1.13863,-37.2058 L 0.90477,-37.0773 L 0.656647,-36.979
 L 0.398178,-36.9126 L 0.133423,-36.8792 z
M 60.4369,-32.0886 L 61.0451,-32.2447 L 61.6289,-32.4759 L 62.1791,-32.7784 L 62.6871,-33.1474 L 63.1448,-33.5773
 L 63.5451,-34.0611 L 63.8815,-34.5912 L 64.1489,-35.1594 L 64.3429,-35.7566 L 64.4606,-36.3733 L 64.5,-37
 L 64.5,-71 L 64.4606,-71.6267 L 64.3429,-72.2434 L 64.1489,-72.8406 L 63.8815,-73.4088 L 63.5451,-73.9389
 L 63.1448,-74.4227 L 62.6871,-74.8526 L 62.1791,-75.2216 L 61.6289,-75.5241 L 61.0451,-75.7553 L 60.4369,-75.9114
 L 59.8139,-75.9901 L 40.186,-75.9901 L 39.5631,-75.9114 L 38.9549,-75.7553 L 38.3711,-75.5241 L 37.8209,-75.2216
 L 37.3129,-74.8526 L 36.8551,-74.4227 L 36.4549,-73.9389 L 36.1185,-73.4088 L 35.8511,-72.8406 L 35.6571,-72.2434
 L 35.5394,-71.6267 L 35.5,-71 L 35.5,-37 L 35.5394,-36.3733 L 35.6571,-35.7566 L 35.8511,-35.1594
 L 36.1185,-34.5912 L 36.4549,-34.0611 L 36.8551,-33.5773 L 37.3129,-33.1474 L 37.8209,-32.7784 L 38.3711,-32.4759
 L 38.9549,-32.2447 L 39.5631,-32.0886 L 40.186,-32.0099 L 59.8139,-32.0099 z
M 57.3116,-66.0059 L 56.9379,-66.0531 L 56.5729,-66.1468 L 56.2227,-66.2855 L 55.8925,-66.467 L 55.5877,-66.6884
 L 55.3131,-66.9464 L 55.0729,-67.2366 L 54.8711,-67.5547 L 54.7107,-67.8956 L 54.5942,-68.2539 L 54.5237,-68.624
 L 54.5,-69 L 54.5237,-69.376 L 54.5942,-69.7461 L 54.7107,-70.1044 L 54.8711,-70.4453 L 55.0729,-70.7634
 L 55.3131,-71.0536 L 55.5877,-71.3115 L 55.8925,-71.533 L 56.2227,-71.7145 L 56.5729,-71.8532 L 56.9379,-71.9469
 L 57.3116,-71.9941 L 57.6884,-71.9941 L 58.0621,-71.9469 L 58.427,-71.8532 L 58.7773,-71.7145 L 59.1075,-71.533
 L 59.4123,-71.3115 L 59.6869,-71.0536 L 59.927,-70.7634 L 60.1289,-70.4453 L 60.2893,-70.1044 L 60.4057,-69.7461
 L 60.4763,-69.376 L 60.5,-69 L 60.4763,-68.624 L 60.4057,-68.2539 L 60.2893,-67.8956 L 60.1289,-67.5547
 L 59.927,-67.2366 L 59.6869,-66.9464 L 59.4123,-66.6884 L 59.1075,-66.467 L 58.7773,-66.2855 L 58.427,-66.1468
 L 58.0621,-66.0531 L 57.6884,-66.0059 z
M 42.3116,-66.0059 L 41.9379,-66.0531 L 41.5729,-66.1468 L 41.2227,-66.2855 L 40.8925,-66.467 L 40.5877,-66.6884
 L 40.3131,-66.9464 L 40.0729,-67.2366 L 39.8711,-67.5547 L 39.7107,-67.8956 L 39.5942,-68.2539 L 39.5237,-68.624
 L 39.5,-69 L 39.5237,-69.376 L 39.5942,-69.7461 L 39.7107,-70.1044 L 39.8711,-70.4453 L 40.0729,-70.7634
 L 40.3131,-71.0536 L 40.5877,-71.3115 L 40.8925,-71.533 L 41.2227,-71.7145 L 41.5729,-71.8532 L 41.9379,-71.9469
 L 42.3116,-71.9941 L 42.6884,-71.9941 L 43.0621,-71.9469 L 43.427,-71.8532 L 43.7773,-71.7145 L 44.1075,-71.533
 L 44.4123,-71.3115 L 44.6869,-71.0536 L 44.927,-70.7634 L 45.1289,-70.4453 L 45.2893,-70.1044 L 45.4057,-69.7461
 L 45.4763,-69.376 L 45.5,-69 L 45.4763,-68.624 L 45.4057,-68.2539 L 45.2893,-67.8956 L 45.1289,-67.5547
 L 44.927,-67.2366 L 44.6869,-66.9464 L 44.4123,-66.6884 L 44.1075,-66.467 L 43.7773,-66.2855 L 43.427,-66.1468
 L 43.0621,-66.0531 L 42.6884,-66.0059 z
M 49.9058,-67.5029 L 49.7189,-67.5266 L 49.5365,-67.5734 L 49.3613,-67.6427 L 49.1963,-67.7335 L 49.0439,-67.8442
 L 48.9065,-67.9732 L 48.7865,-68.1183 L 48.6855,-68.2774 L 48.6053,-68.4478 L 48.5471,-68.627 L 48.5118,-68.812
 L 48.5,-69 L 48.5118,-69.188 L 48.5471,-69.373 L 48.6053,-69.5522 L 48.6855,-69.7226 L 48.7865,-69.8817
 L 48.9065,-70.0268 L 49.0439,-70.1558 L 49.1963,-70.2665 L 49.3613,-70.3572 L 49.5365,-70.4266 L 49.7189,-70.4734
 L 49.9058,-70.497 L 50.0942,-70.497 L 50.2811,-70.4734 L 50.4635,-70.4266 L 50.6387,-70.3572 L 50.8037,-70.2665
 L 50.9561,-70.1558 L 51.0934,-70.0268 L 51.2135,-69.8817 L 51.3145,-69.7226 L 51.3947,-69.5522 L 51.4529,-69.373
 L 51.4882,-69.188 L 51.5,-69 L 51.4882,-68.812 L 51.4529,-68.627 L 51.3947,-68.4478 L 51.3145,-68.2774
 L 51.2135,-68.1183 L 51.0934,-67.9732 L 50.9561,-67.8442 L 50.8037,-67.7335 L 50.6387,-67.6427 L 50.4635,-67.5734
 L 50.2811,-67.5266 L 50.0942,-67.5029 z
M 49.8526,-59.1576 L 49.5602,-59.1945 L 49.2747,-59.2678 L 49.0007,-59.3763 L 48.7424,-59.5183 L 48.5039,-59.6916
 L 48.2891,-59.8933 L 48.1012,-60.1204 L 47.9433,-60.3693 L 47.8177,-60.636 L 47.7267,-60.9163 L 47.6714,-61.2058
 L 47.6529,-61.5 L 47.6714,-61.7942 L 47.7267,-62.0837 L 47.8177,-62.364 L 47.9433,-62.6307 L 48.1012,-62.8796
 L 48.2891,-63.1067 L 48.5039,-63.3084 L 48.7424,-63.4817 L 49.0007,-63.6237 L 49.2747,-63.7322 L 49.5602,-63.8055
 L 49.8526,-63.8424 L 50.1474,-63.8424 L 50.4398,-63.8055 L 50.7253,-63.7322 L 50.9993,-63.6237 L 51.2576,-63.4817
 L 51.4961,-63.3084 L 51.7109,-63.1067 L 51.8988,-62.8796 L 52.0567,-62.6307 L 52.1822,-62.364 L 52.2733,-62.0837
 L 52.3286,-61.7942 L 52.347,-61.5 L 52.3286,-61.2058 L 52.2733,-60.9163 L 52.1822,-60.636 L 52.0567,-60.3693
 L 51.8988,-60.1204 L 51.7109,-59.8933 L 51.4961,-59.6916 L 51.2576,-59.5183 L 50.9993,-59.3763 L 50.7253,-59.2678
 L 50.4398,-59.1945 L 50.1474,-59.1576 z
M 42.4058,-60.0029 L 42.2189,-60.0266 L 42.0365,-60.0734 L 41.8613,-60.1427 L 41.6963,-60.2335 L 41.5439,-60.3442
 L 41.4065,-60.4732 L 41.2865,-60.6183 L 41.1855,-60.7774 L 41.1053,-60.9478 L 41.0471,-61.127 L 41.0118,-61.312
 L 41,-61.5 L 41.0118,-61.688 L 41.0471,-61.873 L 41.1053,-62.0522 L 41.1855,-62.2226 L 41.2865,-62.3817
 L 41.4065,-62.5268 L 41.5439,-62.6558 L 41.6963,-62.7665 L 41.8613,-62.8572 L 42.0365,-62.9266 L 42.2189,-62.9734
 L 42.4058,-62.997 L 42.5942,-62.997 L 42.7811,-62.9734 L 42.9635,-62.9266 L 43.1387,-62.8572 L 43.3037,-62.7665
 L 43.4561,-62.6558 L 43.5934,-62.5268 L 43.7135,-62.3817 L 43.8145,-62.2226 L 43.8947,-62.0522 L 43.9529,-61.873
 L 43.9882,-61.688 L 44,-61.5 L 43.9882,-61.312 L 43.9529,-61.127 L 43.8947,-60.9478 L 43.8145,-60.7774
 L 43.7135,-60.6183 L 43.5934,-60.4732 L 43.4561,-60.3442 L 43.3037,-60.2335 L 43.1387,-60.1427 L 42.9635,-60.0734
 L 42.7811,-60.0266 L 42.5942,-60.0029 z
M 57.4058,-60.0029 L 57.2189,-60.0266 L 57.0365,-60.0734 L 56.8613,-60.1427 L 56.6963,-60.2335 L 56.5439,-60.3442
 L 56.4065,-60.4732 L 56.2865,-60.6183 L 56.1855,-60.7774 L 56.1053,-60.9478 L 56.0471,-61.127 L 56.0118,-61.312
 L 56,-61.5 L 56.0118,-61.688 L 56.0471,-61.873 L 56.1053,-62.0522 L 56.1855,-62.2226 L 56.2865,-62.3817
 L 56.4065,-62.5268 L 56.5439,-62.6558 L 56.6963,-62.7665 L 56.8613,-62.8572 L 57.0365,-62.9266 L 57.2189,-62.9734
 L 57.4058,-62.997 L 57.5942,-62.997 L 57.7811,-62.9734 L 57.9635,-62.9266 L 58.1387,-62.8572 L 58.3037,-62.7665
 L 58.4561,-62.6558 L 58.5934,-62.5268 L 58.7135,-62.3817 L 58.8145,-62.2226 L 58.8947,-62.0522 L 58.9529,-61.873
 L 58.9882,-61.688 L 59,-61.5 L 58.9882,-61.312 L 58.9529,-61.127 L 58.8947,-60.9478 L 58.8145,-60.7774
 L 58.7135,-60.6183 L 58.5934,-60.4732 L 58.4561,-60.3442 L 58.3037,-60.2335 L 58.1387,-60.1427 L 57.9635,-60.0734
 L 57.7811,-60.0266 L 57.5942,-60.0029 z
M 49.8526,-44.1576 L 49.5602,-44.1945 L 49.2747,-44.2678 L 49.0007,-44.3763 L 48.7424,-44.5183 L 48.5039,-44.6916
 L 48.2891,-44.8933 L 48.1012,-45.1204 L 47.9433,-45.3693 L 47.8177,-45.636 L 47.7267,-45.9163 L 47.6714,-46.2058
 L 47.6529,-46.5 L 47.6714,-46.7942 L 47.7267,-47.0837 L 47.8177,-47.364 L 47.9433,-47.6307 L 48.1012,-47.8796
 L 48.2891,-48.1067 L 48.5039,-48.3084 L 48.7424,-48.4817 L 49.0007,-48.6237 L 49.2747,-48.7322 L 49.5602,-48.8055
 L 49.8526,-48.8424 L 50.1474,-48.8424 L 50.4398,-48.8055 L 50.7253,-48.7322 L 50.9993,-48.6237 L 51.2576,-48.4817
 L 51.4961,-48.3084 L 51.7109,-48.1067 L 51.8988,-47.8796 L 52.0567,-47.6307 L 52.1822,-47.364 L 52.2733,-47.0837
 L 52.3286,-46.7942 L 52.347,-46.5 L 52.3286,-46.2058 L 52.2733,-45.9163 L 52.1822,-45.636 L 52.0567,-45.3693
 L 51.8988,-45.1204 L 51.7109,-44.8933 L 51.4961,-44.6916 L 51.2576,-44.5183 L 50.9993,-44.3763 L 50.7253,-44.2678
 L 50.4398,-44.1945 L 50.1474,-44.1576 z
M 57.4058,-45.003 L 57.2189,-45.0266 L 57.0365,-45.0734 L 56.8613,-45.1428 L 56.6963,-45.2335 L 56.5439,-45.3442
 L 56.4065,-45.4732 L 56.2865,-45.6183 L 56.1855,-45.7774 L 56.1053,-45.9478 L 56.0471,-46.127 L 56.0118,-46.312
 L 56,-46.5 L 56.0118,-46.688 L 56.0471,-46.873 L 56.1053,-47.0522 L 56.1855,-47.2226 L 56.2865,-47.3817
 L 56.4065,-47.5268 L 56.5439,-47.6558 L 56.6963,-47.7665 L 56.8613,-47.8573 L 57.0365,-47.9266 L 57.2189,-47.9734
 L 57.4058,-47.9971 L 57.5942,-47.9971 L 57.7811,-47.9734 L 57.9635,-47.9266 L 58.1387,-47.8573 L 58.3037,-47.7665
 L 58.4561,-47.6558 L 58.5934,-47.5268 L 58.7135,-47.3817 L 58.8145,-47.2226 L 58.8947,-47.0522 L 58.9529,-46.873
 L 58.9882,-46.688 L 59,-46.5 L 58.9882,-46.312 L 58.9529,-46.127 L 58.8947,-45.9478 L 58.8145,-45.7774
 L 58.7135,-45.6183 L 58.5934,-45.4732 L 58.4561,-45.3442 L 58.3037,-45.2335 L 58.1387,-45.1428 L 57.9635,-45.0734
 L 57.7811,-45.0266 L 57.5942,-45.003 z
M 42.4058,-45.003 L 42.2189,-45.0266 L 42.0365,-45.0734 L 41.8613,-45.1428 L 41.6963,-45.2335 L 41.5439,-45.3442
 L 41.4065,-45.4732 L 41.2865,-45.6183 L 41.1855,-45.7774 L 41.1053,-45.9478 L 41.0471,-46.127 L 41.0118,-46.312
 L 41,-46.5 L 41.0118,-46.688 L 41.0471,-46.873 L 41.1053,-47.0522 L 41.1855,-47.2226 L 41.2865,-47.3817
 L 41.4065,-47.5268 L 41.5439,-47.6558 L 41.6963,-47.7665 L 41.8613,-47.8573 L 42.0365,-47.9266 L 42.2189,-47.9734
 L 42.4058,-47.9971 L 42.5942,-47.9971 L 42.7811,-47.9734 L 42.9635,-47.9266 L 43.1387,-47.8573 L 43.3037,-47.7665
 L 43.4561,-47.6558 L 43.5934,-47.5268 L 43.7135,-47.3817 L 43.8145,-47.2226 L 43.8947,-47.0522 L 43.9529,-46.873
 L 43.9882,-46.688 L 44,-46.5 L 43.9882,-46.312 L 43.9529,-46.127 L 43.8947,-45.9478 L 43.8145,-45.7774
 L 43.7135,-45.6183 L 43.5934,-45.4732 L 43.4561,-45.3442 L 43.3037,-45.2335 L 43.1387,-45.1428 L 42.9635,-45.0734
 L 42.7811,-45.0266 L 42.5942,-45.003 z
M 57.3116,-36.0059 L 56.9379,-36.0531 L 56.5729,-36.1468 L 56.2227,-36.2855 L 55.8925,-36.467 L 55.5877,-36.6885
 L 55.3131,-36.9464 L 55.0729,-37.2366 L 54.8711,-37.5547 L 54.7107,-37.8956 L 54.5942,-38.2539 L 54.5237,-38.624
 L 54.5,-39 L 54.5237,-39.376 L 54.5942,-39.7461 L 54.7107,-40.1044 L 54.8711,-40.4453 L 55.0729,-40.7634
 L 55.3131,-41.0536 L 55.5877,-41.3116 L 55.8925,-41.533 L 56.2227,-41.7145 L 56.5729,-41.8532 L 56.9379,-41.9469
 L 57.3116,-41.9941 L 57.6884,-41.9941 L 58.0621,-41.9469 L 58.427,-41.8532 L 58.7773,-41.7145 L 59.1075,-41.533
 L 59.4123,-41.3116 L 59.6869,-41.0536 L 59.927,-40.7634 L 60.1289,-40.4453 L 60.2893,-40.1044 L 60.4057,-39.7461
 L 60.4763,-39.376 L 60.5,-39 L 60.4763,-38.624 L 60.4057,-38.2539 L 60.2893,-37.8956 L 60.1289,-37.5547
 L 59.927,-37.2366 L 59.6869,-36.9464 L 59.4123,-36.6885 L 59.1075,-36.467 L 58.7773,-36.2855 L 58.427,-36.1468
 L 58.0621,-36.0531 L 57.6884,-36.0059 z
M 42.3116,-36.0059 L 41.9379,-36.0531 L 41.5729,-36.1468 L 41.2227,-36.2855 L 40.8925,-36.467 L 40.5877,-36.6885
 L 40.3131,-36.9464 L 40.0729,-37.2366 L 39.8711,-37.5547 L 39.7107,-37.8956 L 39.5942,-38.2539 L 39.5237,-38.624
 L 39.5,-39 L 39.5237,-39.376 L 39.5942,-39.7461 L 39.7107,-40.1044 L 39.8711,-40.4453 L 40.0729,-40.7634
 L 40.3131,-41.0536 L 40.5877,-41.3116 L 40.8925,-41.533 L 41.2227,-41.7145 L 41.5729,-41.8532 L 41.9379,-41.9469
 L 42.3116,-41.9941 L 42.6884,-41.9941 L 43.0621,-41.9469 L 43.427,-41.8532 L 43.7773,-41.7145 L 44.1075,-41.533
 L 44.4123,-41.3116 L 44.6869,-41.0536 L 44.927,-40.7634 L 45.1289,-40.4453 L 45.2893,-40.1044 L 45.4057,-39.7461
 L 45.4763,-39.376 L 45.5,-39 L 45.4763,-38.624 L 45.4057,-38.2539 L 45.2893,-37.8956 L 45.1289,-37.5547
 L 44.927,-37.2366 L 44.6869,-36.9464 L 44.4123,-36.6885 L 44.1075,-36.467 L 43.7773,-36.2855 L 43.427,-36.1468
 L 43.0621,-36.0531 L 42.6884,-36.0059 z
M 49.9058,-37.503 L 49.7189,-37.5266 L 49.5365,-37.5734 L 49.3613,-37.6428 L 49.1963,-37.7335 L 49.0439,-37.8442
 L 48.9065,-37.9732 L 48.7865,-38.1183 L 48.6855,-38.2774 L 48.6053,-38.4478 L 48.5471,-38.627 L 48.5118,-38.812
 L 48.5,-39 L 48.5118,-39.188 L 48.5471,-39.373 L 48.6053,-39.5522 L 48.6855,-39.7226 L 48.7865,-39.8817
 L 48.9065,-40.0268 L 49.0439,-40.1558 L 49.1963,-40.2665 L 49.3613,-40.3573 L 49.5365,-40.4266 L 49.7189,-40.4734
 L 49.9058,-40.4971 L 50.0942,-40.4971 L 50.2811,-40.4734 L 50.4635,-40.4266 L 50.6387,-40.3573 L 50.8037,-40.2665
 L 50.9561,-40.1558 L 51.0934,-40.0268 L 51.2135,-39.8817 L 51.3145,-39.7226 L 51.3947,-39.5522 L 51.4529,-39.373
 L 51.4882,-39.188 L 51.5,-39 L 51.4882,-38.812 L 51.4529,-38.627 L 51.3947,-38.4478 L 51.3145,-38.2774
 L 51.2135,-38.1183 L 51.0934,-37.9732 L 50.9561,-37.8442 L 50.8037,-37.7335 L 50.6387,-37.6428 L 50.4635,-37.5734
 L 50.2811,-37.5266 L 50.0942,-37.503 z
" stroke="black" fill="lightgray" stroke-width="0.5"/>
</svg>
