  0
SECTION
  2
BLOCKS
  0
ENDSEC
  0
SECTION
  2
ENTITIES
  0
LINE
  8
0
 10
64.5
 20
284
 11
64.4606
 21
284.627
  0
LINE
  8
0
 10
64.4606
 20
284.627
 11
64.3429
 21
285.243
  0
LINE
  8
0
 10
64.3429
 20
285.243
 11
64.1489
 21
285.841
  0
LINE
  8
0
 10
64.1489
 20
285.841
 11
63.8815
 21
286.409
  0
LINE
  8
0
 10
63.8815
 20
286.409
 11
63.5451
 21
286.939
  0
LINE
  8
0
 10
63.5451
 20
286.939
 11
63.1448
 21
287.423
  0
LINE
  8
0
 10
63.1448
 20
287.423
 11
62.6871
 21
287.853
  0
LINE
  8
0
 10
62.6871
 20
287.853
 11
62.1791
 21
288.222
  0
LINE
  8
0
 10
62.1791
 20
288.222
 11
61.6289
 21
288.524
  0
LINE
  8
0
 10
61.6289
 20
288.524
 11
61.0451
 21
288.755
  0
LINE
  8
0
 10
61.0451
 20
288.755
 11
60.4369
 21
288.911
  0
LINE
  8
0
 10
60.4369
 20
288.911
 11
59.8139
 21
288.99
  0
LINE
  8
0
 10
59.8139
 20
288.99
 11
40.186
 21
288.99
  0
LINE
  8
0
 10
40.186
 20
288.99
 11
39.5631
 21
288.911
  0
LINE
  8
0
 10
39.5631
 20
288.911
 11
38.9549
 21
288.755
  0
LINE
  8
0
 10
38.9549
 20
288.755
 11
38.3711
 21
288.524
  0
LINE
  8
0
 10
38.3711
 20
288.524
 11
37.8209
 21
288.222
  0
LINE
  8
0
 10
37.8209
 20
288.222
 11
37.3129
 21
287.853
  0
LINE
  8
0
 10
37.3129
 20
287.853
 11
36.8551
 21
287.423
  0
LINE
  8
0
 10
36.8551
 20
287.423
 11
36.4549
 21
286.939
  0
LINE
  8
0
 10
36.4549
 20
286.939
 11
36.1185
 21
286.409
  0
LINE
  8
0
 10
36.1185
 20
286.409
 11
35.8511
 21
285.841
  0
LINE
  8
0
 10
35.8511
 20
285.841
 11
35.6571
 21
285.243
  0
LINE
  8
0
 10
35.6571
 20
285.243
 11
35.5394
 21
284.627
  0
LINE
  8
0
 10
35.5394
 20
284.627
 11
35.5
 21
284
  0
LINE
  8
0
 10
35.5
 20
284
 11
35.5
 21
270.162
  0
LINE
  8
0
 10
35.5
 20
270.162
 11
64.5
 21
270.162
  0
LINE
  8
0
 10
64.5
 20
270.162
 11
64.5
 21
284
  0
LINE
  8
0
 10
42.3116
 20
279.006
 11
41.9379
 21
279.053
  0
LINE
  8
0
 10
41.9379
 20
279.053
 11
41.5729
 21
279.147
  0
LINE
  8
0
 10
41.5729
 20
279.147
 11
41.2227
 21
279.286
  0
LINE
  8
0
 10
41.2227
 20
279.286
 11
40.8925
 21
279.467
  0
LINE
  8
0
 10
40.8925
 20
279.467
 11
40.5877
 21
279.688
  0
LINE
  8
0
 10
40.5877
 20
279.688
 11
40.3131
 21
279.946
  0
LINE
  8
0
 10
40.3131
 20
279.946
 11
40.0729
 21
280.237
  0
LINE
  8
0
 10
40.0729
 20
280.237
 11
39.8711
 21
280.555
  0
LINE
  8
0
 10
39.8711
 20
280.555
 11
39.7107
 21
280.896
  0
LINE
  8
0
 10
39.7107
 20
280.896
 11
39.5942
 21
281.254
  0
LINE
  8
0
 10
39.5942
 20
281.254
 11
39.5237
 21
281.624
  0
LINE
  8
0
 10
39.5237
 20
281.624
 11
39.5
 21
282
  0
LINE
  8
0
 10
39.5
 20
282
 11
39.5237
 21
282.376
  0
LINE
  8
0
 10
39.5237
 20
282.376
 11
39.5942
 21
282.746
  0
LINE
  8
0
 10
39.5942
 20
282.746
 11
39.7107
 21
283.104
  0
LINE
  8
0
 10
39.7107
 20
283.104
 11
39.8711
 21
283.445
  0
LINE
  8
0
 10
39.8711
 20
283.445
 11
40.0729
 21
283.763
  0
LINE
  8
0
 10
40.0729
 20
283.763
 11
40.3131
 21
284.054
  0
LINE
  8
0
 10
40.3131
 20
284.054
 11
40.5877
 21
284.312
  0
LINE
  8
0
 10
40.5877
 20
284.312
 11
40.8925
 21
284.533
  0
LINE
  8
0
 10
40.8925
 20
284.533
 11
41.2227
 21
284.714
  0
LINE
  8
0
 10
41.2227
 20
284.714
 11
41.5729
 21
284.853
  0
LINE
  8
0
 10
41.5729
 20
284.853
 11
41.9379
 21
284.947
  0
LINE
  8
0
 10
41.9379
 20
284.947
 11
42.3116
 21
284.994
  0
LINE
  8
0
 10
42.3116
 20
284.994
 11
42.6884
 21
284.994
  0
LINE
  8
0
 10
42.6884
 20
284.994
 11
43.0621
 21
284.947
  0
LINE
  8
0
 10
43.0621
 20
284.947
 11
43.427
 21
284.853
  0
LINE
  8
0
 10
43.427
 20
284.853
 11
43.7773
 21
284.714
  0
LINE
  8
0
 10
43.7773
 20
284.714
 11
44.1075
 21
284.533
  0
LINE
  8
0
 10
44.1075
 20
284.533
 11
44.4123
 21
284.312
  0
LINE
  8
0
 10
44.4123
 20
284.312
 11
44.6869
 21
284.054
  0
LINE
  8
0
 10
44.6869
 20
284.054
 11
44.927
 21
283.763
  0
LINE
  8
0
 10
44.927
 20
283.763
 11
45.1289
 21
283.445
  0
LINE
  8
0
 10
45.1289
 20
283.445
 11
45.2893
 21
283.104
  0
LINE
  8
0
 10
45.2893
 20
283.104
 11
45.4057
 21
282.746
  0
LINE
  8
0
 10
45.4057
 20
282.746
 11
45.4763
 21
282.376
  0
LINE
  8
0
 10
45.4763
 20
282.376
 11
45.5
 21
282
  0
LINE
  8
0
 10
45.5
 20
282
 11
45.4763
 21
281.624
  0
LINE
  8
0
 10
45.4763
 20
281.624
 11
45.4057
 21
281.254
  0
LINE
  8
0
 10
45.4057
 20
281.254
 11
45.2893
 21
280.896
  0
LINE
  8
0
 10
45.2893
 20
280.896
 11
45.1289
 21
280.555
  0
LINE
  8
0
 10
45.1289
 20
280.555
 11
44.927
 21
280.237
  0
LINE
  8
0
 10
44.927
 20
280.237
 11
44.6869
 21
279.946
  0
LINE
  8
0
 10
44.6869
 20
279.946
 11
44.4123
 21
279.688
  0
LINE
  8
0
 10
44.4123
 20
279.688
 11
44.1075
 21
279.467
  0
LINE
  8
0
 10
44.1075
 20
279.467
 11
43.7773
 21
279.286
  0
LINE
  8
0
 10
43.7773
 20
279.286
 11
43.427
 21
279.147
  0
LINE
  8
0
 10
43.427
 20
279.147
 11
43.0621
 21
279.053
  0
LINE
  8
0
 10
43.0621
 20
279.053
 11
42.6884
 21
279.006
  0
LINE
  8
0
 10
42.6884
 20
279.006
 11
42.3116
 21
279.006
  0
LINE
  8
0
 10
57.3116
 20
279.006
 11
56.9379
 21
279.053
  0
LINE
  8
0
 10
56.9379
 20
279.053
 11
56.5729
 21
279.147
  0
LINE
  8
0
 10
56.5729
 20
279.147
 11
56.2227
 21
279.286
  0
LINE
  8
0
 10
56.2227
 20
279.286
 11
55.8925
 21
279.467
  0
LINE
  8
0
 10
55.8925
 20
279.467
 11
55.5877
 21
279.688
  0
LINE
  8
0
 10
55.5877
 20
279.688
 11
55.3131
 21
279.946
  0
LINE
  8
0
 10
55.3131
 20
279.946
 11
55.0729
 21
280.237
  0
LINE
  8
0
 10
55.0729
 20
280.237
 11
54.8711
 21
280.555
  0
LINE
  8
0
 10
54.8711
 20
280.555
 11
54.7107
 21
280.896
  0
LINE
  8
0
 10
54.7107
 20
280.896
 11
54.5942
 21
281.254
  0
LINE
  8
0
 10
54.5942
 20
281.254
 11
54.5237
 21
281.624
  0
LINE
  8
0
 10
54.5237
 20
281.624
 11
54.5
 21
282
  0
LINE
  8
0
 10
54.5
 20
282
 11
54.5237
 21
282.376
  0
LINE
  8
0
 10
54.5237
 20
282.376
 11
54.5942
 21
282.746
  0
LINE
  8
0
 10
54.5942
 20
282.746
 11
54.7107
 21
283.104
  0
LINE
  8
0
 10
54.7107
 20
283.104
 11
54.8711
 21
283.445
  0
LINE
  8
0
 10
54.8711
 20
283.445
 11
55.0729
 21
283.763
  0
LINE
  8
0
 10
55.0729
 20
283.763
 11
55.3131
 21
284.054
  0
LINE
  8
0
 10
55.3131
 20
284.054
 11
55.5877
 21
284.312
  0
LINE
  8
0
 10
55.5877
 20
284.312
 11
55.8925
 21
284.533
  0
LINE
  8
0
 10
55.8925
 20
284.533
 11
56.2227
 21
284.714
  0
LINE
  8
0
 10
56.2227
 20
284.714
 11
56.5729
 21
284.853
  0
LINE
  8
0
 10
56.5729
 20
284.853
 11
56.9379
 21
284.947
  0
LINE
  8
0
 10
56.9379
 20
284.947
 11
57.3116
 21
284.994
  0
LINE
  8
0
 10
57.3116
 20
284.994
 11
57.6884
 21
284.994
  0
LINE
  8
0
 10
57.6884
 20
284.994
 11
58.0621
 21
284.947
  0
LINE
  8
0
 10
58.0621
 20
284.947
 11
58.427
 21
284.853
  0
LINE
  8
0
 10
58.427
 20
284.853
 11
58.7773
 21
284.714
  0
LINE
  8
0
 10
58.7773
 20
284.714
 11
59.1075
 21
284.533
  0
LINE
  8
0
 10
59.1075
 20
284.533
 11
59.4123
 21
284.312
  0
LINE
  8
0
 10
59.4123
 20
284.312
 11
59.6869
 21
284.054
  0
LINE
  8
0
 10
59.6869
 20
284.054
 11
59.927
 21
283.763
  0
LINE
  8
0
 10
59.927
 20
283.763
 11
60.1289
 21
283.445
  0
LINE
  8
0
 10
60.1289
 20
283.445
 11
60.2893
 21
283.104
  0
LINE
  8
0
 10
60.2893
 20
283.104
 11
60.4057
 21
282.746
  0
LINE
  8
0
 10
60.4057
 20
282.746
 11
60.4763
 21
282.376
  0
LINE
  8
0
 10
60.4763
 20
282.376
 11
60.5
 21
282
  0
LINE
  8
0
 10
60.5
 20
282
 11
60.4763
 21
281.624
  0
LINE
  8
0
 10
60.4763
 20
281.624
 11
60.4057
 21
281.254
  0
LINE
  8
0
 10
60.4057
 20
281.254
 11
60.2893
 21
280.896
  0
LINE
  8
0
 10
60.2893
 20
280.896
 11
60.1289
 21
280.555
  0
LINE
  8
0
 10
60.1289
 20
280.555
 11
59.927
 21
280.237
  0
LINE
  8
0
 10
59.927
 20
280.237
 11
59.6869
 21
279.946
  0
LINE
  8
0
 10
59.6869
 20
279.946
 11
59.4123
 21
279.688
  0
LINE
  8
0
 10
59.4123
 20
279.688
 11
59.1075
 21
279.467
  0
LINE
  8
0
 10
59.1075
 20
279.467
 11
58.7773
 21
279.286
  0
LINE
  8
0
 10
58.7773
 20
279.286
 11
58.427
 21
279.147
  0
LINE
  8
0
 10
58.427
 20
279.147
 11
58.0621
 21
279.053
  0
LINE
  8
0
 10
58.0621
 20
279.053
 11
57.6884
 21
279.006
  0
LINE
  8
0
 10
57.6884
 20
279.006
 11
57.3116
 21
279.006
  0
LINE
  8
0
 10
49.9058
 20
280.503
 11
49.7189
 21
280.527
  0
LINE
  8
0
 10
49.7189
 20
280.527
 11
49.5365
 21
280.573
  0
LINE
  8
0
 10
49.5365
 20
280.573
 11
49.3613
 21
280.643
  0
LINE
  8
0
 10
49.3613
 20
280.643
 11
49.1963
 21
280.734
  0
LINE
  8
0
 10
49.1963
 20
280.734
 11
49.0439
 21
280.844
  0
LINE
  8
0
 10
49.0439
 20
280.844
 11
48.9065
 21
280.973
  0
LINE
  8
0
 10
48.9065
 20
280.973
 11
48.7865
 21
281.118
  0
LINE
  8
0
 10
48.7865
 20
281.118
 11
48.6855
 21
281.277
  0
LINE
  8
0
 10
48.6855
 20
281.277
 11
48.6053
 21
281.448
  0
LINE
  8
0
 10
48.6053
 20
281.448
 11
48.5471
 21
281.627
  0
LINE
  8
0
 10
48.5471
 20
281.627
 11
48.5118
 21
281.812
  0
LINE
  8
0
 10
48.5118
 20
281.812
 11
48.5
 21
282
  0
LINE
  8
0
 10
48.5
 20
282
 11
48.5118
 21
282.188
  0
LINE
  8
0
 10
48.5118
 20
282.188
 11
48.5471
 21
282.373
  0
LINE
  8
0
 10
48.5471
 20
282.373
 11
48.6053
 21
282.552
  0
LINE
  8
0
 10
48.6053
 20
282.552
 11
48.6855
 21
282.723
  0
LINE
  8
0
 10
48.6855
 20
282.723
 11
48.7865
 21
282.882
  0
LINE
  8
0
 10
48.7865
 20
282.882
 11
48.9065
 21
283.027
  0
LINE
  8
0
 10
48.9065
 20
283.027
 11
49.0439
 21
283.156
  0
LINE
  8
0
 10
49.0439
 20
283.156
 11
49.1963
 21
283.266
  0
LINE
  8
0
 10
49.1963
 20
283.266
 11
49.3613
 21
283.357
  0
LINE
  8
0
 10
49.3613
 20
283.357
 11
49.5365
 21
283.427
  0
LINE
  8
0
 10
49.5365
 20
283.427
 11
49.7189
 21
283.473
  0
LINE
  8
0
 10
49.7189
 20
283.473
 11
49.9058
 21
283.497
  0
LINE
  8
0
 10
49.9058
 20
283.497
 11
50.0942
 21
283.497
  0
LINE
  8
0
 10
50.0942
 20
283.497
 11
50.2811
 21
283.473
  0
LINE
  8
0
 10
50.2811
 20
283.473
 11
50.4635
 21
283.427
  0
LINE
  8
0
 10
50.4635
 20
283.427
 11
50.6387
 21
283.357
  0
LINE
  8
0
 10
50.6387
 20
283.357
 11
50.8037
 21
283.266
  0
LINE
  8
0
 10
50.8037
 20
283.266
 11
50.9561
 21
283.156
  0
LINE
  8
0
 10
50.9561
 20
283.156
 11
51.0934
 21
283.027
  0
LINE
  8
0
 10
51.0934
 20
283.027
 11
51.2135
 21
282.882
  0
LINE
  8
0
 10
51.2135
 20
282.882
 11
51.3145
 21
282.723
  0
LINE
  8
0
 10
51.3145
 20
282.723
 11
51.3947
 21
282.552
  0
LINE
  8
0
 10
51.3947
 20
282.552
 11
51.4529
 21
282.373
  0
LINE
  8
0
 10
51.4529
 20
282.373
 11
51.4882
 21
282.188
  0
LINE
  8
0
 10
51.4882
 20
282.188
 11
51.5
 21
282
  0
LINE
  8
0
 10
51.5
 20
282
 11
51.4882
 21
281.812
  0
LINE
  8
0
 10
51.4882
 20
281.812
 11
51.4529
 21
281.627
  0
LINE
  8
0
 10
51.4529
 20
281.627
 11
51.3947
 21
281.448
  0
LINE
  8
0
 10
51.3947
 20
281.448
 11
51.3145
 21
281.277
  0
LINE
  8
0
 10
51.3145
 20
281.277
 11
51.2135
 21
281.118
  0
LINE
  8
0
 10
51.2135
 20
281.118
 11
51.0934
 21
280.973
  0
LINE
  8
0
 10
51.0934
 20
280.973
 11
50.9561
 21
280.844
  0
LINE
  8
0
 10
50.9561
 20
280.844
 11
50.8037
 21
280.734
  0
LINE
  8
0
 10
50.8037
 20
280.734
 11
50.6387
 21
280.643
  0
LINE
  8
0
 10
50.6387
 20
280.643
 11
50.4635
 21
280.573
  0
LINE
  8
0
 10
50.4635
 20
280.573
 11
50.2811
 21
280.527
  0
LINE
  8
0
 10
50.2811
 20
280.527
 11
50.0942
 21
280.503
  0
LINE
  8
0
 10
50.0942
 20
280.503
 11
49.9058
 21
280.503
  0
LINE
  8
0
 10
49.887
 20
272.704
 11
49.6627
 21
272.732
  0
LINE
  8
0
 10
49.6627
 20
272.732
 11
49.4438
 21
272.788
  0
LINE
  8
0
 10
49.4438
 20
272.788
 11
49.2336
 21
272.871
  0
LINE
  8
0
 10
49.2336
 20
272.871
 11
49.0355
 21
272.98
  0
LINE
  8
0
 10
49.0355
 20
272.98
 11
48.8526
 21
273.113
  0
LINE
  8
0
 10
48.8526
 20
273.113
 11
48.6879
 21
273.268
  0
LINE
  8
0
 10
48.6879
 20
273.268
 11
48.5438
 21
273.442
  0
LINE
  8
0
 10
48.5438
 20
273.442
 11
48.4226
 21
273.633
  0
LINE
  8
0
 10
48.4226
 20
273.633
 11
48.3264
 21
273.837
  0
LINE
  8
0
 10
48.3264
 20
273.837
 11
48.2565
 21
274.052
  0
LINE
  8
0
 10
48.2565
 20
274.052
 11
48.2142
 21
274.274
  0
LINE
  8
0
 10
48.2142
 20
274.274
 11
48.2
 21
274.5
  0
LINE
  8
0
 10
48.2
 20
274.5
 11
48.2142
 21
274.726
  0
LINE
  8
0
 10
48.2142
 20
274.726
 11
48.2565
 21
274.948
  0
LINE
  8
0
 10
48.2565
 20
274.948
 11
48.3264
 21
275.163
  0
LINE
  8
0
 10
48.3264
 20
275.163
 11
48.4226
 21
275.367
  0
LINE
  8
0
 10
48.4226
 20
275.367
 11
48.5438
 21
275.558
  0
LINE
  8
0
 10
48.5438
 20
275.558
 11
48.6879
 21
275.732
  0
LINE
  8
0
 10
48.6879
 20
275.732
 11
48.8526
 21
275.887
  0
LINE
  8
0
 10
48.8526
 20
275.887
 11
49.0355
 21
276.02
  0
LINE
  8
0
 10
49.0355
 20
276.02
 11
49.2336
 21
276.129
  0
LINE
  8
0
 10
49.2336
 20
276.129
 11
49.4438
 21
276.212
  0
LINE
  8
0
 10
49.4438
 20
276.212
 11
49.6627
 21
276.268
  0
LINE
  8
0
 10
49.6627
 20
276.268
 11
49.887
 21
276.296
  0
LINE
  8
0
 10
49.887
 20
276.296
 11
50.113
 21
276.296
  0
LINE
  8
0
 10
50.113
 20
276.296
 11
50.3373
 21
276.268
  0
LINE
  8
0
 10
50.3373
 20
276.268
 11
50.5562
 21
276.212
  0
LINE
  8
0
 10
50.5562
 20
276.212
 11
50.7664
 21
276.129
  0
LINE
  8
0
 10
50.7664
 20
276.129
 11
50.9645
 21
276.02
  0
LINE
  8
0
 10
50.9645
 20
276.02
 11
51.1474
 21
275.887
  0
LINE
  8
0
 10
51.1474
 20
275.887
 11
51.3121
 21
275.732
  0
LINE
  8
0
 10
51.3121
 20
275.732
 11
51.4562
 21
275.558
  0
LINE
  8
0
 10
51.4562
 20
275.558
 11
51.5773
 21
275.367
  0
LINE
  8
0
 10
51.5773
 20
275.367
 11
51.6736
 21
275.163
  0
LINE
  8
0
 10
51.6736
 20
275.163
 11
51.7434
 21
274.948
  0
LINE
  8
0
 10
51.7434
 20
274.948
 11
51.7858
 21
274.726
  0
LINE
  8
0
 10
51.7858
 20
274.726
 11
51.8
 21
274.5
  0
LINE
  8
0
 10
51.8
 20
274.5
 11
51.7858
 21
274.274
  0
LINE
  8
0
 10
51.7858
 20
274.274
 11
51.7434
 21
274.052
  0
LINE
  8
0
 10
51.7434
 20
274.052
 11
51.6736
 21
273.837
  0
LINE
  8
0
 10
51.6736
 20
273.837
 11
51.5773
 21
273.633
  0
LINE
  8
0
 10
51.5773
 20
273.633
 11
51.4562
 21
273.442
  0
LINE
  8
0
 10
51.4562
 20
273.442
 11
51.3121
 21
273.268
  0
LINE
  8
0
 10
51.3121
 20
273.268
 11
51.1474
 21
273.113
  0
LINE
  8
0
 10
51.1474
 20
273.113
 11
50.9645
 21
272.98
  0
LINE
  8
0
 10
50.9645
 20
272.98
 11
50.7664
 21
272.871
  0
LINE
  8
0
 10
50.7664
 20
272.871
 11
50.5562
 21
272.788
  0
LINE
  8
0
 10
50.5562
 20
272.788
 11
50.3373
 21
272.732
  0
LINE
  8
0
 10
50.3373
 20
272.732
 11
50.113
 21
272.704
  0
LINE
  8
0
 10
50.113
 20
272.704
 11
49.887
 21
272.704
  0
LINE
  8
0
 10
57.4058
 20
273.003
 11
57.2189
 21
273.027
  0
LINE
  8
0
 10
57.2189
 20
273.027
 11
57.0365
 21
273.073
  0
LINE
  8
0
 10
57.0365
 20
273.073
 11
56.8613
 21
273.143
  0
LINE
  8
0
 10
56.8613
 20
273.143
 11
56.6963
 21
273.234
  0
LINE
  8
0
 10
56.6963
 20
273.234
 11
56.5439
 21
273.344
  0
LINE
  8
0
 10
56.5439
 20
273.344
 11
56.4065
 21
273.473
  0
LINE
  8
0
 10
56.4065
 20
273.473
 11
56.2865
 21
273.618
  0
LINE
  8
0
 10
56.2865
 20
273.618
 11
56.1855
 21
273.777
  0
LINE
  8
0
 10
56.1855
 20
273.777
 11
56.1053
 21
273.948
  0
LINE
  8
0
 10
56.1053
 20
273.948
 11
56.0471
 21
274.127
  0
LINE
  8
0
 10
56.0471
 20
274.127
 11
56.0118
 21
274.312
  0
LINE
  8
0
 10
56.0118
 20
274.312
 11
56
 21
274.5
  0
LINE
  8
0
 10
56
 20
274.5
 11
56.0118
 21
274.688
  0
LINE
  8
0
 10
56.0118
 20
274.688
 11
56.0471
 21
274.873
  0
LINE
  8
0
 10
56.0471
 20
274.873
 11
56.1053
 21
275.052
  0
LINE
  8
0
 10
56.1053
 20
275.052
 11
56.1855
 21
275.223
  0
LINE
  8
0
 10
56.1855
 20
275.223
 11
56.2865
 21
275.382
  0
LINE
  8
0
 10
56.2865
 20
275.382
 11
56.4065
 21
275.527
  0
LINE
  8
0
 10
56.4065
 20
275.527
 11
56.5439
 21
275.656
  0
LINE
  8
0
 10
56.5439
 20
275.656
 11
56.6963
 21
275.766
  0
LINE
  8
0
 10
56.6963
 20
275.766
 11
56.8613
 21
275.857
  0
LINE
  8
0
 10
56.8613
 20
275.857
 11
57.0365
 21
275.927
  0
LINE
  8
0
 10
57.0365
 20
275.927
 11
57.2189
 21
275.973
  0
LINE
  8
0
 10
57.2189
 20
275.973
 11
57.4058
 21
275.997
  0
LINE
  8
0
 10
57.4058
 20
275.997
 11
57.5942
 21
275.997
  0
LINE
  8
0
 10
57.5942
 20
275.997
 11
57.7811
 21
275.973
  0
LINE
  8
0
 10
57.7811
 20
275.973
 11
57.9635
 21
275.927
  0
LINE
  8
0
 10
57.9635
 20
275.927
 11
58.1387
 21
275.857
  0
LINE
  8
0
 10
58.1387
 20
275.857
 11
58.3037
 21
275.766
  0
LINE
  8
0
 10
58.3037
 20
275.766
 11
58.4561
 21
275.656
  0
LINE
  8
0
 10
58.4561
 20
275.656
 11
58.5934
 21
275.527
  0
LINE
  8
0
 10
58.5934
 20
275.527
 11
58.7135
 21
275.382
  0
LINE
  8
0
 10
58.7135
 20
275.382
 11
58.8145
 21
275.223
  0
LINE
  8
0
 10
58.8145
 20
275.223
 11
58.8947
 21
275.052
  0
LINE
  8
0
 10
58.8947
 20
275.052
 11
58.9529
 21
274.873
  0
LINE
  8
0
 10
58.9529
 20
274.873
 11
58.9882
 21
274.688
  0
LINE
  8
0
 10
58.9882
 20
274.688
 11
59
 21
274.5
  0
LINE
  8
0
 10
59
 20
274.5
 11
58.9882
 21
274.312
  0
LINE
  8
0
 10
58.9882
 20
274.312
 11
58.9529
 21
274.127
  0
LINE
  8
0
 10
58.9529
 20
274.127
 11
58.8947
 21
273.948
  0
LINE
  8
0
 10
58.8947
 20
273.948
 11
58.8145
 21
273.777
  0
LINE
  8
0
 10
58.8145
 20
273.777
 11
58.7135
 21
273.618
  0
LINE
  8
0
 10
58.7135
 20
273.618
 11
58.5934
 21
273.473
  0
LINE
  8
0
 10
58.5934
 20
273.473
 11
58.4561
 21
273.344
  0
LINE
  8
0
 10
58.4561
 20
273.344
 11
58.3037
 21
273.234
  0
LINE
  8
0
 10
58.3037
 20
273.234
 11
58.1387
 21
273.143
  0
LINE
  8
0
 10
58.1387
 20
273.143
 11
57.9635
 21
273.073
  0
LINE
  8
0
 10
57.9635
 20
273.073
 11
57.7811
 21
273.027
  0
LINE
  8
0
 10
57.7811
 20
273.027
 11
57.5942
 21
273.003
  0
LINE
  8
0
 10
57.5942
 20
273.003
 11
57.4058
 21
273.003
  0
LINE
  8
0
 10
42.4058
 20
273.003
 11
42.2189
 21
273.027
  0
LINE
  8
0
 10
42.2189
 20
273.027
 11
42.0365
 21
273.073
  0
LINE
  8
0
 10
42.0365
 20
273.073
 11
41.8613
 21
273.143
  0
LINE
  8
0
 10
41.8613
 20
273.143
 11
41.6963
 21
273.234
  0
LINE
  8
0
 10
41.6963
 20
273.234
 11
41.5439
 21
273.344
  0
LINE
  8
0
 10
41.5439
 20
273.344
 11
41.4065
 21
273.473
  0
LINE
  8
0
 10
41.4065
 20
273.473
 11
41.2865
 21
273.618
  0
LINE
  8
0
 10
41.2865
 20
273.618
 11
41.1855
 21
273.777
  0
LINE
  8
0
 10
41.1855
 20
273.777
 11
41.1053
 21
273.948
  0
LINE
  8
0
 10
41.1053
 20
273.948
 11
41.0471
 21
274.127
  0
LINE
  8
0
 10
41.0471
 20
274.127
 11
41.0118
 21
274.312
  0
LINE
  8
0
 10
41.0118
 20
274.312
 11
41
 21
274.5
  0
LINE
  8
0
 10
41
 20
274.5
 11
41.0118
 21
274.688
  0
LINE
  8
0
 10
41.0118
 20
274.688
 11
41.0471
 21
274.873
  0
LINE
  8
0
 10
41.0471
 20
274.873
 11
41.1053
 21
275.052
  0
LINE
  8
0
 10
41.1053
 20
275.052
 11
41.1855
 21
275.223
  0
LINE
  8
0
 10
41.1855
 20
275.223
 11
41.2865
 21
275.382
  0
LINE
  8
0
 10
41.2865
 20
275.382
 11
41.4065
 21
275.527
  0
LINE
  8
0
 10
41.4065
 20
275.527
 11
41.5439
 21
275.656
  0
LINE
  8
0
 10
41.5439
 20
275.656
 11
41.6963
 21
275.766
  0
LINE
  8
0
 10
41.6963
 20
275.766
 11
41.8613
 21
275.857
  0
LINE
  8
0
 10
41.8613
 20
275.857
 11
42.0365
 21
275.927
  0
LINE
  8
0
 10
42.0365
 20
275.927
 11
42.2189
 21
275.973
  0
LINE
  8
0
 10
42.2189
 20
275.973
 11
42.4058
 21
275.997
  0
LINE
  8
0
 10
42.4058
 20
275.997
 11
42.5942
 21
275.997
  0
LINE
  8
0
 10
42.5942
 20
275.997
 11
42.7811
 21
275.973
  0
LINE
  8
0
 10
42.7811
 20
275.973
 11
42.9635
 21
275.927
  0
LINE
  8
0
 10
42.9635
 20
275.927
 11
43.1387
 21
275.857
  0
LINE
  8
0
 10
43.1387
 20
275.857
 11
43.3037
 21
275.766
  0
LINE
  8
0
 10
43.3037
 20
275.766
 11
43.4561
 21
275.656
  0
LINE
  8
0
 10
43.4561
 20
275.656
 11
43.5934
 21
275.527
  0
LINE
  8
0
 10
43.5934
 20
275.527
 11
43.7135
 21
275.382
  0
LINE
  8
0
 10
43.7135
 20
275.382
 11
43.8145
 21
275.223
  0
LINE
  8
0
 10
43.8145
 20
275.223
 11
43.8947
 21
275.052
  0
LINE
  8
0
 10
43.8947
 20
275.052
 11
43.9529
 21
274.873
  0
LINE
  8
0
 10
43.9529
 20
274.873
 11
43.9882
 21
274.688
  0
LINE
  8
0
 10
43.9882
 20
274.688
 11
44
 21
274.5
  0
LINE
  8
0
 10
44
 20
274.5
 11
43.9882
 21
274.312
  0
LINE
  8
0
 10
43.9882
 20
274.312
 11
43.9529
 21
274.127
  0
LINE
  8
0
 10
43.9529
 20
274.127
 11
43.8947
 21
273.948
  0
LINE
  8
0
 10
43.8947
 20
273.948
 11
43.8145
 21
273.777
  0
LINE
  8
0
 10
43.8145
 20
273.777
 11
43.7135
 21
273.618
  0
LINE
  8
0
 10
43.7135
 20
273.618
 11
43.5934
 21
273.473
  0
LINE
  8
0
 10
43.5934
 20
273.473
 11
43.4561
 21
273.344
  0
LINE
  8
0
 10
43.4561
 20
273.344
 11
43.3037
 21
273.234
  0
LINE
  8
0
 10
43.3037
 20
273.234
 11
43.1387
 21
273.143
  0
LINE
  8
0
 10
43.1387
 20
273.143
 11
42.9635
 21
273.073
  0
LINE
  8
0
 10
42.9635
 20
273.073
 11
42.7811
 21
273.027
  0
LINE
  8
0
 10
42.7811
 20
273.027
 11
42.5942
 21
273.003
  0
LINE
  8
0
 10
42.5942
 20
273.003
 11
42.4058
 21
273.003
  0
LINE
  8
0
 10
14.5
 20
284
 11
14.4606
 21
284.627
  0
LINE
  8
0
 10
14.4606
 20
284.627
 11
14.3429
 21
285.243
  0
LINE
  8
0
 10
14.3429
 20
285.243
 11
14.1489
 21
285.841
  0
LINE
  8
0
 10
14.1489
 20
285.841
 11
13.8815
 21
286.409
  0
LINE
  8
0
 10
13.8815
 20
286.409
 11
13.5451
 21
286.939
  0
LINE
  8
0
 10
13.5451
 20
286.939
 11
13.1448
 21
287.423
  0
LINE
  8
0
 10
13.1448
 20
287.423
 11
12.6871
 21
287.853
  0
LINE
  8
0
 10
12.6871
 20
287.853
 11
12.1791
 21
288.222
  0
LINE
  8
0
 10
12.1791
 20
288.222
 11
11.6289
 21
288.524
  0
LINE
  8
0
 10
11.6289
 20
288.524
 11
11.0451
 21
288.755
  0
LINE
  8
0
 10
11.0451
 20
288.755
 11
10.4369
 21
288.911
  0
LINE
  8
0
 10
10.4369
 20
288.911
 11
9.81395
 21
288.99
  0
LINE
  8
0
 10
9.81395
 20
288.99
 11
-9.81395
 21
288.99
  0
LINE
  8
0
 10
-9.81395
 20
288.99
 11
-10.4369
 21
288.911
  0
LINE
  8
0
 10
-10.4369
 20
288.911
 11
-11.0451
 21
288.755
  0
LINE
  8
0
 10
-11.0451
 20
288.755
 11
-11.6289
 21
288.524
  0
LINE
  8
0
 10
-11.6289
 20
288.524
 11
-12.1791
 21
288.222
  0
LINE
  8
0
 10
-12.1791
 20
288.222
 11
-12.6871
 21
287.853
  0
LINE
  8
0
 10
-12.6871
 20
287.853
 11
-13.1448
 21
287.423
  0
LINE
  8
0
 10
-13.1448
 20
287.423
 11
-13.5451
 21
286.939
  0
LINE
  8
0
 10
-13.5451
 20
286.939
 11
-13.8815
 21
286.409
  0
LINE
  8
0
 10
-13.8815
 20
286.409
 11
-14.1489
 21
285.841
  0
LINE
  8
0
 10
-14.1489
 20
285.841
 11
-14.3429
 21
285.243
  0
LINE
  8
0
 10
-14.3429
 20
285.243
 11
-14.4606
 21
284.627
  0
LINE
  8
0
 10
-14.4606
 20
284.627
 11
-14.5
 21
284
  0
LINE
  8
0
 10
-14.5
 20
284
 11
-14.5
 21
270.162
  0
LINE
  8
0
 10
-14.5
 20
270.162
 11
14.5
 21
270.162
  0
LINE
  8
0
 10
14.5
 20
270.162
 11
14.5
 21
284
  0
LINE
  8
0
 10
-0.194641
 20
278.906
 11
-0.580872
 21
278.955
  0
LINE
  8
0
 10
-0.580872
 20
278.955
 11
-0.957947
 21
279.052
  0
LINE
  8
0
 10
-0.957947
 20
279.052
 11
-1.3199
 21
279.195
  0
LINE
  8
0
 10
-1.3199
 20
279.195
 11
-1.66106
 21
279.383
  0
LINE
  8
0
 10
-1.66106
 20
279.383
 11
-1.97601
 21
279.611
  0
LINE
  8
0
 10
-1.97601
 20
279.611
 11
-2.2598
 21
279.878
  0
LINE
  8
0
 10
-2.2598
 20
279.878
 11
-2.50795
 21
280.178
  0
LINE
  8
0
 10
-2.50795
 20
280.178
 11
-2.71654
 21
280.507
  0
LINE
  8
0
 10
-2.71654
 20
280.507
 11
-2.88229
 21
280.859
  0
LINE
  8
0
 10
-2.88229
 20
280.859
 11
-3.00259
 21
281.229
  0
LINE
  8
0
 10
-3.00259
 20
281.229
 11
-3.07555
 21
281.611
  0
LINE
  8
0
 10
-3.07555
 20
281.611
 11
-3.09999
 21
282
  0
LINE
  8
0
 10
-3.09999
 20
282
 11
-3.07555
 21
282.389
  0
LINE
  8
0
 10
-3.07555
 20
282.389
 11
-3.00259
 21
282.771
  0
LINE
  8
0
 10
-3.00259
 20
282.771
 11
-2.88229
 21
283.141
  0
LINE
  8
0
 10
-2.88229
 20
283.141
 11
-2.71654
 21
283.493
  0
LINE
  8
0
 10
-2.71654
 20
283.493
 11
-2.50795
 21
283.822
  0
LINE
  8
0
 10
-2.50795
 20
283.822
 11
-2.2598
 21
284.122
  0
LINE
  8
0
 10
-2.2598
 20
284.122
 11
-1.97601
 21
284.389
  0
LINE
  8
0
 10
-1.97601
 20
284.389
 11
-1.66106
 21
284.617
  0
LINE
  8
0
 10
-1.66106
 20
284.617
 11
-1.3199
 21
284.805
  0
LINE
  8
0
 10
-1.3199
 20
284.805
 11
-0.957947
 21
284.948
  0
LINE
  8
0
 10
-0.957947
 20
284.948
 11
-0.580872
 21
285.045
  0
LINE
  8
0
 10
-0.580872
 20
285.045
 11
-0.194641
 21
285.094
  0
LINE
  8
0
 10
-0.194641
 20
285.094
 11
0.194641
 21
285.094
  0
LINE
  8
0
 10
0.194641
 20
285.094
 11
0.580872
 21
285.045
  0
LINE
  8
0
 10
0.580872
 20
285.045
 11
0.957947
 21
284.948
  0
LINE
  8
0
 10
0.957947
 20
284.948
 11
1.3199
 21
284.805
  0
LINE
  8
0
 10
1.3199
 20
284.805
 11
1.66106
 21
284.617
  0
LINE
  8
0
 10
1.66106
 20
284.617
 11
1.97601
 21
284.389
  0
LINE
  8
0
 10
1.97601
 20
284.389
 11
2.2598
 21
284.122
  0
LINE
  8
0
 10
2.2598
 20
284.122
 11
2.50795
 21
283.822
  0
LINE
  8
0
 10
2.50795
 20
283.822
 11
2.71654
 21
283.493
  0
LINE
  8
0
 10
2.71654
 20
283.493
 11
2.88229
 21
283.141
  0
LINE
  8
0
 10
2.88229
 20
283.141
 11
3.00259
 21
282.771
  0
LINE
  8
0
 10
3.00259
 20
282.771
 11
3.07555
 21
282.389
  0
LINE
  8
0
 10
3.07555
 20
282.389
 11
3.09999
 21
282
  0
LINE
  8
0
 10
3.09999
 20
282
 11
3.07555
 21
281.611
  0
LINE
  8
0
 10
3.07555
 20
281.611
 11
3.00259
 21
281.229
  0
LINE
  8
0
 10
3.00259
 20
281.229
 11
2.88229
 21
280.859
  0
LINE
  8
0
 10
2.88229
 20
280.859
 11
2.71654
 21
280.507
  0
LINE
  8
0
 10
2.71654
 20
280.507
 11
2.50795
 21
280.178
  0
LINE
  8
0
 10
2.50795
 20
280.178
 11
2.2598
 21
279.878
  0
LINE
  8
0
 10
2.2598
 20
279.878
 11
1.97601
 21
279.611
  0
LINE
  8
0
 10
1.97601
 20
279.611
 11
1.66106
 21
279.383
  0
LINE
  8
0
 10
1.66106
 20
279.383
 11
1.3199
 21
279.195
  0
LINE
  8
0
 10
1.3199
 20
279.195
 11
0.957947
 21
279.052
  0
LINE
  8
0
 10
0.957947
 20
279.052
 11
0.580872
 21
278.955
  0
LINE
  8
0
 10
0.580872
 20
278.955
 11
0.194641
 21
278.906
  0
LINE
  8
0
 10
0.194641
 20
278.906
 11
-0.194641
 21
278.906
  0
LINE
  8
0
 10
7.31161
 20
279.006
 11
6.93785
 21
279.053
  0
LINE
  8
0
 10
6.93785
 20
279.053
 11
6.57294
 21
279.147
  0
LINE
  8
0
 10
6.57294
 20
279.147
 11
6.22266
 21
279.286
  0
LINE
  8
0
 10
6.22266
 20
279.286
 11
5.89252
 21
279.467
  0
LINE
  8
0
 10
5.89252
 20
279.467
 11
5.58772
 21
279.688
  0
LINE
  8
0
 10
5.58772
 20
279.688
 11
5.31308
 21
279.946
  0
LINE
  8
0
 10
5.31308
 20
279.946
 11
5.07294
 21
280.237
  0
LINE
  8
0
 10
5.07294
 20
280.237
 11
4.87108
 21
280.555
  0
LINE
  8
0
 10
4.87108
 20
280.555
 11
4.71066
 21
280.896
  0
LINE
  8
0
 10
4.71066
 20
280.896
 11
4.59424
 21
281.254
  0
LINE
  8
0
 10
4.59424
 20
281.254
 11
4.52365
 21
281.624
  0
LINE
  8
0
 10
4.52365
 20
281.624
 11
4.5
 21
282
  0
LINE
  8
0
 10
4.5
 20
282
 11
4.52365
 21
282.376
  0
LINE
  8
0
 10
4.52365
 20
282.376
 11
4.59424
 21
282.746
  0
LINE
  8
0
 10
4.59424
 20
282.746
 11
4.71066
 21
283.104
  0
LINE
  8
0
 10
4.71066
 20
283.104
 11
4.87108
 21
283.445
  0
LINE
  8
0
 10
4.87108
 20
283.445
 11
5.07294
 21
283.763
  0
LINE
  8
0
 10
5.07294
 20
283.763
 11
5.31308
 21
284.054
  0
LINE
  8
0
 10
5.31308
 20
284.054
 11
5.58772
 21
284.312
  0
LINE
  8
0
 10
5.58772
 20
284.312
 11
5.89252
 21
284.533
  0
LINE
  8
0
 10
5.89252
 20
284.533
 11
6.22266
 21
284.714
  0
LINE
  8
0
 10
6.22266
 20
284.714
 11
6.57294
 21
284.853
  0
LINE
  8
0
 10
6.57294
 20
284.853
 11
6.93785
 21
284.947
  0
LINE
  8
0
 10
6.93785
 20
284.947
 11
7.31161
 21
284.994
  0
LINE
  8
0
 10
7.31161
 20
284.994
 11
7.68837
 21
284.994
  0
LINE
  8
0
 10
7.68837
 20
284.994
 11
8.06213
 21
284.947
  0
LINE
  8
0
 10
8.06213
 20
284.947
 11
8.42705
 21
284.853
  0
LINE
  8
0
 10
8.42705
 20
284.853
 11
8.77733
 21
284.714
  0
LINE
  8
0
 10
8.77733
 20
284.714
 11
9.10747
 21
284.533
  0
LINE
  8
0
 10
9.10747
 20
284.533
 11
9.41226
 21
284.312
  0
LINE
  8
0
 10
9.41226
 20
284.312
 11
9.6869
 21
284.054
  0
LINE
  8
0
 10
9.6869
 20
284.054
 11
9.92705
 21
283.763
  0
LINE
  8
0
 10
9.92705
 20
283.763
 11
10.1289
 21
283.445
  0
LINE
  8
0
 10
10.1289
 20
283.445
 11
10.2893
 21
283.104
  0
LINE
  8
0
 10
10.2893
 20
283.104
 11
10.4057
 21
282.746
  0
LINE
  8
0
 10
10.4057
 20
282.746
 11
10.4763
 21
282.376
  0
LINE
  8
0
 10
10.4763
 20
282.376
 11
10.5
 21
282
  0
LINE
  8
0
 10
10.5
 20
282
 11
10.4763
 21
281.624
  0
LINE
  8
0
 10
10.4763
 20
281.624
 11
10.4057
 21
281.254
  0
LINE
  8
0
 10
10.4057
 20
281.254
 11
10.2893
 21
280.896
  0
LINE
  8
0
 10
10.2893
 20
280.896
 11
10.1289
 21
280.555
  0
LINE
  8
0
 10
10.1289
 20
280.555
 11
9.92705
 21
280.237
  0
LINE
  8
0
 10
9.92705
 20
280.237
 11
9.6869
 21
279.946
  0
LINE
  8
0
 10
9.6869
 20
279.946
 11
9.41226
 21
279.688
  0
LINE
  8
0
 10
9.41226
 20
279.688
 11
9.10747
 21
279.467
  0
LINE
  8
0
 10
9.10747
 20
279.467
 11
8.77733
 21
279.286
  0
LINE
  8
0
 10
8.77733
 20
279.286
 11
8.42705
 21
279.147
  0
LINE
  8
0
 10
8.42705
 20
279.147
 11
8.06213
 21
279.053
  0
LINE
  8
0
 10
8.06213
 20
279.053
 11
7.68837
 21
279.006
  0
LINE
  8
0
 10
7.68837
 20
279.006
 11
7.31161
 21
279.006
  0
LINE
  8
0
 10
-7.68837
 20
279.006
 11
-8.06213
 21
279.053
  0
LINE
  8
0
 10
-8.06213
 20
279.053
 11
-8.42705
 21
279.147
  0
LINE
  8
0
 10
-8.42705
 20
279.147
 11
-8.77733
 21
279.286
  0
LINE
  8
0
 10
-8.77733
 20
279.286
 11
-9.10747
 21
279.467
  0
LINE
  8
0
 10
-9.10747
 20
279.467
 11
-9.41226
 21
279.688
  0
LINE
  8
0
 10
-9.41226
 20
279.688
 11
-9.6869
 21
279.946
  0
LINE
  8
0
 10
-9.6869
 20
279.946
 11
-9.92705
 21
280.237
  0
LINE
  8
0
 10
-9.92705
 20
280.237
 11
-10.1289
 21
280.555
  0
LINE
  8
0
 10
-10.1289
 20
280.555
 11
-10.2893
 21
280.896
  0
LINE
  8
0
 10
-10.2893
 20
280.896
 11
-10.4057
 21
281.254
  0
LINE
  8
0
 10
-10.4057
 20
281.254
 11
-10.4763
 21
281.624
  0
LINE
  8
0
 10
-10.4763
 20
281.624
 11
-10.5
 21
282
  0
LINE
  8
0
 10
-10.5
 20
282
 11
-10.4763
 21
282.376
  0
LINE
  8
0
 10
-10.4763
 20
282.376
 11
-10.4057
 21
282.746
  0
LINE
  8
0
 10
-10.4057
 20
282.746
 11
-10.2893
 21
283.104
  0
LINE
  8
0
 10
-10.2893
 20
283.104
 11
-10.1289
 21
283.445
  0
LINE
  8
0
 10
-10.1289
 20
283.445
 11
-9.92705
 21
283.763
  0
LINE
  8
0
 10
-9.92705
 20
283.763
 11
-9.6869
 21
284.054
  0
LINE
  8
0
 10
-9.6869
 20
284.054
 11
-9.41226
 21
284.312
  0
LINE
  8
0
 10
-9.41226
 20
284.312
 11
-9.10747
 21
284.533
  0
LINE
  8
0
 10
-9.10747
 20
284.533
 11
-8.77733
 21
284.714
  0
LINE
  8
0
 10
-8.77733
 20
284.714
 11
-8.42705
 21
284.853
  0
LINE
  8
0
 10
-8.42705
 20
284.853
 11
-8.06213
 21
284.947
  0
LINE
  8
0
 10
-8.06213
 20
284.947
 11
-7.68837
 21
284.994
  0
LINE
  8
0
 10
-7.68837
 20
284.994
 11
-7.31161
 21
284.994
  0
LINE
  8
0
 10
-7.31161
 20
284.994
 11
-6.93785
 21
284.947
  0
LINE
  8
0
 10
-6.93785
 20
284.947
 11
-6.57294
 21
284.853
  0
LINE
  8
0
 10
-6.57294
 20
284.853
 11
-6.22266
 21
284.714
  0
LINE
  8
0
 10
-6.22266
 20
284.714
 11
-5.89252
 21
284.533
  0
LINE
  8
0
 10
-5.89252
 20
284.533
 11
-5.58772
 21
284.312
  0
LINE
  8
0
 10
-5.58772
 20
284.312
 11
-5.31308
 21
284.054
  0
LINE
  8
0
 10
-5.31308
 20
284.054
 11
-5.07294
 21
283.763
  0
LINE
  8
0
 10
-5.07294
 20
283.763
 11
-4.87108
 21
283.445
  0
LINE
  8
0
 10
-4.87108
 20
283.445
 11
-4.71066
 21
283.104
  0
LINE
  8
0
 10
-4.71066
 20
283.104
 11
-4.59424
 21
282.746
  0
LINE
  8
0
 10
-4.59424
 20
282.746
 11
-4.52365
 21
282.376
  0
LINE
  8
0
 10
-4.52365
 20
282.376
 11
-4.5
 21
282
  0
LINE
  8
0
 10
-4.5
 20
282
 11
-4.52365
 21
281.624
  0
LINE
  8
0
 10
-4.52365
 20
281.624
 11
-4.59424
 21
281.254
  0
LINE
  8
0
 10
-4.59424
 20
281.254
 11
-4.71066
 21
280.896
  0
LINE
  8
0
 10
-4.71066
 20
280.896
 11
-4.87108
 21
280.555
  0
LINE
  8
0
 10
-4.87108
 20
280.555
 11
-5.07294
 21
280.237
  0
LINE
  8
0
 10
-5.07294
 20
280.237
 11
-5.31308
 21
279.946
  0
LINE
  8
0
 10
-5.31308
 20
279.946
 11
-5.58772
 21
279.688
  0
LINE
  8
0
 10
-5.58772
 20
279.688
 11
-5.89252
 21
279.467
  0
LINE
  8
0
 10
-5.89252
 20
279.467
 11
-6.22266
 21
279.286
  0
LINE
  8
0
 10
-6.22266
 20
279.286
 11
-6.57294
 21
279.147
  0
LINE
  8
0
 10
-6.57294
 20
279.147
 11
-6.93785
 21
279.053
  0
LINE
  8
0
 10
-6.93785
 20
279.053
 11
-7.31161
 21
279.006
  0
LINE
  8
0
 10
-7.31161
 20
279.006
 11
-7.68837
 21
279.006
  0
LINE
  8
0
 10
-0.113022
 20
272.704
 11
-0.33728
 21
272.732
  0
LINE
  8
0
 10
-0.33728
 20
272.732
 11
-0.556229
 21
272.788
  0
LINE
  8
0
 10
-0.556229
 20
272.788
 11
-0.766388
 21
272.871
  0
LINE
  8
0
 10
-0.766388
 20
272.871
 11
-0.964478
 21
272.98
  0
LINE
  8
0
 10
-0.964478
 20
272.98
 11
-1.14735
 21
273.113
  0
LINE
  8
0
 10
-1.14735
 20
273.113
 11
-1.31213
 21
273.268
  0
LINE
  8
0
 10
-1.31213
 20
273.268
 11
-1.45622
 21
273.442
  0
LINE
  8
0
 10
-1.45622
 20
273.442
 11
-1.57735
 21
273.633
  0
LINE
  8
0
 10
-1.57735
 20
273.633
 11
-1.67358
 21
273.837
  0
LINE
  8
0
 10
-1.67358
 20
273.837
 11
-1.74344
 21
274.052
  0
LINE
  8
0
 10
-1.74344
 20
274.052
 11
-1.7858
 21
274.274
  0
LINE
  8
0
 10
-1.7858
 20
274.274
 11
-1.79999
 21
274.5
  0
LINE
  8
0
 10
-1.79999
 20
274.5
 11
-1.7858
 21
274.726
  0
LINE
  8
0
 10
-1.7858
 20
274.726
 11
-1.74344
 21
274.948
  0
LINE
  8
0
 10
-1.74344
 20
274.948
 11
-1.67358
 21
275.163
  0
LINE
  8
0
 10
-1.67358
 20
275.163
 11
-1.57735
 21
275.367
  0
LINE
  8
0
 10
-1.57735
 20
275.367
 11
-1.45622
 21
275.558
  0
LINE
  8
0
 10
-1.45622
 20
275.558
 11
-1.31213
 21
275.732
  0
LINE
  8
0
 10
-1.31213
 20
275.732
 11
-1.14735
 21
275.887
  0
LINE
  8
0
 10
-1.14735
 20
275.887
 11
-0.964478
 21
276.02
  0
LINE
  8
0
 10
-0.964478
 20
276.02
 11
-0.766388
 21
276.129
  0
LINE
  8
0
 10
-0.766388
 20
276.129
 11
-0.556229
 21
276.212
  0
LINE
  8
0
 10
-0.556229
 20
276.212
 11
-0.33728
 21
276.268
  0
LINE
  8
0
 10
-0.33728
 20
276.268
 11
-0.113022
 21
276.296
  0
LINE
  8
0
 10
-0.113022
 20
276.296
 11
0.113022
 21
276.296
  0
LINE
  8
0
 10
0.113022
 20
276.296
 11
0.33728
 21
276.268
  0
LINE
  8
0
 10
0.33728
 20
276.268
 11
0.556229
 21
276.212
  0
LINE
  8
0
 10
0.556229
 20
276.212
 11
0.766388
 21
276.129
  0
LINE
  8
0
 10
0.766388
 20
276.129
 11
0.964478
 21
276.02
  0
LINE
  8
0
 10
0.964478
 20
276.02
 11
1.14735
 21
275.887
  0
LINE
  8
0
 10
1.14735
 20
275.887
 11
1.31213
 21
275.732
  0
LINE
  8
0
 10
1.31213
 20
275.732
 11
1.45622
 21
275.558
  0
LINE
  8
0
 10
1.45622
 20
275.558
 11
1.57735
 21
275.367
  0
LINE
  8
0
 10
1.57735
 20
275.367
 11
1.67358
 21
275.163
  0
LINE
  8
0
 10
1.67358
 20
275.163
 11
1.74344
 21
274.948
  0
LINE
  8
0
 10
1.74344
 20
274.948
 11
1.7858
 21
274.726
  0
LINE
  8
0
 10
1.7858
 20
274.726
 11
1.79999
 21
274.5
  0
LINE
  8
0
 10
1.79999
 20
274.5
 11
1.7858
 21
274.274
  0
LINE
  8
0
 10
1.7858
 20
274.274
 11
1.74344
 21
274.052
  0
LINE
  8
0
 10
1.74344
 20
274.052
 11
1.67358
 21
273.837
  0
LINE
  8
0
 10
1.67358
 20
273.837
 11
1.57735
 21
273.633
  0
LINE
  8
0
 10
1.57735
 20
273.633
 11
1.45622
 21
273.442
  0
LINE
  8
0
 10
1.45622
 20
273.442
 11
1.31213
 21
273.268
  0
LINE
  8
0
 10
1.31213
 20
273.268
 11
1.14735
 21
273.113
  0
LINE
  8
0
 10
1.14735
 20
273.113
 11
0.964478
 21
272.98
  0
LINE
  8
0
 10
0.964478
 20
272.98
 11
0.766388
 21
272.871
  0
LINE
  8
0
 10
0.766388
 20
272.871
 11
0.556229
 21
272.788
  0
LINE
  8
0
 10
0.556229
 20
272.788
 11
0.33728
 21
272.732
  0
LINE
  8
0
 10
0.33728
 20
272.732
 11
0.113022
 21
272.704
  0
LINE
  8
0
 10
0.113022
 20
272.704
 11
-0.113022
 21
272.704
  0
LINE
  8
0
 10
7.40581
 20
273.003
 11
7.21892
 21
273.027
  0
LINE
  8
0
 10
7.21892
 20
273.027
 11
7.03647
 21
273.073
  0
LINE
  8
0
 10
7.03647
 20
273.073
 11
6.86133
 21
273.143
  0
LINE
  8
0
 10
6.86133
 20
273.143
 11
6.69626
 21
273.234
  0
LINE
  8
0
 10
6.69626
 20
273.234
 11
6.54385
 21
273.344
  0
LINE
  8
0
 10
6.54385
 20
273.344
 11
6.40654
 21
273.473
  0
LINE
  8
0
 10
6.40654
 20
273.473
 11
6.28647
 21
273.618
  0
LINE
  8
0
 10
6.28647
 20
273.618
 11
6.18553
 21
273.777
  0
LINE
  8
0
 10
6.18553
 20
273.777
 11
6.10533
 21
273.948
  0
LINE
  8
0
 10
6.10533
 20
273.948
 11
6.04712
 21
274.127
  0
LINE
  8
0
 10
6.04712
 20
274.127
 11
6.01183
 21
274.312
  0
LINE
  8
0
 10
6.01183
 20
274.312
 11
6
 21
274.5
  0
LINE
  8
0
 10
6
 20
274.5
 11
6.01183
 21
274.688
  0
LINE
  8
0
 10
6.01183
 20
274.688
 11
6.04712
 21
274.873
  0
LINE
  8
0
 10
6.04712
 20
274.873
 11
6.10533
 21
275.052
  0
LINE
  8
0
 10
6.10533
 20
275.052
 11
6.18553
 21
275.223
  0
LINE
  8
0
 10
6.18553
 20
275.223
 11
6.28647
 21
275.382
  0
LINE
  8
0
 10
6.28647
 20
275.382
 11
6.40654
 21
275.527
  0
LINE
  8
0
 10
6.40654
 20
275.527
 11
6.54385
 21
275.656
  0
LINE
  8
0
 10
6.54385
 20
275.656
 11
6.69626
 21
275.766
  0
LINE
  8
0
 10
6.69626
 20
275.766
 11
6.86133
 21
275.857
  0
LINE
  8
0
 10
6.86133
 20
275.857
 11
7.03647
 21
275.927
  0
LINE
  8
0
 10
7.03647
 20
275.927
 11
7.21892
 21
275.973
  0
LINE
  8
0
 10
7.21892
 20
275.973
 11
7.40581
 21
275.997
  0
LINE
  8
0
 10
7.40581
 20
275.997
 11
7.59418
 21
275.997
  0
LINE
  8
0
 10
7.59418
 20
275.997
 11
7.78107
 21
275.973
  0
LINE
  8
0
 10
7.78107
 20
275.973
 11
7.96352
 21
275.927
  0
LINE
  8
0
 10
7.96352
 20
275.927
 11
8.13866
 21
275.857
  0
LINE
  8
0
 10
8.13866
 20
275.857
 11
8.30373
 21
275.766
  0
LINE
  8
0
 10
8.30373
 20
275.766
 11
8.45613
 21
275.656
  0
LINE
  8
0
 10
8.45613
 20
275.656
 11
8.59344
 21
275.527
  0
LINE
  8
0
 10
8.59344
 20
275.527
 11
8.71352
 21
275.382
  0
LINE
  8
0
 10
8.71352
 20
275.382
 11
8.81445
 21
275.223
  0
LINE
  8
0
 10
8.81445
 20
275.223
 11
8.89465
 21
275.052
  0
LINE
  8
0
 10
8.89465
 20
275.052
 11
8.95287
 21
274.873
  0
LINE
  8
0
 10
8.95287
 20
274.873
 11
8.98816
 21
274.688
  0
LINE
  8
0
 10
8.98816
 20
274.688
 11
9
 21
274.5
  0
LINE
  8
0
 10
9
 20
274.5
 11
8.98816
 21
274.312
  0
LINE
  8
0
 10
8.98816
 20
274.312
 11
8.95287
 21
274.127
  0
LINE
  8
0
 10
8.95287
 20
274.127
 11
8.89465
 21
273.948
  0
LINE
  8
0
 10
8.89465
 20
273.948
 11
8.81445
 21
273.777
  0
LINE
  8
0
 10
8.81445
 20
273.777
 11
8.71352
 21
273.618
  0
LINE
  8
0
 10
8.71352
 20
273.618
 11
8.59344
 21
273.473
  0
LINE
  8
0
 10
8.59344
 20
273.473
 11
8.45613
 21
273.344
  0
LINE
  8
0
 10
8.45613
 20
273.344
 11
8.30373
 21
273.234
  0
LINE
  8
0
 10
8.30373
 20
273.234
 11
8.13866
 21
273.143
  0
LINE
  8
0
 10
8.13866
 20
273.143
 11
7.96352
 21
273.073
  0
LINE
  8
0
 10
7.96352
 20
273.073
 11
7.78107
 21
273.027
  0
LINE
  8
0
 10
7.78107
 20
273.027
 11
7.59418
 21
273.003
  0
LINE
  8
0
 10
7.59418
 20
273.003
 11
7.40581
 21
273.003
  0
LINE
  8
0
 10
-7.59418
 20
273.003
 11
-7.78107
 21
273.027
  0
LINE
  8
0
 10
-7.78107
 20
273.027
 11
-7.96352
 21
273.073
  0
LINE
  8
0
 10
-7.96352
 20
273.073
 11
-8.13866
 21
273.143
  0
LINE
  8
0
 10
-8.13866
 20
273.143
 11
-8.30373
 21
273.234
  0
LINE
  8
0
 10
-8.30373
 20
273.234
 11
-8.45613
 21
273.344
  0
LINE
  8
0
 10
-8.45613
 20
273.344
 11
-8.59344
 21
273.473
  0
LINE
  8
0
 10
-8.59344
 20
273.473
 11
-8.71352
 21
273.618
  0
LINE
  8
0
 10
-8.71352
 20
273.618
 11
-8.81445
 21
273.777
  0
LINE
  8
0
 10
-8.81445
 20
273.777
 11
-8.89465
 21
273.948
  0
LINE
  8
0
 10
-8.89465
 20
273.948
 11
-8.95287
 21
274.127
  0
LINE
  8
0
 10
-8.95287
 20
274.127
 11
-8.98816
 21
274.312
  0
LINE
  8
0
 10
-8.98816
 20
274.312
 11
-9
 21
274.5
  0
LINE
  8
0
 10
-9
 20
274.5
 11
-8.98816
 21
274.688
  0
LINE
  8
0
 10
-8.98816
 20
274.688
 11
-8.95287
 21
274.873
  0
LINE
  8
0
 10
-8.95287
 20
274.873
 11
-8.89465
 21
275.052
  0
LINE
  8
0
 10
-8.89465
 20
275.052
 11
-8.81445
 21
275.223
  0
LINE
  8
0
 10
-8.81445
 20
275.223
 11
-8.71352
 21
275.382
  0
LINE
  8
0
 10
-8.71352
 20
275.382
 11
-8.59344
 21
275.527
  0
LINE
  8
0
 10
-8.59344
 20
275.527
 11
-8.45613
 21
275.656
  0
LINE
  8
0
 10
-8.45613
 20
275.656
 11
-8.30373
 21
275.766
  0
LINE
  8
0
 10
-8.30373
 20
275.766
 11
-8.13866
 21
275.857
  0
LINE
  8
0
 10
-8.13866
 20
275.857
 11
-7.96352
 21
275.927
  0
LINE
  8
0
 10
-7.96352
 20
275.927
 11
-7.78107
 21
275.973
  0
LINE
  8
0
 10
-7.78107
 20
275.973
 11
-7.59418
 21
275.997
  0
LINE
  8
0
 10
-7.59418
 20
275.997
 11
-7.40581
 21
275.997
  0
LINE
  8
0
 10
-7.40581
 20
275.997
 11
-7.21892
 21
275.973
  0
LINE
  8
0
 10
-7.21892
 20
275.973
 11
-7.03647
 21
275.927
  0
LINE
  8
0
 10
-7.03647
 20
275.927
 11
-6.86133
 21
275.857
  0
LINE
  8
0
 10
-6.86133
 20
275.857
 11
-6.69626
 21
275.766
  0
LINE
  8
0
 10
-6.69626
 20
275.766
 11
-6.54385
 21
275.656
  0
LINE
  8
0
 10
-6.54385
 20
275.656
 11
-6.40654
 21
275.527
  0
LINE
  8
0
 10
-6.40654
 20
275.527
 11
-6.28647
 21
275.382
  0
LINE
  8
0
 10
-6.28647
 20
275.382
 11
-6.18553
 21
275.223
  0
LINE
  8
0
 10
-6.18553
 20
275.223
 11
-6.10533
 21
275.052
  0
LINE
  8
0
 10
-6.10533
 20
275.052
 11
-6.04712
 21
274.873
  0
LINE
  8
0
 10
-6.04712
 20
274.873
 11
-6.01183
 21
274.688
  0
LINE
  8
0
 10
-6.01183
 20
274.688
 11
-6
 21
274.5
  0
LINE
  8
0
 10
-6
 20
274.5
 11
-6.01183
 21
274.312
  0
LINE
  8
0
 10
-6.01183
 20
274.312
 11
-6.04712
 21
274.127
  0
LINE
  8
0
 10
-6.04712
 20
274.127
 11
-6.10533
 21
273.948
  0
LINE
  8
0
 10
-6.10533
 20
273.948
 11
-6.18553
 21
273.777
  0
LINE
  8
0
 10
-6.18553
 20
273.777
 11
-6.28647
 21
273.618
  0
LINE
  8
0
 10
-6.28647
 20
273.618
 11
-6.40654
 21
273.473
  0
LINE
  8
0
 10
-6.40654
 20
273.473
 11
-6.54385
 21
273.344
  0
LINE
  8
0
 10
-6.54385
 20
273.344
 11
-6.69626
 21
273.234
  0
LINE
  8
0
 10
-6.69626
 20
273.234
 11
-6.86133
 21
273.143
  0
LINE
  8
0
 10
-6.86133
 20
273.143
 11
-7.03647
 21
273.073
  0
LINE
  8
0
 10
-7.03647
 20
273.073
 11
-7.21892
 21
273.027
  0
LINE
  8
0
 10
-7.21892
 20
273.027
 11
-7.40581
 21
273.003
  0
LINE
  8
0
 10
-7.40581
 20
273.003
 11
-7.59418
 21
273.003
  0
LINE
  8
0
 10
64.5
 20
263.838
 11
35.5
 21
263.838
  0
LINE
  8
0
 10
35.5
 20
263.838
 11
35.5
 21
260.162
  0
LINE
  8
0
 10
35.5
 20
260.162
 11
64.5
 21
260.162
  0
LINE
  8
0
 10
64.5
 20
260.162
 11
64.5
 21
263.838
  0
LINE
  8
0
 10
14.5
 20
263.838
 11
-14.5
 21
263.838
  0
LINE
  8
0
 10
-14.5
 20
263.838
 11
-14.5
 21
260.162
  0
LINE
  8
0
 10
-14.5
 20
260.162
 11
14.5
 21
260.162
  0
LINE
  8
0
 10
14.5
 20
260.162
 11
14.5
 21
263.838
  0
LINE
  8
0
 10
64.5
 20
253.838
 11
35.5
 21
253.838
  0
LINE
  8
0
 10
35.5
 20
253.838
 11
35.5
 21
250.162
  0
LINE
  8
0
 10
35.5
 20
250.162
 11
64.5
 21
250.162
  0
LINE
  8
0
 10
64.5
 20
250.162
 11
64.5
 21
253.838
  0
LINE
  8
0
 10
14.5
 20
253.838
 11
-14.5
 21
253.838
  0
LINE
  8
0
 10
-14.5
 20
253.838
 11
-14.5
 21
250.162
  0
LINE
  8
0
 10
-14.5
 20
250.162
 11
14.5
 21
250.162
  0
LINE
  8
0
 10
14.5
 20
250.162
 11
14.5
 21
253.838
  0
LINE
  8
0
 10
14.5
 20
243.838
 11
-14.5
 21
243.838
  0
LINE
  8
0
 10
-14.5
 20
243.838
 11
-14.5
 21
240.162
  0
LINE
  8
0
 10
-14.5
 20
240.162
 11
14.5
 21
240.162
  0
LINE
  8
0
 10
14.5
 20
240.162
 11
14.5
 21
243.838
  0
LINE
  8
0
 10
64.5
 20
243.838
 11
35.5
 21
243.838
  0
LINE
  8
0
 10
35.5
 20
243.838
 11
35.5
 21
240.162
  0
LINE
  8
0
 10
35.5
 20
240.162
 11
64.5
 21
240.162
  0
LINE
  8
0
 10
64.5
 20
240.162
 11
64.5
 21
243.838
  0
LINE
  8
0
 10
10.4369
 20
215.089
 11
11.0451
 21
215.245
  0
LINE
  8
0
 10
11.0451
 20
215.245
 11
11.6289
 21
215.476
  0
LINE
  8
0
 10
11.6289
 20
215.476
 11
12.1791
 21
215.778
  0
LINE
  8
0
 10
12.1791
 20
215.778
 11
12.6871
 21
216.147
  0
LINE
  8
0
 10
12.6871
 20
216.147
 11
13.1448
 21
216.577
  0
LINE
  8
0
 10
13.1448
 20
216.577
 11
13.5451
 21
217.061
  0
LINE
  8
0
 10
13.5451
 20
217.061
 11
13.8815
 21
217.591
  0
LINE
  8
0
 10
13.8815
 20
217.591
 11
14.1489
 21
218.159
  0
LINE
  8
0
 10
14.1489
 20
218.159
 11
14.3429
 21
218.757
  0
LINE
  8
0
 10
14.3429
 20
218.757
 11
14.4606
 21
219.373
  0
LINE
  8
0
 10
14.4606
 20
219.373
 11
14.5
 21
220
  0
LINE
  8
0
 10
14.5
 20
220
 11
14.5
 21
233.838
  0
LINE
  8
0
 10
14.5
 20
233.838
 11
-14.5
 21
233.838
  0
LINE
  8
0
 10
-14.5
 20
233.838
 11
-14.5
 21
220
  0
LINE
  8
0
 10
-14.5
 20
220
 11
-14.4606
 21
219.373
  0
LINE
  8
0
 10
-14.4606
 20
219.373
 11
-14.3429
 21
218.757
  0
LINE
  8
0
 10
-14.3429
 20
218.757
 11
-14.1489
 21
218.159
  0
LINE
  8
0
 10
-14.1489
 20
218.159
 11
-13.8815
 21
217.591
  0
LINE
  8
0
 10
-13.8815
 20
217.591
 11
-13.5451
 21
217.061
  0
LINE
  8
0
 10
-13.5451
 20
217.061
 11
-13.1448
 21
216.577
  0
LINE
  8
0
 10
-13.1448
 20
216.577
 11
-12.6871
 21
216.147
  0
LINE
  8
0
 10
-12.6871
 20
216.147
 11
-12.1791
 21
215.778
  0
LINE
  8
0
 10
-12.1791
 20
215.778
 11
-11.6289
 21
215.476
  0
LINE
  8
0
 10
-11.6289
 20
215.476
 11
-11.0451
 21
215.245
  0
LINE
  8
0
 10
-11.0451
 20
215.245
 11
-10.4369
 21
215.089
  0
LINE
  8
0
 10
-10.4369
 20
215.089
 11
-9.81395
 21
215.01
  0
LINE
  8
0
 10
-9.81395
 20
215.01
 11
9.81395
 21
215.01
  0
LINE
  8
0
 10
9.81395
 20
215.01
 11
10.4369
 21
215.089
  0
LINE
  8
0
 10
-0.113022
 20
227.704
 11
-0.33728
 21
227.732
  0
LINE
  8
0
 10
-0.33728
 20
227.732
 11
-0.556229
 21
227.788
  0
LINE
  8
0
 10
-0.556229
 20
227.788
 11
-0.766388
 21
227.871
  0
LINE
  8
0
 10
-0.766388
 20
227.871
 11
-0.964478
 21
227.98
  0
LINE
  8
0
 10
-0.964478
 20
227.98
 11
-1.14735
 21
228.113
  0
LINE
  8
0
 10
-1.14735
 20
228.113
 11
-1.31213
 21
228.268
  0
LINE
  8
0
 10
-1.31213
 20
228.268
 11
-1.45622
 21
228.442
  0
LINE
  8
0
 10
-1.45622
 20
228.442
 11
-1.57735
 21
228.633
  0
LINE
  8
0
 10
-1.57735
 20
228.633
 11
-1.67358
 21
228.837
  0
LINE
  8
0
 10
-1.67358
 20
228.837
 11
-1.74344
 21
229.052
  0
LINE
  8
0
 10
-1.74344
 20
229.052
 11
-1.7858
 21
229.274
  0
LINE
  8
0
 10
-1.7858
 20
229.274
 11
-1.79999
 21
229.5
  0
LINE
  8
0
 10
-1.79999
 20
229.5
 11
-1.7858
 21
229.726
  0
LINE
  8
0
 10
-1.7858
 20
229.726
 11
-1.74344
 21
229.948
  0
LINE
  8
0
 10
-1.74344
 20
229.948
 11
-1.67358
 21
230.163
  0
LINE
  8
0
 10
-1.67358
 20
230.163
 11
-1.57735
 21
230.367
  0
LINE
  8
0
 10
-1.57735
 20
230.367
 11
-1.45622
 21
230.558
  0
LINE
  8
0
 10
-1.45622
 20
230.558
 11
-1.31213
 21
230.732
  0
LINE
  8
0
 10
-1.31213
 20
230.732
 11
-1.14735
 21
230.887
  0
LINE
  8
0
 10
-1.14735
 20
230.887
 11
-0.964478
 21
231.02
  0
LINE
  8
0
 10
-0.964478
 20
231.02
 11
-0.766388
 21
231.129
  0
LINE
  8
0
 10
-0.766388
 20
231.129
 11
-0.556229
 21
231.212
  0
LINE
  8
0
 10
-0.556229
 20
231.212
 11
-0.33728
 21
231.268
  0
LINE
  8
0
 10
-0.33728
 20
231.268
 11
-0.113022
 21
231.296
  0
LINE
  8
0
 10
-0.113022
 20
231.296
 11
0.113022
 21
231.296
  0
LINE
  8
0
 10
0.113022
 20
231.296
 11
0.33728
 21
231.268
  0
LINE
  8
0
 10
0.33728
 20
231.268
 11
0.556229
 21
231.212
  0
LINE
  8
0
 10
0.556229
 20
231.212
 11
0.766388
 21
231.129
  0
LINE
  8
0
 10
0.766388
 20
231.129
 11
0.964478
 21
231.02
  0
LINE
  8
0
 10
0.964478
 20
231.02
 11
1.14735
 21
230.887
  0
LINE
  8
0
 10
1.14735
 20
230.887
 11
1.31213
 21
230.732
  0
LINE
  8
0
 10
1.31213
 20
230.732
 11
1.45622
 21
230.558
  0
LINE
  8
0
 10
1.45622
 20
230.558
 11
1.57735
 21
230.367
  0
LINE
  8
0
 10
1.57735
 20
230.367
 11
1.67358
 21
230.163
  0
LINE
  8
0
 10
1.67358
 20
230.163
 11
1.74344
 21
229.948
  0
LINE
  8
0
 10
1.74344
 20
229.948
 11
1.7858
 21
229.726
  0
LINE
  8
0
 10
1.7858
 20
229.726
 11
1.79999
 21
229.5
  0
LINE
  8
0
 10
1.79999
 20
229.5
 11
1.7858
 21
229.274
  0
LINE
  8
0
 10
1.7858
 20
229.274
 11
1.74344
 21
229.052
  0
LINE
  8
0
 10
1.74344
 20
229.052
 11
1.67358
 21
228.837
  0
LINE
  8
0
 10
1.67358
 20
228.837
 11
1.57735
 21
228.633
  0
LINE
  8
0
 10
1.57735
 20
228.633
 11
1.45622
 21
228.442
  0
LINE
  8
0
 10
1.45622
 20
228.442
 11
1.31213
 21
228.268
  0
LINE
  8
0
 10
1.31213
 20
228.268
 11
1.14735
 21
228.113
  0
LINE
  8
0
 10
1.14735
 20
228.113
 11
0.964478
 21
227.98
  0
LINE
  8
0
 10
0.964478
 20
227.98
 11
0.766388
 21
227.871
  0
LINE
  8
0
 10
0.766388
 20
227.871
 11
0.556229
 21
227.788
  0
LINE
  8
0
 10
0.556229
 20
227.788
 11
0.33728
 21
227.732
  0
LINE
  8
0
 10
0.33728
 20
227.732
 11
0.113022
 21
227.704
  0
LINE
  8
0
 10
0.113022
 20
227.704
 11
-0.113022
 21
227.704
  0
LINE
  8
0
 10
-7.59418
 20
228.003
 11
-7.78107
 21
228.027
  0
LINE
  8
0
 10
-7.78107
 20
228.027
 11
-7.96352
 21
228.073
  0
LINE
  8
0
 10
-7.96352
 20
228.073
 11
-8.13866
 21
228.143
  0
LINE
  8
0
 10
-8.13866
 20
228.143
 11
-8.30373
 21
228.234
  0
LINE
  8
0
 10
-8.30373
 20
228.234
 11
-8.45613
 21
228.344
  0
LINE
  8
0
 10
-8.45613
 20
228.344
 11
-8.59344
 21
228.473
  0
LINE
  8
0
 10
-8.59344
 20
228.473
 11
-8.71352
 21
228.618
  0
LINE
  8
0
 10
-8.71352
 20
228.618
 11
-8.81445
 21
228.777
  0
LINE
  8
0
 10
-8.81445
 20
228.777
 11
-8.89465
 21
228.948
  0
LINE
  8
0
 10
-8.89465
 20
228.948
 11
-8.95287
 21
229.127
  0
LINE
  8
0
 10
-8.95287
 20
229.127
 11
-8.98816
 21
229.312
  0
LINE
  8
0
 10
-8.98816
 20
229.312
 11
-9
 21
229.5
  0
LINE
  8
0
 10
-9
 20
229.5
 11
-8.98816
 21
229.688
  0
LINE
  8
0
 10
-8.98816
 20
229.688
 11
-8.95287
 21
229.873
  0
LINE
  8
0
 10
-8.95287
 20
229.873
 11
-8.89465
 21
230.052
  0
LINE
  8
0
 10
-8.89465
 20
230.052
 11
-8.81445
 21
230.223
  0
LINE
  8
0
 10
-8.81445
 20
230.223
 11
-8.71352
 21
230.382
  0
LINE
  8
0
 10
-8.71352
 20
230.382
 11
-8.59344
 21
230.527
  0
LINE
  8
0
 10
-8.59344
 20
230.527
 11
-8.45613
 21
230.656
  0
LINE
  8
0
 10
-8.45613
 20
230.656
 11
-8.30373
 21
230.766
  0
LINE
  8
0
 10
-8.30373
 20
230.766
 11
-8.13866
 21
230.857
  0
LINE
  8
0
 10
-8.13866
 20
230.857
 11
-7.96352
 21
230.927
  0
LINE
  8
0
 10
-7.96352
 20
230.927
 11
-7.78107
 21
230.973
  0
LINE
  8
0
 10
-7.78107
 20
230.973
 11
-7.59418
 21
230.997
  0
LINE
  8
0
 10
-7.59418
 20
230.997
 11
-7.40581
 21
230.997
  0
LINE
  8
0
 10
-7.40581
 20
230.997
 11
-7.21892
 21
230.973
  0
LINE
  8
0
 10
-7.21892
 20
230.973
 11
-7.03647
 21
230.927
  0
LINE
  8
0
 10
-7.03647
 20
230.927
 11
-6.86133
 21
230.857
  0
LINE
  8
0
 10
-6.86133
 20
230.857
 11
-6.69626
 21
230.766
  0
LINE
  8
0
 10
-6.69626
 20
230.766
 11
-6.54385
 21
230.656
  0
LINE
  8
0
 10
-6.54385
 20
230.656
 11
-6.40654
 21
230.527
  0
LINE
  8
0
 10
-6.40654
 20
230.527
 11
-6.28647
 21
230.382
  0
LINE
  8
0
 10
-6.28647
 20
230.382
 11
-6.18553
 21
230.223
  0
LINE
  8
0
 10
-6.18553
 20
230.223
 11
-6.10533
 21
230.052
  0
LINE
  8
0
 10
-6.10533
 20
230.052
 11
-6.04712
 21
229.873
  0
LINE
  8
0
 10
-6.04712
 20
229.873
 11
-6.01183
 21
229.688
  0
LINE
  8
0
 10
-6.01183
 20
229.688
 11
-6
 21
229.5
  0
LINE
  8
0
 10
-6
 20
229.5
 11
-6.01183
 21
229.312
  0
LINE
  8
0
 10
-6.01183
 20
229.312
 11
-6.04712
 21
229.127
  0
LINE
  8
0
 10
-6.04712
 20
229.127
 11
-6.10533
 21
228.948
  0
LINE
  8
0
 10
-6.10533
 20
228.948
 11
-6.18553
 21
228.777
  0
LINE
  8
0
 10
-6.18553
 20
228.777
 11
-6.28647
 21
228.618
  0
LINE
  8
0
 10
-6.28647
 20
228.618
 11
-6.40654
 21
228.473
  0
LINE
  8
0
 10
-6.40654
 20
228.473
 11
-6.54385
 21
228.344
  0
LINE
  8
0
 10
-6.54385
 20
228.344
 11
-6.69626
 21
228.234
  0
LINE
  8
0
 10
-6.69626
 20
228.234
 11
-6.86133
 21
228.143
  0
LINE
  8
0
 10
-6.86133
 20
228.143
 11
-7.03647
 21
228.073
  0
LINE
  8
0
 10
-7.03647
 20
228.073
 11
-7.21892
 21
228.027
  0
LINE
  8
0
 10
-7.21892
 20
228.027
 11
-7.40581
 21
228.003
  0
LINE
  8
0
 10
-7.40581
 20
228.003
 11
-7.59418
 21
228.003
  0
LINE
  8
0
 10
7.40581
 20
228.003
 11
7.21892
 21
228.027
  0
LINE
  8
0
 10
7.21892
 20
228.027
 11
7.03647
 21
228.073
  0
LINE
  8
0
 10
7.03647
 20
228.073
 11
6.86133
 21
228.143
  0
LINE
  8
0
 10
6.86133
 20
228.143
 11
6.69626
 21
228.234
  0
LINE
  8
0
 10
6.69626
 20
228.234
 11
6.54385
 21
228.344
  0
LINE
  8
0
 10
6.54385
 20
228.344
 11
6.40654
 21
228.473
  0
LINE
  8
0
 10
6.40654
 20
228.473
 11
6.28647
 21
228.618
  0
LINE
  8
0
 10
6.28647
 20
228.618
 11
6.18553
 21
228.777
  0
LINE
  8
0
 10
6.18553
 20
228.777
 11
6.10533
 21
228.948
  0
LINE
  8
0
 10
6.10533
 20
228.948
 11
6.04712
 21
229.127
  0
LINE
  8
0
 10
6.04712
 20
229.127
 11
6.01183
 21
229.312
  0
LINE
  8
0
 10
6.01183
 20
229.312
 11
6
 21
229.5
  0
LINE
  8
0
 10
6
 20
229.5
 11
6.01183
 21
229.688
  0
LINE
  8
0
 10
6.01183
 20
229.688
 11
6.04712
 21
229.873
  0
LINE
  8
0
 10
6.04712
 20
229.873
 11
6.10533
 21
230.052
  0
LINE
  8
0
 10
6.10533
 20
230.052
 11
6.18553
 21
230.223
  0
LINE
  8
0
 10
6.18553
 20
230.223
 11
6.28647
 21
230.382
  0
LINE
  8
0
 10
6.28647
 20
230.382
 11
6.40654
 21
230.527
  0
LINE
  8
0
 10
6.40654
 20
230.527
 11
6.54385
 21
230.656
  0
LINE
  8
0
 10
6.54385
 20
230.656
 11
6.69626
 21
230.766
  0
LINE
  8
0
 10
6.69626
 20
230.766
 11
6.86133
 21
230.857
  0
LINE
  8
0
 10
6.86133
 20
230.857
 11
7.03647
 21
230.927
  0
LINE
  8
0
 10
7.03647
 20
230.927
 11
7.21892
 21
230.973
  0
LINE
  8
0
 10
7.21892
 20
230.973
 11
7.40581
 21
230.997
  0
LINE
  8
0
 10
7.40581
 20
230.997
 11
7.59418
 21
230.997
  0
LINE
  8
0
 10
7.59418
 20
230.997
 11
7.78107
 21
230.973
  0
LINE
  8
0
 10
7.78107
 20
230.973
 11
7.96352
 21
230.927
  0
LINE
  8
0
 10
7.96352
 20
230.927
 11
8.13866
 21
230.857
  0
LINE
  8
0
 10
8.13866
 20
230.857
 11
8.30373
 21
230.766
  0
LINE
  8
0
 10
8.30373
 20
230.766
 11
8.45613
 21
230.656
  0
LINE
  8
0
 10
8.45613
 20
230.656
 11
8.59344
 21
230.527
  0
LINE
  8
0
 10
8.59344
 20
230.527
 11
8.71352
 21
230.382
  0
LINE
  8
0
 10
8.71352
 20
230.382
 11
8.81445
 21
230.223
  0
LINE
  8
0
 10
8.81445
 20
230.223
 11
8.89465
 21
230.052
  0
LINE
  8
0
 10
8.89465
 20
230.052
 11
8.95287
 21
229.873
  0
LINE
  8
0
 10
8.95287
 20
229.873
 11
8.98816
 21
229.688
  0
LINE
  8
0
 10
8.98816
 20
229.688
 11
9
 21
229.5
  0
LINE
  8
0
 10
9
 20
229.5
 11
8.98816
 21
229.312
  0
LINE
  8
0
 10
8.98816
 20
229.312
 11
8.95287
 21
229.127
  0
LINE
  8
0
 10
8.95287
 20
229.127
 11
8.89465
 21
228.948
  0
LINE
  8
0
 10
8.89465
 20
228.948
 11
8.81445
 21
228.777
  0
LINE
  8
0
 10
8.81445
 20
228.777
 11
8.71352
 21
228.618
  0
LINE
  8
0
 10
8.71352
 20
228.618
 11
8.59344
 21
228.473
  0
LINE
  8
0
 10
8.59344
 20
228.473
 11
8.45613
 21
228.344
  0
LINE
  8
0
 10
8.45613
 20
228.344
 11
8.30373
 21
228.234
  0
LINE
  8
0
 10
8.30373
 20
228.234
 11
8.13866
 21
228.143
  0
LINE
  8
0
 10
8.13866
 20
228.143
 11
7.96352
 21
228.073
  0
LINE
  8
0
 10
7.96352
 20
228.073
 11
7.78107
 21
228.027
  0
LINE
  8
0
 10
7.78107
 20
228.027
 11
7.59418
 21
228.003
  0
LINE
  8
0
 10
7.59418
 20
228.003
 11
7.40581
 21
228.003
  0
LINE
  8
0
 10
-0.194641
 20
218.906
 11
-0.580872
 21
218.955
  0
LINE
  8
0
 10
-0.580872
 20
218.955
 11
-0.957947
 21
219.052
  0
LINE
  8
0
 10
-0.957947
 20
219.052
 11
-1.3199
 21
219.195
  0
LINE
  8
0
 10
-1.3199
 20
219.195
 11
-1.66106
 21
219.383
  0
LINE
  8
0
 10
-1.66106
 20
219.383
 11
-1.97601
 21
219.611
  0
LINE
  8
0
 10
-1.97601
 20
219.611
 11
-2.2598
 21
219.878
  0
LINE
  8
0
 10
-2.2598
 20
219.878
 11
-2.50795
 21
220.178
  0
LINE
  8
0
 10
-2.50795
 20
220.178
 11
-2.71654
 21
220.507
  0
LINE
  8
0
 10
-2.71654
 20
220.507
 11
-2.88229
 21
220.859
  0
LINE
  8
0
 10
-2.88229
 20
220.859
 11
-3.00259
 21
221.229
  0
LINE
  8
0
 10
-3.00259
 20
221.229
 11
-3.07555
 21
221.611
  0
LINE
  8
0
 10
-3.07555
 20
221.611
 11
-3.09999
 21
222
  0
LINE
  8
0
 10
-3.09999
 20
222
 11
-3.07555
 21
222.389
  0
LINE
  8
0
 10
-3.07555
 20
222.389
 11
-3.00259
 21
222.771
  0
LINE
  8
0
 10
-3.00259
 20
222.771
 11
-2.88229
 21
223.141
  0
LINE
  8
0
 10
-2.88229
 20
223.141
 11
-2.71654
 21
223.493
  0
LINE
  8
0
 10
-2.71654
 20
223.493
 11
-2.50795
 21
223.822
  0
LINE
  8
0
 10
-2.50795
 20
223.822
 11
-2.2598
 21
224.122
  0
LINE
  8
0
 10
-2.2598
 20
224.122
 11
-1.97601
 21
224.389
  0
LINE
  8
0
 10
-1.97601
 20
224.389
 11
-1.66106
 21
224.617
  0
LINE
  8
0
 10
-1.66106
 20
224.617
 11
-1.3199
 21
224.805
  0
LINE
  8
0
 10
-1.3199
 20
224.805
 11
-0.957947
 21
224.948
  0
LINE
  8
0
 10
-0.957947
 20
224.948
 11
-0.580872
 21
225.045
  0
LINE
  8
0
 10
-0.580872
 20
225.045
 11
-0.194641
 21
225.094
  0
LINE
  8
0
 10
-0.194641
 20
225.094
 11
0.194641
 21
225.094
  0
LINE
  8
0
 10
0.194641
 20
225.094
 11
0.580872
 21
225.045
  0
LINE
  8
0
 10
0.580872
 20
225.045
 11
0.957947
 21
224.948
  0
LINE
  8
0
 10
0.957947
 20
224.948
 11
1.3199
 21
224.805
  0
LINE
  8
0
 10
1.3199
 20
224.805
 11
1.66106
 21
224.617
  0
LINE
  8
0
 10
1.66106
 20
224.617
 11
1.97601
 21
224.389
  0
LINE
  8
0
 10
1.97601
 20
224.389
 11
2.2598
 21
224.122
  0
LINE
  8
0
 10
2.2598
 20
224.122
 11
2.50795
 21
223.822
  0
LINE
  8
0
 10
2.50795
 20
223.822
 11
2.71654
 21
223.493
  0
LINE
  8
0
 10
2.71654
 20
223.493
 11
2.88229
 21
223.141
  0
LINE
  8
0
 10
2.88229
 20
223.141
 11
3.00259
 21
222.771
  0
LINE
  8
0
 10
3.00259
 20
222.771
 11
3.07555
 21
222.389
  0
LINE
  8
0
 10
3.07555
 20
222.389
 11
3.09999
 21
222
  0
LINE
  8
0
 10
3.09999
 20
222
 11
3.07555
 21
221.611
  0
LINE
  8
0
 10
3.07555
 20
221.611
 11
3.00259
 21
221.229
  0
LINE
  8
0
 10
3.00259
 20
221.229
 11
2.88229
 21
220.859
  0
LINE
  8
0
 10
2.88229
 20
220.859
 11
2.71654
 21
220.507
  0
LINE
  8
0
 10
2.71654
 20
220.507
 11
2.50795
 21
220.178
  0
LINE
  8
0
 10
2.50795
 20
220.178
 11
2.2598
 21
219.878
  0
LINE
  8
0
 10
2.2598
 20
219.878
 11
1.97601
 21
219.611
  0
LINE
  8
0
 10
1.97601
 20
219.611
 11
1.66106
 21
219.383
  0
LINE
  8
0
 10
1.66106
 20
219.383
 11
1.3199
 21
219.195
  0
LINE
  8
0
 10
1.3199
 20
219.195
 11
0.957947
 21
219.052
  0
LINE
  8
0
 10
0.957947
 20
219.052
 11
0.580872
 21
218.955
  0
LINE
  8
0
 10
0.580872
 20
218.955
 11
0.194641
 21
218.906
  0
LINE
  8
0
 10
0.194641
 20
218.906
 11
-0.194641
 21
218.906
  0
LINE
  8
0
 10
-7.68837
 20
219.006
 11
-8.06213
 21
219.053
  0
LINE
  8
0
 10
-8.06213
 20
219.053
 11
-8.42705
 21
219.147
  0
LINE
  8
0
 10
-8.42705
 20
219.147
 11
-8.77733
 21
219.286
  0
LINE
  8
0
 10
-8.77733
 20
219.286
 11
-9.10747
 21
219.467
  0
LINE
  8
0
 10
-9.10747
 20
219.467
 11
-9.41226
 21
219.688
  0
LINE
  8
0
 10
-9.41226
 20
219.688
 11
-9.6869
 21
219.946
  0
LINE
  8
0
 10
-9.6869
 20
219.946
 11
-9.92705
 21
220.237
  0
LINE
  8
0
 10
-9.92705
 20
220.237
 11
-10.1289
 21
220.555
  0
LINE
  8
0
 10
-10.1289
 20
220.555
 11
-10.2893
 21
220.896
  0
LINE
  8
0
 10
-10.2893
 20
220.896
 11
-10.4057
 21
221.254
  0
LINE
  8
0
 10
-10.4057
 20
221.254
 11
-10.4763
 21
221.624
  0
LINE
  8
0
 10
-10.4763
 20
221.624
 11
-10.5
 21
222
  0
LINE
  8
0
 10
-10.5
 20
222
 11
-10.4763
 21
222.376
  0
LINE
  8
0
 10
-10.4763
 20
222.376
 11
-10.4057
 21
222.746
  0
LINE
  8
0
 10
-10.4057
 20
222.746
 11
-10.2893
 21
223.104
  0
LINE
  8
0
 10
-10.2893
 20
223.104
 11
-10.1289
 21
223.445
  0
LINE
  8
0
 10
-10.1289
 20
223.445
 11
-9.92705
 21
223.763
  0
LINE
  8
0
 10
-9.92705
 20
223.763
 11
-9.6869
 21
224.054
  0
LINE
  8
0
 10
-9.6869
 20
224.054
 11
-9.41226
 21
224.312
  0
LINE
  8
0
 10
-9.41226
 20
224.312
 11
-9.10747
 21
224.533
  0
LINE
  8
0
 10
-9.10747
 20
224.533
 11
-8.77733
 21
224.714
  0
LINE
  8
0
 10
-8.77733
 20
224.714
 11
-8.42705
 21
224.853
  0
LINE
  8
0
 10
-8.42705
 20
224.853
 11
-8.06213
 21
224.947
  0
LINE
  8
0
 10
-8.06213
 20
224.947
 11
-7.68837
 21
224.994
  0
LINE
  8
0
 10
-7.68837
 20
224.994
 11
-7.31161
 21
224.994
  0
LINE
  8
0
 10
-7.31161
 20
224.994
 11
-6.93785
 21
224.947
  0
LINE
  8
0
 10
-6.93785
 20
224.947
 11
-6.57294
 21
224.853
  0
LINE
  8
0
 10
-6.57294
 20
224.853
 11
-6.22266
 21
224.714
  0
LINE
  8
0
 10
-6.22266
 20
224.714
 11
-5.89252
 21
224.533
  0
LINE
  8
0
 10
-5.89252
 20
224.533
 11
-5.58772
 21
224.312
  0
LINE
  8
0
 10
-5.58772
 20
224.312
 11
-5.31308
 21
224.054
  0
LINE
  8
0
 10
-5.31308
 20
224.054
 11
-5.07294
 21
223.763
  0
LINE
  8
0
 10
-5.07294
 20
223.763
 11
-4.87108
 21
223.445
  0
LINE
  8
0
 10
-4.87108
 20
223.445
 11
-4.71066
 21
223.104
  0
LINE
  8
0
 10
-4.71066
 20
223.104
 11
-4.59424
 21
222.746
  0
LINE
  8
0
 10
-4.59424
 20
222.746
 11
-4.52365
 21
222.376
  0
LINE
  8
0
 10
-4.52365
 20
222.376
 11
-4.5
 21
222
  0
LINE
  8
0
 10
-4.5
 20
222
 11
-4.52365
 21
221.624
  0
LINE
  8
0
 10
-4.52365
 20
221.624
 11
-4.59424
 21
221.254
  0
LINE
  8
0
 10
-4.59424
 20
221.254
 11
-4.71066
 21
220.896
  0
LINE
  8
0
 10
-4.71066
 20
220.896
 11
-4.87108
 21
220.555
  0
LINE
  8
0
 10
-4.87108
 20
220.555
 11
-5.07294
 21
220.237
  0
LINE
  8
0
 10
-5.07294
 20
220.237
 11
-5.31308
 21
219.946
  0
LINE
  8
0
 10
-5.31308
 20
219.946
 11
-5.58772
 21
219.688
  0
LINE
  8
0
 10
-5.58772
 20
219.688
 11
-5.89252
 21
219.467
  0
LINE
  8
0
 10
-5.89252
 20
219.467
 11
-6.22266
 21
219.286
  0
LINE
  8
0
 10
-6.22266
 20
219.286
 11
-6.57294
 21
219.147
  0
LINE
  8
0
 10
-6.57294
 20
219.147
 11
-6.93785
 21
219.053
  0
LINE
  8
0
 10
-6.93785
 20
219.053
 11
-7.31161
 21
219.006
  0
LINE
  8
0
 10
-7.31161
 20
219.006
 11
-7.68837
 21
219.006
  0
LINE
  8
0
 10
7.31161
 20
219.006
 11
6.93785
 21
219.053
  0
LINE
  8
0
 10
6.93785
 20
219.053
 11
6.57294
 21
219.147
  0
LINE
  8
0
 10
6.57294
 20
219.147
 11
6.22266
 21
219.286
  0
LINE
  8
0
 10
6.22266
 20
219.286
 11
5.89252
 21
219.467
  0
LINE
  8
0
 10
5.89252
 20
219.467
 11
5.58772
 21
219.688
  0
LINE
  8
0
 10
5.58772
 20
219.688
 11
5.31308
 21
219.946
  0
LINE
  8
0
 10
5.31308
 20
219.946
 11
5.07294
 21
220.237
  0
LINE
  8
0
 10
5.07294
 20
220.237
 11
4.87108
 21
220.555
  0
LINE
  8
0
 10
4.87108
 20
220.555
 11
4.71066
 21
220.896
  0
LINE
  8
0
 10
4.71066
 20
220.896
 11
4.59424
 21
221.254
  0
LINE
  8
0
 10
4.59424
 20
221.254
 11
4.52365
 21
221.624
  0
LINE
  8
0
 10
4.52365
 20
221.624
 11
4.5
 21
222
  0
LINE
  8
0
 10
4.5
 20
222
 11
4.52365
 21
222.376
  0
LINE
  8
0
 10
4.52365
 20
222.376
 11
4.59424
 21
222.746
  0
LINE
  8
0
 10
4.59424
 20
222.746
 11
4.71066
 21
223.104
  0
LINE
  8
0
 10
4.71066
 20
223.104
 11
4.87108
 21
223.445
  0
LINE
  8
0
 10
4.87108
 20
223.445
 11
5.07294
 21
223.763
  0
LINE
  8
0
 10
5.07294
 20
223.763
 11
5.31308
 21
224.054
  0
LINE
  8
0
 10
5.31308
 20
224.054
 11
5.58772
 21
224.312
  0
LINE
  8
0
 10
5.58772
 20
224.312
 11
5.89252
 21
224.533
  0
LINE
  8
0
 10
5.89252
 20
224.533
 11
6.22266
 21
224.714
  0
LINE
  8
0
 10
6.22266
 20
224.714
 11
6.57294
 21
224.853
  0
LINE
  8
0
 10
6.57294
 20
224.853
 11
6.93785
 21
224.947
  0
LINE
  8
0
 10
6.93785
 20
224.947
 11
7.31161
 21
224.994
  0
LINE
  8
0
 10
7.31161
 20
224.994
 11
7.68837
 21
224.994
  0
LINE
  8
0
 10
7.68837
 20
224.994
 11
8.06213
 21
224.947
  0
LINE
  8
0
 10
8.06213
 20
224.947
 11
8.42705
 21
224.853
  0
LINE
  8
0
 10
8.42705
 20
224.853
 11
8.77733
 21
224.714
  0
LINE
  8
0
 10
8.77733
 20
224.714
 11
9.10747
 21
224.533
  0
LINE
  8
0
 10
9.10747
 20
224.533
 11
9.41226
 21
224.312
  0
LINE
  8
0
 10
9.41226
 20
224.312
 11
9.6869
 21
224.054
  0
LINE
  8
0
 10
9.6869
 20
224.054
 11
9.92705
 21
223.763
  0
LINE
  8
0
 10
9.92705
 20
223.763
 11
10.1289
 21
223.445
  0
LINE
  8
0
 10
10.1289
 20
223.445
 11
10.2893
 21
223.104
  0
LINE
  8
0
 10
10.2893
 20
223.104
 11
10.4057
 21
222.746
  0
LINE
  8
0
 10
10.4057
 20
222.746
 11
10.4763
 21
222.376
  0
LINE
  8
0
 10
10.4763
 20
222.376
 11
10.5
 21
222
  0
LINE
  8
0
 10
10.5
 20
222
 11
10.4763
 21
221.624
  0
LINE
  8
0
 10
10.4763
 20
221.624
 11
10.4057
 21
221.254
  0
LINE
  8
0
 10
10.4057
 20
221.254
 11
10.2893
 21
220.896
  0
LINE
  8
0
 10
10.2893
 20
220.896
 11
10.1289
 21
220.555
  0
LINE
  8
0
 10
10.1289
 20
220.555
 11
9.92705
 21
220.237
  0
LINE
  8
0
 10
9.92705
 20
220.237
 11
9.6869
 21
219.946
  0
LINE
  8
0
 10
9.6869
 20
219.946
 11
9.41226
 21
219.688
  0
LINE
  8
0
 10
9.41226
 20
219.688
 11
9.10747
 21
219.467
  0
LINE
  8
0
 10
9.10747
 20
219.467
 11
8.77733
 21
219.286
  0
LINE
  8
0
 10
8.77733
 20
219.286
 11
8.42705
 21
219.147
  0
LINE
  8
0
 10
8.42705
 20
219.147
 11
8.06213
 21
219.053
  0
LINE
  8
0
 10
8.06213
 20
219.053
 11
7.68837
 21
219.006
  0
LINE
  8
0
 10
7.68837
 20
219.006
 11
7.31161
 21
219.006
  0
LINE
  8
0
 10
60.4369
 20
215.089
 11
61.0451
 21
215.245
  0
LINE
  8
0
 10
61.0451
 20
215.245
 11
61.6289
 21
215.476
  0
LINE
  8
0
 10
61.6289
 20
215.476
 11
62.1791
 21
215.778
  0
LINE
  8
0
 10
62.1791
 20
215.778
 11
62.6871
 21
216.147
  0
LINE
  8
0
 10
62.6871
 20
216.147
 11
63.1448
 21
216.577
  0
LINE
  8
0
 10
63.1448
 20
216.577
 11
63.5451
 21
217.061
  0
LINE
  8
0
 10
63.5451
 20
217.061
 11
63.8815
 21
217.591
  0
LINE
  8
0
 10
63.8815
 20
217.591
 11
64.1489
 21
218.159
  0
LINE
  8
0
 10
64.1489
 20
218.159
 11
64.3429
 21
218.757
  0
LINE
  8
0
 10
64.3429
 20
218.757
 11
64.4606
 21
219.373
  0
LINE
  8
0
 10
64.4606
 20
219.373
 11
64.5
 21
220
  0
LINE
  8
0
 10
64.5
 20
220
 11
64.5
 21
233.838
  0
LINE
  8
0
 10
64.5
 20
233.838
 11
35.5
 21
233.838
  0
LINE
  8
0
 10
35.5
 20
233.838
 11
35.5
 21
220
  0
LINE
  8
0
 10
35.5
 20
220
 11
35.5394
 21
219.373
  0
LINE
  8
0
 10
35.5394
 20
219.373
 11
35.6571
 21
218.757
  0
LINE
  8
0
 10
35.6571
 20
218.757
 11
35.8511
 21
218.159
  0
LINE
  8
0
 10
35.8511
 20
218.159
 11
36.1185
 21
217.591
  0
LINE
  8
0
 10
36.1185
 20
217.591
 11
36.4549
 21
217.061
  0
LINE
  8
0
 10
36.4549
 20
217.061
 11
36.8551
 21
216.577
  0
LINE
  8
0
 10
36.8551
 20
216.577
 11
37.3129
 21
216.147
  0
LINE
  8
0
 10
37.3129
 20
216.147
 11
37.8209
 21
215.778
  0
LINE
  8
0
 10
37.8209
 20
215.778
 11
38.3711
 21
215.476
  0
LINE
  8
0
 10
38.3711
 20
215.476
 11
38.9549
 21
215.245
  0
LINE
  8
0
 10
38.9549
 20
215.245
 11
39.5631
 21
215.089
  0
LINE
  8
0
 10
39.5631
 20
215.089
 11
40.186
 21
215.01
  0
LINE
  8
0
 10
40.186
 20
215.01
 11
59.8139
 21
215.01
  0
LINE
  8
0
 10
59.8139
 20
215.01
 11
60.4369
 21
215.089
  0
LINE
  8
0
 10
49.887
 20
227.704
 11
49.6627
 21
227.732
  0
LINE
  8
0
 10
49.6627
 20
227.732
 11
49.4438
 21
227.788
  0
LINE
  8
0
 10
49.4438
 20
227.788
 11
49.2336
 21
227.871
  0
LINE
  8
0
 10
49.2336
 20
227.871
 11
49.0355
 21
227.98
  0
LINE
  8
0
 10
49.0355
 20
227.98
 11
48.8526
 21
228.113
  0
LINE
  8
0
 10
48.8526
 20
228.113
 11
48.6879
 21
228.268
  0
LINE
  8
0
 10
48.6879
 20
228.268
 11
48.5438
 21
228.442
  0
LINE
  8
0
 10
48.5438
 20
228.442
 11
48.4226
 21
228.633
  0
LINE
  8
0
 10
48.4226
 20
228.633
 11
48.3264
 21
228.837
  0
LINE
  8
0
 10
48.3264
 20
228.837
 11
48.2565
 21
229.052
  0
LINE
  8
0
 10
48.2565
 20
229.052
 11
48.2142
 21
229.274
  0
LINE
  8
0
 10
48.2142
 20
229.274
 11
48.2
 21
229.5
  0
LINE
  8
0
 10
48.2
 20
229.5
 11
48.2142
 21
229.726
  0
LINE
  8
0
 10
48.2142
 20
229.726
 11
48.2565
 21
229.948
  0
LINE
  8
0
 10
48.2565
 20
229.948
 11
48.3264
 21
230.163
  0
LINE
  8
0
 10
48.3264
 20
230.163
 11
48.4226
 21
230.367
  0
LINE
  8
0
 10
48.4226
 20
230.367
 11
48.5438
 21
230.558
  0
LINE
  8
0
 10
48.5438
 20
230.558
 11
48.6879
 21
230.732
  0
LINE
  8
0
 10
48.6879
 20
230.732
 11
48.8526
 21
230.887
  0
LINE
  8
0
 10
48.8526
 20
230.887
 11
49.0355
 21
231.02
  0
LINE
  8
0
 10
49.0355
 20
231.02
 11
49.2336
 21
231.129
  0
LINE
  8
0
 10
49.2336
 20
231.129
 11
49.4438
 21
231.212
  0
LINE
  8
0
 10
49.4438
 20
231.212
 11
49.6627
 21
231.268
  0
LINE
  8
0
 10
49.6627
 20
231.268
 11
49.887
 21
231.296
  0
LINE
  8
0
 10
49.887
 20
231.296
 11
50.113
 21
231.296
  0
LINE
  8
0
 10
50.113
 20
231.296
 11
50.3373
 21
231.268
  0
LINE
  8
0
 10
50.3373
 20
231.268
 11
50.5562
 21
231.212
  0
LINE
  8
0
 10
50.5562
 20
231.212
 11
50.7664
 21
231.129
  0
LINE
  8
0
 10
50.7664
 20
231.129
 11
50.9645
 21
231.02
  0
LINE
  8
0
 10
50.9645
 20
231.02
 11
51.1474
 21
230.887
  0
LINE
  8
0
 10
51.1474
 20
230.887
 11
51.3121
 21
230.732
  0
LINE
  8
0
 10
51.3121
 20
230.732
 11
51.4562
 21
230.558
  0
LINE
  8
0
 10
51.4562
 20
230.558
 11
51.5773
 21
230.367
  0
LINE
  8
0
 10
51.5773
 20
230.367
 11
51.6736
 21
230.163
  0
LINE
  8
0
 10
51.6736
 20
230.163
 11
51.7434
 21
229.948
  0
LINE
  8
0
 10
51.7434
 20
229.948
 11
51.7858
 21
229.726
  0
LINE
  8
0
 10
51.7858
 20
229.726
 11
51.8
 21
229.5
  0
LINE
  8
0
 10
51.8
 20
229.5
 11
51.7858
 21
229.274
  0
LINE
  8
0
 10
51.7858
 20
229.274
 11
51.7434
 21
229.052
  0
LINE
  8
0
 10
51.7434
 20
229.052
 11
51.6736
 21
228.837
  0
LINE
  8
0
 10
51.6736
 20
228.837
 11
51.5773
 21
228.633
  0
LINE
  8
0
 10
51.5773
 20
228.633
 11
51.4562
 21
228.442
  0
LINE
  8
0
 10
51.4562
 20
228.442
 11
51.3121
 21
228.268
  0
LINE
  8
0
 10
51.3121
 20
228.268
 11
51.1474
 21
228.113
  0
LINE
  8
0
 10
51.1474
 20
228.113
 11
50.9645
 21
227.98
  0
LINE
  8
0
 10
50.9645
 20
227.98
 11
50.7664
 21
227.871
  0
LINE
  8
0
 10
50.7664
 20
227.871
 11
50.5562
 21
227.788
  0
LINE
  8
0
 10
50.5562
 20
227.788
 11
50.3373
 21
227.732
  0
LINE
  8
0
 10
50.3373
 20
227.732
 11
50.113
 21
227.704
  0
LINE
  8
0
 10
50.113
 20
227.704
 11
49.887
 21
227.704
  0
LINE
  8
0
 10
57.4058
 20
228.003
 11
57.2189
 21
228.027
  0
LINE
  8
0
 10
57.2189
 20
228.027
 11
57.0365
 21
228.073
  0
LINE
  8
0
 10
57.0365
 20
228.073
 11
56.8613
 21
228.143
  0
LINE
  8
0
 10
56.8613
 20
228.143
 11
56.6963
 21
228.234
  0
LINE
  8
0
 10
56.6963
 20
228.234
 11
56.5439
 21
228.344
  0
LINE
  8
0
 10
56.5439
 20
228.344
 11
56.4065
 21
228.473
  0
LINE
  8
0
 10
56.4065
 20
228.473
 11
56.2865
 21
228.618
  0
LINE
  8
0
 10
56.2865
 20
228.618
 11
56.1855
 21
228.777
  0
LINE
  8
0
 10
56.1855
 20
228.777
 11
56.1053
 21
228.948
  0
LINE
  8
0
 10
56.1053
 20
228.948
 11
56.0471
 21
229.127
  0
LINE
  8
0
 10
56.0471
 20
229.127
 11
56.0118
 21
229.312
  0
LINE
  8
0
 10
56.0118
 20
229.312
 11
56
 21
229.5
  0
LINE
  8
0
 10
56
 20
229.5
 11
56.0118
 21
229.688
  0
LINE
  8
0
 10
56.0118
 20
229.688
 11
56.0471
 21
229.873
  0
LINE
  8
0
 10
56.0471
 20
229.873
 11
56.1053
 21
230.052
  0
LINE
  8
0
 10
56.1053
 20
230.052
 11
56.1855
 21
230.223
  0
LINE
  8
0
 10
56.1855
 20
230.223
 11
56.2865
 21
230.382
  0
LINE
  8
0
 10
56.2865
 20
230.382
 11
56.4065
 21
230.527
  0
LINE
  8
0
 10
56.4065
 20
230.527
 11
56.5439
 21
230.656
  0
LINE
  8
0
 10
56.5439
 20
230.656
 11
56.6963
 21
230.766
  0
LINE
  8
0
 10
56.6963
 20
230.766
 11
56.8613
 21
230.857
  0
LINE
  8
0
 10
56.8613
 20
230.857
 11
57.0365
 21
230.927
  0
LINE
  8
0
 10
57.0365
 20
230.927
 11
57.2189
 21
230.973
  0
LINE
  8
0
 10
57.2189
 20
230.973
 11
57.4058
 21
230.997
  0
LINE
  8
0
 10
57.4058
 20
230.997
 11
57.5942
 21
230.997
  0
LINE
  8
0
 10
57.5942
 20
230.997
 11
57.7811
 21
230.973
  0
LINE
  8
0
 10
57.7811
 20
230.973
 11
57.9635
 21
230.927
  0
LINE
  8
0
 10
57.9635
 20
230.927
 11
58.1387
 21
230.857
  0
LINE
  8
0
 10
58.1387
 20
230.857
 11
58.3037
 21
230.766
  0
LINE
  8
0
 10
58.3037
 20
230.766
 11
58.4561
 21
230.656
  0
LINE
  8
0
 10
58.4561
 20
230.656
 11
58.5934
 21
230.527
  0
LINE
  8
0
 10
58.5934
 20
230.527
 11
58.7135
 21
230.382
  0
LINE
  8
0
 10
58.7135
 20
230.382
 11
58.8145
 21
230.223
  0
LINE
  8
0
 10
58.8145
 20
230.223
 11
58.8947
 21
230.052
  0
LINE
  8
0
 10
58.8947
 20
230.052
 11
58.9529
 21
229.873
  0
LINE
  8
0
 10
58.9529
 20
229.873
 11
58.9882
 21
229.688
  0
LINE
  8
0
 10
58.9882
 20
229.688
 11
59
 21
229.5
  0
LINE
  8
0
 10
59
 20
229.5
 11
58.9882
 21
229.312
  0
LINE
  8
0
 10
58.9882
 20
229.312
 11
58.9529
 21
229.127
  0
LINE
  8
0
 10
58.9529
 20
229.127
 11
58.8947
 21
228.948
  0
LINE
  8
0
 10
58.8947
 20
228.948
 11
58.8145
 21
228.777
  0
LINE
  8
0
 10
58.8145
 20
228.777
 11
58.7135
 21
228.618
  0
LINE
  8
0
 10
58.7135
 20
228.618
 11
58.5934
 21
228.473
  0
LINE
  8
0
 10
58.5934
 20
228.473
 11
58.4561
 21
228.344
  0
LINE
  8
0
 10
58.4561
 20
228.344
 11
58.3037
 21
228.234
  0
LINE
  8
0
 10
58.3037
 20
228.234
 11
58.1387
 21
228.143
  0
LINE
  8
0
 10
58.1387
 20
228.143
 11
57.9635
 21
228.073
  0
LINE
  8
0
 10
57.9635
 20
228.073
 11
57.7811
 21
228.027
  0
LINE
  8
0
 10
57.7811
 20
228.027
 11
57.5942
 21
228.003
  0
LINE
  8
0
 10
57.5942
 20
228.003
 11
57.4058
 21
228.003
  0
LINE
  8
0
 10
42.4058
 20
228.003
 11
42.2189
 21
228.027
  0
LINE
  8
0
 10
42.2189
 20
228.027
 11
42.0365
 21
228.073
  0
LINE
  8
0
 10
42.0365
 20
228.073
 11
41.8613
 21
228.143
  0
LINE
  8
0
 10
41.8613
 20
228.143
 11
41.6963
 21
228.234
  0
LINE
  8
0
 10
41.6963
 20
228.234
 11
41.5439
 21
228.344
  0
LINE
  8
0
 10
41.5439
 20
228.344
 11
41.4065
 21
228.473
  0
LINE
  8
0
 10
41.4065
 20
228.473
 11
41.2865
 21
228.618
  0
LINE
  8
0
 10
41.2865
 20
228.618
 11
41.1855
 21
228.777
  0
LINE
  8
0
 10
41.1855
 20
228.777
 11
41.1053
 21
228.948
  0
LINE
  8
0
 10
41.1053
 20
228.948
 11
41.0471
 21
229.127
  0
LINE
  8
0
 10
41.0471
 20
229.127
 11
41.0118
 21
229.312
  0
LINE
  8
0
 10
41.0118
 20
229.312
 11
41
 21
229.5
  0
LINE
  8
0
 10
41
 20
229.5
 11
41.0118
 21
229.688
  0
LINE
  8
0
 10
41.0118
 20
229.688
 11
41.0471
 21
229.873
  0
LINE
  8
0
 10
41.0471
 20
229.873
 11
41.1053
 21
230.052
  0
LINE
  8
0
 10
41.1053
 20
230.052
 11
41.1855
 21
230.223
  0
LINE
  8
0
 10
41.1855
 20
230.223
 11
41.2865
 21
230.382
  0
LINE
  8
0
 10
41.2865
 20
230.382
 11
41.4065
 21
230.527
  0
LINE
  8
0
 10
41.4065
 20
230.527
 11
41.5439
 21
230.656
  0
LINE
  8
0
 10
41.5439
 20
230.656
 11
41.6963
 21
230.766
  0
LINE
  8
0
 10
41.6963
 20
230.766
 11
41.8613
 21
230.857
  0
LINE
  8
0
 10
41.8613
 20
230.857
 11
42.0365
 21
230.927
  0
LINE
  8
0
 10
42.0365
 20
230.927
 11
42.2189
 21
230.973
  0
LINE
  8
0
 10
42.2189
 20
230.973
 11
42.4058
 21
230.997
  0
LINE
  8
0
 10
42.4058
 20
230.997
 11
42.5942
 21
230.997
  0
LINE
  8
0
 10
42.5942
 20
230.997
 11
42.7811
 21
230.973
  0
LINE
  8
0
 10
42.7811
 20
230.973
 11
42.9635
 21
230.927
  0
LINE
  8
0
 10
42.9635
 20
230.927
 11
43.1387
 21
230.857
  0
LINE
  8
0
 10
43.1387
 20
230.857
 11
43.3037
 21
230.766
  0
LINE
  8
0
 10
43.3037
 20
230.766
 11
43.4561
 21
230.656
  0
LINE
  8
0
 10
43.4561
 20
230.656
 11
43.5934
 21
230.527
  0
LINE
  8
0
 10
43.5934
 20
230.527
 11
43.7135
 21
230.382
  0
LINE
  8
0
 10
43.7135
 20
230.382
 11
43.8145
 21
230.223
  0
LINE
  8
0
 10
43.8145
 20
230.223
 11
43.8947
 21
230.052
  0
LINE
  8
0
 10
43.8947
 20
230.052
 11
43.9529
 21
229.873
  0
LINE
  8
0
 10
43.9529
 20
229.873
 11
43.9882
 21
229.688
  0
LINE
  8
0
 10
43.9882
 20
229.688
 11
44
 21
229.5
  0
LINE
  8
0
 10
44
 20
229.5
 11
43.9882
 21
229.312
  0
LINE
  8
0
 10
43.9882
 20
229.312
 11
43.9529
 21
229.127
  0
LINE
  8
0
 10
43.9529
 20
229.127
 11
43.8947
 21
228.948
  0
LINE
  8
0
 10
43.8947
 20
228.948
 11
43.8145
 21
228.777
  0
LINE
  8
0
 10
43.8145
 20
228.777
 11
43.7135
 21
228.618
  0
LINE
  8
0
 10
43.7135
 20
228.618
 11
43.5934
 21
228.473
  0
LINE
  8
0
 10
43.5934
 20
228.473
 11
43.4561
 21
228.344
  0
LINE
  8
0
 10
43.4561
 20
228.344
 11
43.3037
 21
228.234
  0
LINE
  8
0
 10
43.3037
 20
228.234
 11
43.1387
 21
228.143
  0
LINE
  8
0
 10
43.1387
 20
228.143
 11
42.9635
 21
228.073
  0
LINE
  8
0
 10
42.9635
 20
228.073
 11
42.7811
 21
228.027
  0
LINE
  8
0
 10
42.7811
 20
228.027
 11
42.5942
 21
228.003
  0
LINE
  8
0
 10
42.5942
 20
228.003
 11
42.4058
 21
228.003
  0
LINE
  8
0
 10
42.3116
 20
219.006
 11
41.9379
 21
219.053
  0
LINE
  8
0
 10
41.9379
 20
219.053
 11
41.5729
 21
219.147
  0
LINE
  8
0
 10
41.5729
 20
219.147
 11
41.2227
 21
219.286
  0
LINE
  8
0
 10
41.2227
 20
219.286
 11
40.8925
 21
219.467
  0
LINE
  8
0
 10
40.8925
 20
219.467
 11
40.5877
 21
219.688
  0
LINE
  8
0
 10
40.5877
 20
219.688
 11
40.3131
 21
219.946
  0
LINE
  8
0
 10
40.3131
 20
219.946
 11
40.0729
 21
220.237
  0
LINE
  8
0
 10
40.0729
 20
220.237
 11
39.8711
 21
220.555
  0
LINE
  8
0
 10
39.8711
 20
220.555
 11
39.7107
 21
220.896
  0
LINE
  8
0
 10
39.7107
 20
220.896
 11
39.5942
 21
221.254
  0
LINE
  8
0
 10
39.5942
 20
221.254
 11
39.5237
 21
221.624
  0
LINE
  8
0
 10
39.5237
 20
221.624
 11
39.5
 21
222
  0
LINE
  8
0
 10
39.5
 20
222
 11
39.5237
 21
222.376
  0
LINE
  8
0
 10
39.5237
 20
222.376
 11
39.5942
 21
222.746
  0
LINE
  8
0
 10
39.5942
 20
222.746
 11
39.7107
 21
223.104
  0
LINE
  8
0
 10
39.7107
 20
223.104
 11
39.8711
 21
223.445
  0
LINE
  8
0
 10
39.8711
 20
223.445
 11
40.0729
 21
223.763
  0
LINE
  8
0
 10
40.0729
 20
223.763
 11
40.3131
 21
224.054
  0
LINE
  8
0
 10
40.3131
 20
224.054
 11
40.5877
 21
224.312
  0
LINE
  8
0
 10
40.5877
 20
224.312
 11
40.8925
 21
224.533
  0
LINE
  8
0
 10
40.8925
 20
224.533
 11
41.2227
 21
224.714
  0
LINE
  8
0
 10
41.2227
 20
224.714
 11
41.5729
 21
224.853
  0
LINE
  8
0
 10
41.5729
 20
224.853
 11
41.9379
 21
224.947
  0
LINE
  8
0
 10
41.9379
 20
224.947
 11
42.3116
 21
224.994
  0
LINE
  8
0
 10
42.3116
 20
224.994
 11
42.6884
 21
224.994
  0
LINE
  8
0
 10
42.6884
 20
224.994
 11
43.0621
 21
224.947
  0
LINE
  8
0
 10
43.0621
 20
224.947
 11
43.427
 21
224.853
  0
LINE
  8
0
 10
43.427
 20
224.853
 11
43.7773
 21
224.714
  0
LINE
  8
0
 10
43.7773
 20
224.714
 11
44.1075
 21
224.533
  0
LINE
  8
0
 10
44.1075
 20
224.533
 11
44.4123
 21
224.312
  0
LINE
  8
0
 10
44.4123
 20
224.312
 11
44.6869
 21
224.054
  0
LINE
  8
0
 10
44.6869
 20
224.054
 11
44.927
 21
223.763
  0
LINE
  8
0
 10
44.927
 20
223.763
 11
45.1289
 21
223.445
  0
LINE
  8
0
 10
45.1289
 20
223.445
 11
45.2893
 21
223.104
  0
LINE
  8
0
 10
45.2893
 20
223.104
 11
45.4057
 21
222.746
  0
LINE
  8
0
 10
45.4057
 20
222.746
 11
45.4763
 21
222.376
  0
LINE
  8
0
 10
45.4763
 20
222.376
 11
45.5
 21
222
  0
LINE
  8
0
 10
45.5
 20
222
 11
45.4763
 21
221.624
  0
LINE
  8
0
 10
45.4763
 20
221.624
 11
45.4057
 21
221.254
  0
LINE
  8
0
 10
45.4057
 20
221.254
 11
45.2893
 21
220.896
  0
LINE
  8
0
 10
45.2893
 20
220.896
 11
45.1289
 21
220.555
  0
LINE
  8
0
 10
45.1289
 20
220.555
 11
44.927
 21
220.237
  0
LINE
  8
0
 10
44.927
 20
220.237
 11
44.6869
 21
219.946
  0
LINE
  8
0
 10
44.6869
 20
219.946
 11
44.4123
 21
219.688
  0
LINE
  8
0
 10
44.4123
 20
219.688
 11
44.1075
 21
219.467
  0
LINE
  8
0
 10
44.1075
 20
219.467
 11
43.7773
 21
219.286
  0
LINE
  8
0
 10
43.7773
 20
219.286
 11
43.427
 21
219.147
  0
LINE
  8
0
 10
43.427
 20
219.147
 11
43.0621
 21
219.053
  0
LINE
  8
0
 10
43.0621
 20
219.053
 11
42.6884
 21
219.006
  0
LINE
  8
0
 10
42.6884
 20
219.006
 11
42.3116
 21
219.006
  0
LINE
  8
0
 10
57.3116
 20
219.006
 11
56.9379
 21
219.053
  0
LINE
  8
0
 10
56.9379
 20
219.053
 11
56.5729
 21
219.147
  0
LINE
  8
0
 10
56.5729
 20
219.147
 11
56.2227
 21
219.286
  0
LINE
  8
0
 10
56.2227
 20
219.286
 11
55.8925
 21
219.467
  0
LINE
  8
0
 10
55.8925
 20
219.467
 11
55.5877
 21
219.688
  0
LINE
  8
0
 10
55.5877
 20
219.688
 11
55.3131
 21
219.946
  0
LINE
  8
0
 10
55.3131
 20
219.946
 11
55.0729
 21
220.237
  0
LINE
  8
0
 10
55.0729
 20
220.237
 11
54.8711
 21
220.555
  0
LINE
  8
0
 10
54.8711
 20
220.555
 11
54.7107
 21
220.896
  0
LINE
  8
0
 10
54.7107
 20
220.896
 11
54.5942
 21
221.254
  0
LINE
  8
0
 10
54.5942
 20
221.254
 11
54.5237
 21
221.624
  0
LINE
  8
0
 10
54.5237
 20
221.624
 11
54.5
 21
222
  0
LINE
  8
0
 10
54.5
 20
222
 11
54.5237
 21
222.376
  0
LINE
  8
0
 10
54.5237
 20
222.376
 11
54.5942
 21
222.746
  0
LINE
  8
0
 10
54.5942
 20
222.746
 11
54.7107
 21
223.104
  0
LINE
  8
0
 10
54.7107
 20
223.104
 11
54.8711
 21
223.445
  0
LINE
  8
0
 10
54.8711
 20
223.445
 11
55.0729
 21
223.763
  0
LINE
  8
0
 10
55.0729
 20
223.763
 11
55.3131
 21
224.054
  0
LINE
  8
0
 10
55.3131
 20
224.054
 11
55.5877
 21
224.312
  0
LINE
  8
0
 10
55.5877
 20
224.312
 11
55.8925
 21
224.533
  0
LINE
  8
0
 10
55.8925
 20
224.533
 11
56.2227
 21
224.714
  0
LINE
  8
0
 10
56.2227
 20
224.714
 11
56.5729
 21
224.853
  0
LINE
  8
0
 10
56.5729
 20
224.853
 11
56.9379
 21
224.947
  0
LINE
  8
0
 10
56.9379
 20
224.947
 11
57.3116
 21
224.994
  0
LINE
  8
0
 10
57.3116
 20
224.994
 11
57.6884
 21
224.994
  0
LINE
  8
0
 10
57.6884
 20
224.994
 11
58.0621
 21
224.947
  0
LINE
  8
0
 10
58.0621
 20
224.947
 11
58.427
 21
224.853
  0
LINE
  8
0
 10
58.427
 20
224.853
 11
58.7773
 21
224.714
  0
LINE
  8
0
 10
58.7773
 20
224.714
 11
59.1075
 21
224.533
  0
LINE
  8
0
 10
59.1075
 20
224.533
 11
59.4123
 21
224.312
  0
LINE
  8
0
 10
59.4123
 20
224.312
 11
59.6869
 21
224.054
  0
LINE
  8
0
 10
59.6869
 20
224.054
 11
59.927
 21
223.763
  0
LINE
  8
0
 10
59.927
 20
223.763
 11
60.1289
 21
223.445
  0
LINE
  8
0
 10
60.1289
 20
223.445
 11
60.2893
 21
223.104
  0
LINE
  8
0
 10
60.2893
 20
223.104
 11
60.4057
 21
222.746
  0
LINE
  8
0
 10
60.4057
 20
222.746
 11
60.4763
 21
222.376
  0
LINE
  8
0
 10
60.4763
 20
222.376
 11
60.5
 21
222
  0
LINE
  8
0
 10
60.5
 20
222
 11
60.4763
 21
221.624
  0
LINE
  8
0
 10
60.4763
 20
221.624
 11
60.4057
 21
221.254
  0
LINE
  8
0
 10
60.4057
 20
221.254
 11
60.2893
 21
220.896
  0
LINE
  8
0
 10
60.2893
 20
220.896
 11
60.1289
 21
220.555
  0
LINE
  8
0
 10
60.1289
 20
220.555
 11
59.927
 21
220.237
  0
LINE
  8
0
 10
59.927
 20
220.237
 11
59.6869
 21
219.946
  0
LINE
  8
0
 10
59.6869
 20
219.946
 11
59.4123
 21
219.688
  0
LINE
  8
0
 10
59.4123
 20
219.688
 11
59.1075
 21
219.467
  0
LINE
  8
0
 10
59.1075
 20
219.467
 11
58.7773
 21
219.286
  0
LINE
  8
0
 10
58.7773
 20
219.286
 11
58.427
 21
219.147
  0
LINE
  8
0
 10
58.427
 20
219.147
 11
58.0621
 21
219.053
  0
LINE
  8
0
 10
58.0621
 20
219.053
 11
57.6884
 21
219.006
  0
LINE
  8
0
 10
57.6884
 20
219.006
 11
57.3116
 21
219.006
  0
LINE
  8
0
 10
49.9058
 20
220.503
 11
49.7189
 21
220.527
  0
LINE
  8
0
 10
49.7189
 20
220.527
 11
49.5365
 21
220.573
  0
LINE
  8
0
 10
49.5365
 20
220.573
 11
49.3613
 21
220.643
  0
LINE
  8
0
 10
49.3613
 20
220.643
 11
49.1963
 21
220.734
  0
LINE
  8
0
 10
49.1963
 20
220.734
 11
49.0439
 21
220.844
  0
LINE
  8
0
 10
49.0439
 20
220.844
 11
48.9065
 21
220.973
  0
LINE
  8
0
 10
48.9065
 20
220.973
 11
48.7865
 21
221.118
  0
LINE
  8
0
 10
48.7865
 20
221.118
 11
48.6855
 21
221.277
  0
LINE
  8
0
 10
48.6855
 20
221.277
 11
48.6053
 21
221.448
  0
LINE
  8
0
 10
48.6053
 20
221.448
 11
48.5471
 21
221.627
  0
LINE
  8
0
 10
48.5471
 20
221.627
 11
48.5118
 21
221.812
  0
LINE
  8
0
 10
48.5118
 20
221.812
 11
48.5
 21
222
  0
LINE
  8
0
 10
48.5
 20
222
 11
48.5118
 21
222.188
  0
LINE
  8
0
 10
48.5118
 20
222.188
 11
48.5471
 21
222.373
  0
LINE
  8
0
 10
48.5471
 20
222.373
 11
48.6053
 21
222.552
  0
LINE
  8
0
 10
48.6053
 20
222.552
 11
48.6855
 21
222.723
  0
LINE
  8
0
 10
48.6855
 20
222.723
 11
48.7865
 21
222.882
  0
LINE
  8
0
 10
48.7865
 20
222.882
 11
48.9065
 21
223.027
  0
LINE
  8
0
 10
48.9065
 20
223.027
 11
49.0439
 21
223.156
  0
LINE
  8
0
 10
49.0439
 20
223.156
 11
49.1963
 21
223.266
  0
LINE
  8
0
 10
49.1963
 20
223.266
 11
49.3613
 21
223.357
  0
LINE
  8
0
 10
49.3613
 20
223.357
 11
49.5365
 21
223.427
  0
LINE
  8
0
 10
49.5365
 20
223.427
 11
49.7189
 21
223.473
  0
LINE
  8
0
 10
49.7189
 20
223.473
 11
49.9058
 21
223.497
  0
LINE
  8
0
 10
49.9058
 20
223.497
 11
50.0942
 21
223.497
  0
LINE
  8
0
 10
50.0942
 20
223.497
 11
50.2811
 21
223.473
  0
LINE
  8
0
 10
50.2811
 20
223.473
 11
50.4635
 21
223.427
  0
LINE
  8
0
 10
50.4635
 20
223.427
 11
50.6387
 21
223.357
  0
LINE
  8
0
 10
50.6387
 20
223.357
 11
50.8037
 21
223.266
  0
LINE
  8
0
 10
50.8037
 20
223.266
 11
50.9561
 21
223.156
  0
LINE
  8
0
 10
50.9561
 20
223.156
 11
51.0934
 21
223.027
  0
LINE
  8
0
 10
51.0934
 20
223.027
 11
51.2135
 21
222.882
  0
LINE
  8
0
 10
51.2135
 20
222.882
 11
51.3145
 21
222.723
  0
LINE
  8
0
 10
51.3145
 20
222.723
 11
51.3947
 21
222.552
  0
LINE
  8
0
 10
51.3947
 20
222.552
 11
51.4529
 21
222.373
  0
LINE
  8
0
 10
51.4529
 20
222.373
 11
51.4882
 21
222.188
  0
LINE
  8
0
 10
51.4882
 20
222.188
 11
51.5
 21
222
  0
LINE
  8
0
 10
51.5
 20
222
 11
51.4882
 21
221.812
  0
LINE
  8
0
 10
51.4882
 20
221.812
 11
51.4529
 21
221.627
  0
LINE
  8
0
 10
51.4529
 20
221.627
 11
51.3947
 21
221.448
  0
LINE
  8
0
 10
51.3947
 20
221.448
 11
51.3145
 21
221.277
  0
LINE
  8
0
 10
51.3145
 20
221.277
 11
51.2135
 21
221.118
  0
LINE
  8
0
 10
51.2135
 20
221.118
 11
51.0934
 21
220.973
  0
LINE
  8
0
 10
51.0934
 20
220.973
 11
50.9561
 21
220.844
  0
LINE
  8
0
 10
50.9561
 20
220.844
 11
50.8037
 21
220.734
  0
LINE
  8
0
 10
50.8037
 20
220.734
 11
50.6387
 21
220.643
  0
LINE
  8
0
 10
50.6387
 20
220.643
 11
50.4635
 21
220.573
  0
LINE
  8
0
 10
50.4635
 20
220.573
 11
50.2811
 21
220.527
  0
LINE
  8
0
 10
50.2811
 20
220.527
 11
50.0942
 21
220.503
  0
LINE
  8
0
 10
50.0942
 20
220.503
 11
49.9058
 21
220.503
  0
LINE
  8
0
 10
60.4369
 20
131.089
 11
61.0451
 21
131.245
  0
LINE
  8
0
 10
61.0451
 20
131.245
 11
61.6289
 21
131.476
  0
LINE
  8
0
 10
61.6289
 20
131.476
 11
62.1791
 21
131.778
  0
LINE
  8
0
 10
62.1791
 20
131.778
 11
62.6871
 21
132.147
  0
LINE
  8
0
 10
62.6871
 20
132.147
 11
63.1448
 21
132.577
  0
LINE
  8
0
 10
63.1448
 20
132.577
 11
63.5451
 21
133.061
  0
LINE
  8
0
 10
63.5451
 20
133.061
 11
63.8815
 21
133.591
  0
LINE
  8
0
 10
63.8815
 20
133.591
 11
64.1489
 21
134.159
  0
LINE
  8
0
 10
64.1489
 20
134.159
 11
64.3429
 21
134.757
  0
LINE
  8
0
 10
64.3429
 20
134.757
 11
64.4606
 21
135.373
  0
LINE
  8
0
 10
64.4606
 20
135.373
 11
64.5
 21
136
  0
LINE
  8
0
 10
64.5
 20
136
 11
64.5
 21
200
  0
LINE
  8
0
 10
64.5
 20
200
 11
64.4606
 21
200.627
  0
LINE
  8
0
 10
64.4606
 20
200.627
 11
64.3429
 21
201.243
  0
LINE
  8
0
 10
64.3429
 20
201.243
 11
64.1489
 21
201.841
  0
LINE
  8
0
 10
64.1489
 20
201.841
 11
63.8815
 21
202.409
  0
LINE
  8
0
 10
63.8815
 20
202.409
 11
63.5451
 21
202.939
  0
LINE
  8
0
 10
63.5451
 20
202.939
 11
63.1448
 21
203.423
  0
LINE
  8
0
 10
63.1448
 20
203.423
 11
62.6871
 21
203.853
  0
LINE
  8
0
 10
62.6871
 20
203.853
 11
62.1791
 21
204.222
  0
LINE
  8
0
 10
62.1791
 20
204.222
 11
61.6289
 21
204.524
  0
LINE
  8
0
 10
61.6289
 20
204.524
 11
61.0451
 21
204.755
  0
LINE
  8
0
 10
61.0451
 20
204.755
 11
60.4369
 21
204.911
  0
LINE
  8
0
 10
60.4369
 20
204.911
 11
59.8139
 21
204.99
  0
LINE
  8
0
 10
59.8139
 20
204.99
 11
40.186
 21
204.99
  0
LINE
  8
0
 10
40.186
 20
204.99
 11
39.5631
 21
204.911
  0
LINE
  8
0
 10
39.5631
 20
204.911
 11
38.9549
 21
204.755
  0
LINE
  8
0
 10
38.9549
 20
204.755
 11
38.3711
 21
204.524
  0
LINE
  8
0
 10
38.3711
 20
204.524
 11
37.8209
 21
204.222
  0
LINE
  8
0
 10
37.8209
 20
204.222
 11
37.3129
 21
203.853
  0
LINE
  8
0
 10
37.3129
 20
203.853
 11
36.8551
 21
203.423
  0
LINE
  8
0
 10
36.8551
 20
203.423
 11
36.4549
 21
202.939
  0
LINE
  8
0
 10
36.4549
 20
202.939
 11
36.1185
 21
202.409
  0
LINE
  8
0
 10
36.1185
 20
202.409
 11
35.8511
 21
201.841
  0
LINE
  8
0
 10
35.8511
 20
201.841
 11
35.6571
 21
201.243
  0
LINE
  8
0
 10
35.6571
 20
201.243
 11
35.5394
 21
200.627
  0
LINE
  8
0
 10
35.5394
 20
200.627
 11
35.5
 21
200
  0
LINE
  8
0
 10
35.5
 20
200
 11
35.5
 21
136
  0
LINE
  8
0
 10
35.5
 20
136
 11
35.5394
 21
135.373
  0
LINE
  8
0
 10
35.5394
 20
135.373
 11
35.6571
 21
134.757
  0
LINE
  8
0
 10
35.6571
 20
134.757
 11
35.8511
 21
134.159
  0
LINE
  8
0
 10
35.8511
 20
134.159
 11
36.1185
 21
133.591
  0
LINE
  8
0
 10
36.1185
 20
133.591
 11
36.4549
 21
133.061
  0
LINE
  8
0
 10
36.4549
 20
133.061
 11
36.8551
 21
132.577
  0
LINE
  8
0
 10
36.8551
 20
132.577
 11
37.3129
 21
132.147
  0
LINE
  8
0
 10
37.3129
 20
132.147
 11
37.8209
 21
131.778
  0
LINE
  8
0
 10
37.8209
 20
131.778
 11
38.3711
 21
131.476
  0
LINE
  8
0
 10
38.3711
 20
131.476
 11
38.9549
 21
131.245
  0
LINE
  8
0
 10
38.9549
 20
131.245
 11
39.5631
 21
131.089
  0
LINE
  8
0
 10
39.5631
 20
131.089
 11
40.186
 21
131.01
  0
LINE
  8
0
 10
40.186
 20
131.01
 11
59.8139
 21
131.01
  0
LINE
  8
0
 10
59.8139
 20
131.01
 11
60.4369
 21
131.089
  0
LINE
  8
0
 10
42.3116
 20
195.006
 11
41.9379
 21
195.053
  0
LINE
  8
0
 10
41.9379
 20
195.053
 11
41.5729
 21
195.147
  0
LINE
  8
0
 10
41.5729
 20
195.147
 11
41.2227
 21
195.286
  0
LINE
  8
0
 10
41.2227
 20
195.286
 11
40.8925
 21
195.467
  0
LINE
  8
0
 10
40.8925
 20
195.467
 11
40.5877
 21
195.688
  0
LINE
  8
0
 10
40.5877
 20
195.688
 11
40.3131
 21
195.946
  0
LINE
  8
0
 10
40.3131
 20
195.946
 11
40.0729
 21
196.237
  0
LINE
  8
0
 10
40.0729
 20
196.237
 11
39.8711
 21
196.555
  0
LINE
  8
0
 10
39.8711
 20
196.555
 11
39.7107
 21
196.896
  0
LINE
  8
0
 10
39.7107
 20
196.896
 11
39.5942
 21
197.254
  0
LINE
  8
0
 10
39.5942
 20
197.254
 11
39.5237
 21
197.624
  0
LINE
  8
0
 10
39.5237
 20
197.624
 11
39.5
 21
198
  0
LINE
  8
0
 10
39.5
 20
198
 11
39.5237
 21
198.376
  0
LINE
  8
0
 10
39.5237
 20
198.376
 11
39.5942
 21
198.746
  0
LINE
  8
0
 10
39.5942
 20
198.746
 11
39.7107
 21
199.104
  0
LINE
  8
0
 10
39.7107
 20
199.104
 11
39.8711
 21
199.445
  0
LINE
  8
0
 10
39.8711
 20
199.445
 11
40.0729
 21
199.763
  0
LINE
  8
0
 10
40.0729
 20
199.763
 11
40.3131
 21
200.054
  0
LINE
  8
0
 10
40.3131
 20
200.054
 11
40.5877
 21
200.312
  0
LINE
  8
0
 10
40.5877
 20
200.312
 11
40.8925
 21
200.533
  0
LINE
  8
0
 10
40.8925
 20
200.533
 11
41.2227
 21
200.714
  0
LINE
  8
0
 10
41.2227
 20
200.714
 11
41.5729
 21
200.853
  0
LINE
  8
0
 10
41.5729
 20
200.853
 11
41.9379
 21
200.947
  0
LINE
  8
0
 10
41.9379
 20
200.947
 11
42.3116
 21
200.994
  0
LINE
  8
0
 10
42.3116
 20
200.994
 11
42.6884
 21
200.994
  0
LINE
  8
0
 10
42.6884
 20
200.994
 11
43.0621
 21
200.947
  0
LINE
  8
0
 10
43.0621
 20
200.947
 11
43.427
 21
200.853
  0
LINE
  8
0
 10
43.427
 20
200.853
 11
43.7773
 21
200.714
  0
LINE
  8
0
 10
43.7773
 20
200.714
 11
44.1075
 21
200.533
  0
LINE
  8
0
 10
44.1075
 20
200.533
 11
44.4123
 21
200.312
  0
LINE
  8
0
 10
44.4123
 20
200.312
 11
44.6869
 21
200.054
  0
LINE
  8
0
 10
44.6869
 20
200.054
 11
44.927
 21
199.763
  0
LINE
  8
0
 10
44.927
 20
199.763
 11
45.1289
 21
199.445
  0
LINE
  8
0
 10
45.1289
 20
199.445
 11
45.2893
 21
199.104
  0
LINE
  8
0
 10
45.2893
 20
199.104
 11
45.4057
 21
198.746
  0
LINE
  8
0
 10
45.4057
 20
198.746
 11
45.4763
 21
198.376
  0
LINE
  8
0
 10
45.4763
 20
198.376
 11
45.5
 21
198
  0
LINE
  8
0
 10
45.5
 20
198
 11
45.4763
 21
197.624
  0
LINE
  8
0
 10
45.4763
 20
197.624
 11
45.4057
 21
197.254
  0
LINE
  8
0
 10
45.4057
 20
197.254
 11
45.2893
 21
196.896
  0
LINE
  8
0
 10
45.2893
 20
196.896
 11
45.1289
 21
196.555
  0
LINE
  8
0
 10
45.1289
 20
196.555
 11
44.927
 21
196.237
  0
LINE
  8
0
 10
44.927
 20
196.237
 11
44.6869
 21
195.946
  0
LINE
  8
0
 10
44.6869
 20
195.946
 11
44.4123
 21
195.688
  0
LINE
  8
0
 10
44.4123
 20
195.688
 11
44.1075
 21
195.467
  0
LINE
  8
0
 10
44.1075
 20
195.467
 11
43.7773
 21
195.286
  0
LINE
  8
0
 10
43.7773
 20
195.286
 11
43.427
 21
195.147
  0
LINE
  8
0
 10
43.427
 20
195.147
 11
43.0621
 21
195.053
  0
LINE
  8
0
 10
43.0621
 20
195.053
 11
42.6884
 21
195.006
  0
LINE
  8
0
 10
42.6884
 20
195.006
 11
42.3116
 21
195.006
  0
LINE
  8
0
 10
57.3116
 20
195.006
 11
56.9379
 21
195.053
  0
LINE
  8
0
 10
56.9379
 20
195.053
 11
56.5729
 21
195.147
  0
LINE
  8
0
 10
56.5729
 20
195.147
 11
56.2227
 21
195.286
  0
LINE
  8
0
 10
56.2227
 20
195.286
 11
55.8925
 21
195.467
  0
LINE
  8
0
 10
55.8925
 20
195.467
 11
55.5877
 21
195.688
  0
LINE
  8
0
 10
55.5877
 20
195.688
 11
55.3131
 21
195.946
  0
LINE
  8
0
 10
55.3131
 20
195.946
 11
55.0729
 21
196.237
  0
LINE
  8
0
 10
55.0729
 20
196.237
 11
54.8711
 21
196.555
  0
LINE
  8
0
 10
54.8711
 20
196.555
 11
54.7107
 21
196.896
  0
LINE
  8
0
 10
54.7107
 20
196.896
 11
54.5942
 21
197.254
  0
LINE
  8
0
 10
54.5942
 20
197.254
 11
54.5237
 21
197.624
  0
LINE
  8
0
 10
54.5237
 20
197.624
 11
54.5
 21
198
  0
LINE
  8
0
 10
54.5
 20
198
 11
54.5237
 21
198.376
  0
LINE
  8
0
 10
54.5237
 20
198.376
 11
54.5942
 21
198.746
  0
LINE
  8
0
 10
54.5942
 20
198.746
 11
54.7107
 21
199.104
  0
LINE
  8
0
 10
54.7107
 20
199.104
 11
54.8711
 21
199.445
  0
LINE
  8
0
 10
54.8711
 20
199.445
 11
55.0729
 21
199.763
  0
LINE
  8
0
 10
55.0729
 20
199.763
 11
55.3131
 21
200.054
  0
LINE
  8
0
 10
55.3131
 20
200.054
 11
55.5877
 21
200.312
  0
LINE
  8
0
 10
55.5877
 20
200.312
 11
55.8925
 21
200.533
  0
LINE
  8
0
 10
55.8925
 20
200.533
 11
56.2227
 21
200.714
  0
LINE
  8
0
 10
56.2227
 20
200.714
 11
56.5729
 21
200.853
  0
LINE
  8
0
 10
56.5729
 20
200.853
 11
56.9379
 21
200.947
  0
LINE
  8
0
 10
56.9379
 20
200.947
 11
57.3116
 21
200.994
  0
LINE
  8
0
 10
57.3116
 20
200.994
 11
57.6884
 21
200.994
  0
LINE
  8
0
 10
57.6884
 20
200.994
 11
58.0621
 21
200.947
  0
LINE
  8
0
 10
58.0621
 20
200.947
 11
58.427
 21
200.853
  0
LINE
  8
0
 10
58.427
 20
200.853
 11
58.7773
 21
200.714
  0
LINE
  8
0
 10
58.7773
 20
200.714
 11
59.1075
 21
200.533
  0
LINE
  8
0
 10
59.1075
 20
200.533
 11
59.4123
 21
200.312
  0
LINE
  8
0
 10
59.4123
 20
200.312
 11
59.6869
 21
200.054
  0
LINE
  8
0
 10
59.6869
 20
200.054
 11
59.927
 21
199.763
  0
LINE
  8
0
 10
59.927
 20
199.763
 11
60.1289
 21
199.445
  0
LINE
  8
0
 10
60.1289
 20
199.445
 11
60.2893
 21
199.104
  0
LINE
  8
0
 10
60.2893
 20
199.104
 11
60.4057
 21
198.746
  0
LINE
  8
0
 10
60.4057
 20
198.746
 11
60.4763
 21
198.376
  0
LINE
  8
0
 10
60.4763
 20
198.376
 11
60.5
 21
198
  0
LINE
  8
0
 10
60.5
 20
198
 11
60.4763
 21
197.624
  0
LINE
  8
0
 10
60.4763
 20
197.624
 11
60.4057
 21
197.254
  0
LINE
  8
0
 10
60.4057
 20
197.254
 11
60.2893
 21
196.896
  0
LINE
  8
0
 10
60.2893
 20
196.896
 11
60.1289
 21
196.555
  0
LINE
  8
0
 10
60.1289
 20
196.555
 11
59.927
 21
196.237
  0
LINE
  8
0
 10
59.927
 20
196.237
 11
59.6869
 21
195.946
  0
LINE
  8
0
 10
59.6869
 20
195.946
 11
59.4123
 21
195.688
  0
LINE
  8
0
 10
59.4123
 20
195.688
 11
59.1075
 21
195.467
  0
LINE
  8
0
 10
59.1075
 20
195.467
 11
58.7773
 21
195.286
  0
LINE
  8
0
 10
58.7773
 20
195.286
 11
58.427
 21
195.147
  0
LINE
  8
0
 10
58.427
 20
195.147
 11
58.0621
 21
195.053
  0
LINE
  8
0
 10
58.0621
 20
195.053
 11
57.6884
 21
195.006
  0
LINE
  8
0
 10
57.6884
 20
195.006
 11
57.3116
 21
195.006
  0
LINE
  8
0
 10
49.9058
 20
196.503
 11
49.7189
 21
196.527
  0
LINE
  8
0
 10
49.7189
 20
196.527
 11
49.5365
 21
196.573
  0
LINE
  8
0
 10
49.5365
 20
196.573
 11
49.3613
 21
196.643
  0
LINE
  8
0
 10
49.3613
 20
196.643
 11
49.1963
 21
196.734
  0
LINE
  8
0
 10
49.1963
 20
196.734
 11
49.0439
 21
196.844
  0
LINE
  8
0
 10
49.0439
 20
196.844
 11
48.9065
 21
196.973
  0
LINE
  8
0
 10
48.9065
 20
196.973
 11
48.7865
 21
197.118
  0
LINE
  8
0
 10
48.7865
 20
197.118
 11
48.6855
 21
197.277
  0
LINE
  8
0
 10
48.6855
 20
197.277
 11
48.6053
 21
197.448
  0
LINE
  8
0
 10
48.6053
 20
197.448
 11
48.5471
 21
197.627
  0
LINE
  8
0
 10
48.5471
 20
197.627
 11
48.5118
 21
197.812
  0
LINE
  8
0
 10
48.5118
 20
197.812
 11
48.5
 21
198
  0
LINE
  8
0
 10
48.5
 20
198
 11
48.5118
 21
198.188
  0
LINE
  8
0
 10
48.5118
 20
198.188
 11
48.5471
 21
198.373
  0
LINE
  8
0
 10
48.5471
 20
198.373
 11
48.6053
 21
198.552
  0
LINE
  8
0
 10
48.6053
 20
198.552
 11
48.6855
 21
198.723
  0
LINE
  8
0
 10
48.6855
 20
198.723
 11
48.7865
 21
198.882
  0
LINE
  8
0
 10
48.7865
 20
198.882
 11
48.9065
 21
199.027
  0
LINE
  8
0
 10
48.9065
 20
199.027
 11
49.0439
 21
199.156
  0
LINE
  8
0
 10
49.0439
 20
199.156
 11
49.1963
 21
199.266
  0
LINE
  8
0
 10
49.1963
 20
199.266
 11
49.3613
 21
199.357
  0
LINE
  8
0
 10
49.3613
 20
199.357
 11
49.5365
 21
199.427
  0
LINE
  8
0
 10
49.5365
 20
199.427
 11
49.7189
 21
199.473
  0
LINE
  8
0
 10
49.7189
 20
199.473
 11
49.9058
 21
199.497
  0
LINE
  8
0
 10
49.9058
 20
199.497
 11
50.0942
 21
199.497
  0
LINE
  8
0
 10
50.0942
 20
199.497
 11
50.2811
 21
199.473
  0
LINE
  8
0
 10
50.2811
 20
199.473
 11
50.4635
 21
199.427
  0
LINE
  8
0
 10
50.4635
 20
199.427
 11
50.6387
 21
199.357
  0
LINE
  8
0
 10
50.6387
 20
199.357
 11
50.8037
 21
199.266
  0
LINE
  8
0
 10
50.8037
 20
199.266
 11
50.9561
 21
199.156
  0
LINE
  8
0
 10
50.9561
 20
199.156
 11
51.0934
 21
199.027
  0
LINE
  8
0
 10
51.0934
 20
199.027
 11
51.2135
 21
198.882
  0
LINE
  8
0
 10
51.2135
 20
198.882
 11
51.3145
 21
198.723
  0
LINE
  8
0
 10
51.3145
 20
198.723
 11
51.3947
 21
198.552
  0
LINE
  8
0
 10
51.3947
 20
198.552
 11
51.4529
 21
198.373
  0
LINE
  8
0
 10
51.4529
 20
198.373
 11
51.4882
 21
198.188
  0
LINE
  8
0
 10
51.4882
 20
198.188
 11
51.5
 21
198
  0
LINE
  8
0
 10
51.5
 20
198
 11
51.4882
 21
197.812
  0
LINE
  8
0
 10
51.4882
 20
197.812
 11
51.4529
 21
197.627
  0
LINE
  8
0
 10
51.4529
 20
197.627
 11
51.3947
 21
197.448
  0
LINE
  8
0
 10
51.3947
 20
197.448
 11
51.3145
 21
197.277
  0
LINE
  8
0
 10
51.3145
 20
197.277
 11
51.2135
 21
197.118
  0
LINE
  8
0
 10
51.2135
 20
197.118
 11
51.0934
 21
196.973
  0
LINE
  8
0
 10
51.0934
 20
196.973
 11
50.9561
 21
196.844
  0
LINE
  8
0
 10
50.9561
 20
196.844
 11
50.8037
 21
196.734
  0
LINE
  8
0
 10
50.8037
 20
196.734
 11
50.6387
 21
196.643
  0
LINE
  8
0
 10
50.6387
 20
196.643
 11
50.4635
 21
196.573
  0
LINE
  8
0
 10
50.4635
 20
196.573
 11
50.2811
 21
196.527
  0
LINE
  8
0
 10
50.2811
 20
196.527
 11
50.0942
 21
196.503
  0
LINE
  8
0
 10
50.0942
 20
196.503
 11
49.9058
 21
196.503
  0
LINE
  8
0
 10
49.887
 20
188.704
 11
49.6627
 21
188.732
  0
LINE
  8
0
 10
49.6627
 20
188.732
 11
49.4438
 21
188.788
  0
LINE
  8
0
 10
49.4438
 20
188.788
 11
49.2336
 21
188.871
  0
LINE
  8
0
 10
49.2336
 20
188.871
 11
49.0355
 21
188.98
  0
LINE
  8
0
 10
49.0355
 20
188.98
 11
48.8526
 21
189.113
  0
LINE
  8
0
 10
48.8526
 20
189.113
 11
48.6879
 21
189.268
  0
LINE
  8
0
 10
48.6879
 20
189.268
 11
48.5438
 21
189.442
  0
LINE
  8
0
 10
48.5438
 20
189.442
 11
48.4226
 21
189.633
  0
LINE
  8
0
 10
48.4226
 20
189.633
 11
48.3264
 21
189.837
  0
LINE
  8
0
 10
48.3264
 20
189.837
 11
48.2565
 21
190.052
  0
LINE
  8
0
 10
48.2565
 20
190.052
 11
48.2142
 21
190.274
  0
LINE
  8
0
 10
48.2142
 20
190.274
 11
48.2
 21
190.5
  0
LINE
  8
0
 10
48.2
 20
190.5
 11
48.2142
 21
190.726
  0
LINE
  8
0
 10
48.2142
 20
190.726
 11
48.2565
 21
190.948
  0
LINE
  8
0
 10
48.2565
 20
190.948
 11
48.3264
 21
191.163
  0
LINE
  8
0
 10
48.3264
 20
191.163
 11
48.4226
 21
191.367
  0
LINE
  8
0
 10
48.4226
 20
191.367
 11
48.5438
 21
191.558
  0
LINE
  8
0
 10
48.5438
 20
191.558
 11
48.6879
 21
191.732
  0
LINE
  8
0
 10
48.6879
 20
191.732
 11
48.8526
 21
191.887
  0
LINE
  8
0
 10
48.8526
 20
191.887
 11
49.0355
 21
192.02
  0
LINE
  8
0
 10
49.0355
 20
192.02
 11
49.2336
 21
192.129
  0
LINE
  8
0
 10
49.2336
 20
192.129
 11
49.4438
 21
192.212
  0
LINE
  8
0
 10
49.4438
 20
192.212
 11
49.6627
 21
192.268
  0
LINE
  8
0
 10
49.6627
 20
192.268
 11
49.887
 21
192.296
  0
LINE
  8
0
 10
49.887
 20
192.296
 11
50.113
 21
192.296
  0
LINE
  8
0
 10
50.113
 20
192.296
 11
50.3373
 21
192.268
  0
LINE
  8
0
 10
50.3373
 20
192.268
 11
50.5562
 21
192.212
  0
LINE
  8
0
 10
50.5562
 20
192.212
 11
50.7664
 21
192.129
  0
LINE
  8
0
 10
50.7664
 20
192.129
 11
50.9645
 21
192.02
  0
LINE
  8
0
 10
50.9645
 20
192.02
 11
51.1474
 21
191.887
  0
LINE
  8
0
 10
51.1474
 20
191.887
 11
51.3121
 21
191.732
  0
LINE
  8
0
 10
51.3121
 20
191.732
 11
51.4562
 21
191.558
  0
LINE
  8
0
 10
51.4562
 20
191.558
 11
51.5773
 21
191.367
  0
LINE
  8
0
 10
51.5773
 20
191.367
 11
51.6736
 21
191.163
  0
LINE
  8
0
 10
51.6736
 20
191.163
 11
51.7434
 21
190.948
  0
LINE
  8
0
 10
51.7434
 20
190.948
 11
51.7858
 21
190.726
  0
LINE
  8
0
 10
51.7858
 20
190.726
 11
51.8
 21
190.5
  0
LINE
  8
0
 10
51.8
 20
190.5
 11
51.7858
 21
190.274
  0
LINE
  8
0
 10
51.7858
 20
190.274
 11
51.7434
 21
190.052
  0
LINE
  8
0
 10
51.7434
 20
190.052
 11
51.6736
 21
189.837
  0
LINE
  8
0
 10
51.6736
 20
189.837
 11
51.5773
 21
189.633
  0
LINE
  8
0
 10
51.5773
 20
189.633
 11
51.4562
 21
189.442
  0
LINE
  8
0
 10
51.4562
 20
189.442
 11
51.3121
 21
189.268
  0
LINE
  8
0
 10
51.3121
 20
189.268
 11
51.1474
 21
189.113
  0
LINE
  8
0
 10
51.1474
 20
189.113
 11
50.9645
 21
188.98
  0
LINE
  8
0
 10
50.9645
 20
188.98
 11
50.7664
 21
188.871
  0
LINE
  8
0
 10
50.7664
 20
188.871
 11
50.5562
 21
188.788
  0
LINE
  8
0
 10
50.5562
 20
188.788
 11
50.3373
 21
188.732
  0
LINE
  8
0
 10
50.3373
 20
188.732
 11
50.113
 21
188.704
  0
LINE
  8
0
 10
50.113
 20
188.704
 11
49.887
 21
188.704
  0
LINE
  8
0
 10
42.4058
 20
189.003
 11
42.2189
 21
189.027
  0
LINE
  8
0
 10
42.2189
 20
189.027
 11
42.0365
 21
189.073
  0
LINE
  8
0
 10
42.0365
 20
189.073
 11
41.8613
 21
189.143
  0
LINE
  8
0
 10
41.8613
 20
189.143
 11
41.6963
 21
189.234
  0
LINE
  8
0
 10
41.6963
 20
189.234
 11
41.5439
 21
189.344
  0
LINE
  8
0
 10
41.5439
 20
189.344
 11
41.4065
 21
189.473
  0
LINE
  8
0
 10
41.4065
 20
189.473
 11
41.2865
 21
189.618
  0
LINE
  8
0
 10
41.2865
 20
189.618
 11
41.1855
 21
189.777
  0
LINE
  8
0
 10
41.1855
 20
189.777
 11
41.1053
 21
189.948
  0
LINE
  8
0
 10
41.1053
 20
189.948
 11
41.0471
 21
190.127
  0
LINE
  8
0
 10
41.0471
 20
190.127
 11
41.0118
 21
190.312
  0
LINE
  8
0
 10
41.0118
 20
190.312
 11
41
 21
190.5
  0
LINE
  8
0
 10
41
 20
190.5
 11
41.0118
 21
190.688
  0
LINE
  8
0
 10
41.0118
 20
190.688
 11
41.0471
 21
190.873
  0
LINE
  8
0
 10
41.0471
 20
190.873
 11
41.1053
 21
191.052
  0
LINE
  8
0
 10
41.1053
 20
191.052
 11
41.1855
 21
191.223
  0
LINE
  8
0
 10
41.1855
 20
191.223
 11
41.2865
 21
191.382
  0
LINE
  8
0
 10
41.2865
 20
191.382
 11
41.4065
 21
191.527
  0
LINE
  8
0
 10
41.4065
 20
191.527
 11
41.5439
 21
191.656
  0
LINE
  8
0
 10
41.5439
 20
191.656
 11
41.6963
 21
191.766
  0
LINE
  8
0
 10
41.6963
 20
191.766
 11
41.8613
 21
191.857
  0
LINE
  8
0
 10
41.8613
 20
191.857
 11
42.0365
 21
191.927
  0
LINE
  8
0
 10
42.0365
 20
191.927
 11
42.2189
 21
191.973
  0
LINE
  8
0
 10
42.2189
 20
191.973
 11
42.4058
 21
191.997
  0
LINE
  8
0
 10
42.4058
 20
191.997
 11
42.5942
 21
191.997
  0
LINE
  8
0
 10
42.5942
 20
191.997
 11
42.7811
 21
191.973
  0
LINE
  8
0
 10
42.7811
 20
191.973
 11
42.9635
 21
191.927
  0
LINE
  8
0
 10
42.9635
 20
191.927
 11
43.1387
 21
191.857
  0
LINE
  8
0
 10
43.1387
 20
191.857
 11
43.3037
 21
191.766
  0
LINE
  8
0
 10
43.3037
 20
191.766
 11
43.4561
 21
191.656
  0
LINE
  8
0
 10
43.4561
 20
191.656
 11
43.5934
 21
191.527
  0
LINE
  8
0
 10
43.5934
 20
191.527
 11
43.7135
 21
191.382
  0
LINE
  8
0
 10
43.7135
 20
191.382
 11
43.8145
 21
191.223
  0
LINE
  8
0
 10
43.8145
 20
191.223
 11
43.8947
 21
191.052
  0
LINE
  8
0
 10
43.8947
 20
191.052
 11
43.9529
 21
190.873
  0
LINE
  8
0
 10
43.9529
 20
190.873
 11
43.9882
 21
190.688
  0
LINE
  8
0
 10
43.9882
 20
190.688
 11
44
 21
190.5
  0
LINE
  8
0
 10
44
 20
190.5
 11
43.9882
 21
190.312
  0
LINE
  8
0
 10
43.9882
 20
190.312
 11
43.9529
 21
190.127
  0
LINE
  8
0
 10
43.9529
 20
190.127
 11
43.8947
 21
189.948
  0
LINE
  8
0
 10
43.8947
 20
189.948
 11
43.8145
 21
189.777
  0
LINE
  8
0
 10
43.8145
 20
189.777
 11
43.7135
 21
189.618
  0
LINE
  8
0
 10
43.7135
 20
189.618
 11
43.5934
 21
189.473
  0
LINE
  8
0
 10
43.5934
 20
189.473
 11
43.4561
 21
189.344
  0
LINE
  8
0
 10
43.4561
 20
189.344
 11
43.3037
 21
189.234
  0
LINE
  8
0
 10
43.3037
 20
189.234
 11
43.1387
 21
189.143
  0
LINE
  8
0
 10
43.1387
 20
189.143
 11
42.9635
 21
189.073
  0
LINE
  8
0
 10
42.9635
 20
189.073
 11
42.7811
 21
189.027
  0
LINE
  8
0
 10
42.7811
 20
189.027
 11
42.5942
 21
189.003
  0
LINE
  8
0
 10
42.5942
 20
189.003
 11
42.4058
 21
189.003
  0
LINE
  8
0
 10
57.4058
 20
189.003
 11
57.2189
 21
189.027
  0
LINE
  8
0
 10
57.2189
 20
189.027
 11
57.0365
 21
189.073
  0
LINE
  8
0
 10
57.0365
 20
189.073
 11
56.8613
 21
189.143
  0
LINE
  8
0
 10
56.8613
 20
189.143
 11
56.6963
 21
189.234
  0
LINE
  8
0
 10
56.6963
 20
189.234
 11
56.5439
 21
189.344
  0
LINE
  8
0
 10
56.5439
 20
189.344
 11
56.4065
 21
189.473
  0
LINE
  8
0
 10
56.4065
 20
189.473
 11
56.2865
 21
189.618
  0
LINE
  8
0
 10
56.2865
 20
189.618
 11
56.1855
 21
189.777
  0
LINE
  8
0
 10
56.1855
 20
189.777
 11
56.1053
 21
189.948
  0
LINE
  8
0
 10
56.1053
 20
189.948
 11
56.0471
 21
190.127
  0
LINE
  8
0
 10
56.0471
 20
190.127
 11
56.0118
 21
190.312
  0
LINE
  8
0
 10
56.0118
 20
190.312
 11
56
 21
190.5
  0
LINE
  8
0
 10
56
 20
190.5
 11
56.0118
 21
190.688
  0
LINE
  8
0
 10
56.0118
 20
190.688
 11
56.0471
 21
190.873
  0
LINE
  8
0
 10
56.0471
 20
190.873
 11
56.1053
 21
191.052
  0
LINE
  8
0
 10
56.1053
 20
191.052
 11
56.1855
 21
191.223
  0
LINE
  8
0
 10
56.1855
 20
191.223
 11
56.2865
 21
191.382
  0
LINE
  8
0
 10
56.2865
 20
191.382
 11
56.4065
 21
191.527
  0
LINE
  8
0
 10
56.4065
 20
191.527
 11
56.5439
 21
191.656
  0
LINE
  8
0
 10
56.5439
 20
191.656
 11
56.6963
 21
191.766
  0
LINE
  8
0
 10
56.6963
 20
191.766
 11
56.8613
 21
191.857
  0
LINE
  8
0
 10
56.8613
 20
191.857
 11
57.0365
 21
191.927
  0
LINE
  8
0
 10
57.0365
 20
191.927
 11
57.2189
 21
191.973
  0
LINE
  8
0
 10
57.2189
 20
191.973
 11
57.4058
 21
191.997
  0
LINE
  8
0
 10
57.4058
 20
191.997
 11
57.5942
 21
191.997
  0
LINE
  8
0
 10
57.5942
 20
191.997
 11
57.7811
 21
191.973
  0
LINE
  8
0
 10
57.7811
 20
191.973
 11
57.9635
 21
191.927
  0
LINE
  8
0
 10
57.9635
 20
191.927
 11
58.1387
 21
191.857
  0
LINE
  8
0
 10
58.1387
 20
191.857
 11
58.3037
 21
191.766
  0
LINE
  8
0
 10
58.3037
 20
191.766
 11
58.4561
 21
191.656
  0
LINE
  8
0
 10
58.4561
 20
191.656
 11
58.5934
 21
191.527
  0
LINE
  8
0
 10
58.5934
 20
191.527
 11
58.7135
 21
191.382
  0
LINE
  8
0
 10
58.7135
 20
191.382
 11
58.8145
 21
191.223
  0
LINE
  8
0
 10
58.8145
 20
191.223
 11
58.8947
 21
191.052
  0
LINE
  8
0
 10
58.8947
 20
191.052
 11
58.9529
 21
190.873
  0
LINE
  8
0
 10
58.9529
 20
190.873
 11
58.9882
 21
190.688
  0
LINE
  8
0
 10
58.9882
 20
190.688
 11
59
 21
190.5
  0
LINE
  8
0
 10
59
 20
190.5
 11
58.9882
 21
190.312
  0
LINE
  8
0
 10
58.9882
 20
190.312
 11
58.9529
 21
190.127
  0
LINE
  8
0
 10
58.9529
 20
190.127
 11
58.8947
 21
189.948
  0
LINE
  8
0
 10
58.8947
 20
189.948
 11
58.8145
 21
189.777
  0
LINE
  8
0
 10
58.8145
 20
189.777
 11
58.7135
 21
189.618
  0
LINE
  8
0
 10
58.7135
 20
189.618
 11
58.5934
 21
189.473
  0
LINE
  8
0
 10
58.5934
 20
189.473
 11
58.4561
 21
189.344
  0
LINE
  8
0
 10
58.4561
 20
189.344
 11
58.3037
 21
189.234
  0
LINE
  8
0
 10
58.3037
 20
189.234
 11
58.1387
 21
189.143
  0
LINE
  8
0
 10
58.1387
 20
189.143
 11
57.9635
 21
189.073
  0
LINE
  8
0
 10
57.9635
 20
189.073
 11
57.7811
 21
189.027
  0
LINE
  8
0
 10
57.7811
 20
189.027
 11
57.5942
 21
189.003
  0
LINE
  8
0
 10
57.5942
 20
189.003
 11
57.4058
 21
189.003
  0
LINE
  8
0
 10
49.887
 20
143.704
 11
49.6627
 21
143.732
  0
LINE
  8
0
 10
49.6627
 20
143.732
 11
49.4438
 21
143.788
  0
LINE
  8
0
 10
49.4438
 20
143.788
 11
49.2336
 21
143.871
  0
LINE
  8
0
 10
49.2336
 20
143.871
 11
49.0355
 21
143.98
  0
LINE
  8
0
 10
49.0355
 20
143.98
 11
48.8526
 21
144.113
  0
LINE
  8
0
 10
48.8526
 20
144.113
 11
48.6879
 21
144.268
  0
LINE
  8
0
 10
48.6879
 20
144.268
 11
48.5438
 21
144.442
  0
LINE
  8
0
 10
48.5438
 20
144.442
 11
48.4226
 21
144.633
  0
LINE
  8
0
 10
48.4226
 20
144.633
 11
48.3264
 21
144.837
  0
LINE
  8
0
 10
48.3264
 20
144.837
 11
48.2565
 21
145.052
  0
LINE
  8
0
 10
48.2565
 20
145.052
 11
48.2142
 21
145.274
  0
LINE
  8
0
 10
48.2142
 20
145.274
 11
48.2
 21
145.5
  0
LINE
  8
0
 10
48.2
 20
145.5
 11
48.2142
 21
145.726
  0
LINE
  8
0
 10
48.2142
 20
145.726
 11
48.2565
 21
145.948
  0
LINE
  8
0
 10
48.2565
 20
145.948
 11
48.3264
 21
146.163
  0
LINE
  8
0
 10
48.3264
 20
146.163
 11
48.4226
 21
146.367
  0
LINE
  8
0
 10
48.4226
 20
146.367
 11
48.5438
 21
146.558
  0
LINE
  8
0
 10
48.5438
 20
146.558
 11
48.6879
 21
146.732
  0
LINE
  8
0
 10
48.6879
 20
146.732
 11
48.8526
 21
146.887
  0
LINE
  8
0
 10
48.8526
 20
146.887
 11
49.0355
 21
147.02
  0
LINE
  8
0
 10
49.0355
 20
147.02
 11
49.2336
 21
147.129
  0
LINE
  8
0
 10
49.2336
 20
147.129
 11
49.4438
 21
147.212
  0
LINE
  8
0
 10
49.4438
 20
147.212
 11
49.6627
 21
147.268
  0
LINE
  8
0
 10
49.6627
 20
147.268
 11
49.887
 21
147.296
  0
LINE
  8
0
 10
49.887
 20
147.296
 11
50.113
 21
147.296
  0
LINE
  8
0
 10
50.113
 20
147.296
 11
50.3373
 21
147.268
  0
LINE
  8
0
 10
50.3373
 20
147.268
 11
50.5562
 21
147.212
  0
LINE
  8
0
 10
50.5562
 20
147.212
 11
50.7664
 21
147.129
  0
LINE
  8
0
 10
50.7664
 20
147.129
 11
50.9645
 21
147.02
  0
LINE
  8
0
 10
50.9645
 20
147.02
 11
51.1474
 21
146.887
  0
LINE
  8
0
 10
51.1474
 20
146.887
 11
51.3121
 21
146.732
  0
LINE
  8
0
 10
51.3121
 20
146.732
 11
51.4562
 21
146.558
  0
LINE
  8
0
 10
51.4562
 20
146.558
 11
51.5773
 21
146.367
  0
LINE
  8
0
 10
51.5773
 20
146.367
 11
51.6736
 21
146.163
  0
LINE
  8
0
 10
51.6736
 20
146.163
 11
51.7434
 21
145.948
  0
LINE
  8
0
 10
51.7434
 20
145.948
 11
51.7858
 21
145.726
  0
LINE
  8
0
 10
51.7858
 20
145.726
 11
51.8
 21
145.5
  0
LINE
  8
0
 10
51.8
 20
145.5
 11
51.7858
 21
145.274
  0
LINE
  8
0
 10
51.7858
 20
145.274
 11
51.7434
 21
145.052
  0
LINE
  8
0
 10
51.7434
 20
145.052
 11
51.6736
 21
144.837
  0
LINE
  8
0
 10
51.6736
 20
144.837
 11
51.5773
 21
144.633
  0
LINE
  8
0
 10
51.5773
 20
144.633
 11
51.4562
 21
144.442
  0
LINE
  8
0
 10
51.4562
 20
144.442
 11
51.3121
 21
144.268
  0
LINE
  8
0
 10
51.3121
 20
144.268
 11
51.1474
 21
144.113
  0
LINE
  8
0
 10
51.1474
 20
144.113
 11
50.9645
 21
143.98
  0
LINE
  8
0
 10
50.9645
 20
143.98
 11
50.7664
 21
143.871
  0
LINE
  8
0
 10
50.7664
 20
143.871
 11
50.5562
 21
143.788
  0
LINE
  8
0
 10
50.5562
 20
143.788
 11
50.3373
 21
143.732
  0
LINE
  8
0
 10
50.3373
 20
143.732
 11
50.113
 21
143.704
  0
LINE
  8
0
 10
50.113
 20
143.704
 11
49.887
 21
143.704
  0
LINE
  8
0
 10
57.4058
 20
144.003
 11
57.2189
 21
144.027
  0
LINE
  8
0
 10
57.2189
 20
144.027
 11
57.0365
 21
144.073
  0
LINE
  8
0
 10
57.0365
 20
144.073
 11
56.8613
 21
144.143
  0
LINE
  8
0
 10
56.8613
 20
144.143
 11
56.6963
 21
144.234
  0
LINE
  8
0
 10
56.6963
 20
144.234
 11
56.5439
 21
144.344
  0
LINE
  8
0
 10
56.5439
 20
144.344
 11
56.4065
 21
144.473
  0
LINE
  8
0
 10
56.4065
 20
144.473
 11
56.2865
 21
144.618
  0
LINE
  8
0
 10
56.2865
 20
144.618
 11
56.1855
 21
144.777
  0
LINE
  8
0
 10
56.1855
 20
144.777
 11
56.1053
 21
144.948
  0
LINE
  8
0
 10
56.1053
 20
144.948
 11
56.0471
 21
145.127
  0
LINE
  8
0
 10
56.0471
 20
145.127
 11
56.0118
 21
145.312
  0
LINE
  8
0
 10
56.0118
 20
145.312
 11
56
 21
145.5
  0
LINE
  8
0
 10
56
 20
145.5
 11
56.0118
 21
145.688
  0
LINE
  8
0
 10
56.0118
 20
145.688
 11
56.0471
 21
145.873
  0
LINE
  8
0
 10
56.0471
 20
145.873
 11
56.1053
 21
146.052
  0
LINE
  8
0
 10
56.1053
 20
146.052
 11
56.1855
 21
146.223
  0
LINE
  8
0
 10
56.1855
 20
146.223
 11
56.2865
 21
146.382
  0
LINE
  8
0
 10
56.2865
 20
146.382
 11
56.4065
 21
146.527
  0
LINE
  8
0
 10
56.4065
 20
146.527
 11
56.5439
 21
146.656
  0
LINE
  8
0
 10
56.5439
 20
146.656
 11
56.6963
 21
146.766
  0
LINE
  8
0
 10
56.6963
 20
146.766
 11
56.8613
 21
146.857
  0
LINE
  8
0
 10
56.8613
 20
146.857
 11
57.0365
 21
146.927
  0
LINE
  8
0
 10
57.0365
 20
146.927
 11
57.2189
 21
146.973
  0
LINE
  8
0
 10
57.2189
 20
146.973
 11
57.4058
 21
146.997
  0
LINE
  8
0
 10
57.4058
 20
146.997
 11
57.5942
 21
146.997
  0
LINE
  8
0
 10
57.5942
 20
146.997
 11
57.7811
 21
146.973
  0
LINE
  8
0
 10
57.7811
 20
146.973
 11
57.9635
 21
146.927
  0
LINE
  8
0
 10
57.9635
 20
146.927
 11
58.1387
 21
146.857
  0
LINE
  8
0
 10
58.1387
 20
146.857
 11
58.3037
 21
146.766
  0
LINE
  8
0
 10
58.3037
 20
146.766
 11
58.4561
 21
146.656
  0
LINE
  8
0
 10
58.4561
 20
146.656
 11
58.5934
 21
146.527
  0
LINE
  8
0
 10
58.5934
 20
146.527
 11
58.7135
 21
146.382
  0
LINE
  8
0
 10
58.7135
 20
146.382
 11
58.8145
 21
146.223
  0
LINE
  8
0
 10
58.8145
 20
146.223
 11
58.8947
 21
146.052
  0
LINE
  8
0
 10
58.8947
 20
146.052
 11
58.9529
 21
145.873
  0
LINE
  8
0
 10
58.9529
 20
145.873
 11
58.9882
 21
145.688
  0
LINE
  8
0
 10
58.9882
 20
145.688
 11
59
 21
145.5
  0
LINE
  8
0
 10
59
 20
145.5
 11
58.9882
 21
145.312
  0
LINE
  8
0
 10
58.9882
 20
145.312
 11
58.9529
 21
145.127
  0
LINE
  8
0
 10
58.9529
 20
145.127
 11
58.8947
 21
144.948
  0
LINE
  8
0
 10
58.8947
 20
144.948
 11
58.8145
 21
144.777
  0
LINE
  8
0
 10
58.8145
 20
144.777
 11
58.7135
 21
144.618
  0
LINE
  8
0
 10
58.7135
 20
144.618
 11
58.5934
 21
144.473
  0
LINE
  8
0
 10
58.5934
 20
144.473
 11
58.4561
 21
144.344
  0
LINE
  8
0
 10
58.4561
 20
144.344
 11
58.3037
 21
144.234
  0
LINE
  8
0
 10
58.3037
 20
144.234
 11
58.1387
 21
144.143
  0
LINE
  8
0
 10
58.1387
 20
144.143
 11
57.9635
 21
144.073
  0
LINE
  8
0
 10
57.9635
 20
144.073
 11
57.7811
 21
144.027
  0
LINE
  8
0
 10
57.7811
 20
144.027
 11
57.5942
 21
144.003
  0
LINE
  8
0
 10
57.5942
 20
144.003
 11
57.4058
 21
144.003
  0
LINE
  8
0
 10
42.4058
 20
144.003
 11
42.2189
 21
144.027
  0
LINE
  8
0
 10
42.2189
 20
144.027
 11
42.0365
 21
144.073
  0
LINE
  8
0
 10
42.0365
 20
144.073
 11
41.8613
 21
144.143
  0
LINE
  8
0
 10
41.8613
 20
144.143
 11
41.6963
 21
144.234
  0
LINE
  8
0
 10
41.6963
 20
144.234
 11
41.5439
 21
144.344
  0
LINE
  8
0
 10
41.5439
 20
144.344
 11
41.4065
 21
144.473
  0
LINE
  8
0
 10
41.4065
 20
144.473
 11
41.2865
 21
144.618
  0
LINE
  8
0
 10
41.2865
 20
144.618
 11
41.1855
 21
144.777
  0
LINE
  8
0
 10
41.1855
 20
144.777
 11
41.1053
 21
144.948
  0
LINE
  8
0
 10
41.1053
 20
144.948
 11
41.0471
 21
145.127
  0
LINE
  8
0
 10
41.0471
 20
145.127
 11
41.0118
 21
145.312
  0
LINE
  8
0
 10
41.0118
 20
145.312
 11
41
 21
145.5
  0
LINE
  8
0
 10
41
 20
145.5
 11
41.0118
 21
145.688
  0
LINE
  8
0
 10
41.0118
 20
145.688
 11
41.0471
 21
145.873
  0
LINE
  8
0
 10
41.0471
 20
145.873
 11
41.1053
 21
146.052
  0
LINE
  8
0
 10
41.1053
 20
146.052
 11
41.1855
 21
146.223
  0
LINE
  8
0
 10
41.1855
 20
146.223
 11
41.2865
 21
146.382
  0
LINE
  8
0
 10
41.2865
 20
146.382
 11
41.4065
 21
146.527
  0
LINE
  8
0
 10
41.4065
 20
146.527
 11
41.5439
 21
146.656
  0
LINE
  8
0
 10
41.5439
 20
146.656
 11
41.6963
 21
146.766
  0
LINE
  8
0
 10
41.6963
 20
146.766
 11
41.8613
 21
146.857
  0
LINE
  8
0
 10
41.8613
 20
146.857
 11
42.0365
 21
146.927
  0
LINE
  8
0
 10
42.0365
 20
146.927
 11
42.2189
 21
146.973
  0
LINE
  8
0
 10
42.2189
 20
146.973
 11
42.4058
 21
146.997
  0
LINE
  8
0
 10
42.4058
 20
146.997
 11
42.5942
 21
146.997
  0
LINE
  8
0
 10
42.5942
 20
146.997
 11
42.7811
 21
146.973
  0
LINE
  8
0
 10
42.7811
 20
146.973
 11
42.9635
 21
146.927
  0
LINE
  8
0
 10
42.9635
 20
146.927
 11
43.1387
 21
146.857
  0
LINE
  8
0
 10
43.1387
 20
146.857
 11
43.3037
 21
146.766
  0
LINE
  8
0
 10
43.3037
 20
146.766
 11
43.4561
 21
146.656
  0
LINE
  8
0
 10
43.4561
 20
146.656
 11
43.5934
 21
146.527
  0
LINE
  8
0
 10
43.5934
 20
146.527
 11
43.7135
 21
146.382
  0
LINE
  8
0
 10
43.7135
 20
146.382
 11
43.8145
 21
146.223
  0
LINE
  8
0
 10
43.8145
 20
146.223
 11
43.8947
 21
146.052
  0
LINE
  8
0
 10
43.8947
 20
146.052
 11
43.9529
 21
145.873
  0
LINE
  8
0
 10
43.9529
 20
145.873
 11
43.9882
 21
145.688
  0
LINE
  8
0
 10
43.9882
 20
145.688
 11
44
 21
145.5
  0
LINE
  8
0
 10
44
 20
145.5
 11
43.9882
 21
145.312
  0
LINE
  8
0
 10
43.9882
 20
145.312
 11
43.9529
 21
145.127
  0
LINE
  8
0
 10
43.9529
 20
145.127
 11
43.8947
 21
144.948
  0
LINE
  8
0
 10
43.8947
 20
144.948
 11
43.8145
 21
144.777
  0
LINE
  8
0
 10
43.8145
 20
144.777
 11
43.7135
 21
144.618
  0
LINE
  8
0
 10
43.7135
 20
144.618
 11
43.5934
 21
144.473
  0
LINE
  8
0
 10
43.5934
 20
144.473
 11
43.4561
 21
144.344
  0
LINE
  8
0
 10
43.4561
 20
144.344
 11
43.3037
 21
144.234
  0
LINE
  8
0
 10
43.3037
 20
144.234
 11
43.1387
 21
144.143
  0
LINE
  8
0
 10
43.1387
 20
144.143
 11
42.9635
 21
144.073
  0
LINE
  8
0
 10
42.9635
 20
144.073
 11
42.7811
 21
144.027
  0
LINE
  8
0
 10
42.7811
 20
144.027
 11
42.5942
 21
144.003
  0
LINE
  8
0
 10
42.5942
 20
144.003
 11
42.4058
 21
144.003
  0
LINE
  8
0
 10
42.3116
 20
135.006
 11
41.9379
 21
135.053
  0
LINE
  8
0
 10
41.9379
 20
135.053
 11
41.5729
 21
135.147
  0
LINE
  8
0
 10
41.5729
 20
135.147
 11
41.2227
 21
135.286
  0
LINE
  8
0
 10
41.2227
 20
135.286
 11
40.8925
 21
135.467
  0
LINE
  8
0
 10
40.8925
 20
135.467
 11
40.5877
 21
135.688
  0
LINE
  8
0
 10
40.5877
 20
135.688
 11
40.3131
 21
135.946
  0
LINE
  8
0
 10
40.3131
 20
135.946
 11
40.0729
 21
136.237
  0
LINE
  8
0
 10
40.0729
 20
136.237
 11
39.8711
 21
136.555
  0
LINE
  8
0
 10
39.8711
 20
136.555
 11
39.7107
 21
136.896
  0
LINE
  8
0
 10
39.7107
 20
136.896
 11
39.5942
 21
137.254
  0
LINE
  8
0
 10
39.5942
 20
137.254
 11
39.5237
 21
137.624
  0
LINE
  8
0
 10
39.5237
 20
137.624
 11
39.5
 21
138
  0
LINE
  8
0
 10
39.5
 20
138
 11
39.5237
 21
138.376
  0
LINE
  8
0
 10
39.5237
 20
138.376
 11
39.5942
 21
138.746
  0
LINE
  8
0
 10
39.5942
 20
138.746
 11
39.7107
 21
139.104
  0
LINE
  8
0
 10
39.7107
 20
139.104
 11
39.8711
 21
139.445
  0
LINE
  8
0
 10
39.8711
 20
139.445
 11
40.0729
 21
139.763
  0
LINE
  8
0
 10
40.0729
 20
139.763
 11
40.3131
 21
140.054
  0
LINE
  8
0
 10
40.3131
 20
140.054
 11
40.5877
 21
140.312
  0
LINE
  8
0
 10
40.5877
 20
140.312
 11
40.8925
 21
140.533
  0
LINE
  8
0
 10
40.8925
 20
140.533
 11
41.2227
 21
140.714
  0
LINE
  8
0
 10
41.2227
 20
140.714
 11
41.5729
 21
140.853
  0
LINE
  8
0
 10
41.5729
 20
140.853
 11
41.9379
 21
140.947
  0
LINE
  8
0
 10
41.9379
 20
140.947
 11
42.3116
 21
140.994
  0
LINE
  8
0
 10
42.3116
 20
140.994
 11
42.6884
 21
140.994
  0
LINE
  8
0
 10
42.6884
 20
140.994
 11
43.0621
 21
140.947
  0
LINE
  8
0
 10
43.0621
 20
140.947
 11
43.427
 21
140.853
  0
LINE
  8
0
 10
43.427
 20
140.853
 11
43.7773
 21
140.714
  0
LINE
  8
0
 10
43.7773
 20
140.714
 11
44.1075
 21
140.533
  0
LINE
  8
0
 10
44.1075
 20
140.533
 11
44.4123
 21
140.312
  0
LINE
  8
0
 10
44.4123
 20
140.312
 11
44.6869
 21
140.054
  0
LINE
  8
0
 10
44.6869
 20
140.054
 11
44.927
 21
139.763
  0
LINE
  8
0
 10
44.927
 20
139.763
 11
45.1289
 21
139.445
  0
LINE
  8
0
 10
45.1289
 20
139.445
 11
45.2893
 21
139.104
  0
LINE
  8
0
 10
45.2893
 20
139.104
 11
45.4057
 21
138.746
  0
LINE
  8
0
 10
45.4057
 20
138.746
 11
45.4763
 21
138.376
  0
LINE
  8
0
 10
45.4763
 20
138.376
 11
45.5
 21
138
  0
LINE
  8
0
 10
45.5
 20
138
 11
45.4763
 21
137.624
  0
LINE
  8
0
 10
45.4763
 20
137.624
 11
45.4057
 21
137.254
  0
LINE
  8
0
 10
45.4057
 20
137.254
 11
45.2893
 21
136.896
  0
LINE
  8
0
 10
45.2893
 20
136.896
 11
45.1289
 21
136.555
  0
LINE
  8
0
 10
45.1289
 20
136.555
 11
44.927
 21
136.237
  0
LINE
  8
0
 10
44.927
 20
136.237
 11
44.6869
 21
135.946
  0
LINE
  8
0
 10
44.6869
 20
135.946
 11
44.4123
 21
135.688
  0
LINE
  8
0
 10
44.4123
 20
135.688
 11
44.1075
 21
135.467
  0
LINE
  8
0
 10
44.1075
 20
135.467
 11
43.7773
 21
135.286
  0
LINE
  8
0
 10
43.7773
 20
135.286
 11
43.427
 21
135.147
  0
LINE
  8
0
 10
43.427
 20
135.147
 11
43.0621
 21
135.053
  0
LINE
  8
0
 10
43.0621
 20
135.053
 11
42.6884
 21
135.006
  0
LINE
  8
0
 10
42.6884
 20
135.006
 11
42.3116
 21
135.006
  0
LINE
  8
0
 10
57.3116
 20
135.006
 11
56.9379
 21
135.053
  0
LINE
  8
0
 10
56.9379
 20
135.053
 11
56.5729
 21
135.147
  0
LINE
  8
0
 10
56.5729
 20
135.147
 11
56.2227
 21
135.286
  0
LINE
  8
0
 10
56.2227
 20
135.286
 11
55.8925
 21
135.467
  0
LINE
  8
0
 10
55.8925
 20
135.467
 11
55.5877
 21
135.688
  0
LINE
  8
0
 10
55.5877
 20
135.688
 11
55.3131
 21
135.946
  0
LINE
  8
0
 10
55.3131
 20
135.946
 11
55.0729
 21
136.237
  0
LINE
  8
0
 10
55.0729
 20
136.237
 11
54.8711
 21
136.555
  0
LINE
  8
0
 10
54.8711
 20
136.555
 11
54.7107
 21
136.896
  0
LINE
  8
0
 10
54.7107
 20
136.896
 11
54.5942
 21
137.254
  0
LINE
  8
0
 10
54.5942
 20
137.254
 11
54.5237
 21
137.624
  0
LINE
  8
0
 10
54.5237
 20
137.624
 11
54.5
 21
138
  0
LINE
  8
0
 10
54.5
 20
138
 11
54.5237
 21
138.376
  0
LINE
  8
0
 10
54.5237
 20
138.376
 11
54.5942
 21
138.746
  0
LINE
  8
0
 10
54.5942
 20
138.746
 11
54.7107
 21
139.104
  0
LINE
  8
0
 10
54.7107
 20
139.104
 11
54.8711
 21
139.445
  0
LINE
  8
0
 10
54.8711
 20
139.445
 11
55.0729
 21
139.763
  0
LINE
  8
0
 10
55.0729
 20
139.763
 11
55.3131
 21
140.054
  0
LINE
  8
0
 10
55.3131
 20
140.054
 11
55.5877
 21
140.312
  0
LINE
  8
0
 10
55.5877
 20
140.312
 11
55.8925
 21
140.533
  0
LINE
  8
0
 10
55.8925
 20
140.533
 11
56.2227
 21
140.714
  0
LINE
  8
0
 10
56.2227
 20
140.714
 11
56.5729
 21
140.853
  0
LINE
  8
0
 10
56.5729
 20
140.853
 11
56.9379
 21
140.947
  0
LINE
  8
0
 10
56.9379
 20
140.947
 11
57.3116
 21
140.994
  0
LINE
  8
0
 10
57.3116
 20
140.994
 11
57.6884
 21
140.994
  0
LINE
  8
0
 10
57.6884
 20
140.994
 11
58.0621
 21
140.947
  0
LINE
  8
0
 10
58.0621
 20
140.947
 11
58.427
 21
140.853
  0
LINE
  8
0
 10
58.427
 20
140.853
 11
58.7773
 21
140.714
  0
LINE
  8
0
 10
58.7773
 20
140.714
 11
59.1075
 21
140.533
  0
LINE
  8
0
 10
59.1075
 20
140.533
 11
59.4123
 21
140.312
  0
LINE
  8
0
 10
59.4123
 20
140.312
 11
59.6869
 21
140.054
  0
LINE
  8
0
 10
59.6869
 20
140.054
 11
59.927
 21
139.763
  0
LINE
  8
0
 10
59.927
 20
139.763
 11
60.1289
 21
139.445
  0
LINE
  8
0
 10
60.1289
 20
139.445
 11
60.2893
 21
139.104
  0
LINE
  8
0
 10
60.2893
 20
139.104
 11
60.4057
 21
138.746
  0
LINE
  8
0
 10
60.4057
 20
138.746
 11
60.4763
 21
138.376
  0
LINE
  8
0
 10
60.4763
 20
138.376
 11
60.5
 21
138
  0
LINE
  8
0
 10
60.5
 20
138
 11
60.4763
 21
137.624
  0
LINE
  8
0
 10
60.4763
 20
137.624
 11
60.4057
 21
137.254
  0
LINE
  8
0
 10
60.4057
 20
137.254
 11
60.2893
 21
136.896
  0
LINE
  8
0
 10
60.2893
 20
136.896
 11
60.1289
 21
136.555
  0
LINE
  8
0
 10
60.1289
 20
136.555
 11
59.927
 21
136.237
  0
LINE
  8
0
 10
59.927
 20
136.237
 11
59.6869
 21
135.946
  0
LINE
  8
0
 10
59.6869
 20
135.946
 11
59.4123
 21
135.688
  0
LINE
  8
0
 10
59.4123
 20
135.688
 11
59.1075
 21
135.467
  0
LINE
  8
0
 10
59.1075
 20
135.467
 11
58.7773
 21
135.286
  0
LINE
  8
0
 10
58.7773
 20
135.286
 11
58.427
 21
135.147
  0
LINE
  8
0
 10
58.427
 20
135.147
 11
58.0621
 21
135.053
  0
LINE
  8
0
 10
58.0621
 20
135.053
 11
57.6884
 21
135.006
  0
LINE
  8
0
 10
57.6884
 20
135.006
 11
57.3116
 21
135.006
  0
LINE
  8
0
 10
49.9058
 20
136.503
 11
49.7189
 21
136.527
  0
LINE
  8
0
 10
49.7189
 20
136.527
 11
49.5365
 21
136.573
  0
LINE
  8
0
 10
49.5365
 20
136.573
 11
49.3613
 21
136.643
  0
LINE
  8
0
 10
49.3613
 20
136.643
 11
49.1963
 21
136.734
  0
LINE
  8
0
 10
49.1963
 20
136.734
 11
49.0439
 21
136.844
  0
LINE
  8
0
 10
49.0439
 20
136.844
 11
48.9065
 21
136.973
  0
LINE
  8
0
 10
48.9065
 20
136.973
 11
48.7865
 21
137.118
  0
LINE
  8
0
 10
48.7865
 20
137.118
 11
48.6855
 21
137.277
  0
LINE
  8
0
 10
48.6855
 20
137.277
 11
48.6053
 21
137.448
  0
LINE
  8
0
 10
48.6053
 20
137.448
 11
48.5471
 21
137.627
  0
LINE
  8
0
 10
48.5471
 20
137.627
 11
48.5118
 21
137.812
  0
LINE
  8
0
 10
48.5118
 20
137.812
 11
48.5
 21
138
  0
LINE
  8
0
 10
48.5
 20
138
 11
48.5118
 21
138.188
  0
LINE
  8
0
 10
48.5118
 20
138.188
 11
48.5471
 21
138.373
  0
LINE
  8
0
 10
48.5471
 20
138.373
 11
48.6053
 21
138.552
  0
LINE
  8
0
 10
48.6053
 20
138.552
 11
48.6855
 21
138.723
  0
LINE
  8
0
 10
48.6855
 20
138.723
 11
48.7865
 21
138.882
  0
LINE
  8
0
 10
48.7865
 20
138.882
 11
48.9065
 21
139.027
  0
LINE
  8
0
 10
48.9065
 20
139.027
 11
49.0439
 21
139.156
  0
LINE
  8
0
 10
49.0439
 20
139.156
 11
49.1963
 21
139.266
  0
LINE
  8
0
 10
49.1963
 20
139.266
 11
49.3613
 21
139.357
  0
LINE
  8
0
 10
49.3613
 20
139.357
 11
49.5365
 21
139.427
  0
LINE
  8
0
 10
49.5365
 20
139.427
 11
49.7189
 21
139.473
  0
LINE
  8
0
 10
49.7189
 20
139.473
 11
49.9058
 21
139.497
  0
LINE
  8
0
 10
49.9058
 20
139.497
 11
50.0942
 21
139.497
  0
LINE
  8
0
 10
50.0942
 20
139.497
 11
50.2811
 21
139.473
  0
LINE
  8
0
 10
50.2811
 20
139.473
 11
50.4635
 21
139.427
  0
LINE
  8
0
 10
50.4635
 20
139.427
 11
50.6387
 21
139.357
  0
LINE
  8
0
 10
50.6387
 20
139.357
 11
50.8037
 21
139.266
  0
LINE
  8
0
 10
50.8037
 20
139.266
 11
50.9561
 21
139.156
  0
LINE
  8
0
 10
50.9561
 20
139.156
 11
51.0934
 21
139.027
  0
LINE
  8
0
 10
51.0934
 20
139.027
 11
51.2135
 21
138.882
  0
LINE
  8
0
 10
51.2135
 20
138.882
 11
51.3145
 21
138.723
  0
LINE
  8
0
 10
51.3145
 20
138.723
 11
51.3947
 21
138.552
  0
LINE
  8
0
 10
51.3947
 20
138.552
 11
51.4529
 21
138.373
  0
LINE
  8
0
 10
51.4529
 20
138.373
 11
51.4882
 21
138.188
  0
LINE
  8
0
 10
51.4882
 20
138.188
 11
51.5
 21
138
  0
LINE
  8
0
 10
51.5
 20
138
 11
51.4882
 21
137.812
  0
LINE
  8
0
 10
51.4882
 20
137.812
 11
51.4529
 21
137.627
  0
LINE
  8
0
 10
51.4529
 20
137.627
 11
51.3947
 21
137.448
  0
LINE
  8
0
 10
51.3947
 20
137.448
 11
51.3145
 21
137.277
  0
LINE
  8
0
 10
51.3145
 20
137.277
 11
51.2135
 21
137.118
  0
LINE
  8
0
 10
51.2135
 20
137.118
 11
51.0934
 21
136.973
  0
LINE
  8
0
 10
51.0934
 20
136.973
 11
50.9561
 21
136.844
  0
LINE
  8
0
 10
50.9561
 20
136.844
 11
50.8037
 21
136.734
  0
LINE
  8
0
 10
50.8037
 20
136.734
 11
50.6387
 21
136.643
  0
LINE
  8
0
 10
50.6387
 20
136.643
 11
50.4635
 21
136.573
  0
LINE
  8
0
 10
50.4635
 20
136.573
 11
50.2811
 21
136.527
  0
LINE
  8
0
 10
50.2811
 20
136.527
 11
50.0942
 21
136.503
  0
LINE
  8
0
 10
50.0942
 20
136.503
 11
49.9058
 21
136.503
  0
LINE
  8
0
 10
10.4369
 20
131.089
 11
11.0451
 21
131.245
  0
LINE
  8
0
 10
11.0451
 20
131.245
 11
11.6289
 21
131.476
  0
LINE
  8
0
 10
11.6289
 20
131.476
 11
12.1791
 21
131.778
  0
LINE
  8
0
 10
12.1791
 20
131.778
 11
12.6871
 21
132.147
  0
LINE
  8
0
 10
12.6871
 20
132.147
 11
13.1448
 21
132.577
  0
LINE
  8
0
 10
13.1448
 20
132.577
 11
13.5451
 21
133.061
  0
LINE
  8
0
 10
13.5451
 20
133.061
 11
13.8815
 21
133.591
  0
LINE
  8
0
 10
13.8815
 20
133.591
 11
14.1489
 21
134.159
  0
LINE
  8
0
 10
14.1489
 20
134.159
 11
14.3429
 21
134.757
  0
LINE
  8
0
 10
14.3429
 20
134.757
 11
14.4606
 21
135.373
  0
LINE
  8
0
 10
14.4606
 20
135.373
 11
14.5
 21
136
  0
LINE
  8
0
 10
14.5
 20
136
 11
14.5
 21
200
  0
LINE
  8
0
 10
14.5
 20
200
 11
14.4606
 21
200.627
  0
LINE
  8
0
 10
14.4606
 20
200.627
 11
14.3429
 21
201.243
  0
LINE
  8
0
 10
14.3429
 20
201.243
 11
14.1489
 21
201.841
  0
LINE
  8
0
 10
14.1489
 20
201.841
 11
13.8815
 21
202.409
  0
LINE
  8
0
 10
13.8815
 20
202.409
 11
13.5451
 21
202.939
  0
LINE
  8
0
 10
13.5451
 20
202.939
 11
13.1448
 21
203.423
  0
LINE
  8
0
 10
13.1448
 20
203.423
 11
12.6871
 21
203.853
  0
LINE
  8
0
 10
12.6871
 20
203.853
 11
12.1791
 21
204.222
  0
LINE
  8
0
 10
12.1791
 20
204.222
 11
11.6289
 21
204.524
  0
LINE
  8
0
 10
11.6289
 20
204.524
 11
11.0451
 21
204.755
  0
LINE
  8
0
 10
11.0451
 20
204.755
 11
10.4369
 21
204.911
  0
LINE
  8
0
 10
10.4369
 20
204.911
 11
9.81395
 21
204.99
  0
LINE
  8
0
 10
9.81395
 20
204.99
 11
-9.81395
 21
204.99
  0
LINE
  8
0
 10
-9.81395
 20
204.99
 11
-10.4369
 21
204.911
  0
LINE
  8
0
 10
-10.4369
 20
204.911
 11
-11.0451
 21
204.755
  0
LINE
  8
0
 10
-11.0451
 20
204.755
 11
-11.6289
 21
204.524
  0
LINE
  8
0
 10
-11.6289
 20
204.524
 11
-12.1791
 21
204.222
  0
LINE
  8
0
 10
-12.1791
 20
204.222
 11
-12.6871
 21
203.853
  0
LINE
  8
0
 10
-12.6871
 20
203.853
 11
-13.1448
 21
203.423
  0
LINE
  8
0
 10
-13.1448
 20
203.423
 11
-13.5451
 21
202.939
  0
LINE
  8
0
 10
-13.5451
 20
202.939
 11
-13.8815
 21
202.409
  0
LINE
  8
0
 10
-13.8815
 20
202.409
 11
-14.1489
 21
201.841
  0
LINE
  8
0
 10
-14.1489
 20
201.841
 11
-14.3429
 21
201.243
  0
LINE
  8
0
 10
-14.3429
 20
201.243
 11
-14.4606
 21
200.627
  0
LINE
  8
0
 10
-14.4606
 20
200.627
 11
-14.5
 21
200
  0
LINE
  8
0
 10
-14.5
 20
200
 11
-14.5
 21
136
  0
LINE
  8
0
 10
-14.5
 20
136
 11
-14.4606
 21
135.373
  0
LINE
  8
0
 10
-14.4606
 20
135.373
 11
-14.3429
 21
134.757
  0
LINE
  8
0
 10
-14.3429
 20
134.757
 11
-14.1489
 21
134.159
  0
LINE
  8
0
 10
-14.1489
 20
134.159
 11
-13.8815
 21
133.591
  0
LINE
  8
0
 10
-13.8815
 20
133.591
 11
-13.5451
 21
133.061
  0
LINE
  8
0
 10
-13.5451
 20
133.061
 11
-13.1448
 21
132.577
  0
LINE
  8
0
 10
-13.1448
 20
132.577
 11
-12.6871
 21
132.147
  0
LINE
  8
0
 10
-12.6871
 20
132.147
 11
-12.1791
 21
131.778
  0
LINE
  8
0
 10
-12.1791
 20
131.778
 11
-11.6289
 21
131.476
  0
LINE
  8
0
 10
-11.6289
 20
131.476
 11
-11.0451
 21
131.245
  0
LINE
  8
0
 10
-11.0451
 20
131.245
 11
-10.4369
 21
131.089
  0
LINE
  8
0
 10
-10.4369
 20
131.089
 11
-9.81395
 21
131.01
  0
LINE
  8
0
 10
-9.81395
 20
131.01
 11
9.81395
 21
131.01
  0
LINE
  8
0
 10
9.81395
 20
131.01
 11
10.4369
 21
131.089
  0
LINE
  8
0
 10
-7.68837
 20
195.006
 11
-8.06213
 21
195.053
  0
LINE
  8
0
 10
-8.06213
 20
195.053
 11
-8.42705
 21
195.147
  0
LINE
  8
0
 10
-8.42705
 20
195.147
 11
-8.77733
 21
195.286
  0
LINE
  8
0
 10
-8.77733
 20
195.286
 11
-9.10747
 21
195.467
  0
LINE
  8
0
 10
-9.10747
 20
195.467
 11
-9.41226
 21
195.688
  0
LINE
  8
0
 10
-9.41226
 20
195.688
 11
-9.6869
 21
195.946
  0
LINE
  8
0
 10
-9.6869
 20
195.946
 11
-9.92705
 21
196.237
  0
LINE
  8
0
 10
-9.92705
 20
196.237
 11
-10.1289
 21
196.555
  0
LINE
  8
0
 10
-10.1289
 20
196.555
 11
-10.2893
 21
196.896
  0
LINE
  8
0
 10
-10.2893
 20
196.896
 11
-10.4057
 21
197.254
  0
LINE
  8
0
 10
-10.4057
 20
197.254
 11
-10.4763
 21
197.624
  0
LINE
  8
0
 10
-10.4763
 20
197.624
 11
-10.5
 21
198
  0
LINE
  8
0
 10
-10.5
 20
198
 11
-10.4763
 21
198.376
  0
LINE
  8
0
 10
-10.4763
 20
198.376
 11
-10.4057
 21
198.746
  0
LINE
  8
0
 10
-10.4057
 20
198.746
 11
-10.2893
 21
199.104
  0
LINE
  8
0
 10
-10.2893
 20
199.104
 11
-10.1289
 21
199.445
  0
LINE
  8
0
 10
-10.1289
 20
199.445
 11
-9.92705
 21
199.763
  0
LINE
  8
0
 10
-9.92705
 20
199.763
 11
-9.6869
 21
200.054
  0
LINE
  8
0
 10
-9.6869
 20
200.054
 11
-9.41226
 21
200.312
  0
LINE
  8
0
 10
-9.41226
 20
200.312
 11
-9.10747
 21
200.533
  0
LINE
  8
0
 10
-9.10747
 20
200.533
 11
-8.77733
 21
200.714
  0
LINE
  8
0
 10
-8.77733
 20
200.714
 11
-8.42705
 21
200.853
  0
LINE
  8
0
 10
-8.42705
 20
200.853
 11
-8.06213
 21
200.947
  0
LINE
  8
0
 10
-8.06213
 20
200.947
 11
-7.68837
 21
200.994
  0
LINE
  8
0
 10
-7.68837
 20
200.994
 11
-7.31161
 21
200.994
  0
LINE
  8
0
 10
-7.31161
 20
200.994
 11
-6.93785
 21
200.947
  0
LINE
  8
0
 10
-6.93785
 20
200.947
 11
-6.57294
 21
200.853
  0
LINE
  8
0
 10
-6.57294
 20
200.853
 11
-6.22266
 21
200.714
  0
LINE
  8
0
 10
-6.22266
 20
200.714
 11
-5.89252
 21
200.533
  0
LINE
  8
0
 10
-5.89252
 20
200.533
 11
-5.58772
 21
200.312
  0
LINE
  8
0
 10
-5.58772
 20
200.312
 11
-5.31308
 21
200.054
  0
LINE
  8
0
 10
-5.31308
 20
200.054
 11
-5.07294
 21
199.763
  0
LINE
  8
0
 10
-5.07294
 20
199.763
 11
-4.87108
 21
199.445
  0
LINE
  8
0
 10
-4.87108
 20
199.445
 11
-4.71066
 21
199.104
  0
LINE
  8
0
 10
-4.71066
 20
199.104
 11
-4.59424
 21
198.746
  0
LINE
  8
0
 10
-4.59424
 20
198.746
 11
-4.52365
 21
198.376
  0
LINE
  8
0
 10
-4.52365
 20
198.376
 11
-4.5
 21
198
  0
LINE
  8
0
 10
-4.5
 20
198
 11
-4.52365
 21
197.624
  0
LINE
  8
0
 10
-4.52365
 20
197.624
 11
-4.59424
 21
197.254
  0
LINE
  8
0
 10
-4.59424
 20
197.254
 11
-4.71066
 21
196.896
  0
LINE
  8
0
 10
-4.71066
 20
196.896
 11
-4.87108
 21
196.555
  0
LINE
  8
0
 10
-4.87108
 20
196.555
 11
-5.07294
 21
196.237
  0
LINE
  8
0
 10
-5.07294
 20
196.237
 11
-5.31308
 21
195.946
  0
LINE
  8
0
 10
-5.31308
 20
195.946
 11
-5.58772
 21
195.688
  0
LINE
  8
0
 10
-5.58772
 20
195.688
 11
-5.89252
 21
195.467
  0
LINE
  8
0
 10
-5.89252
 20
195.467
 11
-6.22266
 21
195.286
  0
LINE
  8
0
 10
-6.22266
 20
195.286
 11
-6.57294
 21
195.147
  0
LINE
  8
0
 10
-6.57294
 20
195.147
 11
-6.93785
 21
195.053
  0
LINE
  8
0
 10
-6.93785
 20
195.053
 11
-7.31161
 21
195.006
  0
LINE
  8
0
 10
-7.31161
 20
195.006
 11
-7.68837
 21
195.006
  0
LINE
  8
0
 10
7.31161
 20
195.006
 11
6.93785
 21
195.053
  0
LINE
  8
0
 10
6.93785
 20
195.053
 11
6.57294
 21
195.147
  0
LINE
  8
0
 10
6.57294
 20
195.147
 11
6.22266
 21
195.286
  0
LINE
  8
0
 10
6.22266
 20
195.286
 11
5.89252
 21
195.467
  0
LINE
  8
0
 10
5.89252
 20
195.467
 11
5.58772
 21
195.688
  0
LINE
  8
0
 10
5.58772
 20
195.688
 11
5.31308
 21
195.946
  0
LINE
  8
0
 10
5.31308
 20
195.946
 11
5.07294
 21
196.237
  0
LINE
  8
0
 10
5.07294
 20
196.237
 11
4.87108
 21
196.555
  0
LINE
  8
0
 10
4.87108
 20
196.555
 11
4.71066
 21
196.896
  0
LINE
  8
0
 10
4.71066
 20
196.896
 11
4.59424
 21
197.254
  0
LINE
  8
0
 10
4.59424
 20
197.254
 11
4.52365
 21
197.624
  0
LINE
  8
0
 10
4.52365
 20
197.624
 11
4.5
 21
198
  0
LINE
  8
0
 10
4.5
 20
198
 11
4.52365
 21
198.376
  0
LINE
  8
0
 10
4.52365
 20
198.376
 11
4.59424
 21
198.746
  0
LINE
  8
0
 10
4.59424
 20
198.746
 11
4.71066
 21
199.104
  0
LINE
  8
0
 10
4.71066
 20
199.104
 11
4.87108
 21
199.445
  0
LINE
  8
0
 10
4.87108
 20
199.445
 11
5.07294
 21
199.763
  0
LINE
  8
0
 10
5.07294
 20
199.763
 11
5.31308
 21
200.054
  0
LINE
  8
0
 10
5.31308
 20
200.054
 11
5.58772
 21
200.312
  0
LINE
  8
0
 10
5.58772
 20
200.312
 11
5.89252
 21
200.533
  0
LINE
  8
0
 10
5.89252
 20
200.533
 11
6.22266
 21
200.714
  0
LINE
  8
0
 10
6.22266
 20
200.714
 11
6.57294
 21
200.853
  0
LINE
  8
0
 10
6.57294
 20
200.853
 11
6.93785
 21
200.947
  0
LINE
  8
0
 10
6.93785
 20
200.947
 11
7.31161
 21
200.994
  0
LINE
  8
0
 10
7.31161
 20
200.994
 11
7.68837
 21
200.994
  0
LINE
  8
0
 10
7.68837
 20
200.994
 11
8.06213
 21
200.947
  0
LINE
  8
0
 10
8.06213
 20
200.947
 11
8.42705
 21
200.853
  0
LINE
  8
0
 10
8.42705
 20
200.853
 11
8.77733
 21
200.714
  0
LINE
  8
0
 10
8.77733
 20
200.714
 11
9.10747
 21
200.533
  0
LINE
  8
0
 10
9.10747
 20
200.533
 11
9.41226
 21
200.312
  0
LINE
  8
0
 10
9.41226
 20
200.312
 11
9.6869
 21
200.054
  0
LINE
  8
0
 10
9.6869
 20
200.054
 11
9.92705
 21
199.763
  0
LINE
  8
0
 10
9.92705
 20
199.763
 11
10.1289
 21
199.445
  0
LINE
  8
0
 10
10.1289
 20
199.445
 11
10.2893
 21
199.104
  0
LINE
  8
0
 10
10.2893
 20
199.104
 11
10.4057
 21
198.746
  0
LINE
  8
0
 10
10.4057
 20
198.746
 11
10.4763
 21
198.376
  0
LINE
  8
0
 10
10.4763
 20
198.376
 11
10.5
 21
198
  0
LINE
  8
0
 10
10.5
 20
198
 11
10.4763
 21
197.624
  0
LINE
  8
0
 10
10.4763
 20
197.624
 11
10.4057
 21
197.254
  0
LINE
  8
0
 10
10.4057
 20
197.254
 11
10.2893
 21
196.896
  0
LINE
  8
0
 10
10.2893
 20
196.896
 11
10.1289
 21
196.555
  0
LINE
  8
0
 10
10.1289
 20
196.555
 11
9.92705
 21
196.237
  0
LINE
  8
0
 10
9.92705
 20
196.237
 11
9.6869
 21
195.946
  0
LINE
  8
0
 10
9.6869
 20
195.946
 11
9.41226
 21
195.688
  0
LINE
  8
0
 10
9.41226
 20
195.688
 11
9.10747
 21
195.467
  0
LINE
  8
0
 10
9.10747
 20
195.467
 11
8.77733
 21
195.286
  0
LINE
  8
0
 10
8.77733
 20
195.286
 11
8.42705
 21
195.147
  0
LINE
  8
0
 10
8.42705
 20
195.147
 11
8.06213
 21
195.053
  0
LINE
  8
0
 10
8.06213
 20
195.053
 11
7.68837
 21
195.006
  0
LINE
  8
0
 10
7.68837
 20
195.006
 11
7.31161
 21
195.006
  0
LINE
  8
0
 10
-0.133423
 20
195.879
 11
-0.398178
 21
195.913
  0
LINE
  8
0
 10
-0.398178
 20
195.913
 11
-0.656647
 21
195.979
  0
LINE
  8
0
 10
-0.656647
 20
195.979
 11
-0.90477
 21
196.077
  0
LINE
  8
0
 10
-0.90477
 20
196.077
 11
-1.13863
 21
196.206
  0
LINE
  8
0
 10
-1.13863
 20
196.206
 11
-1.35452
 21
196.363
  0
LINE
  8
0
 10
-1.35452
 20
196.363
 11
-1.54906
 21
196.545
  0
LINE
  8
0
 10
-1.54906
 20
196.545
 11
-1.71915
 21
196.751
  0
LINE
  8
0
 10
-1.71915
 20
196.751
 11
-1.86214
 21
196.976
  0
LINE
  8
0
 10
-1.86214
 20
196.976
 11
-1.97577
 21
197.218
  0
LINE
  8
0
 10
-1.97577
 20
197.218
 11
-2.05823
 21
197.472
  0
LINE
  8
0
 10
-2.05823
 20
197.472
 11
-2.10823
 21
197.734
  0
LINE
  8
0
 10
-2.10823
 20
197.734
 11
-2.125
 21
198
  0
LINE
  8
0
 10
-2.125
 20
198
 11
-2.10823
 21
198.266
  0
LINE
  8
0
 10
-2.10823
 20
198.266
 11
-2.05823
 21
198.528
  0
LINE
  8
0
 10
-2.05823
 20
198.528
 11
-1.97577
 21
198.782
  0
LINE
  8
0
 10
-1.97577
 20
198.782
 11
-1.86214
 21
199.024
  0
LINE
  8
0
 10
-1.86214
 20
199.024
 11
-1.71915
 21
199.249
  0
LINE
  8
0
 10
-1.71915
 20
199.249
 11
-1.54906
 21
199.455
  0
LINE
  8
0
 10
-1.54906
 20
199.455
 11
-1.35452
 21
199.637
  0
LINE
  8
0
 10
-1.35452
 20
199.637
 11
-1.13863
 21
199.794
  0
LINE
  8
0
 10
-1.13863
 20
199.794
 11
-0.90477
 21
199.923
  0
LINE
  8
0
 10
-0.90477
 20
199.923
 11
-0.656647
 21
200.021
  0
LINE
  8
0
 10
-0.656647
 20
200.021
 11
-0.398178
 21
200.087
  0
LINE
  8
0
 10
-0.398178
 20
200.087
 11
-0.133423
 21
200.121
  0
LINE
  8
0
 10
-0.133423
 20
200.121
 11
0.133423
 21
200.121
  0
LINE
  8
0
 10
0.133423
 20
200.121
 11
0.398178
 21
200.087
  0
LINE
  8
0
 10
0.398178
 20
200.087
 11
0.656647
 21
200.021
  0
LINE
  8
0
 10
0.656647
 20
200.021
 11
0.90477
 21
199.923
  0
LINE
  8
0
 10
0.90477
 20
199.923
 11
1.13863
 21
199.794
  0
LINE
  8
0
 10
1.13863
 20
199.794
 11
1.35452
 21
199.637
  0
LINE
  8
0
 10
1.35452
 20
199.637
 11
1.54906
 21
199.455
  0
LINE
  8
0
 10
1.54906
 20
199.455
 11
1.71915
 21
199.249
  0
LINE
  8
0
 10
1.71915
 20
199.249
 11
1.86214
 21
199.024
  0
LINE
  8
0
 10
1.86214
 20
199.024
 11
1.97577
 21
198.782
  0
LINE
  8
0
 10
1.97577
 20
198.782
 11
2.05823
 21
198.528
  0
LINE
  8
0
 10
2.05823
 20
198.528
 11
2.10823
 21
198.266
  0
LINE
  8
0
 10
2.10823
 20
198.266
 11
2.125
 21
198
  0
LINE
  8
0
 10
2.125
 20
198
 11
2.10823
 21
197.734
  0
LINE
  8
0
 10
2.10823
 20
197.734
 11
2.05823
 21
197.472
  0
LINE
  8
0
 10
2.05823
 20
197.472
 11
1.97577
 21
197.218
  0
LINE
  8
0
 10
1.97577
 20
197.218
 11
1.86214
 21
196.976
  0
LINE
  8
0
 10
1.86214
 20
196.976
 11
1.71915
 21
196.751
  0
LINE
  8
0
 10
1.71915
 20
196.751
 11
1.54906
 21
196.545
  0
LINE
  8
0
 10
1.54906
 20
196.545
 11
1.35452
 21
196.363
  0
LINE
  8
0
 10
1.35452
 20
196.363
 11
1.13863
 21
196.206
  0
LINE
  8
0
 10
1.13863
 20
196.206
 11
0.90477
 21
196.077
  0
LINE
  8
0
 10
0.90477
 20
196.077
 11
0.656647
 21
195.979
  0
LINE
  8
0
 10
0.656647
 20
195.979
 11
0.398178
 21
195.913
  0
LINE
  8
0
 10
0.398178
 20
195.913
 11
0.133423
 21
195.879
  0
LINE
  8
0
 10
0.133423
 20
195.879
 11
-0.133423
 21
195.879
  0
LINE
  8
0
 10
-1.58675
 20
187.752
 11
-3.17349
 21
190.5
  0
LINE
  8
0
 10
-3.17349
 20
190.5
 11
-1.58675
 21
193.248
  0
LINE
  8
0
 10
-1.58675
 20
193.248
 11
1.58675
 21
193.248
  0
LINE
  8
0
 10
1.58675
 20
193.248
 11
3.17349
 21
190.5
  0
LINE
  8
0
 10
3.17349
 20
190.5
 11
1.58675
 21
187.752
  0
LINE
  8
0
 10
1.58675
 20
187.752
 11
-1.58675
 21
187.752
  0
LINE
  8
0
 10
7.40581
 20
189.003
 11
7.21892
 21
189.027
  0
LINE
  8
0
 10
7.21892
 20
189.027
 11
7.03647
 21
189.073
  0
LINE
  8
0
 10
7.03647
 20
189.073
 11
6.86133
 21
189.143
  0
LINE
  8
0
 10
6.86133
 20
189.143
 11
6.69626
 21
189.234
  0
LINE
  8
0
 10
6.69626
 20
189.234
 11
6.54385
 21
189.344
  0
LINE
  8
0
 10
6.54385
 20
189.344
 11
6.40654
 21
189.473
  0
LINE
  8
0
 10
6.40654
 20
189.473
 11
6.28647
 21
189.618
  0
LINE
  8
0
 10
6.28647
 20
189.618
 11
6.18553
 21
189.777
  0
LINE
  8
0
 10
6.18553
 20
189.777
 11
6.10533
 21
189.948
  0
LINE
  8
0
 10
6.10533
 20
189.948
 11
6.04712
 21
190.127
  0
LINE
  8
0
 10
6.04712
 20
190.127
 11
6.01183
 21
190.312
  0
LINE
  8
0
 10
6.01183
 20
190.312
 11
6
 21
190.5
  0
LINE
  8
0
 10
6
 20
190.5
 11
6.01183
 21
190.688
  0
LINE
  8
0
 10
6.01183
 20
190.688
 11
6.04712
 21
190.873
  0
LINE
  8
0
 10
6.04712
 20
190.873
 11
6.10533
 21
191.052
  0
LINE
  8
0
 10
6.10533
 20
191.052
 11
6.18553
 21
191.223
  0
LINE
  8
0
 10
6.18553
 20
191.223
 11
6.28647
 21
191.382
  0
LINE
  8
0
 10
6.28647
 20
191.382
 11
6.40654
 21
191.527
  0
LINE
  8
0
 10
6.40654
 20
191.527
 11
6.54385
 21
191.656
  0
LINE
  8
0
 10
6.54385
 20
191.656
 11
6.69626
 21
191.766
  0
LINE
  8
0
 10
6.69626
 20
191.766
 11
6.86133
 21
191.857
  0
LINE
  8
0
 10
6.86133
 20
191.857
 11
7.03647
 21
191.927
  0
LINE
  8
0
 10
7.03647
 20
191.927
 11
7.21892
 21
191.973
  0
LINE
  8
0
 10
7.21892
 20
191.973
 11
7.40581
 21
191.997
  0
LINE
  8
0
 10
7.40581
 20
191.997
 11
7.59418
 21
191.997
  0
LINE
  8
0
 10
7.59418
 20
191.997
 11
7.78107
 21
191.973
  0
LINE
  8
0
 10
7.78107
 20
191.973
 11
7.96352
 21
191.927
  0
LINE
  8
0
 10
7.96352
 20
191.927
 11
8.13866
 21
191.857
  0
LINE
  8
0
 10
8.13866
 20
191.857
 11
8.30373
 21
191.766
  0
LINE
  8
0
 10
8.30373
 20
191.766
 11
8.45613
 21
191.656
  0
LINE
  8
0
 10
8.45613
 20
191.656
 11
8.59344
 21
191.527
  0
LINE
  8
0
 10
8.59344
 20
191.527
 11
8.71352
 21
191.382
  0
LINE
  8
0
 10
8.71352
 20
191.382
 11
8.81445
 21
191.223
  0
LINE
  8
0
 10
8.81445
 20
191.223
 11
8.89465
 21
191.052
  0
LINE
  8
0
 10
8.89465
 20
191.052
 11
8.95287
 21
190.873
  0
LINE
  8
0
 10
8.95287
 20
190.873
 11
8.98816
 21
190.688
  0
LINE
  8
0
 10
8.98816
 20
190.688
 11
9
 21
190.5
  0
LINE
  8
0
 10
9
 20
190.5
 11
8.98816
 21
190.312
  0
LINE
  8
0
 10
8.98816
 20
190.312
 11
8.95287
 21
190.127
  0
LINE
  8
0
 10
8.95287
 20
190.127
 11
8.89465
 21
189.948
  0
LINE
  8
0
 10
8.89465
 20
189.948
 11
8.81445
 21
189.777
  0
LINE
  8
0
 10
8.81445
 20
189.777
 11
8.71352
 21
189.618
  0
LINE
  8
0
 10
8.71352
 20
189.618
 11
8.59344
 21
189.473
  0
LINE
  8
0
 10
8.59344
 20
189.473
 11
8.45613
 21
189.344
  0
LINE
  8
0
 10
8.45613
 20
189.344
 11
8.30373
 21
189.234
  0
LINE
  8
0
 10
8.30373
 20
189.234
 11
8.13866
 21
189.143
  0
LINE
  8
0
 10
8.13866
 20
189.143
 11
7.96352
 21
189.073
  0
LINE
  8
0
 10
7.96352
 20
189.073
 11
7.78107
 21
189.027
  0
LINE
  8
0
 10
7.78107
 20
189.027
 11
7.59418
 21
189.003
  0
LINE
  8
0
 10
7.59418
 20
189.003
 11
7.40581
 21
189.003
  0
LINE
  8
0
 10
-7.59418
 20
189.003
 11
-7.78107
 21
189.027
  0
LINE
  8
0
 10
-7.78107
 20
189.027
 11
-7.96352
 21
189.073
  0
LINE
  8
0
 10
-7.96352
 20
189.073
 11
-8.13866
 21
189.143
  0
LINE
  8
0
 10
-8.13866
 20
189.143
 11
-8.30373
 21
189.234
  0
LINE
  8
0
 10
-8.30373
 20
189.234
 11
-8.45613
 21
189.344
  0
LINE
  8
0
 10
-8.45613
 20
189.344
 11
-8.59344
 21
189.473
  0
LINE
  8
0
 10
-8.59344
 20
189.473
 11
-8.71352
 21
189.618
  0
LINE
  8
0
 10
-8.71352
 20
189.618
 11
-8.81445
 21
189.777
  0
LINE
  8
0
 10
-8.81445
 20
189.777
 11
-8.89465
 21
189.948
  0
LINE
  8
0
 10
-8.89465
 20
189.948
 11
-8.95287
 21
190.127
  0
LINE
  8
0
 10
-8.95287
 20
190.127
 11
-8.98816
 21
190.312
  0
LINE
  8
0
 10
-8.98816
 20
190.312
 11
-9
 21
190.5
  0
LINE
  8
0
 10
-9
 20
190.5
 11
-8.98816
 21
190.688
  0
LINE
  8
0
 10
-8.98816
 20
190.688
 11
-8.95287
 21
190.873
  0
LINE
  8
0
 10
-8.95287
 20
190.873
 11
-8.89465
 21
191.052
  0
LINE
  8
0
 10
-8.89465
 20
191.052
 11
-8.81445
 21
191.223
  0
LINE
  8
0
 10
-8.81445
 20
191.223
 11
-8.71352
 21
191.382
  0
LINE
  8
0
 10
-8.71352
 20
191.382
 11
-8.59344
 21
191.527
  0
LINE
  8
0
 10
-8.59344
 20
191.527
 11
-8.45613
 21
191.656
  0
LINE
  8
0
 10
-8.45613
 20
191.656
 11
-8.30373
 21
191.766
  0
LINE
  8
0
 10
-8.30373
 20
191.766
 11
-8.13866
 21
191.857
  0
LINE
  8
0
 10
-8.13866
 20
191.857
 11
-7.96352
 21
191.927
  0
LINE
  8
0
 10
-7.96352
 20
191.927
 11
-7.78107
 21
191.973
  0
LINE
  8
0
 10
-7.78107
 20
191.973
 11
-7.59418
 21
191.997
  0
LINE
  8
0
 10
-7.59418
 20
191.997
 11
-7.40581
 21
191.997
  0
LINE
  8
0
 10
-7.40581
 20
191.997
 11
-7.21892
 21
191.973
  0
LINE
  8
0
 10
-7.21892
 20
191.973
 11
-7.03647
 21
191.927
  0
LINE
  8
0
 10
-7.03647
 20
191.927
 11
-6.86133
 21
191.857
  0
LINE
  8
0
 10
-6.86133
 20
191.857
 11
-6.69626
 21
191.766
  0
LINE
  8
0
 10
-6.69626
 20
191.766
 11
-6.54385
 21
191.656
  0
LINE
  8
0
 10
-6.54385
 20
191.656
 11
-6.40654
 21
191.527
  0
LINE
  8
0
 10
-6.40654
 20
191.527
 11
-6.28647
 21
191.382
  0
LINE
  8
0
 10
-6.28647
 20
191.382
 11
-6.18553
 21
191.223
  0
LINE
  8
0
 10
-6.18553
 20
191.223
 11
-6.10533
 21
191.052
  0
LINE
  8
0
 10
-6.10533
 20
191.052
 11
-6.04712
 21
190.873
  0
LINE
  8
0
 10
-6.04712
 20
190.873
 11
-6.01183
 21
190.688
  0
LINE
  8
0
 10
-6.01183
 20
190.688
 11
-6
 21
190.5
  0
LINE
  8
0
 10
-6
 20
190.5
 11
-6.01183
 21
190.312
  0
LINE
  8
0
 10
-6.01183
 20
190.312
 11
-6.04712
 21
190.127
  0
LINE
  8
0
 10
-6.04712
 20
190.127
 11
-6.10533
 21
189.948
  0
LINE
  8
0
 10
-6.10533
 20
189.948
 11
-6.18553
 21
189.777
  0
LINE
  8
0
 10
-6.18553
 20
189.777
 11
-6.28647
 21
189.618
  0
LINE
  8
0
 10
-6.28647
 20
189.618
 11
-6.40654
 21
189.473
  0
LINE
  8
0
 10
-6.40654
 20
189.473
 11
-6.54385
 21
189.344
  0
LINE
  8
0
 10
-6.54385
 20
189.344
 11
-6.69626
 21
189.234
  0
LINE
  8
0
 10
-6.69626
 20
189.234
 11
-6.86133
 21
189.143
  0
LINE
  8
0
 10
-6.86133
 20
189.143
 11
-7.03647
 21
189.073
  0
LINE
  8
0
 10
-7.03647
 20
189.073
 11
-7.21892
 21
189.027
  0
LINE
  8
0
 10
-7.21892
 20
189.027
 11
-7.40581
 21
189.003
  0
LINE
  8
0
 10
-7.40581
 20
189.003
 11
-7.59418
 21
189.003
  0
LINE
  8
0
 10
-1.58675
 20
142.752
 11
-3.17349
 21
145.5
  0
LINE
  8
0
 10
-3.17349
 20
145.5
 11
-1.58675
 21
148.248
  0
LINE
  8
0
 10
-1.58675
 20
148.248
 11
1.58675
 21
148.248
  0
LINE
  8
0
 10
1.58675
 20
148.248
 11
3.17349
 21
145.5
  0
LINE
  8
0
 10
3.17349
 20
145.5
 11
1.58675
 21
142.752
  0
LINE
  8
0
 10
1.58675
 20
142.752
 11
-1.58675
 21
142.752
  0
LINE
  8
0
 10
-7.59418
 20
144.003
 11
-7.78107
 21
144.027
  0
LINE
  8
0
 10
-7.78107
 20
144.027
 11
-7.96352
 21
144.073
  0
LINE
  8
0
 10
-7.96352
 20
144.073
 11
-8.13866
 21
144.143
  0
LINE
  8
0
 10
-8.13866
 20
144.143
 11
-8.30373
 21
144.234
  0
LINE
  8
0
 10
-8.30373
 20
144.234
 11
-8.45613
 21
144.344
  0
LINE
  8
0
 10
-8.45613
 20
144.344
 11
-8.59344
 21
144.473
  0
LINE
  8
0
 10
-8.59344
 20
144.473
 11
-8.71352
 21
144.618
  0
LINE
  8
0
 10
-8.71352
 20
144.618
 11
-8.81445
 21
144.777
  0
LINE
  8
0
 10
-8.81445
 20
144.777
 11
-8.89465
 21
144.948
  0
LINE
  8
0
 10
-8.89465
 20
144.948
 11
-8.95287
 21
145.127
  0
LINE
  8
0
 10
-8.95287
 20
145.127
 11
-8.98816
 21
145.312
  0
LINE
  8
0
 10
-8.98816
 20
145.312
 11
-9
 21
145.5
  0
LINE
  8
0
 10
-9
 20
145.5
 11
-8.98816
 21
145.688
  0
LINE
  8
0
 10
-8.98816
 20
145.688
 11
-8.95287
 21
145.873
  0
LINE
  8
0
 10
-8.95287
 20
145.873
 11
-8.89465
 21
146.052
  0
LINE
  8
0
 10
-8.89465
 20
146.052
 11
-8.81445
 21
146.223
  0
LINE
  8
0
 10
-8.81445
 20
146.223
 11
-8.71352
 21
146.382
  0
LINE
  8
0
 10
-8.71352
 20
146.382
 11
-8.59344
 21
146.527
  0
LINE
  8
0
 10
-8.59344
 20
146.527
 11
-8.45613
 21
146.656
  0
LINE
  8
0
 10
-8.45613
 20
146.656
 11
-8.30373
 21
146.766
  0
LINE
  8
0
 10
-8.30373
 20
146.766
 11
-8.13866
 21
146.857
  0
LINE
  8
0
 10
-8.13866
 20
146.857
 11
-7.96352
 21
146.927
  0
LINE
  8
0
 10
-7.96352
 20
146.927
 11
-7.78107
 21
146.973
  0
LINE
  8
0
 10
-7.78107
 20
146.973
 11
-7.59418
 21
146.997
  0
LINE
  8
0
 10
-7.59418
 20
146.997
 11
-7.40581
 21
146.997
  0
LINE
  8
0
 10
-7.40581
 20
146.997
 11
-7.21892
 21
146.973
  0
LINE
  8
0
 10
-7.21892
 20
146.973
 11
-7.03647
 21
146.927
  0
LINE
  8
0
 10
-7.03647
 20
146.927
 11
-6.86133
 21
146.857
  0
LINE
  8
0
 10
-6.86133
 20
146.857
 11
-6.69626
 21
146.766
  0
LINE
  8
0
 10
-6.69626
 20
146.766
 11
-6.54385
 21
146.656
  0
LINE
  8
0
 10
-6.54385
 20
146.656
 11
-6.40654
 21
146.527
  0
LINE
  8
0
 10
-6.40654
 20
146.527
 11
-6.28647
 21
146.382
  0
LINE
  8
0
 10
-6.28647
 20
146.382
 11
-6.18553
 21
146.223
  0
LINE
  8
0
 10
-6.18553
 20
146.223
 11
-6.10533
 21
146.052
  0
LINE
  8
0
 10
-6.10533
 20
146.052
 11
-6.04712
 21
145.873
  0
LINE
  8
0
 10
-6.04712
 20
145.873
 11
-6.01183
 21
145.688
  0
LINE
  8
0
 10
-6.01183
 20
145.688
 11
-6
 21
145.5
  0
LINE
  8
0
 10
-6
 20
145.5
 11
-6.01183
 21
145.312
  0
LINE
  8
0
 10
-6.01183
 20
145.312
 11
-6.04712
 21
145.127
  0
LINE
  8
0
 10
-6.04712
 20
145.127
 11
-6.10533
 21
144.948
  0
LINE
  8
0
 10
-6.10533
 20
144.948
 11
-6.18553
 21
144.777
  0
LINE
  8
0
 10
-6.18553
 20
144.777
 11
-6.28647
 21
144.618
  0
LINE
  8
0
 10
-6.28647
 20
144.618
 11
-6.40654
 21
144.473
  0
LINE
  8
0
 10
-6.40654
 20
144.473
 11
-6.54385
 21
144.344
  0
LINE
  8
0
 10
-6.54385
 20
144.344
 11
-6.69626
 21
144.234
  0
LINE
  8
0
 10
-6.69626
 20
144.234
 11
-6.86133
 21
144.143
  0
LINE
  8
0
 10
-6.86133
 20
144.143
 11
-7.03647
 21
144.073
  0
LINE
  8
0
 10
-7.03647
 20
144.073
 11
-7.21892
 21
144.027
  0
LINE
  8
0
 10
-7.21892
 20
144.027
 11
-7.40581
 21
144.003
  0
LINE
  8
0
 10
-7.40581
 20
144.003
 11
-7.59418
 21
144.003
  0
LINE
  8
0
 10
7.40581
 20
144.003
 11
7.21892
 21
144.027
  0
LINE
  8
0
 10
7.21892
 20
144.027
 11
7.03647
 21
144.073
  0
LINE
  8
0
 10
7.03647
 20
144.073
 11
6.86133
 21
144.143
  0
LINE
  8
0
 10
6.86133
 20
144.143
 11
6.69626
 21
144.234
  0
LINE
  8
0
 10
6.69626
 20
144.234
 11
6.54385
 21
144.344
  0
LINE
  8
0
 10
6.54385
 20
144.344
 11
6.40654
 21
144.473
  0
LINE
  8
0
 10
6.40654
 20
144.473
 11
6.28647
 21
144.618
  0
LINE
  8
0
 10
6.28647
 20
144.618
 11
6.18553
 21
144.777
  0
LINE
  8
0
 10
6.18553
 20
144.777
 11
6.10533
 21
144.948
  0
LINE
  8
0
 10
6.10533
 20
144.948
 11
6.04712
 21
145.127
  0
LINE
  8
0
 10
6.04712
 20
145.127
 11
6.01183
 21
145.312
  0
LINE
  8
0
 10
6.01183
 20
145.312
 11
6
 21
145.5
  0
LINE
  8
0
 10
6
 20
145.5
 11
6.01183
 21
145.688
  0
LINE
  8
0
 10
6.01183
 20
145.688
 11
6.04712
 21
145.873
  0
LINE
  8
0
 10
6.04712
 20
145.873
 11
6.10533
 21
146.052
  0
LINE
  8
0
 10
6.10533
 20
146.052
 11
6.18553
 21
146.223
  0
LINE
  8
0
 10
6.18553
 20
146.223
 11
6.28647
 21
146.382
  0
LINE
  8
0
 10
6.28647
 20
146.382
 11
6.40654
 21
146.527
  0
LINE
  8
0
 10
6.40654
 20
146.527
 11
6.54385
 21
146.656
  0
LINE
  8
0
 10
6.54385
 20
146.656
 11
6.69626
 21
146.766
  0
LINE
  8
0
 10
6.69626
 20
146.766
 11
6.86133
 21
146.857
  0
LINE
  8
0
 10
6.86133
 20
146.857
 11
7.03647
 21
146.927
  0
LINE
  8
0
 10
7.03647
 20
146.927
 11
7.21892
 21
146.973
  0
LINE
  8
0
 10
7.21892
 20
146.973
 11
7.40581
 21
146.997
  0
LINE
  8
0
 10
7.40581
 20
146.997
 11
7.59418
 21
146.997
  0
LINE
  8
0
 10
7.59418
 20
146.997
 11
7.78107
 21
146.973
  0
LINE
  8
0
 10
7.78107
 20
146.973
 11
7.96352
 21
146.927
  0
LINE
  8
0
 10
7.96352
 20
146.927
 11
8.13866
 21
146.857
  0
LINE
  8
0
 10
8.13866
 20
146.857
 11
8.30373
 21
146.766
  0
LINE
  8
0
 10
8.30373
 20
146.766
 11
8.45613
 21
146.656
  0
LINE
  8
0
 10
8.45613
 20
146.656
 11
8.59344
 21
146.527
  0
LINE
  8
0
 10
8.59344
 20
146.527
 11
8.71352
 21
146.382
  0
LINE
  8
0
 10
8.71352
 20
146.382
 11
8.81445
 21
146.223
  0
LINE
  8
0
 10
8.81445
 20
146.223
 11
8.89465
 21
146.052
  0
LINE
  8
0
 10
8.89465
 20
146.052
 11
8.95287
 21
145.873
  0
LINE
  8
0
 10
8.95287
 20
145.873
 11
8.98816
 21
145.688
  0
LINE
  8
0
 10
8.98816
 20
145.688
 11
9
 21
145.5
  0
LINE
  8
0
 10
9
 20
145.5
 11
8.98816
 21
145.312
  0
LINE
  8
0
 10
8.98816
 20
145.312
 11
8.95287
 21
145.127
  0
LINE
  8
0
 10
8.95287
 20
145.127
 11
8.89465
 21
144.948
  0
LINE
  8
0
 10
8.89465
 20
144.948
 11
8.81445
 21
144.777
  0
LINE
  8
0
 10
8.81445
 20
144.777
 11
8.71352
 21
144.618
  0
LINE
  8
0
 10
8.71352
 20
144.618
 11
8.59344
 21
144.473
  0
LINE
  8
0
 10
8.59344
 20
144.473
 11
8.45613
 21
144.344
  0
LINE
  8
0
 10
8.45613
 20
144.344
 11
8.30373
 21
144.234
  0
LINE
  8
0
 10
8.30373
 20
144.234
 11
8.13866
 21
144.143
  0
LINE
  8
0
 10
8.13866
 20
144.143
 11
7.96352
 21
144.073
  0
LINE
  8
0
 10
7.96352
 20
144.073
 11
7.78107
 21
144.027
  0
LINE
  8
0
 10
7.78107
 20
144.027
 11
7.59418
 21
144.003
  0
LINE
  8
0
 10
7.59418
 20
144.003
 11
7.40581
 21
144.003
  0
LINE
  8
0
 10
7.31161
 20
135.006
 11
6.93785
 21
135.053
  0
LINE
  8
0
 10
6.93785
 20
135.053
 11
6.57294
 21
135.147
  0
LINE
  8
0
 10
6.57294
 20
135.147
 11
6.22266
 21
135.286
  0
LINE
  8
0
 10
6.22266
 20
135.286
 11
5.89252
 21
135.467
  0
LINE
  8
0
 10
5.89252
 20
135.467
 11
5.58772
 21
135.688
  0
LINE
  8
0
 10
5.58772
 20
135.688
 11
5.31308
 21
135.946
  0
LINE
  8
0
 10
5.31308
 20
135.946
 11
5.07294
 21
136.237
  0
LINE
  8
0
 10
5.07294
 20
136.237
 11
4.87108
 21
136.555
  0
LINE
  8
0
 10
4.87108
 20
136.555
 11
4.71066
 21
136.896
  0
LINE
  8
0
 10
4.71066
 20
136.896
 11
4.59424
 21
137.254
  0
LINE
  8
0
 10
4.59424
 20
137.254
 11
4.52365
 21
137.624
  0
LINE
  8
0
 10
4.52365
 20
137.624
 11
4.5
 21
138
  0
LINE
  8
0
 10
4.5
 20
138
 11
4.52365
 21
138.376
  0
LINE
  8
0
 10
4.52365
 20
138.376
 11
4.59424
 21
138.746
  0
LINE
  8
0
 10
4.59424
 20
138.746
 11
4.71066
 21
139.104
  0
LINE
  8
0
 10
4.71066
 20
139.104
 11
4.87108
 21
139.445
  0
LINE
  8
0
 10
4.87108
 20
139.445
 11
5.07294
 21
139.763
  0
LINE
  8
0
 10
5.07294
 20
139.763
 11
5.31308
 21
140.054
  0
LINE
  8
0
 10
5.31308
 20
140.054
 11
5.58772
 21
140.312
  0
LINE
  8
0
 10
5.58772
 20
140.312
 11
5.89252
 21
140.533
  0
LINE
  8
0
 10
5.89252
 20
140.533
 11
6.22266
 21
140.714
  0
LINE
  8
0
 10
6.22266
 20
140.714
 11
6.57294
 21
140.853
  0
LINE
  8
0
 10
6.57294
 20
140.853
 11
6.93785
 21
140.947
  0
LINE
  8
0
 10
6.93785
 20
140.947
 11
7.31161
 21
140.994
  0
LINE
  8
0
 10
7.31161
 20
140.994
 11
7.68837
 21
140.994
  0
LINE
  8
0
 10
7.68837
 20
140.994
 11
8.06213
 21
140.947
  0
LINE
  8
0
 10
8.06213
 20
140.947
 11
8.42705
 21
140.853
  0
LINE
  8
0
 10
8.42705
 20
140.853
 11
8.77733
 21
140.714
  0
LINE
  8
0
 10
8.77733
 20
140.714
 11
9.10747
 21
140.533
  0
LINE
  8
0
 10
9.10747
 20
140.533
 11
9.41226
 21
140.312
  0
LINE
  8
0
 10
9.41226
 20
140.312
 11
9.6869
 21
140.054
  0
LINE
  8
0
 10
9.6869
 20
140.054
 11
9.92705
 21
139.763
  0
LINE
  8
0
 10
9.92705
 20
139.763
 11
10.1289
 21
139.445
  0
LINE
  8
0
 10
10.1289
 20
139.445
 11
10.2893
 21
139.104
  0
LINE
  8
0
 10
10.2893
 20
139.104
 11
10.4057
 21
138.746
  0
LINE
  8
0
 10
10.4057
 20
138.746
 11
10.4763
 21
138.376
  0
LINE
  8
0
 10
10.4763
 20
138.376
 11
10.5
 21
138
  0
LINE
  8
0
 10
10.5
 20
138
 11
10.4763
 21
137.624
  0
LINE
  8
0
 10
10.4763
 20
137.624
 11
10.4057
 21
137.254
  0
LINE
  8
0
 10
10.4057
 20
137.254
 11
10.2893
 21
136.896
  0
LINE
  8
0
 10
10.2893
 20
136.896
 11
10.1289
 21
136.555
  0
LINE
  8
0
 10
10.1289
 20
136.555
 11
9.92705
 21
136.237
  0
LINE
  8
0
 10
9.92705
 20
136.237
 11
9.6869
 21
135.946
  0
LINE
  8
0
 10
9.6869
 20
135.946
 11
9.41226
 21
135.688
  0
LINE
  8
0
 10
9.41226
 20
135.688
 11
9.10747
 21
135.467
  0
LINE
  8
0
 10
9.10747
 20
135.467
 11
8.77733
 21
135.286
  0
LINE
  8
0
 10
8.77733
 20
135.286
 11
8.42705
 21
135.147
  0
LINE
  8
0
 10
8.42705
 20
135.147
 11
8.06213
 21
135.053
  0
LINE
  8
0
 10
8.06213
 20
135.053
 11
7.68837
 21
135.006
  0
LINE
  8
0
 10
7.68837
 20
135.006
 11
7.31161
 21
135.006
  0
LINE
  8
0
 10
-7.68837
 20
135.006
 11
-8.06213
 21
135.053
  0
LINE
  8
0
 10
-8.06213
 20
135.053
 11
-8.42705
 21
135.147
  0
LINE
  8
0
 10
-8.42705
 20
135.147
 11
-8.77733
 21
135.286
  0
LINE
  8
0
 10
-8.77733
 20
135.286
 11
-9.10747
 21
135.467
  0
LINE
  8
0
 10
-9.10747
 20
135.467
 11
-9.41226
 21
135.688
  0
LINE
  8
0
 10
-9.41226
 20
135.688
 11
-9.6869
 21
135.946
  0
LINE
  8
0
 10
-9.6869
 20
135.946
 11
-9.92705
 21
136.237
  0
LINE
  8
0
 10
-9.92705
 20
136.237
 11
-10.1289
 21
136.555
  0
LINE
  8
0
 10
-10.1289
 20
136.555
 11
-10.2893
 21
136.896
  0
LINE
  8
0
 10
-10.2893
 20
136.896
 11
-10.4057
 21
137.254
  0
LINE
  8
0
 10
-10.4057
 20
137.254
 11
-10.4763
 21
137.624
  0
LINE
  8
0
 10
-10.4763
 20
137.624
 11
-10.5
 21
138
  0
LINE
  8
0
 10
-10.5
 20
138
 11
-10.4763
 21
138.376
  0
LINE
  8
0
 10
-10.4763
 20
138.376
 11
-10.4057
 21
138.746
  0
LINE
  8
0
 10
-10.4057
 20
138.746
 11
-10.2893
 21
139.104
  0
LINE
  8
0
 10
-10.2893
 20
139.104
 11
-10.1289
 21
139.445
  0
LINE
  8
0
 10
-10.1289
 20
139.445
 11
-9.92705
 21
139.763
  0
LINE
  8
0
 10
-9.92705
 20
139.763
 11
-9.6869
 21
140.054
  0
LINE
  8
0
 10
-9.6869
 20
140.054
 11
-9.41226
 21
140.312
  0
LINE
  8
0
 10
-9.41226
 20
140.312
 11
-9.10747
 21
140.533
  0
LINE
  8
0
 10
-9.10747
 20
140.533
 11
-8.77733
 21
140.714
  0
LINE
  8
0
 10
-8.77733
 20
140.714
 11
-8.42705
 21
140.853
  0
LINE
  8
0
 10
-8.42705
 20
140.853
 11
-8.06213
 21
140.947
  0
LINE
  8
0
 10
-8.06213
 20
140.947
 11
-7.68837
 21
140.994
  0
LINE
  8
0
 10
-7.68837
 20
140.994
 11
-7.31161
 21
140.994
  0
LINE
  8
0
 10
-7.31161
 20
140.994
 11
-6.93785
 21
140.947
  0
LINE
  8
0
 10
-6.93785
 20
140.947
 11
-6.57294
 21
140.853
  0
LINE
  8
0
 10
-6.57294
 20
140.853
 11
-6.22266
 21
140.714
  0
LINE
  8
0
 10
-6.22266
 20
140.714
 11
-5.89252
 21
140.533
  0
LINE
  8
0
 10
-5.89252
 20
140.533
 11
-5.58772
 21
140.312
  0
LINE
  8
0
 10
-5.58772
 20
140.312
 11
-5.31308
 21
140.054
  0
LINE
  8
0
 10
-5.31308
 20
140.054
 11
-5.07294
 21
139.763
  0
LINE
  8
0
 10
-5.07294
 20
139.763
 11
-4.87108
 21
139.445
  0
LINE
  8
0
 10
-4.87108
 20
139.445
 11
-4.71066
 21
139.104
  0
LINE
  8
0
 10
-4.71066
 20
139.104
 11
-4.59424
 21
138.746
  0
LINE
  8
0
 10
-4.59424
 20
138.746
 11
-4.52365
 21
138.376
  0
LINE
  8
0
 10
-4.52365
 20
138.376
 11
-4.5
 21
138
  0
LINE
  8
0
 10
-4.5
 20
138
 11
-4.52365
 21
137.624
  0
LINE
  8
0
 10
-4.52365
 20
137.624
 11
-4.59424
 21
137.254
  0
LINE
  8
0
 10
-4.59424
 20
137.254
 11
-4.71066
 21
136.896
  0
LINE
  8
0
 10
-4.71066
 20
136.896
 11
-4.87108
 21
136.555
  0
LINE
  8
0
 10
-4.87108
 20
136.555
 11
-5.07294
 21
136.237
  0
LINE
  8
0
 10
-5.07294
 20
136.237
 11
-5.31308
 21
135.946
  0
LINE
  8
0
 10
-5.31308
 20
135.946
 11
-5.58772
 21
135.688
  0
LINE
  8
0
 10
-5.58772
 20
135.688
 11
-5.89252
 21
135.467
  0
LINE
  8
0
 10
-5.89252
 20
135.467
 11
-6.22266
 21
135.286
  0
LINE
  8
0
 10
-6.22266
 20
135.286
 11
-6.57294
 21
135.147
  0
LINE
  8
0
 10
-6.57294
 20
135.147
 11
-6.93785
 21
135.053
  0
LINE
  8
0
 10
-6.93785
 20
135.053
 11
-7.31161
 21
135.006
  0
LINE
  8
0
 10
-7.31161
 20
135.006
 11
-7.68837
 21
135.006
  0
LINE
  8
0
 10
-0.133423
 20
135.879
 11
-0.398178
 21
135.913
  0
LINE
  8
0
 10
-0.398178
 20
135.913
 11
-0.656647
 21
135.979
  0
LINE
  8
0
 10
-0.656647
 20
135.979
 11
-0.90477
 21
136.077
  0
LINE
  8
0
 10
-0.90477
 20
136.077
 11
-1.13863
 21
136.206
  0
LINE
  8
0
 10
-1.13863
 20
136.206
 11
-1.35452
 21
136.363
  0
LINE
  8
0
 10
-1.35452
 20
136.363
 11
-1.54906
 21
136.545
  0
LINE
  8
0
 10
-1.54906
 20
136.545
 11
-1.71915
 21
136.751
  0
LINE
  8
0
 10
-1.71915
 20
136.751
 11
-1.86214
 21
136.976
  0
LINE
  8
0
 10
-1.86214
 20
136.976
 11
-1.97577
 21
137.218
  0
LINE
  8
0
 10
-1.97577
 20
137.218
 11
-2.05823
 21
137.472
  0
LINE
  8
0
 10
-2.05823
 20
137.472
 11
-2.10823
 21
137.734
  0
LINE
  8
0
 10
-2.10823
 20
137.734
 11
-2.125
 21
138
  0
LINE
  8
0
 10
-2.125
 20
138
 11
-2.10823
 21
138.266
  0
LINE
  8
0
 10
-2.10823
 20
138.266
 11
-2.05823
 21
138.528
  0
LINE
  8
0
 10
-2.05823
 20
138.528
 11
-1.97577
 21
138.782
  0
LINE
  8
0
 10
-1.97577
 20
138.782
 11
-1.86214
 21
139.024
  0
LINE
  8
0
 10
-1.86214
 20
139.024
 11
-1.71915
 21
139.249
  0
LINE
  8
0
 10
-1.71915
 20
139.249
 11
-1.54906
 21
139.455
  0
LINE
  8
0
 10
-1.54906
 20
139.455
 11
-1.35452
 21
139.637
  0
LINE
  8
0
 10
-1.35452
 20
139.637
 11
-1.13863
 21
139.794
  0
LINE
  8
0
 10
-1.13863
 20
139.794
 11
-0.90477
 21
139.923
  0
LINE
  8
0
 10
-0.90477
 20
139.923
 11
-0.656647
 21
140.021
  0
LINE
  8
0
 10
-0.656647
 20
140.021
 11
-0.398178
 21
140.087
  0
LINE
  8
0
 10
-0.398178
 20
140.087
 11
-0.133423
 21
140.121
  0
LINE
  8
0
 10
-0.133423
 20
140.121
 11
0.133423
 21
140.121
  0
LINE
  8
0
 10
0.133423
 20
140.121
 11
0.398178
 21
140.087
  0
LINE
  8
0
 10
0.398178
 20
140.087
 11
0.656647
 21
140.021
  0
LINE
  8
0
 10
0.656647
 20
140.021
 11
0.90477
 21
139.923
  0
LINE
  8
0
 10
0.90477
 20
139.923
 11
1.13863
 21
139.794
  0
LINE
  8
0
 10
1.13863
 20
139.794
 11
1.35452
 21
139.637
  0
LINE
  8
0
 10
1.35452
 20
139.637
 11
1.54906
 21
139.455
  0
LINE
  8
0
 10
1.54906
 20
139.455
 11
1.71915
 21
139.249
  0
LINE
  8
0
 10
1.71915
 20
139.249
 11
1.86214
 21
139.024
  0
LINE
  8
0
 10
1.86214
 20
139.024
 11
1.97577
 21
138.782
  0
LINE
  8
0
 10
1.97577
 20
138.782
 11
2.05823
 21
138.528
  0
LINE
  8
0
 10
2.05823
 20
138.528
 11
2.10823
 21
138.266
  0
LINE
  8
0
 10
2.10823
 20
138.266
 11
2.125
 21
138
  0
LINE
  8
0
 10
2.125
 20
138
 11
2.10823
 21
137.734
  0
LINE
  8
0
 10
2.10823
 20
137.734
 11
2.05823
 21
137.472
  0
LINE
  8
0
 10
2.05823
 20
137.472
 11
1.97577
 21
137.218
  0
LINE
  8
0
 10
1.97577
 20
137.218
 11
1.86214
 21
136.976
  0
LINE
  8
0
 10
1.86214
 20
136.976
 11
1.71915
 21
136.751
  0
LINE
  8
0
 10
1.71915
 20
136.751
 11
1.54906
 21
136.545
  0
LINE
  8
0
 10
1.54906
 20
136.545
 11
1.35452
 21
136.363
  0
LINE
  8
0
 10
1.35452
 20
136.363
 11
1.13863
 21
136.206
  0
LINE
  8
0
 10
1.13863
 20
136.206
 11
0.90477
 21
136.077
  0
LINE
  8
0
 10
0.90477
 20
136.077
 11
0.656647
 21
135.979
  0
LINE
  8
0
 10
0.656647
 20
135.979
 11
0.398178
 21
135.913
  0
LINE
  8
0
 10
0.398178
 20
135.913
 11
0.133423
 21
135.879
  0
LINE
  8
0
 10
0.133423
 20
135.879
 11
-0.133423
 21
135.879
  0
ENDSEC
  0
SECTION
  2
OBJECTS
  0
DICTIONARY
  0
ENDSEC
  0
EOF
