<?xml version="1.0" standalone="no"?>
<!DOCTYPE svg PUBLIC "-//W3C//DTD SVG 1.1//EN" "http://www.w3.org/Graphics/SVG/1.1/DTD/svg11.dtd">
<svg width="80mm" height="158mm" viewBox="-15 -205 80 158" xmlns="http://www.w3.org/2000/svg" version="1.1">
<title>OpenSCAD Model</title>
<path d="
M 14.5,-200 L 14.4606,-200.627 L 14.3429,-201.243 L 14.1489,-201.841 L 13.8815,-202.409 L 13.5451,-202.939
 L 13.1448,-203.423 L 12.6871,-203.853 L 12.1791,-204.222 L 11.6289,-204.524 L 11.0451,-204.755 L 10.4369,-204.911
 L 9.81395,-204.99 L -9.81395,-204.99 L -10.4369,-204.911 L -11.0451,-204.755 L -11.6289,-204.524 L -12.1791,-204.222
 L -12.6871,-203.853 L -13.1448,-203.423 L -13.5451,-202.939 L -13.8815,-202.409 L -14.1489,-201.841 L -14.3429,-201.243
 L -14.4606,-200.627 L -14.5,-200 L -14.5,-184.994 L 14.5,-184.994 z
M -0.194641,-194.906 L -0.580872,-194.955 L -0.957947,-195.052 L -1.3199,-195.195 L -1.66106,-195.383 L -1.97601,-195.611
 L -2.2598,-195.878 L -2.50795,-196.178 L -2.71654,-196.507 L -2.88229,-196.859 L -3.00259,-197.229 L -3.07555,-197.611
 L -3.09999,-198 L -3.07555,-198.389 L -3.00259,-198.771 L -2.88229,-199.141 L -2.71654,-199.493 L -2.50795,-199.822
 L -2.2598,-200.122 L -1.97601,-200.389 L -1.66106,-200.617 L -1.3199,-200.805 L -0.957947,-200.948 L -0.580872,-201.045
 L -0.194641,-201.094 L 0.194641,-201.094 L 0.580872,-201.045 L 0.957947,-200.948 L 1.3199,-200.805 L 1.66106,-200.617
 L 1.97601,-200.389 L 2.2598,-200.122 L 2.50795,-199.822 L 2.71654,-199.493 L 2.88229,-199.141 L 3.00259,-198.771
 L 3.07555,-198.389 L 3.09999,-198 L 3.07555,-197.611 L 3.00259,-197.229 L 2.88229,-196.859 L 2.71654,-196.507
 L 2.50795,-196.178 L 2.2598,-195.878 L 1.97601,-195.611 L 1.66106,-195.383 L 1.3199,-195.195 L 0.957947,-195.052
 L 0.580872,-194.955 L 0.194641,-194.906 z
M -7.68837,-195.006 L -8.06213,-195.053 L -8.42705,-195.147 L -8.77733,-195.286 L -9.10747,-195.467 L -9.41226,-195.688
 L -9.6869,-195.946 L -9.92705,-196.237 L -10.1289,-196.555 L -10.2893,-196.896 L -10.4057,-197.254 L -10.4763,-197.624
 L -10.5,-198 L -10.4763,-198.376 L -10.4057,-198.746 L -10.2893,-199.104 L -10.1289,-199.445 L -9.92705,-199.763
 L -9.6869,-200.054 L -9.41226,-200.312 L -9.10747,-200.533 L -8.77733,-200.714 L -8.42705,-200.853 L -8.06213,-200.947
 L -7.68837,-200.994 L -7.31161,-200.994 L -6.93785,-200.947 L -6.57294,-200.853 L -6.22266,-200.714 L -5.89252,-200.533
 L -5.58772,-200.312 L -5.31308,-200.054 L -5.07294,-199.763 L -4.87108,-199.445 L -4.71066,-199.104 L -4.59424,-198.746
 L -4.52365,-198.376 L -4.5,-198 L -4.52365,-197.624 L -4.59424,-197.254 L -4.71066,-196.896 L -4.87108,-196.555
 L -5.07294,-196.237 L -5.31308,-195.946 L -5.58772,-195.688 L -5.89252,-195.467 L -6.22266,-195.286 L -6.57294,-195.147
 L -6.93785,-195.053 L -7.31161,-195.006 z
M 7.31161,-195.006 L 6.93785,-195.053 L 6.57294,-195.147 L 6.22266,-195.286 L 5.89252,-195.467 L 5.58772,-195.688
 L 5.31308,-195.946 L 5.07294,-196.237 L 4.87108,-196.555 L 4.71066,-196.896 L 4.59424,-197.254 L 4.52365,-197.624
 L 4.5,-198 L 4.52365,-198.376 L 4.59424,-198.746 L 4.71066,-199.104 L 4.87108,-199.445 L 5.07294,-199.763
 L 5.31308,-200.054 L 5.58772,-200.312 L 5.89252,-200.533 L 6.22266,-200.714 L 6.57294,-200.853 L 6.93785,-200.947
 L 7.31161,-200.994 L 7.68837,-200.994 L 8.06213,-200.947 L 8.42705,-200.853 L 8.77733,-200.714 L 9.10747,-200.533
 L 9.41226,-200.312 L 9.6869,-200.054 L 9.92705,-199.763 L 10.1289,-199.445 L 10.2893,-199.104 L 10.4057,-198.746
 L 10.4763,-198.376 L 10.5,-198 L 10.4763,-197.624 L 10.4057,-197.254 L 10.2893,-196.896 L 10.1289,-196.555
 L 9.92705,-196.237 L 9.6869,-195.946 L 9.41226,-195.688 L 9.10747,-195.467 L 8.77733,-195.286 L 8.42705,-195.147
 L 8.06213,-195.053 L 7.68837,-195.006 z
M -0.113022,-188.704 L -0.33728,-188.732 L -0.556229,-188.788 L -0.766388,-188.871 L -0.964478,-188.98 L -1.14735,-189.113
 L -1.31213,-189.268 L -1.45622,-189.442 L -1.57735,-189.633 L -1.67358,-189.837 L -1.74344,-190.052 L -1.7858,-190.274
 L -1.79999,-190.5 L -1.7858,-190.726 L -1.74344,-190.948 L -1.67358,-191.163 L -1.57735,-191.367 L -1.45622,-191.558
 L -1.31213,-191.732 L -1.14735,-191.887 L -0.964478,-192.02 L -0.766388,-192.129 L -0.556229,-192.212 L -0.33728,-192.268
 L -0.113022,-192.296 L 0.113022,-192.296 L 0.33728,-192.268 L 0.556229,-192.212 L 0.766388,-192.129 L 0.964478,-192.02
 L 1.14735,-191.887 L 1.31213,-191.732 L 1.45622,-191.558 L 1.57735,-191.367 L 1.67358,-191.163 L 1.74344,-190.948
 L 1.7858,-190.726 L 1.79999,-190.5 L 1.7858,-190.274 L 1.74344,-190.052 L 1.67358,-189.837 L 1.57735,-189.633
 L 1.45622,-189.442 L 1.31213,-189.268 L 1.14735,-189.113 L 0.964478,-188.98 L 0.766388,-188.871 L 0.556229,-188.788
 L 0.33728,-188.732 L 0.113022,-188.704 z
M 7.40581,-189.003 L 7.21892,-189.027 L 7.03647,-189.073 L 6.86133,-189.143 L 6.69626,-189.234 L 6.54385,-189.344
 L 6.40654,-189.473 L 6.28647,-189.618 L 6.18553,-189.777 L 6.10533,-189.948 L 6.04712,-190.127 L 6.01183,-190.312
 L 6,-190.5 L 6.01183,-190.688 L 6.04712,-190.873 L 6.10533,-191.052 L 6.18553,-191.223 L 6.28647,-191.382
 L 6.40654,-191.527 L 6.54385,-191.656 L 6.69626,-191.766 L 6.86133,-191.857 L 7.03647,-191.927 L 7.21892,-191.973
 L 7.40581,-191.997 L 7.59418,-191.997 L 7.78107,-191.973 L 7.96352,-191.927 L 8.13866,-191.857 L 8.30373,-191.766
 L 8.45613,-191.656 L 8.59344,-191.527 L 8.71352,-191.382 L 8.81445,-191.223 L 8.89465,-191.052 L 8.95287,-190.873
 L 8.98816,-190.688 L 9,-190.5 L 8.98816,-190.312 L 8.95287,-190.127 L 8.89465,-189.948 L 8.81445,-189.777
 L 8.71352,-189.618 L 8.59344,-189.473 L 8.45613,-189.344 L 8.30373,-189.234 L 8.13866,-189.143 L 7.96352,-189.073
 L 7.78107,-189.027 L 7.59418,-189.003 z
M -7.59418,-189.003 L -7.78107,-189.027 L -7.96352,-189.073 L -8.13866,-189.143 L -8.30373,-189.234 L -8.45613,-189.344
 L -8.59344,-189.473 L -8.71352,-189.618 L -8.81445,-189.777 L -8.89465,-189.948 L -8.95287,-190.127 L -8.98816,-190.312
 L -9,-190.5 L -8.98816,-190.688 L -8.95287,-190.873 L -8.89465,-191.052 L -8.81445,-191.223 L -8.71352,-191.382
 L -8.59344,-191.527 L -8.45613,-191.656 L -8.30373,-191.766 L -8.13866,-191.857 L -7.96352,-191.927 L -7.78107,-191.973
 L -7.59418,-191.997 L -7.40581,-191.997 L -7.21892,-191.973 L -7.03647,-191.927 L -6.86133,-191.857 L -6.69626,-191.766
 L -6.54385,-191.656 L -6.40654,-191.527 L -6.28647,-191.382 L -6.18553,-191.223 L -6.10533,-191.052 L -6.04712,-190.873
 L -6.01183,-190.688 L -6,-190.5 L -6.01183,-190.312 L -6.04712,-190.127 L -6.10533,-189.948 L -6.18553,-189.777
 L -6.28647,-189.618 L -6.40654,-189.473 L -6.54385,-189.344 L -6.69626,-189.234 L -6.86133,-189.143 L -7.03647,-189.073
 L -7.21892,-189.027 L -7.40581,-189.003 z
M 64.5,-200 L 64.4606,-200.627 L 64.3429,-201.243 L 64.1489,-201.841 L 63.8815,-202.409 L 63.5451,-202.939
 L 63.1448,-203.423 L 62.6871,-203.853 L 62.1791,-204.222 L 61.6289,-204.524 L 61.0451,-204.755 L 60.4369,-204.911
 L 59.8139,-204.99 L 40.186,-204.99 L 39.5631,-204.911 L 38.9549,-204.755 L 38.3711,-204.524 L 37.8209,-204.222
 L 37.3129,-203.853 L 36.8551,-203.423 L 36.4549,-202.939 L 36.1185,-202.409 L 35.8511,-201.841 L 35.6571,-201.243
 L 35.5394,-200.627 L 35.5,-200 L 35.5,-184.994 L 64.5,-184.994 z
M 42.3116,-195.006 L 41.9379,-195.053 L 41.5729,-195.147 L 41.2227,-195.286 L 40.8925,-195.467 L 40.5877,-195.688
 L 40.3131,-195.946 L 40.0729,-196.237 L 39.8711,-196.555 L 39.7107,-196.896 L 39.5942,-197.254 L 39.5237,-197.624
 L 39.5,-198 L 39.5237,-198.376 L 39.5942,-198.746 L 39.7107,-199.104 L 39.8711,-199.445 L 40.0729,-199.763
 L 40.3131,-200.054 L 40.5877,-200.312 L 40.8925,-200.533 L 41.2227,-200.714 L 41.5729,-200.853 L 41.9379,-200.947
 L 42.3116,-200.994 L 42.6884,-200.994 L 43.0621,-200.947 L 43.427,-200.853 L 43.7773,-200.714 L 44.1075,-200.533
 L 44.4123,-200.312 L 44.6869,-200.054 L 44.927,-199.763 L 45.1289,-199.445 L 45.2893,-199.104 L 45.4057,-198.746
 L 45.4763,-198.376 L 45.5,-198 L 45.4763,-197.624 L 45.4057,-197.254 L 45.2893,-196.896 L 45.1289,-196.555
 L 44.927,-196.237 L 44.6869,-195.946 L 44.4123,-195.688 L 44.1075,-195.467 L 43.7773,-195.286 L 43.427,-195.147
 L 43.0621,-195.053 L 42.6884,-195.006 z
M 57.3116,-195.006 L 56.9379,-195.053 L 56.5729,-195.147 L 56.2227,-195.286 L 55.8925,-195.467 L 55.5877,-195.688
 L 55.3131,-195.946 L 55.0729,-196.237 L 54.8711,-196.555 L 54.7107,-196.896 L 54.5942,-197.254 L 54.5237,-197.624
 L 54.5,-198 L 54.5237,-198.376 L 54.5942,-198.746 L 54.7107,-199.104 L 54.8711,-199.445 L 55.0729,-199.763
 L 55.3131,-200.054 L 55.5877,-200.312 L 55.8925,-200.533 L 56.2227,-200.714 L 56.5729,-200.853 L 56.9379,-200.947
 L 57.3116,-200.994 L 57.6884,-200.994 L 58.0621,-200.947 L 58.427,-200.853 L 58.7773,-200.714 L 59.1075,-200.533
 L 59.4123,-200.312 L 59.6869,-200.054 L 59.927,-199.763 L 60.1289,-199.445 L 60.2893,-199.104 L 60.4057,-198.746
 L 60.4763,-198.376 L 60.5,-198 L 60.4763,-197.624 L 60.4057,-197.254 L 60.2893,-196.896 L 60.1289,-196.555
 L 59.927,-196.237 L 59.6869,-195.946 L 59.4123,-195.688 L 59.1075,-195.467 L 58.7773,-195.286 L 58.427,-195.147
 L 58.0621,-195.053 L 57.6884,-195.006 z
M 49.9058,-196.503 L 49.7189,-196.527 L 49.5365,-196.573 L 49.3613,-196.643 L 49.1963,-196.734 L 49.0439,-196.844
 L 48.9065,-196.973 L 48.7865,-197.118 L 48.6855,-197.277 L 48.6053,-197.448 L 48.5471,-197.627 L 48.5118,-197.812
 L 48.5,-198 L 48.5118,-198.188 L 48.5471,-198.373 L 48.6053,-198.552 L 48.6855,-198.723 L 48.7865,-198.882
 L 48.9065,-199.027 L 49.0439,-199.156 L 49.1963,-199.266 L 49.3613,-199.357 L 49.5365,-199.427 L 49.7189,-199.473
 L 49.9058,-199.497 L 50.0942,-199.497 L 50.2811,-199.473 L 50.4635,-199.427 L 50.6387,-199.357 L 50.8037,-199.266
 L 50.9561,-199.156 L 51.0934,-199.027 L 51.2135,-198.882 L 51.3145,-198.723 L 51.3947,-198.552 L 51.4529,-198.373
 L 51.4882,-198.188 L 51.5,-198 L 51.4882,-197.812 L 51.4529,-197.627 L 51.3947,-197.448 L 51.3145,-197.277
 L 51.2135,-197.118 L 51.0934,-196.973 L 50.9561,-196.844 L 50.8037,-196.734 L 50.6387,-196.643 L 50.4635,-196.573
 L 50.2811,-196.527 L 50.0942,-196.503 z
M 49.887,-188.704 L 49.6627,-188.732 L 49.4438,-188.788 L 49.2336,-188.871 L 49.0355,-188.98 L 48.8526,-189.113
 L 48.6879,-189.268 L 48.5438,-189.442 L 48.4226,-189.633 L 48.3264,-189.837 L 48.2565,-190.052 L 48.2142,-190.274
 L 48.2,-190.5 L 48.2142,-190.726 L 48.2565,-190.948 L 48.3264,-191.163 L 48.4226,-191.367 L 48.5438,-191.558
 L 48.6879,-191.732 L 48.8526,-191.887 L 49.0355,-192.02 L 49.2336,-192.129 L 49.4438,-192.212 L 49.6627,-192.268
 L 49.887,-192.296 L 50.113,-192.296 L 50.3373,-192.268 L 50.5562,-192.212 L 50.7664,-192.129 L 50.9645,-192.02
 L 51.1474,-191.887 L 51.3121,-191.732 L 51.4562,-191.558 L 51.5773,-191.367 L 51.6736,-191.163 L 51.7434,-190.948
 L 51.7858,-190.726 L 51.8,-190.5 L 51.7858,-190.274 L 51.7434,-190.052 L 51.6736,-189.837 L 51.5773,-189.633
 L 51.4562,-189.442 L 51.3121,-189.268 L 51.1474,-189.113 L 50.9645,-188.98 L 50.7664,-188.871 L 50.5562,-188.788
 L 50.3373,-188.732 L 50.113,-188.704 z
M 57.4058,-189.003 L 57.2189,-189.027 L 57.0365,-189.073 L 56.8613,-189.143 L 56.6963,-189.234 L 56.5439,-189.344
 L 56.4065,-189.473 L 56.2865,-189.618 L 56.1855,-189.777 L 56.1053,-189.948 L 56.0471,-190.127 L 56.0118,-190.312
 L 56,-190.5 L 56.0118,-190.688 L 56.0471,-190.873 L 56.1053,-191.052 L 56.1855,-191.223 L 56.2865,-191.382
 L 56.4065,-191.527 L 56.5439,-191.656 L 56.6963,-191.766 L 56.8613,-191.857 L 57.0365,-191.927 L 57.2189,-191.973
 L 57.4058,-191.997 L 57.5942,-191.997 L 57.7811,-191.973 L 57.9635,-191.927 L 58.1387,-191.857 L 58.3037,-191.766
 L 58.4561,-191.656 L 58.5934,-191.527 L 58.7135,-191.382 L 58.8145,-191.223 L 58.8947,-191.052 L 58.9529,-190.873
 L 58.9882,-190.688 L 59,-190.5 L 58.9882,-190.312 L 58.9529,-190.127 L 58.8947,-189.948 L 58.8145,-189.777
 L 58.7135,-189.618 L 58.5934,-189.473 L 58.4561,-189.344 L 58.3037,-189.234 L 58.1387,-189.143 L 57.9635,-189.073
 L 57.7811,-189.027 L 57.5942,-189.003 z
M 42.4058,-189.003 L 42.2189,-189.027 L 42.0365,-189.073 L 41.8613,-189.143 L 41.6963,-189.234 L 41.5439,-189.344
 L 41.4065,-189.473 L 41.2865,-189.618 L 41.1855,-189.777 L 41.1053,-189.948 L 41.0471,-190.127 L 41.0118,-190.312
 L 41,-190.5 L 41.0118,-190.688 L 41.0471,-190.873 L 41.1053,-191.052 L 41.1855,-191.223 L 41.2865,-191.382
 L 41.4065,-191.527 L 41.5439,-191.656 L 41.6963,-191.766 L 41.8613,-191.857 L 42.0365,-191.927 L 42.2189,-191.973
 L 42.4058,-191.997 L 42.5942,-191.997 L 42.7811,-191.973 L 42.9635,-191.927 L 43.1387,-191.857 L 43.3037,-191.766
 L 43.4561,-191.656 L 43.5934,-191.527 L 43.7135,-191.382 L 43.8145,-191.223 L 43.8947,-191.052 L 43.9529,-190.873
 L 43.9882,-190.688 L 44,-190.5 L 43.9882,-190.312 L 43.9529,-190.127 L 43.8947,-189.948 L 43.8145,-189.777
 L 43.7135,-189.618 L 43.5934,-189.473 L 43.4561,-189.344 L 43.3037,-189.234 L 43.1387,-189.143 L 42.9635,-189.073
 L 42.7811,-189.027 L 42.5942,-189.003 z
M 14.5,-181.006 L -14.5,-181.006 L -14.5,-177.494 L 14.5,-177.494 z
M 64.5,-181.006 L 35.5,-181.006 L 35.5,-177.494 L 64.5,-177.494 z
M 14.5,-173.506 L -14.5,-173.506 L -14.5,-169.994 L 14.5,-169.994 z
M 64.5,-173.506 L 35.5,-173.506 L 35.5,-169.994 L 64.5,-169.994 z
M 64.5,-166.006 L 35.5,-166.006 L 35.5,-162.494 L 64.5,-162.494 z
M 14.5,-166.006 L -14.5,-166.006 L -14.5,-162.494 L 14.5,-162.494 z
M 14.5,-158.506 L -14.5,-158.506 L -14.5,-154.994 L 14.5,-154.994 z
M 64.5,-158.506 L 35.5,-158.506 L 35.5,-154.994 L 64.5,-154.994 z
M 10.4369,-131.089 L 11.0451,-131.245 L 11.6289,-131.476 L 12.1791,-131.778 L 12.6871,-132.147 L 13.1448,-132.577
 L 13.5451,-133.061 L 13.8815,-133.591 L 14.1489,-134.159 L 14.3429,-134.757 L 14.4606,-135.373 L 14.5,-136
 L 14.5,-151.006 L -14.5,-151.006 L -14.5,-136 L -14.4606,-135.373 L -14.3429,-134.757 L -14.1489,-134.159
 L -13.8815,-133.591 L -13.5451,-133.061 L -13.1448,-132.577 L -12.6871,-132.147 L -12.1791,-131.778 L -11.6289,-131.476
 L -11.0451,-131.245 L -10.4369,-131.089 L -9.81395,-131.01 L 9.81395,-131.01 z
M -0.113022,-143.704 L -0.33728,-143.732 L -0.556229,-143.788 L -0.766388,-143.871 L -0.964478,-143.98 L -1.14735,-144.113
 L -1.31213,-144.268 L -1.45622,-144.442 L -1.57735,-144.633 L -1.67358,-144.837 L -1.74344,-145.052 L -1.7858,-145.274
 L -1.79999,-145.5 L -1.7858,-145.726 L -1.74344,-145.948 L -1.67358,-146.163 L -1.57735,-146.367 L -1.45622,-146.558
 L -1.31213,-146.732 L -1.14735,-146.887 L -0.964478,-147.02 L -0.766388,-147.129 L -0.556229,-147.212 L -0.33728,-147.268
 L -0.113022,-147.296 L 0.113022,-147.296 L 0.33728,-147.268 L 0.556229,-147.212 L 0.766388,-147.129 L 0.964478,-147.02
 L 1.14735,-146.887 L 1.31213,-146.732 L 1.45622,-146.558 L 1.57735,-146.367 L 1.67358,-146.163 L 1.74344,-145.948
 L 1.7858,-145.726 L 1.79999,-145.5 L 1.7858,-145.274 L 1.74344,-145.052 L 1.67358,-144.837 L 1.57735,-144.633
 L 1.45622,-144.442 L 1.31213,-144.268 L 1.14735,-144.113 L 0.964478,-143.98 L 0.766388,-143.871 L 0.556229,-143.788
 L 0.33728,-143.732 L 0.113022,-143.704 z
M -7.59418,-144.003 L -7.78107,-144.027 L -7.96352,-144.073 L -8.13866,-144.143 L -8.30373,-144.234 L -8.45613,-144.344
 L -8.59344,-144.473 L -8.71352,-144.618 L -8.81445,-144.777 L -8.89465,-144.948 L -8.95287,-145.127 L -8.98816,-145.312
 L -9,-145.5 L -8.98816,-145.688 L -8.95287,-145.873 L -8.89465,-146.052 L -8.81445,-146.223 L -8.71352,-146.382
 L -8.59344,-146.527 L -8.45613,-146.656 L -8.30373,-146.766 L -8.13866,-146.857 L -7.96352,-146.927 L -7.78107,-146.973
 L -7.59418,-146.997 L -7.40581,-146.997 L -7.21892,-146.973 L -7.03647,-146.927 L -6.86133,-146.857 L -6.69626,-146.766
 L -6.54385,-146.656 L -6.40654,-146.527 L -6.28647,-146.382 L -6.18553,-146.223 L -6.10533,-146.052 L -6.04712,-145.873
 L -6.01183,-145.688 L -6,-145.5 L -6.01183,-145.312 L -6.04712,-145.127 L -6.10533,-144.948 L -6.18553,-144.777
 L -6.28647,-144.618 L -6.40654,-144.473 L -6.54385,-144.344 L -6.69626,-144.234 L -6.86133,-144.143 L -7.03647,-144.073
 L -7.21892,-144.027 L -7.40581,-144.003 z
M 7.40581,-144.003 L 7.21892,-144.027 L 7.03647,-144.073 L 6.86133,-144.143 L 6.69626,-144.234 L 6.54385,-144.344
 L 6.40654,-144.473 L 6.28647,-144.618 L 6.18553,-144.777 L 6.10533,-144.948 L 6.04712,-145.127 L 6.01183,-145.312
 L 6,-145.5 L 6.01183,-145.688 L 6.04712,-145.873 L 6.10533,-146.052 L 6.18553,-146.223 L 6.28647,-146.382
 L 6.40654,-146.527 L 6.54385,-146.656 L 6.69626,-146.766 L 6.86133,-146.857 L 7.03647,-146.927 L 7.21892,-146.973
 L 7.40581,-146.997 L 7.59418,-146.997 L 7.78107,-146.973 L 7.96352,-146.927 L 8.13866,-146.857 L 8.30373,-146.766
 L 8.45613,-146.656 L 8.59344,-146.527 L 8.71352,-146.382 L 8.81445,-146.223 L 8.89465,-146.052 L 8.95287,-145.873
 L 8.98816,-145.688 L 9,-145.5 L 8.98816,-145.312 L 8.95287,-145.127 L 8.89465,-144.948 L 8.81445,-144.777
 L 8.71352,-144.618 L 8.59344,-144.473 L 8.45613,-144.344 L 8.30373,-144.234 L 8.13866,-144.143 L 7.96352,-144.073
 L 7.78107,-144.027 L 7.59418,-144.003 z
M -0.194641,-134.906 L -0.580872,-134.955 L -0.957947,-135.052 L -1.3199,-135.195 L -1.66106,-135.383 L -1.97601,-135.611
 L -2.2598,-135.878 L -2.50795,-136.178 L -2.71654,-136.507 L -2.88229,-136.859 L -3.00259,-137.229 L -3.07555,-137.611
 L -3.09999,-138 L -3.07555,-138.389 L -3.00259,-138.771 L -2.88229,-139.141 L -2.71654,-139.493 L -2.50795,-139.822
 L -2.2598,-140.122 L -1.97601,-140.389 L -1.66106,-140.617 L -1.3199,-140.805 L -0.957947,-140.948 L -0.580872,-141.045
 L -0.194641,-141.094 L 0.194641,-141.094 L 0.580872,-141.045 L 0.957947,-140.948 L 1.3199,-140.805 L 1.66106,-140.617
 L 1.97601,-140.389 L 2.2598,-140.122 L 2.50795,-139.822 L 2.71654,-139.493 L 2.88229,-139.141 L 3.00259,-138.771
 L 3.07555,-138.389 L 3.09999,-138 L 3.07555,-137.611 L 3.00259,-137.229 L 2.88229,-136.859 L 2.71654,-136.507
 L 2.50795,-136.178 L 2.2598,-135.878 L 1.97601,-135.611 L 1.66106,-135.383 L 1.3199,-135.195 L 0.957947,-135.052
 L 0.580872,-134.955 L 0.194641,-134.906 z
M -7.68837,-135.006 L -8.06213,-135.053 L -8.42705,-135.147 L -8.77733,-135.286 L -9.10747,-135.467 L -9.41226,-135.688
 L -9.6869,-135.946 L -9.92705,-136.237 L -10.1289,-136.555 L -10.2893,-136.896 L -10.4057,-137.254 L -10.4763,-137.624
 L -10.5,-138 L -10.4763,-138.376 L -10.4057,-138.746 L -10.2893,-139.104 L -10.1289,-139.445 L -9.92705,-139.763
 L -9.6869,-140.054 L -9.41226,-140.312 L -9.10747,-140.533 L -8.77733,-140.714 L -8.42705,-140.853 L -8.06213,-140.947
 L -7.68837,-140.994 L -7.31161,-140.994 L -6.93785,-140.947 L -6.57294,-140.853 L -6.22266,-140.714 L -5.89252,-140.533
 L -5.58772,-140.312 L -5.31308,-140.054 L -5.07294,-139.763 L -4.87108,-139.445 L -4.71066,-139.104 L -4.59424,-138.746
 L -4.52365,-138.376 L -4.5,-138 L -4.52365,-137.624 L -4.59424,-137.254 L -4.71066,-136.896 L -4.87108,-136.555
 L -5.07294,-136.237 L -5.31308,-135.946 L -5.58772,-135.688 L -5.89252,-135.467 L -6.22266,-135.286 L -6.57294,-135.147
 L -6.93785,-135.053 L -7.31161,-135.006 z
M 7.31161,-135.006 L 6.93785,-135.053 L 6.57294,-135.147 L 6.22266,-135.286 L 5.89252,-135.467 L 5.58772,-135.688
 L 5.31308,-135.946 L 5.07294,-136.237 L 4.87108,-136.555 L 4.71066,-136.896 L 4.59424,-137.254 L 4.52365,-137.624
 L 4.5,-138 L 4.52365,-138.376 L 4.59424,-138.746 L 4.71066,-139.104 L 4.87108,-139.445 L 5.07294,-139.763
 L 5.31308,-140.054 L 5.58772,-140.312 L 5.89252,-140.533 L 6.22266,-140.714 L 6.57294,-140.853 L 6.93785,-140.947
 L 7.31161,-140.994 L 7.68837,-140.994 L 8.06213,-140.947 L 8.42705,-140.853 L 8.77733,-140.714 L 9.10747,-140.533
 L 9.41226,-140.312 L 9.6869,-140.054 L 9.92705,-139.763 L 10.1289,-139.445 L 10.2893,-139.104 L 10.4057,-138.746
 L 10.4763,-138.376 L 10.5,-138 L 10.4763,-137.624 L 10.4057,-137.254 L 10.2893,-136.896 L 10.1289,-136.555
 L 9.92705,-136.237 L 9.6869,-135.946 L 9.41226,-135.688 L 9.10747,-135.467 L 8.77733,-135.286 L 8.42705,-135.147
 L 8.06213,-135.053 L 7.68837,-135.006 z
M 60.4369,-131.089 L 61.0451,-131.245 L 61.6289,-131.476 L 62.1791,-131.778 L 62.6871,-132.147 L 63.1448,-132.577
 L 63.5451,-133.061 L 63.8815,-133.591 L 64.1489,-134.159 L 64.3429,-134.757 L 64.4606,-135.373 L 64.5,-136
 L 64.5,-151.006 L 35.5,-151.006 L 35.5,-136 L 35.5394,-135.373 L 35.6571,-134.757 L 35.8511,-134.159
 L 36.1185,-133.591 L 36.4549,-133.061 L 36.8551,-132.577 L 37.3129,-132.147 L 37.8209,-131.778 L 38.3711,-131.476
 L 38.9549,-131.245 L 39.5631,-131.089 L 40.186,-131.01 L 59.8139,-131.01 z
M 49.887,-143.704 L 49.6627,-143.732 L 49.4438,-143.788 L 49.2336,-143.871 L 49.0355,-143.98 L 48.8526,-144.113
 L 48.6879,-144.268 L 48.5438,-144.442 L 48.4226,-144.633 L 48.3264,-144.837 L 48.2565,-145.052 L 48.2142,-145.274
 L 48.2,-145.5 L 48.2142,-145.726 L 48.2565,-145.948 L 48.3264,-146.163 L 48.4226,-146.367 L 48.5438,-146.558
 L 48.6879,-146.732 L 48.8526,-146.887 L 49.0355,-147.02 L 49.2336,-147.129 L 49.4438,-147.212 L 49.6627,-147.268
 L 49.887,-147.296 L 50.113,-147.296 L 50.3373,-147.268 L 50.5562,-147.212 L 50.7664,-147.129 L 50.9645,-147.02
 L 51.1474,-146.887 L 51.3121,-146.732 L 51.4562,-146.558 L 51.5773,-146.367 L 51.6736,-146.163 L 51.7434,-145.948
 L 51.7858,-145.726 L 51.8,-145.5 L 51.7858,-145.274 L 51.7434,-145.052 L 51.6736,-144.837 L 51.5773,-144.633
 L 51.4562,-144.442 L 51.3121,-144.268 L 51.1474,-144.113 L 50.9645,-143.98 L 50.7664,-143.871 L 50.5562,-143.788
 L 50.3373,-143.732 L 50.113,-143.704 z
M 42.4058,-144.003 L 42.2189,-144.027 L 42.0365,-144.073 L 41.8613,-144.143 L 41.6963,-144.234 L 41.5439,-144.344
 L 41.4065,-144.473 L 41.2865,-144.618 L 41.1855,-144.777 L 41.1053,-144.948 L 41.0471,-145.127 L 41.0118,-145.312
 L 41,-145.5 L 41.0118,-145.688 L 41.0471,-145.873 L 41.1053,-146.052 L 41.1855,-146.223 L 41.2865,-146.382
 L 41.4065,-146.527 L 41.5439,-146.656 L 41.6963,-146.766 L 41.8613,-146.857 L 42.0365,-146.927 L 42.2189,-146.973
 L 42.4058,-146.997 L 42.5942,-146.997 L 42.7811,-146.973 L 42.9635,-146.927 L 43.1387,-146.857 L 43.3037,-146.766
 L 43.4561,-146.656 L 43.5934,-146.527 L 43.7135,-146.382 L 43.8145,-146.223 L 43.8947,-146.052 L 43.9529,-145.873
 L 43.9882,-145.688 L 44,-145.5 L 43.9882,-145.312 L 43.9529,-145.127 L 43.8947,-144.948 L 43.8145,-144.777
 L 43.7135,-144.618 L 43.5934,-144.473 L 43.4561,-144.344 L 43.3037,-144.234 L 43.1387,-144.143 L 42.9635,-144.073
 L 42.7811,-144.027 L 42.5942,-144.003 z
M 57.4058,-144.003 L 57.2189,-144.027 L 57.0365,-144.073 L 56.8613,-144.143 L 56.6963,-144.234 L 56.5439,-144.344
 L 56.4065,-144.473 L 56.2865,-144.618 L 56.1855,-144.777 L 56.1053,-144.948 L 56.0471,-145.127 L 56.0118,-145.312
 L 56,-145.5 L 56.0118,-145.688 L 56.0471,-145.873 L 56.1053,-146.052 L 56.1855,-146.223 L 56.2865,-146.382
 L 56.4065,-146.527 L 56.5439,-146.656 L 56.6963,-146.766 L 56.8613,-146.857 L 57.0365,-146.927 L 57.2189,-146.973
 L 57.4058,-146.997 L 57.5942,-146.997 L 57.7811,-146.973 L 57.9635,-146.927 L 58.1387,-146.857 L 58.3037,-146.766
 L 58.4561,-146.656 L 58.5934,-146.527 L 58.7135,-146.382 L 58.8145,-146.223 L 58.8947,-146.052 L 58.9529,-145.873
 L 58.9882,-145.688 L 59,-145.5 L 58.9882,-145.312 L 58.9529,-145.127 L 58.8947,-144.948 L 58.8145,-144.777
 L 58.7135,-144.618 L 58.5934,-144.473 L 58.4561,-144.344 L 58.3037,-144.234 L 58.1387,-144.143 L 57.9635,-144.073
 L 57.7811,-144.027 L 57.5942,-144.003 z
M 42.3116,-135.006 L 41.9379,-135.053 L 41.5729,-135.147 L 41.2227,-135.286 L 40.8925,-135.467 L 40.5877,-135.688
 L 40.3131,-135.946 L 40.0729,-136.237 L 39.8711,-136.555 L 39.7107,-136.896 L 39.5942,-137.254 L 39.5237,-137.624
 L 39.5,-138 L 39.5237,-138.376 L 39.5942,-138.746 L 39.7107,-139.104 L 39.8711,-139.445 L 40.0729,-139.763
 L 40.3131,-140.054 L 40.5877,-140.312 L 40.8925,-140.533 L 41.2227,-140.714 L 41.5729,-140.853 L 41.9379,-140.947
 L 42.3116,-140.994 L 42.6884,-140.994 L 43.0621,-140.947 L 43.427,-140.853 L 43.7773,-140.714 L 44.1075,-140.533
 L 44.4123,-140.312 L 44.6869,-140.054 L 44.927,-139.763 L 45.1289,-139.445 L 45.2893,-139.104 L 45.4057,-138.746
 L 45.4763,-138.376 L 45.5,-138 L 45.4763,-137.624 L 45.4057,-137.254 L 45.2893,-136.896 L 45.1289,-136.555
 L 44.927,-136.237 L 44.6869,-135.946 L 44.4123,-135.688 L 44.1075,-135.467 L 43.7773,-135.286 L 43.427,-135.147
 L 43.0621,-135.053 L 42.6884,-135.006 z
M 57.3116,-135.006 L 56.9379,-135.053 L 56.5729,-135.147 L 56.2227,-135.286 L 55.8925,-135.467 L 55.5877,-135.688
 L 55.3131,-135.946 L 55.0729,-136.237 L 54.8711,-136.555 L 54.7107,-136.896 L 54.5942,-137.254 L 54.5237,-137.624
 L 54.5,-138 L 54.5237,-138.376 L 54.5942,-138.746 L 54.7107,-139.104 L 54.8711,-139.445 L 55.0729,-139.763
 L 55.3131,-140.054 L 55.5877,-140.312 L 55.8925,-140.533 L 56.2227,-140.714 L 56.5729,-140.853 L 56.9379,-140.947
 L 57.3116,-140.994 L 57.6884,-140.994 L 58.0621,-140.947 L 58.427,-140.853 L 58.7773,-140.714 L 59.1075,-140.533
 L 59.4123,-140.312 L 59.6869,-140.054 L 59.927,-139.763 L 60.1289,-139.445 L 60.2893,-139.104 L 60.4057,-138.746
 L 60.4763,-138.376 L 60.5,-138 L 60.4763,-137.624 L 60.4057,-137.254 L 60.2893,-136.896 L 60.1289,-136.555
 L 59.927,-136.237 L 59.6869,-135.946 L 59.4123,-135.688 L 59.1075,-135.467 L 58.7773,-135.286 L 58.427,-135.147
 L 58.0621,-135.053 L 57.6884,-135.006 z
M 49.9058,-136.503 L 49.7189,-136.527 L 49.5365,-136.573 L 49.3613,-136.643 L 49.1963,-136.734 L 49.0439,-136.844
 L 48.9065,-136.973 L 48.7865,-137.118 L 48.6855,-137.277 L 48.6053,-137.448 L 48.5471,-137.627 L 48.5118,-137.812
 L 48.5,-138 L 48.5118,-138.188 L 48.5471,-138.373 L 48.6053,-138.552 L 48.6855,-138.723 L 48.7865,-138.882
 L 48.9065,-139.027 L 49.0439,-139.156 L 49.1963,-139.266 L 49.3613,-139.357 L 49.5365,-139.427 L 49.7189,-139.473
 L 49.9058,-139.497 L 50.0942,-139.497 L 50.2811,-139.473 L 50.4635,-139.427 L 50.6387,-139.357 L 50.8037,-139.266
 L 50.9561,-139.156 L 51.0934,-139.027 L 51.2135,-138.882 L 51.3145,-138.723 L 51.3947,-138.552 L 51.4529,-138.373
 L 51.4882,-138.188 L 51.5,-138 L 51.4882,-137.812 L 51.4529,-137.627 L 51.3947,-137.448 L 51.3145,-137.277
 L 51.2135,-137.118 L 51.0934,-136.973 L 50.9561,-136.844 L 50.8037,-136.734 L 50.6387,-136.643 L 50.4635,-136.573
 L 50.2811,-136.527 L 50.0942,-136.503 z
M 10.4369,-47.0886 L 11.0451,-47.2447 L 11.6289,-47.4759 L 12.1791,-47.7784 L 12.6871,-48.1474 L 13.1448,-48.5773
 L 13.5451,-49.0611 L 13.8815,-49.5912 L 14.1489,-50.1594 L 14.3429,-50.7566 L 14.4606,-51.3733 L 14.5,-52
 L 14.5,-116 L 14.4606,-116.627 L 14.3429,-117.243 L 14.1489,-117.841 L 13.8815,-118.409 L 13.5451,-118.939
 L 13.1448,-119.423 L 12.6871,-119.853 L 12.1791,-120.222 L 11.6289,-120.524 L 11.0451,-120.755 L 10.4369,-120.911
 L 9.81395,-120.99 L -9.81395,-120.99 L -10.4369,-120.911 L -11.0451,-120.755 L -11.6289,-120.524 L -12.1791,-120.222
 L -12.6871,-119.853 L -13.1448,-119.423 L -13.5451,-118.939 L -13.8815,-118.409 L -14.1489,-117.841 L -14.3429,-117.243
 L -14.4606,-116.627 L -14.5,-116 L -14.5,-52 L -14.4606,-51.3733 L -14.3429,-50.7566 L -14.1489,-50.1594
 L -13.8815,-49.5912 L -13.5451,-49.0611 L -13.1448,-48.5773 L -12.6871,-48.1474 L -12.1791,-47.7784 L -11.6289,-47.4759
 L -11.0451,-47.2447 L -10.4369,-47.0886 L -9.81395,-47.0099 L 9.81395,-47.0099 z
M -7.68837,-111.006 L -8.06213,-111.053 L -8.42705,-111.147 L -8.77733,-111.286 L -9.10747,-111.467 L -9.41226,-111.688
 L -9.6869,-111.946 L -9.92705,-112.237 L -10.1289,-112.555 L -10.2893,-112.896 L -10.4057,-113.254 L -10.4763,-113.624
 L -10.5,-114 L -10.4763,-114.376 L -10.4057,-114.746 L -10.2893,-115.104 L -10.1289,-115.445 L -9.92705,-115.763
 L -9.6869,-116.054 L -9.41226,-116.312 L -9.10747,-116.533 L -8.77733,-116.714 L -8.42705,-116.853 L -8.06213,-116.947
 L -7.68837,-116.994 L -7.31161,-116.994 L -6.93785,-116.947 L -6.57294,-116.853 L -6.22266,-116.714 L -5.89252,-116.533
 L -5.58772,-116.312 L -5.31308,-116.054 L -5.07294,-115.763 L -4.87108,-115.445 L -4.71066,-115.104 L -4.59424,-114.746
 L -4.52365,-114.376 L -4.5,-114 L -4.52365,-113.624 L -4.59424,-113.254 L -4.71066,-112.896 L -4.87108,-112.555
 L -5.07294,-112.237 L -5.31308,-111.946 L -5.58772,-111.688 L -5.89252,-111.467 L -6.22266,-111.286 L -6.57294,-111.147
 L -6.93785,-111.053 L -7.31161,-111.006 z
M 7.31161,-111.006 L 6.93785,-111.053 L 6.57294,-111.147 L 6.22266,-111.286 L 5.89252,-111.467 L 5.58772,-111.688
 L 5.31308,-111.946 L 5.07294,-112.237 L 4.87108,-112.555 L 4.71066,-112.896 L 4.59424,-113.254 L 4.52365,-113.624
 L 4.5,-114 L 4.52365,-114.376 L 4.59424,-114.746 L 4.71066,-115.104 L 4.87108,-115.445 L 5.07294,-115.763
 L 5.31308,-116.054 L 5.58772,-116.312 L 5.89252,-116.533 L 6.22266,-116.714 L 6.57294,-116.853 L 6.93785,-116.947
 L 7.31161,-116.994 L 7.68837,-116.994 L 8.06213,-116.947 L 8.42705,-116.853 L 8.77733,-116.714 L 9.10747,-116.533
 L 9.41226,-116.312 L 9.6869,-116.054 L 9.92705,-115.763 L 10.1289,-115.445 L 10.2893,-115.104 L 10.4057,-114.746
 L 10.4763,-114.376 L 10.5,-114 L 10.4763,-113.624 L 10.4057,-113.254 L 10.2893,-112.896 L 10.1289,-112.555
 L 9.92705,-112.237 L 9.6869,-111.946 L 9.41226,-111.688 L 9.10747,-111.467 L 8.77733,-111.286 L 8.42705,-111.147
 L 8.06213,-111.053 L 7.68837,-111.006 z
M -0.133423,-111.879 L -0.398178,-111.913 L -0.656647,-111.979 L -0.90477,-112.077 L -1.13863,-112.206 L -1.35452,-112.363
 L -1.54906,-112.545 L -1.71915,-112.751 L -1.86214,-112.976 L -1.97577,-113.218 L -2.05823,-113.472 L -2.10823,-113.734
 L -2.125,-114 L -2.10823,-114.266 L -2.05823,-114.528 L -1.97577,-114.782 L -1.86214,-115.024 L -1.71915,-115.249
 L -1.54906,-115.455 L -1.35452,-115.637 L -1.13863,-115.794 L -0.90477,-115.923 L -0.656647,-116.021 L -0.398178,-116.087
 L -0.133423,-116.121 L 0.133423,-116.121 L 0.398178,-116.087 L 0.656647,-116.021 L 0.90477,-115.923 L 1.13863,-115.794
 L 1.35452,-115.637 L 1.54906,-115.455 L 1.71915,-115.249 L 1.86214,-115.024 L 1.97577,-114.782 L 2.05823,-114.528
 L 2.10823,-114.266 L 2.125,-114 L 2.10823,-113.734 L 2.05823,-113.472 L 1.97577,-113.218 L 1.86214,-112.976
 L 1.71915,-112.751 L 1.54906,-112.545 L 1.35452,-112.363 L 1.13863,-112.206 L 0.90477,-112.077 L 0.656647,-111.979
 L 0.398178,-111.913 L 0.133423,-111.879 z
M -1.58675,-103.752 L -3.17349,-106.5 L -1.58675,-109.248 L 1.58675,-109.248 L 3.17349,-106.5 L 1.58675,-103.752
 z
M -7.59418,-105.003 L -7.78107,-105.027 L -7.96352,-105.073 L -8.13866,-105.143 L -8.30373,-105.234 L -8.45613,-105.344
 L -8.59344,-105.473 L -8.71352,-105.618 L -8.81445,-105.777 L -8.89465,-105.948 L -8.95287,-106.127 L -8.98816,-106.312
 L -9,-106.5 L -8.98816,-106.688 L -8.95287,-106.873 L -8.89465,-107.052 L -8.81445,-107.223 L -8.71352,-107.382
 L -8.59344,-107.527 L -8.45613,-107.656 L -8.30373,-107.766 L -8.13866,-107.857 L -7.96352,-107.927 L -7.78107,-107.973
 L -7.59418,-107.997 L -7.40581,-107.997 L -7.21892,-107.973 L -7.03647,-107.927 L -6.86133,-107.857 L -6.69626,-107.766
 L -6.54385,-107.656 L -6.40654,-107.527 L -6.28647,-107.382 L -6.18553,-107.223 L -6.10533,-107.052 L -6.04712,-106.873
 L -6.01183,-106.688 L -6,-106.5 L -6.01183,-106.312 L -6.04712,-106.127 L -6.10533,-105.948 L -6.18553,-105.777
 L -6.28647,-105.618 L -6.40654,-105.473 L -6.54385,-105.344 L -6.69626,-105.234 L -6.86133,-105.143 L -7.03647,-105.073
 L -7.21892,-105.027 L -7.40581,-105.003 z
M 7.40581,-105.003 L 7.21892,-105.027 L 7.03647,-105.073 L 6.86133,-105.143 L 6.69626,-105.234 L 6.54385,-105.344
 L 6.40654,-105.473 L 6.28647,-105.618 L 6.18553,-105.777 L 6.10533,-105.948 L 6.04712,-106.127 L 6.01183,-106.312
 L 6,-106.5 L 6.01183,-106.688 L 6.04712,-106.873 L 6.10533,-107.052 L 6.18553,-107.223 L 6.28647,-107.382
 L 6.40654,-107.527 L 6.54385,-107.656 L 6.69626,-107.766 L 6.86133,-107.857 L 7.03647,-107.927 L 7.21892,-107.973
 L 7.40581,-107.997 L 7.59418,-107.997 L 7.78107,-107.973 L 7.96352,-107.927 L 8.13866,-107.857 L 8.30373,-107.766
 L 8.45613,-107.656 L 8.59344,-107.527 L 8.71352,-107.382 L 8.81445,-107.223 L 8.89465,-107.052 L 8.95287,-106.873
 L 8.98816,-106.688 L 9,-106.5 L 8.98816,-106.312 L 8.95287,-106.127 L 8.89465,-105.948 L 8.81445,-105.777
 L 8.71352,-105.618 L 8.59344,-105.473 L 8.45613,-105.344 L 8.30373,-105.234 L 8.13866,-105.143 L 7.96352,-105.073
 L 7.78107,-105.027 L 7.59418,-105.003 z
M -1.58675,-58.7517 L -3.17349,-61.5 L -1.58675,-64.2483 L 1.58675,-64.2483 L 3.17349,-61.5 L 1.58675,-58.7517
 z
M 7.40581,-60.003 L 7.21892,-60.0266 L 7.03647,-60.0734 L 6.86133,-60.1428 L 6.69626,-60.2335 L 6.54385,-60.3442
 L 6.40654,-60.4732 L 6.28647,-60.6183 L 6.18553,-60.7774 L 6.10533,-60.9478 L 6.04712,-61.127 L 6.01183,-61.312
 L 6,-61.5 L 6.01183,-61.688 L 6.04712,-61.873 L 6.10533,-62.0522 L 6.18553,-62.2226 L 6.28647,-62.3817
 L 6.40654,-62.5268 L 6.54385,-62.6558 L 6.69626,-62.7665 L 6.86133,-62.8573 L 7.03647,-62.9266 L 7.21892,-62.9734
 L 7.40581,-62.997 L 7.59418,-62.997 L 7.78107,-62.9734 L 7.96352,-62.9266 L 8.13866,-62.8573 L 8.30373,-62.7665
 L 8.45613,-62.6558 L 8.59344,-62.5268 L 8.71352,-62.3817 L 8.81445,-62.2226 L 8.89465,-62.0522 L 8.95287,-61.873
 L 8.98816,-61.688 L 9,-61.5 L 8.98816,-61.312 L 8.95287,-61.127 L 8.89465,-60.9478 L 8.81445,-60.7774
 L 8.71352,-60.6183 L 8.59344,-60.4732 L 8.45613,-60.3442 L 8.30373,-60.2335 L 8.13866,-60.1428 L 7.96352,-60.0734
 L 7.78107,-60.0266 L 7.59418,-60.003 z
M -7.59418,-60.003 L -7.78107,-60.0266 L -7.96352,-60.0734 L -8.13866,-60.1428 L -8.30373,-60.2335 L -8.45613,-60.3442
 L -8.59344,-60.4732 L -8.71352,-60.6183 L -8.81445,-60.7774 L -8.89465,-60.9478 L -8.95287,-61.127 L -8.98816,-61.312
 L -9,-61.5 L -8.98816,-61.688 L -8.95287,-61.873 L -8.89465,-62.0522 L -8.81445,-62.2226 L -8.71352,-62.3817
 L -8.59344,-62.5268 L -8.45613,-62.6558 L -8.30373,-62.7665 L -8.13866,-62.8573 L -7.96352,-62.9266 L -7.78107,-62.9734
 L -7.59418,-62.997 L -7.40581,-62.997 L -7.21892,-62.9734 L -7.03647,-62.9266 L -6.86133,-62.8573 L -6.69626,-62.7665
 L -6.54385,-62.6558 L -6.40654,-62.5268 L -6.28647,-62.3817 L -6.18553,-62.2226 L -6.10533,-62.0522 L -6.04712,-61.873
 L -6.01183,-61.688 L -6,-61.5 L -6.01183,-61.312 L -6.04712,-61.127 L -6.10533,-60.9478 L -6.18553,-60.7774
 L -6.28647,-60.6183 L -6.40654,-60.4732 L -6.54385,-60.3442 L -6.69626,-60.2335 L -6.86133,-60.1428 L -7.03647,-60.0734
 L -7.21892,-60.0266 L -7.40581,-60.003 z
M 7.31161,-51.0059 L 6.93785,-51.0531 L 6.57294,-51.1468 L 6.22266,-51.2855 L 5.89252,-51.467 L 5.58772,-51.6885
 L 5.31308,-51.9464 L 5.07294,-52.2366 L 4.87108,-52.5547 L 4.71066,-52.8956 L 4.59424,-53.2539 L 4.52365,-53.624
 L 4.5,-54 L 4.52365,-54.376 L 4.59424,-54.7461 L 4.71066,-55.1044 L 4.87108,-55.4453 L 5.07294,-55.7634
 L 5.31308,-56.0536 L 5.58772,-56.3116 L 5.89252,-56.533 L 6.22266,-56.7145 L 6.57294,-56.8532 L 6.93785,-56.9469
 L 7.31161,-56.9941 L 7.68837,-56.9941 L 8.06213,-56.9469 L 8.42705,-56.8532 L 8.77733,-56.7145 L 9.10747,-56.533
 L 9.41226,-56.3116 L 9.6869,-56.0536 L 9.92705,-55.7634 L 10.1289,-55.4453 L 10.2893,-55.1044 L 10.4057,-54.7461
 L 10.4763,-54.376 L 10.5,-54 L 10.4763,-53.624 L 10.4057,-53.2539 L 10.2893,-52.8956 L 10.1289,-52.5547
 L 9.92705,-52.2366 L 9.6869,-51.9464 L 9.41226,-51.6885 L 9.10747,-51.467 L 8.77733,-51.2855 L 8.42705,-51.1468
 L 8.06213,-51.0531 L 7.68837,-51.0059 z
M -7.68837,-51.0059 L -8.06213,-51.0531 L -8.42705,-51.1468 L -8.77733,-51.2855 L -9.10747,-51.467 L -9.41226,-51.6885
 L -9.6869,-51.9464 L -9.92705,-52.2366 L -10.1289,-52.5547 L -10.2893,-52.8956 L -10.4057,-53.2539 L -10.4763,-53.624
 L -10.5,-54 L -10.4763,-54.376 L -10.4057,-54.7461 L -10.2893,-55.1044 L -10.1289,-55.4453 L -9.92705,-55.7634
 L -9.6869,-56.0536 L -9.41226,-56.3116 L -9.10747,-56.533 L -8.77733,-56.7145 L -8.42705,-56.8532 L -8.06213,-56.9469
 L -7.68837,-56.9941 L -7.31161,-56.9941 L -6.93785,-56.9469 L -6.57294,-56.8532 L -6.22266,-56.7145 L -5.89252,-56.533
 L -5.58772,-56.3116 L -5.31308,-56.0536 L -5.07294,-55.7634 L -4.87108,-55.4453 L -4.71066,-55.1044 L -4.59424,-54.7461
 L -4.52365,-54.376 L -4.5,-54 L -4.52365,-53.624 L -4.59424,-53.2539 L -4.71066,-52.8956 L -4.87108,-52.5547
 L -5.07294,-52.2366 L -5.31308,-51.9464 L -5.58772,-51.6885 L -5.89252,-51.467 L -6.22266,-51.2855 L -6.57294,-51.1468
 L -6.93785,-51.0531 L -7.31161,-51.0059 z
M -0.133423,-51.8792 L -0.398178,-51.9126 L -0.656647,-51.979 L -0.90477,-52.0773 L -1.13863,-52.2058 L -1.35452,-52.3627
 L -1.54906,-52.5453 L -1.71915,-52.751 L -1.86214,-52.9763 L -1.97577,-53.2177 L -2.05823,-53.4715 L -2.10823,-53.7337
 L -2.125,-54 L -2.10823,-54.2663 L -2.05823,-54.5285 L -1.97577,-54.7823 L -1.86214,-55.0237 L -1.71915,-55.2491
 L -1.54906,-55.4547 L -1.35452,-55.6373 L -1.13863,-55.7942 L -0.90477,-55.9228 L -0.656647,-56.021 L -0.398178,-56.0874
 L -0.133423,-56.1208 L 0.133423,-56.1208 L 0.398178,-56.0874 L 0.656647,-56.021 L 0.90477,-55.9228 L 1.13863,-55.7942
 L 1.35452,-55.6373 L 1.54906,-55.4547 L 1.71915,-55.2491 L 1.86214,-55.0237 L 1.97577,-54.7823 L 2.05823,-54.5285
 L 2.10823,-54.2663 L 2.125,-54 L 2.10823,-53.7337 L 2.05823,-53.4715 L 1.97577,-53.2177 L 1.86214,-52.9763
 L 1.71915,-52.751 L 1.54906,-52.5453 L 1.35452,-52.3627 L 1.13863,-52.2058 L 0.90477,-52.0773 L 0.656647,-51.979
 L 0.398178,-51.9126 L 0.133423,-51.8792 z
M 60.4369,-47.0886 L 61.0451,-47.2447 L 61.6289,-47.4759 L 62.1791,-47.7784 L 62.6871,-48.1474 L 63.1448,-48.5773
 L 63.5451,-49.0611 L 63.8815,-49.5912 L 64.1489,-50.1594 L 64.3429,-50.7566 L 64.4606,-51.3733 L 64.5,-52
 L 64.5,-116 L 64.4606,-116.627 L 64.3429,-117.243 L 64.1489,-117.841 L 63.8815,-118.409 L 63.5451,-118.939
 L 63.1448,-119.423 L 62.6871,-119.853 L 62.1791,-120.222 L 61.6289,-120.524 L 61.0451,-120.755 L 60.4369,-120.911
 L 59.8139,-120.99 L 40.186,-120.99 L 39.5631,-120.911 L 38.9549,-120.755 L 38.3711,-120.524 L 37.8209,-120.222
 L 37.3129,-119.853 L 36.8551,-119.423 L 36.4549,-118.939 L 36.1185,-118.409 L 35.8511,-117.841 L 35.6571,-117.243
 L 35.5394,-116.627 L 35.5,-116 L 35.5,-52 L 35.5394,-51.3733 L 35.6571,-50.7566 L 35.8511,-50.1594
 L 36.1185,-49.5912 L 36.4549,-49.0611 L 36.8551,-48.5773 L 37.3129,-48.1474 L 37.8209,-47.7784 L 38.3711,-47.4759
 L 38.9549,-47.2447 L 39.5631,-47.0886 L 40.186,-47.0099 L 59.8139,-47.0099 z
M 57.3116,-111.006 L 56.9379,-111.053 L 56.5729,-111.147 L 56.2227,-111.286 L 55.8925,-111.467 L 55.5877,-111.688
 L 55.3131,-111.946 L 55.0729,-112.237 L 54.8711,-112.555 L 54.7107,-112.896 L 54.5942,-113.254 L 54.5237,-113.624
 L 54.5,-114 L 54.5237,-114.376 L 54.5942,-114.746 L 54.7107,-115.104 L 54.8711,-115.445 L 55.0729,-115.763
 L 55.3131,-116.054 L 55.5877,-116.312 L 55.8925,-116.533 L 56.2227,-116.714 L 56.5729,-116.853 L 56.9379,-116.947
 L 57.3116,-116.994 L 57.6884,-116.994 L 58.0621,-116.947 L 58.427,-116.853 L 58.7773,-116.714 L 59.1075,-116.533
 L 59.4123,-116.312 L 59.6869,-116.054 L 59.927,-115.763 L 60.1289,-115.445 L 60.2893,-115.104 L 60.4057,-114.746
 L 60.4763,-114.376 L 60.5,-114 L 60.4763,-113.624 L 60.4057,-113.254 L 60.2893,-112.896 L 60.1289,-112.555
 L 59.927,-112.237 L 59.6869,-111.946 L 59.4123,-111.688 L 59.1075,-111.467 L 58.7773,-111.286 L 58.427,-111.147
 L 58.0621,-111.053 L 57.6884,-111.006 z
M 42.3116,-111.006 L 41.9379,-111.053 L 41.5729,-111.147 L 41.2227,-111.286 L 40.8925,-111.467 L 40.5877,-111.688
 L 40.3131,-111.946 L 40.0729,-112.237 L 39.8711,-112.555 L 39.7107,-112.896 L 39.5942,-113.254 L 39.5237,-113.624
 L 39.5,-114 L 39.5237,-114.376 L 39.5942,-114.746 L 39.7107,-115.104 L 39.8711,-115.445 L 40.0729,-115.763
 L 40.3131,-116.054 L 40.5877,-116.312 L 40.8925,-116.533 L 41.2227,-116.714 L 41.5729,-116.853 L 41.9379,-116.947
 L 42.3116,-116.994 L 42.6884,-116.994 L 43.0621,-116.947 L 43.427,-116.853 L 43.7773,-116.714 L 44.1075,-116.533
 L 44.4123,-116.312 L 44.6869,-116.054 L 44.927,-115.763 L 45.1289,-115.445 L 45.2893,-115.104 L 45.4057,-114.746
 L 45.4763,-114.376 L 45.5,-114 L 45.4763,-113.624 L 45.4057,-113.254 L 45.2893,-112.896 L 45.1289,-112.555
 L 44.927,-112.237 L 44.6869,-111.946 L 44.4123,-111.688 L 44.1075,-111.467 L 43.7773,-111.286 L 43.427,-111.147
 L 43.0621,-111.053 L 42.6884,-111.006 z
M 49.9058,-112.503 L 49.7189,-112.527 L 49.5365,-112.573 L 49.3613,-112.643 L 49.1963,-112.734 L 49.0439,-112.844
 L 48.9065,-112.973 L 48.7865,-113.118 L 48.6855,-113.277 L 48.6053,-113.448 L 48.5471,-113.627 L 48.5118,-113.812
 L 48.5,-114 L 48.5118,-114.188 L 48.5471,-114.373 L 48.6053,-114.552 L 48.6855,-114.723 L 48.7865,-114.882
 L 48.9065,-115.027 L 49.0439,-115.156 L 49.1963,-115.266 L 49.3613,-115.357 L 49.5365,-115.427 L 49.7189,-115.473
 L 49.9058,-115.497 L 50.0942,-115.497 L 50.2811,-115.473 L 50.4635,-115.427 L 50.6387,-115.357 L 50.8037,-115.266
 L 50.9561,-115.156 L 51.0934,-115.027 L 51.2135,-114.882 L 51.3145,-114.723 L 51.3947,-114.552 L 51.4529,-114.373
 L 51.4882,-114.188 L 51.5,-114 L 51.4882,-113.812 L 51.4529,-113.627 L 51.3947,-113.448 L 51.3145,-113.277
 L 51.2135,-113.118 L 51.0934,-112.973 L 50.9561,-112.844 L 50.8037,-112.734 L 50.6387,-112.643 L 50.4635,-112.573
 L 50.2811,-112.527 L 50.0942,-112.503 z
M 49.8526,-104.158 L 49.5602,-104.195 L 49.2747,-104.268 L 49.0007,-104.376 L 48.7424,-104.518 L 48.5039,-104.692
 L 48.2891,-104.893 L 48.1012,-105.12 L 47.9433,-105.369 L 47.8177,-105.636 L 47.7267,-105.916 L 47.6714,-106.206
 L 47.6529,-106.5 L 47.6714,-106.794 L 47.7267,-107.084 L 47.8177,-107.364 L 47.9433,-107.631 L 48.1012,-107.88
 L 48.2891,-108.107 L 48.5039,-108.308 L 48.7424,-108.482 L 49.0007,-108.624 L 49.2747,-108.732 L 49.5602,-108.805
 L 49.8526,-108.842 L 50.1474,-108.842 L 50.4398,-108.805 L 50.7253,-108.732 L 50.9993,-108.624 L 51.2576,-108.482
 L 51.4961,-108.308 L 51.7109,-108.107 L 51.8988,-107.88 L 52.0567,-107.631 L 52.1822,-107.364 L 52.2733,-107.084
 L 52.3286,-106.794 L 52.347,-106.5 L 52.3286,-106.206 L 52.2733,-105.916 L 52.1822,-105.636 L 52.0567,-105.369
 L 51.8988,-105.12 L 51.7109,-104.893 L 51.4961,-104.692 L 51.2576,-104.518 L 50.9993,-104.376 L 50.7253,-104.268
 L 50.4398,-104.195 L 50.1474,-104.158 z
M 57.4058,-105.003 L 57.2189,-105.027 L 57.0365,-105.073 L 56.8613,-105.143 L 56.6963,-105.234 L 56.5439,-105.344
 L 56.4065,-105.473 L 56.2865,-105.618 L 56.1855,-105.777 L 56.1053,-105.948 L 56.0471,-106.127 L 56.0118,-106.312
 L 56,-106.5 L 56.0118,-106.688 L 56.0471,-106.873 L 56.1053,-107.052 L 56.1855,-107.223 L 56.2865,-107.382
 L 56.4065,-107.527 L 56.5439,-107.656 L 56.6963,-107.766 L 56.8613,-107.857 L 57.0365,-107.927 L 57.2189,-107.973
 L 57.4058,-107.997 L 57.5942,-107.997 L 57.7811,-107.973 L 57.9635,-107.927 L 58.1387,-107.857 L 58.3037,-107.766
 L 58.4561,-107.656 L 58.5934,-107.527 L 58.7135,-107.382 L 58.8145,-107.223 L 58.8947,-107.052 L 58.9529,-106.873
 L 58.9882,-106.688 L 59,-106.5 L 58.9882,-106.312 L 58.9529,-106.127 L 58.8947,-105.948 L 58.8145,-105.777
 L 58.7135,-105.618 L 58.5934,-105.473 L 58.4561,-105.344 L 58.3037,-105.234 L 58.1387,-105.143 L 57.9635,-105.073
 L 57.7811,-105.027 L 57.5942,-105.003 z
M 42.4058,-105.003 L 42.2189,-105.027 L 42.0365,-105.073 L 41.8613,-105.143 L 41.6963,-105.234 L 41.5439,-105.344
 L 41.4065,-105.473 L 41.2865,-105.618 L 41.1855,-105.777 L 41.1053,-105.948 L 41.0471,-106.127 L 41.0118,-106.312
 L 41,-106.5 L 41.0118,-106.688 L 41.0471,-106.873 L 41.1053,-107.052 L 41.1855,-107.223 L 41.2865,-107.382
 L 41.4065,-107.527 L 41.5439,-107.656 L 41.6963,-107.766 L 41.8613,-107.857 L 42.0365,-107.927 L 42.2189,-107.973
 L 42.4058,-107.997 L 42.5942,-107.997 L 42.7811,-107.973 L 42.9635,-107.927 L 43.1387,-107.857 L 43.3037,-107.766
 L 43.4561,-107.656 L 43.5934,-107.527 L 43.7135,-107.382 L 43.8145,-107.223 L 43.8947,-107.052 L 43.9529,-106.873
 L 43.9882,-106.688 L 44,-106.5 L 43.9882,-106.312 L 43.9529,-106.127 L 43.8947,-105.948 L 43.8145,-105.777
 L 43.7135,-105.618 L 43.5934,-105.473 L 43.4561,-105.344 L 43.3037,-105.234 L 43.1387,-105.143 L 42.9635,-105.073
 L 42.7811,-105.027 L 42.5942,-105.003 z
M 49.8526,-59.1576 L 49.5602,-59.1945 L 49.2747,-59.2678 L 49.0007,-59.3763 L 48.7424,-59.5183 L 48.5039,-59.6916
 L 48.2891,-59.8933 L 48.1012,-60.1204 L 47.9433,-60.3693 L 47.8177,-60.636 L 47.7267,-60.9163 L 47.6714,-61.2058
 L 47.6529,-61.5 L 47.6714,-61.7942 L 47.7267,-62.0837 L 47.8177,-62.364 L 47.9433,-62.6307 L 48.1012,-62.8796
 L 48.2891,-63.1067 L 48.5039,-63.3084 L 48.7424,-63.4817 L 49.0007,-63.6237 L 49.2747,-63.7322 L 49.5602,-63.8055
 L 49.8526,-63.8424 L 50.1474,-63.8424 L 50.4398,-63.8055 L 50.7253,-63.7322 L 50.9993,-63.6237 L 51.2576,-63.4817
 L 51.4961,-63.3084 L 51.7109,-63.1067 L 51.8988,-62.8796 L 52.0567,-62.6307 L 52.1822,-62.364 L 52.2733,-62.0837
 L 52.3286,-61.7942 L 52.347,-61.5 L 52.3286,-61.2058 L 52.2733,-60.9163 L 52.1822,-60.636 L 52.0567,-60.3693
 L 51.8988,-60.1204 L 51.7109,-59.8933 L 51.4961,-59.6916 L 51.2576,-59.5183 L 50.9993,-59.3763 L 50.7253,-59.2678
 L 50.4398,-59.1945 L 50.1474,-59.1576 z
M 42.4058,-60.003 L 42.2189,-60.0266 L 42.0365,-60.0734 L 41.8613,-60.1428 L 41.6963,-60.2335 L 41.5439,-60.3442
 L 41.4065,-60.4732 L 41.2865,-60.6183 L 41.1855,-60.7774 L 41.1053,-60.9478 L 41.0471,-61.127 L 41.0118,-61.312
 L 41,-61.5 L 41.0118,-61.688 L 41.0471,-61.873 L 41.1053,-62.0522 L 41.1855,-62.2226 L 41.2865,-62.3817
 L 41.4065,-62.5268 L 41.5439,-62.6558 L 41.6963,-62.7665 L 41.8613,-62.8573 L 42.0365,-62.9266 L 42.2189,-62.9734
 L 42.4058,-62.997 L 42.5942,-62.997 L 42.7811,-62.9734 L 42.9635,-62.9266 L 43.1387,-62.8573 L 43.3037,-62.7665
 L 43.4561,-62.6558 L 43.5934,-62.5268 L 43.7135,-62.3817 L 43.8145,-62.2226 L 43.8947,-62.0522 L 43.9529,-61.873
 L 43.9882,-61.688 L 44,-61.5 L 43.9882,-61.312 L 43.9529,-61.127 L 43.8947,-60.9478 L 43.8145,-60.7774
 L 43.7135,-60.6183 L 43.5934,-60.4732 L 43.4561,-60.3442 L 43.3037,-60.2335 L 43.1387,-60.1428 L 42.9635,-60.0734
 L 42.7811,-60.0266 L 42.5942,-60.003 z
M 57.4058,-60.003 L 57.2189,-60.0266 L 57.0365,-60.0734 L 56.8613,-60.1428 L 56.6963,-60.2335 L 56.5439,-60.3442
 L 56.4065,-60.4732 L 56.2865,-60.6183 L 56.1855,-60.7774 L 56.1053,-60.9478 L 56.0471,-61.127 L 56.0118,-61.312
 L 56,-61.5 L 56.0118,-61.688 L 56.0471,-61.873 L 56.1053,-62.0522 L 56.1855,-62.2226 L 56.2865,-62.3817
 L 56.4065,-62.5268 L 56.5439,-62.6558 L 56.6963,-62.7665 L 56.8613,-62.8573 L 57.0365,-62.9266 L 57.2189,-62.9734
 L 57.4058,-62.997 L 57.5942,-62.997 L 57.7811,-62.9734 L 57.9635,-62.9266 L 58.1387,-62.8573 L 58.3037,-62.7665
 L 58.4561,-62.6558 L 58.5934,-62.5268 L 58.7135,-62.3817 L 58.8145,-62.2226 L 58.8947,-62.0522 L 58.9529,-61.873
 L 58.9882,-61.688 L 59,-61.5 L 58.9882,-61.312 L 58.9529,-61.127 L 58.8947,-60.9478 L 58.8145,-60.7774
 L 58.7135,-60.6183 L 58.5934,-60.4732 L 58.4561,-60.3442 L 58.3037,-60.2335 L 58.1387,-60.1428 L 57.9635,-60.0734
 L 57.7811,-60.0266 L 57.5942,-60.003 z
M 57.3116,-51.0059 L 56.9379,-51.0531 L 56.5729,-51.1468 L 56.2227,-51.2855 L 55.8925,-51.467 L 55.5877,-51.6885
 L 55.3131,-51.9464 L 55.0729,-52.2366 L 54.8711,-52.5547 L 54.7107,-52.8956 L 54.5942,-53.2539 L 54.5237,-53.624
 L 54.5,-54 L 54.5237,-54.376 L 54.5942,-54.7461 L 54.7107,-55.1044 L 54.8711,-55.4453 L 55.0729,-55.7634
 L 55.3131,-56.0536 L 55.5877,-56.3116 L 55.8925,-56.533 L 56.2227,-56.7145 L 56.5729,-56.8532 L 56.9379,-56.9469
 L 57.3116,-56.9941 L 57.6884,-56.9941 L 58.0621,-56.9469 L 58.427,-56.8532 L 58.7773,-56.7145 L 59.1075,-56.533
 L 59.4123,-56.3116 L 59.6869,-56.0536 L 59.927,-55.7634 L 60.1289,-55.4453 L 60.2893,-55.1044 L 60.4057,-54.7461
 L 60.4763,-54.376 L 60.5,-54 L 60.4763,-53.624 L 60.4057,-53.2539 L 60.2893,-52.8956 L 60.1289,-52.5547
 L 59.927,-52.2366 L 59.6869,-51.9464 L 59.4123,-51.6885 L 59.1075,-51.467 L 58.7773,-51.2855 L 58.427,-51.1468
 L 58.0621,-51.0531 L 57.6884,-51.0059 z
M 42.3116,-51.0059 L 41.9379,-51.0531 L 41.5729,-51.1468 L 41.2227,-51.2855 L 40.8925,-51.467 L 40.5877,-51.6885
 L 40.3131,-51.9464 L 40.0729,-52.2366 L 39.8711,-52.5547 L 39.7107,-52.8956 L 39.5942,-53.2539 L 39.5237,-53.624
 L 39.5,-54 L 39.5237,-54.376 L 39.5942,-54.7461 L 39.7107,-55.1044 L 39.8711,-55.4453 L 40.0729,-55.7634
 L 40.3131,-56.0536 L 40.5877,-56.3116 L 40.8925,-56.533 L 41.2227,-56.7145 L 41.5729,-56.8532 L 41.9379,-56.9469
 L 42.3116,-56.9941 L 42.6884,-56.9941 L 43.0621,-56.9469 L 43.427,-56.8532 L 43.7773,-56.7145 L 44.1075,-56.533
 L 44.4123,-56.3116 L 44.6869,-56.0536 L 44.927,-55.7634 L 45.1289,-55.4453 L 45.2893,-55.1044 L 45.4057,-54.7461
 L 45.4763,-54.376 L 45.5,-54 L 45.4763,-53.624 L 45.4057,-53.2539 L 45.2893,-52.8956 L 45.1289,-52.5547
 L 44.927,-52.2366 L 44.6869,-51.9464 L 44.4123,-51.6885 L 44.1075,-51.467 L 43.7773,-51.2855 L 43.427,-51.1468
 L 43.0621,-51.0531 L 42.6884,-51.0059 z
M 49.9058,-52.503 L 49.7189,-52.5266 L 49.5365,-52.5734 L 49.3613,-52.6428 L 49.1963,-52.7335 L 49.0439,-52.8442
 L 48.9065,-52.9732 L 48.7865,-53.1183 L 48.6855,-53.2774 L 48.6053,-53.4478 L 48.5471,-53.627 L 48.5118,-53.812
 L 48.5,-54 L 48.5118,-54.188 L 48.5471,-54.373 L 48.6053,-54.5522 L 48.6855,-54.7226 L 48.7865,-54.8817
 L 48.9065,-55.0268 L 49.0439,-55.1558 L 49.1963,-55.2665 L 49.3613,-55.3573 L 49.5365,-55.4266 L 49.7189,-55.4734
 L 49.9058,-55.497 L 50.0942,-55.497 L 50.2811,-55.4734 L 50.4635,-55.4266 L 50.6387,-55.3573 L 50.8037,-55.2665
 L 50.9561,-55.1558 L 51.0934,-55.0268 L 51.2135,-54.8817 L 51.3145,-54.7226 L 51.3947,-54.5522 L 51.4529,-54.373
 L 51.4882,-54.188 L 51.5,-54 L 51.4882,-53.812 L 51.4529,-53.627 L 51.3947,-53.4478 L 51.3145,-53.2774
 L 51.2135,-53.1183 L 51.0934,-52.9732 L 50.9561,-52.8442 L 50.8037,-52.7335 L 50.6387,-52.6428 L 50.4635,-52.5734
 L 50.2811,-52.5266 L 50.0942,-52.503 z
" stroke="black" fill="lightgray" stroke-width="0.5"/>
</svg>
