  0
SECTION
  2
BLOCKS
  0
ENDSEC
  0
SECTION
  2
ENTITIES
  0
LINE
  8
0
 10
57
 20
125
 11
56.9606
 21
125.627
  0
LINE
  8
0
 10
56.9606
 20
125.627
 11
56.8429
 21
126.243
  0
LINE
  8
0
 10
56.8429
 20
126.243
 11
56.6489
 21
126.841
  0
LINE
  8
0
 10
56.6489
 20
126.841
 11
56.3815
 21
127.409
  0
LINE
  8
0
 10
56.3815
 20
127.409
 11
56.0451
 21
127.939
  0
LINE
  8
0
 10
56.0451
 20
127.939
 11
55.6448
 21
128.423
  0
LINE
  8
0
 10
55.6448
 20
128.423
 11
55.1871
 21
128.853
  0
LINE
  8
0
 10
55.1871
 20
128.853
 11
54.6791
 21
129.222
  0
LINE
  8
0
 10
54.6791
 20
129.222
 11
54.1289
 21
129.524
  0
LINE
  8
0
 10
54.1289
 20
129.524
 11
53.5451
 21
129.755
  0
LINE
  8
0
 10
53.5451
 20
129.755
 11
52.9369
 21
129.911
  0
LINE
  8
0
 10
52.9369
 20
129.911
 11
52.3139
 21
129.99
  0
LINE
  8
0
 10
52.3139
 20
129.99
 11
47.686
 21
129.99
  0
LINE
  8
0
 10
47.686
 20
129.99
 11
47.0631
 21
129.911
  0
LINE
  8
0
 10
47.0631
 20
129.911
 11
46.4549
 21
129.755
  0
LINE
  8
0
 10
46.4549
 20
129.755
 11
45.8711
 21
129.524
  0
LINE
  8
0
 10
45.8711
 20
129.524
 11
45.3209
 21
129.222
  0
LINE
  8
0
 10
45.3209
 20
129.222
 11
44.8129
 21
128.853
  0
LINE
  8
0
 10
44.8129
 20
128.853
 11
44.3551
 21
128.423
  0
LINE
  8
0
 10
44.3551
 20
128.423
 11
43.9549
 21
127.939
  0
LINE
  8
0
 10
43.9549
 20
127.939
 11
43.6185
 21
127.409
  0
LINE
  8
0
 10
43.6185
 20
127.409
 11
43.3511
 21
126.841
  0
LINE
  8
0
 10
43.3511
 20
126.841
 11
43.1571
 21
126.243
  0
LINE
  8
0
 10
43.1571
 20
126.243
 11
43.0394
 21
125.627
  0
LINE
  8
0
 10
43.0394
 20
125.627
 11
43
 21
125
  0
LINE
  8
0
 10
43
 20
125
 11
43
 21
109.318
  0
LINE
  8
0
 10
43
 20
109.318
 11
57
 21
109.318
  0
LINE
  8
0
 10
57
 20
109.318
 11
57
 21
125
  0
LINE
  8
0
 10
49.8116
 20
120.006
 11
49.4379
 21
120.053
  0
LINE
  8
0
 10
49.4379
 20
120.053
 11
49.0729
 21
120.147
  0
LINE
  8
0
 10
49.0729
 20
120.147
 11
48.7227
 21
120.286
  0
LINE
  8
0
 10
48.7227
 20
120.286
 11
48.3925
 21
120.467
  0
LINE
  8
0
 10
48.3925
 20
120.467
 11
48.0877
 21
120.688
  0
LINE
  8
0
 10
48.0877
 20
120.688
 11
47.8131
 21
120.946
  0
LINE
  8
0
 10
47.8131
 20
120.946
 11
47.5729
 21
121.237
  0
LINE
  8
0
 10
47.5729
 20
121.237
 11
47.3711
 21
121.555
  0
LINE
  8
0
 10
47.3711
 20
121.555
 11
47.2107
 21
121.896
  0
LINE
  8
0
 10
47.2107
 20
121.896
 11
47.0942
 21
122.254
  0
LINE
  8
0
 10
47.0942
 20
122.254
 11
47.0237
 21
122.624
  0
LINE
  8
0
 10
47.0237
 20
122.624
 11
47
 21
123
  0
LINE
  8
0
 10
47
 20
123
 11
47.0237
 21
123.376
  0
LINE
  8
0
 10
47.0237
 20
123.376
 11
47.0942
 21
123.746
  0
LINE
  8
0
 10
47.0942
 20
123.746
 11
47.2107
 21
124.104
  0
LINE
  8
0
 10
47.2107
 20
124.104
 11
47.3711
 21
124.445
  0
LINE
  8
0
 10
47.3711
 20
124.445
 11
47.5729
 21
124.763
  0
LINE
  8
0
 10
47.5729
 20
124.763
 11
47.8131
 21
125.054
  0
LINE
  8
0
 10
47.8131
 20
125.054
 11
48.0877
 21
125.312
  0
LINE
  8
0
 10
48.0877
 20
125.312
 11
48.3925
 21
125.533
  0
LINE
  8
0
 10
48.3925
 20
125.533
 11
48.7227
 21
125.714
  0
LINE
  8
0
 10
48.7227
 20
125.714
 11
49.0729
 21
125.853
  0
LINE
  8
0
 10
49.0729
 20
125.853
 11
49.4379
 21
125.947
  0
LINE
  8
0
 10
49.4379
 20
125.947
 11
49.8116
 21
125.994
  0
LINE
  8
0
 10
49.8116
 20
125.994
 11
50.1884
 21
125.994
  0
LINE
  8
0
 10
50.1884
 20
125.994
 11
50.5621
 21
125.947
  0
LINE
  8
0
 10
50.5621
 20
125.947
 11
50.927
 21
125.853
  0
LINE
  8
0
 10
50.927
 20
125.853
 11
51.2773
 21
125.714
  0
LINE
  8
0
 10
51.2773
 20
125.714
 11
51.6075
 21
125.533
  0
LINE
  8
0
 10
51.6075
 20
125.533
 11
51.9123
 21
125.312
  0
LINE
  8
0
 10
51.9123
 20
125.312
 11
52.1869
 21
125.054
  0
LINE
  8
0
 10
52.1869
 20
125.054
 11
52.427
 21
124.763
  0
LINE
  8
0
 10
52.427
 20
124.763
 11
52.6289
 21
124.445
  0
LINE
  8
0
 10
52.6289
 20
124.445
 11
52.7893
 21
124.104
  0
LINE
  8
0
 10
52.7893
 20
124.104
 11
52.9057
 21
123.746
  0
LINE
  8
0
 10
52.9057
 20
123.746
 11
52.9763
 21
123.376
  0
LINE
  8
0
 10
52.9763
 20
123.376
 11
53
 21
123
  0
LINE
  8
0
 10
53
 20
123
 11
52.9763
 21
122.624
  0
LINE
  8
0
 10
52.9763
 20
122.624
 11
52.9057
 21
122.254
  0
LINE
  8
0
 10
52.9057
 20
122.254
 11
52.7893
 21
121.896
  0
LINE
  8
0
 10
52.7893
 20
121.896
 11
52.6289
 21
121.555
  0
LINE
  8
0
 10
52.6289
 20
121.555
 11
52.427
 21
121.237
  0
LINE
  8
0
 10
52.427
 20
121.237
 11
52.1869
 21
120.946
  0
LINE
  8
0
 10
52.1869
 20
120.946
 11
51.9123
 21
120.688
  0
LINE
  8
0
 10
51.9123
 20
120.688
 11
51.6075
 21
120.467
  0
LINE
  8
0
 10
51.6075
 20
120.467
 11
51.2773
 21
120.286
  0
LINE
  8
0
 10
51.2773
 20
120.286
 11
50.927
 21
120.147
  0
LINE
  8
0
 10
50.927
 20
120.147
 11
50.5621
 21
120.053
  0
LINE
  8
0
 10
50.5621
 20
120.053
 11
50.1884
 21
120.006
  0
LINE
  8
0
 10
50.1884
 20
120.006
 11
49.8116
 21
120.006
  0
LINE
  8
0
 10
49.887
 20
113.704
 11
49.6627
 21
113.732
  0
LINE
  8
0
 10
49.6627
 20
113.732
 11
49.4438
 21
113.788
  0
LINE
  8
0
 10
49.4438
 20
113.788
 11
49.2336
 21
113.871
  0
LINE
  8
0
 10
49.2336
 20
113.871
 11
49.0355
 21
113.98
  0
LINE
  8
0
 10
49.0355
 20
113.98
 11
48.8526
 21
114.113
  0
LINE
  8
0
 10
48.8526
 20
114.113
 11
48.6879
 21
114.268
  0
LINE
  8
0
 10
48.6879
 20
114.268
 11
48.5438
 21
114.442
  0
LINE
  8
0
 10
48.5438
 20
114.442
 11
48.4226
 21
114.633
  0
LINE
  8
0
 10
48.4226
 20
114.633
 11
48.3264
 21
114.837
  0
LINE
  8
0
 10
48.3264
 20
114.837
 11
48.2565
 21
115.052
  0
LINE
  8
0
 10
48.2565
 20
115.052
 11
48.2142
 21
115.274
  0
LINE
  8
0
 10
48.2142
 20
115.274
 11
48.2
 21
115.5
  0
LINE
  8
0
 10
48.2
 20
115.5
 11
48.2142
 21
115.726
  0
LINE
  8
0
 10
48.2142
 20
115.726
 11
48.2565
 21
115.948
  0
LINE
  8
0
 10
48.2565
 20
115.948
 11
48.3264
 21
116.163
  0
LINE
  8
0
 10
48.3264
 20
116.163
 11
48.4226
 21
116.367
  0
LINE
  8
0
 10
48.4226
 20
116.367
 11
48.5438
 21
116.558
  0
LINE
  8
0
 10
48.5438
 20
116.558
 11
48.6879
 21
116.732
  0
LINE
  8
0
 10
48.6879
 20
116.732
 11
48.8526
 21
116.887
  0
LINE
  8
0
 10
48.8526
 20
116.887
 11
49.0355
 21
117.02
  0
LINE
  8
0
 10
49.0355
 20
117.02
 11
49.2336
 21
117.129
  0
LINE
  8
0
 10
49.2336
 20
117.129
 11
49.4438
 21
117.212
  0
LINE
  8
0
 10
49.4438
 20
117.212
 11
49.6627
 21
117.268
  0
LINE
  8
0
 10
49.6627
 20
117.268
 11
49.887
 21
117.296
  0
LINE
  8
0
 10
49.887
 20
117.296
 11
50.113
 21
117.296
  0
LINE
  8
0
 10
50.113
 20
117.296
 11
50.3373
 21
117.268
  0
LINE
  8
0
 10
50.3373
 20
117.268
 11
50.5562
 21
117.212
  0
LINE
  8
0
 10
50.5562
 20
117.212
 11
50.7664
 21
117.129
  0
LINE
  8
0
 10
50.7664
 20
117.129
 11
50.9645
 21
117.02
  0
LINE
  8
0
 10
50.9645
 20
117.02
 11
51.1474
 21
116.887
  0
LINE
  8
0
 10
51.1474
 20
116.887
 11
51.3121
 21
116.732
  0
LINE
  8
0
 10
51.3121
 20
116.732
 11
51.4562
 21
116.558
  0
LINE
  8
0
 10
51.4562
 20
116.558
 11
51.5773
 21
116.367
  0
LINE
  8
0
 10
51.5773
 20
116.367
 11
51.6736
 21
116.163
  0
LINE
  8
0
 10
51.6736
 20
116.163
 11
51.7434
 21
115.948
  0
LINE
  8
0
 10
51.7434
 20
115.948
 11
51.7858
 21
115.726
  0
LINE
  8
0
 10
51.7858
 20
115.726
 11
51.8
 21
115.5
  0
LINE
  8
0
 10
51.8
 20
115.5
 11
51.7858
 21
115.274
  0
LINE
  8
0
 10
51.7858
 20
115.274
 11
51.7434
 21
115.052
  0
LINE
  8
0
 10
51.7434
 20
115.052
 11
51.6736
 21
114.837
  0
LINE
  8
0
 10
51.6736
 20
114.837
 11
51.5773
 21
114.633
  0
LINE
  8
0
 10
51.5773
 20
114.633
 11
51.4562
 21
114.442
  0
LINE
  8
0
 10
51.4562
 20
114.442
 11
51.3121
 21
114.268
  0
LINE
  8
0
 10
51.3121
 20
114.268
 11
51.1474
 21
114.113
  0
LINE
  8
0
 10
51.1474
 20
114.113
 11
50.9645
 21
113.98
  0
LINE
  8
0
 10
50.9645
 20
113.98
 11
50.7664
 21
113.871
  0
LINE
  8
0
 10
50.7664
 20
113.871
 11
50.5562
 21
113.788
  0
LINE
  8
0
 10
50.5562
 20
113.788
 11
50.3373
 21
113.732
  0
LINE
  8
0
 10
50.3373
 20
113.732
 11
50.113
 21
113.704
  0
LINE
  8
0
 10
50.113
 20
113.704
 11
49.887
 21
113.704
  0
LINE
  8
0
 10
7
 20
125
 11
6.96057
 21
125.627
  0
LINE
  8
0
 10
6.96057
 20
125.627
 11
6.84291
 21
126.243
  0
LINE
  8
0
 10
6.84291
 20
126.243
 11
6.64888
 21
126.841
  0
LINE
  8
0
 10
6.64888
 20
126.841
 11
6.38153
 21
127.409
  0
LINE
  8
0
 10
6.38153
 20
127.409
 11
6.04507
 21
127.939
  0
LINE
  8
0
 10
6.04507
 20
127.939
 11
5.64484
 21
128.423
  0
LINE
  8
0
 10
5.64484
 20
128.423
 11
5.18712
 21
128.853
  0
LINE
  8
0
 10
5.18712
 20
128.853
 11
4.67912
 21
129.222
  0
LINE
  8
0
 10
4.67912
 20
129.222
 11
4.12889
 21
129.524
  0
LINE
  8
0
 10
4.12889
 20
129.524
 11
3.54507
 21
129.755
  0
LINE
  8
0
 10
3.54507
 20
129.755
 11
2.9369
 21
129.911
  0
LINE
  8
0
 10
2.9369
 20
129.911
 11
2.31395
 21
129.99
  0
LINE
  8
0
 10
2.31395
 20
129.99
 11
-2.31395
 21
129.99
  0
LINE
  8
0
 10
-2.31395
 20
129.99
 11
-2.9369
 21
129.911
  0
LINE
  8
0
 10
-2.9369
 20
129.911
 11
-3.54507
 21
129.755
  0
LINE
  8
0
 10
-3.54507
 20
129.755
 11
-4.12889
 21
129.524
  0
LINE
  8
0
 10
-4.12889
 20
129.524
 11
-4.67912
 21
129.222
  0
LINE
  8
0
 10
-4.67912
 20
129.222
 11
-5.18712
 21
128.853
  0
LINE
  8
0
 10
-5.18712
 20
128.853
 11
-5.64484
 21
128.423
  0
LINE
  8
0
 10
-5.64484
 20
128.423
 11
-6.04507
 21
127.939
  0
LINE
  8
0
 10
-6.04507
 20
127.939
 11
-6.38153
 21
127.409
  0
LINE
  8
0
 10
-6.38153
 20
127.409
 11
-6.64888
 21
126.841
  0
LINE
  8
0
 10
-6.64888
 20
126.841
 11
-6.84291
 21
126.243
  0
LINE
  8
0
 10
-6.84291
 20
126.243
 11
-6.96057
 21
125.627
  0
LINE
  8
0
 10
-6.96057
 20
125.627
 11
-7
 21
125
  0
LINE
  8
0
 10
-7
 20
125
 11
-7
 21
109.318
  0
LINE
  8
0
 10
-7
 20
109.318
 11
7
 21
109.318
  0
LINE
  8
0
 10
7
 20
109.318
 11
7
 21
125
  0
LINE
  8
0
 10
-0.194641
 20
119.906
 11
-0.580872
 21
119.955
  0
LINE
  8
0
 10
-0.580872
 20
119.955
 11
-0.957947
 21
120.052
  0
LINE
  8
0
 10
-0.957947
 20
120.052
 11
-1.3199
 21
120.195
  0
LINE
  8
0
 10
-1.3199
 20
120.195
 11
-1.66106
 21
120.383
  0
LINE
  8
0
 10
-1.66106
 20
120.383
 11
-1.97601
 21
120.611
  0
LINE
  8
0
 10
-1.97601
 20
120.611
 11
-2.2598
 21
120.878
  0
LINE
  8
0
 10
-2.2598
 20
120.878
 11
-2.50795
 21
121.178
  0
LINE
  8
0
 10
-2.50795
 20
121.178
 11
-2.71654
 21
121.507
  0
LINE
  8
0
 10
-2.71654
 20
121.507
 11
-2.88229
 21
121.859
  0
LINE
  8
0
 10
-2.88229
 20
121.859
 11
-3.00259
 21
122.229
  0
LINE
  8
0
 10
-3.00259
 20
122.229
 11
-3.07555
 21
122.611
  0
LINE
  8
0
 10
-3.07555
 20
122.611
 11
-3.09999
 21
123
  0
LINE
  8
0
 10
-3.09999
 20
123
 11
-3.07555
 21
123.389
  0
LINE
  8
0
 10
-3.07555
 20
123.389
 11
-3.00259
 21
123.771
  0
LINE
  8
0
 10
-3.00259
 20
123.771
 11
-2.88229
 21
124.141
  0
LINE
  8
0
 10
-2.88229
 20
124.141
 11
-2.71654
 21
124.493
  0
LINE
  8
0
 10
-2.71654
 20
124.493
 11
-2.50795
 21
124.822
  0
LINE
  8
0
 10
-2.50795
 20
124.822
 11
-2.2598
 21
125.122
  0
LINE
  8
0
 10
-2.2598
 20
125.122
 11
-1.97601
 21
125.389
  0
LINE
  8
0
 10
-1.97601
 20
125.389
 11
-1.66106
 21
125.617
  0
LINE
  8
0
 10
-1.66106
 20
125.617
 11
-1.3199
 21
125.805
  0
LINE
  8
0
 10
-1.3199
 20
125.805
 11
-0.957947
 21
125.948
  0
LINE
  8
0
 10
-0.957947
 20
125.948
 11
-0.580872
 21
126.045
  0
LINE
  8
0
 10
-0.580872
 20
126.045
 11
-0.194641
 21
126.094
  0
LINE
  8
0
 10
-0.194641
 20
126.094
 11
0.194641
 21
126.094
  0
LINE
  8
0
 10
0.194641
 20
126.094
 11
0.580872
 21
126.045
  0
LINE
  8
0
 10
0.580872
 20
126.045
 11
0.957947
 21
125.948
  0
LINE
  8
0
 10
0.957947
 20
125.948
 11
1.3199
 21
125.805
  0
LINE
  8
0
 10
1.3199
 20
125.805
 11
1.66106
 21
125.617
  0
LINE
  8
0
 10
1.66106
 20
125.617
 11
1.97601
 21
125.389
  0
LINE
  8
0
 10
1.97601
 20
125.389
 11
2.2598
 21
125.122
  0
LINE
  8
0
 10
2.2598
 20
125.122
 11
2.50795
 21
124.822
  0
LINE
  8
0
 10
2.50795
 20
124.822
 11
2.71654
 21
124.493
  0
LINE
  8
0
 10
2.71654
 20
124.493
 11
2.88229
 21
124.141
  0
LINE
  8
0
 10
2.88229
 20
124.141
 11
3.00259
 21
123.771
  0
LINE
  8
0
 10
3.00259
 20
123.771
 11
3.07555
 21
123.389
  0
LINE
  8
0
 10
3.07555
 20
123.389
 11
3.09999
 21
123
  0
LINE
  8
0
 10
3.09999
 20
123
 11
3.07555
 21
122.611
  0
LINE
  8
0
 10
3.07555
 20
122.611
 11
3.00259
 21
122.229
  0
LINE
  8
0
 10
3.00259
 20
122.229
 11
2.88229
 21
121.859
  0
LINE
  8
0
 10
2.88229
 20
121.859
 11
2.71654
 21
121.507
  0
LINE
  8
0
 10
2.71654
 20
121.507
 11
2.50795
 21
121.178
  0
LINE
  8
0
 10
2.50795
 20
121.178
 11
2.2598
 21
120.878
  0
LINE
  8
0
 10
2.2598
 20
120.878
 11
1.97601
 21
120.611
  0
LINE
  8
0
 10
1.97601
 20
120.611
 11
1.66106
 21
120.383
  0
LINE
  8
0
 10
1.66106
 20
120.383
 11
1.3199
 21
120.195
  0
LINE
  8
0
 10
1.3199
 20
120.195
 11
0.957947
 21
120.052
  0
LINE
  8
0
 10
0.957947
 20
120.052
 11
0.580872
 21
119.955
  0
LINE
  8
0
 10
0.580872
 20
119.955
 11
0.194641
 21
119.906
  0
LINE
  8
0
 10
0.194641
 20
119.906
 11
-0.194641
 21
119.906
  0
LINE
  8
0
 10
-0.113022
 20
113.704
 11
-0.33728
 21
113.732
  0
LINE
  8
0
 10
-0.33728
 20
113.732
 11
-0.556229
 21
113.788
  0
LINE
  8
0
 10
-0.556229
 20
113.788
 11
-0.766388
 21
113.871
  0
LINE
  8
0
 10
-0.766388
 20
113.871
 11
-0.964478
 21
113.98
  0
LINE
  8
0
 10
-0.964478
 20
113.98
 11
-1.14735
 21
114.113
  0
LINE
  8
0
 10
-1.14735
 20
114.113
 11
-1.31213
 21
114.268
  0
LINE
  8
0
 10
-1.31213
 20
114.268
 11
-1.45622
 21
114.442
  0
LINE
  8
0
 10
-1.45622
 20
114.442
 11
-1.57735
 21
114.633
  0
LINE
  8
0
 10
-1.57735
 20
114.633
 11
-1.67358
 21
114.837
  0
LINE
  8
0
 10
-1.67358
 20
114.837
 11
-1.74344
 21
115.052
  0
LINE
  8
0
 10
-1.74344
 20
115.052
 11
-1.7858
 21
115.274
  0
LINE
  8
0
 10
-1.7858
 20
115.274
 11
-1.79999
 21
115.5
  0
LINE
  8
0
 10
-1.79999
 20
115.5
 11
-1.7858
 21
115.726
  0
LINE
  8
0
 10
-1.7858
 20
115.726
 11
-1.74344
 21
115.948
  0
LINE
  8
0
 10
-1.74344
 20
115.948
 11
-1.67358
 21
116.163
  0
LINE
  8
0
 10
-1.67358
 20
116.163
 11
-1.57735
 21
116.367
  0
LINE
  8
0
 10
-1.57735
 20
116.367
 11
-1.45622
 21
116.558
  0
LINE
  8
0
 10
-1.45622
 20
116.558
 11
-1.31213
 21
116.732
  0
LINE
  8
0
 10
-1.31213
 20
116.732
 11
-1.14735
 21
116.887
  0
LINE
  8
0
 10
-1.14735
 20
116.887
 11
-0.964478
 21
117.02
  0
LINE
  8
0
 10
-0.964478
 20
117.02
 11
-0.766388
 21
117.129
  0
LINE
  8
0
 10
-0.766388
 20
117.129
 11
-0.556229
 21
117.212
  0
LINE
  8
0
 10
-0.556229
 20
117.212
 11
-0.33728
 21
117.268
  0
LINE
  8
0
 10
-0.33728
 20
117.268
 11
-0.113022
 21
117.296
  0
LINE
  8
0
 10
-0.113022
 20
117.296
 11
0.113022
 21
117.296
  0
LINE
  8
0
 10
0.113022
 20
117.296
 11
0.33728
 21
117.268
  0
LINE
  8
0
 10
0.33728
 20
117.268
 11
0.556229
 21
117.212
  0
LINE
  8
0
 10
0.556229
 20
117.212
 11
0.766388
 21
117.129
  0
LINE
  8
0
 10
0.766388
 20
117.129
 11
0.964478
 21
117.02
  0
LINE
  8
0
 10
0.964478
 20
117.02
 11
1.14735
 21
116.887
  0
LINE
  8
0
 10
1.14735
 20
116.887
 11
1.31213
 21
116.732
  0
LINE
  8
0
 10
1.31213
 20
116.732
 11
1.45622
 21
116.558
  0
LINE
  8
0
 10
1.45622
 20
116.558
 11
1.57735
 21
116.367
  0
LINE
  8
0
 10
1.57735
 20
116.367
 11
1.67358
 21
116.163
  0
LINE
  8
0
 10
1.67358
 20
116.163
 11
1.74344
 21
115.948
  0
LINE
  8
0
 10
1.74344
 20
115.948
 11
1.7858
 21
115.726
  0
LINE
  8
0
 10
1.7858
 20
115.726
 11
1.79999
 21
115.5
  0
LINE
  8
0
 10
1.79999
 20
115.5
 11
1.7858
 21
115.274
  0
LINE
  8
0
 10
1.7858
 20
115.274
 11
1.74344
 21
115.052
  0
LINE
  8
0
 10
1.74344
 20
115.052
 11
1.67358
 21
114.837
  0
LINE
  8
0
 10
1.67358
 20
114.837
 11
1.57735
 21
114.633
  0
LINE
  8
0
 10
1.57735
 20
114.633
 11
1.45622
 21
114.442
  0
LINE
  8
0
 10
1.45622
 20
114.442
 11
1.31213
 21
114.268
  0
LINE
  8
0
 10
1.31213
 20
114.268
 11
1.14735
 21
114.113
  0
LINE
  8
0
 10
1.14735
 20
114.113
 11
0.964478
 21
113.98
  0
LINE
  8
0
 10
0.964478
 20
113.98
 11
0.766388
 21
113.871
  0
LINE
  8
0
 10
0.766388
 20
113.871
 11
0.556229
 21
113.788
  0
LINE
  8
0
 10
0.556229
 20
113.788
 11
0.33728
 21
113.732
  0
LINE
  8
0
 10
0.33728
 20
113.732
 11
0.113022
 21
113.704
  0
LINE
  8
0
 10
0.113022
 20
113.704
 11
-0.113022
 21
113.704
  0
LINE
  8
0
 10
52.9369
 20
86.0886
 11
53.5451
 21
86.2447
  0
LINE
  8
0
 10
53.5451
 20
86.2447
 11
54.1289
 21
86.4759
  0
LINE
  8
0
 10
54.1289
 20
86.4759
 11
54.6791
 21
86.7784
  0
LINE
  8
0
 10
54.6791
 20
86.7784
 11
55.1871
 21
87.1474
  0
LINE
  8
0
 10
55.1871
 20
87.1474
 11
55.6448
 21
87.5773
  0
LINE
  8
0
 10
55.6448
 20
87.5773
 11
56.0451
 21
88.0611
  0
LINE
  8
0
 10
56.0451
 20
88.0611
 11
56.3815
 21
88.5912
  0
LINE
  8
0
 10
56.3815
 20
88.5912
 11
56.6489
 21
89.1594
  0
LINE
  8
0
 10
56.6489
 20
89.1594
 11
56.8429
 21
89.7566
  0
LINE
  8
0
 10
56.8429
 20
89.7566
 11
56.9606
 21
90.3733
  0
LINE
  8
0
 10
56.9606
 20
90.3733
 11
57
 21
91
  0
LINE
  8
0
 10
57
 20
91
 11
57
 21
106.682
  0
LINE
  8
0
 10
57
 20
106.682
 11
43
 21
106.682
  0
LINE
  8
0
 10
43
 20
106.682
 11
43
 21
91
  0
LINE
  8
0
 10
43
 20
91
 11
43.0394
 21
90.3733
  0
LINE
  8
0
 10
43.0394
 20
90.3733
 11
43.1571
 21
89.7566
  0
LINE
  8
0
 10
43.1571
 20
89.7566
 11
43.3511
 21
89.1594
  0
LINE
  8
0
 10
43.3511
 20
89.1594
 11
43.6185
 21
88.5912
  0
LINE
  8
0
 10
43.6185
 20
88.5912
 11
43.9549
 21
88.0611
  0
LINE
  8
0
 10
43.9549
 20
88.0611
 11
44.3551
 21
87.5773
  0
LINE
  8
0
 10
44.3551
 20
87.5773
 11
44.8129
 21
87.1474
  0
LINE
  8
0
 10
44.8129
 20
87.1474
 11
45.3209
 21
86.7784
  0
LINE
  8
0
 10
45.3209
 20
86.7784
 11
45.8711
 21
86.4759
  0
LINE
  8
0
 10
45.8711
 20
86.4759
 11
46.4549
 21
86.2447
  0
LINE
  8
0
 10
46.4549
 20
86.2447
 11
47.0631
 21
86.0886
  0
LINE
  8
0
 10
47.0631
 20
86.0886
 11
47.686
 21
86.0099
  0
LINE
  8
0
 10
47.686
 20
86.0099
 11
52.3139
 21
86.0099
  0
LINE
  8
0
 10
52.3139
 20
86.0099
 11
52.9369
 21
86.0886
  0
LINE
  8
0
 10
49.887
 20
98.7036
 11
49.6627
 21
98.7319
  0
LINE
  8
0
 10
49.6627
 20
98.7319
 11
49.4438
 21
98.7881
  0
LINE
  8
0
 10
49.4438
 20
98.7881
 11
49.2336
 21
98.8713
  0
LINE
  8
0
 10
49.2336
 20
98.8713
 11
49.0355
 21
98.9802
  0
LINE
  8
0
 10
49.0355
 20
98.9802
 11
48.8526
 21
99.1131
  0
LINE
  8
0
 10
48.8526
 20
99.1131
 11
48.6879
 21
99.2678
  0
LINE
  8
0
 10
48.6879
 20
99.2678
 11
48.5438
 21
99.442
  0
LINE
  8
0
 10
48.5438
 20
99.442
 11
48.4226
 21
99.6329
  0
LINE
  8
0
 10
48.4226
 20
99.6329
 11
48.3264
 21
99.8374
  0
LINE
  8
0
 10
48.3264
 20
99.8374
 11
48.2565
 21
100.052
  0
LINE
  8
0
 10
48.2565
 20
100.052
 11
48.2142
 21
100.274
  0
LINE
  8
0
 10
48.2142
 20
100.274
 11
48.2
 21
100.5
  0
LINE
  8
0
 10
48.2
 20
100.5
 11
48.2142
 21
100.726
  0
LINE
  8
0
 10
48.2142
 20
100.726
 11
48.2565
 21
100.948
  0
LINE
  8
0
 10
48.2565
 20
100.948
 11
48.3264
 21
101.163
  0
LINE
  8
0
 10
48.3264
 20
101.163
 11
48.4226
 21
101.367
  0
LINE
  8
0
 10
48.4226
 20
101.367
 11
48.5438
 21
101.558
  0
LINE
  8
0
 10
48.5438
 20
101.558
 11
48.6879
 21
101.732
  0
LINE
  8
0
 10
48.6879
 20
101.732
 11
48.8526
 21
101.887
  0
LINE
  8
0
 10
48.8526
 20
101.887
 11
49.0355
 21
102.02
  0
LINE
  8
0
 10
49.0355
 20
102.02
 11
49.2336
 21
102.129
  0
LINE
  8
0
 10
49.2336
 20
102.129
 11
49.4438
 21
102.212
  0
LINE
  8
0
 10
49.4438
 20
102.212
 11
49.6627
 21
102.268
  0
LINE
  8
0
 10
49.6627
 20
102.268
 11
49.887
 21
102.296
  0
LINE
  8
0
 10
49.887
 20
102.296
 11
50.113
 21
102.296
  0
LINE
  8
0
 10
50.113
 20
102.296
 11
50.3373
 21
102.268
  0
LINE
  8
0
 10
50.3373
 20
102.268
 11
50.5562
 21
102.212
  0
LINE
  8
0
 10
50.5562
 20
102.212
 11
50.7664
 21
102.129
  0
LINE
  8
0
 10
50.7664
 20
102.129
 11
50.9645
 21
102.02
  0
LINE
  8
0
 10
50.9645
 20
102.02
 11
51.1474
 21
101.887
  0
LINE
  8
0
 10
51.1474
 20
101.887
 11
51.3121
 21
101.732
  0
LINE
  8
0
 10
51.3121
 20
101.732
 11
51.4562
 21
101.558
  0
LINE
  8
0
 10
51.4562
 20
101.558
 11
51.5773
 21
101.367
  0
LINE
  8
0
 10
51.5773
 20
101.367
 11
51.6736
 21
101.163
  0
LINE
  8
0
 10
51.6736
 20
101.163
 11
51.7434
 21
100.948
  0
LINE
  8
0
 10
51.7434
 20
100.948
 11
51.7858
 21
100.726
  0
LINE
  8
0
 10
51.7858
 20
100.726
 11
51.8
 21
100.5
  0
LINE
  8
0
 10
51.8
 20
100.5
 11
51.7858
 21
100.274
  0
LINE
  8
0
 10
51.7858
 20
100.274
 11
51.7434
 21
100.052
  0
LINE
  8
0
 10
51.7434
 20
100.052
 11
51.6736
 21
99.8374
  0
LINE
  8
0
 10
51.6736
 20
99.8374
 11
51.5773
 21
99.6329
  0
LINE
  8
0
 10
51.5773
 20
99.6329
 11
51.4562
 21
99.442
  0
LINE
  8
0
 10
51.4562
 20
99.442
 11
51.3121
 21
99.2678
  0
LINE
  8
0
 10
51.3121
 20
99.2678
 11
51.1474
 21
99.1131
  0
LINE
  8
0
 10
51.1474
 20
99.1131
 11
50.9645
 21
98.9802
  0
LINE
  8
0
 10
50.9645
 20
98.9802
 11
50.7664
 21
98.8713
  0
LINE
  8
0
 10
50.7664
 20
98.8713
 11
50.5562
 21
98.7881
  0
LINE
  8
0
 10
50.5562
 20
98.7881
 11
50.3373
 21
98.7319
  0
LINE
  8
0
 10
50.3373
 20
98.7319
 11
50.113
 21
98.7036
  0
LINE
  8
0
 10
50.113
 20
98.7036
 11
49.887
 21
98.7036
  0
LINE
  8
0
 10
49.8116
 20
90.0059
 11
49.4379
 21
90.0531
  0
LINE
  8
0
 10
49.4379
 20
90.0531
 11
49.0729
 21
90.1468
  0
LINE
  8
0
 10
49.0729
 20
90.1468
 11
48.7227
 21
90.2855
  0
LINE
  8
0
 10
48.7227
 20
90.2855
 11
48.3925
 21
90.467
  0
LINE
  8
0
 10
48.3925
 20
90.467
 11
48.0877
 21
90.6885
  0
LINE
  8
0
 10
48.0877
 20
90.6885
 11
47.8131
 21
90.9464
  0
LINE
  8
0
 10
47.8131
 20
90.9464
 11
47.5729
 21
91.2366
  0
LINE
  8
0
 10
47.5729
 20
91.2366
 11
47.3711
 21
91.5547
  0
LINE
  8
0
 10
47.3711
 20
91.5547
 11
47.2107
 21
91.8956
  0
LINE
  8
0
 10
47.2107
 20
91.8956
 11
47.0942
 21
92.2539
  0
LINE
  8
0
 10
47.0942
 20
92.2539
 11
47.0237
 21
92.624
  0
LINE
  8
0
 10
47.0237
 20
92.624
 11
47
 21
93
  0
LINE
  8
0
 10
47
 20
93
 11
47.0237
 21
93.376
  0
LINE
  8
0
 10
47.0237
 20
93.376
 11
47.0942
 21
93.7461
  0
LINE
  8
0
 10
47.0942
 20
93.7461
 11
47.2107
 21
94.1044
  0
LINE
  8
0
 10
47.2107
 20
94.1044
 11
47.3711
 21
94.4453
  0
LINE
  8
0
 10
47.3711
 20
94.4453
 11
47.5729
 21
94.7634
  0
LINE
  8
0
 10
47.5729
 20
94.7634
 11
47.8131
 21
95.0536
  0
LINE
  8
0
 10
47.8131
 20
95.0536
 11
48.0877
 21
95.3116
  0
LINE
  8
0
 10
48.0877
 20
95.3116
 11
48.3925
 21
95.533
  0
LINE
  8
0
 10
48.3925
 20
95.533
 11
48.7227
 21
95.7145
  0
LINE
  8
0
 10
48.7227
 20
95.7145
 11
49.0729
 21
95.8532
  0
LINE
  8
0
 10
49.0729
 20
95.8532
 11
49.4379
 21
95.9469
  0
LINE
  8
0
 10
49.4379
 20
95.9469
 11
49.8116
 21
95.9941
  0
LINE
  8
0
 10
49.8116
 20
95.9941
 11
50.1884
 21
95.9941
  0
LINE
  8
0
 10
50.1884
 20
95.9941
 11
50.5621
 21
95.9469
  0
LINE
  8
0
 10
50.5621
 20
95.9469
 11
50.927
 21
95.8532
  0
LINE
  8
0
 10
50.927
 20
95.8532
 11
51.2773
 21
95.7145
  0
LINE
  8
0
 10
51.2773
 20
95.7145
 11
51.6075
 21
95.533
  0
LINE
  8
0
 10
51.6075
 20
95.533
 11
51.9123
 21
95.3116
  0
LINE
  8
0
 10
51.9123
 20
95.3116
 11
52.1869
 21
95.0536
  0
LINE
  8
0
 10
52.1869
 20
95.0536
 11
52.427
 21
94.7634
  0
LINE
  8
0
 10
52.427
 20
94.7634
 11
52.6289
 21
94.4453
  0
LINE
  8
0
 10
52.6289
 20
94.4453
 11
52.7893
 21
94.1044
  0
LINE
  8
0
 10
52.7893
 20
94.1044
 11
52.9057
 21
93.7461
  0
LINE
  8
0
 10
52.9057
 20
93.7461
 11
52.9763
 21
93.376
  0
LINE
  8
0
 10
52.9763
 20
93.376
 11
53
 21
93
  0
LINE
  8
0
 10
53
 20
93
 11
52.9763
 21
92.624
  0
LINE
  8
0
 10
52.9763
 20
92.624
 11
52.9057
 21
92.2539
  0
LINE
  8
0
 10
52.9057
 20
92.2539
 11
52.7893
 21
91.8956
  0
LINE
  8
0
 10
52.7893
 20
91.8956
 11
52.6289
 21
91.5547
  0
LINE
  8
0
 10
52.6289
 20
91.5547
 11
52.427
 21
91.2366
  0
LINE
  8
0
 10
52.427
 20
91.2366
 11
52.1869
 21
90.9464
  0
LINE
  8
0
 10
52.1869
 20
90.9464
 11
51.9123
 21
90.6885
  0
LINE
  8
0
 10
51.9123
 20
90.6885
 11
51.6075
 21
90.467
  0
LINE
  8
0
 10
51.6075
 20
90.467
 11
51.2773
 21
90.2855
  0
LINE
  8
0
 10
51.2773
 20
90.2855
 11
50.927
 21
90.1468
  0
LINE
  8
0
 10
50.927
 20
90.1468
 11
50.5621
 21
90.0531
  0
LINE
  8
0
 10
50.5621
 20
90.0531
 11
50.1884
 21
90.0059
  0
LINE
  8
0
 10
50.1884
 20
90.0059
 11
49.8116
 21
90.0059
  0
LINE
  8
0
 10
2.9369
 20
86.0886
 11
3.54507
 21
86.2447
  0
LINE
  8
0
 10
3.54507
 20
86.2447
 11
4.12889
 21
86.4759
  0
LINE
  8
0
 10
4.12889
 20
86.4759
 11
4.67912
 21
86.7784
  0
LINE
  8
0
 10
4.67912
 20
86.7784
 11
5.18712
 21
87.1474
  0
LINE
  8
0
 10
5.18712
 20
87.1474
 11
5.64484
 21
87.5773
  0
LINE
  8
0
 10
5.64484
 20
87.5773
 11
6.04507
 21
88.0611
  0
LINE
  8
0
 10
6.04507
 20
88.0611
 11
6.38153
 21
88.5912
  0
LINE
  8
0
 10
6.38153
 20
88.5912
 11
6.64888
 21
89.1594
  0
LINE
  8
0
 10
6.64888
 20
89.1594
 11
6.84291
 21
89.7566
  0
LINE
  8
0
 10
6.84291
 20
89.7566
 11
6.96057
 21
90.3733
  0
LINE
  8
0
 10
6.96057
 20
90.3733
 11
7
 21
91
  0
LINE
  8
0
 10
7
 20
91
 11
7
 21
106.682
  0
LINE
  8
0
 10
7
 20
106.682
 11
-7
 21
106.682
  0
LINE
  8
0
 10
-7
 20
106.682
 11
-7
 21
91
  0
LINE
  8
0
 10
-7
 20
91
 11
-6.96057
 21
90.3733
  0
LINE
  8
0
 10
-6.96057
 20
90.3733
 11
-6.84291
 21
89.7566
  0
LINE
  8
0
 10
-6.84291
 20
89.7566
 11
-6.64888
 21
89.1594
  0
LINE
  8
0
 10
-6.64888
 20
89.1594
 11
-6.38153
 21
88.5912
  0
LINE
  8
0
 10
-6.38153
 20
88.5912
 11
-6.04507
 21
88.0611
  0
LINE
  8
0
 10
-6.04507
 20
88.0611
 11
-5.64484
 21
87.5773
  0
LINE
  8
0
 10
-5.64484
 20
87.5773
 11
-5.18712
 21
87.1474
  0
LINE
  8
0
 10
-5.18712
 20
87.1474
 11
-4.67912
 21
86.7784
  0
LINE
  8
0
 10
-4.67912
 20
86.7784
 11
-4.12889
 21
86.4759
  0
LINE
  8
0
 10
-4.12889
 20
86.4759
 11
-3.54507
 21
86.2447
  0
LINE
  8
0
 10
-3.54507
 20
86.2447
 11
-2.9369
 21
86.0886
  0
LINE
  8
0
 10
-2.9369
 20
86.0886
 11
-2.31395
 21
86.0099
  0
LINE
  8
0
 10
-2.31395
 20
86.0099
 11
2.31395
 21
86.0099
  0
LINE
  8
0
 10
2.31395
 20
86.0099
 11
2.9369
 21
86.0886
  0
LINE
  8
0
 10
-0.113022
 20
98.7036
 11
-0.33728
 21
98.7319
  0
LINE
  8
0
 10
-0.33728
 20
98.7319
 11
-0.556229
 21
98.7881
  0
LINE
  8
0
 10
-0.556229
 20
98.7881
 11
-0.766388
 21
98.8713
  0
LINE
  8
0
 10
-0.766388
 20
98.8713
 11
-0.964478
 21
98.9802
  0
LINE
  8
0
 10
-0.964478
 20
98.9802
 11
-1.14735
 21
99.1131
  0
LINE
  8
0
 10
-1.14735
 20
99.1131
 11
-1.31213
 21
99.2678
  0
LINE
  8
0
 10
-1.31213
 20
99.2678
 11
-1.45622
 21
99.442
  0
LINE
  8
0
 10
-1.45622
 20
99.442
 11
-1.57735
 21
99.6329
  0
LINE
  8
0
 10
-1.57735
 20
99.6329
 11
-1.67358
 21
99.8374
  0
LINE
  8
0
 10
-1.67358
 20
99.8374
 11
-1.74344
 21
100.052
  0
LINE
  8
0
 10
-1.74344
 20
100.052
 11
-1.7858
 21
100.274
  0
LINE
  8
0
 10
-1.7858
 20
100.274
 11
-1.79999
 21
100.5
  0
LINE
  8
0
 10
-1.79999
 20
100.5
 11
-1.7858
 21
100.726
  0
LINE
  8
0
 10
-1.7858
 20
100.726
 11
-1.74344
 21
100.948
  0
LINE
  8
0
 10
-1.74344
 20
100.948
 11
-1.67358
 21
101.163
  0
LINE
  8
0
 10
-1.67358
 20
101.163
 11
-1.57735
 21
101.367
  0
LINE
  8
0
 10
-1.57735
 20
101.367
 11
-1.45622
 21
101.558
  0
LINE
  8
0
 10
-1.45622
 20
101.558
 11
-1.31213
 21
101.732
  0
LINE
  8
0
 10
-1.31213
 20
101.732
 11
-1.14735
 21
101.887
  0
LINE
  8
0
 10
-1.14735
 20
101.887
 11
-0.964478
 21
102.02
  0
LINE
  8
0
 10
-0.964478
 20
102.02
 11
-0.766388
 21
102.129
  0
LINE
  8
0
 10
-0.766388
 20
102.129
 11
-0.556229
 21
102.212
  0
LINE
  8
0
 10
-0.556229
 20
102.212
 11
-0.33728
 21
102.268
  0
LINE
  8
0
 10
-0.33728
 20
102.268
 11
-0.113022
 21
102.296
  0
LINE
  8
0
 10
-0.113022
 20
102.296
 11
0.113022
 21
102.296
  0
LINE
  8
0
 10
0.113022
 20
102.296
 11
0.33728
 21
102.268
  0
LINE
  8
0
 10
0.33728
 20
102.268
 11
0.556229
 21
102.212
  0
LINE
  8
0
 10
0.556229
 20
102.212
 11
0.766388
 21
102.129
  0
LINE
  8
0
 10
0.766388
 20
102.129
 11
0.964478
 21
102.02
  0
LINE
  8
0
 10
0.964478
 20
102.02
 11
1.14735
 21
101.887
  0
LINE
  8
0
 10
1.14735
 20
101.887
 11
1.31213
 21
101.732
  0
LINE
  8
0
 10
1.31213
 20
101.732
 11
1.45622
 21
101.558
  0
LINE
  8
0
 10
1.45622
 20
101.558
 11
1.57735
 21
101.367
  0
LINE
  8
0
 10
1.57735
 20
101.367
 11
1.67358
 21
101.163
  0
LINE
  8
0
 10
1.67358
 20
101.163
 11
1.74344
 21
100.948
  0
LINE
  8
0
 10
1.74344
 20
100.948
 11
1.7858
 21
100.726
  0
LINE
  8
0
 10
1.7858
 20
100.726
 11
1.79999
 21
100.5
  0
LINE
  8
0
 10
1.79999
 20
100.5
 11
1.7858
 21
100.274
  0
LINE
  8
0
 10
1.7858
 20
100.274
 11
1.74344
 21
100.052
  0
LINE
  8
0
 10
1.74344
 20
100.052
 11
1.67358
 21
99.8374
  0
LINE
  8
0
 10
1.67358
 20
99.8374
 11
1.57735
 21
99.6329
  0
LINE
  8
0
 10
1.57735
 20
99.6329
 11
1.45622
 21
99.442
  0
LINE
  8
0
 10
1.45622
 20
99.442
 11
1.31213
 21
99.2678
  0
LINE
  8
0
 10
1.31213
 20
99.2678
 11
1.14735
 21
99.1131
  0
LINE
  8
0
 10
1.14735
 20
99.1131
 11
0.964478
 21
98.9802
  0
LINE
  8
0
 10
0.964478
 20
98.9802
 11
0.766388
 21
98.8713
  0
LINE
  8
0
 10
0.766388
 20
98.8713
 11
0.556229
 21
98.7881
  0
LINE
  8
0
 10
0.556229
 20
98.7881
 11
0.33728
 21
98.7319
  0
LINE
  8
0
 10
0.33728
 20
98.7319
 11
0.113022
 21
98.7036
  0
LINE
  8
0
 10
0.113022
 20
98.7036
 11
-0.113022
 21
98.7036
  0
LINE
  8
0
 10
-0.194641
 20
89.9061
 11
-0.580872
 21
89.9549
  0
LINE
  8
0
 10
-0.580872
 20
89.9549
 11
-0.957947
 21
90.0517
  0
LINE
  8
0
 10
-0.957947
 20
90.0517
 11
-1.3199
 21
90.195
  0
LINE
  8
0
 10
-1.3199
 20
90.195
 11
-1.66106
 21
90.3826
  0
LINE
  8
0
 10
-1.66106
 20
90.3826
 11
-1.97601
 21
90.6114
  0
LINE
  8
0
 10
-1.97601
 20
90.6114
 11
-2.2598
 21
90.8779
  0
LINE
  8
0
 10
-2.2598
 20
90.8779
 11
-2.50795
 21
91.1779
  0
LINE
  8
0
 10
-2.50795
 20
91.1779
 11
-2.71654
 21
91.5066
  0
LINE
  8
0
 10
-2.71654
 20
91.5066
 11
-2.88229
 21
91.8588
  0
LINE
  8
0
 10
-2.88229
 20
91.8588
 11
-3.00259
 21
92.2291
  0
LINE
  8
0
 10
-3.00259
 20
92.2291
 11
-3.07555
 21
92.6115
  0
LINE
  8
0
 10
-3.07555
 20
92.6115
 11
-3.09999
 21
93
  0
LINE
  8
0
 10
-3.09999
 20
93
 11
-3.07555
 21
93.3885
  0
LINE
  8
0
 10
-3.07555
 20
93.3885
 11
-3.00259
 21
93.771
  0
LINE
  8
0
 10
-3.00259
 20
93.771
 11
-2.88229
 21
94.1412
  0
LINE
  8
0
 10
-2.88229
 20
94.1412
 11
-2.71654
 21
94.4934
  0
LINE
  8
0
 10
-2.71654
 20
94.4934
 11
-2.50795
 21
94.8221
  0
LINE
  8
0
 10
-2.50795
 20
94.8221
 11
-2.2598
 21
95.1221
  0
LINE
  8
0
 10
-2.2598
 20
95.1221
 11
-1.97601
 21
95.3886
  0
LINE
  8
0
 10
-1.97601
 20
95.3886
 11
-1.66106
 21
95.6174
  0
LINE
  8
0
 10
-1.66106
 20
95.6174
 11
-1.3199
 21
95.805
  0
LINE
  8
0
 10
-1.3199
 20
95.805
 11
-0.957947
 21
95.9483
  0
LINE
  8
0
 10
-0.957947
 20
95.9483
 11
-0.580872
 21
96.0451
  0
LINE
  8
0
 10
-0.580872
 20
96.0451
 11
-0.194641
 21
96.0939
  0
LINE
  8
0
 10
-0.194641
 20
96.0939
 11
0.194641
 21
96.0939
  0
LINE
  8
0
 10
0.194641
 20
96.0939
 11
0.580872
 21
96.0451
  0
LINE
  8
0
 10
0.580872
 20
96.0451
 11
0.957947
 21
95.9483
  0
LINE
  8
0
 10
0.957947
 20
95.9483
 11
1.3199
 21
95.805
  0
LINE
  8
0
 10
1.3199
 20
95.805
 11
1.66106
 21
95.6174
  0
LINE
  8
0
 10
1.66106
 20
95.6174
 11
1.97601
 21
95.3886
  0
LINE
  8
0
 10
1.97601
 20
95.3886
 11
2.2598
 21
95.1221
  0
LINE
  8
0
 10
2.2598
 20
95.1221
 11
2.50795
 21
94.8221
  0
LINE
  8
0
 10
2.50795
 20
94.8221
 11
2.71654
 21
94.4934
  0
LINE
  8
0
 10
2.71654
 20
94.4934
 11
2.88229
 21
94.1412
  0
LINE
  8
0
 10
2.88229
 20
94.1412
 11
3.00259
 21
93.771
  0
LINE
  8
0
 10
3.00259
 20
93.771
 11
3.07555
 21
93.3885
  0
LINE
  8
0
 10
3.07555
 20
93.3885
 11
3.09999
 21
93
  0
LINE
  8
0
 10
3.09999
 20
93
 11
3.07555
 21
92.6115
  0
LINE
  8
0
 10
3.07555
 20
92.6115
 11
3.00259
 21
92.2291
  0
LINE
  8
0
 10
3.00259
 20
92.2291
 11
2.88229
 21
91.8588
  0
LINE
  8
0
 10
2.88229
 20
91.8588
 11
2.71654
 21
91.5066
  0
LINE
  8
0
 10
2.71654
 20
91.5066
 11
2.50795
 21
91.1779
  0
LINE
  8
0
 10
2.50795
 20
91.1779
 11
2.2598
 21
90.8779
  0
LINE
  8
0
 10
2.2598
 20
90.8779
 11
1.97601
 21
90.6114
  0
LINE
  8
0
 10
1.97601
 20
90.6114
 11
1.66106
 21
90.3826
  0
LINE
  8
0
 10
1.66106
 20
90.3826
 11
1.3199
 21
90.195
  0
LINE
  8
0
 10
1.3199
 20
90.195
 11
0.957947
 21
90.0517
  0
LINE
  8
0
 10
0.957947
 20
90.0517
 11
0.580872
 21
89.9549
  0
LINE
  8
0
 10
0.580872
 20
89.9549
 11
0.194641
 21
89.9061
  0
LINE
  8
0
 10
0.194641
 20
89.9061
 11
-0.194641
 21
89.9061
  0
LINE
  8
0
 10
52.9369
 20
32.0886
 11
53.5451
 21
32.2447
  0
LINE
  8
0
 10
53.5451
 20
32.2447
 11
54.1289
 21
32.4759
  0
LINE
  8
0
 10
54.1289
 20
32.4759
 11
54.6791
 21
32.7784
  0
LINE
  8
0
 10
54.6791
 20
32.7784
 11
55.1871
 21
33.1474
  0
LINE
  8
0
 10
55.1871
 20
33.1474
 11
55.6448
 21
33.5773
  0
LINE
  8
0
 10
55.6448
 20
33.5773
 11
56.0451
 21
34.0611
  0
LINE
  8
0
 10
56.0451
 20
34.0611
 11
56.3815
 21
34.5912
  0
LINE
  8
0
 10
56.3815
 20
34.5912
 11
56.6489
 21
35.1594
  0
LINE
  8
0
 10
56.6489
 20
35.1594
 11
56.8429
 21
35.7566
  0
LINE
  8
0
 10
56.8429
 20
35.7566
 11
56.9606
 21
36.3733
  0
LINE
  8
0
 10
56.9606
 20
36.3733
 11
57
 21
37
  0
LINE
  8
0
 10
57
 20
37
 11
57
 21
71
  0
LINE
  8
0
 10
57
 20
71
 11
56.9606
 21
71.6267
  0
LINE
  8
0
 10
56.9606
 20
71.6267
 11
56.8429
 21
72.2434
  0
LINE
  8
0
 10
56.8429
 20
72.2434
 11
56.6489
 21
72.8406
  0
LINE
  8
0
 10
56.6489
 20
72.8406
 11
56.3815
 21
73.4088
  0
LINE
  8
0
 10
56.3815
 20
73.4088
 11
56.0451
 21
73.9389
  0
LINE
  8
0
 10
56.0451
 20
73.9389
 11
55.6448
 21
74.4227
  0
LINE
  8
0
 10
55.6448
 20
74.4227
 11
55.1871
 21
74.8526
  0
LINE
  8
0
 10
55.1871
 20
74.8526
 11
54.6791
 21
75.2216
  0
LINE
  8
0
 10
54.6791
 20
75.2216
 11
54.1289
 21
75.5241
  0
LINE
  8
0
 10
54.1289
 20
75.5241
 11
53.5451
 21
75.7553
  0
LINE
  8
0
 10
53.5451
 20
75.7553
 11
52.9369
 21
75.9114
  0
LINE
  8
0
 10
52.9369
 20
75.9114
 11
52.3139
 21
75.9901
  0
LINE
  8
0
 10
52.3139
 20
75.9901
 11
47.686
 21
75.9901
  0
LINE
  8
0
 10
47.686
 20
75.9901
 11
47.0631
 21
75.9114
  0
LINE
  8
0
 10
47.0631
 20
75.9114
 11
46.4549
 21
75.7553
  0
LINE
  8
0
 10
46.4549
 20
75.7553
 11
45.8711
 21
75.5241
  0
LINE
  8
0
 10
45.8711
 20
75.5241
 11
45.3209
 21
75.2216
  0
LINE
  8
0
 10
45.3209
 20
75.2216
 11
44.8129
 21
74.8526
  0
LINE
  8
0
 10
44.8129
 20
74.8526
 11
44.3551
 21
74.4227
  0
LINE
  8
0
 10
44.3551
 20
74.4227
 11
43.9549
 21
73.9389
  0
LINE
  8
0
 10
43.9549
 20
73.9389
 11
43.6185
 21
73.4088
  0
LINE
  8
0
 10
43.6185
 20
73.4088
 11
43.3511
 21
72.8406
  0
LINE
  8
0
 10
43.3511
 20
72.8406
 11
43.1571
 21
72.2434
  0
LINE
  8
0
 10
43.1571
 20
72.2434
 11
43.0394
 21
71.6267
  0
LINE
  8
0
 10
43.0394
 20
71.6267
 11
43
 21
71
  0
LINE
  8
0
 10
43
 20
71
 11
43
 21
37
  0
LINE
  8
0
 10
43
 20
37
 11
43.0394
 21
36.3733
  0
LINE
  8
0
 10
43.0394
 20
36.3733
 11
43.1571
 21
35.7566
  0
LINE
  8
0
 10
43.1571
 20
35.7566
 11
43.3511
 21
35.1594
  0
LINE
  8
0
 10
43.3511
 20
35.1594
 11
43.6185
 21
34.5912
  0
LINE
  8
0
 10
43.6185
 20
34.5912
 11
43.9549
 21
34.0611
  0
LINE
  8
0
 10
43.9549
 20
34.0611
 11
44.3551
 21
33.5773
  0
LINE
  8
0
 10
44.3551
 20
33.5773
 11
44.8129
 21
33.1474
  0
LINE
  8
0
 10
44.8129
 20
33.1474
 11
45.3209
 21
32.7784
  0
LINE
  8
0
 10
45.3209
 20
32.7784
 11
45.8711
 21
32.4759
  0
LINE
  8
0
 10
45.8711
 20
32.4759
 11
46.4549
 21
32.2447
  0
LINE
  8
0
 10
46.4549
 20
32.2447
 11
47.0631
 21
32.0886
  0
LINE
  8
0
 10
47.0631
 20
32.0886
 11
47.686
 21
32.0099
  0
LINE
  8
0
 10
47.686
 20
32.0099
 11
52.3139
 21
32.0099
  0
LINE
  8
0
 10
52.3139
 20
32.0099
 11
52.9369
 21
32.0886
  0
LINE
  8
0
 10
49.8116
 20
66.0059
 11
49.4379
 21
66.0531
  0
LINE
  8
0
 10
49.4379
 20
66.0531
 11
49.0729
 21
66.1468
  0
LINE
  8
0
 10
49.0729
 20
66.1468
 11
48.7227
 21
66.2855
  0
LINE
  8
0
 10
48.7227
 20
66.2855
 11
48.3925
 21
66.467
  0
LINE
  8
0
 10
48.3925
 20
66.467
 11
48.0877
 21
66.6884
  0
LINE
  8
0
 10
48.0877
 20
66.6884
 11
47.8131
 21
66.9464
  0
LINE
  8
0
 10
47.8131
 20
66.9464
 11
47.5729
 21
67.2366
  0
LINE
  8
0
 10
47.5729
 20
67.2366
 11
47.3711
 21
67.5547
  0
LINE
  8
0
 10
47.3711
 20
67.5547
 11
47.2107
 21
67.8956
  0
LINE
  8
0
 10
47.2107
 20
67.8956
 11
47.0942
 21
68.2539
  0
LINE
  8
0
 10
47.0942
 20
68.2539
 11
47.0237
 21
68.624
  0
LINE
  8
0
 10
47.0237
 20
68.624
 11
47
 21
69
  0
LINE
  8
0
 10
47
 20
69
 11
47.0237
 21
69.376
  0
LINE
  8
0
 10
47.0237
 20
69.376
 11
47.0942
 21
69.7461
  0
LINE
  8
0
 10
47.0942
 20
69.7461
 11
47.2107
 21
70.1044
  0
LINE
  8
0
 10
47.2107
 20
70.1044
 11
47.3711
 21
70.4453
  0
LINE
  8
0
 10
47.3711
 20
70.4453
 11
47.5729
 21
70.7634
  0
LINE
  8
0
 10
47.5729
 20
70.7634
 11
47.8131
 21
71.0536
  0
LINE
  8
0
 10
47.8131
 20
71.0536
 11
48.0877
 21
71.3115
  0
LINE
  8
0
 10
48.0877
 20
71.3115
 11
48.3925
 21
71.533
  0
LINE
  8
0
 10
48.3925
 20
71.533
 11
48.7227
 21
71.7145
  0
LINE
  8
0
 10
48.7227
 20
71.7145
 11
49.0729
 21
71.8532
  0
LINE
  8
0
 10
49.0729
 20
71.8532
 11
49.4379
 21
71.9469
  0
LINE
  8
0
 10
49.4379
 20
71.9469
 11
49.8116
 21
71.9941
  0
LINE
  8
0
 10
49.8116
 20
71.9941
 11
50.1884
 21
71.9941
  0
LINE
  8
0
 10
50.1884
 20
71.9941
 11
50.5621
 21
71.9469
  0
LINE
  8
0
 10
50.5621
 20
71.9469
 11
50.927
 21
71.8532
  0
LINE
  8
0
 10
50.927
 20
71.8532
 11
51.2773
 21
71.7145
  0
LINE
  8
0
 10
51.2773
 20
71.7145
 11
51.6075
 21
71.533
  0
LINE
  8
0
 10
51.6075
 20
71.533
 11
51.9123
 21
71.3115
  0
LINE
  8
0
 10
51.9123
 20
71.3115
 11
52.1869
 21
71.0536
  0
LINE
  8
0
 10
52.1869
 20
71.0536
 11
52.427
 21
70.7634
  0
LINE
  8
0
 10
52.427
 20
70.7634
 11
52.6289
 21
70.4453
  0
LINE
  8
0
 10
52.6289
 20
70.4453
 11
52.7893
 21
70.1044
  0
LINE
  8
0
 10
52.7893
 20
70.1044
 11
52.9057
 21
69.7461
  0
LINE
  8
0
 10
52.9057
 20
69.7461
 11
52.9763
 21
69.376
  0
LINE
  8
0
 10
52.9763
 20
69.376
 11
53
 21
69
  0
LINE
  8
0
 10
53
 20
69
 11
52.9763
 21
68.624
  0
LINE
  8
0
 10
52.9763
 20
68.624
 11
52.9057
 21
68.2539
  0
LINE
  8
0
 10
52.9057
 20
68.2539
 11
52.7893
 21
67.8956
  0
LINE
  8
0
 10
52.7893
 20
67.8956
 11
52.6289
 21
67.5547
  0
LINE
  8
0
 10
52.6289
 20
67.5547
 11
52.427
 21
67.2366
  0
LINE
  8
0
 10
52.427
 20
67.2366
 11
52.1869
 21
66.9464
  0
LINE
  8
0
 10
52.1869
 20
66.9464
 11
51.9123
 21
66.6884
  0
LINE
  8
0
 10
51.9123
 20
66.6884
 11
51.6075
 21
66.467
  0
LINE
  8
0
 10
51.6075
 20
66.467
 11
51.2773
 21
66.2855
  0
LINE
  8
0
 10
51.2773
 20
66.2855
 11
50.927
 21
66.1468
  0
LINE
  8
0
 10
50.927
 20
66.1468
 11
50.5621
 21
66.0531
  0
LINE
  8
0
 10
50.5621
 20
66.0531
 11
50.1884
 21
66.0059
  0
LINE
  8
0
 10
50.1884
 20
66.0059
 11
49.8116
 21
66.0059
  0
LINE
  8
0
 10
49.8526
 20
59.1576
 11
49.5602
 21
59.1945
  0
LINE
  8
0
 10
49.5602
 20
59.1945
 11
49.2747
 21
59.2678
  0
LINE
  8
0
 10
49.2747
 20
59.2678
 11
49.0007
 21
59.3763
  0
LINE
  8
0
 10
49.0007
 20
59.3763
 11
48.7424
 21
59.5183
  0
LINE
  8
0
 10
48.7424
 20
59.5183
 11
48.5039
 21
59.6916
  0
LINE
  8
0
 10
48.5039
 20
59.6916
 11
48.2891
 21
59.8933
  0
LINE
  8
0
 10
48.2891
 20
59.8933
 11
48.1012
 21
60.1204
  0
LINE
  8
0
 10
48.1012
 20
60.1204
 11
47.9433
 21
60.3693
  0
LINE
  8
0
 10
47.9433
 20
60.3693
 11
47.8177
 21
60.636
  0
LINE
  8
0
 10
47.8177
 20
60.636
 11
47.7267
 21
60.9163
  0
LINE
  8
0
 10
47.7267
 20
60.9163
 11
47.6714
 21
61.2058
  0
LINE
  8
0
 10
47.6714
 20
61.2058
 11
47.6529
 21
61.5
  0
LINE
  8
0
 10
47.6529
 20
61.5
 11
47.6714
 21
61.7942
  0
LINE
  8
0
 10
47.6714
 20
61.7942
 11
47.7267
 21
62.0837
  0
LINE
  8
0
 10
47.7267
 20
62.0837
 11
47.8177
 21
62.364
  0
LINE
  8
0
 10
47.8177
 20
62.364
 11
47.9433
 21
62.6307
  0
LINE
  8
0
 10
47.9433
 20
62.6307
 11
48.1012
 21
62.8796
  0
LINE
  8
0
 10
48.1012
 20
62.8796
 11
48.2891
 21
63.1067
  0
LINE
  8
0
 10
48.2891
 20
63.1067
 11
48.5039
 21
63.3084
  0
LINE
  8
0
 10
48.5039
 20
63.3084
 11
48.7424
 21
63.4817
  0
LINE
  8
0
 10
48.7424
 20
63.4817
 11
49.0007
 21
63.6237
  0
LINE
  8
0
 10
49.0007
 20
63.6237
 11
49.2747
 21
63.7322
  0
LINE
  8
0
 10
49.2747
 20
63.7322
 11
49.5602
 21
63.8055
  0
LINE
  8
0
 10
49.5602
 20
63.8055
 11
49.8526
 21
63.8424
  0
LINE
  8
0
 10
49.8526
 20
63.8424
 11
50.1474
 21
63.8424
  0
LINE
  8
0
 10
50.1474
 20
63.8424
 11
50.4398
 21
63.8055
  0
LINE
  8
0
 10
50.4398
 20
63.8055
 11
50.7253
 21
63.7322
  0
LINE
  8
0
 10
50.7253
 20
63.7322
 11
50.9993
 21
63.6237
  0
LINE
  8
0
 10
50.9993
 20
63.6237
 11
51.2576
 21
63.4817
  0
LINE
  8
0
 10
51.2576
 20
63.4817
 11
51.4961
 21
63.3084
  0
LINE
  8
0
 10
51.4961
 20
63.3084
 11
51.7109
 21
63.1067
  0
LINE
  8
0
 10
51.7109
 20
63.1067
 11
51.8988
 21
62.8796
  0
LINE
  8
0
 10
51.8988
 20
62.8796
 11
52.0567
 21
62.6307
  0
LINE
  8
0
 10
52.0567
 20
62.6307
 11
52.1822
 21
62.364
  0
LINE
  8
0
 10
52.1822
 20
62.364
 11
52.2733
 21
62.0837
  0
LINE
  8
0
 10
52.2733
 20
62.0837
 11
52.3286
 21
61.7942
  0
LINE
  8
0
 10
52.3286
 20
61.7942
 11
52.347
 21
61.5
  0
LINE
  8
0
 10
52.347
 20
61.5
 11
52.3286
 21
61.2058
  0
LINE
  8
0
 10
52.3286
 20
61.2058
 11
52.2733
 21
60.9163
  0
LINE
  8
0
 10
52.2733
 20
60.9163
 11
52.1822
 21
60.636
  0
LINE
  8
0
 10
52.1822
 20
60.636
 11
52.0567
 21
60.3693
  0
LINE
  8
0
 10
52.0567
 20
60.3693
 11
51.8988
 21
60.1204
  0
LINE
  8
0
 10
51.8988
 20
60.1204
 11
51.7109
 21
59.8933
  0
LINE
  8
0
 10
51.7109
 20
59.8933
 11
51.4961
 21
59.6916
  0
LINE
  8
0
 10
51.4961
 20
59.6916
 11
51.2576
 21
59.5183
  0
LINE
  8
0
 10
51.2576
 20
59.5183
 11
50.9993
 21
59.3763
  0
LINE
  8
0
 10
50.9993
 20
59.3763
 11
50.7253
 21
59.2678
  0
LINE
  8
0
 10
50.7253
 20
59.2678
 11
50.4398
 21
59.1945
  0
LINE
  8
0
 10
50.4398
 20
59.1945
 11
50.1474
 21
59.1576
  0
LINE
  8
0
 10
50.1474
 20
59.1576
 11
49.8526
 21
59.1576
  0
LINE
  8
0
 10
49.8526
 20
44.1576
 11
49.5602
 21
44.1945
  0
LINE
  8
0
 10
49.5602
 20
44.1945
 11
49.2747
 21
44.2678
  0
LINE
  8
0
 10
49.2747
 20
44.2678
 11
49.0007
 21
44.3763
  0
LINE
  8
0
 10
49.0007
 20
44.3763
 11
48.7424
 21
44.5183
  0
LINE
  8
0
 10
48.7424
 20
44.5183
 11
48.5039
 21
44.6916
  0
LINE
  8
0
 10
48.5039
 20
44.6916
 11
48.2891
 21
44.8933
  0
LINE
  8
0
 10
48.2891
 20
44.8933
 11
48.1012
 21
45.1204
  0
LINE
  8
0
 10
48.1012
 20
45.1204
 11
47.9433
 21
45.3693
  0
LINE
  8
0
 10
47.9433
 20
45.3693
 11
47.8177
 21
45.636
  0
LINE
  8
0
 10
47.8177
 20
45.636
 11
47.7267
 21
45.9163
  0
LINE
  8
0
 10
47.7267
 20
45.9163
 11
47.6714
 21
46.2058
  0
LINE
  8
0
 10
47.6714
 20
46.2058
 11
47.6529
 21
46.5
  0
LINE
  8
0
 10
47.6529
 20
46.5
 11
47.6714
 21
46.7942
  0
LINE
  8
0
 10
47.6714
 20
46.7942
 11
47.7267
 21
47.0837
  0
LINE
  8
0
 10
47.7267
 20
47.0837
 11
47.8177
 21
47.364
  0
LINE
  8
0
 10
47.8177
 20
47.364
 11
47.9433
 21
47.6307
  0
LINE
  8
0
 10
47.9433
 20
47.6307
 11
48.1012
 21
47.8796
  0
LINE
  8
0
 10
48.1012
 20
47.8796
 11
48.2891
 21
48.1067
  0
LINE
  8
0
 10
48.2891
 20
48.1067
 11
48.5039
 21
48.3084
  0
LINE
  8
0
 10
48.5039
 20
48.3084
 11
48.7424
 21
48.4817
  0
LINE
  8
0
 10
48.7424
 20
48.4817
 11
49.0007
 21
48.6237
  0
LINE
  8
0
 10
49.0007
 20
48.6237
 11
49.2747
 21
48.7322
  0
LINE
  8
0
 10
49.2747
 20
48.7322
 11
49.5602
 21
48.8055
  0
LINE
  8
0
 10
49.5602
 20
48.8055
 11
49.8526
 21
48.8424
  0
LINE
  8
0
 10
49.8526
 20
48.8424
 11
50.1474
 21
48.8424
  0
LINE
  8
0
 10
50.1474
 20
48.8424
 11
50.4398
 21
48.8055
  0
LINE
  8
0
 10
50.4398
 20
48.8055
 11
50.7253
 21
48.7322
  0
LINE
  8
0
 10
50.7253
 20
48.7322
 11
50.9993
 21
48.6237
  0
LINE
  8
0
 10
50.9993
 20
48.6237
 11
51.2576
 21
48.4817
  0
LINE
  8
0
 10
51.2576
 20
48.4817
 11
51.4961
 21
48.3084
  0
LINE
  8
0
 10
51.4961
 20
48.3084
 11
51.7109
 21
48.1067
  0
LINE
  8
0
 10
51.7109
 20
48.1067
 11
51.8988
 21
47.8796
  0
LINE
  8
0
 10
51.8988
 20
47.8796
 11
52.0567
 21
47.6307
  0
LINE
  8
0
 10
52.0567
 20
47.6307
 11
52.1822
 21
47.364
  0
LINE
  8
0
 10
52.1822
 20
47.364
 11
52.2733
 21
47.0837
  0
LINE
  8
0
 10
52.2733
 20
47.0837
 11
52.3286
 21
46.7942
  0
LINE
  8
0
 10
52.3286
 20
46.7942
 11
52.347
 21
46.5
  0
LINE
  8
0
 10
52.347
 20
46.5
 11
52.3286
 21
46.2058
  0
LINE
  8
0
 10
52.3286
 20
46.2058
 11
52.2733
 21
45.9163
  0
LINE
  8
0
 10
52.2733
 20
45.9163
 11
52.1822
 21
45.636
  0
LINE
  8
0
 10
52.1822
 20
45.636
 11
52.0567
 21
45.3693
  0
LINE
  8
0
 10
52.0567
 20
45.3693
 11
51.8988
 21
45.1204
  0
LINE
  8
0
 10
51.8988
 20
45.1204
 11
51.7109
 21
44.8933
  0
LINE
  8
0
 10
51.7109
 20
44.8933
 11
51.4961
 21
44.6916
  0
LINE
  8
0
 10
51.4961
 20
44.6916
 11
51.2576
 21
44.5183
  0
LINE
  8
0
 10
51.2576
 20
44.5183
 11
50.9993
 21
44.3763
  0
LINE
  8
0
 10
50.9993
 20
44.3763
 11
50.7253
 21
44.2678
  0
LINE
  8
0
 10
50.7253
 20
44.2678
 11
50.4398
 21
44.1945
  0
LINE
  8
0
 10
50.4398
 20
44.1945
 11
50.1474
 21
44.1576
  0
LINE
  8
0
 10
50.1474
 20
44.1576
 11
49.8526
 21
44.1576
  0
LINE
  8
0
 10
49.8116
 20
36.0059
 11
49.4379
 21
36.0531
  0
LINE
  8
0
 10
49.4379
 20
36.0531
 11
49.0729
 21
36.1468
  0
LINE
  8
0
 10
49.0729
 20
36.1468
 11
48.7227
 21
36.2855
  0
LINE
  8
0
 10
48.7227
 20
36.2855
 11
48.3925
 21
36.467
  0
LINE
  8
0
 10
48.3925
 20
36.467
 11
48.0877
 21
36.6885
  0
LINE
  8
0
 10
48.0877
 20
36.6885
 11
47.8131
 21
36.9464
  0
LINE
  8
0
 10
47.8131
 20
36.9464
 11
47.5729
 21
37.2366
  0
LINE
  8
0
 10
47.5729
 20
37.2366
 11
47.3711
 21
37.5547
  0
LINE
  8
0
 10
47.3711
 20
37.5547
 11
47.2107
 21
37.8956
  0
LINE
  8
0
 10
47.2107
 20
37.8956
 11
47.0942
 21
38.2539
  0
LINE
  8
0
 10
47.0942
 20
38.2539
 11
47.0237
 21
38.624
  0
LINE
  8
0
 10
47.0237
 20
38.624
 11
47
 21
39
  0
LINE
  8
0
 10
47
 20
39
 11
47.0237
 21
39.376
  0
LINE
  8
0
 10
47.0237
 20
39.376
 11
47.0942
 21
39.7461
  0
LINE
  8
0
 10
47.0942
 20
39.7461
 11
47.2107
 21
40.1044
  0
LINE
  8
0
 10
47.2107
 20
40.1044
 11
47.3711
 21
40.4453
  0
LINE
  8
0
 10
47.3711
 20
40.4453
 11
47.5729
 21
40.7634
  0
LINE
  8
0
 10
47.5729
 20
40.7634
 11
47.8131
 21
41.0536
  0
LINE
  8
0
 10
47.8131
 20
41.0536
 11
48.0877
 21
41.3116
  0
LINE
  8
0
 10
48.0877
 20
41.3116
 11
48.3925
 21
41.533
  0
LINE
  8
0
 10
48.3925
 20
41.533
 11
48.7227
 21
41.7145
  0
LINE
  8
0
 10
48.7227
 20
41.7145
 11
49.0729
 21
41.8532
  0
LINE
  8
0
 10
49.0729
 20
41.8532
 11
49.4379
 21
41.9469
  0
LINE
  8
0
 10
49.4379
 20
41.9469
 11
49.8116
 21
41.9941
  0
LINE
  8
0
 10
49.8116
 20
41.9941
 11
50.1884
 21
41.9941
  0
LINE
  8
0
 10
50.1884
 20
41.9941
 11
50.5621
 21
41.9469
  0
LINE
  8
0
 10
50.5621
 20
41.9469
 11
50.927
 21
41.8532
  0
LINE
  8
0
 10
50.927
 20
41.8532
 11
51.2773
 21
41.7145
  0
LINE
  8
0
 10
51.2773
 20
41.7145
 11
51.6075
 21
41.533
  0
LINE
  8
0
 10
51.6075
 20
41.533
 11
51.9123
 21
41.3116
  0
LINE
  8
0
 10
51.9123
 20
41.3116
 11
52.1869
 21
41.0536
  0
LINE
  8
0
 10
52.1869
 20
41.0536
 11
52.427
 21
40.7634
  0
LINE
  8
0
 10
52.427
 20
40.7634
 11
52.6289
 21
40.4453
  0
LINE
  8
0
 10
52.6289
 20
40.4453
 11
52.7893
 21
40.1044
  0
LINE
  8
0
 10
52.7893
 20
40.1044
 11
52.9057
 21
39.7461
  0
LINE
  8
0
 10
52.9057
 20
39.7461
 11
52.9763
 21
39.376
  0
LINE
  8
0
 10
52.9763
 20
39.376
 11
53
 21
39
  0
LINE
  8
0
 10
53
 20
39
 11
52.9763
 21
38.624
  0
LINE
  8
0
 10
52.9763
 20
38.624
 11
52.9057
 21
38.2539
  0
LINE
  8
0
 10
52.9057
 20
38.2539
 11
52.7893
 21
37.8956
  0
LINE
  8
0
 10
52.7893
 20
37.8956
 11
52.6289
 21
37.5547
  0
LINE
  8
0
 10
52.6289
 20
37.5547
 11
52.427
 21
37.2366
  0
LINE
  8
0
 10
52.427
 20
37.2366
 11
52.1869
 21
36.9464
  0
LINE
  8
0
 10
52.1869
 20
36.9464
 11
51.9123
 21
36.6885
  0
LINE
  8
0
 10
51.9123
 20
36.6885
 11
51.6075
 21
36.467
  0
LINE
  8
0
 10
51.6075
 20
36.467
 11
51.2773
 21
36.2855
  0
LINE
  8
0
 10
51.2773
 20
36.2855
 11
50.927
 21
36.1468
  0
LINE
  8
0
 10
50.927
 20
36.1468
 11
50.5621
 21
36.0531
  0
LINE
  8
0
 10
50.5621
 20
36.0531
 11
50.1884
 21
36.0059
  0
LINE
  8
0
 10
50.1884
 20
36.0059
 11
49.8116
 21
36.0059
  0
LINE
  8
0
 10
2.9369
 20
32.0886
 11
3.54507
 21
32.2447
  0
LINE
  8
0
 10
3.54507
 20
32.2447
 11
4.12889
 21
32.4759
  0
LINE
  8
0
 10
4.12889
 20
32.4759
 11
4.67912
 21
32.7784
  0
LINE
  8
0
 10
4.67912
 20
32.7784
 11
5.18712
 21
33.1474
  0
LINE
  8
0
 10
5.18712
 20
33.1474
 11
5.64484
 21
33.5773
  0
LINE
  8
0
 10
5.64484
 20
33.5773
 11
6.04507
 21
34.0611
  0
LINE
  8
0
 10
6.04507
 20
34.0611
 11
6.38153
 21
34.5912
  0
LINE
  8
0
 10
6.38153
 20
34.5912
 11
6.64888
 21
35.1594
  0
LINE
  8
0
 10
6.64888
 20
35.1594
 11
6.84291
 21
35.7566
  0
LINE
  8
0
 10
6.84291
 20
35.7566
 11
6.96057
 21
36.3733
  0
LINE
  8
0
 10
6.96057
 20
36.3733
 11
7
 21
37
  0
LINE
  8
0
 10
7
 20
37
 11
7
 21
71
  0
LINE
  8
0
 10
7
 20
71
 11
6.96057
 21
71.6267
  0
LINE
  8
0
 10
6.96057
 20
71.6267
 11
6.84291
 21
72.2434
  0
LINE
  8
0
 10
6.84291
 20
72.2434
 11
6.64888
 21
72.8406
  0
LINE
  8
0
 10
6.64888
 20
72.8406
 11
6.38153
 21
73.4088
  0
LINE
  8
0
 10
6.38153
 20
73.4088
 11
6.04507
 21
73.9389
  0
LINE
  8
0
 10
6.04507
 20
73.9389
 11
5.64484
 21
74.4227
  0
LINE
  8
0
 10
5.64484
 20
74.4227
 11
5.18712
 21
74.8526
  0
LINE
  8
0
 10
5.18712
 20
74.8526
 11
4.67912
 21
75.2216
  0
LINE
  8
0
 10
4.67912
 20
75.2216
 11
4.12889
 21
75.5241
  0
LINE
  8
0
 10
4.12889
 20
75.5241
 11
3.54507
 21
75.7553
  0
LINE
  8
0
 10
3.54507
 20
75.7553
 11
2.9369
 21
75.9114
  0
LINE
  8
0
 10
2.9369
 20
75.9114
 11
2.31395
 21
75.9901
  0
LINE
  8
0
 10
2.31395
 20
75.9901
 11
-2.31395
 21
75.9901
  0
LINE
  8
0
 10
-2.31395
 20
75.9901
 11
-2.9369
 21
75.9114
  0
LINE
  8
0
 10
-2.9369
 20
75.9114
 11
-3.54507
 21
75.7553
  0
LINE
  8
0
 10
-3.54507
 20
75.7553
 11
-4.12889
 21
75.5241
  0
LINE
  8
0
 10
-4.12889
 20
75.5241
 11
-4.67912
 21
75.2216
  0
LINE
  8
0
 10
-4.67912
 20
75.2216
 11
-5.18712
 21
74.8526
  0
LINE
  8
0
 10
-5.18712
 20
74.8526
 11
-5.64484
 21
74.4227
  0
LINE
  8
0
 10
-5.64484
 20
74.4227
 11
-6.04507
 21
73.9389
  0
LINE
  8
0
 10
-6.04507
 20
73.9389
 11
-6.38153
 21
73.4088
  0
LINE
  8
0
 10
-6.38153
 20
73.4088
 11
-6.64888
 21
72.8406
  0
LINE
  8
0
 10
-6.64888
 20
72.8406
 11
-6.84291
 21
72.2434
  0
LINE
  8
0
 10
-6.84291
 20
72.2434
 11
-6.96057
 21
71.6267
  0
LINE
  8
0
 10
-6.96057
 20
71.6267
 11
-7
 21
71
  0
LINE
  8
0
 10
-7
 20
71
 11
-7
 21
37
  0
LINE
  8
0
 10
-7
 20
37
 11
-6.96057
 21
36.3733
  0
LINE
  8
0
 10
-6.96057
 20
36.3733
 11
-6.84291
 21
35.7566
  0
LINE
  8
0
 10
-6.84291
 20
35.7566
 11
-6.64888
 21
35.1594
  0
LINE
  8
0
 10
-6.64888
 20
35.1594
 11
-6.38153
 21
34.5912
  0
LINE
  8
0
 10
-6.38153
 20
34.5912
 11
-6.04507
 21
34.0611
  0
LINE
  8
0
 10
-6.04507
 20
34.0611
 11
-5.64484
 21
33.5773
  0
LINE
  8
0
 10
-5.64484
 20
33.5773
 11
-5.18712
 21
33.1474
  0
LINE
  8
0
 10
-5.18712
 20
33.1474
 11
-4.67912
 21
32.7784
  0
LINE
  8
0
 10
-4.67912
 20
32.7784
 11
-4.12889
 21
32.4759
  0
LINE
  8
0
 10
-4.12889
 20
32.4759
 11
-3.54507
 21
32.2447
  0
LINE
  8
0
 10
-3.54507
 20
32.2447
 11
-2.9369
 21
32.0886
  0
LINE
  8
0
 10
-2.9369
 20
32.0886
 11
-2.31395
 21
32.0099
  0
LINE
  8
0
 10
-2.31395
 20
32.0099
 11
2.31395
 21
32.0099
  0
LINE
  8
0
 10
2.31395
 20
32.0099
 11
2.9369
 21
32.0886
  0
LINE
  8
0
 10
-0.18837
 20
66.0059
 11
-0.562134
 21
66.0531
  0
LINE
  8
0
 10
-0.562134
 20
66.0531
 11
-0.927048
 21
66.1468
  0
LINE
  8
0
 10
-0.927048
 20
66.1468
 11
-1.27733
 21
66.2855
  0
LINE
  8
0
 10
-1.27733
 20
66.2855
 11
-1.60747
 21
66.467
  0
LINE
  8
0
 10
-1.60747
 20
66.467
 11
-1.91226
 21
66.6884
  0
LINE
  8
0
 10
-1.91226
 20
66.6884
 11
-2.1869
 21
66.9464
  0
LINE
  8
0
 10
-2.1869
 20
66.9464
 11
-2.42705
 21
67.2366
  0
LINE
  8
0
 10
-2.42705
 20
67.2366
 11
-2.62891
 21
67.5547
  0
LINE
  8
0
 10
-2.62891
 20
67.5547
 11
-2.78932
 21
67.8956
  0
LINE
  8
0
 10
-2.78932
 20
67.8956
 11
-2.90575
 21
68.2539
  0
LINE
  8
0
 10
-2.90575
 20
68.2539
 11
-2.97633
 21
68.624
  0
LINE
  8
0
 10
-2.97633
 20
68.624
 11
-3
 21
69
  0
LINE
  8
0
 10
-3
 20
69
 11
-2.97633
 21
69.376
  0
LINE
  8
0
 10
-2.97633
 20
69.376
 11
-2.90575
 21
69.7461
  0
LINE
  8
0
 10
-2.90575
 20
69.7461
 11
-2.78932
 21
70.1044
  0
LINE
  8
0
 10
-2.78932
 20
70.1044
 11
-2.62891
 21
70.4453
  0
LINE
  8
0
 10
-2.62891
 20
70.4453
 11
-2.42705
 21
70.7634
  0
LINE
  8
0
 10
-2.42705
 20
70.7634
 11
-2.1869
 21
71.0536
  0
LINE
  8
0
 10
-2.1869
 20
71.0536
 11
-1.91226
 21
71.3115
  0
LINE
  8
0
 10
-1.91226
 20
71.3115
 11
-1.60747
 21
71.533
  0
LINE
  8
0
 10
-1.60747
 20
71.533
 11
-1.27733
 21
71.7145
  0
LINE
  8
0
 10
-1.27733
 20
71.7145
 11
-0.927048
 21
71.8532
  0
LINE
  8
0
 10
-0.927048
 20
71.8532
 11
-0.562134
 21
71.9469
  0
LINE
  8
0
 10
-0.562134
 20
71.9469
 11
-0.18837
 21
71.9941
  0
LINE
  8
0
 10
-0.18837
 20
71.9941
 11
0.18837
 21
71.9941
  0
LINE
  8
0
 10
0.18837
 20
71.9941
 11
0.562134
 21
71.9469
  0
LINE
  8
0
 10
0.562134
 20
71.9469
 11
0.927048
 21
71.8532
  0
LINE
  8
0
 10
0.927048
 20
71.8532
 11
1.27733
 21
71.7145
  0
LINE
  8
0
 10
1.27733
 20
71.7145
 11
1.60747
 21
71.533
  0
LINE
  8
0
 10
1.60747
 20
71.533
 11
1.91226
 21
71.3115
  0
LINE
  8
0
 10
1.91226
 20
71.3115
 11
2.1869
 21
71.0536
  0
LINE
  8
0
 10
2.1869
 20
71.0536
 11
2.42705
 21
70.7634
  0
LINE
  8
0
 10
2.42705
 20
70.7634
 11
2.62891
 21
70.4453
  0
LINE
  8
0
 10
2.62891
 20
70.4453
 11
2.78932
 21
70.1044
  0
LINE
  8
0
 10
2.78932
 20
70.1044
 11
2.90575
 21
69.7461
  0
LINE
  8
0
 10
2.90575
 20
69.7461
 11
2.97633
 21
69.376
  0
LINE
  8
0
 10
2.97633
 20
69.376
 11
3
 21
69
  0
LINE
  8
0
 10
3
 20
69
 11
2.97633
 21
68.624
  0
LINE
  8
0
 10
2.97633
 20
68.624
 11
2.90575
 21
68.2539
  0
LINE
  8
0
 10
2.90575
 20
68.2539
 11
2.78932
 21
67.8956
  0
LINE
  8
0
 10
2.78932
 20
67.8956
 11
2.62891
 21
67.5547
  0
LINE
  8
0
 10
2.62891
 20
67.5547
 11
2.42705
 21
67.2366
  0
LINE
  8
0
 10
2.42705
 20
67.2366
 11
2.1869
 21
66.9464
  0
LINE
  8
0
 10
2.1869
 20
66.9464
 11
1.91226
 21
66.6884
  0
LINE
  8
0
 10
1.91226
 20
66.6884
 11
1.60747
 21
66.467
  0
LINE
  8
0
 10
1.60747
 20
66.467
 11
1.27733
 21
66.2855
  0
LINE
  8
0
 10
1.27733
 20
66.2855
 11
0.927048
 21
66.1468
  0
LINE
  8
0
 10
0.927048
 20
66.1468
 11
0.562134
 21
66.0531
  0
LINE
  8
0
 10
0.562134
 20
66.0531
 11
0.18837
 21
66.0059
  0
LINE
  8
0
 10
0.18837
 20
66.0059
 11
-0.18837
 21
66.0059
  0
LINE
  8
0
 10
-1.58675
 20
58.7517
 11
-3.17349
 21
61.5
  0
LINE
  8
0
 10
-3.17349
 20
61.5
 11
-1.58675
 21
64.2483
  0
LINE
  8
0
 10
-1.58675
 20
64.2483
 11
1.58675
 21
64.2483
  0
LINE
  8
0
 10
1.58675
 20
64.2483
 11
3.17349
 21
61.5
  0
LINE
  8
0
 10
3.17349
 20
61.5
 11
1.58675
 21
58.7517
  0
LINE
  8
0
 10
1.58675
 20
58.7517
 11
-1.58675
 21
58.7517
  0
LINE
  8
0
 10
-1.58675
 20
43.7517
 11
-3.17349
 21
46.5
  0
LINE
  8
0
 10
-3.17349
 20
46.5
 11
-1.58675
 21
49.2483
  0
LINE
  8
0
 10
-1.58675
 20
49.2483
 11
1.58675
 21
49.2483
  0
LINE
  8
0
 10
1.58675
 20
49.2483
 11
3.17349
 21
46.5
  0
LINE
  8
0
 10
3.17349
 20
46.5
 11
1.58675
 21
43.7517
  0
LINE
  8
0
 10
1.58675
 20
43.7517
 11
-1.58675
 21
43.7517
  0
LINE
  8
0
 10
-0.18837
 20
36.0059
 11
-0.562134
 21
36.0531
  0
LINE
  8
0
 10
-0.562134
 20
36.0531
 11
-0.927048
 21
36.1468
  0
LINE
  8
0
 10
-0.927048
 20
36.1468
 11
-1.27733
 21
36.2855
  0
LINE
  8
0
 10
-1.27733
 20
36.2855
 11
-1.60747
 21
36.467
  0
LINE
  8
0
 10
-1.60747
 20
36.467
 11
-1.91226
 21
36.6885
  0
LINE
  8
0
 10
-1.91226
 20
36.6885
 11
-2.1869
 21
36.9464
  0
LINE
  8
0
 10
-2.1869
 20
36.9464
 11
-2.42705
 21
37.2366
  0
LINE
  8
0
 10
-2.42705
 20
37.2366
 11
-2.62891
 21
37.5547
  0
LINE
  8
0
 10
-2.62891
 20
37.5547
 11
-2.78932
 21
37.8956
  0
LINE
  8
0
 10
-2.78932
 20
37.8956
 11
-2.90575
 21
38.2539
  0
LINE
  8
0
 10
-2.90575
 20
38.2539
 11
-2.97633
 21
38.624
  0
LINE
  8
0
 10
-2.97633
 20
38.624
 11
-3
 21
39
  0
LINE
  8
0
 10
-3
 20
39
 11
-2.97633
 21
39.376
  0
LINE
  8
0
 10
-2.97633
 20
39.376
 11
-2.90575
 21
39.7461
  0
LINE
  8
0
 10
-2.90575
 20
39.7461
 11
-2.78932
 21
40.1044
  0
LINE
  8
0
 10
-2.78932
 20
40.1044
 11
-2.62891
 21
40.4453
  0
LINE
  8
0
 10
-2.62891
 20
40.4453
 11
-2.42705
 21
40.7634
  0
LINE
  8
0
 10
-2.42705
 20
40.7634
 11
-2.1869
 21
41.0536
  0
LINE
  8
0
 10
-2.1869
 20
41.0536
 11
-1.91226
 21
41.3116
  0
LINE
  8
0
 10
-1.91226
 20
41.3116
 11
-1.60747
 21
41.533
  0
LINE
  8
0
 10
-1.60747
 20
41.533
 11
-1.27733
 21
41.7145
  0
LINE
  8
0
 10
-1.27733
 20
41.7145
 11
-0.927048
 21
41.8532
  0
LINE
  8
0
 10
-0.927048
 20
41.8532
 11
-0.562134
 21
41.9469
  0
LINE
  8
0
 10
-0.562134
 20
41.9469
 11
-0.18837
 21
41.9941
  0
LINE
  8
0
 10
-0.18837
 20
41.9941
 11
0.18837
 21
41.9941
  0
LINE
  8
0
 10
0.18837
 20
41.9941
 11
0.562134
 21
41.9469
  0
LINE
  8
0
 10
0.562134
 20
41.9469
 11
0.927048
 21
41.8532
  0
LINE
  8
0
 10
0.927048
 20
41.8532
 11
1.27733
 21
41.7145
  0
LINE
  8
0
 10
1.27733
 20
41.7145
 11
1.60747
 21
41.533
  0
LINE
  8
0
 10
1.60747
 20
41.533
 11
1.91226
 21
41.3116
  0
LINE
  8
0
 10
1.91226
 20
41.3116
 11
2.1869
 21
41.0536
  0
LINE
  8
0
 10
2.1869
 20
41.0536
 11
2.42705
 21
40.7634
  0
LINE
  8
0
 10
2.42705
 20
40.7634
 11
2.62891
 21
40.4453
  0
LINE
  8
0
 10
2.62891
 20
40.4453
 11
2.78932
 21
40.1044
  0
LINE
  8
0
 10
2.78932
 20
40.1044
 11
2.90575
 21
39.7461
  0
LINE
  8
0
 10
2.90575
 20
39.7461
 11
2.97633
 21
39.376
  0
LINE
  8
0
 10
2.97633
 20
39.376
 11
3
 21
39
  0
LINE
  8
0
 10
3
 20
39
 11
2.97633
 21
38.624
  0
LINE
  8
0
 10
2.97633
 20
38.624
 11
2.90575
 21
38.2539
  0
LINE
  8
0
 10
2.90575
 20
38.2539
 11
2.78932
 21
37.8956
  0
LINE
  8
0
 10
2.78932
 20
37.8956
 11
2.62891
 21
37.5547
  0
LINE
  8
0
 10
2.62891
 20
37.5547
 11
2.42705
 21
37.2366
  0
LINE
  8
0
 10
2.42705
 20
37.2366
 11
2.1869
 21
36.9464
  0
LINE
  8
0
 10
2.1869
 20
36.9464
 11
1.91226
 21
36.6885
  0
LINE
  8
0
 10
1.91226
 20
36.6885
 11
1.60747
 21
36.467
  0
LINE
  8
0
 10
1.60747
 20
36.467
 11
1.27733
 21
36.2855
  0
LINE
  8
0
 10
1.27733
 20
36.2855
 11
0.927048
 21
36.1468
  0
LINE
  8
0
 10
0.927048
 20
36.1468
 11
0.562134
 21
36.0531
  0
LINE
  8
0
 10
0.562134
 20
36.0531
 11
0.18837
 21
36.0059
  0
LINE
  8
0
 10
0.18837
 20
36.0059
 11
-0.18837
 21
36.0059
  0
ENDSEC
  0
SECTION
  2
OBJECTS
  0
DICTIONARY
  0
ENDSEC
  0
EOF
