<?xml version="1.0" standalone="no"?>
<!DOCTYPE svg PUBLIC "-//W3C//DTD SVG 1.1//EN" "http://www.w3.org/Graphics/SVG/1.1/DTD/svg11.dtd">
<svg width="64mm" height="98mm" viewBox="-7 -130 64 98" xmlns="http://www.w3.org/2000/svg" version="1.1">
<title>OpenSCAD Model</title>
<path d="
M 57,-125 L 56.9606,-125.627 L 56.8429,-126.243 L 56.6489,-126.841 L 56.3815,-127.409 L 56.0451,-127.939
 L 55.6448,-128.423 L 55.1871,-128.853 L 54.6791,-129.222 L 54.1289,-129.524 L 53.5451,-129.755 L 52.9369,-129.911
 L 52.3139,-129.99 L 47.686,-129.99 L 47.0631,-129.911 L 46.4549,-129.755 L 45.8711,-129.524 L 45.3209,-129.222
 L 44.8129,-128.853 L 44.3551,-128.423 L 43.9549,-127.939 L 43.6185,-127.409 L 43.3511,-126.841 L 43.1571,-126.243
 L 43.0394,-125.627 L 43,-125 L 43,-109.318 L 57,-109.318 z
M 49.8116,-120.006 L 49.4379,-120.053 L 49.0729,-120.147 L 48.7227,-120.286 L 48.3925,-120.467 L 48.0877,-120.688
 L 47.8131,-120.946 L 47.5729,-121.237 L 47.3711,-121.555 L 47.2107,-121.896 L 47.0942,-122.254 L 47.0237,-122.624
 L 47,-123 L 47.0237,-123.376 L 47.0942,-123.746 L 47.2107,-124.104 L 47.3711,-124.445 L 47.5729,-124.763
 L 47.8131,-125.054 L 48.0877,-125.312 L 48.3925,-125.533 L 48.7227,-125.714 L 49.0729,-125.853 L 49.4379,-125.947
 L 49.8116,-125.994 L 50.1884,-125.994 L 50.5621,-125.947 L 50.927,-125.853 L 51.2773,-125.714 L 51.6075,-125.533
 L 51.9123,-125.312 L 52.1869,-125.054 L 52.427,-124.763 L 52.6289,-124.445 L 52.7893,-124.104 L 52.9057,-123.746
 L 52.9763,-123.376 L 53,-123 L 52.9763,-122.624 L 52.9057,-122.254 L 52.7893,-121.896 L 52.6289,-121.555
 L 52.427,-121.237 L 52.1869,-120.946 L 51.9123,-120.688 L 51.6075,-120.467 L 51.2773,-120.286 L 50.927,-120.147
 L 50.5621,-120.053 L 50.1884,-120.006 z
M 49.887,-113.704 L 49.6627,-113.732 L 49.4438,-113.788 L 49.2336,-113.871 L 49.0355,-113.98 L 48.8526,-114.113
 L 48.6879,-114.268 L 48.5438,-114.442 L 48.4226,-114.633 L 48.3264,-114.837 L 48.2565,-115.052 L 48.2142,-115.274
 L 48.2,-115.5 L 48.2142,-115.726 L 48.2565,-115.948 L 48.3264,-116.163 L 48.4226,-116.367 L 48.5438,-116.558
 L 48.6879,-116.732 L 48.8526,-116.887 L 49.0355,-117.02 L 49.2336,-117.129 L 49.4438,-117.212 L 49.6627,-117.268
 L 49.887,-117.296 L 50.113,-117.296 L 50.3373,-117.268 L 50.5562,-117.212 L 50.7664,-117.129 L 50.9645,-117.02
 L 51.1474,-116.887 L 51.3121,-116.732 L 51.4562,-116.558 L 51.5773,-116.367 L 51.6736,-116.163 L 51.7434,-115.948
 L 51.7858,-115.726 L 51.8,-115.5 L 51.7858,-115.274 L 51.7434,-115.052 L 51.6736,-114.837 L 51.5773,-114.633
 L 51.4562,-114.442 L 51.3121,-114.268 L 51.1474,-114.113 L 50.9645,-113.98 L 50.7664,-113.871 L 50.5562,-113.788
 L 50.3373,-113.732 L 50.113,-113.704 z
M 7,-125 L 6.96057,-125.627 L 6.84291,-126.243 L 6.64888,-126.841 L 6.38153,-127.409 L 6.04507,-127.939
 L 5.64484,-128.423 L 5.18712,-128.853 L 4.67912,-129.222 L 4.12889,-129.524 L 3.54507,-129.755 L 2.9369,-129.911
 L 2.31395,-129.99 L -2.31395,-129.99 L -2.9369,-129.911 L -3.54507,-129.755 L -4.12889,-129.524 L -4.67912,-129.222
 L -5.18712,-128.853 L -5.64484,-128.423 L -6.04507,-127.939 L -6.38153,-127.409 L -6.64888,-126.841 L -6.84291,-126.243
 L -6.96057,-125.627 L -7,-125 L -7,-109.318 L 7,-109.318 z
M -0.194641,-119.906 L -0.580872,-119.955 L -0.957947,-120.052 L -1.3199,-120.195 L -1.66106,-120.383 L -1.97601,-120.611
 L -2.2598,-120.878 L -2.50795,-121.178 L -2.71654,-121.507 L -2.88229,-121.859 L -3.00259,-122.229 L -3.07555,-122.611
 L -3.09999,-123 L -3.07555,-123.389 L -3.00259,-123.771 L -2.88229,-124.141 L -2.71654,-124.493 L -2.50795,-124.822
 L -2.2598,-125.122 L -1.97601,-125.389 L -1.66106,-125.617 L -1.3199,-125.805 L -0.957947,-125.948 L -0.580872,-126.045
 L -0.194641,-126.094 L 0.194641,-126.094 L 0.580872,-126.045 L 0.957947,-125.948 L 1.3199,-125.805 L 1.66106,-125.617
 L 1.97601,-125.389 L 2.2598,-125.122 L 2.50795,-124.822 L 2.71654,-124.493 L 2.88229,-124.141 L 3.00259,-123.771
 L 3.07555,-123.389 L 3.09999,-123 L 3.07555,-122.611 L 3.00259,-122.229 L 2.88229,-121.859 L 2.71654,-121.507
 L 2.50795,-121.178 L 2.2598,-120.878 L 1.97601,-120.611 L 1.66106,-120.383 L 1.3199,-120.195 L 0.957947,-120.052
 L 0.580872,-119.955 L 0.194641,-119.906 z
M -0.113022,-113.704 L -0.33728,-113.732 L -0.556229,-113.788 L -0.766388,-113.871 L -0.964478,-113.98 L -1.14735,-114.113
 L -1.31213,-114.268 L -1.45622,-114.442 L -1.57735,-114.633 L -1.67358,-114.837 L -1.74344,-115.052 L -1.7858,-115.274
 L -1.79999,-115.5 L -1.7858,-115.726 L -1.74344,-115.948 L -1.67358,-116.163 L -1.57735,-116.367 L -1.45622,-116.558
 L -1.31213,-116.732 L -1.14735,-116.887 L -0.964478,-117.02 L -0.766388,-117.129 L -0.556229,-117.212 L -0.33728,-117.268
 L -0.113022,-117.296 L 0.113022,-117.296 L 0.33728,-117.268 L 0.556229,-117.212 L 0.766388,-117.129 L 0.964478,-117.02
 L 1.14735,-116.887 L 1.31213,-116.732 L 1.45622,-116.558 L 1.57735,-116.367 L 1.67358,-116.163 L 1.74344,-115.948
 L 1.7858,-115.726 L 1.79999,-115.5 L 1.7858,-115.274 L 1.74344,-115.052 L 1.67358,-114.837 L 1.57735,-114.633
 L 1.45622,-114.442 L 1.31213,-114.268 L 1.14735,-114.113 L 0.964478,-113.98 L 0.766388,-113.871 L 0.556229,-113.788
 L 0.33728,-113.732 L 0.113022,-113.704 z
M 52.9369,-86.0886 L 53.5451,-86.2447 L 54.1289,-86.4759 L 54.6791,-86.7784 L 55.1871,-87.1474 L 55.6448,-87.5773
 L 56.0451,-88.0611 L 56.3815,-88.5912 L 56.6489,-89.1594 L 56.8429,-89.7566 L 56.9606,-90.3733 L 57,-91
 L 57,-106.682 L 43,-106.682 L 43,-91 L 43.0394,-90.3733 L 43.1571,-89.7566 L 43.3511,-89.1594
 L 43.6185,-88.5912 L 43.9549,-88.0611 L 44.3551,-87.5773 L 44.8129,-87.1474 L 45.3209,-86.7784 L 45.8711,-86.4759
 L 46.4549,-86.2447 L 47.0631,-86.0886 L 47.686,-86.0099 L 52.3139,-86.0099 z
M 49.887,-98.7036 L 49.6627,-98.7319 L 49.4438,-98.7881 L 49.2336,-98.8713 L 49.0355,-98.9802 L 48.8526,-99.1131
 L 48.6879,-99.2678 L 48.5438,-99.442 L 48.4226,-99.6329 L 48.3264,-99.8374 L 48.2565,-100.052 L 48.2142,-100.274
 L 48.2,-100.5 L 48.2142,-100.726 L 48.2565,-100.948 L 48.3264,-101.163 L 48.4226,-101.367 L 48.5438,-101.558
 L 48.6879,-101.732 L 48.8526,-101.887 L 49.0355,-102.02 L 49.2336,-102.129 L 49.4438,-102.212 L 49.6627,-102.268
 L 49.887,-102.296 L 50.113,-102.296 L 50.3373,-102.268 L 50.5562,-102.212 L 50.7664,-102.129 L 50.9645,-102.02
 L 51.1474,-101.887 L 51.3121,-101.732 L 51.4562,-101.558 L 51.5773,-101.367 L 51.6736,-101.163 L 51.7434,-100.948
 L 51.7858,-100.726 L 51.8,-100.5 L 51.7858,-100.274 L 51.7434,-100.052 L 51.6736,-99.8374 L 51.5773,-99.6329
 L 51.4562,-99.442 L 51.3121,-99.2678 L 51.1474,-99.1131 L 50.9645,-98.9802 L 50.7664,-98.8713 L 50.5562,-98.7881
 L 50.3373,-98.7319 L 50.113,-98.7036 z
M 49.8116,-90.0059 L 49.4379,-90.0531 L 49.0729,-90.1468 L 48.7227,-90.2855 L 48.3925,-90.467 L 48.0877,-90.6885
 L 47.8131,-90.9464 L 47.5729,-91.2366 L 47.3711,-91.5547 L 47.2107,-91.8956 L 47.0942,-92.2539 L 47.0237,-92.624
 L 47,-93 L 47.0237,-93.376 L 47.0942,-93.7461 L 47.2107,-94.1044 L 47.3711,-94.4453 L 47.5729,-94.7634
 L 47.8131,-95.0536 L 48.0877,-95.3116 L 48.3925,-95.533 L 48.7227,-95.7145 L 49.0729,-95.8532 L 49.4379,-95.9469
 L 49.8116,-95.9941 L 50.1884,-95.9941 L 50.5621,-95.9469 L 50.927,-95.8532 L 51.2773,-95.7145 L 51.6075,-95.533
 L 51.9123,-95.3116 L 52.1869,-95.0536 L 52.427,-94.7634 L 52.6289,-94.4453 L 52.7893,-94.1044 L 52.9057,-93.7461
 L 52.9763,-93.376 L 53,-93 L 52.9763,-92.624 L 52.9057,-92.2539 L 52.7893,-91.8956 L 52.6289,-91.5547
 L 52.427,-91.2366 L 52.1869,-90.9464 L 51.9123,-90.6885 L 51.6075,-90.467 L 51.2773,-90.2855 L 50.927,-90.1468
 L 50.5621,-90.0531 L 50.1884,-90.0059 z
M 2.9369,-86.0886 L 3.54507,-86.2447 L 4.12889,-86.4759 L 4.67912,-86.7784 L 5.18712,-87.1474 L 5.64484,-87.5773
 L 6.04507,-88.0611 L 6.38153,-88.5912 L 6.64888,-89.1594 L 6.84291,-89.7566 L 6.96057,-90.3733 L 7,-91
 L 7,-106.682 L -7,-106.682 L -7,-91 L -6.96057,-90.3733 L -6.84291,-89.7566 L -6.64888,-89.1594
 L -6.38153,-88.5912 L -6.04507,-88.0611 L -5.64484,-87.5773 L -5.18712,-87.1474 L -4.67912,-86.7784 L -4.12889,-86.4759
 L -3.54507,-86.2447 L -2.9369,-86.0886 L -2.31395,-86.0099 L 2.31395,-86.0099 z
M -0.113022,-98.7036 L -0.33728,-98.7319 L -0.556229,-98.7881 L -0.766388,-98.8713 L -0.964478,-98.9802 L -1.14735,-99.1131
 L -1.31213,-99.2678 L -1.45622,-99.442 L -1.57735,-99.6329 L -1.67358,-99.8374 L -1.74344,-100.052 L -1.7858,-100.274
 L -1.79999,-100.5 L -1.7858,-100.726 L -1.74344,-100.948 L -1.67358,-101.163 L -1.57735,-101.367 L -1.45622,-101.558
 L -1.31213,-101.732 L -1.14735,-101.887 L -0.964478,-102.02 L -0.766388,-102.129 L -0.556229,-102.212 L -0.33728,-102.268
 L -0.113022,-102.296 L 0.113022,-102.296 L 0.33728,-102.268 L 0.556229,-102.212 L 0.766388,-102.129 L 0.964478,-102.02
 L 1.14735,-101.887 L 1.31213,-101.732 L 1.45622,-101.558 L 1.57735,-101.367 L 1.67358,-101.163 L 1.74344,-100.948
 L 1.7858,-100.726 L 1.79999,-100.5 L 1.7858,-100.274 L 1.74344,-100.052 L 1.67358,-99.8374 L 1.57735,-99.6329
 L 1.45622,-99.442 L 1.31213,-99.2678 L 1.14735,-99.1131 L 0.964478,-98.9802 L 0.766388,-98.8713 L 0.556229,-98.7881
 L 0.33728,-98.7319 L 0.113022,-98.7036 z
M -0.194641,-89.9061 L -0.580872,-89.9549 L -0.957947,-90.0517 L -1.3199,-90.195 L -1.66106,-90.3826 L -1.97601,-90.6114
 L -2.2598,-90.8779 L -2.50795,-91.1779 L -2.71654,-91.5066 L -2.88229,-91.8588 L -3.00259,-92.2291 L -3.07555,-92.6115
 L -3.09999,-93 L -3.07555,-93.3885 L -3.00259,-93.771 L -2.88229,-94.1412 L -2.71654,-94.4934 L -2.50795,-94.8221
 L -2.2598,-95.1221 L -1.97601,-95.3886 L -1.66106,-95.6174 L -1.3199,-95.805 L -0.957947,-95.9483 L -0.580872,-96.0451
 L -0.194641,-96.0939 L 0.194641,-96.0939 L 0.580872,-96.0451 L 0.957947,-95.9483 L 1.3199,-95.805 L 1.66106,-95.6174
 L 1.97601,-95.3886 L 2.2598,-95.1221 L 2.50795,-94.8221 L 2.71654,-94.4934 L 2.88229,-94.1412 L 3.00259,-93.771
 L 3.07555,-93.3885 L 3.09999,-93 L 3.07555,-92.6115 L 3.00259,-92.2291 L 2.88229,-91.8588 L 2.71654,-91.5066
 L 2.50795,-91.1779 L 2.2598,-90.8779 L 1.97601,-90.6114 L 1.66106,-90.3826 L 1.3199,-90.195 L 0.957947,-90.0517
 L 0.580872,-89.9549 L 0.194641,-89.9061 z
M 52.9369,-32.0886 L 53.5451,-32.2447 L 54.1289,-32.4759 L 54.6791,-32.7784 L 55.1871,-33.1474 L 55.6448,-33.5773
 L 56.0451,-34.0611 L 56.3815,-34.5912 L 56.6489,-35.1594 L 56.8429,-35.7566 L 56.9606,-36.3733 L 57,-37
 L 57,-71 L 56.9606,-71.6267 L 56.8429,-72.2434 L 56.6489,-72.8406 L 56.3815,-73.4088 L 56.0451,-73.9389
 L 55.6448,-74.4227 L 55.1871,-74.8526 L 54.6791,-75.2216 L 54.1289,-75.5241 L 53.5451,-75.7553 L 52.9369,-75.9114
 L 52.3139,-75.9901 L 47.686,-75.9901 L 47.0631,-75.9114 L 46.4549,-75.7553 L 45.8711,-75.5241 L 45.3209,-75.2216
 L 44.8129,-74.8526 L 44.3551,-74.4227 L 43.9549,-73.9389 L 43.6185,-73.4088 L 43.3511,-72.8406 L 43.1571,-72.2434
 L 43.0394,-71.6267 L 43,-71 L 43,-37 L 43.0394,-36.3733 L 43.1571,-35.7566 L 43.3511,-35.1594
 L 43.6185,-34.5912 L 43.9549,-34.0611 L 44.3551,-33.5773 L 44.8129,-33.1474 L 45.3209,-32.7784 L 45.8711,-32.4759
 L 46.4549,-32.2447 L 47.0631,-32.0886 L 47.686,-32.0099 L 52.3139,-32.0099 z
M 49.8116,-66.0059 L 49.4379,-66.0531 L 49.0729,-66.1468 L 48.7227,-66.2855 L 48.3925,-66.467 L 48.0877,-66.6884
 L 47.8131,-66.9464 L 47.5729,-67.2366 L 47.3711,-67.5547 L 47.2107,-67.8956 L 47.0942,-68.2539 L 47.0237,-68.624
 L 47,-69 L 47.0237,-69.376 L 47.0942,-69.7461 L 47.2107,-70.1044 L 47.3711,-70.4453 L 47.5729,-70.7634
 L 47.8131,-71.0536 L 48.0877,-71.3115 L 48.3925,-71.533 L 48.7227,-71.7145 L 49.0729,-71.8532 L 49.4379,-71.9469
 L 49.8116,-71.9941 L 50.1884,-71.9941 L 50.5621,-71.9469 L 50.927,-71.8532 L 51.2773,-71.7145 L 51.6075,-71.533
 L 51.9123,-71.3115 L 52.1869,-71.0536 L 52.427,-70.7634 L 52.6289,-70.4453 L 52.7893,-70.1044 L 52.9057,-69.7461
 L 52.9763,-69.376 L 53,-69 L 52.9763,-68.624 L 52.9057,-68.2539 L 52.7893,-67.8956 L 52.6289,-67.5547
 L 52.427,-67.2366 L 52.1869,-66.9464 L 51.9123,-66.6884 L 51.6075,-66.467 L 51.2773,-66.2855 L 50.927,-66.1468
 L 50.5621,-66.0531 L 50.1884,-66.0059 z
M 49.8526,-59.1576 L 49.5602,-59.1945 L 49.2747,-59.2678 L 49.0007,-59.3763 L 48.7424,-59.5183 L 48.5039,-59.6916
 L 48.2891,-59.8933 L 48.1012,-60.1204 L 47.9433,-60.3693 L 47.8177,-60.636 L 47.7267,-60.9163 L 47.6714,-61.2058
 L 47.6529,-61.5 L 47.6714,-61.7942 L 47.7267,-62.0837 L 47.8177,-62.364 L 47.9433,-62.6307 L 48.1012,-62.8796
 L 48.2891,-63.1067 L 48.5039,-63.3084 L 48.7424,-63.4817 L 49.0007,-63.6237 L 49.2747,-63.7322 L 49.5602,-63.8055
 L 49.8526,-63.8424 L 50.1474,-63.8424 L 50.4398,-63.8055 L 50.7253,-63.7322 L 50.9993,-63.6237 L 51.2576,-63.4817
 L 51.4961,-63.3084 L 51.7109,-63.1067 L 51.8988,-62.8796 L 52.0567,-62.6307 L 52.1822,-62.364 L 52.2733,-62.0837
 L 52.3286,-61.7942 L 52.347,-61.5 L 52.3286,-61.2058 L 52.2733,-60.9163 L 52.1822,-60.636 L 52.0567,-60.3693
 L 51.8988,-60.1204 L 51.7109,-59.8933 L 51.4961,-59.6916 L 51.2576,-59.5183 L 50.9993,-59.3763 L 50.7253,-59.2678
 L 50.4398,-59.1945 L 50.1474,-59.1576 z
M 49.8526,-44.1576 L 49.5602,-44.1945 L 49.2747,-44.2678 L 49.0007,-44.3763 L 48.7424,-44.5183 L 48.5039,-44.6916
 L 48.2891,-44.8933 L 48.1012,-45.1204 L 47.9433,-45.3693 L 47.8177,-45.636 L 47.7267,-45.9163 L 47.6714,-46.2058
 L 47.6529,-46.5 L 47.6714,-46.7942 L 47.7267,-47.0837 L 47.8177,-47.364 L 47.9433,-47.6307 L 48.1012,-47.8796
 L 48.2891,-48.1067 L 48.5039,-48.3084 L 48.7424,-48.4817 L 49.0007,-48.6237 L 49.2747,-48.7322 L 49.5602,-48.8055
 L 49.8526,-48.8424 L 50.1474,-48.8424 L 50.4398,-48.8055 L 50.7253,-48.7322 L 50.9993,-48.6237 L 51.2576,-48.4817
 L 51.4961,-48.3084 L 51.7109,-48.1067 L 51.8988,-47.8796 L 52.0567,-47.6307 L 52.1822,-47.364 L 52.2733,-47.0837
 L 52.3286,-46.7942 L 52.347,-46.5 L 52.3286,-46.2058 L 52.2733,-45.9163 L 52.1822,-45.636 L 52.0567,-45.3693
 L 51.8988,-45.1204 L 51.7109,-44.8933 L 51.4961,-44.6916 L 51.2576,-44.5183 L 50.9993,-44.3763 L 50.7253,-44.2678
 L 50.4398,-44.1945 L 50.1474,-44.1576 z
M 49.8116,-36.0059 L 49.4379,-36.0531 L 49.0729,-36.1468 L 48.7227,-36.2855 L 48.3925,-36.467 L 48.0877,-36.6885
 L 47.8131,-36.9464 L 47.5729,-37.2366 L 47.3711,-37.5547 L 47.2107,-37.8956 L 47.0942,-38.2539 L 47.0237,-38.624
 L 47,-39 L 47.0237,-39.376 L 47.0942,-39.7461 L 47.2107,-40.1044 L 47.3711,-40.4453 L 47.5729,-40.7634
 L 47.8131,-41.0536 L 48.0877,-41.3116 L 48.3925,-41.533 L 48.7227,-41.7145 L 49.0729,-41.8532 L 49.4379,-41.9469
 L 49.8116,-41.9941 L 50.1884,-41.9941 L 50.5621,-41.9469 L 50.927,-41.8532 L 51.2773,-41.7145 L 51.6075,-41.533
 L 51.9123,-41.3116 L 52.1869,-41.0536 L 52.427,-40.7634 L 52.6289,-40.4453 L 52.7893,-40.1044 L 52.9057,-39.7461
 L 52.9763,-39.376 L 53,-39 L 52.9763,-38.624 L 52.9057,-38.2539 L 52.7893,-37.8956 L 52.6289,-37.5547
 L 52.427,-37.2366 L 52.1869,-36.9464 L 51.9123,-36.6885 L 51.6075,-36.467 L 51.2773,-36.2855 L 50.927,-36.1468
 L 50.5621,-36.0531 L 50.1884,-36.0059 z
M 2.9369,-32.0886 L 3.54507,-32.2447 L 4.12889,-32.4759 L 4.67912,-32.7784 L 5.18712,-33.1474 L 5.64484,-33.5773
 L 6.04507,-34.0611 L 6.38153,-34.5912 L 6.64888,-35.1594 L 6.84291,-35.7566 L 6.96057,-36.3733 L 7,-37
 L 7,-71 L 6.96057,-71.6267 L 6.84291,-72.2434 L 6.64888,-72.8406 L 6.38153,-73.4088 L 6.04507,-73.9389
 L 5.64484,-74.4227 L 5.18712,-74.8526 L 4.67912,-75.2216 L 4.12889,-75.5241 L 3.54507,-75.7553 L 2.9369,-75.9114
 L 2.31395,-75.9901 L -2.31395,-75.9901 L -2.9369,-75.9114 L -3.54507,-75.7553 L -4.12889,-75.5241 L -4.67912,-75.2216
 L -5.18712,-74.8526 L -5.64484,-74.4227 L -6.04507,-73.9389 L -6.38153,-73.4088 L -6.64888,-72.8406 L -6.84291,-72.2434
 L -6.96057,-71.6267 L -7,-71 L -7,-37 L -6.96057,-36.3733 L -6.84291,-35.7566 L -6.64888,-35.1594
 L -6.38153,-34.5912 L -6.04507,-34.0611 L -5.64484,-33.5773 L -5.18712,-33.1474 L -4.67912,-32.7784 L -4.12889,-32.4759
 L -3.54507,-32.2447 L -2.9369,-32.0886 L -2.31395,-32.0099 L 2.31395,-32.0099 z
M -0.18837,-66.0059 L -0.562134,-66.0531 L -0.927048,-66.1468 L -1.27733,-66.2855 L -1.60747,-66.467 L -1.91226,-66.6884
 L -2.1869,-66.9464 L -2.42705,-67.2366 L -2.62891,-67.5547 L -2.78932,-67.8956 L -2.90575,-68.2539 L -2.97633,-68.624
 L -3,-69 L -2.97633,-69.376 L -2.90575,-69.7461 L -2.78932,-70.1044 L -2.62891,-70.4453 L -2.42705,-70.7634
 L -2.1869,-71.0536 L -1.91226,-71.3115 L -1.60747,-71.533 L -1.27733,-71.7145 L -0.927048,-71.8532 L -0.562134,-71.9469
 L -0.18837,-71.9941 L 0.18837,-71.9941 L 0.562134,-71.9469 L 0.927048,-71.8532 L 1.27733,-71.7145 L 1.60747,-71.533
 L 1.91226,-71.3115 L 2.1869,-71.0536 L 2.42705,-70.7634 L 2.62891,-70.4453 L 2.78932,-70.1044 L 2.90575,-69.7461
 L 2.97633,-69.376 L 3,-69 L 2.97633,-68.624 L 2.90575,-68.2539 L 2.78932,-67.8956 L 2.62891,-67.5547
 L 2.42705,-67.2366 L 2.1869,-66.9464 L 1.91226,-66.6884 L 1.60747,-66.467 L 1.27733,-66.2855 L 0.927048,-66.1468
 L 0.562134,-66.0531 L 0.18837,-66.0059 z
M -1.58675,-58.7517 L -3.17349,-61.5 L -1.58675,-64.2483 L 1.58675,-64.2483 L 3.17349,-61.5 L 1.58675,-58.7517
 z
M -1.58675,-43.7517 L -3.17349,-46.5 L -1.58675,-49.2483 L 1.58675,-49.2483 L 3.17349,-46.5 L 1.58675,-43.7517
 z
M -0.18837,-36.0059 L -0.562134,-36.0531 L -0.927048,-36.1468 L -1.27733,-36.2855 L -1.60747,-36.467 L -1.91226,-36.6885
 L -2.1869,-36.9464 L -2.42705,-37.2366 L -2.62891,-37.5547 L -2.78932,-37.8956 L -2.90575,-38.2539 L -2.97633,-38.624
 L -3,-39 L -2.97633,-39.376 L -2.90575,-39.7461 L -2.78932,-40.1044 L -2.62891,-40.4453 L -2.42705,-40.7634
 L -2.1869,-41.0536 L -1.91226,-41.3116 L -1.60747,-41.533 L -1.27733,-41.7145 L -0.927048,-41.8532 L -0.562134,-41.9469
 L -0.18837,-41.9941 L 0.18837,-41.9941 L 0.562134,-41.9469 L 0.927048,-41.8532 L 1.27733,-41.7145 L 1.60747,-41.533
 L 1.91226,-41.3116 L 2.1869,-41.0536 L 2.42705,-40.7634 L 2.62891,-40.4453 L 2.78932,-40.1044 L 2.90575,-39.7461
 L 2.97633,-39.376 L 3,-39 L 2.97633,-38.624 L 2.90575,-38.2539 L 2.78932,-37.8956 L 2.62891,-37.5547
 L 2.42705,-37.2366 L 2.1869,-36.9464 L 1.91226,-36.6885 L 1.60747,-36.467 L 1.27733,-36.2855 L 0.927048,-36.1468
 L 0.562134,-36.0531 L 0.18837,-36.0059 z
" stroke="black" fill="lightgray" stroke-width="0.5"/>
</svg>
