  0
SECTION
  2
BLOCKS
  0
ENDSEC
  0
SECTION
  2
ENTITIES
  0
LINE
  8
0
 10
110.506
 20
334
 11
106.994
 21
334
  0
LINE
  8
0
 10
106.994
 20
334
 11
106.994
 21
320
  0
LINE
  8
0
 10
106.994
 20
320
 11
110.506
 21
320
  0
LINE
  8
0
 10
110.506
 20
320
 11
110.506
 21
334
  0
LINE
  8
0
 10
118.006
 20
334
 11
114.494
 21
334
  0
LINE
  8
0
 10
114.494
 20
334
 11
114.494
 21
320
  0
LINE
  8
0
 10
114.494
 20
320
 11
118.006
 21
320
  0
LINE
  8
0
 10
118.006
 20
320
 11
118.006
 21
334
  0
LINE
  8
0
 10
133.006
 20
334
 11
129.494
 21
334
  0
LINE
  8
0
 10
129.494
 20
334
 11
129.494
 21
320
  0
LINE
  8
0
 10
129.494
 20
320
 11
133.006
 21
320
  0
LINE
  8
0
 10
133.006
 20
320
 11
133.006
 21
334
  0
LINE
  8
0
 10
152.627
 20
320.039
 11
153.243
 21
320.157
  0
LINE
  8
0
 10
153.243
 20
320.157
 11
153.841
 21
320.351
  0
LINE
  8
0
 10
153.841
 20
320.351
 11
154.409
 21
320.618
  0
LINE
  8
0
 10
154.409
 20
320.618
 11
154.939
 21
320.955
  0
LINE
  8
0
 10
154.939
 20
320.955
 11
155.423
 21
321.355
  0
LINE
  8
0
 10
155.423
 20
321.355
 11
155.853
 21
321.813
  0
LINE
  8
0
 10
155.853
 20
321.813
 11
156.222
 21
322.321
  0
LINE
  8
0
 10
156.222
 20
322.321
 11
156.524
 21
322.871
  0
LINE
  8
0
 10
156.524
 20
322.871
 11
156.755
 21
323.455
  0
LINE
  8
0
 10
156.755
 20
323.455
 11
156.911
 21
324.063
  0
LINE
  8
0
 10
156.911
 20
324.063
 11
156.99
 21
324.686
  0
LINE
  8
0
 10
156.99
 20
324.686
 11
156.99
 21
329.314
  0
LINE
  8
0
 10
156.99
 20
329.314
 11
156.911
 21
329.937
  0
LINE
  8
0
 10
156.911
 20
329.937
 11
156.755
 21
330.545
  0
LINE
  8
0
 10
156.755
 20
330.545
 11
156.524
 21
331.129
  0
LINE
  8
0
 10
156.524
 20
331.129
 11
156.222
 21
331.679
  0
LINE
  8
0
 10
156.222
 20
331.679
 11
155.853
 21
332.187
  0
LINE
  8
0
 10
155.853
 20
332.187
 11
155.423
 21
332.645
  0
LINE
  8
0
 10
155.423
 20
332.645
 11
154.939
 21
333.045
  0
LINE
  8
0
 10
154.939
 20
333.045
 11
154.409
 21
333.382
  0
LINE
  8
0
 10
154.409
 20
333.382
 11
153.841
 21
333.649
  0
LINE
  8
0
 10
153.841
 20
333.649
 11
153.243
 21
333.843
  0
LINE
  8
0
 10
153.243
 20
333.843
 11
152.627
 21
333.961
  0
LINE
  8
0
 10
152.627
 20
333.961
 11
152
 21
334
  0
LINE
  8
0
 10
152
 20
334
 11
136.994
 21
334
  0
LINE
  8
0
 10
136.994
 20
334
 11
136.994
 21
320
  0
LINE
  8
0
 10
136.994
 20
320
 11
152
 21
320
  0
LINE
  8
0
 10
152
 20
320
 11
152.627
 21
320.039
  0
LINE
  8
0
 10
149.624
 20
324.024
 11
149.254
 21
324.094
  0
LINE
  8
0
 10
149.254
 20
324.094
 11
148.896
 21
324.211
  0
LINE
  8
0
 10
148.896
 20
324.211
 11
148.555
 21
324.371
  0
LINE
  8
0
 10
148.555
 20
324.371
 11
148.237
 21
324.573
  0
LINE
  8
0
 10
148.237
 20
324.573
 11
147.946
 21
324.813
  0
LINE
  8
0
 10
147.946
 20
324.813
 11
147.688
 21
325.088
  0
LINE
  8
0
 10
147.688
 20
325.088
 11
147.467
 21
325.393
  0
LINE
  8
0
 10
147.467
 20
325.393
 11
147.286
 21
325.723
  0
LINE
  8
0
 10
147.286
 20
325.723
 11
147.147
 21
326.073
  0
LINE
  8
0
 10
147.147
 20
326.073
 11
147.053
 21
326.438
  0
LINE
  8
0
 10
147.053
 20
326.438
 11
147.006
 21
326.812
  0
LINE
  8
0
 10
147.006
 20
326.812
 11
147.006
 21
327.188
  0
LINE
  8
0
 10
147.006
 20
327.188
 11
147.053
 21
327.562
  0
LINE
  8
0
 10
147.053
 20
327.562
 11
147.147
 21
327.927
  0
LINE
  8
0
 10
147.147
 20
327.927
 11
147.286
 21
328.277
  0
LINE
  8
0
 10
147.286
 20
328.277
 11
147.467
 21
328.607
  0
LINE
  8
0
 10
147.467
 20
328.607
 11
147.688
 21
328.912
  0
LINE
  8
0
 10
147.688
 20
328.912
 11
147.946
 21
329.187
  0
LINE
  8
0
 10
147.946
 20
329.187
 11
148.237
 21
329.427
  0
LINE
  8
0
 10
148.237
 20
329.427
 11
148.555
 21
329.629
  0
LINE
  8
0
 10
148.555
 20
329.629
 11
148.896
 21
329.789
  0
LINE
  8
0
 10
148.896
 20
329.789
 11
149.254
 21
329.906
  0
LINE
  8
0
 10
149.254
 20
329.906
 11
149.624
 21
329.976
  0
LINE
  8
0
 10
149.624
 20
329.976
 11
150
 21
330
  0
LINE
  8
0
 10
150
 20
330
 11
150.376
 21
329.976
  0
LINE
  8
0
 10
150.376
 20
329.976
 11
150.746
 21
329.906
  0
LINE
  8
0
 10
150.746
 20
329.906
 11
151.104
 21
329.789
  0
LINE
  8
0
 10
151.104
 20
329.789
 11
151.445
 21
329.629
  0
LINE
  8
0
 10
151.445
 20
329.629
 11
151.763
 21
329.427
  0
LINE
  8
0
 10
151.763
 20
329.427
 11
152.054
 21
329.187
  0
LINE
  8
0
 10
152.054
 20
329.187
 11
152.312
 21
328.912
  0
LINE
  8
0
 10
152.312
 20
328.912
 11
152.533
 21
328.607
  0
LINE
  8
0
 10
152.533
 20
328.607
 11
152.714
 21
328.277
  0
LINE
  8
0
 10
152.714
 20
328.277
 11
152.853
 21
327.927
  0
LINE
  8
0
 10
152.853
 20
327.927
 11
152.947
 21
327.562
  0
LINE
  8
0
 10
152.947
 20
327.562
 11
152.994
 21
327.188
  0
LINE
  8
0
 10
152.994
 20
327.188
 11
152.994
 21
326.812
  0
LINE
  8
0
 10
152.994
 20
326.812
 11
152.947
 21
326.438
  0
LINE
  8
0
 10
152.947
 20
326.438
 11
152.853
 21
326.073
  0
LINE
  8
0
 10
152.853
 20
326.073
 11
152.714
 21
325.723
  0
LINE
  8
0
 10
152.714
 20
325.723
 11
152.533
 21
325.393
  0
LINE
  8
0
 10
152.533
 20
325.393
 11
152.312
 21
325.088
  0
LINE
  8
0
 10
152.312
 20
325.088
 11
152.054
 21
324.813
  0
LINE
  8
0
 10
152.054
 20
324.813
 11
151.763
 21
324.573
  0
LINE
  8
0
 10
151.763
 20
324.573
 11
151.445
 21
324.371
  0
LINE
  8
0
 10
151.445
 20
324.371
 11
151.104
 21
324.211
  0
LINE
  8
0
 10
151.104
 20
324.211
 11
150.746
 21
324.094
  0
LINE
  8
0
 10
150.746
 20
324.094
 11
150.376
 21
324.024
  0
LINE
  8
0
 10
150.376
 20
324.024
 11
150
 21
324
  0
LINE
  8
0
 10
150
 20
324
 11
149.624
 21
324.024
  0
LINE
  8
0
 10
142.274
 20
325.214
 11
142.052
 21
325.257
  0
LINE
  8
0
 10
142.052
 20
325.257
 11
141.837
 21
325.326
  0
LINE
  8
0
 10
141.837
 20
325.326
 11
141.633
 21
325.423
  0
LINE
  8
0
 10
141.633
 20
325.423
 11
141.442
 21
325.544
  0
LINE
  8
0
 10
141.442
 20
325.544
 11
141.268
 21
325.688
  0
LINE
  8
0
 10
141.268
 20
325.688
 11
141.113
 21
325.853
  0
LINE
  8
0
 10
141.113
 20
325.853
 11
140.98
 21
326.036
  0
LINE
  8
0
 10
140.98
 20
326.036
 11
140.871
 21
326.234
  0
LINE
  8
0
 10
140.871
 20
326.234
 11
140.788
 21
326.444
  0
LINE
  8
0
 10
140.788
 20
326.444
 11
140.732
 21
326.663
  0
LINE
  8
0
 10
140.732
 20
326.663
 11
140.704
 21
326.887
  0
LINE
  8
0
 10
140.704
 20
326.887
 11
140.704
 21
327.113
  0
LINE
  8
0
 10
140.704
 20
327.113
 11
140.732
 21
327.337
  0
LINE
  8
0
 10
140.732
 20
327.337
 11
140.788
 21
327.556
  0
LINE
  8
0
 10
140.788
 20
327.556
 11
140.871
 21
327.766
  0
LINE
  8
0
 10
140.871
 20
327.766
 11
140.98
 21
327.964
  0
LINE
  8
0
 10
140.98
 20
327.964
 11
141.113
 21
328.147
  0
LINE
  8
0
 10
141.113
 20
328.147
 11
141.268
 21
328.312
  0
LINE
  8
0
 10
141.268
 20
328.312
 11
141.442
 21
328.456
  0
LINE
  8
0
 10
141.442
 20
328.456
 11
141.633
 21
328.577
  0
LINE
  8
0
 10
141.633
 20
328.577
 11
141.837
 21
328.674
  0
LINE
  8
0
 10
141.837
 20
328.674
 11
142.052
 21
328.743
  0
LINE
  8
0
 10
142.052
 20
328.743
 11
142.274
 21
328.786
  0
LINE
  8
0
 10
142.274
 20
328.786
 11
142.5
 21
328.8
  0
LINE
  8
0
 10
142.5
 20
328.8
 11
142.726
 21
328.786
  0
LINE
  8
0
 10
142.726
 20
328.786
 11
142.948
 21
328.743
  0
LINE
  8
0
 10
142.948
 20
328.743
 11
143.163
 21
328.674
  0
LINE
  8
0
 10
143.163
 20
328.674
 11
143.367
 21
328.577
  0
LINE
  8
0
 10
143.367
 20
328.577
 11
143.558
 21
328.456
  0
LINE
  8
0
 10
143.558
 20
328.456
 11
143.732
 21
328.312
  0
LINE
  8
0
 10
143.732
 20
328.312
 11
143.887
 21
328.147
  0
LINE
  8
0
 10
143.887
 20
328.147
 11
144.02
 21
327.964
  0
LINE
  8
0
 10
144.02
 20
327.964
 11
144.129
 21
327.766
  0
LINE
  8
0
 10
144.129
 20
327.766
 11
144.212
 21
327.556
  0
LINE
  8
0
 10
144.212
 20
327.556
 11
144.268
 21
327.337
  0
LINE
  8
0
 10
144.268
 20
327.337
 11
144.296
 21
327.113
  0
LINE
  8
0
 10
144.296
 20
327.113
 11
144.296
 21
326.887
  0
LINE
  8
0
 10
144.296
 20
326.887
 11
144.268
 21
326.663
  0
LINE
  8
0
 10
144.268
 20
326.663
 11
144.212
 21
326.444
  0
LINE
  8
0
 10
144.212
 20
326.444
 11
144.129
 21
326.234
  0
LINE
  8
0
 10
144.129
 20
326.234
 11
144.02
 21
326.036
  0
LINE
  8
0
 10
144.02
 20
326.036
 11
143.887
 21
325.853
  0
LINE
  8
0
 10
143.887
 20
325.853
 11
143.732
 21
325.688
  0
LINE
  8
0
 10
143.732
 20
325.688
 11
143.558
 21
325.544
  0
LINE
  8
0
 10
143.558
 20
325.544
 11
143.367
 21
325.423
  0
LINE
  8
0
 10
143.367
 20
325.423
 11
143.163
 21
325.326
  0
LINE
  8
0
 10
143.163
 20
325.326
 11
142.948
 21
325.257
  0
LINE
  8
0
 10
142.948
 20
325.257
 11
142.726
 21
325.214
  0
LINE
  8
0
 10
142.726
 20
325.214
 11
142.5
 21
325.2
  0
LINE
  8
0
 10
142.5
 20
325.2
 11
142.274
 21
325.214
  0
LINE
  8
0
 10
97
 20
320
 11
103.006
 21
320
  0
LINE
  8
0
 10
103.006
 20
320
 11
103.006
 21
334
  0
LINE
  8
0
 10
103.006
 20
334
 11
88
 21
334
  0
LINE
  8
0
 10
88
 20
334
 11
87.8432
 21
333.99
  0
LINE
  8
0
 10
87.8432
 20
333.99
 11
87.6861
 21
333.99
  0
LINE
  8
0
 10
87.6861
 20
333.99
 11
87.5302
 21
333.97
  0
LINE
  8
0
 10
87.5302
 20
333.97
 11
87.3733
 21
333.961
  0
LINE
  8
0
 10
87.3733
 20
333.961
 11
87.219
 21
333.931
  0
LINE
  8
0
 10
87.219
 20
333.931
 11
87.0631
 21
333.911
  0
LINE
  8
0
 10
87.0631
 20
333.911
 11
86.9109
 21
333.872
  0
LINE
  8
0
 10
86.9109
 20
333.872
 11
86.7565
 21
333.843
  0
LINE
  8
0
 10
86.7565
 20
333.843
 11
86.6071
 21
333.794
  0
LINE
  8
0
 10
86.6071
 20
333.794
 11
86.4549
 21
333.755
  0
LINE
  8
0
 10
86.4549
 20
333.755
 11
86.3088
 21
333.697
  0
LINE
  8
0
 10
86.3088
 20
333.697
 11
86.1594
 21
333.649
  0
LINE
  8
0
 10
86.1594
 20
333.649
 11
86.0172
 21
333.582
  0
LINE
  8
0
 10
86.0172
 20
333.582
 11
85.8711
 21
333.524
  0
LINE
  8
0
 10
85.8711
 20
333.524
 11
85.7334
 21
333.448
  0
LINE
  8
0
 10
85.7334
 20
333.448
 11
85.5912
 21
333.382
  0
LINE
  8
0
 10
85.5912
 20
333.382
 11
85.4586
 21
333.297
  0
LINE
  8
0
 10
85.4586
 20
333.297
 11
85.3209
 21
333.222
  0
LINE
  8
0
 10
85.3209
 20
333.222
 11
85.1937
 21
333.129
  0
LINE
  8
0
 10
85.1937
 20
333.129
 11
85.0611
 21
333.045
  0
LINE
  8
0
 10
85.0611
 20
333.045
 11
84.94
 21
332.945
  0
LINE
  8
0
 10
84.94
 20
332.945
 11
84.8129
 21
332.853
  0
LINE
  8
0
 10
84.8129
 20
332.853
 11
84.6983
 21
332.745
  0
LINE
  8
0
 10
84.6983
 20
332.745
 11
84.5773
 21
332.645
  0
LINE
  8
0
 10
84.5773
 20
332.645
 11
84.4697
 21
332.53
  0
LINE
  8
0
 10
84.4697
 20
332.53
 11
84.3551
 21
332.423
  0
LINE
  8
0
 10
84.3551
 20
332.423
 11
84.255
 21
332.302
  0
LINE
  8
0
 10
84.255
 20
332.302
 11
84.1474
 21
332.187
  0
LINE
  8
0
 10
84.1474
 20
332.187
 11
84.0551
 21
332.06
  0
LINE
  8
0
 10
84.0551
 20
332.06
 11
83.9549
 21
331.939
  0
LINE
  8
0
 10
83.9549
 20
331.939
 11
83.8707
 21
331.806
  0
LINE
  8
0
 10
83.8707
 20
331.806
 11
83.7784
 21
331.679
  0
LINE
  8
0
 10
83.7784
 20
331.679
 11
83.7027
 21
331.541
  0
LINE
  8
0
 10
83.7027
 20
331.541
 11
83.6185
 21
331.409
  0
LINE
  8
0
 10
83.6185
 20
331.409
 11
83.5516
 21
331.267
  0
LINE
  8
0
 10
83.5516
 20
331.267
 11
83.4759
 21
331.129
  0
LINE
  8
0
 10
83.4759
 20
331.129
 11
83.418
 21
330.983
  0
LINE
  8
0
 10
83.418
 20
330.983
 11
83.3511
 21
330.841
  0
LINE
  8
0
 10
83.3511
 20
330.841
 11
83.3026
 21
330.691
  0
LINE
  8
0
 10
83.3026
 20
330.691
 11
83.2447
 21
330.545
  0
LINE
  8
0
 10
83.2447
 20
330.545
 11
83.2056
 21
330.393
  0
LINE
  8
0
 10
83.2056
 20
330.393
 11
83.1571
 21
330.243
  0
LINE
  8
0
 10
83.1571
 20
330.243
 11
83.1276
 21
330.089
  0
LINE
  8
0
 10
83.1276
 20
330.089
 11
83.0886
 21
329.937
  0
LINE
  8
0
 10
83.0886
 20
329.937
 11
83.0689
 21
329.781
  0
LINE
  8
0
 10
83.0689
 20
329.781
 11
83.0394
 21
329.627
  0
LINE
  8
0
 10
83.0394
 20
329.627
 11
83.0296
 21
329.47
  0
LINE
  8
0
 10
83.0296
 20
329.47
 11
83.0099
 21
329.314
  0
LINE
  8
0
 10
83.0099
 20
329.314
 11
83.0099
 21
329.157
  0
LINE
  8
0
 10
83.0099
 20
329.157
 11
83
 21
329
  0
LINE
  8
0
 10
83
 20
329
 11
83
 21
313.994
  0
LINE
  8
0
 10
83
 20
313.994
 11
97
 21
313.994
  0
LINE
  8
0
 10
97
 20
313.994
 11
97
 21
320
  0
LINE
  8
0
 10
89.9059
 20
324.006
 11
89.7181
 21
324.018
  0
LINE
  8
0
 10
89.7181
 20
324.018
 11
89.5314
 21
324.041
  0
LINE
  8
0
 10
89.5314
 20
324.041
 11
89.3465
 21
324.077
  0
LINE
  8
0
 10
89.3465
 20
324.077
 11
89.1643
 21
324.123
  0
LINE
  8
0
 10
89.1643
 20
324.123
 11
88.9853
 21
324.182
  0
LINE
  8
0
 10
88.9853
 20
324.182
 11
88.8103
 21
324.251
  0
LINE
  8
0
 10
88.8103
 20
324.251
 11
88.64
 21
324.331
  0
LINE
  8
0
 10
88.64
 20
324.331
 11
88.4751
 21
324.422
  0
LINE
  8
0
 10
88.4751
 20
324.422
 11
88.3162
 21
324.522
  0
LINE
  8
0
 10
88.3162
 20
324.522
 11
88.164
 21
324.633
  0
LINE
  8
0
 10
88.164
 20
324.633
 11
88.019
 21
324.753
  0
LINE
  8
0
 10
88.019
 20
324.753
 11
87.8818
 21
324.882
  0
LINE
  8
0
 10
87.8818
 20
324.882
 11
87.753
 21
325.019
  0
LINE
  8
0
 10
87.753
 20
325.019
 11
87.633
 21
325.164
  0
LINE
  8
0
 10
87.633
 20
325.164
 11
87.5224
 21
325.316
  0
LINE
  8
0
 10
87.5224
 20
325.316
 11
87.4216
 21
325.475
  0
LINE
  8
0
 10
87.4216
 20
325.475
 11
87.3309
 21
325.64
  0
LINE
  8
0
 10
87.3309
 20
325.64
 11
87.2508
 21
325.81
  0
LINE
  8
0
 10
87.2508
 20
325.81
 11
87.1815
 21
325.985
  0
LINE
  8
0
 10
87.1815
 20
325.985
 11
87.1234
 21
326.164
  0
LINE
  8
0
 10
87.1234
 20
326.164
 11
87.0766
 21
326.347
  0
LINE
  8
0
 10
87.0766
 20
326.347
 11
87.0413
 21
326.531
  0
LINE
  8
0
 10
87.0413
 20
326.531
 11
87.0177
 21
326.718
  0
LINE
  8
0
 10
87.0177
 20
326.718
 11
87.0059
 21
326.906
  0
LINE
  8
0
 10
87.0059
 20
326.906
 11
87.0059
 21
327.094
  0
LINE
  8
0
 10
87.0059
 20
327.094
 11
87.0177
 21
327.282
  0
LINE
  8
0
 10
87.0177
 20
327.282
 11
87.0413
 21
327.469
  0
LINE
  8
0
 10
87.0413
 20
327.469
 11
87.0766
 21
327.653
  0
LINE
  8
0
 10
87.0766
 20
327.653
 11
87.1234
 21
327.836
  0
LINE
  8
0
 10
87.1234
 20
327.836
 11
87.1815
 21
328.015
  0
LINE
  8
0
 10
87.1815
 20
328.015
 11
87.2508
 21
328.19
  0
LINE
  8
0
 10
87.2508
 20
328.19
 11
87.3309
 21
328.36
  0
LINE
  8
0
 10
87.3309
 20
328.36
 11
87.4216
 21
328.525
  0
LINE
  8
0
 10
87.4216
 20
328.525
 11
87.5224
 21
328.684
  0
LINE
  8
0
 10
87.5224
 20
328.684
 11
87.633
 21
328.836
  0
LINE
  8
0
 10
87.633
 20
328.836
 11
87.753
 21
328.981
  0
LINE
  8
0
 10
87.753
 20
328.981
 11
87.8818
 21
329.118
  0
LINE
  8
0
 10
87.8818
 20
329.118
 11
88.019
 21
329.247
  0
LINE
  8
0
 10
88.019
 20
329.247
 11
88.164
 21
329.367
  0
LINE
  8
0
 10
88.164
 20
329.367
 11
88.3163
 21
329.478
  0
LINE
  8
0
 10
88.3163
 20
329.478
 11
88.4751
 21
329.578
  0
LINE
  8
0
 10
88.4751
 20
329.578
 11
88.64
 21
329.669
  0
LINE
  8
0
 10
88.64
 20
329.669
 11
88.8103
 21
329.749
  0
LINE
  8
0
 10
88.8103
 20
329.749
 11
88.9853
 21
329.818
  0
LINE
  8
0
 10
88.9853
 20
329.818
 11
89.1643
 21
329.877
  0
LINE
  8
0
 10
89.1643
 20
329.877
 11
89.3465
 21
329.923
  0
LINE
  8
0
 10
89.3465
 20
329.923
 11
89.5314
 21
329.959
  0
LINE
  8
0
 10
89.5314
 20
329.959
 11
89.7181
 21
329.982
  0
LINE
  8
0
 10
89.7181
 20
329.982
 11
89.9059
 21
329.994
  0
LINE
  8
0
 10
89.9059
 20
329.994
 11
90.0941
 21
329.994
  0
LINE
  8
0
 10
90.0941
 20
329.994
 11
90.2819
 21
329.982
  0
LINE
  8
0
 10
90.2819
 20
329.982
 11
90.4686
 21
329.959
  0
LINE
  8
0
 10
90.4686
 20
329.959
 11
90.6535
 21
329.923
  0
LINE
  8
0
 10
90.6535
 20
329.923
 11
90.8357
 21
329.877
  0
LINE
  8
0
 10
90.8357
 20
329.877
 11
91.0147
 21
329.818
  0
LINE
  8
0
 10
91.0147
 20
329.818
 11
91.1897
 21
329.749
  0
LINE
  8
0
 10
91.1897
 20
329.749
 11
91.3599
 21
329.669
  0
LINE
  8
0
 10
91.3599
 20
329.669
 11
91.5249
 21
329.578
  0
LINE
  8
0
 10
91.5249
 20
329.578
 11
91.6837
 21
329.478
  0
LINE
  8
0
 10
91.6837
 20
329.478
 11
91.836
 21
329.367
  0
LINE
  8
0
 10
91.836
 20
329.367
 11
91.981
 21
329.247
  0
LINE
  8
0
 10
91.981
 20
329.247
 11
92.1182
 21
329.118
  0
LINE
  8
0
 10
92.1182
 20
329.118
 11
92.247
 21
328.981
  0
LINE
  8
0
 10
92.247
 20
328.981
 11
92.367
 21
328.836
  0
LINE
  8
0
 10
92.367
 20
328.836
 11
92.4776
 21
328.684
  0
LINE
  8
0
 10
92.4776
 20
328.684
 11
92.5784
 21
328.525
  0
LINE
  8
0
 10
92.5784
 20
328.525
 11
92.6691
 21
328.36
  0
LINE
  8
0
 10
92.6691
 20
328.36
 11
92.7492
 21
328.19
  0
LINE
  8
0
 10
92.7492
 20
328.19
 11
92.8185
 21
328.015
  0
LINE
  8
0
 10
92.8185
 20
328.015
 11
92.8766
 21
327.836
  0
LINE
  8
0
 10
92.8766
 20
327.836
 11
92.9234
 21
327.653
  0
LINE
  8
0
 10
92.9234
 20
327.653
 11
92.9587
 21
327.469
  0
LINE
  8
0
 10
92.9587
 20
327.469
 11
92.9823
 21
327.282
  0
LINE
  8
0
 10
92.9823
 20
327.282
 11
92.9941
 21
327.094
  0
LINE
  8
0
 10
92.9941
 20
327.094
 11
92.9941
 21
326.906
  0
LINE
  8
0
 10
92.9941
 20
326.906
 11
92.9823
 21
326.718
  0
LINE
  8
0
 10
92.9823
 20
326.718
 11
92.9587
 21
326.531
  0
LINE
  8
0
 10
92.9587
 20
326.531
 11
92.9234
 21
326.347
  0
LINE
  8
0
 10
92.9234
 20
326.347
 11
92.8766
 21
326.164
  0
LINE
  8
0
 10
92.8766
 20
326.164
 11
92.8185
 21
325.985
  0
LINE
  8
0
 10
92.8185
 20
325.985
 11
92.7492
 21
325.81
  0
LINE
  8
0
 10
92.7492
 20
325.81
 11
92.6691
 21
325.64
  0
LINE
  8
0
 10
92.6691
 20
325.64
 11
92.5784
 21
325.475
  0
LINE
  8
0
 10
92.5784
 20
325.475
 11
92.4776
 21
325.316
  0
LINE
  8
0
 10
92.4776
 20
325.316
 11
92.367
 21
325.164
  0
LINE
  8
0
 10
92.367
 20
325.164
 11
92.247
 21
325.019
  0
LINE
  8
0
 10
92.247
 20
325.019
 11
92.1182
 21
324.882
  0
LINE
  8
0
 10
92.1182
 20
324.882
 11
91.981
 21
324.753
  0
LINE
  8
0
 10
91.981
 20
324.753
 11
91.836
 21
324.633
  0
LINE
  8
0
 10
91.836
 20
324.633
 11
91.6837
 21
324.522
  0
LINE
  8
0
 10
91.6837
 20
324.522
 11
91.5249
 21
324.422
  0
LINE
  8
0
 10
91.5249
 20
324.422
 11
91.36
 21
324.331
  0
LINE
  8
0
 10
91.36
 20
324.331
 11
91.1897
 21
324.251
  0
LINE
  8
0
 10
91.1897
 20
324.251
 11
91.0147
 21
324.182
  0
LINE
  8
0
 10
91.0147
 20
324.182
 11
90.8357
 21
324.123
  0
LINE
  8
0
 10
90.8357
 20
324.123
 11
90.6535
 21
324.077
  0
LINE
  8
0
 10
90.6535
 20
324.077
 11
90.4686
 21
324.041
  0
LINE
  8
0
 10
90.4686
 20
324.041
 11
90.2819
 21
324.018
  0
LINE
  8
0
 10
90.2819
 20
324.018
 11
90.0941
 21
324.006
  0
LINE
  8
0
 10
90.0941
 20
324.006
 11
89.9059
 21
324.006
  0
LINE
  8
0
 10
97.4435
 20
325.204
 11
97.387
 21
325.204
  0
LINE
  8
0
 10
97.387
 20
325.204
 11
97.3308
 21
325.211
  0
LINE
  8
0
 10
97.3308
 20
325.211
 11
97.2744
 21
325.214
  0
LINE
  8
0
 10
97.2744
 20
325.214
 11
97.2188
 21
325.225
  0
LINE
  8
0
 10
97.2188
 20
325.225
 11
97.1627
 21
325.232
  0
LINE
  8
0
 10
97.1627
 20
325.232
 11
97.1079
 21
325.246
  0
LINE
  8
0
 10
97.1079
 20
325.246
 11
97.0524
 21
325.257
  0
LINE
  8
0
 10
97.0524
 20
325.257
 11
97
 21
325.274
  0
LINE
  8
0
 10
97
 20
325.274
 11
97
 21
325.274
  0
LINE
  8
0
 10
97
 20
325.274
 11
96.9438
 21
325.288
  0
LINE
  8
0
 10
96.9438
 20
325.288
 11
96.7336
 21
325.371
  0
LINE
  8
0
 10
96.7336
 20
325.371
 11
96.5355
 21
325.48
  0
LINE
  8
0
 10
96.5355
 20
325.48
 11
96.3526
 21
325.613
  0
LINE
  8
0
 10
96.3526
 20
325.613
 11
96.1879
 21
325.768
  0
LINE
  8
0
 10
96.1879
 20
325.768
 11
96.0438
 21
325.942
  0
LINE
  8
0
 10
96.0438
 20
325.942
 11
95.9226
 21
326.133
  0
LINE
  8
0
 10
95.9226
 20
326.133
 11
95.8264
 21
326.337
  0
LINE
  8
0
 10
95.8264
 20
326.337
 11
95.7565
 21
326.552
  0
LINE
  8
0
 10
95.7565
 20
326.552
 11
95.7142
 21
326.774
  0
LINE
  8
0
 10
95.7142
 20
326.774
 11
95.7
 21
327
  0
LINE
  8
0
 10
95.7
 20
327
 11
95.7142
 21
327.226
  0
LINE
  8
0
 10
95.7142
 20
327.226
 11
95.7565
 21
327.448
  0
LINE
  8
0
 10
95.7565
 20
327.448
 11
95.8264
 21
327.663
  0
LINE
  8
0
 10
95.8264
 20
327.663
 11
95.9226
 21
327.867
  0
LINE
  8
0
 10
95.9226
 20
327.867
 11
96.0438
 21
328.058
  0
LINE
  8
0
 10
96.0438
 20
328.058
 11
96.1879
 21
328.232
  0
LINE
  8
0
 10
96.1879
 20
328.232
 11
96.3526
 21
328.387
  0
LINE
  8
0
 10
96.3526
 20
328.387
 11
96.5355
 21
328.52
  0
LINE
  8
0
 10
96.5355
 20
328.52
 11
96.7336
 21
328.629
  0
LINE
  8
0
 10
96.7336
 20
328.629
 11
96.9438
 21
328.712
  0
LINE
  8
0
 10
96.9438
 20
328.712
 11
97
 21
328.726
  0
LINE
  8
0
 10
97
 20
328.726
 11
97
 21
328.726
  0
LINE
  8
0
 10
97
 20
328.726
 11
97.0524
 21
328.743
  0
LINE
  8
0
 10
97.0524
 20
328.743
 11
97.1079
 21
328.754
  0
LINE
  8
0
 10
97.1079
 20
328.754
 11
97.1627
 21
328.768
  0
LINE
  8
0
 10
97.1627
 20
328.768
 11
97.2188
 21
328.775
  0
LINE
  8
0
 10
97.2188
 20
328.775
 11
97.2744
 21
328.786
  0
LINE
  8
0
 10
97.2744
 20
328.786
 11
97.3308
 21
328.789
  0
LINE
  8
0
 10
97.3308
 20
328.789
 11
97.387
 21
328.796
  0
LINE
  8
0
 10
97.387
 20
328.796
 11
97.4435
 21
328.796
  0
LINE
  8
0
 10
97.4435
 20
328.796
 11
97.5
 21
328.8
  0
LINE
  8
0
 10
97.5
 20
328.8
 11
97.5564
 21
328.796
  0
LINE
  8
0
 10
97.5564
 20
328.796
 11
97.613
 21
328.796
  0
LINE
  8
0
 10
97.613
 20
328.796
 11
97.6691
 21
328.789
  0
LINE
  8
0
 10
97.6691
 20
328.789
 11
97.7256
 21
328.786
  0
LINE
  8
0
 10
97.7256
 20
328.786
 11
97.7812
 21
328.775
  0
LINE
  8
0
 10
97.7812
 20
328.775
 11
97.8373
 21
328.768
  0
LINE
  8
0
 10
97.8373
 20
328.768
 11
97.8921
 21
328.754
  0
LINE
  8
0
 10
97.8921
 20
328.754
 11
97.9476
 21
328.743
  0
LINE
  8
0
 10
97.9476
 20
328.743
 11
98.0014
 21
328.726
  0
LINE
  8
0
 10
98.0014
 20
328.726
 11
98.0562
 21
328.712
  0
LINE
  8
0
 10
98.0562
 20
328.712
 11
98.1088
 21
328.691
  0
LINE
  8
0
 10
98.1088
 20
328.691
 11
98.1626
 21
328.674
  0
LINE
  8
0
 10
98.1626
 20
328.674
 11
98.2138
 21
328.65
  0
LINE
  8
0
 10
98.2138
 20
328.65
 11
98.2664
 21
328.629
  0
LINE
  8
0
 10
98.2664
 20
328.629
 11
98.316
 21
328.601
  0
LINE
  8
0
 10
98.316
 20
328.601
 11
98.3672
 21
328.577
  0
LINE
  8
0
 10
98.3672
 20
328.577
 11
98.4149
 21
328.547
  0
LINE
  8
0
 10
98.4149
 20
328.547
 11
98.4645
 21
328.52
  0
LINE
  8
0
 10
98.4645
 20
328.52
 11
98.5103
 21
328.487
  0
LINE
  8
0
 10
98.5103
 20
328.487
 11
98.558
 21
328.456
  0
LINE
  8
0
 10
98.558
 20
328.456
 11
98.6016
 21
328.42
  0
LINE
  8
0
 10
98.6016
 20
328.42
 11
98.6474
 21
328.387
  0
LINE
  8
0
 10
98.6474
 20
328.387
 11
98.6886
 21
328.348
  0
LINE
  8
0
 10
98.6886
 20
328.348
 11
98.7322
 21
328.312
  0
LINE
  8
0
 10
98.7322
 20
328.312
 11
98.7709
 21
328.271
  0
LINE
  8
0
 10
98.7709
 20
328.271
 11
98.8121
 21
328.232
  0
LINE
  8
0
 10
98.8121
 20
328.232
 11
98.8482
 21
328.189
  0
LINE
  8
0
 10
98.8482
 20
328.189
 11
98.8869
 21
328.147
  0
LINE
  8
0
 10
98.8869
 20
328.147
 11
98.9202
 21
328.102
  0
LINE
  8
0
 10
98.9202
 20
328.102
 11
98.9562
 21
328.058
  0
LINE
  8
0
 10
98.9562
 20
328.058
 11
98.9865
 21
328.01
  0
LINE
  8
0
 10
98.9865
 20
328.01
 11
99.0198
 21
327.964
  0
LINE
  8
0
 10
99.0198
 20
327.964
 11
99.047
 21
327.915
  0
LINE
  8
0
 10
99.047
 20
327.915
 11
99.0773
 21
327.867
  0
LINE
  8
0
 10
99.0773
 20
327.867
 11
99.1014
 21
327.816
  0
LINE
  8
0
 10
99.1014
 20
327.816
 11
99.1287
 21
327.766
  0
LINE
  8
0
 10
99.1287
 20
327.766
 11
99.1495
 21
327.714
  0
LINE
  8
0
 10
99.1495
 20
327.714
 11
99.1736
 21
327.663
  0
LINE
  8
0
 10
99.1736
 20
327.663
 11
99.1911
 21
327.609
  0
LINE
  8
0
 10
99.1911
 20
327.609
 11
99.2119
 21
327.556
  0
LINE
  8
0
 10
99.2119
 20
327.556
 11
99.226
 21
327.501
  0
LINE
  8
0
 10
99.226
 20
327.501
 11
99.2434
 21
327.448
  0
LINE
  8
0
 10
99.2434
 20
327.448
 11
99.254
 21
327.392
  0
LINE
  8
0
 10
99.254
 20
327.392
 11
99.2681
 21
327.337
  0
LINE
  8
0
 10
99.2681
 20
327.337
 11
99.2752
 21
327.281
  0
LINE
  8
0
 10
99.2752
 20
327.281
 11
99.2858
 21
327.226
  0
LINE
  8
0
 10
99.2858
 20
327.226
 11
99.2894
 21
327.169
  0
LINE
  8
0
 10
99.2894
 20
327.169
 11
99.2964
 21
327.113
  0
LINE
  8
0
 10
99.2964
 20
327.113
 11
99.2964
 21
327.056
  0
LINE
  8
0
 10
99.2964
 20
327.056
 11
99.3
 21
327
  0
LINE
  8
0
 10
99.3
 20
327
 11
99.2964
 21
326.944
  0
LINE
  8
0
 10
99.2964
 20
326.944
 11
99.2964
 21
326.887
  0
LINE
  8
0
 10
99.2964
 20
326.887
 11
99.2894
 21
326.831
  0
LINE
  8
0
 10
99.2894
 20
326.831
 11
99.2858
 21
326.774
  0
LINE
  8
0
 10
99.2858
 20
326.774
 11
99.2752
 21
326.719
  0
LINE
  8
0
 10
99.2752
 20
326.719
 11
99.2681
 21
326.663
  0
LINE
  8
0
 10
99.2681
 20
326.663
 11
99.254
 21
326.608
  0
LINE
  8
0
 10
99.254
 20
326.608
 11
99.2434
 21
326.552
  0
LINE
  8
0
 10
99.2434
 20
326.552
 11
99.226
 21
326.499
  0
LINE
  8
0
 10
99.226
 20
326.499
 11
99.2119
 21
326.444
  0
LINE
  8
0
 10
99.2119
 20
326.444
 11
99.1911
 21
326.391
  0
LINE
  8
0
 10
99.1911
 20
326.391
 11
99.1736
 21
326.337
  0
LINE
  8
0
 10
99.1736
 20
326.337
 11
99.1495
 21
326.286
  0
LINE
  8
0
 10
99.1495
 20
326.286
 11
99.1287
 21
326.234
  0
LINE
  8
0
 10
99.1287
 20
326.234
 11
99.1014
 21
326.184
  0
LINE
  8
0
 10
99.1014
 20
326.184
 11
99.0773
 21
326.133
  0
LINE
  8
0
 10
99.0773
 20
326.133
 11
99.047
 21
326.085
  0
LINE
  8
0
 10
99.047
 20
326.085
 11
99.0198
 21
326.036
  0
LINE
  8
0
 10
99.0198
 20
326.036
 11
98.9865
 21
325.99
  0
LINE
  8
0
 10
98.9865
 20
325.99
 11
98.9562
 21
325.942
  0
LINE
  8
0
 10
98.9562
 20
325.942
 11
98.9202
 21
325.898
  0
LINE
  8
0
 10
98.9202
 20
325.898
 11
98.8869
 21
325.853
  0
LINE
  8
0
 10
98.8869
 20
325.853
 11
98.8482
 21
325.811
  0
LINE
  8
0
 10
98.8482
 20
325.811
 11
98.8121
 21
325.768
  0
LINE
  8
0
 10
98.8121
 20
325.768
 11
98.7709
 21
325.729
  0
LINE
  8
0
 10
98.7709
 20
325.729
 11
98.7322
 21
325.688
  0
LINE
  8
0
 10
98.7322
 20
325.688
 11
98.6886
 21
325.652
  0
LINE
  8
0
 10
98.6886
 20
325.652
 11
98.6474
 21
325.613
  0
LINE
  8
0
 10
98.6474
 20
325.613
 11
98.6016
 21
325.58
  0
LINE
  8
0
 10
98.6016
 20
325.58
 11
98.558
 21
325.544
  0
LINE
  8
0
 10
98.558
 20
325.544
 11
98.5103
 21
325.513
  0
LINE
  8
0
 10
98.5103
 20
325.513
 11
98.4645
 21
325.48
  0
LINE
  8
0
 10
98.4645
 20
325.48
 11
98.4149
 21
325.453
  0
LINE
  8
0
 10
98.4149
 20
325.453
 11
98.3672
 21
325.423
  0
LINE
  8
0
 10
98.3672
 20
325.423
 11
98.316
 21
325.399
  0
LINE
  8
0
 10
98.316
 20
325.399
 11
98.2664
 21
325.371
  0
LINE
  8
0
 10
98.2664
 20
325.371
 11
98.2138
 21
325.35
  0
LINE
  8
0
 10
98.2138
 20
325.35
 11
98.1626
 21
325.326
  0
LINE
  8
0
 10
98.1626
 20
325.326
 11
98.1088
 21
325.309
  0
LINE
  8
0
 10
98.1088
 20
325.309
 11
98.0562
 21
325.288
  0
LINE
  8
0
 10
98.0562
 20
325.288
 11
98.0014
 21
325.274
  0
LINE
  8
0
 10
98.0014
 20
325.274
 11
97.9476
 21
325.257
  0
LINE
  8
0
 10
97.9476
 20
325.257
 11
97.8921
 21
325.246
  0
LINE
  8
0
 10
97.8921
 20
325.246
 11
97.8373
 21
325.232
  0
LINE
  8
0
 10
97.8373
 20
325.232
 11
97.7812
 21
325.225
  0
LINE
  8
0
 10
97.7812
 20
325.225
 11
97.7256
 21
325.214
  0
LINE
  8
0
 10
97.7256
 20
325.214
 11
97.6691
 21
325.211
  0
LINE
  8
0
 10
97.6691
 20
325.211
 11
97.613
 21
325.204
  0
LINE
  8
0
 10
97.613
 20
325.204
 11
97.5564
 21
325.204
  0
LINE
  8
0
 10
97.5564
 20
325.204
 11
97.5
 21
325.2
  0
LINE
  8
0
 10
97.5
 20
325.2
 11
97.4435
 21
325.204
  0
LINE
  8
0
 10
89.887
 20
317.704
 11
89.6627
 21
317.732
  0
LINE
  8
0
 10
89.6627
 20
317.732
 11
89.4438
 21
317.788
  0
LINE
  8
0
 10
89.4438
 20
317.788
 11
89.2336
 21
317.871
  0
LINE
  8
0
 10
89.2336
 20
317.871
 11
89.0355
 21
317.98
  0
LINE
  8
0
 10
89.0355
 20
317.98
 11
88.8526
 21
318.113
  0
LINE
  8
0
 10
88.8526
 20
318.113
 11
88.6879
 21
318.268
  0
LINE
  8
0
 10
88.6879
 20
318.268
 11
88.5438
 21
318.442
  0
LINE
  8
0
 10
88.5438
 20
318.442
 11
88.4226
 21
318.633
  0
LINE
  8
0
 10
88.4226
 20
318.633
 11
88.3264
 21
318.837
  0
LINE
  8
0
 10
88.3264
 20
318.837
 11
88.2565
 21
319.052
  0
LINE
  8
0
 10
88.2565
 20
319.052
 11
88.2142
 21
319.274
  0
LINE
  8
0
 10
88.2142
 20
319.274
 11
88.2
 21
319.5
  0
LINE
  8
0
 10
88.2
 20
319.5
 11
88.2142
 21
319.726
  0
LINE
  8
0
 10
88.2142
 20
319.726
 11
88.2565
 21
319.948
  0
LINE
  8
0
 10
88.2565
 20
319.948
 11
88.3264
 21
320.163
  0
LINE
  8
0
 10
88.3264
 20
320.163
 11
88.4226
 21
320.367
  0
LINE
  8
0
 10
88.4226
 20
320.367
 11
88.5438
 21
320.558
  0
LINE
  8
0
 10
88.5438
 20
320.558
 11
88.6879
 21
320.732
  0
LINE
  8
0
 10
88.6879
 20
320.732
 11
88.8526
 21
320.887
  0
LINE
  8
0
 10
88.8526
 20
320.887
 11
89.0355
 21
321.02
  0
LINE
  8
0
 10
89.0355
 20
321.02
 11
89.2336
 21
321.129
  0
LINE
  8
0
 10
89.2336
 20
321.129
 11
89.4438
 21
321.212
  0
LINE
  8
0
 10
89.4438
 20
321.212
 11
89.6627
 21
321.268
  0
LINE
  8
0
 10
89.6627
 20
321.268
 11
89.887
 21
321.296
  0
LINE
  8
0
 10
89.887
 20
321.296
 11
90.113
 21
321.296
  0
LINE
  8
0
 10
90.113
 20
321.296
 11
90.3373
 21
321.268
  0
LINE
  8
0
 10
90.3373
 20
321.268
 11
90.5562
 21
321.212
  0
LINE
  8
0
 10
90.5562
 20
321.212
 11
90.7664
 21
321.129
  0
LINE
  8
0
 10
90.7664
 20
321.129
 11
90.9645
 21
321.02
  0
LINE
  8
0
 10
90.9645
 20
321.02
 11
91.1474
 21
320.887
  0
LINE
  8
0
 10
91.1474
 20
320.887
 11
91.3121
 21
320.732
  0
LINE
  8
0
 10
91.3121
 20
320.732
 11
91.4562
 21
320.558
  0
LINE
  8
0
 10
91.4562
 20
320.558
 11
91.5773
 21
320.367
  0
LINE
  8
0
 10
91.5773
 20
320.367
 11
91.6736
 21
320.163
  0
LINE
  8
0
 10
91.6736
 20
320.163
 11
91.7434
 21
319.948
  0
LINE
  8
0
 10
91.7434
 20
319.948
 11
91.7858
 21
319.726
  0
LINE
  8
0
 10
91.7858
 20
319.726
 11
91.8
 21
319.5
  0
LINE
  8
0
 10
91.8
 20
319.5
 11
91.7858
 21
319.274
  0
LINE
  8
0
 10
91.7858
 20
319.274
 11
91.7434
 21
319.052
  0
LINE
  8
0
 10
91.7434
 20
319.052
 11
91.6736
 21
318.837
  0
LINE
  8
0
 10
91.6736
 20
318.837
 11
91.5773
 21
318.633
  0
LINE
  8
0
 10
91.5773
 20
318.633
 11
91.4562
 21
318.442
  0
LINE
  8
0
 10
91.4562
 20
318.442
 11
91.3121
 21
318.268
  0
LINE
  8
0
 10
91.3121
 20
318.268
 11
91.1474
 21
318.113
  0
LINE
  8
0
 10
91.1474
 20
318.113
 11
90.9645
 21
317.98
  0
LINE
  8
0
 10
90.9645
 20
317.98
 11
90.7664
 21
317.871
  0
LINE
  8
0
 10
90.7664
 20
317.871
 11
90.5562
 21
317.788
  0
LINE
  8
0
 10
90.5562
 20
317.788
 11
90.3373
 21
317.732
  0
LINE
  8
0
 10
90.3373
 20
317.732
 11
90.113
 21
317.704
  0
LINE
  8
0
 10
90.113
 20
317.704
 11
89.887
 21
317.704
  0
LINE
  8
0
 10
125.506
 20
334
 11
121.994
 21
334
  0
LINE
  8
0
 10
121.994
 20
334
 11
121.994
 21
320
  0
LINE
  8
0
 10
121.994
 20
320
 11
125.506
 21
320
  0
LINE
  8
0
 10
125.506
 20
320
 11
125.506
 21
334
  0
LINE
  8
0
 10
7
 20
314
 11
6.96057
 21
314.627
  0
LINE
  8
0
 10
6.96057
 20
314.627
 11
6.84291
 21
315.243
  0
LINE
  8
0
 10
6.84291
 20
315.243
 11
6.64888
 21
315.841
  0
LINE
  8
0
 10
6.64888
 20
315.841
 11
6.38153
 21
316.409
  0
LINE
  8
0
 10
6.38153
 20
316.409
 11
6.04507
 21
316.939
  0
LINE
  8
0
 10
6.04507
 20
316.939
 11
5.64484
 21
317.423
  0
LINE
  8
0
 10
5.64484
 20
317.423
 11
5.18712
 21
317.853
  0
LINE
  8
0
 10
5.18712
 20
317.853
 11
4.67912
 21
318.222
  0
LINE
  8
0
 10
4.67912
 20
318.222
 11
4.12889
 21
318.524
  0
LINE
  8
0
 10
4.12889
 20
318.524
 11
3.54507
 21
318.755
  0
LINE
  8
0
 10
3.54507
 20
318.755
 11
2.9369
 21
318.911
  0
LINE
  8
0
 10
2.9369
 20
318.911
 11
2.31395
 21
318.99
  0
LINE
  8
0
 10
2.31395
 20
318.99
 11
-2.31395
 21
318.99
  0
LINE
  8
0
 10
-2.31395
 20
318.99
 11
-2.9369
 21
318.911
  0
LINE
  8
0
 10
-2.9369
 20
318.911
 11
-3.54507
 21
318.755
  0
LINE
  8
0
 10
-3.54507
 20
318.755
 11
-4.12889
 21
318.524
  0
LINE
  8
0
 10
-4.12889
 20
318.524
 11
-4.67912
 21
318.222
  0
LINE
  8
0
 10
-4.67912
 20
318.222
 11
-5.18712
 21
317.853
  0
LINE
  8
0
 10
-5.18712
 20
317.853
 11
-5.64484
 21
317.423
  0
LINE
  8
0
 10
-5.64484
 20
317.423
 11
-6.04507
 21
316.939
  0
LINE
  8
0
 10
-6.04507
 20
316.939
 11
-6.38153
 21
316.409
  0
LINE
  8
0
 10
-6.38153
 20
316.409
 11
-6.64888
 21
315.841
  0
LINE
  8
0
 10
-6.64888
 20
315.841
 11
-6.84291
 21
315.243
  0
LINE
  8
0
 10
-6.84291
 20
315.243
 11
-6.96057
 21
314.627
  0
LINE
  8
0
 10
-6.96057
 20
314.627
 11
-7
 21
314
  0
LINE
  8
0
 10
-7
 20
314
 11
-7
 21
298.994
  0
LINE
  8
0
 10
-7
 20
298.994
 11
7
 21
298.994
  0
LINE
  8
0
 10
7
 20
298.994
 11
7
 21
314
  0
LINE
  8
0
 10
-0.194641
 20
308.906
 11
-0.580872
 21
308.955
  0
LINE
  8
0
 10
-0.580872
 20
308.955
 11
-0.957947
 21
309.052
  0
LINE
  8
0
 10
-0.957947
 20
309.052
 11
-1.3199
 21
309.195
  0
LINE
  8
0
 10
-1.3199
 20
309.195
 11
-1.66106
 21
309.383
  0
LINE
  8
0
 10
-1.66106
 20
309.383
 11
-1.97601
 21
309.611
  0
LINE
  8
0
 10
-1.97601
 20
309.611
 11
-2.2598
 21
309.878
  0
LINE
  8
0
 10
-2.2598
 20
309.878
 11
-2.50795
 21
310.178
  0
LINE
  8
0
 10
-2.50795
 20
310.178
 11
-2.71654
 21
310.507
  0
LINE
  8
0
 10
-2.71654
 20
310.507
 11
-2.88229
 21
310.859
  0
LINE
  8
0
 10
-2.88229
 20
310.859
 11
-3.00259
 21
311.229
  0
LINE
  8
0
 10
-3.00259
 20
311.229
 11
-3.07555
 21
311.611
  0
LINE
  8
0
 10
-3.07555
 20
311.611
 11
-3.09999
 21
312
  0
LINE
  8
0
 10
-3.09999
 20
312
 11
-3.07555
 21
312.389
  0
LINE
  8
0
 10
-3.07555
 20
312.389
 11
-3.00259
 21
312.771
  0
LINE
  8
0
 10
-3.00259
 20
312.771
 11
-2.88229
 21
313.141
  0
LINE
  8
0
 10
-2.88229
 20
313.141
 11
-2.71654
 21
313.493
  0
LINE
  8
0
 10
-2.71654
 20
313.493
 11
-2.50795
 21
313.822
  0
LINE
  8
0
 10
-2.50795
 20
313.822
 11
-2.2598
 21
314.122
  0
LINE
  8
0
 10
-2.2598
 20
314.122
 11
-1.97601
 21
314.389
  0
LINE
  8
0
 10
-1.97601
 20
314.389
 11
-1.66106
 21
314.617
  0
LINE
  8
0
 10
-1.66106
 20
314.617
 11
-1.3199
 21
314.805
  0
LINE
  8
0
 10
-1.3199
 20
314.805
 11
-0.957947
 21
314.948
  0
LINE
  8
0
 10
-0.957947
 20
314.948
 11
-0.580872
 21
315.045
  0
LINE
  8
0
 10
-0.580872
 20
315.045
 11
-0.194641
 21
315.094
  0
LINE
  8
0
 10
-0.194641
 20
315.094
 11
0.194641
 21
315.094
  0
LINE
  8
0
 10
0.194641
 20
315.094
 11
0.580872
 21
315.045
  0
LINE
  8
0
 10
0.580872
 20
315.045
 11
0.957947
 21
314.948
  0
LINE
  8
0
 10
0.957947
 20
314.948
 11
1.3199
 21
314.805
  0
LINE
  8
0
 10
1.3199
 20
314.805
 11
1.66106
 21
314.617
  0
LINE
  8
0
 10
1.66106
 20
314.617
 11
1.97601
 21
314.389
  0
LINE
  8
0
 10
1.97601
 20
314.389
 11
2.2598
 21
314.122
  0
LINE
  8
0
 10
2.2598
 20
314.122
 11
2.50795
 21
313.822
  0
LINE
  8
0
 10
2.50795
 20
313.822
 11
2.71654
 21
313.493
  0
LINE
  8
0
 10
2.71654
 20
313.493
 11
2.88229
 21
313.141
  0
LINE
  8
0
 10
2.88229
 20
313.141
 11
3.00259
 21
312.771
  0
LINE
  8
0
 10
3.00259
 20
312.771
 11
3.07555
 21
312.389
  0
LINE
  8
0
 10
3.07555
 20
312.389
 11
3.09999
 21
312
  0
LINE
  8
0
 10
3.09999
 20
312
 11
3.07555
 21
311.611
  0
LINE
  8
0
 10
3.07555
 20
311.611
 11
3.00259
 21
311.229
  0
LINE
  8
0
 10
3.00259
 20
311.229
 11
2.88229
 21
310.859
  0
LINE
  8
0
 10
2.88229
 20
310.859
 11
2.71654
 21
310.507
  0
LINE
  8
0
 10
2.71654
 20
310.507
 11
2.50795
 21
310.178
  0
LINE
  8
0
 10
2.50795
 20
310.178
 11
2.2598
 21
309.878
  0
LINE
  8
0
 10
2.2598
 20
309.878
 11
1.97601
 21
309.611
  0
LINE
  8
0
 10
1.97601
 20
309.611
 11
1.66106
 21
309.383
  0
LINE
  8
0
 10
1.66106
 20
309.383
 11
1.3199
 21
309.195
  0
LINE
  8
0
 10
1.3199
 20
309.195
 11
0.957947
 21
309.052
  0
LINE
  8
0
 10
0.957947
 20
309.052
 11
0.580872
 21
308.955
  0
LINE
  8
0
 10
0.580872
 20
308.955
 11
0.194641
 21
308.906
  0
LINE
  8
0
 10
0.194641
 20
308.906
 11
-0.194641
 21
308.906
  0
LINE
  8
0
 10
-0.113022
 20
302.704
 11
-0.33728
 21
302.732
  0
LINE
  8
0
 10
-0.33728
 20
302.732
 11
-0.556229
 21
302.788
  0
LINE
  8
0
 10
-0.556229
 20
302.788
 11
-0.766388
 21
302.871
  0
LINE
  8
0
 10
-0.766388
 20
302.871
 11
-0.964478
 21
302.98
  0
LINE
  8
0
 10
-0.964478
 20
302.98
 11
-1.14735
 21
303.113
  0
LINE
  8
0
 10
-1.14735
 20
303.113
 11
-1.31213
 21
303.268
  0
LINE
  8
0
 10
-1.31213
 20
303.268
 11
-1.45622
 21
303.442
  0
LINE
  8
0
 10
-1.45622
 20
303.442
 11
-1.57735
 21
303.633
  0
LINE
  8
0
 10
-1.57735
 20
303.633
 11
-1.67358
 21
303.837
  0
LINE
  8
0
 10
-1.67358
 20
303.837
 11
-1.74344
 21
304.052
  0
LINE
  8
0
 10
-1.74344
 20
304.052
 11
-1.7858
 21
304.274
  0
LINE
  8
0
 10
-1.7858
 20
304.274
 11
-1.79999
 21
304.5
  0
LINE
  8
0
 10
-1.79999
 20
304.5
 11
-1.7858
 21
304.726
  0
LINE
  8
0
 10
-1.7858
 20
304.726
 11
-1.74344
 21
304.948
  0
LINE
  8
0
 10
-1.74344
 20
304.948
 11
-1.67358
 21
305.163
  0
LINE
  8
0
 10
-1.67358
 20
305.163
 11
-1.57735
 21
305.367
  0
LINE
  8
0
 10
-1.57735
 20
305.367
 11
-1.45622
 21
305.558
  0
LINE
  8
0
 10
-1.45622
 20
305.558
 11
-1.31213
 21
305.732
  0
LINE
  8
0
 10
-1.31213
 20
305.732
 11
-1.14735
 21
305.887
  0
LINE
  8
0
 10
-1.14735
 20
305.887
 11
-0.964478
 21
306.02
  0
LINE
  8
0
 10
-0.964478
 20
306.02
 11
-0.766388
 21
306.129
  0
LINE
  8
0
 10
-0.766388
 20
306.129
 11
-0.556229
 21
306.212
  0
LINE
  8
0
 10
-0.556229
 20
306.212
 11
-0.33728
 21
306.268
  0
LINE
  8
0
 10
-0.33728
 20
306.268
 11
-0.113022
 21
306.296
  0
LINE
  8
0
 10
-0.113022
 20
306.296
 11
0.113022
 21
306.296
  0
LINE
  8
0
 10
0.113022
 20
306.296
 11
0.33728
 21
306.268
  0
LINE
  8
0
 10
0.33728
 20
306.268
 11
0.556229
 21
306.212
  0
LINE
  8
0
 10
0.556229
 20
306.212
 11
0.766388
 21
306.129
  0
LINE
  8
0
 10
0.766388
 20
306.129
 11
0.964478
 21
306.02
  0
LINE
  8
0
 10
0.964478
 20
306.02
 11
1.14735
 21
305.887
  0
LINE
  8
0
 10
1.14735
 20
305.887
 11
1.31213
 21
305.732
  0
LINE
  8
0
 10
1.31213
 20
305.732
 11
1.45622
 21
305.558
  0
LINE
  8
0
 10
1.45622
 20
305.558
 11
1.57735
 21
305.367
  0
LINE
  8
0
 10
1.57735
 20
305.367
 11
1.67358
 21
305.163
  0
LINE
  8
0
 10
1.67358
 20
305.163
 11
1.74344
 21
304.948
  0
LINE
  8
0
 10
1.74344
 20
304.948
 11
1.7858
 21
304.726
  0
LINE
  8
0
 10
1.7858
 20
304.726
 11
1.79999
 21
304.5
  0
LINE
  8
0
 10
1.79999
 20
304.5
 11
1.7858
 21
304.274
  0
LINE
  8
0
 10
1.7858
 20
304.274
 11
1.74344
 21
304.052
  0
LINE
  8
0
 10
1.74344
 20
304.052
 11
1.67358
 21
303.837
  0
LINE
  8
0
 10
1.67358
 20
303.837
 11
1.57735
 21
303.633
  0
LINE
  8
0
 10
1.57735
 20
303.633
 11
1.45622
 21
303.442
  0
LINE
  8
0
 10
1.45622
 20
303.442
 11
1.31213
 21
303.268
  0
LINE
  8
0
 10
1.31213
 20
303.268
 11
1.14735
 21
303.113
  0
LINE
  8
0
 10
1.14735
 20
303.113
 11
0.964478
 21
302.98
  0
LINE
  8
0
 10
0.964478
 20
302.98
 11
0.766388
 21
302.871
  0
LINE
  8
0
 10
0.766388
 20
302.871
 11
0.556229
 21
302.788
  0
LINE
  8
0
 10
0.556229
 20
302.788
 11
0.33728
 21
302.732
  0
LINE
  8
0
 10
0.33728
 20
302.732
 11
0.113022
 21
302.704
  0
LINE
  8
0
 10
0.113022
 20
302.704
 11
-0.113022
 21
302.704
  0
LINE
  8
0
 10
97
 20
310.006
 11
83
 21
310.006
  0
LINE
  8
0
 10
83
 20
310.006
 11
83
 21
306.494
  0
LINE
  8
0
 10
83
 20
306.494
 11
97
 21
306.494
  0
LINE
  8
0
 10
97
 20
306.494
 11
97
 21
310.006
  0
LINE
  8
0
 10
97
 20
302.506
 11
83
 21
302.506
  0
LINE
  8
0
 10
83
 20
302.506
 11
83
 21
298.994
  0
LINE
  8
0
 10
83
 20
298.994
 11
97
 21
298.994
  0
LINE
  8
0
 10
97
 20
298.994
 11
97
 21
302.506
  0
LINE
  8
0
 10
97
 20
295.006
 11
83
 21
295.006
  0
LINE
  8
0
 10
83
 20
295.006
 11
83
 21
291.494
  0
LINE
  8
0
 10
83
 20
291.494
 11
97
 21
291.494
  0
LINE
  8
0
 10
97
 20
291.494
 11
97
 21
295.006
  0
LINE
  8
0
 10
7
 20
295.006
 11
-7
 21
295.006
  0
LINE
  8
0
 10
-7
 20
295.006
 11
-7
 21
291.494
  0
LINE
  8
0
 10
-7
 20
291.494
 11
7
 21
291.494
  0
LINE
  8
0
 10
7
 20
291.494
 11
7
 21
295.006
  0
LINE
  8
0
 10
7
 20
287.506
 11
-7
 21
287.506
  0
LINE
  8
0
 10
-7
 20
287.506
 11
-7
 21
283.994
  0
LINE
  8
0
 10
-7
 20
283.994
 11
7
 21
283.994
  0
LINE
  8
0
 10
7
 20
283.994
 11
7
 21
287.506
  0
LINE
  8
0
 10
97
 20
287.506
 11
83
 21
287.506
  0
LINE
  8
0
 10
83
 20
287.506
 11
83
 21
283.994
  0
LINE
  8
0
 10
83
 20
283.994
 11
97
 21
283.994
  0
LINE
  8
0
 10
97
 20
283.994
 11
97
 21
287.506
  0
LINE
  8
0
 10
92.9369
 20
260.089
 11
93.5451
 21
260.245
  0
LINE
  8
0
 10
93.5451
 20
260.245
 11
94.1289
 21
260.476
  0
LINE
  8
0
 10
94.1289
 20
260.476
 11
94.6791
 21
260.778
  0
LINE
  8
0
 10
94.6791
 20
260.778
 11
95.1871
 21
261.147
  0
LINE
  8
0
 10
95.1871
 20
261.147
 11
95.6448
 21
261.577
  0
LINE
  8
0
 10
95.6448
 20
261.577
 11
96.0451
 21
262.061
  0
LINE
  8
0
 10
96.0451
 20
262.061
 11
96.3815
 21
262.591
  0
LINE
  8
0
 10
96.3815
 20
262.591
 11
96.6489
 21
263.159
  0
LINE
  8
0
 10
96.6489
 20
263.159
 11
96.8429
 21
263.757
  0
LINE
  8
0
 10
96.8429
 20
263.757
 11
96.9606
 21
264.373
  0
LINE
  8
0
 10
96.9606
 20
264.373
 11
97
 21
265
  0
LINE
  8
0
 10
97
 20
265
 11
97
 21
280.006
  0
LINE
  8
0
 10
97
 20
280.006
 11
83
 21
280.006
  0
LINE
  8
0
 10
83
 20
280.006
 11
83
 21
265
  0
LINE
  8
0
 10
83
 20
265
 11
83.0394
 21
264.373
  0
LINE
  8
0
 10
83.0394
 20
264.373
 11
83.1571
 21
263.757
  0
LINE
  8
0
 10
83.1571
 20
263.757
 11
83.3511
 21
263.159
  0
LINE
  8
0
 10
83.3511
 20
263.159
 11
83.6185
 21
262.591
  0
LINE
  8
0
 10
83.6185
 20
262.591
 11
83.9549
 21
262.061
  0
LINE
  8
0
 10
83.9549
 20
262.061
 11
84.3551
 21
261.577
  0
LINE
  8
0
 10
84.3551
 20
261.577
 11
84.8129
 21
261.147
  0
LINE
  8
0
 10
84.8129
 20
261.147
 11
85.3209
 21
260.778
  0
LINE
  8
0
 10
85.3209
 20
260.778
 11
85.8711
 21
260.476
  0
LINE
  8
0
 10
85.8711
 20
260.476
 11
86.4549
 21
260.245
  0
LINE
  8
0
 10
86.4549
 20
260.245
 11
87.0631
 21
260.089
  0
LINE
  8
0
 10
87.0631
 20
260.089
 11
87.6861
 21
260.01
  0
LINE
  8
0
 10
87.6861
 20
260.01
 11
92.3139
 21
260.01
  0
LINE
  8
0
 10
92.3139
 20
260.01
 11
92.9369
 21
260.089
  0
LINE
  8
0
 10
89.887
 20
272.704
 11
89.6627
 21
272.732
  0
LINE
  8
0
 10
89.6627
 20
272.732
 11
89.4438
 21
272.788
  0
LINE
  8
0
 10
89.4438
 20
272.788
 11
89.2336
 21
272.871
  0
LINE
  8
0
 10
89.2336
 20
272.871
 11
89.0355
 21
272.98
  0
LINE
  8
0
 10
89.0355
 20
272.98
 11
88.8526
 21
273.113
  0
LINE
  8
0
 10
88.8526
 20
273.113
 11
88.6879
 21
273.268
  0
LINE
  8
0
 10
88.6879
 20
273.268
 11
88.5438
 21
273.442
  0
LINE
  8
0
 10
88.5438
 20
273.442
 11
88.4226
 21
273.633
  0
LINE
  8
0
 10
88.4226
 20
273.633
 11
88.3264
 21
273.837
  0
LINE
  8
0
 10
88.3264
 20
273.837
 11
88.2565
 21
274.052
  0
LINE
  8
0
 10
88.2565
 20
274.052
 11
88.2142
 21
274.274
  0
LINE
  8
0
 10
88.2142
 20
274.274
 11
88.2
 21
274.5
  0
LINE
  8
0
 10
88.2
 20
274.5
 11
88.2142
 21
274.726
  0
LINE
  8
0
 10
88.2142
 20
274.726
 11
88.2565
 21
274.948
  0
LINE
  8
0
 10
88.2565
 20
274.948
 11
88.3264
 21
275.163
  0
LINE
  8
0
 10
88.3264
 20
275.163
 11
88.4226
 21
275.367
  0
LINE
  8
0
 10
88.4226
 20
275.367
 11
88.5438
 21
275.558
  0
LINE
  8
0
 10
88.5438
 20
275.558
 11
88.6879
 21
275.732
  0
LINE
  8
0
 10
88.6879
 20
275.732
 11
88.8526
 21
275.887
  0
LINE
  8
0
 10
88.8526
 20
275.887
 11
89.0355
 21
276.02
  0
LINE
  8
0
 10
89.0355
 20
276.02
 11
89.2336
 21
276.129
  0
LINE
  8
0
 10
89.2336
 20
276.129
 11
89.4438
 21
276.212
  0
LINE
  8
0
 10
89.4438
 20
276.212
 11
89.6627
 21
276.268
  0
LINE
  8
0
 10
89.6627
 20
276.268
 11
89.887
 21
276.296
  0
LINE
  8
0
 10
89.887
 20
276.296
 11
90.113
 21
276.296
  0
LINE
  8
0
 10
90.113
 20
276.296
 11
90.3373
 21
276.268
  0
LINE
  8
0
 10
90.3373
 20
276.268
 11
90.5562
 21
276.212
  0
LINE
  8
0
 10
90.5562
 20
276.212
 11
90.7664
 21
276.129
  0
LINE
  8
0
 10
90.7664
 20
276.129
 11
90.9645
 21
276.02
  0
LINE
  8
0
 10
90.9645
 20
276.02
 11
91.1474
 21
275.887
  0
LINE
  8
0
 10
91.1474
 20
275.887
 11
91.3121
 21
275.732
  0
LINE
  8
0
 10
91.3121
 20
275.732
 11
91.4562
 21
275.558
  0
LINE
  8
0
 10
91.4562
 20
275.558
 11
91.5773
 21
275.367
  0
LINE
  8
0
 10
91.5773
 20
275.367
 11
91.6736
 21
275.163
  0
LINE
  8
0
 10
91.6736
 20
275.163
 11
91.7434
 21
274.948
  0
LINE
  8
0
 10
91.7434
 20
274.948
 11
91.7858
 21
274.726
  0
LINE
  8
0
 10
91.7858
 20
274.726
 11
91.8
 21
274.5
  0
LINE
  8
0
 10
91.8
 20
274.5
 11
91.7858
 21
274.274
  0
LINE
  8
0
 10
91.7858
 20
274.274
 11
91.7434
 21
274.052
  0
LINE
  8
0
 10
91.7434
 20
274.052
 11
91.6736
 21
273.837
  0
LINE
  8
0
 10
91.6736
 20
273.837
 11
91.5773
 21
273.633
  0
LINE
  8
0
 10
91.5773
 20
273.633
 11
91.4562
 21
273.442
  0
LINE
  8
0
 10
91.4562
 20
273.442
 11
91.3121
 21
273.268
  0
LINE
  8
0
 10
91.3121
 20
273.268
 11
91.1474
 21
273.113
  0
LINE
  8
0
 10
91.1474
 20
273.113
 11
90.9645
 21
272.98
  0
LINE
  8
0
 10
90.9645
 20
272.98
 11
90.7664
 21
272.871
  0
LINE
  8
0
 10
90.7664
 20
272.871
 11
90.5562
 21
272.788
  0
LINE
  8
0
 10
90.5562
 20
272.788
 11
90.3373
 21
272.732
  0
LINE
  8
0
 10
90.3373
 20
272.732
 11
90.113
 21
272.704
  0
LINE
  8
0
 10
90.113
 20
272.704
 11
89.887
 21
272.704
  0
LINE
  8
0
 10
89.8116
 20
264.006
 11
89.4379
 21
264.053
  0
LINE
  8
0
 10
89.4379
 20
264.053
 11
89.073
 21
264.147
  0
LINE
  8
0
 10
89.073
 20
264.147
 11
88.7227
 21
264.286
  0
LINE
  8
0
 10
88.7227
 20
264.286
 11
88.3925
 21
264.467
  0
LINE
  8
0
 10
88.3925
 20
264.467
 11
88.0877
 21
264.688
  0
LINE
  8
0
 10
88.0877
 20
264.688
 11
87.8131
 21
264.946
  0
LINE
  8
0
 10
87.8131
 20
264.946
 11
87.573
 21
265.237
  0
LINE
  8
0
 10
87.573
 20
265.237
 11
87.3711
 21
265.555
  0
LINE
  8
0
 10
87.3711
 20
265.555
 11
87.2107
 21
265.896
  0
LINE
  8
0
 10
87.2107
 20
265.896
 11
87.0943
 21
266.254
  0
LINE
  8
0
 10
87.0943
 20
266.254
 11
87.0237
 21
266.624
  0
LINE
  8
0
 10
87.0237
 20
266.624
 11
87
 21
267
  0
LINE
  8
0
 10
87
 20
267
 11
87.0237
 21
267.376
  0
LINE
  8
0
 10
87.0237
 20
267.376
 11
87.0943
 21
267.746
  0
LINE
  8
0
 10
87.0943
 20
267.746
 11
87.2107
 21
268.104
  0
LINE
  8
0
 10
87.2107
 20
268.104
 11
87.3711
 21
268.445
  0
LINE
  8
0
 10
87.3711
 20
268.445
 11
87.573
 21
268.763
  0
LINE
  8
0
 10
87.573
 20
268.763
 11
87.8131
 21
269.054
  0
LINE
  8
0
 10
87.8131
 20
269.054
 11
88.0877
 21
269.312
  0
LINE
  8
0
 10
88.0877
 20
269.312
 11
88.3925
 21
269.533
  0
LINE
  8
0
 10
88.3925
 20
269.533
 11
88.7227
 21
269.714
  0
LINE
  8
0
 10
88.7227
 20
269.714
 11
89.073
 21
269.853
  0
LINE
  8
0
 10
89.073
 20
269.853
 11
89.4379
 21
269.947
  0
LINE
  8
0
 10
89.4379
 20
269.947
 11
89.8116
 21
269.994
  0
LINE
  8
0
 10
89.8116
 20
269.994
 11
90.1884
 21
269.994
  0
LINE
  8
0
 10
90.1884
 20
269.994
 11
90.5621
 21
269.947
  0
LINE
  8
0
 10
90.5621
 20
269.947
 11
90.927
 21
269.853
  0
LINE
  8
0
 10
90.927
 20
269.853
 11
91.2773
 21
269.714
  0
LINE
  8
0
 10
91.2773
 20
269.714
 11
91.6075
 21
269.533
  0
LINE
  8
0
 10
91.6075
 20
269.533
 11
91.9123
 21
269.312
  0
LINE
  8
0
 10
91.9123
 20
269.312
 11
92.1869
 21
269.054
  0
LINE
  8
0
 10
92.1869
 20
269.054
 11
92.427
 21
268.763
  0
LINE
  8
0
 10
92.427
 20
268.763
 11
92.6289
 21
268.445
  0
LINE
  8
0
 10
92.6289
 20
268.445
 11
92.7893
 21
268.104
  0
LINE
  8
0
 10
92.7893
 20
268.104
 11
92.9057
 21
267.746
  0
LINE
  8
0
 10
92.9057
 20
267.746
 11
92.9763
 21
267.376
  0
LINE
  8
0
 10
92.9763
 20
267.376
 11
93
 21
267
  0
LINE
  8
0
 10
93
 20
267
 11
92.9763
 21
266.624
  0
LINE
  8
0
 10
92.9763
 20
266.624
 11
92.9057
 21
266.254
  0
LINE
  8
0
 10
92.9057
 20
266.254
 11
92.7893
 21
265.896
  0
LINE
  8
0
 10
92.7893
 20
265.896
 11
92.6289
 21
265.555
  0
LINE
  8
0
 10
92.6289
 20
265.555
 11
92.427
 21
265.237
  0
LINE
  8
0
 10
92.427
 20
265.237
 11
92.1869
 21
264.946
  0
LINE
  8
0
 10
92.1869
 20
264.946
 11
91.9123
 21
264.688
  0
LINE
  8
0
 10
91.9123
 20
264.688
 11
91.6075
 21
264.467
  0
LINE
  8
0
 10
91.6075
 20
264.467
 11
91.2773
 21
264.286
  0
LINE
  8
0
 10
91.2773
 20
264.286
 11
90.927
 21
264.147
  0
LINE
  8
0
 10
90.927
 20
264.147
 11
90.5621
 21
264.053
  0
LINE
  8
0
 10
90.5621
 20
264.053
 11
90.1884
 21
264.006
  0
LINE
  8
0
 10
90.1884
 20
264.006
 11
89.8116
 21
264.006
  0
LINE
  8
0
 10
7
 20
280.006
 11
-7
 21
280.006
  0
LINE
  8
0
 10
-7
 20
280.006
 11
-7
 21
276.494
  0
LINE
  8
0
 10
-7
 20
276.494
 11
7
 21
276.494
  0
LINE
  8
0
 10
7
 20
276.494
 11
7
 21
280.006
  0
LINE
  8
0
 10
7
 20
272.506
 11
-7
 21
272.506
  0
LINE
  8
0
 10
-7
 20
272.506
 11
-7
 21
268.994
  0
LINE
  8
0
 10
-7
 20
268.994
 11
7
 21
268.994
  0
LINE
  8
0
 10
7
 20
268.994
 11
7
 21
272.506
  0
LINE
  8
0
 10
13.0057
 20
259
 11
7
 21
259
  0
LINE
  8
0
 10
7
 20
259
 11
7
 21
265.006
  0
LINE
  8
0
 10
7
 20
265.006
 11
-7
 21
265.006
  0
LINE
  8
0
 10
-7
 20
265.006
 11
-7
 21
250
  0
LINE
  8
0
 10
-7
 20
250
 11
-6.99013
 21
249.843
  0
LINE
  8
0
 10
-6.99013
 20
249.843
 11
-6.99013
 21
249.686
  0
LINE
  8
0
 10
-6.99013
 20
249.686
 11
-6.97043
 21
249.53
  0
LINE
  8
0
 10
-6.97043
 20
249.53
 11
-6.96057
 21
249.373
  0
LINE
  8
0
 10
-6.96057
 20
249.373
 11
-6.93112
 21
249.219
  0
LINE
  8
0
 10
-6.93112
 20
249.219
 11
-6.91142
 21
249.063
  0
LINE
  8
0
 10
-6.91142
 20
249.063
 11
-6.87234
 21
248.911
  0
LINE
  8
0
 10
-6.87234
 20
248.911
 11
-6.84291
 21
248.757
  0
LINE
  8
0
 10
-6.84291
 20
248.757
 11
-6.79436
 21
248.607
  0
LINE
  8
0
 10
-6.79436
 20
248.607
 11
-6.75528
 21
248.455
  0
LINE
  8
0
 10
-6.75528
 20
248.455
 11
-6.69743
 21
248.309
  0
LINE
  8
0
 10
-6.69743
 20
248.309
 11
-6.64888
 21
248.159
  0
LINE
  8
0
 10
-6.64888
 20
248.159
 11
-6.58197
 21
248.017
  0
LINE
  8
0
 10
-6.58197
 20
248.017
 11
-6.52412
 21
247.871
  0
LINE
  8
0
 10
-6.52412
 20
247.871
 11
-6.44843
 21
247.733
  0
LINE
  8
0
 10
-6.44843
 20
247.733
 11
-6.38153
 21
247.591
  0
LINE
  8
0
 10
-6.38153
 20
247.591
 11
-6.29733
 21
247.459
  0
LINE
  8
0
 10
-6.29733
 20
247.459
 11
-6.22163
 21
247.321
  0
LINE
  8
0
 10
-6.22163
 20
247.321
 11
-6.12927
 21
247.194
  0
LINE
  8
0
 10
-6.12927
 20
247.194
 11
-6.04507
 21
247.061
  0
LINE
  8
0
 10
-6.04507
 20
247.061
 11
-5.94492
 21
246.94
  0
LINE
  8
0
 10
-5.94492
 20
246.94
 11
-5.85255
 21
246.813
  0
LINE
  8
0
 10
-5.85255
 20
246.813
 11
-5.745
 21
246.698
  0
LINE
  8
0
 10
-5.745
 20
246.698
 11
-5.64484
 21
246.577
  0
LINE
  8
0
 10
-5.64484
 20
246.577
 11
-5.53029
 21
246.47
  0
LINE
  8
0
 10
-5.53029
 20
246.47
 11
-5.42273
 21
246.355
  0
LINE
  8
0
 10
-5.42273
 20
246.355
 11
-5.30165
 21
246.255
  0
LINE
  8
0
 10
-5.30165
 20
246.255
 11
-5.18712
 21
246.147
  0
LINE
  8
0
 10
-5.18712
 20
246.147
 11
-5.06
 21
246.055
  0
LINE
  8
0
 10
-5.06
 20
246.055
 11
-4.93892
 21
245.955
  0
LINE
  8
0
 10
-4.93892
 20
245.955
 11
-4.80624
 21
245.871
  0
LINE
  8
0
 10
-4.80624
 20
245.871
 11
-4.67912
 21
245.778
  0
LINE
  8
0
 10
-4.67912
 20
245.778
 11
-4.54143
 21
245.703
  0
LINE
  8
0
 10
-4.54143
 20
245.703
 11
-4.40877
 21
245.618
  0
LINE
  8
0
 10
-4.40877
 20
245.618
 11
-4.26659
 21
245.552
  0
LINE
  8
0
 10
-4.26659
 20
245.552
 11
-4.12889
 21
245.476
  0
LINE
  8
0
 10
-4.12889
 20
245.476
 11
-3.98279
 21
245.418
  0
LINE
  8
0
 10
-3.98279
 20
245.418
 11
-3.84062
 21
245.351
  0
LINE
  8
0
 10
-3.84062
 20
245.351
 11
-3.69118
 21
245.303
  0
LINE
  8
0
 10
-3.69118
 20
245.303
 11
-3.54507
 21
245.245
  0
LINE
  8
0
 10
-3.54507
 20
245.245
 11
-3.39288
 21
245.206
  0
LINE
  8
0
 10
-3.39288
 20
245.206
 11
-3.24344
 21
245.157
  0
LINE
  8
0
 10
-3.24344
 20
245.157
 11
-3.0891
 21
245.128
  0
LINE
  8
0
 10
-3.0891
 20
245.128
 11
-2.9369
 21
245.089
  0
LINE
  8
0
 10
-2.9369
 20
245.089
 11
-2.78101
 21
245.069
  0
LINE
  8
0
 10
-2.78101
 20
245.069
 11
-2.62666
 21
245.039
  0
LINE
  8
0
 10
-2.62666
 20
245.039
 11
-2.46983
 21
245.03
  0
LINE
  8
0
 10
-2.46983
 20
245.03
 11
-2.31395
 21
245.01
  0
LINE
  8
0
 10
-2.31395
 20
245.01
 11
-2.15681
 21
245.01
  0
LINE
  8
0
 10
-2.15681
 20
245.01
 11
-2
 21
245
  0
LINE
  8
0
 10
-2
 20
245
 11
13.0057
 21
245
  0
LINE
  8
0
 10
13.0057
 20
245
 11
13.0057
 21
259
  0
LINE
  8
0
 10
-0.113022
 20
257.704
 11
-0.33728
 21
257.732
  0
LINE
  8
0
 10
-0.33728
 20
257.732
 11
-0.556229
 21
257.788
  0
LINE
  8
0
 10
-0.556229
 20
257.788
 11
-0.766388
 21
257.871
  0
LINE
  8
0
 10
-0.766388
 20
257.871
 11
-0.964478
 21
257.98
  0
LINE
  8
0
 10
-0.964478
 20
257.98
 11
-1.14735
 21
258.113
  0
LINE
  8
0
 10
-1.14735
 20
258.113
 11
-1.31213
 21
258.268
  0
LINE
  8
0
 10
-1.31213
 20
258.268
 11
-1.45622
 21
258.442
  0
LINE
  8
0
 10
-1.45622
 20
258.442
 11
-1.57735
 21
258.633
  0
LINE
  8
0
 10
-1.57735
 20
258.633
 11
-1.67358
 21
258.837
  0
LINE
  8
0
 10
-1.67358
 20
258.837
 11
-1.74344
 21
259.052
  0
LINE
  8
0
 10
-1.74344
 20
259.052
 11
-1.7858
 21
259.274
  0
LINE
  8
0
 10
-1.7858
 20
259.274
 11
-1.79999
 21
259.5
  0
LINE
  8
0
 10
-1.79999
 20
259.5
 11
-1.7858
 21
259.726
  0
LINE
  8
0
 10
-1.7858
 20
259.726
 11
-1.74344
 21
259.948
  0
LINE
  8
0
 10
-1.74344
 20
259.948
 11
-1.67358
 21
260.163
  0
LINE
  8
0
 10
-1.67358
 20
260.163
 11
-1.57735
 21
260.367
  0
LINE
  8
0
 10
-1.57735
 20
260.367
 11
-1.45622
 21
260.558
  0
LINE
  8
0
 10
-1.45622
 20
260.558
 11
-1.31213
 21
260.732
  0
LINE
  8
0
 10
-1.31213
 20
260.732
 11
-1.14735
 21
260.887
  0
LINE
  8
0
 10
-1.14735
 20
260.887
 11
-0.964478
 21
261.02
  0
LINE
  8
0
 10
-0.964478
 20
261.02
 11
-0.766388
 21
261.129
  0
LINE
  8
0
 10
-0.766388
 20
261.129
 11
-0.556229
 21
261.212
  0
LINE
  8
0
 10
-0.556229
 20
261.212
 11
-0.33728
 21
261.268
  0
LINE
  8
0
 10
-0.33728
 20
261.268
 11
-0.113022
 21
261.296
  0
LINE
  8
0
 10
-0.113022
 20
261.296
 11
0.113022
 21
261.296
  0
LINE
  8
0
 10
0.113022
 20
261.296
 11
0.33728
 21
261.268
  0
LINE
  8
0
 10
0.33728
 20
261.268
 11
0.556229
 21
261.212
  0
LINE
  8
0
 10
0.556229
 20
261.212
 11
0.766388
 21
261.129
  0
LINE
  8
0
 10
0.766388
 20
261.129
 11
0.964478
 21
261.02
  0
LINE
  8
0
 10
0.964478
 20
261.02
 11
1.14735
 21
260.887
  0
LINE
  8
0
 10
1.14735
 20
260.887
 11
1.31213
 21
260.732
  0
LINE
  8
0
 10
1.31213
 20
260.732
 11
1.45622
 21
260.558
  0
LINE
  8
0
 10
1.45622
 20
260.558
 11
1.57735
 21
260.367
  0
LINE
  8
0
 10
1.57735
 20
260.367
 11
1.67358
 21
260.163
  0
LINE
  8
0
 10
1.67358
 20
260.163
 11
1.74344
 21
259.948
  0
LINE
  8
0
 10
1.74344
 20
259.948
 11
1.7858
 21
259.726
  0
LINE
  8
0
 10
1.7858
 20
259.726
 11
1.79999
 21
259.5
  0
LINE
  8
0
 10
1.79999
 20
259.5
 11
1.7858
 21
259.274
  0
LINE
  8
0
 10
1.7858
 20
259.274
 11
1.74344
 21
259.052
  0
LINE
  8
0
 10
1.74344
 20
259.052
 11
1.67358
 21
258.837
  0
LINE
  8
0
 10
1.67358
 20
258.837
 11
1.57735
 21
258.633
  0
LINE
  8
0
 10
1.57735
 20
258.633
 11
1.45622
 21
258.442
  0
LINE
  8
0
 10
1.45622
 20
258.442
 11
1.31213
 21
258.268
  0
LINE
  8
0
 10
1.31213
 20
258.268
 11
1.14735
 21
258.113
  0
LINE
  8
0
 10
1.14735
 20
258.113
 11
0.964478
 21
257.98
  0
LINE
  8
0
 10
0.964478
 20
257.98
 11
0.766388
 21
257.871
  0
LINE
  8
0
 10
0.766388
 20
257.871
 11
0.556229
 21
257.788
  0
LINE
  8
0
 10
0.556229
 20
257.788
 11
0.33728
 21
257.732
  0
LINE
  8
0
 10
0.33728
 20
257.732
 11
0.113022
 21
257.704
  0
LINE
  8
0
 10
0.113022
 20
257.704
 11
-0.113022
 21
257.704
  0
LINE
  8
0
 10
-0.097229
 20
248.906
 11
-0.29129
 21
248.918
  0
LINE
  8
0
 10
-0.29129
 20
248.918
 11
-0.484222
 21
248.943
  0
LINE
  8
0
 10
-0.484222
 20
248.943
 11
-0.675232
 21
248.979
  0
LINE
  8
0
 10
-0.675232
 20
248.979
 11
-0.863571
 21
249.027
  0
LINE
  8
0
 10
-0.863571
 20
249.027
 11
-1.04854
 21
249.088
  0
LINE
  8
0
 10
-1.04854
 20
249.088
 11
-1.22932
 21
249.159
  0
LINE
  8
0
 10
-1.22932
 20
249.159
 11
-1.40527
 21
249.242
  0
LINE
  8
0
 10
-1.40527
 20
249.242
 11
-1.57568
 21
249.336
  0
LINE
  8
0
 10
-1.57568
 20
249.336
 11
-1.73987
 21
249.44
  0
LINE
  8
0
 10
-1.73987
 20
249.44
 11
-1.89719
 21
249.554
  0
LINE
  8
0
 10
-1.89719
 20
249.554
 11
-2.04703
 21
249.678
  0
LINE
  8
0
 10
-2.04703
 20
249.678
 11
-2.18878
 21
249.811
  0
LINE
  8
0
 10
-2.18878
 20
249.811
 11
-2.3219
 21
249.953
  0
LINE
  8
0
 10
-2.3219
 20
249.953
 11
-2.44585
 21
250.103
  0
LINE
  8
0
 10
-2.44585
 20
250.103
 11
-2.56015
 21
250.26
  0
LINE
  8
0
 10
-2.56015
 20
250.26
 11
-2.66434
 21
250.424
  0
LINE
  8
0
 10
-2.66434
 20
250.424
 11
-2.75803
 21
250.595
  0
LINE
  8
0
 10
-2.75803
 20
250.595
 11
-2.84082
 21
250.771
  0
LINE
  8
0
 10
-2.84082
 20
250.771
 11
-2.9124
 21
250.951
  0
LINE
  8
0
 10
-2.9124
 20
250.951
 11
-2.9725
 21
251.136
  0
LINE
  8
0
 10
-2.9725
 20
251.136
 11
-3.02086
 21
251.325
  0
LINE
  8
0
 10
-3.02086
 20
251.325
 11
-3.0573
 21
251.516
  0
LINE
  8
0
 10
-3.0573
 20
251.516
 11
-3.08167
 21
251.709
  0
LINE
  8
0
 10
-3.08167
 20
251.709
 11
-3.09387
 21
251.903
  0
LINE
  8
0
 10
-3.09387
 20
251.903
 11
-3.09387
 21
252.097
  0
LINE
  8
0
 10
-3.09387
 20
252.097
 11
-3.08167
 21
252.291
  0
LINE
  8
0
 10
-3.08167
 20
252.291
 11
-3.0573
 21
252.484
  0
LINE
  8
0
 10
-3.0573
 20
252.484
 11
-3.02086
 21
252.675
  0
LINE
  8
0
 10
-3.02086
 20
252.675
 11
-2.9725
 21
252.864
  0
LINE
  8
0
 10
-2.9725
 20
252.864
 11
-2.9124
 21
253.049
  0
LINE
  8
0
 10
-2.9124
 20
253.049
 11
-2.84082
 21
253.229
  0
LINE
  8
0
 10
-2.84082
 20
253.229
 11
-2.75803
 21
253.405
  0
LINE
  8
0
 10
-2.75803
 20
253.405
 11
-2.66434
 21
253.576
  0
LINE
  8
0
 10
-2.66434
 20
253.576
 11
-2.56015
 21
253.74
  0
LINE
  8
0
 10
-2.56015
 20
253.74
 11
-2.44585
 21
253.897
  0
LINE
  8
0
 10
-2.44585
 20
253.897
 11
-2.3219
 21
254.047
  0
LINE
  8
0
 10
-2.3219
 20
254.047
 11
-2.18878
 21
254.189
  0
LINE
  8
0
 10
-2.18878
 20
254.189
 11
-2.04703
 21
254.322
  0
LINE
  8
0
 10
-2.04703
 20
254.322
 11
-1.89719
 21
254.446
  0
LINE
  8
0
 10
-1.89719
 20
254.446
 11
-1.73987
 21
254.56
  0
LINE
  8
0
 10
-1.73987
 20
254.56
 11
-1.57568
 21
254.664
  0
LINE
  8
0
 10
-1.57568
 20
254.664
 11
-1.40527
 21
254.758
  0
LINE
  8
0
 10
-1.40527
 20
254.758
 11
-1.22932
 21
254.841
  0
LINE
  8
0
 10
-1.22932
 20
254.841
 11
-1.04854
 21
254.912
  0
LINE
  8
0
 10
-1.04854
 20
254.912
 11
-0.863571
 21
254.973
  0
LINE
  8
0
 10
-0.863571
 20
254.973
 11
-0.675232
 21
255.021
  0
LINE
  8
0
 10
-0.675232
 20
255.021
 11
-0.484222
 21
255.057
  0
LINE
  8
0
 10
-0.484222
 20
255.057
 11
-0.29129
 21
255.082
  0
LINE
  8
0
 10
-0.29129
 20
255.082
 11
-0.097229
 21
255.094
  0
LINE
  8
0
 10
-0.097229
 20
255.094
 11
0.097229
 21
255.094
  0
LINE
  8
0
 10
0.097229
 20
255.094
 11
0.29129
 21
255.082
  0
LINE
  8
0
 10
0.29129
 20
255.082
 11
0.484222
 21
255.057
  0
LINE
  8
0
 10
0.484222
 20
255.057
 11
0.675232
 21
255.021
  0
LINE
  8
0
 10
0.675232
 20
255.021
 11
0.863571
 21
254.973
  0
LINE
  8
0
 10
0.863571
 20
254.973
 11
1.04854
 21
254.912
  0
LINE
  8
0
 10
1.04854
 20
254.912
 11
1.22932
 21
254.841
  0
LINE
  8
0
 10
1.22932
 20
254.841
 11
1.40527
 21
254.758
  0
LINE
  8
0
 10
1.40527
 20
254.758
 11
1.57568
 21
254.664
  0
LINE
  8
0
 10
1.57568
 20
254.664
 11
1.73987
 21
254.56
  0
LINE
  8
0
 10
1.73987
 20
254.56
 11
1.89719
 21
254.446
  0
LINE
  8
0
 10
1.89719
 20
254.446
 11
2.04703
 21
254.322
  0
LINE
  8
0
 10
2.04703
 20
254.322
 11
2.18878
 21
254.189
  0
LINE
  8
0
 10
2.18878
 20
254.189
 11
2.3219
 21
254.047
  0
LINE
  8
0
 10
2.3219
 20
254.047
 11
2.44585
 21
253.897
  0
LINE
  8
0
 10
2.44585
 20
253.897
 11
2.56015
 21
253.74
  0
LINE
  8
0
 10
2.56015
 20
253.74
 11
2.66434
 21
253.576
  0
LINE
  8
0
 10
2.66434
 20
253.576
 11
2.75803
 21
253.405
  0
LINE
  8
0
 10
2.75803
 20
253.405
 11
2.84082
 21
253.229
  0
LINE
  8
0
 10
2.84082
 20
253.229
 11
2.9124
 21
253.049
  0
LINE
  8
0
 10
2.9124
 20
253.049
 11
2.9725
 21
252.864
  0
LINE
  8
0
 10
2.9725
 20
252.864
 11
3.02086
 21
252.675
  0
LINE
  8
0
 10
3.02086
 20
252.675
 11
3.0573
 21
252.484
  0
LINE
  8
0
 10
3.0573
 20
252.484
 11
3.08167
 21
252.291
  0
LINE
  8
0
 10
3.08167
 20
252.291
 11
3.09387
 21
252.097
  0
LINE
  8
0
 10
3.09387
 20
252.097
 11
3.09387
 21
251.903
  0
LINE
  8
0
 10
3.09387
 20
251.903
 11
3.08167
 21
251.709
  0
LINE
  8
0
 10
3.08167
 20
251.709
 11
3.0573
 21
251.516
  0
LINE
  8
0
 10
3.0573
 20
251.516
 11
3.02086
 21
251.325
  0
LINE
  8
0
 10
3.02086
 20
251.325
 11
2.9725
 21
251.136
  0
LINE
  8
0
 10
2.9725
 20
251.136
 11
2.9124
 21
250.951
  0
LINE
  8
0
 10
2.9124
 20
250.951
 11
2.84082
 21
250.771
  0
LINE
  8
0
 10
2.84082
 20
250.771
 11
2.75803
 21
250.595
  0
LINE
  8
0
 10
2.75803
 20
250.595
 11
2.66434
 21
250.424
  0
LINE
  8
0
 10
2.66434
 20
250.424
 11
2.56015
 21
250.26
  0
LINE
  8
0
 10
2.56015
 20
250.26
 11
2.44585
 21
250.103
  0
LINE
  8
0
 10
2.44585
 20
250.103
 11
2.3219
 21
249.953
  0
LINE
  8
0
 10
2.3219
 20
249.953
 11
2.18878
 21
249.811
  0
LINE
  8
0
 10
2.18878
 20
249.811
 11
2.04703
 21
249.678
  0
LINE
  8
0
 10
2.04703
 20
249.678
 11
1.89719
 21
249.554
  0
LINE
  8
0
 10
1.89719
 20
249.554
 11
1.73987
 21
249.44
  0
LINE
  8
0
 10
1.73987
 20
249.44
 11
1.57568
 21
249.336
  0
LINE
  8
0
 10
1.57568
 20
249.336
 11
1.40527
 21
249.242
  0
LINE
  8
0
 10
1.40527
 20
249.242
 11
1.22932
 21
249.159
  0
LINE
  8
0
 10
1.22932
 20
249.159
 11
1.04854
 21
249.088
  0
LINE
  8
0
 10
1.04854
 20
249.088
 11
0.863571
 21
249.027
  0
LINE
  8
0
 10
0.863571
 20
249.027
 11
0.675232
 21
248.979
  0
LINE
  8
0
 10
0.675232
 20
248.979
 11
0.484222
 21
248.943
  0
LINE
  8
0
 10
0.484222
 20
248.943
 11
0.29129
 21
248.918
  0
LINE
  8
0
 10
0.29129
 20
248.918
 11
0.097229
 21
248.906
  0
LINE
  8
0
 10
0.097229
 20
248.906
 11
-0.097229
 21
248.906
  0
LINE
  8
0
 10
7.44354
 20
250.204
 11
7.38696
 21
250.204
  0
LINE
  8
0
 10
7.38696
 20
250.204
 11
7.33084
 21
250.211
  0
LINE
  8
0
 10
7.33084
 20
250.211
 11
7.2744
 21
250.214
  0
LINE
  8
0
 10
7.2744
 20
250.214
 11
7.21884
 21
250.225
  0
LINE
  8
0
 10
7.21884
 20
250.225
 11
7.1627
 21
250.232
  0
LINE
  8
0
 10
7.1627
 20
250.232
 11
7.10791
 21
250.246
  0
LINE
  8
0
 10
7.10791
 20
250.246
 11
7.05235
 21
250.257
  0
LINE
  8
0
 10
7.05235
 20
250.257
 11
7
 21
250.274
  0
LINE
  8
0
 10
7
 20
250.274
 11
7
 21
250.274
  0
LINE
  8
0
 10
7
 20
250.274
 11
6.94376
 21
250.288
  0
LINE
  8
0
 10
6.94376
 20
250.288
 11
6.7336
 21
250.371
  0
LINE
  8
0
 10
6.7336
 20
250.371
 11
6.53551
 21
250.48
  0
LINE
  8
0
 10
6.53551
 20
250.48
 11
6.35263
 21
250.613
  0
LINE
  8
0
 10
6.35263
 20
250.613
 11
6.18785
 21
250.768
  0
LINE
  8
0
 10
6.18785
 20
250.768
 11
6.04376
 21
250.942
  0
LINE
  8
0
 10
6.04376
 20
250.942
 11
5.92264
 21
251.133
  0
LINE
  8
0
 10
5.92264
 20
251.133
 11
5.8264
 21
251.337
  0
LINE
  8
0
 10
5.8264
 20
251.337
 11
5.75655
 21
251.552
  0
LINE
  8
0
 10
5.75655
 20
251.552
 11
5.71419
 21
251.774
  0
LINE
  8
0
 10
5.71419
 20
251.774
 11
5.7
 21
252
  0
LINE
  8
0
 10
5.7
 20
252
 11
5.71419
 21
252.226
  0
LINE
  8
0
 10
5.71419
 20
252.226
 11
5.75655
 21
252.448
  0
LINE
  8
0
 10
5.75655
 20
252.448
 11
5.8264
 21
252.663
  0
LINE
  8
0
 10
5.8264
 20
252.663
 11
5.92264
 21
252.867
  0
LINE
  8
0
 10
5.92264
 20
252.867
 11
6.04376
 21
253.058
  0
LINE
  8
0
 10
6.04376
 20
253.058
 11
6.18785
 21
253.232
  0
LINE
  8
0
 10
6.18785
 20
253.232
 11
6.35263
 21
253.387
  0
LINE
  8
0
 10
6.35263
 20
253.387
 11
6.53551
 21
253.52
  0
LINE
  8
0
 10
6.53551
 20
253.52
 11
6.7336
 21
253.629
  0
LINE
  8
0
 10
6.7336
 20
253.629
 11
6.94376
 21
253.712
  0
LINE
  8
0
 10
6.94376
 20
253.712
 11
7
 21
253.726
  0
LINE
  8
0
 10
7
 20
253.726
 11
7
 21
253.726
  0
LINE
  8
0
 10
7
 20
253.726
 11
7.05235
 21
253.743
  0
LINE
  8
0
 10
7.05235
 20
253.743
 11
7.10791
 21
253.754
  0
LINE
  8
0
 10
7.10791
 20
253.754
 11
7.1627
 21
253.768
  0
LINE
  8
0
 10
7.1627
 20
253.768
 11
7.21884
 21
253.775
  0
LINE
  8
0
 10
7.21884
 20
253.775
 11
7.2744
 21
253.786
  0
LINE
  8
0
 10
7.2744
 20
253.786
 11
7.33084
 21
253.789
  0
LINE
  8
0
 10
7.33084
 20
253.789
 11
7.38696
 21
253.796
  0
LINE
  8
0
 10
7.38696
 20
253.796
 11
7.44354
 21
253.796
  0
LINE
  8
0
 10
7.44354
 20
253.796
 11
7.5
 21
253.8
  0
LINE
  8
0
 10
7.5
 20
253.8
 11
7.55644
 21
253.796
  0
LINE
  8
0
 10
7.55644
 20
253.796
 11
7.61302
 21
253.796
  0
LINE
  8
0
 10
7.61302
 20
253.796
 11
7.66914
 21
253.789
  0
LINE
  8
0
 10
7.66914
 20
253.789
 11
7.72559
 21
253.786
  0
LINE
  8
0
 10
7.72559
 20
253.786
 11
7.78114
 21
253.775
  0
LINE
  8
0
 10
7.78114
 20
253.775
 11
7.83728
 21
253.768
  0
LINE
  8
0
 10
7.83728
 20
253.768
 11
7.89207
 21
253.754
  0
LINE
  8
0
 10
7.89207
 20
253.754
 11
7.94763
 21
253.743
  0
LINE
  8
0
 10
7.94763
 20
253.743
 11
8.00142
 21
253.726
  0
LINE
  8
0
 10
8.00142
 20
253.726
 11
8.05623
 21
253.712
  0
LINE
  8
0
 10
8.05623
 20
253.712
 11
8.10883
 21
253.691
  0
LINE
  8
0
 10
8.10883
 20
253.691
 11
8.16261
 21
253.674
  0
LINE
  8
0
 10
8.16261
 20
253.674
 11
8.21381
 21
253.65
  0
LINE
  8
0
 10
8.21381
 20
253.65
 11
8.26639
 21
253.629
  0
LINE
  8
0
 10
8.26639
 20
253.629
 11
8.31596
 21
253.601
  0
LINE
  8
0
 10
8.31596
 20
253.601
 11
8.36714
 21
253.577
  0
LINE
  8
0
 10
8.36714
 20
253.577
 11
8.41492
 21
253.547
  0
LINE
  8
0
 10
8.41492
 20
253.547
 11
8.46448
 21
253.52
  0
LINE
  8
0
 10
8.46448
 20
253.52
 11
8.51025
 21
253.487
  0
LINE
  8
0
 10
8.51025
 20
253.487
 11
8.558
 21
253.456
  0
LINE
  8
0
 10
8.558
 20
253.456
 11
8.60159
 21
253.42
  0
LINE
  8
0
 10
8.60159
 20
253.42
 11
8.64735
 21
253.387
  0
LINE
  8
0
 10
8.64735
 20
253.387
 11
8.6886
 21
253.348
  0
LINE
  8
0
 10
8.6886
 20
253.348
 11
8.73218
 21
253.312
  0
LINE
  8
0
 10
8.73218
 20
253.312
 11
8.7709
 21
253.271
  0
LINE
  8
0
 10
8.7709
 20
253.271
 11
8.81213
 21
253.232
  0
LINE
  8
0
 10
8.81213
 20
253.232
 11
8.84819
 21
253.189
  0
LINE
  8
0
 10
8.84819
 20
253.189
 11
8.88692
 21
253.147
  0
LINE
  8
0
 10
8.88692
 20
253.147
 11
8.92017
 21
253.102
  0
LINE
  8
0
 10
8.92017
 20
253.102
 11
8.95622
 21
253.058
  0
LINE
  8
0
 10
8.95622
 20
253.058
 11
8.98653
 21
253.01
  0
LINE
  8
0
 10
8.98653
 20
253.01
 11
9.01978
 21
252.964
  0
LINE
  8
0
 10
9.01978
 20
252.964
 11
9.04703
 21
252.915
  0
LINE
  8
0
 10
9.04703
 20
252.915
 11
9.07735
 21
252.867
  0
LINE
  8
0
 10
9.07735
 20
252.867
 11
9.10143
 21
252.816
  0
LINE
  8
0
 10
9.10143
 20
252.816
 11
9.12868
 21
252.766
  0
LINE
  8
0
 10
9.12868
 20
252.766
 11
9.14951
 21
252.714
  0
LINE
  8
0
 10
9.14951
 20
252.714
 11
9.17358
 21
252.663
  0
LINE
  8
0
 10
9.17358
 20
252.663
 11
9.19107
 21
252.609
  0
LINE
  8
0
 10
9.19107
 20
252.609
 11
9.2119
 21
252.556
  0
LINE
  8
0
 10
9.2119
 20
252.556
 11
9.22597
 21
252.501
  0
LINE
  8
0
 10
9.22597
 20
252.501
 11
9.24344
 21
252.448
  0
LINE
  8
0
 10
9.24344
 20
252.448
 11
9.25404
 21
252.392
  0
LINE
  8
0
 10
9.25404
 20
252.392
 11
9.26811
 21
252.337
  0
LINE
  8
0
 10
9.26811
 20
252.337
 11
9.27521
 21
252.281
  0
LINE
  8
0
 10
9.27521
 20
252.281
 11
9.2858
 21
252.226
  0
LINE
  8
0
 10
9.2858
 20
252.226
 11
9.28935
 21
252.169
  0
LINE
  8
0
 10
9.28935
 20
252.169
 11
9.29645
 21
252.113
  0
LINE
  8
0
 10
9.29645
 20
252.113
 11
9.29645
 21
252.056
  0
LINE
  8
0
 10
9.29645
 20
252.056
 11
9.29999
 21
252
  0
LINE
  8
0
 10
9.29999
 20
252
 11
9.29645
 21
251.944
  0
LINE
  8
0
 10
9.29645
 20
251.944
 11
9.29645
 21
251.887
  0
LINE
  8
0
 10
9.29645
 20
251.887
 11
9.28935
 21
251.831
  0
LINE
  8
0
 10
9.28935
 20
251.831
 11
9.2858
 21
251.774
  0
LINE
  8
0
 10
9.2858
 20
251.774
 11
9.27521
 21
251.719
  0
LINE
  8
0
 10
9.27521
 20
251.719
 11
9.26811
 21
251.663
  0
LINE
  8
0
 10
9.26811
 20
251.663
 11
9.25404
 21
251.608
  0
LINE
  8
0
 10
9.25404
 20
251.608
 11
9.24344
 21
251.552
  0
LINE
  8
0
 10
9.24344
 20
251.552
 11
9.22597
 21
251.499
  0
LINE
  8
0
 10
9.22597
 20
251.499
 11
9.2119
 21
251.444
  0
LINE
  8
0
 10
9.2119
 20
251.444
 11
9.19107
 21
251.391
  0
LINE
  8
0
 10
9.19107
 20
251.391
 11
9.17358
 21
251.337
  0
LINE
  8
0
 10
9.17358
 20
251.337
 11
9.14951
 21
251.286
  0
LINE
  8
0
 10
9.14951
 20
251.286
 11
9.12868
 21
251.234
  0
LINE
  8
0
 10
9.12868
 20
251.234
 11
9.10143
 21
251.184
  0
LINE
  8
0
 10
9.10143
 20
251.184
 11
9.07735
 21
251.133
  0
LINE
  8
0
 10
9.07735
 20
251.133
 11
9.04703
 21
251.085
  0
LINE
  8
0
 10
9.04703
 20
251.085
 11
9.01978
 21
251.036
  0
LINE
  8
0
 10
9.01978
 20
251.036
 11
8.98653
 21
250.99
  0
LINE
  8
0
 10
8.98653
 20
250.99
 11
8.95622
 21
250.942
  0
LINE
  8
0
 10
8.95622
 20
250.942
 11
8.92017
 21
250.898
  0
LINE
  8
0
 10
8.92017
 20
250.898
 11
8.88692
 21
250.853
  0
LINE
  8
0
 10
8.88692
 20
250.853
 11
8.84819
 21
250.811
  0
LINE
  8
0
 10
8.84819
 20
250.811
 11
8.81213
 21
250.768
  0
LINE
  8
0
 10
8.81213
 20
250.768
 11
8.7709
 21
250.729
  0
LINE
  8
0
 10
8.7709
 20
250.729
 11
8.73218
 21
250.688
  0
LINE
  8
0
 10
8.73218
 20
250.688
 11
8.6886
 21
250.652
  0
LINE
  8
0
 10
8.6886
 20
250.652
 11
8.64735
 21
250.613
  0
LINE
  8
0
 10
8.64735
 20
250.613
 11
8.60159
 21
250.58
  0
LINE
  8
0
 10
8.60159
 20
250.58
 11
8.558
 21
250.544
  0
LINE
  8
0
 10
8.558
 20
250.544
 11
8.51025
 21
250.513
  0
LINE
  8
0
 10
8.51025
 20
250.513
 11
8.46448
 21
250.48
  0
LINE
  8
0
 10
8.46448
 20
250.48
 11
8.41492
 21
250.453
  0
LINE
  8
0
 10
8.41492
 20
250.453
 11
8.36714
 21
250.423
  0
LINE
  8
0
 10
8.36714
 20
250.423
 11
8.31596
 21
250.399
  0
LINE
  8
0
 10
8.31596
 20
250.399
 11
8.26639
 21
250.371
  0
LINE
  8
0
 10
8.26639
 20
250.371
 11
8.21381
 21
250.35
  0
LINE
  8
0
 10
8.21381
 20
250.35
 11
8.16261
 21
250.326
  0
LINE
  8
0
 10
8.16261
 20
250.326
 11
8.10883
 21
250.309
  0
LINE
  8
0
 10
8.10883
 20
250.309
 11
8.05623
 21
250.288
  0
LINE
  8
0
 10
8.05623
 20
250.288
 11
8.00142
 21
250.274
  0
LINE
  8
0
 10
8.00142
 20
250.274
 11
7.94763
 21
250.257
  0
LINE
  8
0
 10
7.94763
 20
250.257
 11
7.89207
 21
250.246
  0
LINE
  8
0
 10
7.89207
 20
250.246
 11
7.83728
 21
250.232
  0
LINE
  8
0
 10
7.83728
 20
250.232
 11
7.78114
 21
250.225
  0
LINE
  8
0
 10
7.78114
 20
250.225
 11
7.72559
 21
250.214
  0
LINE
  8
0
 10
7.72559
 20
250.214
 11
7.66914
 21
250.211
  0
LINE
  8
0
 10
7.66914
 20
250.211
 11
7.61302
 21
250.204
  0
LINE
  8
0
 10
7.61302
 20
250.204
 11
7.55644
 21
250.204
  0
LINE
  8
0
 10
7.55644
 20
250.204
 11
7.5
 21
250.2
  0
LINE
  8
0
 10
7.5
 20
250.2
 11
7.44354
 21
250.204
  0
LINE
  8
0
 10
62.6267
 20
245.039
 11
63.2434
 21
245.157
  0
LINE
  8
0
 10
63.2434
 20
245.157
 11
63.8406
 21
245.351
  0
LINE
  8
0
 10
63.8406
 20
245.351
 11
64.4088
 21
245.618
  0
LINE
  8
0
 10
64.4088
 20
245.618
 11
64.9389
 21
245.955
  0
LINE
  8
0
 10
64.9389
 20
245.955
 11
65.4227
 21
246.355
  0
LINE
  8
0
 10
65.4227
 20
246.355
 11
65.8526
 21
246.813
  0
LINE
  8
0
 10
65.8526
 20
246.813
 11
66.2216
 21
247.321
  0
LINE
  8
0
 10
66.2216
 20
247.321
 11
66.5241
 21
247.871
  0
LINE
  8
0
 10
66.5241
 20
247.871
 11
66.7553
 21
248.455
  0
LINE
  8
0
 10
66.7553
 20
248.455
 11
66.9114
 21
249.063
  0
LINE
  8
0
 10
66.9114
 20
249.063
 11
66.9901
 21
249.686
  0
LINE
  8
0
 10
66.9901
 20
249.686
 11
66.9901
 21
254.314
  0
LINE
  8
0
 10
66.9901
 20
254.314
 11
66.9114
 21
254.937
  0
LINE
  8
0
 10
66.9114
 20
254.937
 11
66.7553
 21
255.545
  0
LINE
  8
0
 10
66.7553
 20
255.545
 11
66.5241
 21
256.129
  0
LINE
  8
0
 10
66.5241
 20
256.129
 11
66.2216
 21
256.679
  0
LINE
  8
0
 10
66.2216
 20
256.679
 11
65.8526
 21
257.187
  0
LINE
  8
0
 10
65.8526
 20
257.187
 11
65.4227
 21
257.645
  0
LINE
  8
0
 10
65.4227
 20
257.645
 11
64.9389
 21
258.045
  0
LINE
  8
0
 10
64.9389
 20
258.045
 11
64.4088
 21
258.382
  0
LINE
  8
0
 10
64.4088
 20
258.382
 11
63.8406
 21
258.649
  0
LINE
  8
0
 10
63.8406
 20
258.649
 11
63.2434
 21
258.843
  0
LINE
  8
0
 10
63.2434
 20
258.843
 11
62.6267
 21
258.961
  0
LINE
  8
0
 10
62.6267
 20
258.961
 11
62
 21
259
  0
LINE
  8
0
 10
62
 20
259
 11
46.9942
 21
259
  0
LINE
  8
0
 10
46.9942
 20
259
 11
46.9942
 21
245
  0
LINE
  8
0
 10
46.9942
 20
245
 11
62
 21
245
  0
LINE
  8
0
 10
62
 20
245
 11
62.6267
 21
245.039
  0
LINE
  8
0
 10
59.6115
 20
248.924
 11
59.229
 21
248.997
  0
LINE
  8
0
 10
59.229
 20
248.997
 11
58.8588
 21
249.118
  0
LINE
  8
0
 10
58.8588
 20
249.118
 11
58.5066
 21
249.283
  0
LINE
  8
0
 10
58.5066
 20
249.283
 11
58.1779
 21
249.492
  0
LINE
  8
0
 10
58.1779
 20
249.492
 11
57.8779
 21
249.74
  0
LINE
  8
0
 10
57.8779
 20
249.74
 11
57.6114
 21
250.024
  0
LINE
  8
0
 10
57.6114
 20
250.024
 11
57.3826
 21
250.339
  0
LINE
  8
0
 10
57.3826
 20
250.339
 11
57.195
 21
250.68
  0
LINE
  8
0
 10
57.195
 20
250.68
 11
57.0517
 21
251.042
  0
LINE
  8
0
 10
57.0517
 20
251.042
 11
56.9549
 21
251.419
  0
LINE
  8
0
 10
56.9549
 20
251.419
 11
56.9061
 21
251.805
  0
LINE
  8
0
 10
56.9061
 20
251.805
 11
56.9061
 21
252.195
  0
LINE
  8
0
 10
56.9061
 20
252.195
 11
56.9549
 21
252.581
  0
LINE
  8
0
 10
56.9549
 20
252.581
 11
57.0517
 21
252.958
  0
LINE
  8
0
 10
57.0517
 20
252.958
 11
57.195
 21
253.32
  0
LINE
  8
0
 10
57.195
 20
253.32
 11
57.3826
 21
253.661
  0
LINE
  8
0
 10
57.3826
 20
253.661
 11
57.6114
 21
253.976
  0
LINE
  8
0
 10
57.6114
 20
253.976
 11
57.8779
 21
254.26
  0
LINE
  8
0
 10
57.8779
 20
254.26
 11
58.1779
 21
254.508
  0
LINE
  8
0
 10
58.1779
 20
254.508
 11
58.5066
 21
254.717
  0
LINE
  8
0
 10
58.5066
 20
254.717
 11
58.8588
 21
254.882
  0
LINE
  8
0
 10
58.8588
 20
254.882
 11
59.229
 21
255.003
  0
LINE
  8
0
 10
59.229
 20
255.003
 11
59.6115
 21
255.076
  0
LINE
  8
0
 10
59.6115
 20
255.076
 11
60
 21
255.1
  0
LINE
  8
0
 10
60
 20
255.1
 11
60.3885
 21
255.076
  0
LINE
  8
0
 10
60.3885
 20
255.076
 11
60.7709
 21
255.003
  0
LINE
  8
0
 10
60.7709
 20
255.003
 11
61.1412
 21
254.882
  0
LINE
  8
0
 10
61.1412
 20
254.882
 11
61.4934
 21
254.717
  0
LINE
  8
0
 10
61.4934
 20
254.717
 11
61.8221
 21
254.508
  0
LINE
  8
0
 10
61.8221
 20
254.508
 11
62.1221
 21
254.26
  0
LINE
  8
0
 10
62.1221
 20
254.26
 11
62.3886
 21
253.976
  0
LINE
  8
0
 10
62.3886
 20
253.976
 11
62.6174
 21
253.661
  0
LINE
  8
0
 10
62.6174
 20
253.661
 11
62.805
 21
253.32
  0
LINE
  8
0
 10
62.805
 20
253.32
 11
62.9483
 21
252.958
  0
LINE
  8
0
 10
62.9483
 20
252.958
 11
63.0451
 21
252.581
  0
LINE
  8
0
 10
63.0451
 20
252.581
 11
63.0939
 21
252.195
  0
LINE
  8
0
 10
63.0939
 20
252.195
 11
63.0939
 21
251.805
  0
LINE
  8
0
 10
63.0939
 20
251.805
 11
63.0451
 21
251.419
  0
LINE
  8
0
 10
63.0451
 20
251.419
 11
62.9483
 21
251.042
  0
LINE
  8
0
 10
62.9483
 20
251.042
 11
62.805
 21
250.68
  0
LINE
  8
0
 10
62.805
 20
250.68
 11
62.6174
 21
250.339
  0
LINE
  8
0
 10
62.6174
 20
250.339
 11
62.3886
 21
250.024
  0
LINE
  8
0
 10
62.3886
 20
250.024
 11
62.1221
 21
249.74
  0
LINE
  8
0
 10
62.1221
 20
249.74
 11
61.8221
 21
249.492
  0
LINE
  8
0
 10
61.8221
 20
249.492
 11
61.4934
 21
249.283
  0
LINE
  8
0
 10
61.4934
 20
249.283
 11
61.1412
 21
249.118
  0
LINE
  8
0
 10
61.1412
 20
249.118
 11
60.7709
 21
248.997
  0
LINE
  8
0
 10
60.7709
 20
248.997
 11
60.3885
 21
248.924
  0
LINE
  8
0
 10
60.3885
 20
248.924
 11
60
 21
248.9
  0
LINE
  8
0
 10
60
 20
248.9
 11
59.6115
 21
248.924
  0
LINE
  8
0
 10
52.2744
 20
250.214
 11
52.0524
 21
250.257
  0
LINE
  8
0
 10
52.0524
 20
250.257
 11
51.8374
 21
250.326
  0
LINE
  8
0
 10
51.8374
 20
250.326
 11
51.6328
 21
250.423
  0
LINE
  8
0
 10
51.6328
 20
250.423
 11
51.442
 21
250.544
  0
LINE
  8
0
 10
51.442
 20
250.544
 11
51.2678
 21
250.688
  0
LINE
  8
0
 10
51.2678
 20
250.688
 11
51.1131
 21
250.853
  0
LINE
  8
0
 10
51.1131
 20
250.853
 11
50.9802
 21
251.036
  0
LINE
  8
0
 10
50.9802
 20
251.036
 11
50.8713
 21
251.234
  0
LINE
  8
0
 10
50.8713
 20
251.234
 11
50.7881
 21
251.444
  0
LINE
  8
0
 10
50.7881
 20
251.444
 11
50.7319
 21
251.663
  0
LINE
  8
0
 10
50.7319
 20
251.663
 11
50.7036
 21
251.887
  0
LINE
  8
0
 10
50.7036
 20
251.887
 11
50.7036
 21
252.113
  0
LINE
  8
0
 10
50.7036
 20
252.113
 11
50.7319
 21
252.337
  0
LINE
  8
0
 10
50.7319
 20
252.337
 11
50.7881
 21
252.556
  0
LINE
  8
0
 10
50.7881
 20
252.556
 11
50.8713
 21
252.766
  0
LINE
  8
0
 10
50.8713
 20
252.766
 11
50.9802
 21
252.964
  0
LINE
  8
0
 10
50.9802
 20
252.964
 11
51.1131
 21
253.147
  0
LINE
  8
0
 10
51.1131
 20
253.147
 11
51.2678
 21
253.312
  0
LINE
  8
0
 10
51.2678
 20
253.312
 11
51.442
 21
253.456
  0
LINE
  8
0
 10
51.442
 20
253.456
 11
51.6328
 21
253.577
  0
LINE
  8
0
 10
51.6328
 20
253.577
 11
51.8374
 21
253.674
  0
LINE
  8
0
 10
51.8374
 20
253.674
 11
52.0524
 21
253.743
  0
LINE
  8
0
 10
52.0524
 20
253.743
 11
52.2744
 21
253.786
  0
LINE
  8
0
 10
52.2744
 20
253.786
 11
52.5
 21
253.8
  0
LINE
  8
0
 10
52.5
 20
253.8
 11
52.7256
 21
253.786
  0
LINE
  8
0
 10
52.7256
 20
253.786
 11
52.9476
 21
253.743
  0
LINE
  8
0
 10
52.9476
 20
253.743
 11
53.1626
 21
253.674
  0
LINE
  8
0
 10
53.1626
 20
253.674
 11
53.3672
 21
253.577
  0
LINE
  8
0
 10
53.3672
 20
253.577
 11
53.558
 21
253.456
  0
LINE
  8
0
 10
53.558
 20
253.456
 11
53.7322
 21
253.312
  0
LINE
  8
0
 10
53.7322
 20
253.312
 11
53.8869
 21
253.147
  0
LINE
  8
0
 10
53.8869
 20
253.147
 11
54.0198
 21
252.964
  0
LINE
  8
0
 10
54.0198
 20
252.964
 11
54.1287
 21
252.766
  0
LINE
  8
0
 10
54.1287
 20
252.766
 11
54.2119
 21
252.556
  0
LINE
  8
0
 10
54.2119
 20
252.556
 11
54.2681
 21
252.337
  0
LINE
  8
0
 10
54.2681
 20
252.337
 11
54.2964
 21
252.113
  0
LINE
  8
0
 10
54.2964
 20
252.113
 11
54.2964
 21
251.887
  0
LINE
  8
0
 10
54.2964
 20
251.887
 11
54.2681
 21
251.663
  0
LINE
  8
0
 10
54.2681
 20
251.663
 11
54.2119
 21
251.444
  0
LINE
  8
0
 10
54.2119
 20
251.444
 11
54.1287
 21
251.234
  0
LINE
  8
0
 10
54.1287
 20
251.234
 11
54.0198
 21
251.036
  0
LINE
  8
0
 10
54.0198
 20
251.036
 11
53.8869
 21
250.853
  0
LINE
  8
0
 10
53.8869
 20
250.853
 11
53.7322
 21
250.688
  0
LINE
  8
0
 10
53.7322
 20
250.688
 11
53.558
 21
250.544
  0
LINE
  8
0
 10
53.558
 20
250.544
 11
53.3672
 21
250.423
  0
LINE
  8
0
 10
53.3672
 20
250.423
 11
53.1626
 21
250.326
  0
LINE
  8
0
 10
53.1626
 20
250.326
 11
52.9476
 21
250.257
  0
LINE
  8
0
 10
52.9476
 20
250.257
 11
52.7256
 21
250.214
  0
LINE
  8
0
 10
52.7256
 20
250.214
 11
52.5
 21
250.2
  0
LINE
  8
0
 10
52.5
 20
250.2
 11
52.2744
 21
250.214
  0
LINE
  8
0
 10
28.0057
 20
259
 11
24.4942
 21
259
  0
LINE
  8
0
 10
24.4942
 20
259
 11
24.4942
 21
245
  0
LINE
  8
0
 10
24.4942
 20
245
 11
28.0057
 21
245
  0
LINE
  8
0
 10
28.0057
 20
245
 11
28.0057
 21
259
  0
LINE
  8
0
 10
35.5057
 20
259
 11
31.9942
 21
259
  0
LINE
  8
0
 10
31.9942
 20
259
 11
31.9942
 21
245
  0
LINE
  8
0
 10
31.9942
 20
245
 11
35.5057
 21
245
  0
LINE
  8
0
 10
35.5057
 20
245
 11
35.5057
 21
259
  0
LINE
  8
0
 10
43.0057
 20
259
 11
39.4942
 21
259
  0
LINE
  8
0
 10
39.4942
 20
259
 11
39.4942
 21
245
  0
LINE
  8
0
 10
39.4942
 20
245
 11
43.0057
 21
245
  0
LINE
  8
0
 10
43.0057
 20
245
 11
43.0057
 21
259
  0
LINE
  8
0
 10
20.5057
 20
259
 11
16.9942
 21
259
  0
LINE
  8
0
 10
16.9942
 20
259
 11
16.9942
 21
245
  0
LINE
  8
0
 10
16.9942
 20
245
 11
20.5057
 21
245
  0
LINE
  8
0
 10
20.5057
 20
245
 11
20.5057
 21
259
  0
LINE
  8
0
 10
92.9369
 20
176.089
 11
93.5451
 21
176.245
  0
LINE
  8
0
 10
93.5451
 20
176.245
 11
94.1289
 21
176.476
  0
LINE
  8
0
 10
94.1289
 20
176.476
 11
94.6791
 21
176.778
  0
LINE
  8
0
 10
94.6791
 20
176.778
 11
95.1871
 21
177.147
  0
LINE
  8
0
 10
95.1871
 20
177.147
 11
95.6448
 21
177.577
  0
LINE
  8
0
 10
95.6448
 20
177.577
 11
96.0451
 21
178.061
  0
LINE
  8
0
 10
96.0451
 20
178.061
 11
96.3815
 21
178.591
  0
LINE
  8
0
 10
96.3815
 20
178.591
 11
96.6489
 21
179.159
  0
LINE
  8
0
 10
96.6489
 20
179.159
 11
96.8429
 21
179.757
  0
LINE
  8
0
 10
96.8429
 20
179.757
 11
96.9606
 21
180.373
  0
LINE
  8
0
 10
96.9606
 20
180.373
 11
97
 21
181
  0
LINE
  8
0
 10
97
 20
181
 11
97
 21
236
  0
LINE
  8
0
 10
97
 20
236
 11
152
 21
236
  0
LINE
  8
0
 10
152
 20
236
 11
152.627
 21
236.039
  0
LINE
  8
0
 10
152.627
 20
236.039
 11
153.243
 21
236.157
  0
LINE
  8
0
 10
153.243
 20
236.157
 11
153.841
 21
236.351
  0
LINE
  8
0
 10
153.841
 20
236.351
 11
154.409
 21
236.618
  0
LINE
  8
0
 10
154.409
 20
236.618
 11
154.939
 21
236.955
  0
LINE
  8
0
 10
154.939
 20
236.955
 11
155.423
 21
237.355
  0
LINE
  8
0
 10
155.423
 20
237.355
 11
155.853
 21
237.813
  0
LINE
  8
0
 10
155.853
 20
237.813
 11
156.222
 21
238.321
  0
LINE
  8
0
 10
156.222
 20
238.321
 11
156.524
 21
238.871
  0
LINE
  8
0
 10
156.524
 20
238.871
 11
156.755
 21
239.455
  0
LINE
  8
0
 10
156.755
 20
239.455
 11
156.911
 21
240.063
  0
LINE
  8
0
 10
156.911
 20
240.063
 11
156.99
 21
240.686
  0
LINE
  8
0
 10
156.99
 20
240.686
 11
156.99
 21
245.314
  0
LINE
  8
0
 10
156.99
 20
245.314
 11
156.911
 21
245.937
  0
LINE
  8
0
 10
156.911
 20
245.937
 11
156.755
 21
246.545
  0
LINE
  8
0
 10
156.755
 20
246.545
 11
156.524
 21
247.129
  0
LINE
  8
0
 10
156.524
 20
247.129
 11
156.222
 21
247.679
  0
LINE
  8
0
 10
156.222
 20
247.679
 11
155.853
 21
248.187
  0
LINE
  8
0
 10
155.853
 20
248.187
 11
155.423
 21
248.645
  0
LINE
  8
0
 10
155.423
 20
248.645
 11
154.939
 21
249.045
  0
LINE
  8
0
 10
154.939
 20
249.045
 11
154.409
 21
249.382
  0
LINE
  8
0
 10
154.409
 20
249.382
 11
153.841
 21
249.649
  0
LINE
  8
0
 10
153.841
 20
249.649
 11
153.243
 21
249.843
  0
LINE
  8
0
 10
153.243
 20
249.843
 11
152.627
 21
249.961
  0
LINE
  8
0
 10
152.627
 20
249.961
 11
152
 21
250
  0
LINE
  8
0
 10
152
 20
250
 11
88
 21
250
  0
LINE
  8
0
 10
88
 20
250
 11
87.8432
 21
249.99
  0
LINE
  8
0
 10
87.8432
 20
249.99
 11
87.6861
 21
249.99
  0
LINE
  8
0
 10
87.6861
 20
249.99
 11
87.5302
 21
249.97
  0
LINE
  8
0
 10
87.5302
 20
249.97
 11
87.3733
 21
249.961
  0
LINE
  8
0
 10
87.3733
 20
249.961
 11
87.219
 21
249.931
  0
LINE
  8
0
 10
87.219
 20
249.931
 11
87.0631
 21
249.911
  0
LINE
  8
0
 10
87.0631
 20
249.911
 11
86.9109
 21
249.872
  0
LINE
  8
0
 10
86.9109
 20
249.872
 11
86.7565
 21
249.843
  0
LINE
  8
0
 10
86.7565
 20
249.843
 11
86.6071
 21
249.794
  0
LINE
  8
0
 10
86.6071
 20
249.794
 11
86.4549
 21
249.755
  0
LINE
  8
0
 10
86.4549
 20
249.755
 11
86.3088
 21
249.697
  0
LINE
  8
0
 10
86.3088
 20
249.697
 11
86.1594
 21
249.649
  0
LINE
  8
0
 10
86.1594
 20
249.649
 11
86.0172
 21
249.582
  0
LINE
  8
0
 10
86.0172
 20
249.582
 11
85.8711
 21
249.524
  0
LINE
  8
0
 10
85.8711
 20
249.524
 11
85.7334
 21
249.448
  0
LINE
  8
0
 10
85.7334
 20
249.448
 11
85.5912
 21
249.382
  0
LINE
  8
0
 10
85.5912
 20
249.382
 11
85.4586
 21
249.297
  0
LINE
  8
0
 10
85.4586
 20
249.297
 11
85.3209
 21
249.222
  0
LINE
  8
0
 10
85.3209
 20
249.222
 11
85.1937
 21
249.129
  0
LINE
  8
0
 10
85.1937
 20
249.129
 11
85.0611
 21
249.045
  0
LINE
  8
0
 10
85.0611
 20
249.045
 11
84.94
 21
248.945
  0
LINE
  8
0
 10
84.94
 20
248.945
 11
84.8129
 21
248.853
  0
LINE
  8
0
 10
84.8129
 20
248.853
 11
84.6983
 21
248.745
  0
LINE
  8
0
 10
84.6983
 20
248.745
 11
84.5773
 21
248.645
  0
LINE
  8
0
 10
84.5773
 20
248.645
 11
84.4697
 21
248.53
  0
LINE
  8
0
 10
84.4697
 20
248.53
 11
84.3551
 21
248.423
  0
LINE
  8
0
 10
84.3551
 20
248.423
 11
84.255
 21
248.302
  0
LINE
  8
0
 10
84.255
 20
248.302
 11
84.1474
 21
248.187
  0
LINE
  8
0
 10
84.1474
 20
248.187
 11
84.0551
 21
248.06
  0
LINE
  8
0
 10
84.0551
 20
248.06
 11
83.9549
 21
247.939
  0
LINE
  8
0
 10
83.9549
 20
247.939
 11
83.8707
 21
247.806
  0
LINE
  8
0
 10
83.8707
 20
247.806
 11
83.7784
 21
247.679
  0
LINE
  8
0
 10
83.7784
 20
247.679
 11
83.7027
 21
247.541
  0
LINE
  8
0
 10
83.7027
 20
247.541
 11
83.6185
 21
247.409
  0
LINE
  8
0
 10
83.6185
 20
247.409
 11
83.5516
 21
247.267
  0
LINE
  8
0
 10
83.5516
 20
247.267
 11
83.4759
 21
247.129
  0
LINE
  8
0
 10
83.4759
 20
247.129
 11
83.418
 21
246.983
  0
LINE
  8
0
 10
83.418
 20
246.983
 11
83.3511
 21
246.841
  0
LINE
  8
0
 10
83.3511
 20
246.841
 11
83.3026
 21
246.691
  0
LINE
  8
0
 10
83.3026
 20
246.691
 11
83.2447
 21
246.545
  0
LINE
  8
0
 10
83.2447
 20
246.545
 11
83.2056
 21
246.393
  0
LINE
  8
0
 10
83.2056
 20
246.393
 11
83.1571
 21
246.243
  0
LINE
  8
0
 10
83.1571
 20
246.243
 11
83.1276
 21
246.089
  0
LINE
  8
0
 10
83.1276
 20
246.089
 11
83.0886
 21
245.937
  0
LINE
  8
0
 10
83.0886
 20
245.937
 11
83.0689
 21
245.781
  0
LINE
  8
0
 10
83.0689
 20
245.781
 11
83.0394
 21
245.627
  0
LINE
  8
0
 10
83.0394
 20
245.627
 11
83.0296
 21
245.47
  0
LINE
  8
0
 10
83.0296
 20
245.47
 11
83.0099
 21
245.314
  0
LINE
  8
0
 10
83.0099
 20
245.314
 11
83.0099
 21
245.157
  0
LINE
  8
0
 10
83.0099
 20
245.157
 11
83
 21
245
  0
LINE
  8
0
 10
83
 20
245
 11
83
 21
181
  0
LINE
  8
0
 10
83
 20
181
 11
83.0394
 21
180.373
  0
LINE
  8
0
 10
83.0394
 20
180.373
 11
83.1571
 21
179.757
  0
LINE
  8
0
 10
83.1571
 20
179.757
 11
83.3511
 21
179.159
  0
LINE
  8
0
 10
83.3511
 20
179.159
 11
83.6185
 21
178.591
  0
LINE
  8
0
 10
83.6185
 20
178.591
 11
83.9549
 21
178.061
  0
LINE
  8
0
 10
83.9549
 20
178.061
 11
84.3551
 21
177.577
  0
LINE
  8
0
 10
84.3551
 20
177.577
 11
84.8129
 21
177.147
  0
LINE
  8
0
 10
84.8129
 20
177.147
 11
85.3209
 21
176.778
  0
LINE
  8
0
 10
85.3209
 20
176.778
 11
85.8711
 21
176.476
  0
LINE
  8
0
 10
85.8711
 20
176.476
 11
86.4549
 21
176.245
  0
LINE
  8
0
 10
86.4549
 20
176.245
 11
87.0631
 21
176.089
  0
LINE
  8
0
 10
87.0631
 20
176.089
 11
87.6861
 21
176.01
  0
LINE
  8
0
 10
87.6861
 20
176.01
 11
92.3139
 21
176.01
  0
LINE
  8
0
 10
92.3139
 20
176.01
 11
92.9369
 21
176.089
  0
LINE
  8
0
 10
149.624
 20
240.024
 11
149.254
 21
240.094
  0
LINE
  8
0
 10
149.254
 20
240.094
 11
148.896
 21
240.211
  0
LINE
  8
0
 10
148.896
 20
240.211
 11
148.555
 21
240.371
  0
LINE
  8
0
 10
148.555
 20
240.371
 11
148.237
 21
240.573
  0
LINE
  8
0
 10
148.237
 20
240.573
 11
147.946
 21
240.813
  0
LINE
  8
0
 10
147.946
 20
240.813
 11
147.688
 21
241.088
  0
LINE
  8
0
 10
147.688
 20
241.088
 11
147.467
 21
241.393
  0
LINE
  8
0
 10
147.467
 20
241.393
 11
147.286
 21
241.723
  0
LINE
  8
0
 10
147.286
 20
241.723
 11
147.147
 21
242.073
  0
LINE
  8
0
 10
147.147
 20
242.073
 11
147.053
 21
242.438
  0
LINE
  8
0
 10
147.053
 20
242.438
 11
147.006
 21
242.812
  0
LINE
  8
0
 10
147.006
 20
242.812
 11
147.006
 21
243.188
  0
LINE
  8
0
 10
147.006
 20
243.188
 11
147.053
 21
243.562
  0
LINE
  8
0
 10
147.053
 20
243.562
 11
147.147
 21
243.927
  0
LINE
  8
0
 10
147.147
 20
243.927
 11
147.286
 21
244.277
  0
LINE
  8
0
 10
147.286
 20
244.277
 11
147.467
 21
244.607
  0
LINE
  8
0
 10
147.467
 20
244.607
 11
147.688
 21
244.912
  0
LINE
  8
0
 10
147.688
 20
244.912
 11
147.946
 21
245.187
  0
LINE
  8
0
 10
147.946
 20
245.187
 11
148.237
 21
245.427
  0
LINE
  8
0
 10
148.237
 20
245.427
 11
148.555
 21
245.629
  0
LINE
  8
0
 10
148.555
 20
245.629
 11
148.896
 21
245.789
  0
LINE
  8
0
 10
148.896
 20
245.789
 11
149.254
 21
245.906
  0
LINE
  8
0
 10
149.254
 20
245.906
 11
149.624
 21
245.976
  0
LINE
  8
0
 10
149.624
 20
245.976
 11
150
 21
246
  0
LINE
  8
0
 10
150
 20
246
 11
150.376
 21
245.976
  0
LINE
  8
0
 10
150.376
 20
245.976
 11
150.746
 21
245.906
  0
LINE
  8
0
 10
150.746
 20
245.906
 11
151.104
 21
245.789
  0
LINE
  8
0
 10
151.104
 20
245.789
 11
151.445
 21
245.629
  0
LINE
  8
0
 10
151.445
 20
245.629
 11
151.763
 21
245.427
  0
LINE
  8
0
 10
151.763
 20
245.427
 11
152.054
 21
245.187
  0
LINE
  8
0
 10
152.054
 20
245.187
 11
152.312
 21
244.912
  0
LINE
  8
0
 10
152.312
 20
244.912
 11
152.533
 21
244.607
  0
LINE
  8
0
 10
152.533
 20
244.607
 11
152.714
 21
244.277
  0
LINE
  8
0
 10
152.714
 20
244.277
 11
152.853
 21
243.927
  0
LINE
  8
0
 10
152.853
 20
243.927
 11
152.947
 21
243.562
  0
LINE
  8
0
 10
152.947
 20
243.562
 11
152.994
 21
243.188
  0
LINE
  8
0
 10
152.994
 20
243.188
 11
152.994
 21
242.812
  0
LINE
  8
0
 10
152.994
 20
242.812
 11
152.947
 21
242.438
  0
LINE
  8
0
 10
152.947
 20
242.438
 11
152.853
 21
242.073
  0
LINE
  8
0
 10
152.853
 20
242.073
 11
152.714
 21
241.723
  0
LINE
  8
0
 10
152.714
 20
241.723
 11
152.533
 21
241.393
  0
LINE
  8
0
 10
152.533
 20
241.393
 11
152.312
 21
241.088
  0
LINE
  8
0
 10
152.312
 20
241.088
 11
152.054
 21
240.813
  0
LINE
  8
0
 10
152.054
 20
240.813
 11
151.763
 21
240.573
  0
LINE
  8
0
 10
151.763
 20
240.573
 11
151.445
 21
240.371
  0
LINE
  8
0
 10
151.445
 20
240.371
 11
151.104
 21
240.211
  0
LINE
  8
0
 10
151.104
 20
240.211
 11
150.746
 21
240.094
  0
LINE
  8
0
 10
150.746
 20
240.094
 11
150.376
 21
240.024
  0
LINE
  8
0
 10
150.376
 20
240.024
 11
150
 21
240
  0
LINE
  8
0
 10
150
 20
240
 11
149.624
 21
240.024
  0
LINE
  8
0
 10
89.9059
 20
240.006
 11
89.7181
 21
240.018
  0
LINE
  8
0
 10
89.7181
 20
240.018
 11
89.5314
 21
240.041
  0
LINE
  8
0
 10
89.5314
 20
240.041
 11
89.3465
 21
240.077
  0
LINE
  8
0
 10
89.3465
 20
240.077
 11
89.1643
 21
240.123
  0
LINE
  8
0
 10
89.1643
 20
240.123
 11
88.9853
 21
240.182
  0
LINE
  8
0
 10
88.9853
 20
240.182
 11
88.8103
 21
240.251
  0
LINE
  8
0
 10
88.8103
 20
240.251
 11
88.64
 21
240.331
  0
LINE
  8
0
 10
88.64
 20
240.331
 11
88.4751
 21
240.422
  0
LINE
  8
0
 10
88.4751
 20
240.422
 11
88.3162
 21
240.522
  0
LINE
  8
0
 10
88.3162
 20
240.522
 11
88.164
 21
240.633
  0
LINE
  8
0
 10
88.164
 20
240.633
 11
88.019
 21
240.753
  0
LINE
  8
0
 10
88.019
 20
240.753
 11
87.8818
 21
240.882
  0
LINE
  8
0
 10
87.8818
 20
240.882
 11
87.753
 21
241.019
  0
LINE
  8
0
 10
87.753
 20
241.019
 11
87.633
 21
241.164
  0
LINE
  8
0
 10
87.633
 20
241.164
 11
87.5224
 21
241.316
  0
LINE
  8
0
 10
87.5224
 20
241.316
 11
87.4216
 21
241.475
  0
LINE
  8
0
 10
87.4216
 20
241.475
 11
87.3309
 21
241.64
  0
LINE
  8
0
 10
87.3309
 20
241.64
 11
87.2508
 21
241.81
  0
LINE
  8
0
 10
87.2508
 20
241.81
 11
87.1815
 21
241.985
  0
LINE
  8
0
 10
87.1815
 20
241.985
 11
87.1234
 21
242.164
  0
LINE
  8
0
 10
87.1234
 20
242.164
 11
87.0766
 21
242.347
  0
LINE
  8
0
 10
87.0766
 20
242.347
 11
87.0413
 21
242.531
  0
LINE
  8
0
 10
87.0413
 20
242.531
 11
87.0177
 21
242.718
  0
LINE
  8
0
 10
87.0177
 20
242.718
 11
87.0059
 21
242.906
  0
LINE
  8
0
 10
87.0059
 20
242.906
 11
87.0059
 21
243.094
  0
LINE
  8
0
 10
87.0059
 20
243.094
 11
87.0177
 21
243.282
  0
LINE
  8
0
 10
87.0177
 20
243.282
 11
87.0413
 21
243.469
  0
LINE
  8
0
 10
87.0413
 20
243.469
 11
87.0766
 21
243.653
  0
LINE
  8
0
 10
87.0766
 20
243.653
 11
87.1234
 21
243.836
  0
LINE
  8
0
 10
87.1234
 20
243.836
 11
87.1815
 21
244.015
  0
LINE
  8
0
 10
87.1815
 20
244.015
 11
87.2508
 21
244.19
  0
LINE
  8
0
 10
87.2508
 20
244.19
 11
87.3309
 21
244.36
  0
LINE
  8
0
 10
87.3309
 20
244.36
 11
87.4216
 21
244.525
  0
LINE
  8
0
 10
87.4216
 20
244.525
 11
87.5224
 21
244.684
  0
LINE
  8
0
 10
87.5224
 20
244.684
 11
87.633
 21
244.836
  0
LINE
  8
0
 10
87.633
 20
244.836
 11
87.753
 21
244.981
  0
LINE
  8
0
 10
87.753
 20
244.981
 11
87.8818
 21
245.118
  0
LINE
  8
0
 10
87.8818
 20
245.118
 11
88.019
 21
245.247
  0
LINE
  8
0
 10
88.019
 20
245.247
 11
88.164
 21
245.367
  0
LINE
  8
0
 10
88.164
 20
245.367
 11
88.3163
 21
245.478
  0
LINE
  8
0
 10
88.3163
 20
245.478
 11
88.4751
 21
245.578
  0
LINE
  8
0
 10
88.4751
 20
245.578
 11
88.64
 21
245.669
  0
LINE
  8
0
 10
88.64
 20
245.669
 11
88.8103
 21
245.749
  0
LINE
  8
0
 10
88.8103
 20
245.749
 11
88.9853
 21
245.818
  0
LINE
  8
0
 10
88.9853
 20
245.818
 11
89.1643
 21
245.877
  0
LINE
  8
0
 10
89.1643
 20
245.877
 11
89.3465
 21
245.923
  0
LINE
  8
0
 10
89.3465
 20
245.923
 11
89.5314
 21
245.959
  0
LINE
  8
0
 10
89.5314
 20
245.959
 11
89.7181
 21
245.982
  0
LINE
  8
0
 10
89.7181
 20
245.982
 11
89.9059
 21
245.994
  0
LINE
  8
0
 10
89.9059
 20
245.994
 11
90.0941
 21
245.994
  0
LINE
  8
0
 10
90.0941
 20
245.994
 11
90.2819
 21
245.982
  0
LINE
  8
0
 10
90.2819
 20
245.982
 11
90.4686
 21
245.959
  0
LINE
  8
0
 10
90.4686
 20
245.959
 11
90.6535
 21
245.923
  0
LINE
  8
0
 10
90.6535
 20
245.923
 11
90.8357
 21
245.877
  0
LINE
  8
0
 10
90.8357
 20
245.877
 11
91.0147
 21
245.818
  0
LINE
  8
0
 10
91.0147
 20
245.818
 11
91.1897
 21
245.749
  0
LINE
  8
0
 10
91.1897
 20
245.749
 11
91.3599
 21
245.669
  0
LINE
  8
0
 10
91.3599
 20
245.669
 11
91.5249
 21
245.578
  0
LINE
  8
0
 10
91.5249
 20
245.578
 11
91.6837
 21
245.478
  0
LINE
  8
0
 10
91.6837
 20
245.478
 11
91.836
 21
245.367
  0
LINE
  8
0
 10
91.836
 20
245.367
 11
91.981
 21
245.247
  0
LINE
  8
0
 10
91.981
 20
245.247
 11
92.1182
 21
245.118
  0
LINE
  8
0
 10
92.1182
 20
245.118
 11
92.247
 21
244.981
  0
LINE
  8
0
 10
92.247
 20
244.981
 11
92.367
 21
244.836
  0
LINE
  8
0
 10
92.367
 20
244.836
 11
92.4776
 21
244.684
  0
LINE
  8
0
 10
92.4776
 20
244.684
 11
92.5784
 21
244.525
  0
LINE
  8
0
 10
92.5784
 20
244.525
 11
92.6691
 21
244.36
  0
LINE
  8
0
 10
92.6691
 20
244.36
 11
92.7492
 21
244.19
  0
LINE
  8
0
 10
92.7492
 20
244.19
 11
92.8185
 21
244.015
  0
LINE
  8
0
 10
92.8185
 20
244.015
 11
92.8766
 21
243.836
  0
LINE
  8
0
 10
92.8766
 20
243.836
 11
92.9234
 21
243.653
  0
LINE
  8
0
 10
92.9234
 20
243.653
 11
92.9587
 21
243.469
  0
LINE
  8
0
 10
92.9587
 20
243.469
 11
92.9823
 21
243.282
  0
LINE
  8
0
 10
92.9823
 20
243.282
 11
92.9941
 21
243.094
  0
LINE
  8
0
 10
92.9941
 20
243.094
 11
92.9941
 21
242.906
  0
LINE
  8
0
 10
92.9941
 20
242.906
 11
92.9823
 21
242.718
  0
LINE
  8
0
 10
92.9823
 20
242.718
 11
92.9587
 21
242.531
  0
LINE
  8
0
 10
92.9587
 20
242.531
 11
92.9234
 21
242.347
  0
LINE
  8
0
 10
92.9234
 20
242.347
 11
92.8766
 21
242.164
  0
LINE
  8
0
 10
92.8766
 20
242.164
 11
92.8185
 21
241.985
  0
LINE
  8
0
 10
92.8185
 20
241.985
 11
92.7492
 21
241.81
  0
LINE
  8
0
 10
92.7492
 20
241.81
 11
92.6691
 21
241.64
  0
LINE
  8
0
 10
92.6691
 20
241.64
 11
92.5784
 21
241.475
  0
LINE
  8
0
 10
92.5784
 20
241.475
 11
92.4776
 21
241.316
  0
LINE
  8
0
 10
92.4776
 20
241.316
 11
92.367
 21
241.164
  0
LINE
  8
0
 10
92.367
 20
241.164
 11
92.247
 21
241.019
  0
LINE
  8
0
 10
92.247
 20
241.019
 11
92.1182
 21
240.882
  0
LINE
  8
0
 10
92.1182
 20
240.882
 11
91.981
 21
240.753
  0
LINE
  8
0
 10
91.981
 20
240.753
 11
91.836
 21
240.633
  0
LINE
  8
0
 10
91.836
 20
240.633
 11
91.6837
 21
240.522
  0
LINE
  8
0
 10
91.6837
 20
240.522
 11
91.5249
 21
240.422
  0
LINE
  8
0
 10
91.5249
 20
240.422
 11
91.36
 21
240.331
  0
LINE
  8
0
 10
91.36
 20
240.331
 11
91.1897
 21
240.251
  0
LINE
  8
0
 10
91.1897
 20
240.251
 11
91.0147
 21
240.182
  0
LINE
  8
0
 10
91.0147
 20
240.182
 11
90.8357
 21
240.123
  0
LINE
  8
0
 10
90.8357
 20
240.123
 11
90.6535
 21
240.077
  0
LINE
  8
0
 10
90.6535
 20
240.077
 11
90.4686
 21
240.041
  0
LINE
  8
0
 10
90.4686
 20
240.041
 11
90.2819
 21
240.018
  0
LINE
  8
0
 10
90.2819
 20
240.018
 11
90.0941
 21
240.006
  0
LINE
  8
0
 10
90.0941
 20
240.006
 11
89.9059
 21
240.006
  0
LINE
  8
0
 10
97.4435
 20
241.204
 11
97.387
 21
241.204
  0
LINE
  8
0
 10
97.387
 20
241.204
 11
97.3308
 21
241.211
  0
LINE
  8
0
 10
97.3308
 20
241.211
 11
97.2744
 21
241.214
  0
LINE
  8
0
 10
97.2744
 20
241.214
 11
97.2188
 21
241.225
  0
LINE
  8
0
 10
97.2188
 20
241.225
 11
97.1627
 21
241.232
  0
LINE
  8
0
 10
97.1627
 20
241.232
 11
97.1079
 21
241.246
  0
LINE
  8
0
 10
97.1079
 20
241.246
 11
97.0524
 21
241.257
  0
LINE
  8
0
 10
97.0524
 20
241.257
 11
97
 21
241.274
  0
LINE
  8
0
 10
97
 20
241.274
 11
97
 21
241.274
  0
LINE
  8
0
 10
97
 20
241.274
 11
96.9438
 21
241.288
  0
LINE
  8
0
 10
96.9438
 20
241.288
 11
96.7336
 21
241.371
  0
LINE
  8
0
 10
96.7336
 20
241.371
 11
96.5355
 21
241.48
  0
LINE
  8
0
 10
96.5355
 20
241.48
 11
96.3526
 21
241.613
  0
LINE
  8
0
 10
96.3526
 20
241.613
 11
96.1879
 21
241.768
  0
LINE
  8
0
 10
96.1879
 20
241.768
 11
96.0438
 21
241.942
  0
LINE
  8
0
 10
96.0438
 20
241.942
 11
95.9226
 21
242.133
  0
LINE
  8
0
 10
95.9226
 20
242.133
 11
95.8264
 21
242.337
  0
LINE
  8
0
 10
95.8264
 20
242.337
 11
95.7565
 21
242.552
  0
LINE
  8
0
 10
95.7565
 20
242.552
 11
95.7142
 21
242.774
  0
LINE
  8
0
 10
95.7142
 20
242.774
 11
95.7
 21
243
  0
LINE
  8
0
 10
95.7
 20
243
 11
95.7142
 21
243.226
  0
LINE
  8
0
 10
95.7142
 20
243.226
 11
95.7565
 21
243.448
  0
LINE
  8
0
 10
95.7565
 20
243.448
 11
95.8264
 21
243.663
  0
LINE
  8
0
 10
95.8264
 20
243.663
 11
95.9226
 21
243.867
  0
LINE
  8
0
 10
95.9226
 20
243.867
 11
96.0438
 21
244.058
  0
LINE
  8
0
 10
96.0438
 20
244.058
 11
96.1879
 21
244.232
  0
LINE
  8
0
 10
96.1879
 20
244.232
 11
96.3526
 21
244.387
  0
LINE
  8
0
 10
96.3526
 20
244.387
 11
96.5355
 21
244.52
  0
LINE
  8
0
 10
96.5355
 20
244.52
 11
96.7336
 21
244.629
  0
LINE
  8
0
 10
96.7336
 20
244.629
 11
96.9438
 21
244.712
  0
LINE
  8
0
 10
96.9438
 20
244.712
 11
97
 21
244.726
  0
LINE
  8
0
 10
97
 20
244.726
 11
97
 21
244.726
  0
LINE
  8
0
 10
97
 20
244.726
 11
97.0524
 21
244.743
  0
LINE
  8
0
 10
97.0524
 20
244.743
 11
97.1079
 21
244.754
  0
LINE
  8
0
 10
97.1079
 20
244.754
 11
97.1627
 21
244.768
  0
LINE
  8
0
 10
97.1627
 20
244.768
 11
97.2188
 21
244.775
  0
LINE
  8
0
 10
97.2188
 20
244.775
 11
97.2744
 21
244.786
  0
LINE
  8
0
 10
97.2744
 20
244.786
 11
97.3308
 21
244.789
  0
LINE
  8
0
 10
97.3308
 20
244.789
 11
97.387
 21
244.796
  0
LINE
  8
0
 10
97.387
 20
244.796
 11
97.4435
 21
244.796
  0
LINE
  8
0
 10
97.4435
 20
244.796
 11
97.5
 21
244.8
  0
LINE
  8
0
 10
97.5
 20
244.8
 11
97.5564
 21
244.796
  0
LINE
  8
0
 10
97.5564
 20
244.796
 11
97.613
 21
244.796
  0
LINE
  8
0
 10
97.613
 20
244.796
 11
97.6691
 21
244.789
  0
LINE
  8
0
 10
97.6691
 20
244.789
 11
97.7256
 21
244.786
  0
LINE
  8
0
 10
97.7256
 20
244.786
 11
97.7812
 21
244.775
  0
LINE
  8
0
 10
97.7812
 20
244.775
 11
97.8373
 21
244.768
  0
LINE
  8
0
 10
97.8373
 20
244.768
 11
97.8921
 21
244.754
  0
LINE
  8
0
 10
97.8921
 20
244.754
 11
97.9476
 21
244.743
  0
LINE
  8
0
 10
97.9476
 20
244.743
 11
98.0014
 21
244.726
  0
LINE
  8
0
 10
98.0014
 20
244.726
 11
98.0562
 21
244.712
  0
LINE
  8
0
 10
98.0562
 20
244.712
 11
98.1088
 21
244.691
  0
LINE
  8
0
 10
98.1088
 20
244.691
 11
98.1626
 21
244.674
  0
LINE
  8
0
 10
98.1626
 20
244.674
 11
98.2138
 21
244.65
  0
LINE
  8
0
 10
98.2138
 20
244.65
 11
98.2664
 21
244.629
  0
LINE
  8
0
 10
98.2664
 20
244.629
 11
98.316
 21
244.601
  0
LINE
  8
0
 10
98.316
 20
244.601
 11
98.3672
 21
244.577
  0
LINE
  8
0
 10
98.3672
 20
244.577
 11
98.4149
 21
244.547
  0
LINE
  8
0
 10
98.4149
 20
244.547
 11
98.4645
 21
244.52
  0
LINE
  8
0
 10
98.4645
 20
244.52
 11
98.5103
 21
244.487
  0
LINE
  8
0
 10
98.5103
 20
244.487
 11
98.558
 21
244.456
  0
LINE
  8
0
 10
98.558
 20
244.456
 11
98.6016
 21
244.42
  0
LINE
  8
0
 10
98.6016
 20
244.42
 11
98.6474
 21
244.387
  0
LINE
  8
0
 10
98.6474
 20
244.387
 11
98.6886
 21
244.348
  0
LINE
  8
0
 10
98.6886
 20
244.348
 11
98.7322
 21
244.312
  0
LINE
  8
0
 10
98.7322
 20
244.312
 11
98.7709
 21
244.271
  0
LINE
  8
0
 10
98.7709
 20
244.271
 11
98.8121
 21
244.232
  0
LINE
  8
0
 10
98.8121
 20
244.232
 11
98.8482
 21
244.189
  0
LINE
  8
0
 10
98.8482
 20
244.189
 11
98.8869
 21
244.147
  0
LINE
  8
0
 10
98.8869
 20
244.147
 11
98.9202
 21
244.102
  0
LINE
  8
0
 10
98.9202
 20
244.102
 11
98.9562
 21
244.058
  0
LINE
  8
0
 10
98.9562
 20
244.058
 11
98.9865
 21
244.01
  0
LINE
  8
0
 10
98.9865
 20
244.01
 11
99.0198
 21
243.964
  0
LINE
  8
0
 10
99.0198
 20
243.964
 11
99.047
 21
243.915
  0
LINE
  8
0
 10
99.047
 20
243.915
 11
99.0773
 21
243.867
  0
LINE
  8
0
 10
99.0773
 20
243.867
 11
99.1014
 21
243.816
  0
LINE
  8
0
 10
99.1014
 20
243.816
 11
99.1287
 21
243.766
  0
LINE
  8
0
 10
99.1287
 20
243.766
 11
99.1495
 21
243.714
  0
LINE
  8
0
 10
99.1495
 20
243.714
 11
99.1736
 21
243.663
  0
LINE
  8
0
 10
99.1736
 20
243.663
 11
99.1911
 21
243.609
  0
LINE
  8
0
 10
99.1911
 20
243.609
 11
99.2119
 21
243.556
  0
LINE
  8
0
 10
99.2119
 20
243.556
 11
99.226
 21
243.501
  0
LINE
  8
0
 10
99.226
 20
243.501
 11
99.2434
 21
243.448
  0
LINE
  8
0
 10
99.2434
 20
243.448
 11
99.254
 21
243.392
  0
LINE
  8
0
 10
99.254
 20
243.392
 11
99.2681
 21
243.337
  0
LINE
  8
0
 10
99.2681
 20
243.337
 11
99.2752
 21
243.281
  0
LINE
  8
0
 10
99.2752
 20
243.281
 11
99.2858
 21
243.226
  0
LINE
  8
0
 10
99.2858
 20
243.226
 11
99.2894
 21
243.169
  0
LINE
  8
0
 10
99.2894
 20
243.169
 11
99.2964
 21
243.113
  0
LINE
  8
0
 10
99.2964
 20
243.113
 11
99.2964
 21
243.056
  0
LINE
  8
0
 10
99.2964
 20
243.056
 11
99.3
 21
243
  0
LINE
  8
0
 10
99.3
 20
243
 11
99.2964
 21
242.944
  0
LINE
  8
0
 10
99.2964
 20
242.944
 11
99.2964
 21
242.887
  0
LINE
  8
0
 10
99.2964
 20
242.887
 11
99.2894
 21
242.831
  0
LINE
  8
0
 10
99.2894
 20
242.831
 11
99.2858
 21
242.774
  0
LINE
  8
0
 10
99.2858
 20
242.774
 11
99.2752
 21
242.719
  0
LINE
  8
0
 10
99.2752
 20
242.719
 11
99.2681
 21
242.663
  0
LINE
  8
0
 10
99.2681
 20
242.663
 11
99.254
 21
242.608
  0
LINE
  8
0
 10
99.254
 20
242.608
 11
99.2434
 21
242.552
  0
LINE
  8
0
 10
99.2434
 20
242.552
 11
99.226
 21
242.499
  0
LINE
  8
0
 10
99.226
 20
242.499
 11
99.2119
 21
242.444
  0
LINE
  8
0
 10
99.2119
 20
242.444
 11
99.1911
 21
242.391
  0
LINE
  8
0
 10
99.1911
 20
242.391
 11
99.1736
 21
242.337
  0
LINE
  8
0
 10
99.1736
 20
242.337
 11
99.1495
 21
242.286
  0
LINE
  8
0
 10
99.1495
 20
242.286
 11
99.1287
 21
242.234
  0
LINE
  8
0
 10
99.1287
 20
242.234
 11
99.1014
 21
242.184
  0
LINE
  8
0
 10
99.1014
 20
242.184
 11
99.0773
 21
242.133
  0
LINE
  8
0
 10
99.0773
 20
242.133
 11
99.047
 21
242.085
  0
LINE
  8
0
 10
99.047
 20
242.085
 11
99.0198
 21
242.036
  0
LINE
  8
0
 10
99.0198
 20
242.036
 11
98.9865
 21
241.99
  0
LINE
  8
0
 10
98.9865
 20
241.99
 11
98.9562
 21
241.942
  0
LINE
  8
0
 10
98.9562
 20
241.942
 11
98.9202
 21
241.898
  0
LINE
  8
0
 10
98.9202
 20
241.898
 11
98.8869
 21
241.853
  0
LINE
  8
0
 10
98.8869
 20
241.853
 11
98.8482
 21
241.811
  0
LINE
  8
0
 10
98.8482
 20
241.811
 11
98.8121
 21
241.768
  0
LINE
  8
0
 10
98.8121
 20
241.768
 11
98.7709
 21
241.729
  0
LINE
  8
0
 10
98.7709
 20
241.729
 11
98.7322
 21
241.688
  0
LINE
  8
0
 10
98.7322
 20
241.688
 11
98.6886
 21
241.652
  0
LINE
  8
0
 10
98.6886
 20
241.652
 11
98.6474
 21
241.613
  0
LINE
  8
0
 10
98.6474
 20
241.613
 11
98.6016
 21
241.58
  0
LINE
  8
0
 10
98.6016
 20
241.58
 11
98.558
 21
241.544
  0
LINE
  8
0
 10
98.558
 20
241.544
 11
98.5103
 21
241.513
  0
LINE
  8
0
 10
98.5103
 20
241.513
 11
98.4645
 21
241.48
  0
LINE
  8
0
 10
98.4645
 20
241.48
 11
98.4149
 21
241.453
  0
LINE
  8
0
 10
98.4149
 20
241.453
 11
98.3672
 21
241.423
  0
LINE
  8
0
 10
98.3672
 20
241.423
 11
98.316
 21
241.399
  0
LINE
  8
0
 10
98.316
 20
241.399
 11
98.2664
 21
241.371
  0
LINE
  8
0
 10
98.2664
 20
241.371
 11
98.2138
 21
241.35
  0
LINE
  8
0
 10
98.2138
 20
241.35
 11
98.1626
 21
241.326
  0
LINE
  8
0
 10
98.1626
 20
241.326
 11
98.1088
 21
241.309
  0
LINE
  8
0
 10
98.1088
 20
241.309
 11
98.0562
 21
241.288
  0
LINE
  8
0
 10
98.0562
 20
241.288
 11
98.0014
 21
241.274
  0
LINE
  8
0
 10
98.0014
 20
241.274
 11
97.9476
 21
241.257
  0
LINE
  8
0
 10
97.9476
 20
241.257
 11
97.8921
 21
241.246
  0
LINE
  8
0
 10
97.8921
 20
241.246
 11
97.8373
 21
241.232
  0
LINE
  8
0
 10
97.8373
 20
241.232
 11
97.7812
 21
241.225
  0
LINE
  8
0
 10
97.7812
 20
241.225
 11
97.7256
 21
241.214
  0
LINE
  8
0
 10
97.7256
 20
241.214
 11
97.6691
 21
241.211
  0
LINE
  8
0
 10
97.6691
 20
241.211
 11
97.613
 21
241.204
  0
LINE
  8
0
 10
97.613
 20
241.204
 11
97.5564
 21
241.204
  0
LINE
  8
0
 10
97.5564
 20
241.204
 11
97.5
 21
241.2
  0
LINE
  8
0
 10
97.5
 20
241.2
 11
97.4435
 21
241.204
  0
LINE
  8
0
 10
142.274
 20
241.214
 11
142.052
 21
241.257
  0
LINE
  8
0
 10
142.052
 20
241.257
 11
141.837
 21
241.326
  0
LINE
  8
0
 10
141.837
 20
241.326
 11
141.633
 21
241.423
  0
LINE
  8
0
 10
141.633
 20
241.423
 11
141.442
 21
241.544
  0
LINE
  8
0
 10
141.442
 20
241.544
 11
141.268
 21
241.688
  0
LINE
  8
0
 10
141.268
 20
241.688
 11
141.113
 21
241.853
  0
LINE
  8
0
 10
141.113
 20
241.853
 11
140.98
 21
242.036
  0
LINE
  8
0
 10
140.98
 20
242.036
 11
140.871
 21
242.234
  0
LINE
  8
0
 10
140.871
 20
242.234
 11
140.788
 21
242.444
  0
LINE
  8
0
 10
140.788
 20
242.444
 11
140.732
 21
242.663
  0
LINE
  8
0
 10
140.732
 20
242.663
 11
140.704
 21
242.887
  0
LINE
  8
0
 10
140.704
 20
242.887
 11
140.704
 21
243.113
  0
LINE
  8
0
 10
140.704
 20
243.113
 11
140.732
 21
243.337
  0
LINE
  8
0
 10
140.732
 20
243.337
 11
140.788
 21
243.556
  0
LINE
  8
0
 10
140.788
 20
243.556
 11
140.871
 21
243.766
  0
LINE
  8
0
 10
140.871
 20
243.766
 11
140.98
 21
243.964
  0
LINE
  8
0
 10
140.98
 20
243.964
 11
141.113
 21
244.147
  0
LINE
  8
0
 10
141.113
 20
244.147
 11
141.268
 21
244.312
  0
LINE
  8
0
 10
141.268
 20
244.312
 11
141.442
 21
244.456
  0
LINE
  8
0
 10
141.442
 20
244.456
 11
141.633
 21
244.577
  0
LINE
  8
0
 10
141.633
 20
244.577
 11
141.837
 21
244.674
  0
LINE
  8
0
 10
141.837
 20
244.674
 11
142.052
 21
244.743
  0
LINE
  8
0
 10
142.052
 20
244.743
 11
142.274
 21
244.786
  0
LINE
  8
0
 10
142.274
 20
244.786
 11
142.5
 21
244.8
  0
LINE
  8
0
 10
142.5
 20
244.8
 11
142.726
 21
244.786
  0
LINE
  8
0
 10
142.726
 20
244.786
 11
142.948
 21
244.743
  0
LINE
  8
0
 10
142.948
 20
244.743
 11
143.163
 21
244.674
  0
LINE
  8
0
 10
143.163
 20
244.674
 11
143.367
 21
244.577
  0
LINE
  8
0
 10
143.367
 20
244.577
 11
143.558
 21
244.456
  0
LINE
  8
0
 10
143.558
 20
244.456
 11
143.732
 21
244.312
  0
LINE
  8
0
 10
143.732
 20
244.312
 11
143.887
 21
244.147
  0
LINE
  8
0
 10
143.887
 20
244.147
 11
144.02
 21
243.964
  0
LINE
  8
0
 10
144.02
 20
243.964
 11
144.129
 21
243.766
  0
LINE
  8
0
 10
144.129
 20
243.766
 11
144.212
 21
243.556
  0
LINE
  8
0
 10
144.212
 20
243.556
 11
144.268
 21
243.337
  0
LINE
  8
0
 10
144.268
 20
243.337
 11
144.296
 21
243.113
  0
LINE
  8
0
 10
144.296
 20
243.113
 11
144.296
 21
242.887
  0
LINE
  8
0
 10
144.296
 20
242.887
 11
144.268
 21
242.663
  0
LINE
  8
0
 10
144.268
 20
242.663
 11
144.212
 21
242.444
  0
LINE
  8
0
 10
144.212
 20
242.444
 11
144.129
 21
242.234
  0
LINE
  8
0
 10
144.129
 20
242.234
 11
144.02
 21
242.036
  0
LINE
  8
0
 10
144.02
 20
242.036
 11
143.887
 21
241.853
  0
LINE
  8
0
 10
143.887
 20
241.853
 11
143.732
 21
241.688
  0
LINE
  8
0
 10
143.732
 20
241.688
 11
143.558
 21
241.544
  0
LINE
  8
0
 10
143.558
 20
241.544
 11
143.367
 21
241.423
  0
LINE
  8
0
 10
143.367
 20
241.423
 11
143.163
 21
241.326
  0
LINE
  8
0
 10
143.163
 20
241.326
 11
142.948
 21
241.257
  0
LINE
  8
0
 10
142.948
 20
241.257
 11
142.726
 21
241.214
  0
LINE
  8
0
 10
142.726
 20
241.214
 11
142.5
 21
241.2
  0
LINE
  8
0
 10
142.5
 20
241.2
 11
142.274
 21
241.214
  0
LINE
  8
0
 10
89.887
 20
233.704
 11
89.6627
 21
233.732
  0
LINE
  8
0
 10
89.6627
 20
233.732
 11
89.4438
 21
233.788
  0
LINE
  8
0
 10
89.4438
 20
233.788
 11
89.2336
 21
233.871
  0
LINE
  8
0
 10
89.2336
 20
233.871
 11
89.0355
 21
233.98
  0
LINE
  8
0
 10
89.0355
 20
233.98
 11
88.8526
 21
234.113
  0
LINE
  8
0
 10
88.8526
 20
234.113
 11
88.6879
 21
234.268
  0
LINE
  8
0
 10
88.6879
 20
234.268
 11
88.5438
 21
234.442
  0
LINE
  8
0
 10
88.5438
 20
234.442
 11
88.4226
 21
234.633
  0
LINE
  8
0
 10
88.4226
 20
234.633
 11
88.3264
 21
234.837
  0
LINE
  8
0
 10
88.3264
 20
234.837
 11
88.2565
 21
235.052
  0
LINE
  8
0
 10
88.2565
 20
235.052
 11
88.2142
 21
235.274
  0
LINE
  8
0
 10
88.2142
 20
235.274
 11
88.2
 21
235.5
  0
LINE
  8
0
 10
88.2
 20
235.5
 11
88.2142
 21
235.726
  0
LINE
  8
0
 10
88.2142
 20
235.726
 11
88.2565
 21
235.948
  0
LINE
  8
0
 10
88.2565
 20
235.948
 11
88.3264
 21
236.163
  0
LINE
  8
0
 10
88.3264
 20
236.163
 11
88.4226
 21
236.367
  0
LINE
  8
0
 10
88.4226
 20
236.367
 11
88.5438
 21
236.558
  0
LINE
  8
0
 10
88.5438
 20
236.558
 11
88.6879
 21
236.732
  0
LINE
  8
0
 10
88.6879
 20
236.732
 11
88.8526
 21
236.887
  0
LINE
  8
0
 10
88.8526
 20
236.887
 11
89.0355
 21
237.02
  0
LINE
  8
0
 10
89.0355
 20
237.02
 11
89.2336
 21
237.129
  0
LINE
  8
0
 10
89.2336
 20
237.129
 11
89.4438
 21
237.212
  0
LINE
  8
0
 10
89.4438
 20
237.212
 11
89.6627
 21
237.268
  0
LINE
  8
0
 10
89.6627
 20
237.268
 11
89.887
 21
237.296
  0
LINE
  8
0
 10
89.887
 20
237.296
 11
90.113
 21
237.296
  0
LINE
  8
0
 10
90.113
 20
237.296
 11
90.3373
 21
237.268
  0
LINE
  8
0
 10
90.3373
 20
237.268
 11
90.5562
 21
237.212
  0
LINE
  8
0
 10
90.5562
 20
237.212
 11
90.7664
 21
237.129
  0
LINE
  8
0
 10
90.7664
 20
237.129
 11
90.9645
 21
237.02
  0
LINE
  8
0
 10
90.9645
 20
237.02
 11
91.1474
 21
236.887
  0
LINE
  8
0
 10
91.1474
 20
236.887
 11
91.3121
 21
236.732
  0
LINE
  8
0
 10
91.3121
 20
236.732
 11
91.4562
 21
236.558
  0
LINE
  8
0
 10
91.4562
 20
236.558
 11
91.5773
 21
236.367
  0
LINE
  8
0
 10
91.5773
 20
236.367
 11
91.6736
 21
236.163
  0
LINE
  8
0
 10
91.6736
 20
236.163
 11
91.7434
 21
235.948
  0
LINE
  8
0
 10
91.7434
 20
235.948
 11
91.7858
 21
235.726
  0
LINE
  8
0
 10
91.7858
 20
235.726
 11
91.8
 21
235.5
  0
LINE
  8
0
 10
91.8
 20
235.5
 11
91.7858
 21
235.274
  0
LINE
  8
0
 10
91.7858
 20
235.274
 11
91.7434
 21
235.052
  0
LINE
  8
0
 10
91.7434
 20
235.052
 11
91.6736
 21
234.837
  0
LINE
  8
0
 10
91.6736
 20
234.837
 11
91.5773
 21
234.633
  0
LINE
  8
0
 10
91.5773
 20
234.633
 11
91.4562
 21
234.442
  0
LINE
  8
0
 10
91.4562
 20
234.442
 11
91.3121
 21
234.268
  0
LINE
  8
0
 10
91.3121
 20
234.268
 11
91.1474
 21
234.113
  0
LINE
  8
0
 10
91.1474
 20
234.113
 11
90.9645
 21
233.98
  0
LINE
  8
0
 10
90.9645
 20
233.98
 11
90.7664
 21
233.871
  0
LINE
  8
0
 10
90.7664
 20
233.871
 11
90.5562
 21
233.788
  0
LINE
  8
0
 10
90.5562
 20
233.788
 11
90.3373
 21
233.732
  0
LINE
  8
0
 10
90.3373
 20
233.732
 11
90.113
 21
233.704
  0
LINE
  8
0
 10
90.113
 20
233.704
 11
89.887
 21
233.704
  0
LINE
  8
0
 10
89.887
 20
188.704
 11
89.6627
 21
188.732
  0
LINE
  8
0
 10
89.6627
 20
188.732
 11
89.4438
 21
188.788
  0
LINE
  8
0
 10
89.4438
 20
188.788
 11
89.2336
 21
188.871
  0
LINE
  8
0
 10
89.2336
 20
188.871
 11
89.0355
 21
188.98
  0
LINE
  8
0
 10
89.0355
 20
188.98
 11
88.8526
 21
189.113
  0
LINE
  8
0
 10
88.8526
 20
189.113
 11
88.6879
 21
189.268
  0
LINE
  8
0
 10
88.6879
 20
189.268
 11
88.5438
 21
189.442
  0
LINE
  8
0
 10
88.5438
 20
189.442
 11
88.4226
 21
189.633
  0
LINE
  8
0
 10
88.4226
 20
189.633
 11
88.3264
 21
189.837
  0
LINE
  8
0
 10
88.3264
 20
189.837
 11
88.2565
 21
190.052
  0
LINE
  8
0
 10
88.2565
 20
190.052
 11
88.2142
 21
190.274
  0
LINE
  8
0
 10
88.2142
 20
190.274
 11
88.2
 21
190.5
  0
LINE
  8
0
 10
88.2
 20
190.5
 11
88.2142
 21
190.726
  0
LINE
  8
0
 10
88.2142
 20
190.726
 11
88.2565
 21
190.948
  0
LINE
  8
0
 10
88.2565
 20
190.948
 11
88.3264
 21
191.163
  0
LINE
  8
0
 10
88.3264
 20
191.163
 11
88.4226
 21
191.367
  0
LINE
  8
0
 10
88.4226
 20
191.367
 11
88.5438
 21
191.558
  0
LINE
  8
0
 10
88.5438
 20
191.558
 11
88.6879
 21
191.732
  0
LINE
  8
0
 10
88.6879
 20
191.732
 11
88.8526
 21
191.887
  0
LINE
  8
0
 10
88.8526
 20
191.887
 11
89.0355
 21
192.02
  0
LINE
  8
0
 10
89.0355
 20
192.02
 11
89.2336
 21
192.129
  0
LINE
  8
0
 10
89.2336
 20
192.129
 11
89.4438
 21
192.212
  0
LINE
  8
0
 10
89.4438
 20
192.212
 11
89.6627
 21
192.268
  0
LINE
  8
0
 10
89.6627
 20
192.268
 11
89.887
 21
192.296
  0
LINE
  8
0
 10
89.887
 20
192.296
 11
90.113
 21
192.296
  0
LINE
  8
0
 10
90.113
 20
192.296
 11
90.3373
 21
192.268
  0
LINE
  8
0
 10
90.3373
 20
192.268
 11
90.5562
 21
192.212
  0
LINE
  8
0
 10
90.5562
 20
192.212
 11
90.7664
 21
192.129
  0
LINE
  8
0
 10
90.7664
 20
192.129
 11
90.9645
 21
192.02
  0
LINE
  8
0
 10
90.9645
 20
192.02
 11
91.1474
 21
191.887
  0
LINE
  8
0
 10
91.1474
 20
191.887
 11
91.3121
 21
191.732
  0
LINE
  8
0
 10
91.3121
 20
191.732
 11
91.4562
 21
191.558
  0
LINE
  8
0
 10
91.4562
 20
191.558
 11
91.5773
 21
191.367
  0
LINE
  8
0
 10
91.5773
 20
191.367
 11
91.6736
 21
191.163
  0
LINE
  8
0
 10
91.6736
 20
191.163
 11
91.7434
 21
190.948
  0
LINE
  8
0
 10
91.7434
 20
190.948
 11
91.7858
 21
190.726
  0
LINE
  8
0
 10
91.7858
 20
190.726
 11
91.8
 21
190.5
  0
LINE
  8
0
 10
91.8
 20
190.5
 11
91.7858
 21
190.274
  0
LINE
  8
0
 10
91.7858
 20
190.274
 11
91.7434
 21
190.052
  0
LINE
  8
0
 10
91.7434
 20
190.052
 11
91.6736
 21
189.837
  0
LINE
  8
0
 10
91.6736
 20
189.837
 11
91.5773
 21
189.633
  0
LINE
  8
0
 10
91.5773
 20
189.633
 11
91.4562
 21
189.442
  0
LINE
  8
0
 10
91.4562
 20
189.442
 11
91.3121
 21
189.268
  0
LINE
  8
0
 10
91.3121
 20
189.268
 11
91.1474
 21
189.113
  0
LINE
  8
0
 10
91.1474
 20
189.113
 11
90.9645
 21
188.98
  0
LINE
  8
0
 10
90.9645
 20
188.98
 11
90.7664
 21
188.871
  0
LINE
  8
0
 10
90.7664
 20
188.871
 11
90.5562
 21
188.788
  0
LINE
  8
0
 10
90.5562
 20
188.788
 11
90.3373
 21
188.732
  0
LINE
  8
0
 10
90.3373
 20
188.732
 11
90.113
 21
188.704
  0
LINE
  8
0
 10
90.113
 20
188.704
 11
89.887
 21
188.704
  0
LINE
  8
0
 10
89.8116
 20
180.006
 11
89.4379
 21
180.053
  0
LINE
  8
0
 10
89.4379
 20
180.053
 11
89.073
 21
180.147
  0
LINE
  8
0
 10
89.073
 20
180.147
 11
88.7227
 21
180.286
  0
LINE
  8
0
 10
88.7227
 20
180.286
 11
88.3925
 21
180.467
  0
LINE
  8
0
 10
88.3925
 20
180.467
 11
88.0877
 21
180.688
  0
LINE
  8
0
 10
88.0877
 20
180.688
 11
87.8131
 21
180.946
  0
LINE
  8
0
 10
87.8131
 20
180.946
 11
87.573
 21
181.237
  0
LINE
  8
0
 10
87.573
 20
181.237
 11
87.3711
 21
181.555
  0
LINE
  8
0
 10
87.3711
 20
181.555
 11
87.2107
 21
181.896
  0
LINE
  8
0
 10
87.2107
 20
181.896
 11
87.0943
 21
182.254
  0
LINE
  8
0
 10
87.0943
 20
182.254
 11
87.0237
 21
182.624
  0
LINE
  8
0
 10
87.0237
 20
182.624
 11
87
 21
183
  0
LINE
  8
0
 10
87
 20
183
 11
87.0237
 21
183.376
  0
LINE
  8
0
 10
87.0237
 20
183.376
 11
87.0943
 21
183.746
  0
LINE
  8
0
 10
87.0943
 20
183.746
 11
87.2107
 21
184.104
  0
LINE
  8
0
 10
87.2107
 20
184.104
 11
87.3711
 21
184.445
  0
LINE
  8
0
 10
87.3711
 20
184.445
 11
87.573
 21
184.763
  0
LINE
  8
0
 10
87.573
 20
184.763
 11
87.8131
 21
185.054
  0
LINE
  8
0
 10
87.8131
 20
185.054
 11
88.0877
 21
185.312
  0
LINE
  8
0
 10
88.0877
 20
185.312
 11
88.3925
 21
185.533
  0
LINE
  8
0
 10
88.3925
 20
185.533
 11
88.7227
 21
185.714
  0
LINE
  8
0
 10
88.7227
 20
185.714
 11
89.073
 21
185.853
  0
LINE
  8
0
 10
89.073
 20
185.853
 11
89.4379
 21
185.947
  0
LINE
  8
0
 10
89.4379
 20
185.947
 11
89.8116
 21
185.994
  0
LINE
  8
0
 10
89.8116
 20
185.994
 11
90.1884
 21
185.994
  0
LINE
  8
0
 10
90.1884
 20
185.994
 11
90.5621
 21
185.947
  0
LINE
  8
0
 10
90.5621
 20
185.947
 11
90.927
 21
185.853
  0
LINE
  8
0
 10
90.927
 20
185.853
 11
91.2773
 21
185.714
  0
LINE
  8
0
 10
91.2773
 20
185.714
 11
91.6075
 21
185.533
  0
LINE
  8
0
 10
91.6075
 20
185.533
 11
91.9123
 21
185.312
  0
LINE
  8
0
 10
91.9123
 20
185.312
 11
92.1869
 21
185.054
  0
LINE
  8
0
 10
92.1869
 20
185.054
 11
92.427
 21
184.763
  0
LINE
  8
0
 10
92.427
 20
184.763
 11
92.6289
 21
184.445
  0
LINE
  8
0
 10
92.6289
 20
184.445
 11
92.7893
 21
184.104
  0
LINE
  8
0
 10
92.7893
 20
184.104
 11
92.9057
 21
183.746
  0
LINE
  8
0
 10
92.9057
 20
183.746
 11
92.9763
 21
183.376
  0
LINE
  8
0
 10
92.9763
 20
183.376
 11
93
 21
183
  0
LINE
  8
0
 10
93
 20
183
 11
92.9763
 21
182.624
  0
LINE
  8
0
 10
92.9763
 20
182.624
 11
92.9057
 21
182.254
  0
LINE
  8
0
 10
92.9057
 20
182.254
 11
92.7893
 21
181.896
  0
LINE
  8
0
 10
92.7893
 20
181.896
 11
92.6289
 21
181.555
  0
LINE
  8
0
 10
92.6289
 20
181.555
 11
92.427
 21
181.237
  0
LINE
  8
0
 10
92.427
 20
181.237
 11
92.1869
 21
180.946
  0
LINE
  8
0
 10
92.1869
 20
180.946
 11
91.9123
 21
180.688
  0
LINE
  8
0
 10
91.9123
 20
180.688
 11
91.6075
 21
180.467
  0
LINE
  8
0
 10
91.6075
 20
180.467
 11
91.2773
 21
180.286
  0
LINE
  8
0
 10
91.2773
 20
180.286
 11
90.927
 21
180.147
  0
LINE
  8
0
 10
90.927
 20
180.147
 11
90.5621
 21
180.053
  0
LINE
  8
0
 10
90.5621
 20
180.053
 11
90.1884
 21
180.006
  0
LINE
  8
0
 10
90.1884
 20
180.006
 11
89.8116
 21
180.006
  0
LINE
  8
0
 10
62.6267
 20
161.039
 11
63.2434
 21
161.157
  0
LINE
  8
0
 10
63.2434
 20
161.157
 11
63.8406
 21
161.351
  0
LINE
  8
0
 10
63.8406
 20
161.351
 11
64.4088
 21
161.618
  0
LINE
  8
0
 10
64.4088
 20
161.618
 11
64.9389
 21
161.955
  0
LINE
  8
0
 10
64.9389
 20
161.955
 11
65.4227
 21
162.355
  0
LINE
  8
0
 10
65.4227
 20
162.355
 11
65.8526
 21
162.813
  0
LINE
  8
0
 10
65.8526
 20
162.813
 11
66.2216
 21
163.321
  0
LINE
  8
0
 10
66.2216
 20
163.321
 11
66.5241
 21
163.871
  0
LINE
  8
0
 10
66.5241
 20
163.871
 11
66.7553
 21
164.455
  0
LINE
  8
0
 10
66.7553
 20
164.455
 11
66.9114
 21
165.063
  0
LINE
  8
0
 10
66.9114
 20
165.063
 11
66.9901
 21
165.686
  0
LINE
  8
0
 10
66.9901
 20
165.686
 11
66.9901
 21
170.314
  0
LINE
  8
0
 10
66.9901
 20
170.314
 11
66.9114
 21
170.937
  0
LINE
  8
0
 10
66.9114
 20
170.937
 11
66.7553
 21
171.545
  0
LINE
  8
0
 10
66.7553
 20
171.545
 11
66.5241
 21
172.129
  0
LINE
  8
0
 10
66.5241
 20
172.129
 11
66.2216
 21
172.679
  0
LINE
  8
0
 10
66.2216
 20
172.679
 11
65.8526
 21
173.187
  0
LINE
  8
0
 10
65.8526
 20
173.187
 11
65.4227
 21
173.645
  0
LINE
  8
0
 10
65.4227
 20
173.645
 11
64.9389
 21
174.045
  0
LINE
  8
0
 10
64.9389
 20
174.045
 11
64.4088
 21
174.382
  0
LINE
  8
0
 10
64.4088
 20
174.382
 11
63.8406
 21
174.649
  0
LINE
  8
0
 10
63.8406
 20
174.649
 11
63.2434
 21
174.843
  0
LINE
  8
0
 10
63.2434
 20
174.843
 11
62.6267
 21
174.961
  0
LINE
  8
0
 10
62.6267
 20
174.961
 11
62
 21
175
  0
LINE
  8
0
 10
62
 20
175
 11
7
 21
175
  0
LINE
  8
0
 10
7
 20
175
 11
7
 21
230
  0
LINE
  8
0
 10
7
 20
230
 11
6.96057
 21
230.627
  0
LINE
  8
0
 10
6.96057
 20
230.627
 11
6.84291
 21
231.243
  0
LINE
  8
0
 10
6.84291
 20
231.243
 11
6.64888
 21
231.841
  0
LINE
  8
0
 10
6.64888
 20
231.841
 11
6.38153
 21
232.409
  0
LINE
  8
0
 10
6.38153
 20
232.409
 11
6.04507
 21
232.939
  0
LINE
  8
0
 10
6.04507
 20
232.939
 11
5.64484
 21
233.423
  0
LINE
  8
0
 10
5.64484
 20
233.423
 11
5.18712
 21
233.853
  0
LINE
  8
0
 10
5.18712
 20
233.853
 11
4.67912
 21
234.222
  0
LINE
  8
0
 10
4.67912
 20
234.222
 11
4.12889
 21
234.524
  0
LINE
  8
0
 10
4.12889
 20
234.524
 11
3.54507
 21
234.755
  0
LINE
  8
0
 10
3.54507
 20
234.755
 11
2.9369
 21
234.911
  0
LINE
  8
0
 10
2.9369
 20
234.911
 11
2.31395
 21
234.99
  0
LINE
  8
0
 10
2.31395
 20
234.99
 11
-2.31395
 21
234.99
  0
LINE
  8
0
 10
-2.31395
 20
234.99
 11
-2.9369
 21
234.911
  0
LINE
  8
0
 10
-2.9369
 20
234.911
 11
-3.54507
 21
234.755
  0
LINE
  8
0
 10
-3.54507
 20
234.755
 11
-4.12889
 21
234.524
  0
LINE
  8
0
 10
-4.12889
 20
234.524
 11
-4.67912
 21
234.222
  0
LINE
  8
0
 10
-4.67912
 20
234.222
 11
-5.18712
 21
233.853
  0
LINE
  8
0
 10
-5.18712
 20
233.853
 11
-5.64484
 21
233.423
  0
LINE
  8
0
 10
-5.64484
 20
233.423
 11
-6.04507
 21
232.939
  0
LINE
  8
0
 10
-6.04507
 20
232.939
 11
-6.38153
 21
232.409
  0
LINE
  8
0
 10
-6.38153
 20
232.409
 11
-6.64888
 21
231.841
  0
LINE
  8
0
 10
-6.64888
 20
231.841
 11
-6.84291
 21
231.243
  0
LINE
  8
0
 10
-6.84291
 20
231.243
 11
-6.96057
 21
230.627
  0
LINE
  8
0
 10
-6.96057
 20
230.627
 11
-7
 21
230
  0
LINE
  8
0
 10
-7
 20
230
 11
-7
 21
166
  0
LINE
  8
0
 10
-7
 20
166
 11
-6.99013
 21
165.843
  0
LINE
  8
0
 10
-6.99013
 20
165.843
 11
-6.99013
 21
165.686
  0
LINE
  8
0
 10
-6.99013
 20
165.686
 11
-6.97043
 21
165.53
  0
LINE
  8
0
 10
-6.97043
 20
165.53
 11
-6.96057
 21
165.373
  0
LINE
  8
0
 10
-6.96057
 20
165.373
 11
-6.93112
 21
165.219
  0
LINE
  8
0
 10
-6.93112
 20
165.219
 11
-6.91142
 21
165.063
  0
LINE
  8
0
 10
-6.91142
 20
165.063
 11
-6.87234
 21
164.911
  0
LINE
  8
0
 10
-6.87234
 20
164.911
 11
-6.84291
 21
164.757
  0
LINE
  8
0
 10
-6.84291
 20
164.757
 11
-6.79436
 21
164.607
  0
LINE
  8
0
 10
-6.79436
 20
164.607
 11
-6.75528
 21
164.455
  0
LINE
  8
0
 10
-6.75528
 20
164.455
 11
-6.69743
 21
164.309
  0
LINE
  8
0
 10
-6.69743
 20
164.309
 11
-6.64888
 21
164.159
  0
LINE
  8
0
 10
-6.64888
 20
164.159
 11
-6.58197
 21
164.017
  0
LINE
  8
0
 10
-6.58197
 20
164.017
 11
-6.52412
 21
163.871
  0
LINE
  8
0
 10
-6.52412
 20
163.871
 11
-6.44843
 21
163.733
  0
LINE
  8
0
 10
-6.44843
 20
163.733
 11
-6.38153
 21
163.591
  0
LINE
  8
0
 10
-6.38153
 20
163.591
 11
-6.29733
 21
163.459
  0
LINE
  8
0
 10
-6.29733
 20
163.459
 11
-6.22163
 21
163.321
  0
LINE
  8
0
 10
-6.22163
 20
163.321
 11
-6.12927
 21
163.194
  0
LINE
  8
0
 10
-6.12927
 20
163.194
 11
-6.04507
 21
163.061
  0
LINE
  8
0
 10
-6.04507
 20
163.061
 11
-5.94492
 21
162.94
  0
LINE
  8
0
 10
-5.94492
 20
162.94
 11
-5.85255
 21
162.813
  0
LINE
  8
0
 10
-5.85255
 20
162.813
 11
-5.745
 21
162.698
  0
LINE
  8
0
 10
-5.745
 20
162.698
 11
-5.64484
 21
162.577
  0
LINE
  8
0
 10
-5.64484
 20
162.577
 11
-5.53029
 21
162.47
  0
LINE
  8
0
 10
-5.53029
 20
162.47
 11
-5.42273
 21
162.355
  0
LINE
  8
0
 10
-5.42273
 20
162.355
 11
-5.30165
 21
162.255
  0
LINE
  8
0
 10
-5.30165
 20
162.255
 11
-5.18712
 21
162.147
  0
LINE
  8
0
 10
-5.18712
 20
162.147
 11
-5.06
 21
162.055
  0
LINE
  8
0
 10
-5.06
 20
162.055
 11
-4.93892
 21
161.955
  0
LINE
  8
0
 10
-4.93892
 20
161.955
 11
-4.80624
 21
161.871
  0
LINE
  8
0
 10
-4.80624
 20
161.871
 11
-4.67912
 21
161.778
  0
LINE
  8
0
 10
-4.67912
 20
161.778
 11
-4.54143
 21
161.703
  0
LINE
  8
0
 10
-4.54143
 20
161.703
 11
-4.40877
 21
161.618
  0
LINE
  8
0
 10
-4.40877
 20
161.618
 11
-4.26659
 21
161.552
  0
LINE
  8
0
 10
-4.26659
 20
161.552
 11
-4.12889
 21
161.476
  0
LINE
  8
0
 10
-4.12889
 20
161.476
 11
-3.98279
 21
161.418
  0
LINE
  8
0
 10
-3.98279
 20
161.418
 11
-3.84062
 21
161.351
  0
LINE
  8
0
 10
-3.84062
 20
161.351
 11
-3.69118
 21
161.303
  0
LINE
  8
0
 10
-3.69118
 20
161.303
 11
-3.54507
 21
161.245
  0
LINE
  8
0
 10
-3.54507
 20
161.245
 11
-3.39288
 21
161.206
  0
LINE
  8
0
 10
-3.39288
 20
161.206
 11
-3.24344
 21
161.157
  0
LINE
  8
0
 10
-3.24344
 20
161.157
 11
-3.0891
 21
161.128
  0
LINE
  8
0
 10
-3.0891
 20
161.128
 11
-2.9369
 21
161.089
  0
LINE
  8
0
 10
-2.9369
 20
161.089
 11
-2.78101
 21
161.069
  0
LINE
  8
0
 10
-2.78101
 20
161.069
 11
-2.62666
 21
161.039
  0
LINE
  8
0
 10
-2.62666
 20
161.039
 11
-2.46983
 21
161.03
  0
LINE
  8
0
 10
-2.46983
 20
161.03
 11
-2.31395
 21
161.01
  0
LINE
  8
0
 10
-2.31395
 20
161.01
 11
-2.15681
 21
161.01
  0
LINE
  8
0
 10
-2.15681
 20
161.01
 11
-2
 21
161
  0
LINE
  8
0
 10
-2
 20
161
 11
62
 21
161
  0
LINE
  8
0
 10
62
 20
161
 11
62.6267
 21
161.039
  0
LINE
  8
0
 10
-0.18837
 20
225.006
 11
-0.562134
 21
225.053
  0
LINE
  8
0
 10
-0.562134
 20
225.053
 11
-0.927048
 21
225.147
  0
LINE
  8
0
 10
-0.927048
 20
225.147
 11
-1.27733
 21
225.286
  0
LINE
  8
0
 10
-1.27733
 20
225.286
 11
-1.60747
 21
225.467
  0
LINE
  8
0
 10
-1.60747
 20
225.467
 11
-1.91226
 21
225.688
  0
LINE
  8
0
 10
-1.91226
 20
225.688
 11
-2.1869
 21
225.946
  0
LINE
  8
0
 10
-2.1869
 20
225.946
 11
-2.42705
 21
226.237
  0
LINE
  8
0
 10
-2.42705
 20
226.237
 11
-2.62891
 21
226.555
  0
LINE
  8
0
 10
-2.62891
 20
226.555
 11
-2.78932
 21
226.896
  0
LINE
  8
0
 10
-2.78932
 20
226.896
 11
-2.90575
 21
227.254
  0
LINE
  8
0
 10
-2.90575
 20
227.254
 11
-2.97633
 21
227.624
  0
LINE
  8
0
 10
-2.97633
 20
227.624
 11
-3
 21
228
  0
LINE
  8
0
 10
-3
 20
228
 11
-2.97633
 21
228.376
  0
LINE
  8
0
 10
-2.97633
 20
228.376
 11
-2.90575
 21
228.746
  0
LINE
  8
0
 10
-2.90575
 20
228.746
 11
-2.78932
 21
229.104
  0
LINE
  8
0
 10
-2.78932
 20
229.104
 11
-2.62891
 21
229.445
  0
LINE
  8
0
 10
-2.62891
 20
229.445
 11
-2.42705
 21
229.763
  0
LINE
  8
0
 10
-2.42705
 20
229.763
 11
-2.1869
 21
230.054
  0
LINE
  8
0
 10
-2.1869
 20
230.054
 11
-1.91226
 21
230.312
  0
LINE
  8
0
 10
-1.91226
 20
230.312
 11
-1.60747
 21
230.533
  0
LINE
  8
0
 10
-1.60747
 20
230.533
 11
-1.27733
 21
230.714
  0
LINE
  8
0
 10
-1.27733
 20
230.714
 11
-0.927048
 21
230.853
  0
LINE
  8
0
 10
-0.927048
 20
230.853
 11
-0.562134
 21
230.947
  0
LINE
  8
0
 10
-0.562134
 20
230.947
 11
-0.18837
 21
230.994
  0
LINE
  8
0
 10
-0.18837
 20
230.994
 11
0.18837
 21
230.994
  0
LINE
  8
0
 10
0.18837
 20
230.994
 11
0.562134
 21
230.947
  0
LINE
  8
0
 10
0.562134
 20
230.947
 11
0.927048
 21
230.853
  0
LINE
  8
0
 10
0.927048
 20
230.853
 11
1.27733
 21
230.714
  0
LINE
  8
0
 10
1.27733
 20
230.714
 11
1.60747
 21
230.533
  0
LINE
  8
0
 10
1.60747
 20
230.533
 11
1.91226
 21
230.312
  0
LINE
  8
0
 10
1.91226
 20
230.312
 11
2.1869
 21
230.054
  0
LINE
  8
0
 10
2.1869
 20
230.054
 11
2.42705
 21
229.763
  0
LINE
  8
0
 10
2.42705
 20
229.763
 11
2.62891
 21
229.445
  0
LINE
  8
0
 10
2.62891
 20
229.445
 11
2.78932
 21
229.104
  0
LINE
  8
0
 10
2.78932
 20
229.104
 11
2.90575
 21
228.746
  0
LINE
  8
0
 10
2.90575
 20
228.746
 11
2.97633
 21
228.376
  0
LINE
  8
0
 10
2.97633
 20
228.376
 11
3
 21
228
  0
LINE
  8
0
 10
3
 20
228
 11
2.97633
 21
227.624
  0
LINE
  8
0
 10
2.97633
 20
227.624
 11
2.90575
 21
227.254
  0
LINE
  8
0
 10
2.90575
 20
227.254
 11
2.78932
 21
226.896
  0
LINE
  8
0
 10
2.78932
 20
226.896
 11
2.62891
 21
226.555
  0
LINE
  8
0
 10
2.62891
 20
226.555
 11
2.42705
 21
226.237
  0
LINE
  8
0
 10
2.42705
 20
226.237
 11
2.1869
 21
225.946
  0
LINE
  8
0
 10
2.1869
 20
225.946
 11
1.91226
 21
225.688
  0
LINE
  8
0
 10
1.91226
 20
225.688
 11
1.60747
 21
225.467
  0
LINE
  8
0
 10
1.60747
 20
225.467
 11
1.27733
 21
225.286
  0
LINE
  8
0
 10
1.27733
 20
225.286
 11
0.927048
 21
225.147
  0
LINE
  8
0
 10
0.927048
 20
225.147
 11
0.562134
 21
225.053
  0
LINE
  8
0
 10
0.562134
 20
225.053
 11
0.18837
 21
225.006
  0
LINE
  8
0
 10
0.18837
 20
225.006
 11
-0.18837
 21
225.006
  0
LINE
  8
0
 10
-1.58675
 20
217.752
 11
-3.17349
 21
220.5
  0
LINE
  8
0
 10
-3.17349
 20
220.5
 11
-1.58675
 21
223.248
  0
LINE
  8
0
 10
-1.58675
 20
223.248
 11
1.58675
 21
223.248
  0
LINE
  8
0
 10
1.58675
 20
223.248
 11
3.17349
 21
220.5
  0
LINE
  8
0
 10
3.17349
 20
220.5
 11
1.58675
 21
217.752
  0
LINE
  8
0
 10
1.58675
 20
217.752
 11
-1.58675
 21
217.752
  0
LINE
  8
0
 10
-1.58675
 20
172.752
 11
-3.17349
 21
175.5
  0
LINE
  8
0
 10
-3.17349
 20
175.5
 11
-1.58675
 21
178.248
  0
LINE
  8
0
 10
-1.58675
 20
178.248
 11
1.58675
 21
178.248
  0
LINE
  8
0
 10
1.58675
 20
178.248
 11
3.17349
 21
175.5
  0
LINE
  8
0
 10
3.17349
 20
175.5
 11
1.58675
 21
172.752
  0
LINE
  8
0
 10
1.58675
 20
172.752
 11
-1.58675
 21
172.752
  0
LINE
  8
0
 10
6.92012
 20
165.161
 11
6.93736
 21
165.252
  0
LINE
  8
0
 10
6.93736
 20
165.252
 11
5.91325
 21
165.252
  0
LINE
  8
0
 10
5.91325
 20
165.252
 11
4.32651
 21
168
  0
LINE
  8
0
 10
4.32651
 20
168
 11
5.91325
 21
170.748
  0
LINE
  8
0
 10
5.91325
 20
170.748
 11
7
 21
170.748
  0
LINE
  8
0
 10
7
 20
170.748
 11
7
 21
170.885
  0
LINE
  8
0
 10
7
 20
170.885
 11
7.5
 21
171.173
  0
LINE
  8
0
 10
7.5
 20
171.173
 11
8.2364
 21
170.748
  0
LINE
  8
0
 10
8.2364
 20
170.748
 11
9.08675
 21
170.748
  0
LINE
  8
0
 10
9.08675
 20
170.748
 11
9.5119
 21
170.012
  0
LINE
  8
0
 10
9.5119
 20
170.012
 11
10.2483
 21
169.587
  0
LINE
  8
0
 10
10.2483
 20
169.587
 11
10.2483
 21
168.736
  0
LINE
  8
0
 10
10.2483
 20
168.736
 11
10.6735
 21
168
  0
LINE
  8
0
 10
10.6735
 20
168
 11
10.2483
 21
167.264
  0
LINE
  8
0
 10
10.2483
 20
167.264
 11
10.2483
 21
166.413
  0
LINE
  8
0
 10
10.2483
 20
166.413
 11
9.5119
 21
165.988
  0
LINE
  8
0
 10
9.5119
 20
165.988
 11
9.08675
 21
165.252
  0
LINE
  8
0
 10
9.08675
 20
165.252
 11
8.2364
 21
165.252
  0
LINE
  8
0
 10
8.2364
 20
165.252
 11
7.5
 21
164.827
  0
LINE
  8
0
 10
7.5
 20
164.827
 11
6.92012
 21
165.161
  0
LINE
  8
0
 10
49.7517
 20
166.413
 11
49.7517
 21
169.587
  0
LINE
  8
0
 10
49.7517
 20
169.587
 11
52.5
 21
171.173
  0
LINE
  8
0
 10
52.5
 20
171.173
 11
55.2483
 21
169.587
  0
LINE
  8
0
 10
55.2483
 20
169.587
 11
55.2483
 21
166.413
  0
LINE
  8
0
 10
55.2483
 20
166.413
 11
52.5
 21
164.827
  0
LINE
  8
0
 10
52.5
 20
164.827
 11
49.7517
 21
166.413
  0
LINE
  8
0
 10
59.624
 20
165.024
 11
59.2539
 21
165.094
  0
LINE
  8
0
 10
59.2539
 20
165.094
 11
58.8956
 21
165.211
  0
LINE
  8
0
 10
58.8956
 20
165.211
 11
58.5547
 21
165.371
  0
LINE
  8
0
 10
58.5547
 20
165.371
 11
58.2366
 21
165.573
  0
LINE
  8
0
 10
58.2366
 20
165.573
 11
57.9464
 21
165.813
  0
LINE
  8
0
 10
57.9464
 20
165.813
 11
57.6885
 21
166.088
  0
LINE
  8
0
 10
57.6885
 20
166.088
 11
57.467
 21
166.393
  0
LINE
  8
0
 10
57.467
 20
166.393
 11
57.2855
 21
166.723
  0
LINE
  8
0
 10
57.2855
 20
166.723
 11
57.1468
 21
167.073
  0
LINE
  8
0
 10
57.1468
 20
167.073
 11
57.0531
 21
167.438
  0
LINE
  8
0
 10
57.0531
 20
167.438
 11
57.0059
 21
167.812
  0
LINE
  8
0
 10
57.0059
 20
167.812
 11
57.0059
 21
168.188
  0
LINE
  8
0
 10
57.0059
 20
168.188
 11
57.0531
 21
168.562
  0
LINE
  8
0
 10
57.0531
 20
168.562
 11
57.1468
 21
168.927
  0
LINE
  8
0
 10
57.1468
 20
168.927
 11
57.2855
 21
169.277
  0
LINE
  8
0
 10
57.2855
 20
169.277
 11
57.467
 21
169.607
  0
LINE
  8
0
 10
57.467
 20
169.607
 11
57.6885
 21
169.912
  0
LINE
  8
0
 10
57.6885
 20
169.912
 11
57.9464
 21
170.187
  0
LINE
  8
0
 10
57.9464
 20
170.187
 11
58.2366
 21
170.427
  0
LINE
  8
0
 10
58.2366
 20
170.427
 11
58.5547
 21
170.629
  0
LINE
  8
0
 10
58.5547
 20
170.629
 11
58.8956
 21
170.789
  0
LINE
  8
0
 10
58.8956
 20
170.789
 11
59.2539
 21
170.906
  0
LINE
  8
0
 10
59.2539
 20
170.906
 11
59.624
 21
170.976
  0
LINE
  8
0
 10
59.624
 20
170.976
 11
60
 21
171
  0
LINE
  8
0
 10
60
 20
171
 11
60.376
 21
170.976
  0
LINE
  8
0
 10
60.376
 20
170.976
 11
60.7461
 21
170.906
  0
LINE
  8
0
 10
60.7461
 20
170.906
 11
61.1044
 21
170.789
  0
LINE
  8
0
 10
61.1044
 20
170.789
 11
61.4453
 21
170.629
  0
LINE
  8
0
 10
61.4453
 20
170.629
 11
61.7634
 21
170.427
  0
LINE
  8
0
 10
61.7634
 20
170.427
 11
62.0536
 21
170.187
  0
LINE
  8
0
 10
62.0536
 20
170.187
 11
62.3115
 21
169.912
  0
LINE
  8
0
 10
62.3115
 20
169.912
 11
62.533
 21
169.607
  0
LINE
  8
0
 10
62.533
 20
169.607
 11
62.7145
 21
169.277
  0
LINE
  8
0
 10
62.7145
 20
169.277
 11
62.8532
 21
168.927
  0
LINE
  8
0
 10
62.8532
 20
168.927
 11
62.9469
 21
168.562
  0
LINE
  8
0
 10
62.9469
 20
168.562
 11
62.9941
 21
168.188
  0
LINE
  8
0
 10
62.9941
 20
168.188
 11
62.9941
 21
167.812
  0
LINE
  8
0
 10
62.9941
 20
167.812
 11
62.9469
 21
167.438
  0
LINE
  8
0
 10
62.9469
 20
167.438
 11
62.8532
 21
167.073
  0
LINE
  8
0
 10
62.8532
 20
167.073
 11
62.7145
 21
166.723
  0
LINE
  8
0
 10
62.7145
 20
166.723
 11
62.533
 21
166.393
  0
LINE
  8
0
 10
62.533
 20
166.393
 11
62.3115
 21
166.088
  0
LINE
  8
0
 10
62.3115
 20
166.088
 11
62.0536
 21
165.813
  0
LINE
  8
0
 10
62.0536
 20
165.813
 11
61.7634
 21
165.573
  0
LINE
  8
0
 10
61.7634
 20
165.573
 11
61.4453
 21
165.371
  0
LINE
  8
0
 10
61.4453
 20
165.371
 11
61.1044
 21
165.211
  0
LINE
  8
0
 10
61.1044
 20
165.211
 11
60.7461
 21
165.094
  0
LINE
  8
0
 10
60.7461
 20
165.094
 11
60.376
 21
165.024
  0
LINE
  8
0
 10
60.376
 20
165.024
 11
60
 21
165
  0
LINE
  8
0
 10
60
 20
165
 11
59.624
 21
165.024
  0
LINE
  8
0
 10
-0.0940857
 20
165.006
 11
-0.281906
 21
165.018
  0
LINE
  8
0
 10
-0.281906
 20
165.018
 11
-0.468597
 21
165.041
  0
LINE
  8
0
 10
-0.468597
 20
165.041
 11
-0.653458
 21
165.077
  0
LINE
  8
0
 10
-0.653458
 20
165.077
 11
-0.835724
 21
165.123
  0
LINE
  8
0
 10
-0.835724
 20
165.123
 11
-1.01471
 21
165.182
  0
LINE
  8
0
 10
-1.01471
 20
165.182
 11
-1.18967
 21
165.251
  0
LINE
  8
0
 10
-1.18967
 20
165.251
 11
-1.35994
 21
165.331
  0
LINE
  8
0
 10
-1.35994
 20
165.331
 11
-1.52486
 21
165.422
  0
LINE
  8
0
 10
-1.52486
 20
165.422
 11
-1.68375
 21
165.522
  0
LINE
  8
0
 10
-1.68375
 20
165.522
 11
-1.83598
 21
165.633
  0
LINE
  8
0
 10
-1.83598
 20
165.633
 11
-1.98099
 21
165.753
  0
LINE
  8
0
 10
-1.98099
 20
165.753
 11
-2.11816
 21
165.882
  0
LINE
  8
0
 10
-2.11816
 20
165.882
 11
-2.24699
 21
166.019
  0
LINE
  8
0
 10
-2.24699
 20
166.019
 11
-2.36694
 21
166.164
  0
LINE
  8
0
 10
-2.36694
 20
166.164
 11
-2.47757
 21
166.316
  0
LINE
  8
0
 10
-2.47757
 20
166.316
 11
-2.57838
 21
166.475
  0
LINE
  8
0
 10
-2.57838
 20
166.475
 11
-2.66905
 21
166.64
  0
LINE
  8
0
 10
-2.66905
 20
166.64
 11
-2.74918
 21
166.81
  0
LINE
  8
0
 10
-2.74918
 20
166.81
 11
-2.81845
 21
166.985
  0
LINE
  8
0
 10
-2.81845
 20
166.985
 11
-2.8766
 21
167.164
  0
LINE
  8
0
 10
-2.8766
 20
167.164
 11
-2.9234
 21
167.347
  0
LINE
  8
0
 10
-2.9234
 20
167.347
 11
-2.95866
 21
167.531
  0
LINE
  8
0
 10
-2.95866
 20
167.531
 11
-2.98225
 21
167.718
  0
LINE
  8
0
 10
-2.98225
 20
167.718
 11
-2.99408
 21
167.906
  0
LINE
  8
0
 10
-2.99408
 20
167.906
 11
-2.99408
 21
168.094
  0
LINE
  8
0
 10
-2.99408
 20
168.094
 11
-2.98225
 21
168.282
  0
LINE
  8
0
 10
-2.98225
 20
168.282
 11
-2.95866
 21
168.469
  0
LINE
  8
0
 10
-2.95866
 20
168.469
 11
-2.9234
 21
168.653
  0
LINE
  8
0
 10
-2.9234
 20
168.653
 11
-2.8766
 21
168.836
  0
LINE
  8
0
 10
-2.8766
 20
168.836
 11
-2.81845
 21
169.015
  0
LINE
  8
0
 10
-2.81845
 20
169.015
 11
-2.74918
 21
169.19
  0
LINE
  8
0
 10
-2.74918
 20
169.19
 11
-2.66907
 21
169.36
  0
LINE
  8
0
 10
-2.66907
 20
169.36
 11
-2.57838
 21
169.525
  0
LINE
  8
0
 10
-2.57838
 20
169.525
 11
-2.47757
 21
169.684
  0
LINE
  8
0
 10
-2.47757
 20
169.684
 11
-2.36694
 21
169.836
  0
LINE
  8
0
 10
-2.36694
 20
169.836
 11
-2.24699
 21
169.981
  0
LINE
  8
0
 10
-2.24699
 20
169.981
 11
-2.11816
 21
170.118
  0
LINE
  8
0
 10
-2.11816
 20
170.118
 11
-1.981
 21
170.247
  0
LINE
  8
0
 10
-1.981
 20
170.247
 11
-1.83598
 21
170.367
  0
LINE
  8
0
 10
-1.83598
 20
170.367
 11
-1.68375
 21
170.478
  0
LINE
  8
0
 10
-1.68375
 20
170.478
 11
-1.52486
 21
170.578
  0
LINE
  8
0
 10
-1.52486
 20
170.578
 11
-1.35995
 21
170.669
  0
LINE
  8
0
 10
-1.35995
 20
170.669
 11
-1.18965
 21
170.749
  0
LINE
  8
0
 10
-1.18965
 20
170.749
 11
-1.01472
 21
170.818
  0
LINE
  8
0
 10
-1.01472
 20
170.818
 11
-0.835709
 21
170.877
  0
LINE
  8
0
 10
-0.835709
 20
170.877
 11
-0.653473
 21
170.923
  0
LINE
  8
0
 10
-0.653473
 20
170.923
 11
-0.468582
 21
170.959
  0
LINE
  8
0
 10
-0.468582
 20
170.959
 11
-0.281921
 21
170.982
  0
LINE
  8
0
 10
-0.281921
 20
170.982
 11
-0.0940704
 21
170.994
  0
LINE
  8
0
 10
-0.0940704
 20
170.994
 11
0.0940704
 21
170.994
  0
LINE
  8
0
 10
0.0940704
 20
170.994
 11
0.281921
 21
170.982
  0
LINE
  8
0
 10
0.281921
 20
170.982
 11
0.468582
 21
170.959
  0
LINE
  8
0
 10
0.468582
 20
170.959
 11
0.653458
 21
170.923
  0
LINE
  8
0
 10
0.653458
 20
170.923
 11
0.835709
 21
170.877
  0
LINE
  8
0
 10
0.835709
 20
170.877
 11
1.01472
 21
170.818
  0
LINE
  8
0
 10
1.01472
 20
170.818
 11
1.18967
 21
170.749
  0
LINE
  8
0
 10
1.18967
 20
170.749
 11
1.35994
 21
170.669
  0
LINE
  8
0
 10
1.35994
 20
170.669
 11
1.52486
 21
170.578
  0
LINE
  8
0
 10
1.52486
 20
170.578
 11
1.68375
 21
170.478
  0
LINE
  8
0
 10
1.68375
 20
170.478
 11
1.83598
 21
170.367
  0
LINE
  8
0
 10
1.83598
 20
170.367
 11
1.98099
 21
170.247
  0
LINE
  8
0
 10
1.98099
 20
170.247
 11
2.11818
 21
170.118
  0
LINE
  8
0
 10
2.11818
 20
170.118
 11
2.24699
 21
169.981
  0
LINE
  8
0
 10
2.24699
 20
169.981
 11
2.36694
 21
169.836
  0
LINE
  8
0
 10
2.36694
 20
169.836
 11
2.47755
 21
169.684
  0
LINE
  8
0
 10
2.47755
 20
169.684
 11
2.5784
 21
169.525
  0
LINE
  8
0
 10
2.5784
 20
169.525
 11
2.66905
 21
169.36
  0
LINE
  8
0
 10
2.66905
 20
169.36
 11
2.74918
 21
169.19
  0
LINE
  8
0
 10
2.74918
 20
169.19
 11
2.81845
 21
169.015
  0
LINE
  8
0
 10
2.81845
 20
169.015
 11
2.87662
 21
168.836
  0
LINE
  8
0
 10
2.87662
 20
168.836
 11
2.9234
 21
168.653
  0
LINE
  8
0
 10
2.9234
 20
168.653
 11
2.95868
 21
168.469
  0
LINE
  8
0
 10
2.95868
 20
168.469
 11
2.98225
 21
168.282
  0
LINE
  8
0
 10
2.98225
 20
168.282
 11
2.99408
 21
168.094
  0
LINE
  8
0
 10
2.99408
 20
168.094
 11
2.99408
 21
167.906
  0
LINE
  8
0
 10
2.99408
 20
167.906
 11
2.98225
 21
167.718
  0
LINE
  8
0
 10
2.98225
 20
167.718
 11
2.95868
 21
167.531
  0
LINE
  8
0
 10
2.95868
 20
167.531
 11
2.9234
 21
167.347
  0
LINE
  8
0
 10
2.9234
 20
167.347
 11
2.87662
 21
167.164
  0
LINE
  8
0
 10
2.87662
 20
167.164
 11
2.81845
 21
166.985
  0
LINE
  8
0
 10
2.81845
 20
166.985
 11
2.74919
 21
166.81
  0
LINE
  8
0
 10
2.74919
 20
166.81
 11
2.66905
 21
166.64
  0
LINE
  8
0
 10
2.66905
 20
166.64
 11
2.5784
 21
166.475
  0
LINE
  8
0
 10
2.5784
 20
166.475
 11
2.47755
 21
166.316
  0
LINE
  8
0
 10
2.47755
 20
166.316
 11
2.36696
 21
166.164
  0
LINE
  8
0
 10
2.36696
 20
166.164
 11
2.24698
 21
166.019
  0
LINE
  8
0
 10
2.24698
 20
166.019
 11
2.11818
 21
165.882
  0
LINE
  8
0
 10
2.11818
 20
165.882
 11
1.98099
 21
165.753
  0
LINE
  8
0
 10
1.98099
 20
165.753
 11
1.836
 21
165.633
  0
LINE
  8
0
 10
1.836
 20
165.633
 11
1.68373
 21
165.522
  0
LINE
  8
0
 10
1.68373
 20
165.522
 11
1.52487
 21
165.422
  0
LINE
  8
0
 10
1.52487
 20
165.422
 11
1.35994
 21
165.331
  0
LINE
  8
0
 10
1.35994
 20
165.331
 11
1.18968
 21
165.251
  0
LINE
  8
0
 10
1.18968
 20
165.251
 11
1.01471
 21
165.182
  0
LINE
  8
0
 10
1.01471
 20
165.182
 11
0.835724
 21
165.123
  0
LINE
  8
0
 10
0.835724
 20
165.123
 11
0.653442
 21
165.077
  0
LINE
  8
0
 10
0.653442
 20
165.077
 11
0.468597
 21
165.041
  0
LINE
  8
0
 10
0.468597
 20
165.041
 11
0.281906
 21
165.018
  0
LINE
  8
0
 10
0.281906
 20
165.018
 11
0.0940857
 21
165.006
  0
LINE
  8
0
 10
0.0940857
 20
165.006
 11
-0.0940857
 21
165.006
  0
ENDSEC
  0
SECTION
  2
OBJECTS
  0
DICTIONARY
  0
ENDSEC
  0
EOF
