  0
SECTION
  2
BLOCKS
  0
ENDSEC
  0
SECTION
  2
ENTITIES
  0
LINE
  8
0
 10
7
 20
284
 11
6.96057
 21
284.627
  0
LINE
  8
0
 10
6.96057
 20
284.627
 11
6.84291
 21
285.243
  0
LINE
  8
0
 10
6.84291
 20
285.243
 11
6.64888
 21
285.841
  0
LINE
  8
0
 10
6.64888
 20
285.841
 11
6.38153
 21
286.409
  0
LINE
  8
0
 10
6.38153
 20
286.409
 11
6.04507
 21
286.939
  0
LINE
  8
0
 10
6.04507
 20
286.939
 11
5.64484
 21
287.423
  0
LINE
  8
0
 10
5.64484
 20
287.423
 11
5.18712
 21
287.853
  0
LINE
  8
0
 10
5.18712
 20
287.853
 11
4.67912
 21
288.222
  0
LINE
  8
0
 10
4.67912
 20
288.222
 11
4.12889
 21
288.524
  0
LINE
  8
0
 10
4.12889
 20
288.524
 11
3.54507
 21
288.755
  0
LINE
  8
0
 10
3.54507
 20
288.755
 11
2.9369
 21
288.911
  0
LINE
  8
0
 10
2.9369
 20
288.911
 11
2.31395
 21
288.99
  0
LINE
  8
0
 10
2.31395
 20
288.99
 11
-2.31395
 21
288.99
  0
LINE
  8
0
 10
-2.31395
 20
288.99
 11
-2.9369
 21
288.911
  0
LINE
  8
0
 10
-2.9369
 20
288.911
 11
-3.54507
 21
288.755
  0
LINE
  8
0
 10
-3.54507
 20
288.755
 11
-4.12889
 21
288.524
  0
LINE
  8
0
 10
-4.12889
 20
288.524
 11
-4.67912
 21
288.222
  0
LINE
  8
0
 10
-4.67912
 20
288.222
 11
-5.18712
 21
287.853
  0
LINE
  8
0
 10
-5.18712
 20
287.853
 11
-5.64484
 21
287.423
  0
LINE
  8
0
 10
-5.64484
 20
287.423
 11
-6.04507
 21
286.939
  0
LINE
  8
0
 10
-6.04507
 20
286.939
 11
-6.38153
 21
286.409
  0
LINE
  8
0
 10
-6.38153
 20
286.409
 11
-6.64888
 21
285.841
  0
LINE
  8
0
 10
-6.64888
 20
285.841
 11
-6.84291
 21
285.243
  0
LINE
  8
0
 10
-6.84291
 20
285.243
 11
-6.96057
 21
284.627
  0
LINE
  8
0
 10
-6.96057
 20
284.627
 11
-7
 21
284
  0
LINE
  8
0
 10
-7
 20
284
 11
-7
 21
270.162
  0
LINE
  8
0
 10
-7
 20
270.162
 11
7
 21
270.162
  0
LINE
  8
0
 10
7
 20
270.162
 11
7
 21
284
  0
LINE
  8
0
 10
-0.194641
 20
278.906
 11
-0.580872
 21
278.955
  0
LINE
  8
0
 10
-0.580872
 20
278.955
 11
-0.957947
 21
279.052
  0
LINE
  8
0
 10
-0.957947
 20
279.052
 11
-1.3199
 21
279.195
  0
LINE
  8
0
 10
-1.3199
 20
279.195
 11
-1.66106
 21
279.383
  0
LINE
  8
0
 10
-1.66106
 20
279.383
 11
-1.97601
 21
279.611
  0
LINE
  8
0
 10
-1.97601
 20
279.611
 11
-2.2598
 21
279.878
  0
LINE
  8
0
 10
-2.2598
 20
279.878
 11
-2.50795
 21
280.178
  0
LINE
  8
0
 10
-2.50795
 20
280.178
 11
-2.71654
 21
280.507
  0
LINE
  8
0
 10
-2.71654
 20
280.507
 11
-2.88229
 21
280.859
  0
LINE
  8
0
 10
-2.88229
 20
280.859
 11
-3.00259
 21
281.229
  0
LINE
  8
0
 10
-3.00259
 20
281.229
 11
-3.07555
 21
281.611
  0
LINE
  8
0
 10
-3.07555
 20
281.611
 11
-3.09999
 21
282
  0
LINE
  8
0
 10
-3.09999
 20
282
 11
-3.07555
 21
282.389
  0
LINE
  8
0
 10
-3.07555
 20
282.389
 11
-3.00259
 21
282.771
  0
LINE
  8
0
 10
-3.00259
 20
282.771
 11
-2.88229
 21
283.141
  0
LINE
  8
0
 10
-2.88229
 20
283.141
 11
-2.71654
 21
283.493
  0
LINE
  8
0
 10
-2.71654
 20
283.493
 11
-2.50795
 21
283.822
  0
LINE
  8
0
 10
-2.50795
 20
283.822
 11
-2.2598
 21
284.122
  0
LINE
  8
0
 10
-2.2598
 20
284.122
 11
-1.97601
 21
284.389
  0
LINE
  8
0
 10
-1.97601
 20
284.389
 11
-1.66106
 21
284.617
  0
LINE
  8
0
 10
-1.66106
 20
284.617
 11
-1.3199
 21
284.805
  0
LINE
  8
0
 10
-1.3199
 20
284.805
 11
-0.957947
 21
284.948
  0
LINE
  8
0
 10
-0.957947
 20
284.948
 11
-0.580872
 21
285.045
  0
LINE
  8
0
 10
-0.580872
 20
285.045
 11
-0.194641
 21
285.094
  0
LINE
  8
0
 10
-0.194641
 20
285.094
 11
0.194641
 21
285.094
  0
LINE
  8
0
 10
0.194641
 20
285.094
 11
0.580872
 21
285.045
  0
LINE
  8
0
 10
0.580872
 20
285.045
 11
0.957947
 21
284.948
  0
LINE
  8
0
 10
0.957947
 20
284.948
 11
1.3199
 21
284.805
  0
LINE
  8
0
 10
1.3199
 20
284.805
 11
1.66106
 21
284.617
  0
LINE
  8
0
 10
1.66106
 20
284.617
 11
1.97601
 21
284.389
  0
LINE
  8
0
 10
1.97601
 20
284.389
 11
2.2598
 21
284.122
  0
LINE
  8
0
 10
2.2598
 20
284.122
 11
2.50795
 21
283.822
  0
LINE
  8
0
 10
2.50795
 20
283.822
 11
2.71654
 21
283.493
  0
LINE
  8
0
 10
2.71654
 20
283.493
 11
2.88229
 21
283.141
  0
LINE
  8
0
 10
2.88229
 20
283.141
 11
3.00259
 21
282.771
  0
LINE
  8
0
 10
3.00259
 20
282.771
 11
3.07555
 21
282.389
  0
LINE
  8
0
 10
3.07555
 20
282.389
 11
3.09999
 21
282
  0
LINE
  8
0
 10
3.09999
 20
282
 11
3.07555
 21
281.611
  0
LINE
  8
0
 10
3.07555
 20
281.611
 11
3.00259
 21
281.229
  0
LINE
  8
0
 10
3.00259
 20
281.229
 11
2.88229
 21
280.859
  0
LINE
  8
0
 10
2.88229
 20
280.859
 11
2.71654
 21
280.507
  0
LINE
  8
0
 10
2.71654
 20
280.507
 11
2.50795
 21
280.178
  0
LINE
  8
0
 10
2.50795
 20
280.178
 11
2.2598
 21
279.878
  0
LINE
  8
0
 10
2.2598
 20
279.878
 11
1.97601
 21
279.611
  0
LINE
  8
0
 10
1.97601
 20
279.611
 11
1.66106
 21
279.383
  0
LINE
  8
0
 10
1.66106
 20
279.383
 11
1.3199
 21
279.195
  0
LINE
  8
0
 10
1.3199
 20
279.195
 11
0.957947
 21
279.052
  0
LINE
  8
0
 10
0.957947
 20
279.052
 11
0.580872
 21
278.955
  0
LINE
  8
0
 10
0.580872
 20
278.955
 11
0.194641
 21
278.906
  0
LINE
  8
0
 10
0.194641
 20
278.906
 11
-0.194641
 21
278.906
  0
LINE
  8
0
 10
-0.113022
 20
272.704
 11
-0.33728
 21
272.732
  0
LINE
  8
0
 10
-0.33728
 20
272.732
 11
-0.556229
 21
272.788
  0
LINE
  8
0
 10
-0.556229
 20
272.788
 11
-0.766388
 21
272.871
  0
LINE
  8
0
 10
-0.766388
 20
272.871
 11
-0.964478
 21
272.98
  0
LINE
  8
0
 10
-0.964478
 20
272.98
 11
-1.14735
 21
273.113
  0
LINE
  8
0
 10
-1.14735
 20
273.113
 11
-1.31213
 21
273.268
  0
LINE
  8
0
 10
-1.31213
 20
273.268
 11
-1.45622
 21
273.442
  0
LINE
  8
0
 10
-1.45622
 20
273.442
 11
-1.57735
 21
273.633
  0
LINE
  8
0
 10
-1.57735
 20
273.633
 11
-1.67358
 21
273.837
  0
LINE
  8
0
 10
-1.67358
 20
273.837
 11
-1.74344
 21
274.052
  0
LINE
  8
0
 10
-1.74344
 20
274.052
 11
-1.7858
 21
274.274
  0
LINE
  8
0
 10
-1.7858
 20
274.274
 11
-1.79999
 21
274.5
  0
LINE
  8
0
 10
-1.79999
 20
274.5
 11
-1.7858
 21
274.726
  0
LINE
  8
0
 10
-1.7858
 20
274.726
 11
-1.74344
 21
274.948
  0
LINE
  8
0
 10
-1.74344
 20
274.948
 11
-1.67358
 21
275.163
  0
LINE
  8
0
 10
-1.67358
 20
275.163
 11
-1.57735
 21
275.367
  0
LINE
  8
0
 10
-1.57735
 20
275.367
 11
-1.45622
 21
275.558
  0
LINE
  8
0
 10
-1.45622
 20
275.558
 11
-1.31213
 21
275.732
  0
LINE
  8
0
 10
-1.31213
 20
275.732
 11
-1.14735
 21
275.887
  0
LINE
  8
0
 10
-1.14735
 20
275.887
 11
-0.964478
 21
276.02
  0
LINE
  8
0
 10
-0.964478
 20
276.02
 11
-0.766388
 21
276.129
  0
LINE
  8
0
 10
-0.766388
 20
276.129
 11
-0.556229
 21
276.212
  0
LINE
  8
0
 10
-0.556229
 20
276.212
 11
-0.33728
 21
276.268
  0
LINE
  8
0
 10
-0.33728
 20
276.268
 11
-0.113022
 21
276.296
  0
LINE
  8
0
 10
-0.113022
 20
276.296
 11
0.113022
 21
276.296
  0
LINE
  8
0
 10
0.113022
 20
276.296
 11
0.33728
 21
276.268
  0
LINE
  8
0
 10
0.33728
 20
276.268
 11
0.556229
 21
276.212
  0
LINE
  8
0
 10
0.556229
 20
276.212
 11
0.766388
 21
276.129
  0
LINE
  8
0
 10
0.766388
 20
276.129
 11
0.964478
 21
276.02
  0
LINE
  8
0
 10
0.964478
 20
276.02
 11
1.14735
 21
275.887
  0
LINE
  8
0
 10
1.14735
 20
275.887
 11
1.31213
 21
275.732
  0
LINE
  8
0
 10
1.31213
 20
275.732
 11
1.45622
 21
275.558
  0
LINE
  8
0
 10
1.45622
 20
275.558
 11
1.57735
 21
275.367
  0
LINE
  8
0
 10
1.57735
 20
275.367
 11
1.67358
 21
275.163
  0
LINE
  8
0
 10
1.67358
 20
275.163
 11
1.74344
 21
274.948
  0
LINE
  8
0
 10
1.74344
 20
274.948
 11
1.7858
 21
274.726
  0
LINE
  8
0
 10
1.7858
 20
274.726
 11
1.79999
 21
274.5
  0
LINE
  8
0
 10
1.79999
 20
274.5
 11
1.7858
 21
274.274
  0
LINE
  8
0
 10
1.7858
 20
274.274
 11
1.74344
 21
274.052
  0
LINE
  8
0
 10
1.74344
 20
274.052
 11
1.67358
 21
273.837
  0
LINE
  8
0
 10
1.67358
 20
273.837
 11
1.57735
 21
273.633
  0
LINE
  8
0
 10
1.57735
 20
273.633
 11
1.45622
 21
273.442
  0
LINE
  8
0
 10
1.45622
 20
273.442
 11
1.31213
 21
273.268
  0
LINE
  8
0
 10
1.31213
 20
273.268
 11
1.14735
 21
273.113
  0
LINE
  8
0
 10
1.14735
 20
273.113
 11
0.964478
 21
272.98
  0
LINE
  8
0
 10
0.964478
 20
272.98
 11
0.766388
 21
272.871
  0
LINE
  8
0
 10
0.766388
 20
272.871
 11
0.556229
 21
272.788
  0
LINE
  8
0
 10
0.556229
 20
272.788
 11
0.33728
 21
272.732
  0
LINE
  8
0
 10
0.33728
 20
272.732
 11
0.113022
 21
272.704
  0
LINE
  8
0
 10
0.113022
 20
272.704
 11
-0.113022
 21
272.704
  0
LINE
  8
0
 10
57
 20
284
 11
56.9606
 21
284.627
  0
LINE
  8
0
 10
56.9606
 20
284.627
 11
56.8429
 21
285.243
  0
LINE
  8
0
 10
56.8429
 20
285.243
 11
56.6489
 21
285.841
  0
LINE
  8
0
 10
56.6489
 20
285.841
 11
56.3815
 21
286.409
  0
LINE
  8
0
 10
56.3815
 20
286.409
 11
56.0451
 21
286.939
  0
LINE
  8
0
 10
56.0451
 20
286.939
 11
55.6448
 21
287.423
  0
LINE
  8
0
 10
55.6448
 20
287.423
 11
55.1871
 21
287.853
  0
LINE
  8
0
 10
55.1871
 20
287.853
 11
54.6791
 21
288.222
  0
LINE
  8
0
 10
54.6791
 20
288.222
 11
54.1289
 21
288.524
  0
LINE
  8
0
 10
54.1289
 20
288.524
 11
53.5451
 21
288.755
  0
LINE
  8
0
 10
53.5451
 20
288.755
 11
52.9369
 21
288.911
  0
LINE
  8
0
 10
52.9369
 20
288.911
 11
52.3139
 21
288.99
  0
LINE
  8
0
 10
52.3139
 20
288.99
 11
47.686
 21
288.99
  0
LINE
  8
0
 10
47.686
 20
288.99
 11
47.0631
 21
288.911
  0
LINE
  8
0
 10
47.0631
 20
288.911
 11
46.4549
 21
288.755
  0
LINE
  8
0
 10
46.4549
 20
288.755
 11
45.8711
 21
288.524
  0
LINE
  8
0
 10
45.8711
 20
288.524
 11
45.3209
 21
288.222
  0
LINE
  8
0
 10
45.3209
 20
288.222
 11
44.8129
 21
287.853
  0
LINE
  8
0
 10
44.8129
 20
287.853
 11
44.3551
 21
287.423
  0
LINE
  8
0
 10
44.3551
 20
287.423
 11
43.9549
 21
286.939
  0
LINE
  8
0
 10
43.9549
 20
286.939
 11
43.6185
 21
286.409
  0
LINE
  8
0
 10
43.6185
 20
286.409
 11
43.3511
 21
285.841
  0
LINE
  8
0
 10
43.3511
 20
285.841
 11
43.1571
 21
285.243
  0
LINE
  8
0
 10
43.1571
 20
285.243
 11
43.0394
 21
284.627
  0
LINE
  8
0
 10
43.0394
 20
284.627
 11
43
 21
284
  0
LINE
  8
0
 10
43
 20
284
 11
43
 21
270.162
  0
LINE
  8
0
 10
43
 20
270.162
 11
57
 21
270.162
  0
LINE
  8
0
 10
57
 20
270.162
 11
57
 21
284
  0
LINE
  8
0
 10
49.8116
 20
279.006
 11
49.4379
 21
279.053
  0
LINE
  8
0
 10
49.4379
 20
279.053
 11
49.0729
 21
279.147
  0
LINE
  8
0
 10
49.0729
 20
279.147
 11
48.7227
 21
279.286
  0
LINE
  8
0
 10
48.7227
 20
279.286
 11
48.3925
 21
279.467
  0
LINE
  8
0
 10
48.3925
 20
279.467
 11
48.0877
 21
279.688
  0
LINE
  8
0
 10
48.0877
 20
279.688
 11
47.8131
 21
279.946
  0
LINE
  8
0
 10
47.8131
 20
279.946
 11
47.5729
 21
280.237
  0
LINE
  8
0
 10
47.5729
 20
280.237
 11
47.3711
 21
280.555
  0
LINE
  8
0
 10
47.3711
 20
280.555
 11
47.2107
 21
280.896
  0
LINE
  8
0
 10
47.2107
 20
280.896
 11
47.0942
 21
281.254
  0
LINE
  8
0
 10
47.0942
 20
281.254
 11
47.0237
 21
281.624
  0
LINE
  8
0
 10
47.0237
 20
281.624
 11
47
 21
282
  0
LINE
  8
0
 10
47
 20
282
 11
47.0237
 21
282.376
  0
LINE
  8
0
 10
47.0237
 20
282.376
 11
47.0942
 21
282.746
  0
LINE
  8
0
 10
47.0942
 20
282.746
 11
47.2107
 21
283.104
  0
LINE
  8
0
 10
47.2107
 20
283.104
 11
47.3711
 21
283.445
  0
LINE
  8
0
 10
47.3711
 20
283.445
 11
47.5729
 21
283.763
  0
LINE
  8
0
 10
47.5729
 20
283.763
 11
47.8131
 21
284.054
  0
LINE
  8
0
 10
47.8131
 20
284.054
 11
48.0877
 21
284.312
  0
LINE
  8
0
 10
48.0877
 20
284.312
 11
48.3925
 21
284.533
  0
LINE
  8
0
 10
48.3925
 20
284.533
 11
48.7227
 21
284.714
  0
LINE
  8
0
 10
48.7227
 20
284.714
 11
49.0729
 21
284.853
  0
LINE
  8
0
 10
49.0729
 20
284.853
 11
49.4379
 21
284.947
  0
LINE
  8
0
 10
49.4379
 20
284.947
 11
49.8116
 21
284.994
  0
LINE
  8
0
 10
49.8116
 20
284.994
 11
50.1884
 21
284.994
  0
LINE
  8
0
 10
50.1884
 20
284.994
 11
50.5621
 21
284.947
  0
LINE
  8
0
 10
50.5621
 20
284.947
 11
50.927
 21
284.853
  0
LINE
  8
0
 10
50.927
 20
284.853
 11
51.2773
 21
284.714
  0
LINE
  8
0
 10
51.2773
 20
284.714
 11
51.6075
 21
284.533
  0
LINE
  8
0
 10
51.6075
 20
284.533
 11
51.9123
 21
284.312
  0
LINE
  8
0
 10
51.9123
 20
284.312
 11
52.1869
 21
284.054
  0
LINE
  8
0
 10
52.1869
 20
284.054
 11
52.427
 21
283.763
  0
LINE
  8
0
 10
52.427
 20
283.763
 11
52.6289
 21
283.445
  0
LINE
  8
0
 10
52.6289
 20
283.445
 11
52.7893
 21
283.104
  0
LINE
  8
0
 10
52.7893
 20
283.104
 11
52.9057
 21
282.746
  0
LINE
  8
0
 10
52.9057
 20
282.746
 11
52.9763
 21
282.376
  0
LINE
  8
0
 10
52.9763
 20
282.376
 11
53
 21
282
  0
LINE
  8
0
 10
53
 20
282
 11
52.9763
 21
281.624
  0
LINE
  8
0
 10
52.9763
 20
281.624
 11
52.9057
 21
281.254
  0
LINE
  8
0
 10
52.9057
 20
281.254
 11
52.7893
 21
280.896
  0
LINE
  8
0
 10
52.7893
 20
280.896
 11
52.6289
 21
280.555
  0
LINE
  8
0
 10
52.6289
 20
280.555
 11
52.427
 21
280.237
  0
LINE
  8
0
 10
52.427
 20
280.237
 11
52.1869
 21
279.946
  0
LINE
  8
0
 10
52.1869
 20
279.946
 11
51.9123
 21
279.688
  0
LINE
  8
0
 10
51.9123
 20
279.688
 11
51.6075
 21
279.467
  0
LINE
  8
0
 10
51.6075
 20
279.467
 11
51.2773
 21
279.286
  0
LINE
  8
0
 10
51.2773
 20
279.286
 11
50.927
 21
279.147
  0
LINE
  8
0
 10
50.927
 20
279.147
 11
50.5621
 21
279.053
  0
LINE
  8
0
 10
50.5621
 20
279.053
 11
50.1884
 21
279.006
  0
LINE
  8
0
 10
50.1884
 20
279.006
 11
49.8116
 21
279.006
  0
LINE
  8
0
 10
49.887
 20
272.704
 11
49.6627
 21
272.732
  0
LINE
  8
0
 10
49.6627
 20
272.732
 11
49.4438
 21
272.788
  0
LINE
  8
0
 10
49.4438
 20
272.788
 11
49.2336
 21
272.871
  0
LINE
  8
0
 10
49.2336
 20
272.871
 11
49.0355
 21
272.98
  0
LINE
  8
0
 10
49.0355
 20
272.98
 11
48.8526
 21
273.113
  0
LINE
  8
0
 10
48.8526
 20
273.113
 11
48.6879
 21
273.268
  0
LINE
  8
0
 10
48.6879
 20
273.268
 11
48.5438
 21
273.442
  0
LINE
  8
0
 10
48.5438
 20
273.442
 11
48.4226
 21
273.633
  0
LINE
  8
0
 10
48.4226
 20
273.633
 11
48.3264
 21
273.837
  0
LINE
  8
0
 10
48.3264
 20
273.837
 11
48.2565
 21
274.052
  0
LINE
  8
0
 10
48.2565
 20
274.052
 11
48.2142
 21
274.274
  0
LINE
  8
0
 10
48.2142
 20
274.274
 11
48.2
 21
274.5
  0
LINE
  8
0
 10
48.2
 20
274.5
 11
48.2142
 21
274.726
  0
LINE
  8
0
 10
48.2142
 20
274.726
 11
48.2565
 21
274.948
  0
LINE
  8
0
 10
48.2565
 20
274.948
 11
48.3264
 21
275.163
  0
LINE
  8
0
 10
48.3264
 20
275.163
 11
48.4226
 21
275.367
  0
LINE
  8
0
 10
48.4226
 20
275.367
 11
48.5438
 21
275.558
  0
LINE
  8
0
 10
48.5438
 20
275.558
 11
48.6879
 21
275.732
  0
LINE
  8
0
 10
48.6879
 20
275.732
 11
48.8526
 21
275.887
  0
LINE
  8
0
 10
48.8526
 20
275.887
 11
49.0355
 21
276.02
  0
LINE
  8
0
 10
49.0355
 20
276.02
 11
49.2336
 21
276.129
  0
LINE
  8
0
 10
49.2336
 20
276.129
 11
49.4438
 21
276.212
  0
LINE
  8
0
 10
49.4438
 20
276.212
 11
49.6627
 21
276.268
  0
LINE
  8
0
 10
49.6627
 20
276.268
 11
49.887
 21
276.296
  0
LINE
  8
0
 10
49.887
 20
276.296
 11
50.113
 21
276.296
  0
LINE
  8
0
 10
50.113
 20
276.296
 11
50.3373
 21
276.268
  0
LINE
  8
0
 10
50.3373
 20
276.268
 11
50.5562
 21
276.212
  0
LINE
  8
0
 10
50.5562
 20
276.212
 11
50.7664
 21
276.129
  0
LINE
  8
0
 10
50.7664
 20
276.129
 11
50.9645
 21
276.02
  0
LINE
  8
0
 10
50.9645
 20
276.02
 11
51.1474
 21
275.887
  0
LINE
  8
0
 10
51.1474
 20
275.887
 11
51.3121
 21
275.732
  0
LINE
  8
0
 10
51.3121
 20
275.732
 11
51.4562
 21
275.558
  0
LINE
  8
0
 10
51.4562
 20
275.558
 11
51.5773
 21
275.367
  0
LINE
  8
0
 10
51.5773
 20
275.367
 11
51.6736
 21
275.163
  0
LINE
  8
0
 10
51.6736
 20
275.163
 11
51.7434
 21
274.948
  0
LINE
  8
0
 10
51.7434
 20
274.948
 11
51.7858
 21
274.726
  0
LINE
  8
0
 10
51.7858
 20
274.726
 11
51.8
 21
274.5
  0
LINE
  8
0
 10
51.8
 20
274.5
 11
51.7858
 21
274.274
  0
LINE
  8
0
 10
51.7858
 20
274.274
 11
51.7434
 21
274.052
  0
LINE
  8
0
 10
51.7434
 20
274.052
 11
51.6736
 21
273.837
  0
LINE
  8
0
 10
51.6736
 20
273.837
 11
51.5773
 21
273.633
  0
LINE
  8
0
 10
51.5773
 20
273.633
 11
51.4562
 21
273.442
  0
LINE
  8
0
 10
51.4562
 20
273.442
 11
51.3121
 21
273.268
  0
LINE
  8
0
 10
51.3121
 20
273.268
 11
51.1474
 21
273.113
  0
LINE
  8
0
 10
51.1474
 20
273.113
 11
50.9645
 21
272.98
  0
LINE
  8
0
 10
50.9645
 20
272.98
 11
50.7664
 21
272.871
  0
LINE
  8
0
 10
50.7664
 20
272.871
 11
50.5562
 21
272.788
  0
LINE
  8
0
 10
50.5562
 20
272.788
 11
50.3373
 21
272.732
  0
LINE
  8
0
 10
50.3373
 20
272.732
 11
50.113
 21
272.704
  0
LINE
  8
0
 10
50.113
 20
272.704
 11
49.887
 21
272.704
  0
LINE
  8
0
 10
7
 20
263.838
 11
-7
 21
263.838
  0
LINE
  8
0
 10
-7
 20
263.838
 11
-7
 21
260.162
  0
LINE
  8
0
 10
-7
 20
260.162
 11
7
 21
260.162
  0
LINE
  8
0
 10
7
 20
260.162
 11
7
 21
263.838
  0
LINE
  8
0
 10
57
 20
263.838
 11
43
 21
263.838
  0
LINE
  8
0
 10
43
 20
263.838
 11
43
 21
260.162
  0
LINE
  8
0
 10
43
 20
260.162
 11
57
 21
260.162
  0
LINE
  8
0
 10
57
 20
260.162
 11
57
 21
263.838
  0
LINE
  8
0
 10
57
 20
253.838
 11
43
 21
253.838
  0
LINE
  8
0
 10
43
 20
253.838
 11
43
 21
250.162
  0
LINE
  8
0
 10
43
 20
250.162
 11
57
 21
250.162
  0
LINE
  8
0
 10
57
 20
250.162
 11
57
 21
253.838
  0
LINE
  8
0
 10
7
 20
253.838
 11
-7
 21
253.838
  0
LINE
  8
0
 10
-7
 20
253.838
 11
-7
 21
250.162
  0
LINE
  8
0
 10
-7
 20
250.162
 11
7
 21
250.162
  0
LINE
  8
0
 10
7
 20
250.162
 11
7
 21
253.838
  0
LINE
  8
0
 10
57
 20
243.838
 11
43
 21
243.838
  0
LINE
  8
0
 10
43
 20
243.838
 11
43
 21
240.162
  0
LINE
  8
0
 10
43
 20
240.162
 11
57
 21
240.162
  0
LINE
  8
0
 10
57
 20
240.162
 11
57
 21
243.838
  0
LINE
  8
0
 10
7
 20
243.838
 11
-7
 21
243.838
  0
LINE
  8
0
 10
-7
 20
243.838
 11
-7
 21
240.162
  0
LINE
  8
0
 10
-7
 20
240.162
 11
7
 21
240.162
  0
LINE
  8
0
 10
7
 20
240.162
 11
7
 21
243.838
  0
LINE
  8
0
 10
2.9369
 20
215.089
 11
3.54507
 21
215.245
  0
LINE
  8
0
 10
3.54507
 20
215.245
 11
4.12889
 21
215.476
  0
LINE
  8
0
 10
4.12889
 20
215.476
 11
4.67912
 21
215.778
  0
LINE
  8
0
 10
4.67912
 20
215.778
 11
5.18712
 21
216.147
  0
LINE
  8
0
 10
5.18712
 20
216.147
 11
5.64484
 21
216.577
  0
LINE
  8
0
 10
5.64484
 20
216.577
 11
6.04507
 21
217.061
  0
LINE
  8
0
 10
6.04507
 20
217.061
 11
6.38153
 21
217.591
  0
LINE
  8
0
 10
6.38153
 20
217.591
 11
6.64888
 21
218.159
  0
LINE
  8
0
 10
6.64888
 20
218.159
 11
6.84291
 21
218.757
  0
LINE
  8
0
 10
6.84291
 20
218.757
 11
6.96057
 21
219.373
  0
LINE
  8
0
 10
6.96057
 20
219.373
 11
7
 21
220
  0
LINE
  8
0
 10
7
 20
220
 11
7
 21
233.838
  0
LINE
  8
0
 10
7
 20
233.838
 11
-7
 21
233.838
  0
LINE
  8
0
 10
-7
 20
233.838
 11
-7
 21
220
  0
LINE
  8
0
 10
-7
 20
220
 11
-6.96057
 21
219.373
  0
LINE
  8
0
 10
-6.96057
 20
219.373
 11
-6.84291
 21
218.757
  0
LINE
  8
0
 10
-6.84291
 20
218.757
 11
-6.64888
 21
218.159
  0
LINE
  8
0
 10
-6.64888
 20
218.159
 11
-6.38153
 21
217.591
  0
LINE
  8
0
 10
-6.38153
 20
217.591
 11
-6.04507
 21
217.061
  0
LINE
  8
0
 10
-6.04507
 20
217.061
 11
-5.64484
 21
216.577
  0
LINE
  8
0
 10
-5.64484
 20
216.577
 11
-5.18712
 21
216.147
  0
LINE
  8
0
 10
-5.18712
 20
216.147
 11
-4.67912
 21
215.778
  0
LINE
  8
0
 10
-4.67912
 20
215.778
 11
-4.12889
 21
215.476
  0
LINE
  8
0
 10
-4.12889
 20
215.476
 11
-3.54507
 21
215.245
  0
LINE
  8
0
 10
-3.54507
 20
215.245
 11
-2.9369
 21
215.089
  0
LINE
  8
0
 10
-2.9369
 20
215.089
 11
-2.31395
 21
215.01
  0
LINE
  8
0
 10
-2.31395
 20
215.01
 11
2.31395
 21
215.01
  0
LINE
  8
0
 10
2.31395
 20
215.01
 11
2.9369
 21
215.089
  0
LINE
  8
0
 10
-0.113022
 20
227.704
 11
-0.33728
 21
227.732
  0
LINE
  8
0
 10
-0.33728
 20
227.732
 11
-0.556229
 21
227.788
  0
LINE
  8
0
 10
-0.556229
 20
227.788
 11
-0.766388
 21
227.871
  0
LINE
  8
0
 10
-0.766388
 20
227.871
 11
-0.964478
 21
227.98
  0
LINE
  8
0
 10
-0.964478
 20
227.98
 11
-1.14735
 21
228.113
  0
LINE
  8
0
 10
-1.14735
 20
228.113
 11
-1.31213
 21
228.268
  0
LINE
  8
0
 10
-1.31213
 20
228.268
 11
-1.45622
 21
228.442
  0
LINE
  8
0
 10
-1.45622
 20
228.442
 11
-1.57735
 21
228.633
  0
LINE
  8
0
 10
-1.57735
 20
228.633
 11
-1.67358
 21
228.837
  0
LINE
  8
0
 10
-1.67358
 20
228.837
 11
-1.74344
 21
229.052
  0
LINE
  8
0
 10
-1.74344
 20
229.052
 11
-1.7858
 21
229.274
  0
LINE
  8
0
 10
-1.7858
 20
229.274
 11
-1.79999
 21
229.5
  0
LINE
  8
0
 10
-1.79999
 20
229.5
 11
-1.7858
 21
229.726
  0
LINE
  8
0
 10
-1.7858
 20
229.726
 11
-1.74344
 21
229.948
  0
LINE
  8
0
 10
-1.74344
 20
229.948
 11
-1.67358
 21
230.163
  0
LINE
  8
0
 10
-1.67358
 20
230.163
 11
-1.57735
 21
230.367
  0
LINE
  8
0
 10
-1.57735
 20
230.367
 11
-1.45622
 21
230.558
  0
LINE
  8
0
 10
-1.45622
 20
230.558
 11
-1.31213
 21
230.732
  0
LINE
  8
0
 10
-1.31213
 20
230.732
 11
-1.14735
 21
230.887
  0
LINE
  8
0
 10
-1.14735
 20
230.887
 11
-0.964478
 21
231.02
  0
LINE
  8
0
 10
-0.964478
 20
231.02
 11
-0.766388
 21
231.129
  0
LINE
  8
0
 10
-0.766388
 20
231.129
 11
-0.556229
 21
231.212
  0
LINE
  8
0
 10
-0.556229
 20
231.212
 11
-0.33728
 21
231.268
  0
LINE
  8
0
 10
-0.33728
 20
231.268
 11
-0.113022
 21
231.296
  0
LINE
  8
0
 10
-0.113022
 20
231.296
 11
0.113022
 21
231.296
  0
LINE
  8
0
 10
0.113022
 20
231.296
 11
0.33728
 21
231.268
  0
LINE
  8
0
 10
0.33728
 20
231.268
 11
0.556229
 21
231.212
  0
LINE
  8
0
 10
0.556229
 20
231.212
 11
0.766388
 21
231.129
  0
LINE
  8
0
 10
0.766388
 20
231.129
 11
0.964478
 21
231.02
  0
LINE
  8
0
 10
0.964478
 20
231.02
 11
1.14735
 21
230.887
  0
LINE
  8
0
 10
1.14735
 20
230.887
 11
1.31213
 21
230.732
  0
LINE
  8
0
 10
1.31213
 20
230.732
 11
1.45622
 21
230.558
  0
LINE
  8
0
 10
1.45622
 20
230.558
 11
1.57735
 21
230.367
  0
LINE
  8
0
 10
1.57735
 20
230.367
 11
1.67358
 21
230.163
  0
LINE
  8
0
 10
1.67358
 20
230.163
 11
1.74344
 21
229.948
  0
LINE
  8
0
 10
1.74344
 20
229.948
 11
1.7858
 21
229.726
  0
LINE
  8
0
 10
1.7858
 20
229.726
 11
1.79999
 21
229.5
  0
LINE
  8
0
 10
1.79999
 20
229.5
 11
1.7858
 21
229.274
  0
LINE
  8
0
 10
1.7858
 20
229.274
 11
1.74344
 21
229.052
  0
LINE
  8
0
 10
1.74344
 20
229.052
 11
1.67358
 21
228.837
  0
LINE
  8
0
 10
1.67358
 20
228.837
 11
1.57735
 21
228.633
  0
LINE
  8
0
 10
1.57735
 20
228.633
 11
1.45622
 21
228.442
  0
LINE
  8
0
 10
1.45622
 20
228.442
 11
1.31213
 21
228.268
  0
LINE
  8
0
 10
1.31213
 20
228.268
 11
1.14735
 21
228.113
  0
LINE
  8
0
 10
1.14735
 20
228.113
 11
0.964478
 21
227.98
  0
LINE
  8
0
 10
0.964478
 20
227.98
 11
0.766388
 21
227.871
  0
LINE
  8
0
 10
0.766388
 20
227.871
 11
0.556229
 21
227.788
  0
LINE
  8
0
 10
0.556229
 20
227.788
 11
0.33728
 21
227.732
  0
LINE
  8
0
 10
0.33728
 20
227.732
 11
0.113022
 21
227.704
  0
LINE
  8
0
 10
0.113022
 20
227.704
 11
-0.113022
 21
227.704
  0
LINE
  8
0
 10
-0.194641
 20
218.906
 11
-0.580872
 21
218.955
  0
LINE
  8
0
 10
-0.580872
 20
218.955
 11
-0.957947
 21
219.052
  0
LINE
  8
0
 10
-0.957947
 20
219.052
 11
-1.3199
 21
219.195
  0
LINE
  8
0
 10
-1.3199
 20
219.195
 11
-1.66106
 21
219.383
  0
LINE
  8
0
 10
-1.66106
 20
219.383
 11
-1.97601
 21
219.611
  0
LINE
  8
0
 10
-1.97601
 20
219.611
 11
-2.2598
 21
219.878
  0
LINE
  8
0
 10
-2.2598
 20
219.878
 11
-2.50795
 21
220.178
  0
LINE
  8
0
 10
-2.50795
 20
220.178
 11
-2.71654
 21
220.507
  0
LINE
  8
0
 10
-2.71654
 20
220.507
 11
-2.88229
 21
220.859
  0
LINE
  8
0
 10
-2.88229
 20
220.859
 11
-3.00259
 21
221.229
  0
LINE
  8
0
 10
-3.00259
 20
221.229
 11
-3.07555
 21
221.611
  0
LINE
  8
0
 10
-3.07555
 20
221.611
 11
-3.09999
 21
222
  0
LINE
  8
0
 10
-3.09999
 20
222
 11
-3.07555
 21
222.389
  0
LINE
  8
0
 10
-3.07555
 20
222.389
 11
-3.00259
 21
222.771
  0
LINE
  8
0
 10
-3.00259
 20
222.771
 11
-2.88229
 21
223.141
  0
LINE
  8
0
 10
-2.88229
 20
223.141
 11
-2.71654
 21
223.493
  0
LINE
  8
0
 10
-2.71654
 20
223.493
 11
-2.50795
 21
223.822
  0
LINE
  8
0
 10
-2.50795
 20
223.822
 11
-2.2598
 21
224.122
  0
LINE
  8
0
 10
-2.2598
 20
224.122
 11
-1.97601
 21
224.389
  0
LINE
  8
0
 10
-1.97601
 20
224.389
 11
-1.66106
 21
224.617
  0
LINE
  8
0
 10
-1.66106
 20
224.617
 11
-1.3199
 21
224.805
  0
LINE
  8
0
 10
-1.3199
 20
224.805
 11
-0.957947
 21
224.948
  0
LINE
  8
0
 10
-0.957947
 20
224.948
 11
-0.580872
 21
225.045
  0
LINE
  8
0
 10
-0.580872
 20
225.045
 11
-0.194641
 21
225.094
  0
LINE
  8
0
 10
-0.194641
 20
225.094
 11
0.194641
 21
225.094
  0
LINE
  8
0
 10
0.194641
 20
225.094
 11
0.580872
 21
225.045
  0
LINE
  8
0
 10
0.580872
 20
225.045
 11
0.957947
 21
224.948
  0
LINE
  8
0
 10
0.957947
 20
224.948
 11
1.3199
 21
224.805
  0
LINE
  8
0
 10
1.3199
 20
224.805
 11
1.66106
 21
224.617
  0
LINE
  8
0
 10
1.66106
 20
224.617
 11
1.97601
 21
224.389
  0
LINE
  8
0
 10
1.97601
 20
224.389
 11
2.2598
 21
224.122
  0
LINE
  8
0
 10
2.2598
 20
224.122
 11
2.50795
 21
223.822
  0
LINE
  8
0
 10
2.50795
 20
223.822
 11
2.71654
 21
223.493
  0
LINE
  8
0
 10
2.71654
 20
223.493
 11
2.88229
 21
223.141
  0
LINE
  8
0
 10
2.88229
 20
223.141
 11
3.00259
 21
222.771
  0
LINE
  8
0
 10
3.00259
 20
222.771
 11
3.07555
 21
222.389
  0
LINE
  8
0
 10
3.07555
 20
222.389
 11
3.09999
 21
222
  0
LINE
  8
0
 10
3.09999
 20
222
 11
3.07555
 21
221.611
  0
LINE
  8
0
 10
3.07555
 20
221.611
 11
3.00259
 21
221.229
  0
LINE
  8
0
 10
3.00259
 20
221.229
 11
2.88229
 21
220.859
  0
LINE
  8
0
 10
2.88229
 20
220.859
 11
2.71654
 21
220.507
  0
LINE
  8
0
 10
2.71654
 20
220.507
 11
2.50795
 21
220.178
  0
LINE
  8
0
 10
2.50795
 20
220.178
 11
2.2598
 21
219.878
  0
LINE
  8
0
 10
2.2598
 20
219.878
 11
1.97601
 21
219.611
  0
LINE
  8
0
 10
1.97601
 20
219.611
 11
1.66106
 21
219.383
  0
LINE
  8
0
 10
1.66106
 20
219.383
 11
1.3199
 21
219.195
  0
LINE
  8
0
 10
1.3199
 20
219.195
 11
0.957947
 21
219.052
  0
LINE
  8
0
 10
0.957947
 20
219.052
 11
0.580872
 21
218.955
  0
LINE
  8
0
 10
0.580872
 20
218.955
 11
0.194641
 21
218.906
  0
LINE
  8
0
 10
0.194641
 20
218.906
 11
-0.194641
 21
218.906
  0
LINE
  8
0
 10
52.9369
 20
215.089
 11
53.5451
 21
215.245
  0
LINE
  8
0
 10
53.5451
 20
215.245
 11
54.1289
 21
215.476
  0
LINE
  8
0
 10
54.1289
 20
215.476
 11
54.6791
 21
215.778
  0
LINE
  8
0
 10
54.6791
 20
215.778
 11
55.1871
 21
216.147
  0
LINE
  8
0
 10
55.1871
 20
216.147
 11
55.6448
 21
216.577
  0
LINE
  8
0
 10
55.6448
 20
216.577
 11
56.0451
 21
217.061
  0
LINE
  8
0
 10
56.0451
 20
217.061
 11
56.3815
 21
217.591
  0
LINE
  8
0
 10
56.3815
 20
217.591
 11
56.6489
 21
218.159
  0
LINE
  8
0
 10
56.6489
 20
218.159
 11
56.8429
 21
218.757
  0
LINE
  8
0
 10
56.8429
 20
218.757
 11
56.9606
 21
219.373
  0
LINE
  8
0
 10
56.9606
 20
219.373
 11
57
 21
220
  0
LINE
  8
0
 10
57
 20
220
 11
57
 21
233.838
  0
LINE
  8
0
 10
57
 20
233.838
 11
43
 21
233.838
  0
LINE
  8
0
 10
43
 20
233.838
 11
43
 21
220
  0
LINE
  8
0
 10
43
 20
220
 11
43.0394
 21
219.373
  0
LINE
  8
0
 10
43.0394
 20
219.373
 11
43.1571
 21
218.757
  0
LINE
  8
0
 10
43.1571
 20
218.757
 11
43.3511
 21
218.159
  0
LINE
  8
0
 10
43.3511
 20
218.159
 11
43.6185
 21
217.591
  0
LINE
  8
0
 10
43.6185
 20
217.591
 11
43.9549
 21
217.061
  0
LINE
  8
0
 10
43.9549
 20
217.061
 11
44.3551
 21
216.577
  0
LINE
  8
0
 10
44.3551
 20
216.577
 11
44.8129
 21
216.147
  0
LINE
  8
0
 10
44.8129
 20
216.147
 11
45.3209
 21
215.778
  0
LINE
  8
0
 10
45.3209
 20
215.778
 11
45.8711
 21
215.476
  0
LINE
  8
0
 10
45.8711
 20
215.476
 11
46.4549
 21
215.245
  0
LINE
  8
0
 10
46.4549
 20
215.245
 11
47.0631
 21
215.089
  0
LINE
  8
0
 10
47.0631
 20
215.089
 11
47.686
 21
215.01
  0
LINE
  8
0
 10
47.686
 20
215.01
 11
52.3139
 21
215.01
  0
LINE
  8
0
 10
52.3139
 20
215.01
 11
52.9369
 21
215.089
  0
LINE
  8
0
 10
49.887
 20
227.704
 11
49.6627
 21
227.732
  0
LINE
  8
0
 10
49.6627
 20
227.732
 11
49.4438
 21
227.788
  0
LINE
  8
0
 10
49.4438
 20
227.788
 11
49.2336
 21
227.871
  0
LINE
  8
0
 10
49.2336
 20
227.871
 11
49.0355
 21
227.98
  0
LINE
  8
0
 10
49.0355
 20
227.98
 11
48.8526
 21
228.113
  0
LINE
  8
0
 10
48.8526
 20
228.113
 11
48.6879
 21
228.268
  0
LINE
  8
0
 10
48.6879
 20
228.268
 11
48.5438
 21
228.442
  0
LINE
  8
0
 10
48.5438
 20
228.442
 11
48.4226
 21
228.633
  0
LINE
  8
0
 10
48.4226
 20
228.633
 11
48.3264
 21
228.837
  0
LINE
  8
0
 10
48.3264
 20
228.837
 11
48.2565
 21
229.052
  0
LINE
  8
0
 10
48.2565
 20
229.052
 11
48.2142
 21
229.274
  0
LINE
  8
0
 10
48.2142
 20
229.274
 11
48.2
 21
229.5
  0
LINE
  8
0
 10
48.2
 20
229.5
 11
48.2142
 21
229.726
  0
LINE
  8
0
 10
48.2142
 20
229.726
 11
48.2565
 21
229.948
  0
LINE
  8
0
 10
48.2565
 20
229.948
 11
48.3264
 21
230.163
  0
LINE
  8
0
 10
48.3264
 20
230.163
 11
48.4226
 21
230.367
  0
LINE
  8
0
 10
48.4226
 20
230.367
 11
48.5438
 21
230.558
  0
LINE
  8
0
 10
48.5438
 20
230.558
 11
48.6879
 21
230.732
  0
LINE
  8
0
 10
48.6879
 20
230.732
 11
48.8526
 21
230.887
  0
LINE
  8
0
 10
48.8526
 20
230.887
 11
49.0355
 21
231.02
  0
LINE
  8
0
 10
49.0355
 20
231.02
 11
49.2336
 21
231.129
  0
LINE
  8
0
 10
49.2336
 20
231.129
 11
49.4438
 21
231.212
  0
LINE
  8
0
 10
49.4438
 20
231.212
 11
49.6627
 21
231.268
  0
LINE
  8
0
 10
49.6627
 20
231.268
 11
49.887
 21
231.296
  0
LINE
  8
0
 10
49.887
 20
231.296
 11
50.113
 21
231.296
  0
LINE
  8
0
 10
50.113
 20
231.296
 11
50.3373
 21
231.268
  0
LINE
  8
0
 10
50.3373
 20
231.268
 11
50.5562
 21
231.212
  0
LINE
  8
0
 10
50.5562
 20
231.212
 11
50.7664
 21
231.129
  0
LINE
  8
0
 10
50.7664
 20
231.129
 11
50.9645
 21
231.02
  0
LINE
  8
0
 10
50.9645
 20
231.02
 11
51.1474
 21
230.887
  0
LINE
  8
0
 10
51.1474
 20
230.887
 11
51.3121
 21
230.732
  0
LINE
  8
0
 10
51.3121
 20
230.732
 11
51.4562
 21
230.558
  0
LINE
  8
0
 10
51.4562
 20
230.558
 11
51.5773
 21
230.367
  0
LINE
  8
0
 10
51.5773
 20
230.367
 11
51.6736
 21
230.163
  0
LINE
  8
0
 10
51.6736
 20
230.163
 11
51.7434
 21
229.948
  0
LINE
  8
0
 10
51.7434
 20
229.948
 11
51.7858
 21
229.726
  0
LINE
  8
0
 10
51.7858
 20
229.726
 11
51.8
 21
229.5
  0
LINE
  8
0
 10
51.8
 20
229.5
 11
51.7858
 21
229.274
  0
LINE
  8
0
 10
51.7858
 20
229.274
 11
51.7434
 21
229.052
  0
LINE
  8
0
 10
51.7434
 20
229.052
 11
51.6736
 21
228.837
  0
LINE
  8
0
 10
51.6736
 20
228.837
 11
51.5773
 21
228.633
  0
LINE
  8
0
 10
51.5773
 20
228.633
 11
51.4562
 21
228.442
  0
LINE
  8
0
 10
51.4562
 20
228.442
 11
51.3121
 21
228.268
  0
LINE
  8
0
 10
51.3121
 20
228.268
 11
51.1474
 21
228.113
  0
LINE
  8
0
 10
51.1474
 20
228.113
 11
50.9645
 21
227.98
  0
LINE
  8
0
 10
50.9645
 20
227.98
 11
50.7664
 21
227.871
  0
LINE
  8
0
 10
50.7664
 20
227.871
 11
50.5562
 21
227.788
  0
LINE
  8
0
 10
50.5562
 20
227.788
 11
50.3373
 21
227.732
  0
LINE
  8
0
 10
50.3373
 20
227.732
 11
50.113
 21
227.704
  0
LINE
  8
0
 10
50.113
 20
227.704
 11
49.887
 21
227.704
  0
LINE
  8
0
 10
49.8116
 20
219.006
 11
49.4379
 21
219.053
  0
LINE
  8
0
 10
49.4379
 20
219.053
 11
49.0729
 21
219.147
  0
LINE
  8
0
 10
49.0729
 20
219.147
 11
48.7227
 21
219.286
  0
LINE
  8
0
 10
48.7227
 20
219.286
 11
48.3925
 21
219.467
  0
LINE
  8
0
 10
48.3925
 20
219.467
 11
48.0877
 21
219.688
  0
LINE
  8
0
 10
48.0877
 20
219.688
 11
47.8131
 21
219.946
  0
LINE
  8
0
 10
47.8131
 20
219.946
 11
47.5729
 21
220.237
  0
LINE
  8
0
 10
47.5729
 20
220.237
 11
47.3711
 21
220.555
  0
LINE
  8
0
 10
47.3711
 20
220.555
 11
47.2107
 21
220.896
  0
LINE
  8
0
 10
47.2107
 20
220.896
 11
47.0942
 21
221.254
  0
LINE
  8
0
 10
47.0942
 20
221.254
 11
47.0237
 21
221.624
  0
LINE
  8
0
 10
47.0237
 20
221.624
 11
47
 21
222
  0
LINE
  8
0
 10
47
 20
222
 11
47.0237
 21
222.376
  0
LINE
  8
0
 10
47.0237
 20
222.376
 11
47.0942
 21
222.746
  0
LINE
  8
0
 10
47.0942
 20
222.746
 11
47.2107
 21
223.104
  0
LINE
  8
0
 10
47.2107
 20
223.104
 11
47.3711
 21
223.445
  0
LINE
  8
0
 10
47.3711
 20
223.445
 11
47.5729
 21
223.763
  0
LINE
  8
0
 10
47.5729
 20
223.763
 11
47.8131
 21
224.054
  0
LINE
  8
0
 10
47.8131
 20
224.054
 11
48.0877
 21
224.312
  0
LINE
  8
0
 10
48.0877
 20
224.312
 11
48.3925
 21
224.533
  0
LINE
  8
0
 10
48.3925
 20
224.533
 11
48.7227
 21
224.714
  0
LINE
  8
0
 10
48.7227
 20
224.714
 11
49.0729
 21
224.853
  0
LINE
  8
0
 10
49.0729
 20
224.853
 11
49.4379
 21
224.947
  0
LINE
  8
0
 10
49.4379
 20
224.947
 11
49.8116
 21
224.994
  0
LINE
  8
0
 10
49.8116
 20
224.994
 11
50.1884
 21
224.994
  0
LINE
  8
0
 10
50.1884
 20
224.994
 11
50.5621
 21
224.947
  0
LINE
  8
0
 10
50.5621
 20
224.947
 11
50.927
 21
224.853
  0
LINE
  8
0
 10
50.927
 20
224.853
 11
51.2773
 21
224.714
  0
LINE
  8
0
 10
51.2773
 20
224.714
 11
51.6075
 21
224.533
  0
LINE
  8
0
 10
51.6075
 20
224.533
 11
51.9123
 21
224.312
  0
LINE
  8
0
 10
51.9123
 20
224.312
 11
52.1869
 21
224.054
  0
LINE
  8
0
 10
52.1869
 20
224.054
 11
52.427
 21
223.763
  0
LINE
  8
0
 10
52.427
 20
223.763
 11
52.6289
 21
223.445
  0
LINE
  8
0
 10
52.6289
 20
223.445
 11
52.7893
 21
223.104
  0
LINE
  8
0
 10
52.7893
 20
223.104
 11
52.9057
 21
222.746
  0
LINE
  8
0
 10
52.9057
 20
222.746
 11
52.9763
 21
222.376
  0
LINE
  8
0
 10
52.9763
 20
222.376
 11
53
 21
222
  0
LINE
  8
0
 10
53
 20
222
 11
52.9763
 21
221.624
  0
LINE
  8
0
 10
52.9763
 20
221.624
 11
52.9057
 21
221.254
  0
LINE
  8
0
 10
52.9057
 20
221.254
 11
52.7893
 21
220.896
  0
LINE
  8
0
 10
52.7893
 20
220.896
 11
52.6289
 21
220.555
  0
LINE
  8
0
 10
52.6289
 20
220.555
 11
52.427
 21
220.237
  0
LINE
  8
0
 10
52.427
 20
220.237
 11
52.1869
 21
219.946
  0
LINE
  8
0
 10
52.1869
 20
219.946
 11
51.9123
 21
219.688
  0
LINE
  8
0
 10
51.9123
 20
219.688
 11
51.6075
 21
219.467
  0
LINE
  8
0
 10
51.6075
 20
219.467
 11
51.2773
 21
219.286
  0
LINE
  8
0
 10
51.2773
 20
219.286
 11
50.927
 21
219.147
  0
LINE
  8
0
 10
50.927
 20
219.147
 11
50.5621
 21
219.053
  0
LINE
  8
0
 10
50.5621
 20
219.053
 11
50.1884
 21
219.006
  0
LINE
  8
0
 10
50.1884
 20
219.006
 11
49.8116
 21
219.006
  0
LINE
  8
0
 10
52.9369
 20
131.089
 11
53.5451
 21
131.245
  0
LINE
  8
0
 10
53.5451
 20
131.245
 11
54.1289
 21
131.476
  0
LINE
  8
0
 10
54.1289
 20
131.476
 11
54.6791
 21
131.778
  0
LINE
  8
0
 10
54.6791
 20
131.778
 11
55.1871
 21
132.147
  0
LINE
  8
0
 10
55.1871
 20
132.147
 11
55.6448
 21
132.577
  0
LINE
  8
0
 10
55.6448
 20
132.577
 11
56.0451
 21
133.061
  0
LINE
  8
0
 10
56.0451
 20
133.061
 11
56.3815
 21
133.591
  0
LINE
  8
0
 10
56.3815
 20
133.591
 11
56.6489
 21
134.159
  0
LINE
  8
0
 10
56.6489
 20
134.159
 11
56.8429
 21
134.757
  0
LINE
  8
0
 10
56.8429
 20
134.757
 11
56.9606
 21
135.373
  0
LINE
  8
0
 10
56.9606
 20
135.373
 11
57
 21
136
  0
LINE
  8
0
 10
57
 20
136
 11
57
 21
200
  0
LINE
  8
0
 10
57
 20
200
 11
56.9606
 21
200.627
  0
LINE
  8
0
 10
56.9606
 20
200.627
 11
56.8429
 21
201.243
  0
LINE
  8
0
 10
56.8429
 20
201.243
 11
56.6489
 21
201.841
  0
LINE
  8
0
 10
56.6489
 20
201.841
 11
56.3815
 21
202.409
  0
LINE
  8
0
 10
56.3815
 20
202.409
 11
56.0451
 21
202.939
  0
LINE
  8
0
 10
56.0451
 20
202.939
 11
55.6448
 21
203.423
  0
LINE
  8
0
 10
55.6448
 20
203.423
 11
55.1871
 21
203.853
  0
LINE
  8
0
 10
55.1871
 20
203.853
 11
54.6791
 21
204.222
  0
LINE
  8
0
 10
54.6791
 20
204.222
 11
54.1289
 21
204.524
  0
LINE
  8
0
 10
54.1289
 20
204.524
 11
53.5451
 21
204.755
  0
LINE
  8
0
 10
53.5451
 20
204.755
 11
52.9369
 21
204.911
  0
LINE
  8
0
 10
52.9369
 20
204.911
 11
52.3139
 21
204.99
  0
LINE
  8
0
 10
52.3139
 20
204.99
 11
47.686
 21
204.99
  0
LINE
  8
0
 10
47.686
 20
204.99
 11
47.0631
 21
204.911
  0
LINE
  8
0
 10
47.0631
 20
204.911
 11
46.4549
 21
204.755
  0
LINE
  8
0
 10
46.4549
 20
204.755
 11
45.8711
 21
204.524
  0
LINE
  8
0
 10
45.8711
 20
204.524
 11
45.3209
 21
204.222
  0
LINE
  8
0
 10
45.3209
 20
204.222
 11
44.8129
 21
203.853
  0
LINE
  8
0
 10
44.8129
 20
203.853
 11
44.3551
 21
203.423
  0
LINE
  8
0
 10
44.3551
 20
203.423
 11
43.9549
 21
202.939
  0
LINE
  8
0
 10
43.9549
 20
202.939
 11
43.6185
 21
202.409
  0
LINE
  8
0
 10
43.6185
 20
202.409
 11
43.3511
 21
201.841
  0
LINE
  8
0
 10
43.3511
 20
201.841
 11
43.1571
 21
201.243
  0
LINE
  8
0
 10
43.1571
 20
201.243
 11
43.0394
 21
200.627
  0
LINE
  8
0
 10
43.0394
 20
200.627
 11
43
 21
200
  0
LINE
  8
0
 10
43
 20
200
 11
43
 21
136
  0
LINE
  8
0
 10
43
 20
136
 11
43.0394
 21
135.373
  0
LINE
  8
0
 10
43.0394
 20
135.373
 11
43.1571
 21
134.757
  0
LINE
  8
0
 10
43.1571
 20
134.757
 11
43.3511
 21
134.159
  0
LINE
  8
0
 10
43.3511
 20
134.159
 11
43.6185
 21
133.591
  0
LINE
  8
0
 10
43.6185
 20
133.591
 11
43.9549
 21
133.061
  0
LINE
  8
0
 10
43.9549
 20
133.061
 11
44.3551
 21
132.577
  0
LINE
  8
0
 10
44.3551
 20
132.577
 11
44.8129
 21
132.147
  0
LINE
  8
0
 10
44.8129
 20
132.147
 11
45.3209
 21
131.778
  0
LINE
  8
0
 10
45.3209
 20
131.778
 11
45.8711
 21
131.476
  0
LINE
  8
0
 10
45.8711
 20
131.476
 11
46.4549
 21
131.245
  0
LINE
  8
0
 10
46.4549
 20
131.245
 11
47.0631
 21
131.089
  0
LINE
  8
0
 10
47.0631
 20
131.089
 11
47.686
 21
131.01
  0
LINE
  8
0
 10
47.686
 20
131.01
 11
52.3139
 21
131.01
  0
LINE
  8
0
 10
52.3139
 20
131.01
 11
52.9369
 21
131.089
  0
LINE
  8
0
 10
49.8116
 20
195.006
 11
49.4379
 21
195.053
  0
LINE
  8
0
 10
49.4379
 20
195.053
 11
49.0729
 21
195.147
  0
LINE
  8
0
 10
49.0729
 20
195.147
 11
48.7227
 21
195.286
  0
LINE
  8
0
 10
48.7227
 20
195.286
 11
48.3925
 21
195.467
  0
LINE
  8
0
 10
48.3925
 20
195.467
 11
48.0877
 21
195.688
  0
LINE
  8
0
 10
48.0877
 20
195.688
 11
47.8131
 21
195.946
  0
LINE
  8
0
 10
47.8131
 20
195.946
 11
47.5729
 21
196.237
  0
LINE
  8
0
 10
47.5729
 20
196.237
 11
47.3711
 21
196.555
  0
LINE
  8
0
 10
47.3711
 20
196.555
 11
47.2107
 21
196.896
  0
LINE
  8
0
 10
47.2107
 20
196.896
 11
47.0942
 21
197.254
  0
LINE
  8
0
 10
47.0942
 20
197.254
 11
47.0237
 21
197.624
  0
LINE
  8
0
 10
47.0237
 20
197.624
 11
47
 21
198
  0
LINE
  8
0
 10
47
 20
198
 11
47.0237
 21
198.376
  0
LINE
  8
0
 10
47.0237
 20
198.376
 11
47.0942
 21
198.746
  0
LINE
  8
0
 10
47.0942
 20
198.746
 11
47.2107
 21
199.104
  0
LINE
  8
0
 10
47.2107
 20
199.104
 11
47.3711
 21
199.445
  0
LINE
  8
0
 10
47.3711
 20
199.445
 11
47.5729
 21
199.763
  0
LINE
  8
0
 10
47.5729
 20
199.763
 11
47.8131
 21
200.054
  0
LINE
  8
0
 10
47.8131
 20
200.054
 11
48.0877
 21
200.312
  0
LINE
  8
0
 10
48.0877
 20
200.312
 11
48.3925
 21
200.533
  0
LINE
  8
0
 10
48.3925
 20
200.533
 11
48.7227
 21
200.714
  0
LINE
  8
0
 10
48.7227
 20
200.714
 11
49.0729
 21
200.853
  0
LINE
  8
0
 10
49.0729
 20
200.853
 11
49.4379
 21
200.947
  0
LINE
  8
0
 10
49.4379
 20
200.947
 11
49.8116
 21
200.994
  0
LINE
  8
0
 10
49.8116
 20
200.994
 11
50.1884
 21
200.994
  0
LINE
  8
0
 10
50.1884
 20
200.994
 11
50.5621
 21
200.947
  0
LINE
  8
0
 10
50.5621
 20
200.947
 11
50.927
 21
200.853
  0
LINE
  8
0
 10
50.927
 20
200.853
 11
51.2773
 21
200.714
  0
LINE
  8
0
 10
51.2773
 20
200.714
 11
51.6075
 21
200.533
  0
LINE
  8
0
 10
51.6075
 20
200.533
 11
51.9123
 21
200.312
  0
LINE
  8
0
 10
51.9123
 20
200.312
 11
52.1869
 21
200.054
  0
LINE
  8
0
 10
52.1869
 20
200.054
 11
52.427
 21
199.763
  0
LINE
  8
0
 10
52.427
 20
199.763
 11
52.6289
 21
199.445
  0
LINE
  8
0
 10
52.6289
 20
199.445
 11
52.7893
 21
199.104
  0
LINE
  8
0
 10
52.7893
 20
199.104
 11
52.9057
 21
198.746
  0
LINE
  8
0
 10
52.9057
 20
198.746
 11
52.9763
 21
198.376
  0
LINE
  8
0
 10
52.9763
 20
198.376
 11
53
 21
198
  0
LINE
  8
0
 10
53
 20
198
 11
52.9763
 21
197.624
  0
LINE
  8
0
 10
52.9763
 20
197.624
 11
52.9057
 21
197.254
  0
LINE
  8
0
 10
52.9057
 20
197.254
 11
52.7893
 21
196.896
  0
LINE
  8
0
 10
52.7893
 20
196.896
 11
52.6289
 21
196.555
  0
LINE
  8
0
 10
52.6289
 20
196.555
 11
52.427
 21
196.237
  0
LINE
  8
0
 10
52.427
 20
196.237
 11
52.1869
 21
195.946
  0
LINE
  8
0
 10
52.1869
 20
195.946
 11
51.9123
 21
195.688
  0
LINE
  8
0
 10
51.9123
 20
195.688
 11
51.6075
 21
195.467
  0
LINE
  8
0
 10
51.6075
 20
195.467
 11
51.2773
 21
195.286
  0
LINE
  8
0
 10
51.2773
 20
195.286
 11
50.927
 21
195.147
  0
LINE
  8
0
 10
50.927
 20
195.147
 11
50.5621
 21
195.053
  0
LINE
  8
0
 10
50.5621
 20
195.053
 11
50.1884
 21
195.006
  0
LINE
  8
0
 10
50.1884
 20
195.006
 11
49.8116
 21
195.006
  0
LINE
  8
0
 10
49.887
 20
188.704
 11
49.6627
 21
188.732
  0
LINE
  8
0
 10
49.6627
 20
188.732
 11
49.4438
 21
188.788
  0
LINE
  8
0
 10
49.4438
 20
188.788
 11
49.2336
 21
188.871
  0
LINE
  8
0
 10
49.2336
 20
188.871
 11
49.0355
 21
188.98
  0
LINE
  8
0
 10
49.0355
 20
188.98
 11
48.8526
 21
189.113
  0
LINE
  8
0
 10
48.8526
 20
189.113
 11
48.6879
 21
189.268
  0
LINE
  8
0
 10
48.6879
 20
189.268
 11
48.5438
 21
189.442
  0
LINE
  8
0
 10
48.5438
 20
189.442
 11
48.4226
 21
189.633
  0
LINE
  8
0
 10
48.4226
 20
189.633
 11
48.3264
 21
189.837
  0
LINE
  8
0
 10
48.3264
 20
189.837
 11
48.2565
 21
190.052
  0
LINE
  8
0
 10
48.2565
 20
190.052
 11
48.2142
 21
190.274
  0
LINE
  8
0
 10
48.2142
 20
190.274
 11
48.2
 21
190.5
  0
LINE
  8
0
 10
48.2
 20
190.5
 11
48.2142
 21
190.726
  0
LINE
  8
0
 10
48.2142
 20
190.726
 11
48.2565
 21
190.948
  0
LINE
  8
0
 10
48.2565
 20
190.948
 11
48.3264
 21
191.163
  0
LINE
  8
0
 10
48.3264
 20
191.163
 11
48.4226
 21
191.367
  0
LINE
  8
0
 10
48.4226
 20
191.367
 11
48.5438
 21
191.558
  0
LINE
  8
0
 10
48.5438
 20
191.558
 11
48.6879
 21
191.732
  0
LINE
  8
0
 10
48.6879
 20
191.732
 11
48.8526
 21
191.887
  0
LINE
  8
0
 10
48.8526
 20
191.887
 11
49.0355
 21
192.02
  0
LINE
  8
0
 10
49.0355
 20
192.02
 11
49.2336
 21
192.129
  0
LINE
  8
0
 10
49.2336
 20
192.129
 11
49.4438
 21
192.212
  0
LINE
  8
0
 10
49.4438
 20
192.212
 11
49.6627
 21
192.268
  0
LINE
  8
0
 10
49.6627
 20
192.268
 11
49.887
 21
192.296
  0
LINE
  8
0
 10
49.887
 20
192.296
 11
50.113
 21
192.296
  0
LINE
  8
0
 10
50.113
 20
192.296
 11
50.3373
 21
192.268
  0
LINE
  8
0
 10
50.3373
 20
192.268
 11
50.5562
 21
192.212
  0
LINE
  8
0
 10
50.5562
 20
192.212
 11
50.7664
 21
192.129
  0
LINE
  8
0
 10
50.7664
 20
192.129
 11
50.9645
 21
192.02
  0
LINE
  8
0
 10
50.9645
 20
192.02
 11
51.1474
 21
191.887
  0
LINE
  8
0
 10
51.1474
 20
191.887
 11
51.3121
 21
191.732
  0
LINE
  8
0
 10
51.3121
 20
191.732
 11
51.4562
 21
191.558
  0
LINE
  8
0
 10
51.4562
 20
191.558
 11
51.5773
 21
191.367
  0
LINE
  8
0
 10
51.5773
 20
191.367
 11
51.6736
 21
191.163
  0
LINE
  8
0
 10
51.6736
 20
191.163
 11
51.7434
 21
190.948
  0
LINE
  8
0
 10
51.7434
 20
190.948
 11
51.7858
 21
190.726
  0
LINE
  8
0
 10
51.7858
 20
190.726
 11
51.8
 21
190.5
  0
LINE
  8
0
 10
51.8
 20
190.5
 11
51.7858
 21
190.274
  0
LINE
  8
0
 10
51.7858
 20
190.274
 11
51.7434
 21
190.052
  0
LINE
  8
0
 10
51.7434
 20
190.052
 11
51.6736
 21
189.837
  0
LINE
  8
0
 10
51.6736
 20
189.837
 11
51.5773
 21
189.633
  0
LINE
  8
0
 10
51.5773
 20
189.633
 11
51.4562
 21
189.442
  0
LINE
  8
0
 10
51.4562
 20
189.442
 11
51.3121
 21
189.268
  0
LINE
  8
0
 10
51.3121
 20
189.268
 11
51.1474
 21
189.113
  0
LINE
  8
0
 10
51.1474
 20
189.113
 11
50.9645
 21
188.98
  0
LINE
  8
0
 10
50.9645
 20
188.98
 11
50.7664
 21
188.871
  0
LINE
  8
0
 10
50.7664
 20
188.871
 11
50.5562
 21
188.788
  0
LINE
  8
0
 10
50.5562
 20
188.788
 11
50.3373
 21
188.732
  0
LINE
  8
0
 10
50.3373
 20
188.732
 11
50.113
 21
188.704
  0
LINE
  8
0
 10
50.113
 20
188.704
 11
49.887
 21
188.704
  0
LINE
  8
0
 10
49.887
 20
143.704
 11
49.6627
 21
143.732
  0
LINE
  8
0
 10
49.6627
 20
143.732
 11
49.4438
 21
143.788
  0
LINE
  8
0
 10
49.4438
 20
143.788
 11
49.2336
 21
143.871
  0
LINE
  8
0
 10
49.2336
 20
143.871
 11
49.0355
 21
143.98
  0
LINE
  8
0
 10
49.0355
 20
143.98
 11
48.8526
 21
144.113
  0
LINE
  8
0
 10
48.8526
 20
144.113
 11
48.6879
 21
144.268
  0
LINE
  8
0
 10
48.6879
 20
144.268
 11
48.5438
 21
144.442
  0
LINE
  8
0
 10
48.5438
 20
144.442
 11
48.4226
 21
144.633
  0
LINE
  8
0
 10
48.4226
 20
144.633
 11
48.3264
 21
144.837
  0
LINE
  8
0
 10
48.3264
 20
144.837
 11
48.2565
 21
145.052
  0
LINE
  8
0
 10
48.2565
 20
145.052
 11
48.2142
 21
145.274
  0
LINE
  8
0
 10
48.2142
 20
145.274
 11
48.2
 21
145.5
  0
LINE
  8
0
 10
48.2
 20
145.5
 11
48.2142
 21
145.726
  0
LINE
  8
0
 10
48.2142
 20
145.726
 11
48.2565
 21
145.948
  0
LINE
  8
0
 10
48.2565
 20
145.948
 11
48.3264
 21
146.163
  0
LINE
  8
0
 10
48.3264
 20
146.163
 11
48.4226
 21
146.367
  0
LINE
  8
0
 10
48.4226
 20
146.367
 11
48.5438
 21
146.558
  0
LINE
  8
0
 10
48.5438
 20
146.558
 11
48.6879
 21
146.732
  0
LINE
  8
0
 10
48.6879
 20
146.732
 11
48.8526
 21
146.887
  0
LINE
  8
0
 10
48.8526
 20
146.887
 11
49.0355
 21
147.02
  0
LINE
  8
0
 10
49.0355
 20
147.02
 11
49.2336
 21
147.129
  0
LINE
  8
0
 10
49.2336
 20
147.129
 11
49.4438
 21
147.212
  0
LINE
  8
0
 10
49.4438
 20
147.212
 11
49.6627
 21
147.268
  0
LINE
  8
0
 10
49.6627
 20
147.268
 11
49.887
 21
147.296
  0
LINE
  8
0
 10
49.887
 20
147.296
 11
50.113
 21
147.296
  0
LINE
  8
0
 10
50.113
 20
147.296
 11
50.3373
 21
147.268
  0
LINE
  8
0
 10
50.3373
 20
147.268
 11
50.5562
 21
147.212
  0
LINE
  8
0
 10
50.5562
 20
147.212
 11
50.7664
 21
147.129
  0
LINE
  8
0
 10
50.7664
 20
147.129
 11
50.9645
 21
147.02
  0
LINE
  8
0
 10
50.9645
 20
147.02
 11
51.1474
 21
146.887
  0
LINE
  8
0
 10
51.1474
 20
146.887
 11
51.3121
 21
146.732
  0
LINE
  8
0
 10
51.3121
 20
146.732
 11
51.4562
 21
146.558
  0
LINE
  8
0
 10
51.4562
 20
146.558
 11
51.5773
 21
146.367
  0
LINE
  8
0
 10
51.5773
 20
146.367
 11
51.6736
 21
146.163
  0
LINE
  8
0
 10
51.6736
 20
146.163
 11
51.7434
 21
145.948
  0
LINE
  8
0
 10
51.7434
 20
145.948
 11
51.7858
 21
145.726
  0
LINE
  8
0
 10
51.7858
 20
145.726
 11
51.8
 21
145.5
  0
LINE
  8
0
 10
51.8
 20
145.5
 11
51.7858
 21
145.274
  0
LINE
  8
0
 10
51.7858
 20
145.274
 11
51.7434
 21
145.052
  0
LINE
  8
0
 10
51.7434
 20
145.052
 11
51.6736
 21
144.837
  0
LINE
  8
0
 10
51.6736
 20
144.837
 11
51.5773
 21
144.633
  0
LINE
  8
0
 10
51.5773
 20
144.633
 11
51.4562
 21
144.442
  0
LINE
  8
0
 10
51.4562
 20
144.442
 11
51.3121
 21
144.268
  0
LINE
  8
0
 10
51.3121
 20
144.268
 11
51.1474
 21
144.113
  0
LINE
  8
0
 10
51.1474
 20
144.113
 11
50.9645
 21
143.98
  0
LINE
  8
0
 10
50.9645
 20
143.98
 11
50.7664
 21
143.871
  0
LINE
  8
0
 10
50.7664
 20
143.871
 11
50.5562
 21
143.788
  0
LINE
  8
0
 10
50.5562
 20
143.788
 11
50.3373
 21
143.732
  0
LINE
  8
0
 10
50.3373
 20
143.732
 11
50.113
 21
143.704
  0
LINE
  8
0
 10
50.113
 20
143.704
 11
49.887
 21
143.704
  0
LINE
  8
0
 10
49.8116
 20
135.006
 11
49.4379
 21
135.053
  0
LINE
  8
0
 10
49.4379
 20
135.053
 11
49.0729
 21
135.147
  0
LINE
  8
0
 10
49.0729
 20
135.147
 11
48.7227
 21
135.286
  0
LINE
  8
0
 10
48.7227
 20
135.286
 11
48.3925
 21
135.467
  0
LINE
  8
0
 10
48.3925
 20
135.467
 11
48.0877
 21
135.688
  0
LINE
  8
0
 10
48.0877
 20
135.688
 11
47.8131
 21
135.946
  0
LINE
  8
0
 10
47.8131
 20
135.946
 11
47.5729
 21
136.237
  0
LINE
  8
0
 10
47.5729
 20
136.237
 11
47.3711
 21
136.555
  0
LINE
  8
0
 10
47.3711
 20
136.555
 11
47.2107
 21
136.896
  0
LINE
  8
0
 10
47.2107
 20
136.896
 11
47.0942
 21
137.254
  0
LINE
  8
0
 10
47.0942
 20
137.254
 11
47.0237
 21
137.624
  0
LINE
  8
0
 10
47.0237
 20
137.624
 11
47
 21
138
  0
LINE
  8
0
 10
47
 20
138
 11
47.0237
 21
138.376
  0
LINE
  8
0
 10
47.0237
 20
138.376
 11
47.0942
 21
138.746
  0
LINE
  8
0
 10
47.0942
 20
138.746
 11
47.2107
 21
139.104
  0
LINE
  8
0
 10
47.2107
 20
139.104
 11
47.3711
 21
139.445
  0
LINE
  8
0
 10
47.3711
 20
139.445
 11
47.5729
 21
139.763
  0
LINE
  8
0
 10
47.5729
 20
139.763
 11
47.8131
 21
140.054
  0
LINE
  8
0
 10
47.8131
 20
140.054
 11
48.0877
 21
140.312
  0
LINE
  8
0
 10
48.0877
 20
140.312
 11
48.3925
 21
140.533
  0
LINE
  8
0
 10
48.3925
 20
140.533
 11
48.7227
 21
140.714
  0
LINE
  8
0
 10
48.7227
 20
140.714
 11
49.0729
 21
140.853
  0
LINE
  8
0
 10
49.0729
 20
140.853
 11
49.4379
 21
140.947
  0
LINE
  8
0
 10
49.4379
 20
140.947
 11
49.8116
 21
140.994
  0
LINE
  8
0
 10
49.8116
 20
140.994
 11
50.1884
 21
140.994
  0
LINE
  8
0
 10
50.1884
 20
140.994
 11
50.5621
 21
140.947
  0
LINE
  8
0
 10
50.5621
 20
140.947
 11
50.927
 21
140.853
  0
LINE
  8
0
 10
50.927
 20
140.853
 11
51.2773
 21
140.714
  0
LINE
  8
0
 10
51.2773
 20
140.714
 11
51.6075
 21
140.533
  0
LINE
  8
0
 10
51.6075
 20
140.533
 11
51.9123
 21
140.312
  0
LINE
  8
0
 10
51.9123
 20
140.312
 11
52.1869
 21
140.054
  0
LINE
  8
0
 10
52.1869
 20
140.054
 11
52.427
 21
139.763
  0
LINE
  8
0
 10
52.427
 20
139.763
 11
52.6289
 21
139.445
  0
LINE
  8
0
 10
52.6289
 20
139.445
 11
52.7893
 21
139.104
  0
LINE
  8
0
 10
52.7893
 20
139.104
 11
52.9057
 21
138.746
  0
LINE
  8
0
 10
52.9057
 20
138.746
 11
52.9763
 21
138.376
  0
LINE
  8
0
 10
52.9763
 20
138.376
 11
53
 21
138
  0
LINE
  8
0
 10
53
 20
138
 11
52.9763
 21
137.624
  0
LINE
  8
0
 10
52.9763
 20
137.624
 11
52.9057
 21
137.254
  0
LINE
  8
0
 10
52.9057
 20
137.254
 11
52.7893
 21
136.896
  0
LINE
  8
0
 10
52.7893
 20
136.896
 11
52.6289
 21
136.555
  0
LINE
  8
0
 10
52.6289
 20
136.555
 11
52.427
 21
136.237
  0
LINE
  8
0
 10
52.427
 20
136.237
 11
52.1869
 21
135.946
  0
LINE
  8
0
 10
52.1869
 20
135.946
 11
51.9123
 21
135.688
  0
LINE
  8
0
 10
51.9123
 20
135.688
 11
51.6075
 21
135.467
  0
LINE
  8
0
 10
51.6075
 20
135.467
 11
51.2773
 21
135.286
  0
LINE
  8
0
 10
51.2773
 20
135.286
 11
50.927
 21
135.147
  0
LINE
  8
0
 10
50.927
 20
135.147
 11
50.5621
 21
135.053
  0
LINE
  8
0
 10
50.5621
 20
135.053
 11
50.1884
 21
135.006
  0
LINE
  8
0
 10
50.1884
 20
135.006
 11
49.8116
 21
135.006
  0
LINE
  8
0
 10
2.9369
 20
131.089
 11
3.54507
 21
131.245
  0
LINE
  8
0
 10
3.54507
 20
131.245
 11
4.12889
 21
131.476
  0
LINE
  8
0
 10
4.12889
 20
131.476
 11
4.67912
 21
131.778
  0
LINE
  8
0
 10
4.67912
 20
131.778
 11
5.18712
 21
132.147
  0
LINE
  8
0
 10
5.18712
 20
132.147
 11
5.64484
 21
132.577
  0
LINE
  8
0
 10
5.64484
 20
132.577
 11
6.04507
 21
133.061
  0
LINE
  8
0
 10
6.04507
 20
133.061
 11
6.38153
 21
133.591
  0
LINE
  8
0
 10
6.38153
 20
133.591
 11
6.64888
 21
134.159
  0
LINE
  8
0
 10
6.64888
 20
134.159
 11
6.84291
 21
134.757
  0
LINE
  8
0
 10
6.84291
 20
134.757
 11
6.96057
 21
135.373
  0
LINE
  8
0
 10
6.96057
 20
135.373
 11
7
 21
136
  0
LINE
  8
0
 10
7
 20
136
 11
7
 21
200
  0
LINE
  8
0
 10
7
 20
200
 11
6.96057
 21
200.627
  0
LINE
  8
0
 10
6.96057
 20
200.627
 11
6.84291
 21
201.243
  0
LINE
  8
0
 10
6.84291
 20
201.243
 11
6.64888
 21
201.841
  0
LINE
  8
0
 10
6.64888
 20
201.841
 11
6.38153
 21
202.409
  0
LINE
  8
0
 10
6.38153
 20
202.409
 11
6.04507
 21
202.939
  0
LINE
  8
0
 10
6.04507
 20
202.939
 11
5.64484
 21
203.423
  0
LINE
  8
0
 10
5.64484
 20
203.423
 11
5.18712
 21
203.853
  0
LINE
  8
0
 10
5.18712
 20
203.853
 11
4.67912
 21
204.222
  0
LINE
  8
0
 10
4.67912
 20
204.222
 11
4.12889
 21
204.524
  0
LINE
  8
0
 10
4.12889
 20
204.524
 11
3.54507
 21
204.755
  0
LINE
  8
0
 10
3.54507
 20
204.755
 11
2.9369
 21
204.911
  0
LINE
  8
0
 10
2.9369
 20
204.911
 11
2.31395
 21
204.99
  0
LINE
  8
0
 10
2.31395
 20
204.99
 11
-2.31395
 21
204.99
  0
LINE
  8
0
 10
-2.31395
 20
204.99
 11
-2.9369
 21
204.911
  0
LINE
  8
0
 10
-2.9369
 20
204.911
 11
-3.54507
 21
204.755
  0
LINE
  8
0
 10
-3.54507
 20
204.755
 11
-4.12889
 21
204.524
  0
LINE
  8
0
 10
-4.12889
 20
204.524
 11
-4.67912
 21
204.222
  0
LINE
  8
0
 10
-4.67912
 20
204.222
 11
-5.18712
 21
203.853
  0
LINE
  8
0
 10
-5.18712
 20
203.853
 11
-5.64484
 21
203.423
  0
LINE
  8
0
 10
-5.64484
 20
203.423
 11
-6.04507
 21
202.939
  0
LINE
  8
0
 10
-6.04507
 20
202.939
 11
-6.38153
 21
202.409
  0
LINE
  8
0
 10
-6.38153
 20
202.409
 11
-6.64888
 21
201.841
  0
LINE
  8
0
 10
-6.64888
 20
201.841
 11
-6.84291
 21
201.243
  0
LINE
  8
0
 10
-6.84291
 20
201.243
 11
-6.96057
 21
200.627
  0
LINE
  8
0
 10
-6.96057
 20
200.627
 11
-7
 21
200
  0
LINE
  8
0
 10
-7
 20
200
 11
-7
 21
136
  0
LINE
  8
0
 10
-7
 20
136
 11
-6.96057
 21
135.373
  0
LINE
  8
0
 10
-6.96057
 20
135.373
 11
-6.84291
 21
134.757
  0
LINE
  8
0
 10
-6.84291
 20
134.757
 11
-6.64888
 21
134.159
  0
LINE
  8
0
 10
-6.64888
 20
134.159
 11
-6.38153
 21
133.591
  0
LINE
  8
0
 10
-6.38153
 20
133.591
 11
-6.04507
 21
133.061
  0
LINE
  8
0
 10
-6.04507
 20
133.061
 11
-5.64484
 21
132.577
  0
LINE
  8
0
 10
-5.64484
 20
132.577
 11
-5.18712
 21
132.147
  0
LINE
  8
0
 10
-5.18712
 20
132.147
 11
-4.67912
 21
131.778
  0
LINE
  8
0
 10
-4.67912
 20
131.778
 11
-4.12889
 21
131.476
  0
LINE
  8
0
 10
-4.12889
 20
131.476
 11
-3.54507
 21
131.245
  0
LINE
  8
0
 10
-3.54507
 20
131.245
 11
-2.9369
 21
131.089
  0
LINE
  8
0
 10
-2.9369
 20
131.089
 11
-2.31395
 21
131.01
  0
LINE
  8
0
 10
-2.31395
 20
131.01
 11
2.31395
 21
131.01
  0
LINE
  8
0
 10
2.31395
 20
131.01
 11
2.9369
 21
131.089
  0
LINE
  8
0
 10
-0.18837
 20
195.006
 11
-0.562134
 21
195.053
  0
LINE
  8
0
 10
-0.562134
 20
195.053
 11
-0.927048
 21
195.147
  0
LINE
  8
0
 10
-0.927048
 20
195.147
 11
-1.27733
 21
195.286
  0
LINE
  8
0
 10
-1.27733
 20
195.286
 11
-1.60747
 21
195.467
  0
LINE
  8
0
 10
-1.60747
 20
195.467
 11
-1.91226
 21
195.688
  0
LINE
  8
0
 10
-1.91226
 20
195.688
 11
-2.1869
 21
195.946
  0
LINE
  8
0
 10
-2.1869
 20
195.946
 11
-2.42705
 21
196.237
  0
LINE
  8
0
 10
-2.42705
 20
196.237
 11
-2.62891
 21
196.555
  0
LINE
  8
0
 10
-2.62891
 20
196.555
 11
-2.78932
 21
196.896
  0
LINE
  8
0
 10
-2.78932
 20
196.896
 11
-2.90575
 21
197.254
  0
LINE
  8
0
 10
-2.90575
 20
197.254
 11
-2.97633
 21
197.624
  0
LINE
  8
0
 10
-2.97633
 20
197.624
 11
-3
 21
198
  0
LINE
  8
0
 10
-3
 20
198
 11
-2.97633
 21
198.376
  0
LINE
  8
0
 10
-2.97633
 20
198.376
 11
-2.90575
 21
198.746
  0
LINE
  8
0
 10
-2.90575
 20
198.746
 11
-2.78932
 21
199.104
  0
LINE
  8
0
 10
-2.78932
 20
199.104
 11
-2.62891
 21
199.445
  0
LINE
  8
0
 10
-2.62891
 20
199.445
 11
-2.42705
 21
199.763
  0
LINE
  8
0
 10
-2.42705
 20
199.763
 11
-2.1869
 21
200.054
  0
LINE
  8
0
 10
-2.1869
 20
200.054
 11
-1.91226
 21
200.312
  0
LINE
  8
0
 10
-1.91226
 20
200.312
 11
-1.60747
 21
200.533
  0
LINE
  8
0
 10
-1.60747
 20
200.533
 11
-1.27733
 21
200.714
  0
LINE
  8
0
 10
-1.27733
 20
200.714
 11
-0.927048
 21
200.853
  0
LINE
  8
0
 10
-0.927048
 20
200.853
 11
-0.562134
 21
200.947
  0
LINE
  8
0
 10
-0.562134
 20
200.947
 11
-0.18837
 21
200.994
  0
LINE
  8
0
 10
-0.18837
 20
200.994
 11
0.18837
 21
200.994
  0
LINE
  8
0
 10
0.18837
 20
200.994
 11
0.562134
 21
200.947
  0
LINE
  8
0
 10
0.562134
 20
200.947
 11
0.927048
 21
200.853
  0
LINE
  8
0
 10
0.927048
 20
200.853
 11
1.27733
 21
200.714
  0
LINE
  8
0
 10
1.27733
 20
200.714
 11
1.60747
 21
200.533
  0
LINE
  8
0
 10
1.60747
 20
200.533
 11
1.91226
 21
200.312
  0
LINE
  8
0
 10
1.91226
 20
200.312
 11
2.1869
 21
200.054
  0
LINE
  8
0
 10
2.1869
 20
200.054
 11
2.42705
 21
199.763
  0
LINE
  8
0
 10
2.42705
 20
199.763
 11
2.62891
 21
199.445
  0
LINE
  8
0
 10
2.62891
 20
199.445
 11
2.78932
 21
199.104
  0
LINE
  8
0
 10
2.78932
 20
199.104
 11
2.90575
 21
198.746
  0
LINE
  8
0
 10
2.90575
 20
198.746
 11
2.97633
 21
198.376
  0
LINE
  8
0
 10
2.97633
 20
198.376
 11
3
 21
198
  0
LINE
  8
0
 10
3
 20
198
 11
2.97633
 21
197.624
  0
LINE
  8
0
 10
2.97633
 20
197.624
 11
2.90575
 21
197.254
  0
LINE
  8
0
 10
2.90575
 20
197.254
 11
2.78932
 21
196.896
  0
LINE
  8
0
 10
2.78932
 20
196.896
 11
2.62891
 21
196.555
  0
LINE
  8
0
 10
2.62891
 20
196.555
 11
2.42705
 21
196.237
  0
LINE
  8
0
 10
2.42705
 20
196.237
 11
2.1869
 21
195.946
  0
LINE
  8
0
 10
2.1869
 20
195.946
 11
1.91226
 21
195.688
  0
LINE
  8
0
 10
1.91226
 20
195.688
 11
1.60747
 21
195.467
  0
LINE
  8
0
 10
1.60747
 20
195.467
 11
1.27733
 21
195.286
  0
LINE
  8
0
 10
1.27733
 20
195.286
 11
0.927048
 21
195.147
  0
LINE
  8
0
 10
0.927048
 20
195.147
 11
0.562134
 21
195.053
  0
LINE
  8
0
 10
0.562134
 20
195.053
 11
0.18837
 21
195.006
  0
LINE
  8
0
 10
0.18837
 20
195.006
 11
-0.18837
 21
195.006
  0
LINE
  8
0
 10
-1.58675
 20
187.752
 11
-3.17349
 21
190.5
  0
LINE
  8
0
 10
-3.17349
 20
190.5
 11
-1.58675
 21
193.248
  0
LINE
  8
0
 10
-1.58675
 20
193.248
 11
1.58675
 21
193.248
  0
LINE
  8
0
 10
1.58675
 20
193.248
 11
3.17349
 21
190.5
  0
LINE
  8
0
 10
3.17349
 20
190.5
 11
1.58675
 21
187.752
  0
LINE
  8
0
 10
1.58675
 20
187.752
 11
-1.58675
 21
187.752
  0
LINE
  8
0
 10
-1.58675
 20
142.752
 11
-3.17349
 21
145.5
  0
LINE
  8
0
 10
-3.17349
 20
145.5
 11
-1.58675
 21
148.248
  0
LINE
  8
0
 10
-1.58675
 20
148.248
 11
1.58675
 21
148.248
  0
LINE
  8
0
 10
1.58675
 20
148.248
 11
3.17349
 21
145.5
  0
LINE
  8
0
 10
3.17349
 20
145.5
 11
1.58675
 21
142.752
  0
LINE
  8
0
 10
1.58675
 20
142.752
 11
-1.58675
 21
142.752
  0
LINE
  8
0
 10
-0.18837
 20
135.006
 11
-0.562134
 21
135.053
  0
LINE
  8
0
 10
-0.562134
 20
135.053
 11
-0.927048
 21
135.147
  0
LINE
  8
0
 10
-0.927048
 20
135.147
 11
-1.27733
 21
135.286
  0
LINE
  8
0
 10
-1.27733
 20
135.286
 11
-1.60747
 21
135.467
  0
LINE
  8
0
 10
-1.60747
 20
135.467
 11
-1.91226
 21
135.688
  0
LINE
  8
0
 10
-1.91226
 20
135.688
 11
-2.1869
 21
135.946
  0
LINE
  8
0
 10
-2.1869
 20
135.946
 11
-2.42705
 21
136.237
  0
LINE
  8
0
 10
-2.42705
 20
136.237
 11
-2.62891
 21
136.555
  0
LINE
  8
0
 10
-2.62891
 20
136.555
 11
-2.78932
 21
136.896
  0
LINE
  8
0
 10
-2.78932
 20
136.896
 11
-2.90575
 21
137.254
  0
LINE
  8
0
 10
-2.90575
 20
137.254
 11
-2.97633
 21
137.624
  0
LINE
  8
0
 10
-2.97633
 20
137.624
 11
-3
 21
138
  0
LINE
  8
0
 10
-3
 20
138
 11
-2.97633
 21
138.376
  0
LINE
  8
0
 10
-2.97633
 20
138.376
 11
-2.90575
 21
138.746
  0
LINE
  8
0
 10
-2.90575
 20
138.746
 11
-2.78932
 21
139.104
  0
LINE
  8
0
 10
-2.78932
 20
139.104
 11
-2.62891
 21
139.445
  0
LINE
  8
0
 10
-2.62891
 20
139.445
 11
-2.42705
 21
139.763
  0
LINE
  8
0
 10
-2.42705
 20
139.763
 11
-2.1869
 21
140.054
  0
LINE
  8
0
 10
-2.1869
 20
140.054
 11
-1.91226
 21
140.312
  0
LINE
  8
0
 10
-1.91226
 20
140.312
 11
-1.60747
 21
140.533
  0
LINE
  8
0
 10
-1.60747
 20
140.533
 11
-1.27733
 21
140.714
  0
LINE
  8
0
 10
-1.27733
 20
140.714
 11
-0.927048
 21
140.853
  0
LINE
  8
0
 10
-0.927048
 20
140.853
 11
-0.562134
 21
140.947
  0
LINE
  8
0
 10
-0.562134
 20
140.947
 11
-0.18837
 21
140.994
  0
LINE
  8
0
 10
-0.18837
 20
140.994
 11
0.18837
 21
140.994
  0
LINE
  8
0
 10
0.18837
 20
140.994
 11
0.562134
 21
140.947
  0
LINE
  8
0
 10
0.562134
 20
140.947
 11
0.927048
 21
140.853
  0
LINE
  8
0
 10
0.927048
 20
140.853
 11
1.27733
 21
140.714
  0
LINE
  8
0
 10
1.27733
 20
140.714
 11
1.60747
 21
140.533
  0
LINE
  8
0
 10
1.60747
 20
140.533
 11
1.91226
 21
140.312
  0
LINE
  8
0
 10
1.91226
 20
140.312
 11
2.1869
 21
140.054
  0
LINE
  8
0
 10
2.1869
 20
140.054
 11
2.42705
 21
139.763
  0
LINE
  8
0
 10
2.42705
 20
139.763
 11
2.62891
 21
139.445
  0
LINE
  8
0
 10
2.62891
 20
139.445
 11
2.78932
 21
139.104
  0
LINE
  8
0
 10
2.78932
 20
139.104
 11
2.90575
 21
138.746
  0
LINE
  8
0
 10
2.90575
 20
138.746
 11
2.97633
 21
138.376
  0
LINE
  8
0
 10
2.97633
 20
138.376
 11
3
 21
138
  0
LINE
  8
0
 10
3
 20
138
 11
2.97633
 21
137.624
  0
LINE
  8
0
 10
2.97633
 20
137.624
 11
2.90575
 21
137.254
  0
LINE
  8
0
 10
2.90575
 20
137.254
 11
2.78932
 21
136.896
  0
LINE
  8
0
 10
2.78932
 20
136.896
 11
2.62891
 21
136.555
  0
LINE
  8
0
 10
2.62891
 20
136.555
 11
2.42705
 21
136.237
  0
LINE
  8
0
 10
2.42705
 20
136.237
 11
2.1869
 21
135.946
  0
LINE
  8
0
 10
2.1869
 20
135.946
 11
1.91226
 21
135.688
  0
LINE
  8
0
 10
1.91226
 20
135.688
 11
1.60747
 21
135.467
  0
LINE
  8
0
 10
1.60747
 20
135.467
 11
1.27733
 21
135.286
  0
LINE
  8
0
 10
1.27733
 20
135.286
 11
0.927048
 21
135.147
  0
LINE
  8
0
 10
0.927048
 20
135.147
 11
0.562134
 21
135.053
  0
LINE
  8
0
 10
0.562134
 20
135.053
 11
0.18837
 21
135.006
  0
LINE
  8
0
 10
0.18837
 20
135.006
 11
-0.18837
 21
135.006
  0
ENDSEC
  0
SECTION
  2
OBJECTS
  0
DICTIONARY
  0
ENDSEC
  0
EOF
