  0
SECTION
  2
BLOCKS
  0
ENDSEC
  0
SECTION
  2
ENTITIES
  0
LINE
  8
0
 10
14.5
 20
389
 11
14.4606
 21
389.627
  0
LINE
  8
0
 10
14.4606
 20
389.627
 11
14.3429
 21
390.243
  0
LINE
  8
0
 10
14.3429
 20
390.243
 11
14.1489
 21
390.841
  0
LINE
  8
0
 10
14.1489
 20
390.841
 11
13.8815
 21
391.409
  0
LINE
  8
0
 10
13.8815
 20
391.409
 11
13.5451
 21
391.939
  0
LINE
  8
0
 10
13.5451
 20
391.939
 11
13.1448
 21
392.423
  0
LINE
  8
0
 10
13.1448
 20
392.423
 11
12.6871
 21
392.853
  0
LINE
  8
0
 10
12.6871
 20
392.853
 11
12.1791
 21
393.222
  0
LINE
  8
0
 10
12.1791
 20
393.222
 11
11.6289
 21
393.524
  0
LINE
  8
0
 10
11.6289
 20
393.524
 11
11.0451
 21
393.755
  0
LINE
  8
0
 10
11.0451
 20
393.755
 11
10.4369
 21
393.911
  0
LINE
  8
0
 10
10.4369
 20
393.911
 11
9.81395
 21
393.99
  0
LINE
  8
0
 10
9.81395
 20
393.99
 11
-9.81395
 21
393.99
  0
LINE
  8
0
 10
-9.81395
 20
393.99
 11
-10.4369
 21
393.911
  0
LINE
  8
0
 10
-10.4369
 20
393.911
 11
-11.0451
 21
393.755
  0
LINE
  8
0
 10
-11.0451
 20
393.755
 11
-11.6289
 21
393.524
  0
LINE
  8
0
 10
-11.6289
 20
393.524
 11
-12.1791
 21
393.222
  0
LINE
  8
0
 10
-12.1791
 20
393.222
 11
-12.6871
 21
392.853
  0
LINE
  8
0
 10
-12.6871
 20
392.853
 11
-13.1448
 21
392.423
  0
LINE
  8
0
 10
-13.1448
 20
392.423
 11
-13.5451
 21
391.939
  0
LINE
  8
0
 10
-13.5451
 20
391.939
 11
-13.8815
 21
391.409
  0
LINE
  8
0
 10
-13.8815
 20
391.409
 11
-14.1489
 21
390.841
  0
LINE
  8
0
 10
-14.1489
 20
390.841
 11
-14.3429
 21
390.243
  0
LINE
  8
0
 10
-14.3429
 20
390.243
 11
-14.4606
 21
389.627
  0
LINE
  8
0
 10
-14.4606
 20
389.627
 11
-14.5
 21
389
  0
LINE
  8
0
 10
-14.5
 20
389
 11
-14.5
 21
370.7
  0
LINE
  8
0
 10
-14.5
 20
370.7
 11
14.5
 21
370.7
  0
LINE
  8
0
 10
14.5
 20
370.7
 11
14.5
 21
389
  0
LINE
  8
0
 10
-0.194641
 20
383.906
 11
-0.580872
 21
383.955
  0
LINE
  8
0
 10
-0.580872
 20
383.955
 11
-0.957947
 21
384.052
  0
LINE
  8
0
 10
-0.957947
 20
384.052
 11
-1.3199
 21
384.195
  0
LINE
  8
0
 10
-1.3199
 20
384.195
 11
-1.66106
 21
384.383
  0
LINE
  8
0
 10
-1.66106
 20
384.383
 11
-1.97601
 21
384.611
  0
LINE
  8
0
 10
-1.97601
 20
384.611
 11
-2.2598
 21
384.878
  0
LINE
  8
0
 10
-2.2598
 20
384.878
 11
-2.50795
 21
385.178
  0
LINE
  8
0
 10
-2.50795
 20
385.178
 11
-2.71654
 21
385.507
  0
LINE
  8
0
 10
-2.71654
 20
385.507
 11
-2.88229
 21
385.859
  0
LINE
  8
0
 10
-2.88229
 20
385.859
 11
-3.00259
 21
386.229
  0
LINE
  8
0
 10
-3.00259
 20
386.229
 11
-3.07555
 21
386.611
  0
LINE
  8
0
 10
-3.07555
 20
386.611
 11
-3.09999
 21
387
  0
LINE
  8
0
 10
-3.09999
 20
387
 11
-3.07555
 21
387.389
  0
LINE
  8
0
 10
-3.07555
 20
387.389
 11
-3.00259
 21
387.771
  0
LINE
  8
0
 10
-3.00259
 20
387.771
 11
-2.88229
 21
388.141
  0
LINE
  8
0
 10
-2.88229
 20
388.141
 11
-2.71654
 21
388.493
  0
LINE
  8
0
 10
-2.71654
 20
388.493
 11
-2.50795
 21
388.822
  0
LINE
  8
0
 10
-2.50795
 20
388.822
 11
-2.2598
 21
389.122
  0
LINE
  8
0
 10
-2.2598
 20
389.122
 11
-1.97601
 21
389.389
  0
LINE
  8
0
 10
-1.97601
 20
389.389
 11
-1.66106
 21
389.617
  0
LINE
  8
0
 10
-1.66106
 20
389.617
 11
-1.3199
 21
389.805
  0
LINE
  8
0
 10
-1.3199
 20
389.805
 11
-0.957947
 21
389.948
  0
LINE
  8
0
 10
-0.957947
 20
389.948
 11
-0.580872
 21
390.045
  0
LINE
  8
0
 10
-0.580872
 20
390.045
 11
-0.194641
 21
390.094
  0
LINE
  8
0
 10
-0.194641
 20
390.094
 11
0.194641
 21
390.094
  0
LINE
  8
0
 10
0.194641
 20
390.094
 11
0.580872
 21
390.045
  0
LINE
  8
0
 10
0.580872
 20
390.045
 11
0.957947
 21
389.948
  0
LINE
  8
0
 10
0.957947
 20
389.948
 11
1.3199
 21
389.805
  0
LINE
  8
0
 10
1.3199
 20
389.805
 11
1.66106
 21
389.617
  0
LINE
  8
0
 10
1.66106
 20
389.617
 11
1.97601
 21
389.389
  0
LINE
  8
0
 10
1.97601
 20
389.389
 11
2.2598
 21
389.122
  0
LINE
  8
0
 10
2.2598
 20
389.122
 11
2.50795
 21
388.822
  0
LINE
  8
0
 10
2.50795
 20
388.822
 11
2.71654
 21
388.493
  0
LINE
  8
0
 10
2.71654
 20
388.493
 11
2.88229
 21
388.141
  0
LINE
  8
0
 10
2.88229
 20
388.141
 11
3.00259
 21
387.771
  0
LINE
  8
0
 10
3.00259
 20
387.771
 11
3.07555
 21
387.389
  0
LINE
  8
0
 10
3.07555
 20
387.389
 11
3.09999
 21
387
  0
LINE
  8
0
 10
3.09999
 20
387
 11
3.07555
 21
386.611
  0
LINE
  8
0
 10
3.07555
 20
386.611
 11
3.00259
 21
386.229
  0
LINE
  8
0
 10
3.00259
 20
386.229
 11
2.88229
 21
385.859
  0
LINE
  8
0
 10
2.88229
 20
385.859
 11
2.71654
 21
385.507
  0
LINE
  8
0
 10
2.71654
 20
385.507
 11
2.50795
 21
385.178
  0
LINE
  8
0
 10
2.50795
 20
385.178
 11
2.2598
 21
384.878
  0
LINE
  8
0
 10
2.2598
 20
384.878
 11
1.97601
 21
384.611
  0
LINE
  8
0
 10
1.97601
 20
384.611
 11
1.66106
 21
384.383
  0
LINE
  8
0
 10
1.66106
 20
384.383
 11
1.3199
 21
384.195
  0
LINE
  8
0
 10
1.3199
 20
384.195
 11
0.957947
 21
384.052
  0
LINE
  8
0
 10
0.957947
 20
384.052
 11
0.580872
 21
383.955
  0
LINE
  8
0
 10
0.580872
 20
383.955
 11
0.194641
 21
383.906
  0
LINE
  8
0
 10
0.194641
 20
383.906
 11
-0.194641
 21
383.906
  0
LINE
  8
0
 10
-7.68837
 20
384.006
 11
-8.06213
 21
384.053
  0
LINE
  8
0
 10
-8.06213
 20
384.053
 11
-8.42705
 21
384.147
  0
LINE
  8
0
 10
-8.42705
 20
384.147
 11
-8.77733
 21
384.286
  0
LINE
  8
0
 10
-8.77733
 20
384.286
 11
-9.10747
 21
384.467
  0
LINE
  8
0
 10
-9.10747
 20
384.467
 11
-9.41226
 21
384.688
  0
LINE
  8
0
 10
-9.41226
 20
384.688
 11
-9.6869
 21
384.946
  0
LINE
  8
0
 10
-9.6869
 20
384.946
 11
-9.92705
 21
385.237
  0
LINE
  8
0
 10
-9.92705
 20
385.237
 11
-10.1289
 21
385.555
  0
LINE
  8
0
 10
-10.1289
 20
385.555
 11
-10.2893
 21
385.896
  0
LINE
  8
0
 10
-10.2893
 20
385.896
 11
-10.4057
 21
386.254
  0
LINE
  8
0
 10
-10.4057
 20
386.254
 11
-10.4763
 21
386.624
  0
LINE
  8
0
 10
-10.4763
 20
386.624
 11
-10.5
 21
387
  0
LINE
  8
0
 10
-10.5
 20
387
 11
-10.4763
 21
387.376
  0
LINE
  8
0
 10
-10.4763
 20
387.376
 11
-10.4057
 21
387.746
  0
LINE
  8
0
 10
-10.4057
 20
387.746
 11
-10.2893
 21
388.104
  0
LINE
  8
0
 10
-10.2893
 20
388.104
 11
-10.1289
 21
388.445
  0
LINE
  8
0
 10
-10.1289
 20
388.445
 11
-9.92705
 21
388.763
  0
LINE
  8
0
 10
-9.92705
 20
388.763
 11
-9.6869
 21
389.054
  0
LINE
  8
0
 10
-9.6869
 20
389.054
 11
-9.41226
 21
389.312
  0
LINE
  8
0
 10
-9.41226
 20
389.312
 11
-9.10747
 21
389.533
  0
LINE
  8
0
 10
-9.10747
 20
389.533
 11
-8.77733
 21
389.714
  0
LINE
  8
0
 10
-8.77733
 20
389.714
 11
-8.42705
 21
389.853
  0
LINE
  8
0
 10
-8.42705
 20
389.853
 11
-8.06213
 21
389.947
  0
LINE
  8
0
 10
-8.06213
 20
389.947
 11
-7.68837
 21
389.994
  0
LINE
  8
0
 10
-7.68837
 20
389.994
 11
-7.31161
 21
389.994
  0
LINE
  8
0
 10
-7.31161
 20
389.994
 11
-6.93785
 21
389.947
  0
LINE
  8
0
 10
-6.93785
 20
389.947
 11
-6.57294
 21
389.853
  0
LINE
  8
0
 10
-6.57294
 20
389.853
 11
-6.22266
 21
389.714
  0
LINE
  8
0
 10
-6.22266
 20
389.714
 11
-5.89252
 21
389.533
  0
LINE
  8
0
 10
-5.89252
 20
389.533
 11
-5.58772
 21
389.312
  0
LINE
  8
0
 10
-5.58772
 20
389.312
 11
-5.31308
 21
389.054
  0
LINE
  8
0
 10
-5.31308
 20
389.054
 11
-5.07294
 21
388.763
  0
LINE
  8
0
 10
-5.07294
 20
388.763
 11
-4.87108
 21
388.445
  0
LINE
  8
0
 10
-4.87108
 20
388.445
 11
-4.71066
 21
388.104
  0
LINE
  8
0
 10
-4.71066
 20
388.104
 11
-4.59424
 21
387.746
  0
LINE
  8
0
 10
-4.59424
 20
387.746
 11
-4.52365
 21
387.376
  0
LINE
  8
0
 10
-4.52365
 20
387.376
 11
-4.5
 21
387
  0
LINE
  8
0
 10
-4.5
 20
387
 11
-4.52365
 21
386.624
  0
LINE
  8
0
 10
-4.52365
 20
386.624
 11
-4.59424
 21
386.254
  0
LINE
  8
0
 10
-4.59424
 20
386.254
 11
-4.71066
 21
385.896
  0
LINE
  8
0
 10
-4.71066
 20
385.896
 11
-4.87108
 21
385.555
  0
LINE
  8
0
 10
-4.87108
 20
385.555
 11
-5.07294
 21
385.237
  0
LINE
  8
0
 10
-5.07294
 20
385.237
 11
-5.31308
 21
384.946
  0
LINE
  8
0
 10
-5.31308
 20
384.946
 11
-5.58772
 21
384.688
  0
LINE
  8
0
 10
-5.58772
 20
384.688
 11
-5.89252
 21
384.467
  0
LINE
  8
0
 10
-5.89252
 20
384.467
 11
-6.22266
 21
384.286
  0
LINE
  8
0
 10
-6.22266
 20
384.286
 11
-6.57294
 21
384.147
  0
LINE
  8
0
 10
-6.57294
 20
384.147
 11
-6.93785
 21
384.053
  0
LINE
  8
0
 10
-6.93785
 20
384.053
 11
-7.31161
 21
384.006
  0
LINE
  8
0
 10
-7.31161
 20
384.006
 11
-7.68837
 21
384.006
  0
LINE
  8
0
 10
7.31161
 20
384.006
 11
6.93785
 21
384.053
  0
LINE
  8
0
 10
6.93785
 20
384.053
 11
6.57294
 21
384.147
  0
LINE
  8
0
 10
6.57294
 20
384.147
 11
6.22266
 21
384.286
  0
LINE
  8
0
 10
6.22266
 20
384.286
 11
5.89252
 21
384.467
  0
LINE
  8
0
 10
5.89252
 20
384.467
 11
5.58772
 21
384.688
  0
LINE
  8
0
 10
5.58772
 20
384.688
 11
5.31308
 21
384.946
  0
LINE
  8
0
 10
5.31308
 20
384.946
 11
5.07294
 21
385.237
  0
LINE
  8
0
 10
5.07294
 20
385.237
 11
4.87108
 21
385.555
  0
LINE
  8
0
 10
4.87108
 20
385.555
 11
4.71066
 21
385.896
  0
LINE
  8
0
 10
4.71066
 20
385.896
 11
4.59424
 21
386.254
  0
LINE
  8
0
 10
4.59424
 20
386.254
 11
4.52365
 21
386.624
  0
LINE
  8
0
 10
4.52365
 20
386.624
 11
4.5
 21
387
  0
LINE
  8
0
 10
4.5
 20
387
 11
4.52365
 21
387.376
  0
LINE
  8
0
 10
4.52365
 20
387.376
 11
4.59424
 21
387.746
  0
LINE
  8
0
 10
4.59424
 20
387.746
 11
4.71066
 21
388.104
  0
LINE
  8
0
 10
4.71066
 20
388.104
 11
4.87108
 21
388.445
  0
LINE
  8
0
 10
4.87108
 20
388.445
 11
5.07294
 21
388.763
  0
LINE
  8
0
 10
5.07294
 20
388.763
 11
5.31308
 21
389.054
  0
LINE
  8
0
 10
5.31308
 20
389.054
 11
5.58772
 21
389.312
  0
LINE
  8
0
 10
5.58772
 20
389.312
 11
5.89252
 21
389.533
  0
LINE
  8
0
 10
5.89252
 20
389.533
 11
6.22266
 21
389.714
  0
LINE
  8
0
 10
6.22266
 20
389.714
 11
6.57294
 21
389.853
  0
LINE
  8
0
 10
6.57294
 20
389.853
 11
6.93785
 21
389.947
  0
LINE
  8
0
 10
6.93785
 20
389.947
 11
7.31161
 21
389.994
  0
LINE
  8
0
 10
7.31161
 20
389.994
 11
7.68837
 21
389.994
  0
LINE
  8
0
 10
7.68837
 20
389.994
 11
8.06213
 21
389.947
  0
LINE
  8
0
 10
8.06213
 20
389.947
 11
8.42705
 21
389.853
  0
LINE
  8
0
 10
8.42705
 20
389.853
 11
8.77733
 21
389.714
  0
LINE
  8
0
 10
8.77733
 20
389.714
 11
9.10747
 21
389.533
  0
LINE
  8
0
 10
9.10747
 20
389.533
 11
9.41226
 21
389.312
  0
LINE
  8
0
 10
9.41226
 20
389.312
 11
9.6869
 21
389.054
  0
LINE
  8
0
 10
9.6869
 20
389.054
 11
9.92705
 21
388.763
  0
LINE
  8
0
 10
9.92705
 20
388.763
 11
10.1289
 21
388.445
  0
LINE
  8
0
 10
10.1289
 20
388.445
 11
10.2893
 21
388.104
  0
LINE
  8
0
 10
10.2893
 20
388.104
 11
10.4057
 21
387.746
  0
LINE
  8
0
 10
10.4057
 20
387.746
 11
10.4763
 21
387.376
  0
LINE
  8
0
 10
10.4763
 20
387.376
 11
10.5
 21
387
  0
LINE
  8
0
 10
10.5
 20
387
 11
10.4763
 21
386.624
  0
LINE
  8
0
 10
10.4763
 20
386.624
 11
10.4057
 21
386.254
  0
LINE
  8
0
 10
10.4057
 20
386.254
 11
10.2893
 21
385.896
  0
LINE
  8
0
 10
10.2893
 20
385.896
 11
10.1289
 21
385.555
  0
LINE
  8
0
 10
10.1289
 20
385.555
 11
9.92705
 21
385.237
  0
LINE
  8
0
 10
9.92705
 20
385.237
 11
9.6869
 21
384.946
  0
LINE
  8
0
 10
9.6869
 20
384.946
 11
9.41226
 21
384.688
  0
LINE
  8
0
 10
9.41226
 20
384.688
 11
9.10747
 21
384.467
  0
LINE
  8
0
 10
9.10747
 20
384.467
 11
8.77733
 21
384.286
  0
LINE
  8
0
 10
8.77733
 20
384.286
 11
8.42705
 21
384.147
  0
LINE
  8
0
 10
8.42705
 20
384.147
 11
8.06213
 21
384.053
  0
LINE
  8
0
 10
8.06213
 20
384.053
 11
7.68837
 21
384.006
  0
LINE
  8
0
 10
7.68837
 20
384.006
 11
7.31161
 21
384.006
  0
LINE
  8
0
 10
-0.113022
 20
377.704
 11
-0.33728
 21
377.732
  0
LINE
  8
0
 10
-0.33728
 20
377.732
 11
-0.556229
 21
377.788
  0
LINE
  8
0
 10
-0.556229
 20
377.788
 11
-0.766388
 21
377.871
  0
LINE
  8
0
 10
-0.766388
 20
377.871
 11
-0.964478
 21
377.98
  0
LINE
  8
0
 10
-0.964478
 20
377.98
 11
-1.14735
 21
378.113
  0
LINE
  8
0
 10
-1.14735
 20
378.113
 11
-1.31213
 21
378.268
  0
LINE
  8
0
 10
-1.31213
 20
378.268
 11
-1.45622
 21
378.442
  0
LINE
  8
0
 10
-1.45622
 20
378.442
 11
-1.57735
 21
378.633
  0
LINE
  8
0
 10
-1.57735
 20
378.633
 11
-1.67358
 21
378.837
  0
LINE
  8
0
 10
-1.67358
 20
378.837
 11
-1.74344
 21
379.052
  0
LINE
  8
0
 10
-1.74344
 20
379.052
 11
-1.7858
 21
379.274
  0
LINE
  8
0
 10
-1.7858
 20
379.274
 11
-1.79999
 21
379.5
  0
LINE
  8
0
 10
-1.79999
 20
379.5
 11
-1.7858
 21
379.726
  0
LINE
  8
0
 10
-1.7858
 20
379.726
 11
-1.74344
 21
379.948
  0
LINE
  8
0
 10
-1.74344
 20
379.948
 11
-1.67358
 21
380.163
  0
LINE
  8
0
 10
-1.67358
 20
380.163
 11
-1.57735
 21
380.367
  0
LINE
  8
0
 10
-1.57735
 20
380.367
 11
-1.45622
 21
380.558
  0
LINE
  8
0
 10
-1.45622
 20
380.558
 11
-1.31213
 21
380.732
  0
LINE
  8
0
 10
-1.31213
 20
380.732
 11
-1.14735
 21
380.887
  0
LINE
  8
0
 10
-1.14735
 20
380.887
 11
-0.964478
 21
381.02
  0
LINE
  8
0
 10
-0.964478
 20
381.02
 11
-0.766388
 21
381.129
  0
LINE
  8
0
 10
-0.766388
 20
381.129
 11
-0.556229
 21
381.212
  0
LINE
  8
0
 10
-0.556229
 20
381.212
 11
-0.33728
 21
381.268
  0
LINE
  8
0
 10
-0.33728
 20
381.268
 11
-0.113022
 21
381.296
  0
LINE
  8
0
 10
-0.113022
 20
381.296
 11
0.113022
 21
381.296
  0
LINE
  8
0
 10
0.113022
 20
381.296
 11
0.33728
 21
381.268
  0
LINE
  8
0
 10
0.33728
 20
381.268
 11
0.556229
 21
381.212
  0
LINE
  8
0
 10
0.556229
 20
381.212
 11
0.766388
 21
381.129
  0
LINE
  8
0
 10
0.766388
 20
381.129
 11
0.964478
 21
381.02
  0
LINE
  8
0
 10
0.964478
 20
381.02
 11
1.14735
 21
380.887
  0
LINE
  8
0
 10
1.14735
 20
380.887
 11
1.31213
 21
380.732
  0
LINE
  8
0
 10
1.31213
 20
380.732
 11
1.45622
 21
380.558
  0
LINE
  8
0
 10
1.45622
 20
380.558
 11
1.57735
 21
380.367
  0
LINE
  8
0
 10
1.57735
 20
380.367
 11
1.67358
 21
380.163
  0
LINE
  8
0
 10
1.67358
 20
380.163
 11
1.74344
 21
379.948
  0
LINE
  8
0
 10
1.74344
 20
379.948
 11
1.7858
 21
379.726
  0
LINE
  8
0
 10
1.7858
 20
379.726
 11
1.79999
 21
379.5
  0
LINE
  8
0
 10
1.79999
 20
379.5
 11
1.7858
 21
379.274
  0
LINE
  8
0
 10
1.7858
 20
379.274
 11
1.74344
 21
379.052
  0
LINE
  8
0
 10
1.74344
 20
379.052
 11
1.67358
 21
378.837
  0
LINE
  8
0
 10
1.67358
 20
378.837
 11
1.57735
 21
378.633
  0
LINE
  8
0
 10
1.57735
 20
378.633
 11
1.45622
 21
378.442
  0
LINE
  8
0
 10
1.45622
 20
378.442
 11
1.31213
 21
378.268
  0
LINE
  8
0
 10
1.31213
 20
378.268
 11
1.14735
 21
378.113
  0
LINE
  8
0
 10
1.14735
 20
378.113
 11
0.964478
 21
377.98
  0
LINE
  8
0
 10
0.964478
 20
377.98
 11
0.766388
 21
377.871
  0
LINE
  8
0
 10
0.766388
 20
377.871
 11
0.556229
 21
377.788
  0
LINE
  8
0
 10
0.556229
 20
377.788
 11
0.33728
 21
377.732
  0
LINE
  8
0
 10
0.33728
 20
377.732
 11
0.113022
 21
377.704
  0
LINE
  8
0
 10
0.113022
 20
377.704
 11
-0.113022
 21
377.704
  0
LINE
  8
0
 10
-7.59418
 20
378.003
 11
-7.78107
 21
378.027
  0
LINE
  8
0
 10
-7.78107
 20
378.027
 11
-7.96352
 21
378.073
  0
LINE
  8
0
 10
-7.96352
 20
378.073
 11
-8.13866
 21
378.143
  0
LINE
  8
0
 10
-8.13866
 20
378.143
 11
-8.30373
 21
378.234
  0
LINE
  8
0
 10
-8.30373
 20
378.234
 11
-8.45613
 21
378.344
  0
LINE
  8
0
 10
-8.45613
 20
378.344
 11
-8.59344
 21
378.473
  0
LINE
  8
0
 10
-8.59344
 20
378.473
 11
-8.71352
 21
378.618
  0
LINE
  8
0
 10
-8.71352
 20
378.618
 11
-8.81445
 21
378.777
  0
LINE
  8
0
 10
-8.81445
 20
378.777
 11
-8.89465
 21
378.948
  0
LINE
  8
0
 10
-8.89465
 20
378.948
 11
-8.95287
 21
379.127
  0
LINE
  8
0
 10
-8.95287
 20
379.127
 11
-8.98816
 21
379.312
  0
LINE
  8
0
 10
-8.98816
 20
379.312
 11
-9
 21
379.5
  0
LINE
  8
0
 10
-9
 20
379.5
 11
-8.98816
 21
379.688
  0
LINE
  8
0
 10
-8.98816
 20
379.688
 11
-8.95287
 21
379.873
  0
LINE
  8
0
 10
-8.95287
 20
379.873
 11
-8.89465
 21
380.052
  0
LINE
  8
0
 10
-8.89465
 20
380.052
 11
-8.81445
 21
380.223
  0
LINE
  8
0
 10
-8.81445
 20
380.223
 11
-8.71352
 21
380.382
  0
LINE
  8
0
 10
-8.71352
 20
380.382
 11
-8.59344
 21
380.527
  0
LINE
  8
0
 10
-8.59344
 20
380.527
 11
-8.45613
 21
380.656
  0
LINE
  8
0
 10
-8.45613
 20
380.656
 11
-8.30373
 21
380.766
  0
LINE
  8
0
 10
-8.30373
 20
380.766
 11
-8.13866
 21
380.857
  0
LINE
  8
0
 10
-8.13866
 20
380.857
 11
-7.96352
 21
380.927
  0
LINE
  8
0
 10
-7.96352
 20
380.927
 11
-7.78107
 21
380.973
  0
LINE
  8
0
 10
-7.78107
 20
380.973
 11
-7.59418
 21
380.997
  0
LINE
  8
0
 10
-7.59418
 20
380.997
 11
-7.40581
 21
380.997
  0
LINE
  8
0
 10
-7.40581
 20
380.997
 11
-7.21892
 21
380.973
  0
LINE
  8
0
 10
-7.21892
 20
380.973
 11
-7.03647
 21
380.927
  0
LINE
  8
0
 10
-7.03647
 20
380.927
 11
-6.86133
 21
380.857
  0
LINE
  8
0
 10
-6.86133
 20
380.857
 11
-6.69626
 21
380.766
  0
LINE
  8
0
 10
-6.69626
 20
380.766
 11
-6.54385
 21
380.656
  0
LINE
  8
0
 10
-6.54385
 20
380.656
 11
-6.40654
 21
380.527
  0
LINE
  8
0
 10
-6.40654
 20
380.527
 11
-6.28647
 21
380.382
  0
LINE
  8
0
 10
-6.28647
 20
380.382
 11
-6.18553
 21
380.223
  0
LINE
  8
0
 10
-6.18553
 20
380.223
 11
-6.10533
 21
380.052
  0
LINE
  8
0
 10
-6.10533
 20
380.052
 11
-6.04712
 21
379.873
  0
LINE
  8
0
 10
-6.04712
 20
379.873
 11
-6.01183
 21
379.688
  0
LINE
  8
0
 10
-6.01183
 20
379.688
 11
-6
 21
379.5
  0
LINE
  8
0
 10
-6
 20
379.5
 11
-6.01183
 21
379.312
  0
LINE
  8
0
 10
-6.01183
 20
379.312
 11
-6.04712
 21
379.127
  0
LINE
  8
0
 10
-6.04712
 20
379.127
 11
-6.10533
 21
378.948
  0
LINE
  8
0
 10
-6.10533
 20
378.948
 11
-6.18553
 21
378.777
  0
LINE
  8
0
 10
-6.18553
 20
378.777
 11
-6.28647
 21
378.618
  0
LINE
  8
0
 10
-6.28647
 20
378.618
 11
-6.40654
 21
378.473
  0
LINE
  8
0
 10
-6.40654
 20
378.473
 11
-6.54385
 21
378.344
  0
LINE
  8
0
 10
-6.54385
 20
378.344
 11
-6.69626
 21
378.234
  0
LINE
  8
0
 10
-6.69626
 20
378.234
 11
-6.86133
 21
378.143
  0
LINE
  8
0
 10
-6.86133
 20
378.143
 11
-7.03647
 21
378.073
  0
LINE
  8
0
 10
-7.03647
 20
378.073
 11
-7.21892
 21
378.027
  0
LINE
  8
0
 10
-7.21892
 20
378.027
 11
-7.40581
 21
378.003
  0
LINE
  8
0
 10
-7.40581
 20
378.003
 11
-7.59418
 21
378.003
  0
LINE
  8
0
 10
7.40581
 20
378.003
 11
7.21892
 21
378.027
  0
LINE
  8
0
 10
7.21892
 20
378.027
 11
7.03647
 21
378.073
  0
LINE
  8
0
 10
7.03647
 20
378.073
 11
6.86133
 21
378.143
  0
LINE
  8
0
 10
6.86133
 20
378.143
 11
6.69626
 21
378.234
  0
LINE
  8
0
 10
6.69626
 20
378.234
 11
6.54385
 21
378.344
  0
LINE
  8
0
 10
6.54385
 20
378.344
 11
6.40654
 21
378.473
  0
LINE
  8
0
 10
6.40654
 20
378.473
 11
6.28647
 21
378.618
  0
LINE
  8
0
 10
6.28647
 20
378.618
 11
6.18553
 21
378.777
  0
LINE
  8
0
 10
6.18553
 20
378.777
 11
6.10533
 21
378.948
  0
LINE
  8
0
 10
6.10533
 20
378.948
 11
6.04712
 21
379.127
  0
LINE
  8
0
 10
6.04712
 20
379.127
 11
6.01183
 21
379.312
  0
LINE
  8
0
 10
6.01183
 20
379.312
 11
6
 21
379.5
  0
LINE
  8
0
 10
6
 20
379.5
 11
6.01183
 21
379.688
  0
LINE
  8
0
 10
6.01183
 20
379.688
 11
6.04712
 21
379.873
  0
LINE
  8
0
 10
6.04712
 20
379.873
 11
6.10533
 21
380.052
  0
LINE
  8
0
 10
6.10533
 20
380.052
 11
6.18553
 21
380.223
  0
LINE
  8
0
 10
6.18553
 20
380.223
 11
6.28647
 21
380.382
  0
LINE
  8
0
 10
6.28647
 20
380.382
 11
6.40654
 21
380.527
  0
LINE
  8
0
 10
6.40654
 20
380.527
 11
6.54385
 21
380.656
  0
LINE
  8
0
 10
6.54385
 20
380.656
 11
6.69626
 21
380.766
  0
LINE
  8
0
 10
6.69626
 20
380.766
 11
6.86133
 21
380.857
  0
LINE
  8
0
 10
6.86133
 20
380.857
 11
7.03647
 21
380.927
  0
LINE
  8
0
 10
7.03647
 20
380.927
 11
7.21892
 21
380.973
  0
LINE
  8
0
 10
7.21892
 20
380.973
 11
7.40581
 21
380.997
  0
LINE
  8
0
 10
7.40581
 20
380.997
 11
7.59418
 21
380.997
  0
LINE
  8
0
 10
7.59418
 20
380.997
 11
7.78107
 21
380.973
  0
LINE
  8
0
 10
7.78107
 20
380.973
 11
7.96352
 21
380.927
  0
LINE
  8
0
 10
7.96352
 20
380.927
 11
8.13866
 21
380.857
  0
LINE
  8
0
 10
8.13866
 20
380.857
 11
8.30373
 21
380.766
  0
LINE
  8
0
 10
8.30373
 20
380.766
 11
8.45613
 21
380.656
  0
LINE
  8
0
 10
8.45613
 20
380.656
 11
8.59344
 21
380.527
  0
LINE
  8
0
 10
8.59344
 20
380.527
 11
8.71352
 21
380.382
  0
LINE
  8
0
 10
8.71352
 20
380.382
 11
8.81445
 21
380.223
  0
LINE
  8
0
 10
8.81445
 20
380.223
 11
8.89465
 21
380.052
  0
LINE
  8
0
 10
8.89465
 20
380.052
 11
8.95287
 21
379.873
  0
LINE
  8
0
 10
8.95287
 20
379.873
 11
8.98816
 21
379.688
  0
LINE
  8
0
 10
8.98816
 20
379.688
 11
9
 21
379.5
  0
LINE
  8
0
 10
9
 20
379.5
 11
8.98816
 21
379.312
  0
LINE
  8
0
 10
8.98816
 20
379.312
 11
8.95287
 21
379.127
  0
LINE
  8
0
 10
8.95287
 20
379.127
 11
8.89465
 21
378.948
  0
LINE
  8
0
 10
8.89465
 20
378.948
 11
8.81445
 21
378.777
  0
LINE
  8
0
 10
8.81445
 20
378.777
 11
8.71352
 21
378.618
  0
LINE
  8
0
 10
8.71352
 20
378.618
 11
8.59344
 21
378.473
  0
LINE
  8
0
 10
8.59344
 20
378.473
 11
8.45613
 21
378.344
  0
LINE
  8
0
 10
8.45613
 20
378.344
 11
8.30373
 21
378.234
  0
LINE
  8
0
 10
8.30373
 20
378.234
 11
8.13866
 21
378.143
  0
LINE
  8
0
 10
8.13866
 20
378.143
 11
7.96352
 21
378.073
  0
LINE
  8
0
 10
7.96352
 20
378.073
 11
7.78107
 21
378.027
  0
LINE
  8
0
 10
7.78107
 20
378.027
 11
7.59418
 21
378.003
  0
LINE
  8
0
 10
7.59418
 20
378.003
 11
7.40581
 21
378.003
  0
LINE
  8
0
 10
64.5
 20
389
 11
64.4606
 21
389.627
  0
LINE
  8
0
 10
64.4606
 20
389.627
 11
64.3429
 21
390.243
  0
LINE
  8
0
 10
64.3429
 20
390.243
 11
64.1489
 21
390.841
  0
LINE
  8
0
 10
64.1489
 20
390.841
 11
63.8815
 21
391.409
  0
LINE
  8
0
 10
63.8815
 20
391.409
 11
63.5451
 21
391.939
  0
LINE
  8
0
 10
63.5451
 20
391.939
 11
63.1448
 21
392.423
  0
LINE
  8
0
 10
63.1448
 20
392.423
 11
62.6871
 21
392.853
  0
LINE
  8
0
 10
62.6871
 20
392.853
 11
62.1791
 21
393.222
  0
LINE
  8
0
 10
62.1791
 20
393.222
 11
61.6289
 21
393.524
  0
LINE
  8
0
 10
61.6289
 20
393.524
 11
61.0451
 21
393.755
  0
LINE
  8
0
 10
61.0451
 20
393.755
 11
60.4369
 21
393.911
  0
LINE
  8
0
 10
60.4369
 20
393.911
 11
59.8139
 21
393.99
  0
LINE
  8
0
 10
59.8139
 20
393.99
 11
40.186
 21
393.99
  0
LINE
  8
0
 10
40.186
 20
393.99
 11
39.5631
 21
393.911
  0
LINE
  8
0
 10
39.5631
 20
393.911
 11
38.9549
 21
393.755
  0
LINE
  8
0
 10
38.9549
 20
393.755
 11
38.3711
 21
393.524
  0
LINE
  8
0
 10
38.3711
 20
393.524
 11
37.8209
 21
393.222
  0
LINE
  8
0
 10
37.8209
 20
393.222
 11
37.3129
 21
392.853
  0
LINE
  8
0
 10
37.3129
 20
392.853
 11
36.8551
 21
392.423
  0
LINE
  8
0
 10
36.8551
 20
392.423
 11
36.4549
 21
391.939
  0
LINE
  8
0
 10
36.4549
 20
391.939
 11
36.1185
 21
391.409
  0
LINE
  8
0
 10
36.1185
 20
391.409
 11
35.8511
 21
390.841
  0
LINE
  8
0
 10
35.8511
 20
390.841
 11
35.6571
 21
390.243
  0
LINE
  8
0
 10
35.6571
 20
390.243
 11
35.5394
 21
389.627
  0
LINE
  8
0
 10
35.5394
 20
389.627
 11
35.5
 21
389
  0
LINE
  8
0
 10
35.5
 20
389
 11
35.5
 21
370.7
  0
LINE
  8
0
 10
35.5
 20
370.7
 11
64.5
 21
370.7
  0
LINE
  8
0
 10
64.5
 20
370.7
 11
64.5
 21
389
  0
LINE
  8
0
 10
42.3116
 20
384.006
 11
41.9379
 21
384.053
  0
LINE
  8
0
 10
41.9379
 20
384.053
 11
41.5729
 21
384.147
  0
LINE
  8
0
 10
41.5729
 20
384.147
 11
41.2227
 21
384.286
  0
LINE
  8
0
 10
41.2227
 20
384.286
 11
40.8925
 21
384.467
  0
LINE
  8
0
 10
40.8925
 20
384.467
 11
40.5877
 21
384.688
  0
LINE
  8
0
 10
40.5877
 20
384.688
 11
40.3131
 21
384.946
  0
LINE
  8
0
 10
40.3131
 20
384.946
 11
40.0729
 21
385.237
  0
LINE
  8
0
 10
40.0729
 20
385.237
 11
39.8711
 21
385.555
  0
LINE
  8
0
 10
39.8711
 20
385.555
 11
39.7107
 21
385.896
  0
LINE
  8
0
 10
39.7107
 20
385.896
 11
39.5942
 21
386.254
  0
LINE
  8
0
 10
39.5942
 20
386.254
 11
39.5237
 21
386.624
  0
LINE
  8
0
 10
39.5237
 20
386.624
 11
39.5
 21
387
  0
LINE
  8
0
 10
39.5
 20
387
 11
39.5237
 21
387.376
  0
LINE
  8
0
 10
39.5237
 20
387.376
 11
39.5942
 21
387.746
  0
LINE
  8
0
 10
39.5942
 20
387.746
 11
39.7107
 21
388.104
  0
LINE
  8
0
 10
39.7107
 20
388.104
 11
39.8711
 21
388.445
  0
LINE
  8
0
 10
39.8711
 20
388.445
 11
40.0729
 21
388.763
  0
LINE
  8
0
 10
40.0729
 20
388.763
 11
40.3131
 21
389.054
  0
LINE
  8
0
 10
40.3131
 20
389.054
 11
40.5877
 21
389.312
  0
LINE
  8
0
 10
40.5877
 20
389.312
 11
40.8925
 21
389.533
  0
LINE
  8
0
 10
40.8925
 20
389.533
 11
41.2227
 21
389.714
  0
LINE
  8
0
 10
41.2227
 20
389.714
 11
41.5729
 21
389.853
  0
LINE
  8
0
 10
41.5729
 20
389.853
 11
41.9379
 21
389.947
  0
LINE
  8
0
 10
41.9379
 20
389.947
 11
42.3116
 21
389.994
  0
LINE
  8
0
 10
42.3116
 20
389.994
 11
42.6884
 21
389.994
  0
LINE
  8
0
 10
42.6884
 20
389.994
 11
43.0621
 21
389.947
  0
LINE
  8
0
 10
43.0621
 20
389.947
 11
43.427
 21
389.853
  0
LINE
  8
0
 10
43.427
 20
389.853
 11
43.7773
 21
389.714
  0
LINE
  8
0
 10
43.7773
 20
389.714
 11
44.1075
 21
389.533
  0
LINE
  8
0
 10
44.1075
 20
389.533
 11
44.4123
 21
389.312
  0
LINE
  8
0
 10
44.4123
 20
389.312
 11
44.6869
 21
389.054
  0
LINE
  8
0
 10
44.6869
 20
389.054
 11
44.927
 21
388.763
  0
LINE
  8
0
 10
44.927
 20
388.763
 11
45.1289
 21
388.445
  0
LINE
  8
0
 10
45.1289
 20
388.445
 11
45.2893
 21
388.104
  0
LINE
  8
0
 10
45.2893
 20
388.104
 11
45.4057
 21
387.746
  0
LINE
  8
0
 10
45.4057
 20
387.746
 11
45.4763
 21
387.376
  0
LINE
  8
0
 10
45.4763
 20
387.376
 11
45.5
 21
387
  0
LINE
  8
0
 10
45.5
 20
387
 11
45.4763
 21
386.624
  0
LINE
  8
0
 10
45.4763
 20
386.624
 11
45.4057
 21
386.254
  0
LINE
  8
0
 10
45.4057
 20
386.254
 11
45.2893
 21
385.896
  0
LINE
  8
0
 10
45.2893
 20
385.896
 11
45.1289
 21
385.555
  0
LINE
  8
0
 10
45.1289
 20
385.555
 11
44.927
 21
385.237
  0
LINE
  8
0
 10
44.927
 20
385.237
 11
44.6869
 21
384.946
  0
LINE
  8
0
 10
44.6869
 20
384.946
 11
44.4123
 21
384.688
  0
LINE
  8
0
 10
44.4123
 20
384.688
 11
44.1075
 21
384.467
  0
LINE
  8
0
 10
44.1075
 20
384.467
 11
43.7773
 21
384.286
  0
LINE
  8
0
 10
43.7773
 20
384.286
 11
43.427
 21
384.147
  0
LINE
  8
0
 10
43.427
 20
384.147
 11
43.0621
 21
384.053
  0
LINE
  8
0
 10
43.0621
 20
384.053
 11
42.6884
 21
384.006
  0
LINE
  8
0
 10
42.6884
 20
384.006
 11
42.3116
 21
384.006
  0
LINE
  8
0
 10
57.3116
 20
384.006
 11
56.9379
 21
384.053
  0
LINE
  8
0
 10
56.9379
 20
384.053
 11
56.5729
 21
384.147
  0
LINE
  8
0
 10
56.5729
 20
384.147
 11
56.2227
 21
384.286
  0
LINE
  8
0
 10
56.2227
 20
384.286
 11
55.8925
 21
384.467
  0
LINE
  8
0
 10
55.8925
 20
384.467
 11
55.5877
 21
384.688
  0
LINE
  8
0
 10
55.5877
 20
384.688
 11
55.3131
 21
384.946
  0
LINE
  8
0
 10
55.3131
 20
384.946
 11
55.0729
 21
385.237
  0
LINE
  8
0
 10
55.0729
 20
385.237
 11
54.8711
 21
385.555
  0
LINE
  8
0
 10
54.8711
 20
385.555
 11
54.7107
 21
385.896
  0
LINE
  8
0
 10
54.7107
 20
385.896
 11
54.5942
 21
386.254
  0
LINE
  8
0
 10
54.5942
 20
386.254
 11
54.5237
 21
386.624
  0
LINE
  8
0
 10
54.5237
 20
386.624
 11
54.5
 21
387
  0
LINE
  8
0
 10
54.5
 20
387
 11
54.5237
 21
387.376
  0
LINE
  8
0
 10
54.5237
 20
387.376
 11
54.5942
 21
387.746
  0
LINE
  8
0
 10
54.5942
 20
387.746
 11
54.7107
 21
388.104
  0
LINE
  8
0
 10
54.7107
 20
388.104
 11
54.8711
 21
388.445
  0
LINE
  8
0
 10
54.8711
 20
388.445
 11
55.0729
 21
388.763
  0
LINE
  8
0
 10
55.0729
 20
388.763
 11
55.3131
 21
389.054
  0
LINE
  8
0
 10
55.3131
 20
389.054
 11
55.5877
 21
389.312
  0
LINE
  8
0
 10
55.5877
 20
389.312
 11
55.8925
 21
389.533
  0
LINE
  8
0
 10
55.8925
 20
389.533
 11
56.2227
 21
389.714
  0
LINE
  8
0
 10
56.2227
 20
389.714
 11
56.5729
 21
389.853
  0
LINE
  8
0
 10
56.5729
 20
389.853
 11
56.9379
 21
389.947
  0
LINE
  8
0
 10
56.9379
 20
389.947
 11
57.3116
 21
389.994
  0
LINE
  8
0
 10
57.3116
 20
389.994
 11
57.6884
 21
389.994
  0
LINE
  8
0
 10
57.6884
 20
389.994
 11
58.0621
 21
389.947
  0
LINE
  8
0
 10
58.0621
 20
389.947
 11
58.427
 21
389.853
  0
LINE
  8
0
 10
58.427
 20
389.853
 11
58.7773
 21
389.714
  0
LINE
  8
0
 10
58.7773
 20
389.714
 11
59.1075
 21
389.533
  0
LINE
  8
0
 10
59.1075
 20
389.533
 11
59.4123
 21
389.312
  0
LINE
  8
0
 10
59.4123
 20
389.312
 11
59.6869
 21
389.054
  0
LINE
  8
0
 10
59.6869
 20
389.054
 11
59.927
 21
388.763
  0
LINE
  8
0
 10
59.927
 20
388.763
 11
60.1289
 21
388.445
  0
LINE
  8
0
 10
60.1289
 20
388.445
 11
60.2893
 21
388.104
  0
LINE
  8
0
 10
60.2893
 20
388.104
 11
60.4057
 21
387.746
  0
LINE
  8
0
 10
60.4057
 20
387.746
 11
60.4763
 21
387.376
  0
LINE
  8
0
 10
60.4763
 20
387.376
 11
60.5
 21
387
  0
LINE
  8
0
 10
60.5
 20
387
 11
60.4763
 21
386.624
  0
LINE
  8
0
 10
60.4763
 20
386.624
 11
60.4057
 21
386.254
  0
LINE
  8
0
 10
60.4057
 20
386.254
 11
60.2893
 21
385.896
  0
LINE
  8
0
 10
60.2893
 20
385.896
 11
60.1289
 21
385.555
  0
LINE
  8
0
 10
60.1289
 20
385.555
 11
59.927
 21
385.237
  0
LINE
  8
0
 10
59.927
 20
385.237
 11
59.6869
 21
384.946
  0
LINE
  8
0
 10
59.6869
 20
384.946
 11
59.4123
 21
384.688
  0
LINE
  8
0
 10
59.4123
 20
384.688
 11
59.1075
 21
384.467
  0
LINE
  8
0
 10
59.1075
 20
384.467
 11
58.7773
 21
384.286
  0
LINE
  8
0
 10
58.7773
 20
384.286
 11
58.427
 21
384.147
  0
LINE
  8
0
 10
58.427
 20
384.147
 11
58.0621
 21
384.053
  0
LINE
  8
0
 10
58.0621
 20
384.053
 11
57.6884
 21
384.006
  0
LINE
  8
0
 10
57.6884
 20
384.006
 11
57.3116
 21
384.006
  0
LINE
  8
0
 10
49.9058
 20
385.503
 11
49.7189
 21
385.527
  0
LINE
  8
0
 10
49.7189
 20
385.527
 11
49.5365
 21
385.573
  0
LINE
  8
0
 10
49.5365
 20
385.573
 11
49.3613
 21
385.643
  0
LINE
  8
0
 10
49.3613
 20
385.643
 11
49.1963
 21
385.734
  0
LINE
  8
0
 10
49.1963
 20
385.734
 11
49.0439
 21
385.844
  0
LINE
  8
0
 10
49.0439
 20
385.844
 11
48.9065
 21
385.973
  0
LINE
  8
0
 10
48.9065
 20
385.973
 11
48.7865
 21
386.118
  0
LINE
  8
0
 10
48.7865
 20
386.118
 11
48.6855
 21
386.277
  0
LINE
  8
0
 10
48.6855
 20
386.277
 11
48.6053
 21
386.448
  0
LINE
  8
0
 10
48.6053
 20
386.448
 11
48.5471
 21
386.627
  0
LINE
  8
0
 10
48.5471
 20
386.627
 11
48.5118
 21
386.812
  0
LINE
  8
0
 10
48.5118
 20
386.812
 11
48.5
 21
387
  0
LINE
  8
0
 10
48.5
 20
387
 11
48.5118
 21
387.188
  0
LINE
  8
0
 10
48.5118
 20
387.188
 11
48.5471
 21
387.373
  0
LINE
  8
0
 10
48.5471
 20
387.373
 11
48.6053
 21
387.552
  0
LINE
  8
0
 10
48.6053
 20
387.552
 11
48.6855
 21
387.723
  0
LINE
  8
0
 10
48.6855
 20
387.723
 11
48.7865
 21
387.882
  0
LINE
  8
0
 10
48.7865
 20
387.882
 11
48.9065
 21
388.027
  0
LINE
  8
0
 10
48.9065
 20
388.027
 11
49.0439
 21
388.156
  0
LINE
  8
0
 10
49.0439
 20
388.156
 11
49.1963
 21
388.266
  0
LINE
  8
0
 10
49.1963
 20
388.266
 11
49.3613
 21
388.357
  0
LINE
  8
0
 10
49.3613
 20
388.357
 11
49.5365
 21
388.427
  0
LINE
  8
0
 10
49.5365
 20
388.427
 11
49.7189
 21
388.473
  0
LINE
  8
0
 10
49.7189
 20
388.473
 11
49.9058
 21
388.497
  0
LINE
  8
0
 10
49.9058
 20
388.497
 11
50.0942
 21
388.497
  0
LINE
  8
0
 10
50.0942
 20
388.497
 11
50.2811
 21
388.473
  0
LINE
  8
0
 10
50.2811
 20
388.473
 11
50.4635
 21
388.427
  0
LINE
  8
0
 10
50.4635
 20
388.427
 11
50.6387
 21
388.357
  0
LINE
  8
0
 10
50.6387
 20
388.357
 11
50.8037
 21
388.266
  0
LINE
  8
0
 10
50.8037
 20
388.266
 11
50.9561
 21
388.156
  0
LINE
  8
0
 10
50.9561
 20
388.156
 11
51.0934
 21
388.027
  0
LINE
  8
0
 10
51.0934
 20
388.027
 11
51.2135
 21
387.882
  0
LINE
  8
0
 10
51.2135
 20
387.882
 11
51.3145
 21
387.723
  0
LINE
  8
0
 10
51.3145
 20
387.723
 11
51.3947
 21
387.552
  0
LINE
  8
0
 10
51.3947
 20
387.552
 11
51.4529
 21
387.373
  0
LINE
  8
0
 10
51.4529
 20
387.373
 11
51.4882
 21
387.188
  0
LINE
  8
0
 10
51.4882
 20
387.188
 11
51.5
 21
387
  0
LINE
  8
0
 10
51.5
 20
387
 11
51.4882
 21
386.812
  0
LINE
  8
0
 10
51.4882
 20
386.812
 11
51.4529
 21
386.627
  0
LINE
  8
0
 10
51.4529
 20
386.627
 11
51.3947
 21
386.448
  0
LINE
  8
0
 10
51.3947
 20
386.448
 11
51.3145
 21
386.277
  0
LINE
  8
0
 10
51.3145
 20
386.277
 11
51.2135
 21
386.118
  0
LINE
  8
0
 10
51.2135
 20
386.118
 11
51.0934
 21
385.973
  0
LINE
  8
0
 10
51.0934
 20
385.973
 11
50.9561
 21
385.844
  0
LINE
  8
0
 10
50.9561
 20
385.844
 11
50.8037
 21
385.734
  0
LINE
  8
0
 10
50.8037
 20
385.734
 11
50.6387
 21
385.643
  0
LINE
  8
0
 10
50.6387
 20
385.643
 11
50.4635
 21
385.573
  0
LINE
  8
0
 10
50.4635
 20
385.573
 11
50.2811
 21
385.527
  0
LINE
  8
0
 10
50.2811
 20
385.527
 11
50.0942
 21
385.503
  0
LINE
  8
0
 10
50.0942
 20
385.503
 11
49.9058
 21
385.503
  0
LINE
  8
0
 10
49.887
 20
377.704
 11
49.6627
 21
377.732
  0
LINE
  8
0
 10
49.6627
 20
377.732
 11
49.4438
 21
377.788
  0
LINE
  8
0
 10
49.4438
 20
377.788
 11
49.2336
 21
377.871
  0
LINE
  8
0
 10
49.2336
 20
377.871
 11
49.0355
 21
377.98
  0
LINE
  8
0
 10
49.0355
 20
377.98
 11
48.8526
 21
378.113
  0
LINE
  8
0
 10
48.8526
 20
378.113
 11
48.6879
 21
378.268
  0
LINE
  8
0
 10
48.6879
 20
378.268
 11
48.5438
 21
378.442
  0
LINE
  8
0
 10
48.5438
 20
378.442
 11
48.4226
 21
378.633
  0
LINE
  8
0
 10
48.4226
 20
378.633
 11
48.3264
 21
378.837
  0
LINE
  8
0
 10
48.3264
 20
378.837
 11
48.2565
 21
379.052
  0
LINE
  8
0
 10
48.2565
 20
379.052
 11
48.2142
 21
379.274
  0
LINE
  8
0
 10
48.2142
 20
379.274
 11
48.2
 21
379.5
  0
LINE
  8
0
 10
48.2
 20
379.5
 11
48.2142
 21
379.726
  0
LINE
  8
0
 10
48.2142
 20
379.726
 11
48.2565
 21
379.948
  0
LINE
  8
0
 10
48.2565
 20
379.948
 11
48.3264
 21
380.163
  0
LINE
  8
0
 10
48.3264
 20
380.163
 11
48.4226
 21
380.367
  0
LINE
  8
0
 10
48.4226
 20
380.367
 11
48.5438
 21
380.558
  0
LINE
  8
0
 10
48.5438
 20
380.558
 11
48.6879
 21
380.732
  0
LINE
  8
0
 10
48.6879
 20
380.732
 11
48.8526
 21
380.887
  0
LINE
  8
0
 10
48.8526
 20
380.887
 11
49.0355
 21
381.02
  0
LINE
  8
0
 10
49.0355
 20
381.02
 11
49.2336
 21
381.129
  0
LINE
  8
0
 10
49.2336
 20
381.129
 11
49.4438
 21
381.212
  0
LINE
  8
0
 10
49.4438
 20
381.212
 11
49.6627
 21
381.268
  0
LINE
  8
0
 10
49.6627
 20
381.268
 11
49.887
 21
381.296
  0
LINE
  8
0
 10
49.887
 20
381.296
 11
50.113
 21
381.296
  0
LINE
  8
0
 10
50.113
 20
381.296
 11
50.3373
 21
381.268
  0
LINE
  8
0
 10
50.3373
 20
381.268
 11
50.5562
 21
381.212
  0
LINE
  8
0
 10
50.5562
 20
381.212
 11
50.7664
 21
381.129
  0
LINE
  8
0
 10
50.7664
 20
381.129
 11
50.9645
 21
381.02
  0
LINE
  8
0
 10
50.9645
 20
381.02
 11
51.1474
 21
380.887
  0
LINE
  8
0
 10
51.1474
 20
380.887
 11
51.3121
 21
380.732
  0
LINE
  8
0
 10
51.3121
 20
380.732
 11
51.4562
 21
380.558
  0
LINE
  8
0
 10
51.4562
 20
380.558
 11
51.5773
 21
380.367
  0
LINE
  8
0
 10
51.5773
 20
380.367
 11
51.6736
 21
380.163
  0
LINE
  8
0
 10
51.6736
 20
380.163
 11
51.7434
 21
379.948
  0
LINE
  8
0
 10
51.7434
 20
379.948
 11
51.7858
 21
379.726
  0
LINE
  8
0
 10
51.7858
 20
379.726
 11
51.8
 21
379.5
  0
LINE
  8
0
 10
51.8
 20
379.5
 11
51.7858
 21
379.274
  0
LINE
  8
0
 10
51.7858
 20
379.274
 11
51.7434
 21
379.052
  0
LINE
  8
0
 10
51.7434
 20
379.052
 11
51.6736
 21
378.837
  0
LINE
  8
0
 10
51.6736
 20
378.837
 11
51.5773
 21
378.633
  0
LINE
  8
0
 10
51.5773
 20
378.633
 11
51.4562
 21
378.442
  0
LINE
  8
0
 10
51.4562
 20
378.442
 11
51.3121
 21
378.268
  0
LINE
  8
0
 10
51.3121
 20
378.268
 11
51.1474
 21
378.113
  0
LINE
  8
0
 10
51.1474
 20
378.113
 11
50.9645
 21
377.98
  0
LINE
  8
0
 10
50.9645
 20
377.98
 11
50.7664
 21
377.871
  0
LINE
  8
0
 10
50.7664
 20
377.871
 11
50.5562
 21
377.788
  0
LINE
  8
0
 10
50.5562
 20
377.788
 11
50.3373
 21
377.732
  0
LINE
  8
0
 10
50.3373
 20
377.732
 11
50.113
 21
377.704
  0
LINE
  8
0
 10
50.113
 20
377.704
 11
49.887
 21
377.704
  0
LINE
  8
0
 10
42.4058
 20
378.003
 11
42.2189
 21
378.027
  0
LINE
  8
0
 10
42.2189
 20
378.027
 11
42.0365
 21
378.073
  0
LINE
  8
0
 10
42.0365
 20
378.073
 11
41.8613
 21
378.143
  0
LINE
  8
0
 10
41.8613
 20
378.143
 11
41.6963
 21
378.234
  0
LINE
  8
0
 10
41.6963
 20
378.234
 11
41.5439
 21
378.344
  0
LINE
  8
0
 10
41.5439
 20
378.344
 11
41.4065
 21
378.473
  0
LINE
  8
0
 10
41.4065
 20
378.473
 11
41.2865
 21
378.618
  0
LINE
  8
0
 10
41.2865
 20
378.618
 11
41.1855
 21
378.777
  0
LINE
  8
0
 10
41.1855
 20
378.777
 11
41.1053
 21
378.948
  0
LINE
  8
0
 10
41.1053
 20
378.948
 11
41.0471
 21
379.127
  0
LINE
  8
0
 10
41.0471
 20
379.127
 11
41.0118
 21
379.312
  0
LINE
  8
0
 10
41.0118
 20
379.312
 11
41
 21
379.5
  0
LINE
  8
0
 10
41
 20
379.5
 11
41.0118
 21
379.688
  0
LINE
  8
0
 10
41.0118
 20
379.688
 11
41.0471
 21
379.873
  0
LINE
  8
0
 10
41.0471
 20
379.873
 11
41.1053
 21
380.052
  0
LINE
  8
0
 10
41.1053
 20
380.052
 11
41.1855
 21
380.223
  0
LINE
  8
0
 10
41.1855
 20
380.223
 11
41.2865
 21
380.382
  0
LINE
  8
0
 10
41.2865
 20
380.382
 11
41.4065
 21
380.527
  0
LINE
  8
0
 10
41.4065
 20
380.527
 11
41.5439
 21
380.656
  0
LINE
  8
0
 10
41.5439
 20
380.656
 11
41.6963
 21
380.766
  0
LINE
  8
0
 10
41.6963
 20
380.766
 11
41.8613
 21
380.857
  0
LINE
  8
0
 10
41.8613
 20
380.857
 11
42.0365
 21
380.927
  0
LINE
  8
0
 10
42.0365
 20
380.927
 11
42.2189
 21
380.973
  0
LINE
  8
0
 10
42.2189
 20
380.973
 11
42.4058
 21
380.997
  0
LINE
  8
0
 10
42.4058
 20
380.997
 11
42.5942
 21
380.997
  0
LINE
  8
0
 10
42.5942
 20
380.997
 11
42.7811
 21
380.973
  0
LINE
  8
0
 10
42.7811
 20
380.973
 11
42.9635
 21
380.927
  0
LINE
  8
0
 10
42.9635
 20
380.927
 11
43.1387
 21
380.857
  0
LINE
  8
0
 10
43.1387
 20
380.857
 11
43.3037
 21
380.766
  0
LINE
  8
0
 10
43.3037
 20
380.766
 11
43.4561
 21
380.656
  0
LINE
  8
0
 10
43.4561
 20
380.656
 11
43.5934
 21
380.527
  0
LINE
  8
0
 10
43.5934
 20
380.527
 11
43.7135
 21
380.382
  0
LINE
  8
0
 10
43.7135
 20
380.382
 11
43.8145
 21
380.223
  0
LINE
  8
0
 10
43.8145
 20
380.223
 11
43.8947
 21
380.052
  0
LINE
  8
0
 10
43.8947
 20
380.052
 11
43.9529
 21
379.873
  0
LINE
  8
0
 10
43.9529
 20
379.873
 11
43.9882
 21
379.688
  0
LINE
  8
0
 10
43.9882
 20
379.688
 11
44
 21
379.5
  0
LINE
  8
0
 10
44
 20
379.5
 11
43.9882
 21
379.312
  0
LINE
  8
0
 10
43.9882
 20
379.312
 11
43.9529
 21
379.127
  0
LINE
  8
0
 10
43.9529
 20
379.127
 11
43.8947
 21
378.948
  0
LINE
  8
0
 10
43.8947
 20
378.948
 11
43.8145
 21
378.777
  0
LINE
  8
0
 10
43.8145
 20
378.777
 11
43.7135
 21
378.618
  0
LINE
  8
0
 10
43.7135
 20
378.618
 11
43.5934
 21
378.473
  0
LINE
  8
0
 10
43.5934
 20
378.473
 11
43.4561
 21
378.344
  0
LINE
  8
0
 10
43.4561
 20
378.344
 11
43.3037
 21
378.234
  0
LINE
  8
0
 10
43.3037
 20
378.234
 11
43.1387
 21
378.143
  0
LINE
  8
0
 10
43.1387
 20
378.143
 11
42.9635
 21
378.073
  0
LINE
  8
0
 10
42.9635
 20
378.073
 11
42.7811
 21
378.027
  0
LINE
  8
0
 10
42.7811
 20
378.027
 11
42.5942
 21
378.003
  0
LINE
  8
0
 10
42.5942
 20
378.003
 11
42.4058
 21
378.003
  0
LINE
  8
0
 10
57.4058
 20
378.003
 11
57.2189
 21
378.027
  0
LINE
  8
0
 10
57.2189
 20
378.027
 11
57.0365
 21
378.073
  0
LINE
  8
0
 10
57.0365
 20
378.073
 11
56.8613
 21
378.143
  0
LINE
  8
0
 10
56.8613
 20
378.143
 11
56.6963
 21
378.234
  0
LINE
  8
0
 10
56.6963
 20
378.234
 11
56.5439
 21
378.344
  0
LINE
  8
0
 10
56.5439
 20
378.344
 11
56.4065
 21
378.473
  0
LINE
  8
0
 10
56.4065
 20
378.473
 11
56.2865
 21
378.618
  0
LINE
  8
0
 10
56.2865
 20
378.618
 11
56.1855
 21
378.777
  0
LINE
  8
0
 10
56.1855
 20
378.777
 11
56.1053
 21
378.948
  0
LINE
  8
0
 10
56.1053
 20
378.948
 11
56.0471
 21
379.127
  0
LINE
  8
0
 10
56.0471
 20
379.127
 11
56.0118
 21
379.312
  0
LINE
  8
0
 10
56.0118
 20
379.312
 11
56
 21
379.5
  0
LINE
  8
0
 10
56
 20
379.5
 11
56.0118
 21
379.688
  0
LINE
  8
0
 10
56.0118
 20
379.688
 11
56.0471
 21
379.873
  0
LINE
  8
0
 10
56.0471
 20
379.873
 11
56.1053
 21
380.052
  0
LINE
  8
0
 10
56.1053
 20
380.052
 11
56.1855
 21
380.223
  0
LINE
  8
0
 10
56.1855
 20
380.223
 11
56.2865
 21
380.382
  0
LINE
  8
0
 10
56.2865
 20
380.382
 11
56.4065
 21
380.527
  0
LINE
  8
0
 10
56.4065
 20
380.527
 11
56.5439
 21
380.656
  0
LINE
  8
0
 10
56.5439
 20
380.656
 11
56.6963
 21
380.766
  0
LINE
  8
0
 10
56.6963
 20
380.766
 11
56.8613
 21
380.857
  0
LINE
  8
0
 10
56.8613
 20
380.857
 11
57.0365
 21
380.927
  0
LINE
  8
0
 10
57.0365
 20
380.927
 11
57.2189
 21
380.973
  0
LINE
  8
0
 10
57.2189
 20
380.973
 11
57.4058
 21
380.997
  0
LINE
  8
0
 10
57.4058
 20
380.997
 11
57.5942
 21
380.997
  0
LINE
  8
0
 10
57.5942
 20
380.997
 11
57.7811
 21
380.973
  0
LINE
  8
0
 10
57.7811
 20
380.973
 11
57.9635
 21
380.927
  0
LINE
  8
0
 10
57.9635
 20
380.927
 11
58.1387
 21
380.857
  0
LINE
  8
0
 10
58.1387
 20
380.857
 11
58.3037
 21
380.766
  0
LINE
  8
0
 10
58.3037
 20
380.766
 11
58.4561
 21
380.656
  0
LINE
  8
0
 10
58.4561
 20
380.656
 11
58.5934
 21
380.527
  0
LINE
  8
0
 10
58.5934
 20
380.527
 11
58.7135
 21
380.382
  0
LINE
  8
0
 10
58.7135
 20
380.382
 11
58.8145
 21
380.223
  0
LINE
  8
0
 10
58.8145
 20
380.223
 11
58.8947
 21
380.052
  0
LINE
  8
0
 10
58.8947
 20
380.052
 11
58.9529
 21
379.873
  0
LINE
  8
0
 10
58.9529
 20
379.873
 11
58.9882
 21
379.688
  0
LINE
  8
0
 10
58.9882
 20
379.688
 11
59
 21
379.5
  0
LINE
  8
0
 10
59
 20
379.5
 11
58.9882
 21
379.312
  0
LINE
  8
0
 10
58.9882
 20
379.312
 11
58.9529
 21
379.127
  0
LINE
  8
0
 10
58.9529
 20
379.127
 11
58.8947
 21
378.948
  0
LINE
  8
0
 10
58.8947
 20
378.948
 11
58.8145
 21
378.777
  0
LINE
  8
0
 10
58.8145
 20
378.777
 11
58.7135
 21
378.618
  0
LINE
  8
0
 10
58.7135
 20
378.618
 11
58.5934
 21
378.473
  0
LINE
  8
0
 10
58.5934
 20
378.473
 11
58.4561
 21
378.344
  0
LINE
  8
0
 10
58.4561
 20
378.344
 11
58.3037
 21
378.234
  0
LINE
  8
0
 10
58.3037
 20
378.234
 11
58.1387
 21
378.143
  0
LINE
  8
0
 10
58.1387
 20
378.143
 11
57.9635
 21
378.073
  0
LINE
  8
0
 10
57.9635
 20
378.073
 11
57.7811
 21
378.027
  0
LINE
  8
0
 10
57.7811
 20
378.027
 11
57.5942
 21
378.003
  0
LINE
  8
0
 10
57.5942
 20
378.003
 11
57.4058
 21
378.003
  0
LINE
  8
0
 10
64.5
 20
363.3
 11
35.5
 21
363.3
  0
LINE
  8
0
 10
35.5
 20
363.3
 11
35.5
 21
360.7
  0
LINE
  8
0
 10
35.5
 20
360.7
 11
64.5
 21
360.7
  0
LINE
  8
0
 10
64.5
 20
360.7
 11
64.5
 21
363.3
  0
LINE
  8
0
 10
14.5
 20
363.3
 11
-14.5
 21
363.3
  0
LINE
  8
0
 10
-14.5
 20
363.3
 11
-14.5
 21
360.7
  0
LINE
  8
0
 10
-14.5
 20
360.7
 11
14.5
 21
360.7
  0
LINE
  8
0
 10
14.5
 20
360.7
 11
14.5
 21
363.3
  0
LINE
  8
0
 10
14.5
 20
353.3
 11
-14.5
 21
353.3
  0
LINE
  8
0
 10
-14.5
 20
353.3
 11
-14.5
 21
350.7
  0
LINE
  8
0
 10
-14.5
 20
350.7
 11
14.5
 21
350.7
  0
LINE
  8
0
 10
14.5
 20
350.7
 11
14.5
 21
353.3
  0
LINE
  8
0
 10
64.5
 20
353.3
 11
35.5
 21
353.3
  0
LINE
  8
0
 10
35.5
 20
353.3
 11
35.5
 21
350.7
  0
LINE
  8
0
 10
35.5
 20
350.7
 11
64.5
 21
350.7
  0
LINE
  8
0
 10
64.5
 20
350.7
 11
64.5
 21
353.3
  0
LINE
  8
0
 10
64.5
 20
343.3
 11
35.5
 21
343.3
  0
LINE
  8
0
 10
35.5
 20
343.3
 11
35.5
 21
340.7
  0
LINE
  8
0
 10
35.5
 20
340.7
 11
64.5
 21
340.7
  0
LINE
  8
0
 10
64.5
 20
340.7
 11
64.5
 21
343.3
  0
LINE
  8
0
 10
14.5
 20
343.3
 11
-14.5
 21
343.3
  0
LINE
  8
0
 10
-14.5
 20
343.3
 11
-14.5
 21
340.7
  0
LINE
  8
0
 10
-14.5
 20
340.7
 11
14.5
 21
340.7
  0
LINE
  8
0
 10
14.5
 20
340.7
 11
14.5
 21
343.3
  0
LINE
  8
0
 10
64.5
 20
333.3
 11
35.5
 21
333.3
  0
LINE
  8
0
 10
35.5
 20
333.3
 11
35.5
 21
330.7
  0
LINE
  8
0
 10
35.5
 20
330.7
 11
64.5
 21
330.7
  0
LINE
  8
0
 10
64.5
 20
330.7
 11
64.5
 21
333.3
  0
LINE
  8
0
 10
14.5
 20
333.3
 11
-14.5
 21
333.3
  0
LINE
  8
0
 10
-14.5
 20
333.3
 11
-14.5
 21
330.7
  0
LINE
  8
0
 10
-14.5
 20
330.7
 11
14.5
 21
330.7
  0
LINE
  8
0
 10
14.5
 20
330.7
 11
14.5
 21
333.3
  0
LINE
  8
0
 10
14.5
 20
323.3
 11
-14.5
 21
323.3
  0
LINE
  8
0
 10
-14.5
 20
323.3
 11
-14.5
 21
320.7
  0
LINE
  8
0
 10
-14.5
 20
320.7
 11
14.5
 21
320.7
  0
LINE
  8
0
 10
14.5
 20
320.7
 11
14.5
 21
323.3
  0
LINE
  8
0
 10
64.5
 20
323.3
 11
35.5
 21
323.3
  0
LINE
  8
0
 10
35.5
 20
323.3
 11
35.5
 21
320.7
  0
LINE
  8
0
 10
35.5
 20
320.7
 11
64.5
 21
320.7
  0
LINE
  8
0
 10
64.5
 20
320.7
 11
64.5
 21
323.3
  0
LINE
  8
0
 10
60.4369
 20
290.089
 11
61.0451
 21
290.245
  0
LINE
  8
0
 10
61.0451
 20
290.245
 11
61.6289
 21
290.476
  0
LINE
  8
0
 10
61.6289
 20
290.476
 11
62.1791
 21
290.778
  0
LINE
  8
0
 10
62.1791
 20
290.778
 11
62.6871
 21
291.147
  0
LINE
  8
0
 10
62.6871
 20
291.147
 11
63.1448
 21
291.577
  0
LINE
  8
0
 10
63.1448
 20
291.577
 11
63.5451
 21
292.061
  0
LINE
  8
0
 10
63.5451
 20
292.061
 11
63.8815
 21
292.591
  0
LINE
  8
0
 10
63.8815
 20
292.591
 11
64.1489
 21
293.159
  0
LINE
  8
0
 10
64.1489
 20
293.159
 11
64.3429
 21
293.757
  0
LINE
  8
0
 10
64.3429
 20
293.757
 11
64.4606
 21
294.373
  0
LINE
  8
0
 10
64.4606
 20
294.373
 11
64.5
 21
295
  0
LINE
  8
0
 10
64.5
 20
295
 11
64.5
 21
313.3
  0
LINE
  8
0
 10
64.5
 20
313.3
 11
35.5
 21
313.3
  0
LINE
  8
0
 10
35.5
 20
313.3
 11
35.5
 21
295
  0
LINE
  8
0
 10
35.5
 20
295
 11
35.5394
 21
294.373
  0
LINE
  8
0
 10
35.5394
 20
294.373
 11
35.6571
 21
293.757
  0
LINE
  8
0
 10
35.6571
 20
293.757
 11
35.8511
 21
293.159
  0
LINE
  8
0
 10
35.8511
 20
293.159
 11
36.1185
 21
292.591
  0
LINE
  8
0
 10
36.1185
 20
292.591
 11
36.4549
 21
292.061
  0
LINE
  8
0
 10
36.4549
 20
292.061
 11
36.8551
 21
291.577
  0
LINE
  8
0
 10
36.8551
 20
291.577
 11
37.3129
 21
291.147
  0
LINE
  8
0
 10
37.3129
 20
291.147
 11
37.8209
 21
290.778
  0
LINE
  8
0
 10
37.8209
 20
290.778
 11
38.3711
 21
290.476
  0
LINE
  8
0
 10
38.3711
 20
290.476
 11
38.9549
 21
290.245
  0
LINE
  8
0
 10
38.9549
 20
290.245
 11
39.5631
 21
290.089
  0
LINE
  8
0
 10
39.5631
 20
290.089
 11
40.186
 21
290.01
  0
LINE
  8
0
 10
40.186
 20
290.01
 11
59.8139
 21
290.01
  0
LINE
  8
0
 10
59.8139
 20
290.01
 11
60.4369
 21
290.089
  0
LINE
  8
0
 10
49.887
 20
302.704
 11
49.6627
 21
302.732
  0
LINE
  8
0
 10
49.6627
 20
302.732
 11
49.4438
 21
302.788
  0
LINE
  8
0
 10
49.4438
 20
302.788
 11
49.2336
 21
302.871
  0
LINE
  8
0
 10
49.2336
 20
302.871
 11
49.0355
 21
302.98
  0
LINE
  8
0
 10
49.0355
 20
302.98
 11
48.8526
 21
303.113
  0
LINE
  8
0
 10
48.8526
 20
303.113
 11
48.6879
 21
303.268
  0
LINE
  8
0
 10
48.6879
 20
303.268
 11
48.5438
 21
303.442
  0
LINE
  8
0
 10
48.5438
 20
303.442
 11
48.4226
 21
303.633
  0
LINE
  8
0
 10
48.4226
 20
303.633
 11
48.3264
 21
303.837
  0
LINE
  8
0
 10
48.3264
 20
303.837
 11
48.2565
 21
304.052
  0
LINE
  8
0
 10
48.2565
 20
304.052
 11
48.2142
 21
304.274
  0
LINE
  8
0
 10
48.2142
 20
304.274
 11
48.2
 21
304.5
  0
LINE
  8
0
 10
48.2
 20
304.5
 11
48.2142
 21
304.726
  0
LINE
  8
0
 10
48.2142
 20
304.726
 11
48.2565
 21
304.948
  0
LINE
  8
0
 10
48.2565
 20
304.948
 11
48.3264
 21
305.163
  0
LINE
  8
0
 10
48.3264
 20
305.163
 11
48.4226
 21
305.367
  0
LINE
  8
0
 10
48.4226
 20
305.367
 11
48.5438
 21
305.558
  0
LINE
  8
0
 10
48.5438
 20
305.558
 11
48.6879
 21
305.732
  0
LINE
  8
0
 10
48.6879
 20
305.732
 11
48.8526
 21
305.887
  0
LINE
  8
0
 10
48.8526
 20
305.887
 11
49.0355
 21
306.02
  0
LINE
  8
0
 10
49.0355
 20
306.02
 11
49.2336
 21
306.129
  0
LINE
  8
0
 10
49.2336
 20
306.129
 11
49.4438
 21
306.212
  0
LINE
  8
0
 10
49.4438
 20
306.212
 11
49.6627
 21
306.268
  0
LINE
  8
0
 10
49.6627
 20
306.268
 11
49.887
 21
306.296
  0
LINE
  8
0
 10
49.887
 20
306.296
 11
50.113
 21
306.296
  0
LINE
  8
0
 10
50.113
 20
306.296
 11
50.3373
 21
306.268
  0
LINE
  8
0
 10
50.3373
 20
306.268
 11
50.5562
 21
306.212
  0
LINE
  8
0
 10
50.5562
 20
306.212
 11
50.7664
 21
306.129
  0
LINE
  8
0
 10
50.7664
 20
306.129
 11
50.9645
 21
306.02
  0
LINE
  8
0
 10
50.9645
 20
306.02
 11
51.1474
 21
305.887
  0
LINE
  8
0
 10
51.1474
 20
305.887
 11
51.3121
 21
305.732
  0
LINE
  8
0
 10
51.3121
 20
305.732
 11
51.4562
 21
305.558
  0
LINE
  8
0
 10
51.4562
 20
305.558
 11
51.5773
 21
305.367
  0
LINE
  8
0
 10
51.5773
 20
305.367
 11
51.6736
 21
305.163
  0
LINE
  8
0
 10
51.6736
 20
305.163
 11
51.7434
 21
304.948
  0
LINE
  8
0
 10
51.7434
 20
304.948
 11
51.7858
 21
304.726
  0
LINE
  8
0
 10
51.7858
 20
304.726
 11
51.8
 21
304.5
  0
LINE
  8
0
 10
51.8
 20
304.5
 11
51.7858
 21
304.274
  0
LINE
  8
0
 10
51.7858
 20
304.274
 11
51.7434
 21
304.052
  0
LINE
  8
0
 10
51.7434
 20
304.052
 11
51.6736
 21
303.837
  0
LINE
  8
0
 10
51.6736
 20
303.837
 11
51.5773
 21
303.633
  0
LINE
  8
0
 10
51.5773
 20
303.633
 11
51.4562
 21
303.442
  0
LINE
  8
0
 10
51.4562
 20
303.442
 11
51.3121
 21
303.268
  0
LINE
  8
0
 10
51.3121
 20
303.268
 11
51.1474
 21
303.113
  0
LINE
  8
0
 10
51.1474
 20
303.113
 11
50.9645
 21
302.98
  0
LINE
  8
0
 10
50.9645
 20
302.98
 11
50.7664
 21
302.871
  0
LINE
  8
0
 10
50.7664
 20
302.871
 11
50.5562
 21
302.788
  0
LINE
  8
0
 10
50.5562
 20
302.788
 11
50.3373
 21
302.732
  0
LINE
  8
0
 10
50.3373
 20
302.732
 11
50.113
 21
302.704
  0
LINE
  8
0
 10
50.113
 20
302.704
 11
49.887
 21
302.704
  0
LINE
  8
0
 10
57.4058
 20
303.003
 11
57.2189
 21
303.027
  0
LINE
  8
0
 10
57.2189
 20
303.027
 11
57.0365
 21
303.073
  0
LINE
  8
0
 10
57.0365
 20
303.073
 11
56.8613
 21
303.143
  0
LINE
  8
0
 10
56.8613
 20
303.143
 11
56.6963
 21
303.234
  0
LINE
  8
0
 10
56.6963
 20
303.234
 11
56.5439
 21
303.344
  0
LINE
  8
0
 10
56.5439
 20
303.344
 11
56.4065
 21
303.473
  0
LINE
  8
0
 10
56.4065
 20
303.473
 11
56.2865
 21
303.618
  0
LINE
  8
0
 10
56.2865
 20
303.618
 11
56.1855
 21
303.777
  0
LINE
  8
0
 10
56.1855
 20
303.777
 11
56.1053
 21
303.948
  0
LINE
  8
0
 10
56.1053
 20
303.948
 11
56.0471
 21
304.127
  0
LINE
  8
0
 10
56.0471
 20
304.127
 11
56.0118
 21
304.312
  0
LINE
  8
0
 10
56.0118
 20
304.312
 11
56
 21
304.5
  0
LINE
  8
0
 10
56
 20
304.5
 11
56.0118
 21
304.688
  0
LINE
  8
0
 10
56.0118
 20
304.688
 11
56.0471
 21
304.873
  0
LINE
  8
0
 10
56.0471
 20
304.873
 11
56.1053
 21
305.052
  0
LINE
  8
0
 10
56.1053
 20
305.052
 11
56.1855
 21
305.223
  0
LINE
  8
0
 10
56.1855
 20
305.223
 11
56.2865
 21
305.382
  0
LINE
  8
0
 10
56.2865
 20
305.382
 11
56.4065
 21
305.527
  0
LINE
  8
0
 10
56.4065
 20
305.527
 11
56.5439
 21
305.656
  0
LINE
  8
0
 10
56.5439
 20
305.656
 11
56.6963
 21
305.766
  0
LINE
  8
0
 10
56.6963
 20
305.766
 11
56.8613
 21
305.857
  0
LINE
  8
0
 10
56.8613
 20
305.857
 11
57.0365
 21
305.927
  0
LINE
  8
0
 10
57.0365
 20
305.927
 11
57.2189
 21
305.973
  0
LINE
  8
0
 10
57.2189
 20
305.973
 11
57.4058
 21
305.997
  0
LINE
  8
0
 10
57.4058
 20
305.997
 11
57.5942
 21
305.997
  0
LINE
  8
0
 10
57.5942
 20
305.997
 11
57.7811
 21
305.973
  0
LINE
  8
0
 10
57.7811
 20
305.973
 11
57.9635
 21
305.927
  0
LINE
  8
0
 10
57.9635
 20
305.927
 11
58.1387
 21
305.857
  0
LINE
  8
0
 10
58.1387
 20
305.857
 11
58.3037
 21
305.766
  0
LINE
  8
0
 10
58.3037
 20
305.766
 11
58.4561
 21
305.656
  0
LINE
  8
0
 10
58.4561
 20
305.656
 11
58.5934
 21
305.527
  0
LINE
  8
0
 10
58.5934
 20
305.527
 11
58.7135
 21
305.382
  0
LINE
  8
0
 10
58.7135
 20
305.382
 11
58.8145
 21
305.223
  0
LINE
  8
0
 10
58.8145
 20
305.223
 11
58.8947
 21
305.052
  0
LINE
  8
0
 10
58.8947
 20
305.052
 11
58.9529
 21
304.873
  0
LINE
  8
0
 10
58.9529
 20
304.873
 11
58.9882
 21
304.688
  0
LINE
  8
0
 10
58.9882
 20
304.688
 11
59
 21
304.5
  0
LINE
  8
0
 10
59
 20
304.5
 11
58.9882
 21
304.312
  0
LINE
  8
0
 10
58.9882
 20
304.312
 11
58.9529
 21
304.127
  0
LINE
  8
0
 10
58.9529
 20
304.127
 11
58.8947
 21
303.948
  0
LINE
  8
0
 10
58.8947
 20
303.948
 11
58.8145
 21
303.777
  0
LINE
  8
0
 10
58.8145
 20
303.777
 11
58.7135
 21
303.618
  0
LINE
  8
0
 10
58.7135
 20
303.618
 11
58.5934
 21
303.473
  0
LINE
  8
0
 10
58.5934
 20
303.473
 11
58.4561
 21
303.344
  0
LINE
  8
0
 10
58.4561
 20
303.344
 11
58.3037
 21
303.234
  0
LINE
  8
0
 10
58.3037
 20
303.234
 11
58.1387
 21
303.143
  0
LINE
  8
0
 10
58.1387
 20
303.143
 11
57.9635
 21
303.073
  0
LINE
  8
0
 10
57.9635
 20
303.073
 11
57.7811
 21
303.027
  0
LINE
  8
0
 10
57.7811
 20
303.027
 11
57.5942
 21
303.003
  0
LINE
  8
0
 10
57.5942
 20
303.003
 11
57.4058
 21
303.003
  0
LINE
  8
0
 10
42.4058
 20
303.003
 11
42.2189
 21
303.027
  0
LINE
  8
0
 10
42.2189
 20
303.027
 11
42.0365
 21
303.073
  0
LINE
  8
0
 10
42.0365
 20
303.073
 11
41.8613
 21
303.143
  0
LINE
  8
0
 10
41.8613
 20
303.143
 11
41.6963
 21
303.234
  0
LINE
  8
0
 10
41.6963
 20
303.234
 11
41.5439
 21
303.344
  0
LINE
  8
0
 10
41.5439
 20
303.344
 11
41.4065
 21
303.473
  0
LINE
  8
0
 10
41.4065
 20
303.473
 11
41.2865
 21
303.618
  0
LINE
  8
0
 10
41.2865
 20
303.618
 11
41.1855
 21
303.777
  0
LINE
  8
0
 10
41.1855
 20
303.777
 11
41.1053
 21
303.948
  0
LINE
  8
0
 10
41.1053
 20
303.948
 11
41.0471
 21
304.127
  0
LINE
  8
0
 10
41.0471
 20
304.127
 11
41.0118
 21
304.312
  0
LINE
  8
0
 10
41.0118
 20
304.312
 11
41
 21
304.5
  0
LINE
  8
0
 10
41
 20
304.5
 11
41.0118
 21
304.688
  0
LINE
  8
0
 10
41.0118
 20
304.688
 11
41.0471
 21
304.873
  0
LINE
  8
0
 10
41.0471
 20
304.873
 11
41.1053
 21
305.052
  0
LINE
  8
0
 10
41.1053
 20
305.052
 11
41.1855
 21
305.223
  0
LINE
  8
0
 10
41.1855
 20
305.223
 11
41.2865
 21
305.382
  0
LINE
  8
0
 10
41.2865
 20
305.382
 11
41.4065
 21
305.527
  0
LINE
  8
0
 10
41.4065
 20
305.527
 11
41.5439
 21
305.656
  0
LINE
  8
0
 10
41.5439
 20
305.656
 11
41.6963
 21
305.766
  0
LINE
  8
0
 10
41.6963
 20
305.766
 11
41.8613
 21
305.857
  0
LINE
  8
0
 10
41.8613
 20
305.857
 11
42.0365
 21
305.927
  0
LINE
  8
0
 10
42.0365
 20
305.927
 11
42.2189
 21
305.973
  0
LINE
  8
0
 10
42.2189
 20
305.973
 11
42.4058
 21
305.997
  0
LINE
  8
0
 10
42.4058
 20
305.997
 11
42.5942
 21
305.997
  0
LINE
  8
0
 10
42.5942
 20
305.997
 11
42.7811
 21
305.973
  0
LINE
  8
0
 10
42.7811
 20
305.973
 11
42.9635
 21
305.927
  0
LINE
  8
0
 10
42.9635
 20
305.927
 11
43.1387
 21
305.857
  0
LINE
  8
0
 10
43.1387
 20
305.857
 11
43.3037
 21
305.766
  0
LINE
  8
0
 10
43.3037
 20
305.766
 11
43.4561
 21
305.656
  0
LINE
  8
0
 10
43.4561
 20
305.656
 11
43.5934
 21
305.527
  0
LINE
  8
0
 10
43.5934
 20
305.527
 11
43.7135
 21
305.382
  0
LINE
  8
0
 10
43.7135
 20
305.382
 11
43.8145
 21
305.223
  0
LINE
  8
0
 10
43.8145
 20
305.223
 11
43.8947
 21
305.052
  0
LINE
  8
0
 10
43.8947
 20
305.052
 11
43.9529
 21
304.873
  0
LINE
  8
0
 10
43.9529
 20
304.873
 11
43.9882
 21
304.688
  0
LINE
  8
0
 10
43.9882
 20
304.688
 11
44
 21
304.5
  0
LINE
  8
0
 10
44
 20
304.5
 11
43.9882
 21
304.312
  0
LINE
  8
0
 10
43.9882
 20
304.312
 11
43.9529
 21
304.127
  0
LINE
  8
0
 10
43.9529
 20
304.127
 11
43.8947
 21
303.948
  0
LINE
  8
0
 10
43.8947
 20
303.948
 11
43.8145
 21
303.777
  0
LINE
  8
0
 10
43.8145
 20
303.777
 11
43.7135
 21
303.618
  0
LINE
  8
0
 10
43.7135
 20
303.618
 11
43.5934
 21
303.473
  0
LINE
  8
0
 10
43.5934
 20
303.473
 11
43.4561
 21
303.344
  0
LINE
  8
0
 10
43.4561
 20
303.344
 11
43.3037
 21
303.234
  0
LINE
  8
0
 10
43.3037
 20
303.234
 11
43.1387
 21
303.143
  0
LINE
  8
0
 10
43.1387
 20
303.143
 11
42.9635
 21
303.073
  0
LINE
  8
0
 10
42.9635
 20
303.073
 11
42.7811
 21
303.027
  0
LINE
  8
0
 10
42.7811
 20
303.027
 11
42.5942
 21
303.003
  0
LINE
  8
0
 10
42.5942
 20
303.003
 11
42.4058
 21
303.003
  0
LINE
  8
0
 10
57.3116
 20
294.006
 11
56.9379
 21
294.053
  0
LINE
  8
0
 10
56.9379
 20
294.053
 11
56.5729
 21
294.147
  0
LINE
  8
0
 10
56.5729
 20
294.147
 11
56.2227
 21
294.286
  0
LINE
  8
0
 10
56.2227
 20
294.286
 11
55.8925
 21
294.467
  0
LINE
  8
0
 10
55.8925
 20
294.467
 11
55.5877
 21
294.688
  0
LINE
  8
0
 10
55.5877
 20
294.688
 11
55.3131
 21
294.946
  0
LINE
  8
0
 10
55.3131
 20
294.946
 11
55.0729
 21
295.237
  0
LINE
  8
0
 10
55.0729
 20
295.237
 11
54.8711
 21
295.555
  0
LINE
  8
0
 10
54.8711
 20
295.555
 11
54.7107
 21
295.896
  0
LINE
  8
0
 10
54.7107
 20
295.896
 11
54.5942
 21
296.254
  0
LINE
  8
0
 10
54.5942
 20
296.254
 11
54.5237
 21
296.624
  0
LINE
  8
0
 10
54.5237
 20
296.624
 11
54.5
 21
297
  0
LINE
  8
0
 10
54.5
 20
297
 11
54.5237
 21
297.376
  0
LINE
  8
0
 10
54.5237
 20
297.376
 11
54.5942
 21
297.746
  0
LINE
  8
0
 10
54.5942
 20
297.746
 11
54.7107
 21
298.104
  0
LINE
  8
0
 10
54.7107
 20
298.104
 11
54.8711
 21
298.445
  0
LINE
  8
0
 10
54.8711
 20
298.445
 11
55.0729
 21
298.763
  0
LINE
  8
0
 10
55.0729
 20
298.763
 11
55.3131
 21
299.054
  0
LINE
  8
0
 10
55.3131
 20
299.054
 11
55.5877
 21
299.312
  0
LINE
  8
0
 10
55.5877
 20
299.312
 11
55.8925
 21
299.533
  0
LINE
  8
0
 10
55.8925
 20
299.533
 11
56.2227
 21
299.714
  0
LINE
  8
0
 10
56.2227
 20
299.714
 11
56.5729
 21
299.853
  0
LINE
  8
0
 10
56.5729
 20
299.853
 11
56.9379
 21
299.947
  0
LINE
  8
0
 10
56.9379
 20
299.947
 11
57.3116
 21
299.994
  0
LINE
  8
0
 10
57.3116
 20
299.994
 11
57.6884
 21
299.994
  0
LINE
  8
0
 10
57.6884
 20
299.994
 11
58.0621
 21
299.947
  0
LINE
  8
0
 10
58.0621
 20
299.947
 11
58.427
 21
299.853
  0
LINE
  8
0
 10
58.427
 20
299.853
 11
58.7773
 21
299.714
  0
LINE
  8
0
 10
58.7773
 20
299.714
 11
59.1075
 21
299.533
  0
LINE
  8
0
 10
59.1075
 20
299.533
 11
59.4123
 21
299.312
  0
LINE
  8
0
 10
59.4123
 20
299.312
 11
59.6869
 21
299.054
  0
LINE
  8
0
 10
59.6869
 20
299.054
 11
59.927
 21
298.763
  0
LINE
  8
0
 10
59.927
 20
298.763
 11
60.1289
 21
298.445
  0
LINE
  8
0
 10
60.1289
 20
298.445
 11
60.2893
 21
298.104
  0
LINE
  8
0
 10
60.2893
 20
298.104
 11
60.4057
 21
297.746
  0
LINE
  8
0
 10
60.4057
 20
297.746
 11
60.4763
 21
297.376
  0
LINE
  8
0
 10
60.4763
 20
297.376
 11
60.5
 21
297
  0
LINE
  8
0
 10
60.5
 20
297
 11
60.4763
 21
296.624
  0
LINE
  8
0
 10
60.4763
 20
296.624
 11
60.4057
 21
296.254
  0
LINE
  8
0
 10
60.4057
 20
296.254
 11
60.2893
 21
295.896
  0
LINE
  8
0
 10
60.2893
 20
295.896
 11
60.1289
 21
295.555
  0
LINE
  8
0
 10
60.1289
 20
295.555
 11
59.927
 21
295.237
  0
LINE
  8
0
 10
59.927
 20
295.237
 11
59.6869
 21
294.946
  0
LINE
  8
0
 10
59.6869
 20
294.946
 11
59.4123
 21
294.688
  0
LINE
  8
0
 10
59.4123
 20
294.688
 11
59.1075
 21
294.467
  0
LINE
  8
0
 10
59.1075
 20
294.467
 11
58.7773
 21
294.286
  0
LINE
  8
0
 10
58.7773
 20
294.286
 11
58.427
 21
294.147
  0
LINE
  8
0
 10
58.427
 20
294.147
 11
58.0621
 21
294.053
  0
LINE
  8
0
 10
58.0621
 20
294.053
 11
57.6884
 21
294.006
  0
LINE
  8
0
 10
57.6884
 20
294.006
 11
57.3116
 21
294.006
  0
LINE
  8
0
 10
42.3116
 20
294.006
 11
41.9379
 21
294.053
  0
LINE
  8
0
 10
41.9379
 20
294.053
 11
41.5729
 21
294.147
  0
LINE
  8
0
 10
41.5729
 20
294.147
 11
41.2227
 21
294.286
  0
LINE
  8
0
 10
41.2227
 20
294.286
 11
40.8925
 21
294.467
  0
LINE
  8
0
 10
40.8925
 20
294.467
 11
40.5877
 21
294.688
  0
LINE
  8
0
 10
40.5877
 20
294.688
 11
40.3131
 21
294.946
  0
LINE
  8
0
 10
40.3131
 20
294.946
 11
40.0729
 21
295.237
  0
LINE
  8
0
 10
40.0729
 20
295.237
 11
39.8711
 21
295.555
  0
LINE
  8
0
 10
39.8711
 20
295.555
 11
39.7107
 21
295.896
  0
LINE
  8
0
 10
39.7107
 20
295.896
 11
39.5942
 21
296.254
  0
LINE
  8
0
 10
39.5942
 20
296.254
 11
39.5237
 21
296.624
  0
LINE
  8
0
 10
39.5237
 20
296.624
 11
39.5
 21
297
  0
LINE
  8
0
 10
39.5
 20
297
 11
39.5237
 21
297.376
  0
LINE
  8
0
 10
39.5237
 20
297.376
 11
39.5942
 21
297.746
  0
LINE
  8
0
 10
39.5942
 20
297.746
 11
39.7107
 21
298.104
  0
LINE
  8
0
 10
39.7107
 20
298.104
 11
39.8711
 21
298.445
  0
LINE
  8
0
 10
39.8711
 20
298.445
 11
40.0729
 21
298.763
  0
LINE
  8
0
 10
40.0729
 20
298.763
 11
40.3131
 21
299.054
  0
LINE
  8
0
 10
40.3131
 20
299.054
 11
40.5877
 21
299.312
  0
LINE
  8
0
 10
40.5877
 20
299.312
 11
40.8925
 21
299.533
  0
LINE
  8
0
 10
40.8925
 20
299.533
 11
41.2227
 21
299.714
  0
LINE
  8
0
 10
41.2227
 20
299.714
 11
41.5729
 21
299.853
  0
LINE
  8
0
 10
41.5729
 20
299.853
 11
41.9379
 21
299.947
  0
LINE
  8
0
 10
41.9379
 20
299.947
 11
42.3116
 21
299.994
  0
LINE
  8
0
 10
42.3116
 20
299.994
 11
42.6884
 21
299.994
  0
LINE
  8
0
 10
42.6884
 20
299.994
 11
43.0621
 21
299.947
  0
LINE
  8
0
 10
43.0621
 20
299.947
 11
43.427
 21
299.853
  0
LINE
  8
0
 10
43.427
 20
299.853
 11
43.7773
 21
299.714
  0
LINE
  8
0
 10
43.7773
 20
299.714
 11
44.1075
 21
299.533
  0
LINE
  8
0
 10
44.1075
 20
299.533
 11
44.4123
 21
299.312
  0
LINE
  8
0
 10
44.4123
 20
299.312
 11
44.6869
 21
299.054
  0
LINE
  8
0
 10
44.6869
 20
299.054
 11
44.927
 21
298.763
  0
LINE
  8
0
 10
44.927
 20
298.763
 11
45.1289
 21
298.445
  0
LINE
  8
0
 10
45.1289
 20
298.445
 11
45.2893
 21
298.104
  0
LINE
  8
0
 10
45.2893
 20
298.104
 11
45.4057
 21
297.746
  0
LINE
  8
0
 10
45.4057
 20
297.746
 11
45.4763
 21
297.376
  0
LINE
  8
0
 10
45.4763
 20
297.376
 11
45.5
 21
297
  0
LINE
  8
0
 10
45.5
 20
297
 11
45.4763
 21
296.624
  0
LINE
  8
0
 10
45.4763
 20
296.624
 11
45.4057
 21
296.254
  0
LINE
  8
0
 10
45.4057
 20
296.254
 11
45.2893
 21
295.896
  0
LINE
  8
0
 10
45.2893
 20
295.896
 11
45.1289
 21
295.555
  0
LINE
  8
0
 10
45.1289
 20
295.555
 11
44.927
 21
295.237
  0
LINE
  8
0
 10
44.927
 20
295.237
 11
44.6869
 21
294.946
  0
LINE
  8
0
 10
44.6869
 20
294.946
 11
44.4123
 21
294.688
  0
LINE
  8
0
 10
44.4123
 20
294.688
 11
44.1075
 21
294.467
  0
LINE
  8
0
 10
44.1075
 20
294.467
 11
43.7773
 21
294.286
  0
LINE
  8
0
 10
43.7773
 20
294.286
 11
43.427
 21
294.147
  0
LINE
  8
0
 10
43.427
 20
294.147
 11
43.0621
 21
294.053
  0
LINE
  8
0
 10
43.0621
 20
294.053
 11
42.6884
 21
294.006
  0
LINE
  8
0
 10
42.6884
 20
294.006
 11
42.3116
 21
294.006
  0
LINE
  8
0
 10
49.9058
 20
295.503
 11
49.7189
 21
295.527
  0
LINE
  8
0
 10
49.7189
 20
295.527
 11
49.5365
 21
295.573
  0
LINE
  8
0
 10
49.5365
 20
295.573
 11
49.3613
 21
295.643
  0
LINE
  8
0
 10
49.3613
 20
295.643
 11
49.1963
 21
295.734
  0
LINE
  8
0
 10
49.1963
 20
295.734
 11
49.0439
 21
295.844
  0
LINE
  8
0
 10
49.0439
 20
295.844
 11
48.9065
 21
295.973
  0
LINE
  8
0
 10
48.9065
 20
295.973
 11
48.7865
 21
296.118
  0
LINE
  8
0
 10
48.7865
 20
296.118
 11
48.6855
 21
296.277
  0
LINE
  8
0
 10
48.6855
 20
296.277
 11
48.6053
 21
296.448
  0
LINE
  8
0
 10
48.6053
 20
296.448
 11
48.5471
 21
296.627
  0
LINE
  8
0
 10
48.5471
 20
296.627
 11
48.5118
 21
296.812
  0
LINE
  8
0
 10
48.5118
 20
296.812
 11
48.5
 21
297
  0
LINE
  8
0
 10
48.5
 20
297
 11
48.5118
 21
297.188
  0
LINE
  8
0
 10
48.5118
 20
297.188
 11
48.5471
 21
297.373
  0
LINE
  8
0
 10
48.5471
 20
297.373
 11
48.6053
 21
297.552
  0
LINE
  8
0
 10
48.6053
 20
297.552
 11
48.6855
 21
297.723
  0
LINE
  8
0
 10
48.6855
 20
297.723
 11
48.7865
 21
297.882
  0
LINE
  8
0
 10
48.7865
 20
297.882
 11
48.9065
 21
298.027
  0
LINE
  8
0
 10
48.9065
 20
298.027
 11
49.0439
 21
298.156
  0
LINE
  8
0
 10
49.0439
 20
298.156
 11
49.1963
 21
298.266
  0
LINE
  8
0
 10
49.1963
 20
298.266
 11
49.3613
 21
298.357
  0
LINE
  8
0
 10
49.3613
 20
298.357
 11
49.5365
 21
298.427
  0
LINE
  8
0
 10
49.5365
 20
298.427
 11
49.7189
 21
298.473
  0
LINE
  8
0
 10
49.7189
 20
298.473
 11
49.9058
 21
298.497
  0
LINE
  8
0
 10
49.9058
 20
298.497
 11
50.0942
 21
298.497
  0
LINE
  8
0
 10
50.0942
 20
298.497
 11
50.2811
 21
298.473
  0
LINE
  8
0
 10
50.2811
 20
298.473
 11
50.4635
 21
298.427
  0
LINE
  8
0
 10
50.4635
 20
298.427
 11
50.6387
 21
298.357
  0
LINE
  8
0
 10
50.6387
 20
298.357
 11
50.8037
 21
298.266
  0
LINE
  8
0
 10
50.8037
 20
298.266
 11
50.9561
 21
298.156
  0
LINE
  8
0
 10
50.9561
 20
298.156
 11
51.0934
 21
298.027
  0
LINE
  8
0
 10
51.0934
 20
298.027
 11
51.2135
 21
297.882
  0
LINE
  8
0
 10
51.2135
 20
297.882
 11
51.3145
 21
297.723
  0
LINE
  8
0
 10
51.3145
 20
297.723
 11
51.3947
 21
297.552
  0
LINE
  8
0
 10
51.3947
 20
297.552
 11
51.4529
 21
297.373
  0
LINE
  8
0
 10
51.4529
 20
297.373
 11
51.4882
 21
297.188
  0
LINE
  8
0
 10
51.4882
 20
297.188
 11
51.5
 21
297
  0
LINE
  8
0
 10
51.5
 20
297
 11
51.4882
 21
296.812
  0
LINE
  8
0
 10
51.4882
 20
296.812
 11
51.4529
 21
296.627
  0
LINE
  8
0
 10
51.4529
 20
296.627
 11
51.3947
 21
296.448
  0
LINE
  8
0
 10
51.3947
 20
296.448
 11
51.3145
 21
296.277
  0
LINE
  8
0
 10
51.3145
 20
296.277
 11
51.2135
 21
296.118
  0
LINE
  8
0
 10
51.2135
 20
296.118
 11
51.0934
 21
295.973
  0
LINE
  8
0
 10
51.0934
 20
295.973
 11
50.9561
 21
295.844
  0
LINE
  8
0
 10
50.9561
 20
295.844
 11
50.8037
 21
295.734
  0
LINE
  8
0
 10
50.8037
 20
295.734
 11
50.6387
 21
295.643
  0
LINE
  8
0
 10
50.6387
 20
295.643
 11
50.4635
 21
295.573
  0
LINE
  8
0
 10
50.4635
 20
295.573
 11
50.2811
 21
295.527
  0
LINE
  8
0
 10
50.2811
 20
295.527
 11
50.0942
 21
295.503
  0
LINE
  8
0
 10
50.0942
 20
295.503
 11
49.9058
 21
295.503
  0
LINE
  8
0
 10
10.4369
 20
290.089
 11
11.0451
 21
290.245
  0
LINE
  8
0
 10
11.0451
 20
290.245
 11
11.6289
 21
290.476
  0
LINE
  8
0
 10
11.6289
 20
290.476
 11
12.1791
 21
290.778
  0
LINE
  8
0
 10
12.1791
 20
290.778
 11
12.6871
 21
291.147
  0
LINE
  8
0
 10
12.6871
 20
291.147
 11
13.1448
 21
291.577
  0
LINE
  8
0
 10
13.1448
 20
291.577
 11
13.5451
 21
292.061
  0
LINE
  8
0
 10
13.5451
 20
292.061
 11
13.8815
 21
292.591
  0
LINE
  8
0
 10
13.8815
 20
292.591
 11
14.1489
 21
293.159
  0
LINE
  8
0
 10
14.1489
 20
293.159
 11
14.3429
 21
293.757
  0
LINE
  8
0
 10
14.3429
 20
293.757
 11
14.4606
 21
294.373
  0
LINE
  8
0
 10
14.4606
 20
294.373
 11
14.5
 21
295
  0
LINE
  8
0
 10
14.5
 20
295
 11
14.5
 21
313.3
  0
LINE
  8
0
 10
14.5
 20
313.3
 11
-14.5
 21
313.3
  0
LINE
  8
0
 10
-14.5
 20
313.3
 11
-14.5
 21
295
  0
LINE
  8
0
 10
-14.5
 20
295
 11
-14.4606
 21
294.373
  0
LINE
  8
0
 10
-14.4606
 20
294.373
 11
-14.3429
 21
293.757
  0
LINE
  8
0
 10
-14.3429
 20
293.757
 11
-14.1489
 21
293.159
  0
LINE
  8
0
 10
-14.1489
 20
293.159
 11
-13.8815
 21
292.591
  0
LINE
  8
0
 10
-13.8815
 20
292.591
 11
-13.5451
 21
292.061
  0
LINE
  8
0
 10
-13.5451
 20
292.061
 11
-13.1448
 21
291.577
  0
LINE
  8
0
 10
-13.1448
 20
291.577
 11
-12.6871
 21
291.147
  0
LINE
  8
0
 10
-12.6871
 20
291.147
 11
-12.1791
 21
290.778
  0
LINE
  8
0
 10
-12.1791
 20
290.778
 11
-11.6289
 21
290.476
  0
LINE
  8
0
 10
-11.6289
 20
290.476
 11
-11.0451
 21
290.245
  0
LINE
  8
0
 10
-11.0451
 20
290.245
 11
-10.4369
 21
290.089
  0
LINE
  8
0
 10
-10.4369
 20
290.089
 11
-9.81395
 21
290.01
  0
LINE
  8
0
 10
-9.81395
 20
290.01
 11
9.81395
 21
290.01
  0
LINE
  8
0
 10
9.81395
 20
290.01
 11
10.4369
 21
290.089
  0
LINE
  8
0
 10
-0.113022
 20
302.704
 11
-0.33728
 21
302.732
  0
LINE
  8
0
 10
-0.33728
 20
302.732
 11
-0.556229
 21
302.788
  0
LINE
  8
0
 10
-0.556229
 20
302.788
 11
-0.766388
 21
302.871
  0
LINE
  8
0
 10
-0.766388
 20
302.871
 11
-0.964478
 21
302.98
  0
LINE
  8
0
 10
-0.964478
 20
302.98
 11
-1.14735
 21
303.113
  0
LINE
  8
0
 10
-1.14735
 20
303.113
 11
-1.31213
 21
303.268
  0
LINE
  8
0
 10
-1.31213
 20
303.268
 11
-1.45622
 21
303.442
  0
LINE
  8
0
 10
-1.45622
 20
303.442
 11
-1.57735
 21
303.633
  0
LINE
  8
0
 10
-1.57735
 20
303.633
 11
-1.67358
 21
303.837
  0
LINE
  8
0
 10
-1.67358
 20
303.837
 11
-1.74344
 21
304.052
  0
LINE
  8
0
 10
-1.74344
 20
304.052
 11
-1.7858
 21
304.274
  0
LINE
  8
0
 10
-1.7858
 20
304.274
 11
-1.79999
 21
304.5
  0
LINE
  8
0
 10
-1.79999
 20
304.5
 11
-1.7858
 21
304.726
  0
LINE
  8
0
 10
-1.7858
 20
304.726
 11
-1.74344
 21
304.948
  0
LINE
  8
0
 10
-1.74344
 20
304.948
 11
-1.67358
 21
305.163
  0
LINE
  8
0
 10
-1.67358
 20
305.163
 11
-1.57735
 21
305.367
  0
LINE
  8
0
 10
-1.57735
 20
305.367
 11
-1.45622
 21
305.558
  0
LINE
  8
0
 10
-1.45622
 20
305.558
 11
-1.31213
 21
305.732
  0
LINE
  8
0
 10
-1.31213
 20
305.732
 11
-1.14735
 21
305.887
  0
LINE
  8
0
 10
-1.14735
 20
305.887
 11
-0.964478
 21
306.02
  0
LINE
  8
0
 10
-0.964478
 20
306.02
 11
-0.766388
 21
306.129
  0
LINE
  8
0
 10
-0.766388
 20
306.129
 11
-0.556229
 21
306.212
  0
LINE
  8
0
 10
-0.556229
 20
306.212
 11
-0.33728
 21
306.268
  0
LINE
  8
0
 10
-0.33728
 20
306.268
 11
-0.113022
 21
306.296
  0
LINE
  8
0
 10
-0.113022
 20
306.296
 11
0.113022
 21
306.296
  0
LINE
  8
0
 10
0.113022
 20
306.296
 11
0.33728
 21
306.268
  0
LINE
  8
0
 10
0.33728
 20
306.268
 11
0.556229
 21
306.212
  0
LINE
  8
0
 10
0.556229
 20
306.212
 11
0.766388
 21
306.129
  0
LINE
  8
0
 10
0.766388
 20
306.129
 11
0.964478
 21
306.02
  0
LINE
  8
0
 10
0.964478
 20
306.02
 11
1.14735
 21
305.887
  0
LINE
  8
0
 10
1.14735
 20
305.887
 11
1.31213
 21
305.732
  0
LINE
  8
0
 10
1.31213
 20
305.732
 11
1.45622
 21
305.558
  0
LINE
  8
0
 10
1.45622
 20
305.558
 11
1.57735
 21
305.367
  0
LINE
  8
0
 10
1.57735
 20
305.367
 11
1.67358
 21
305.163
  0
LINE
  8
0
 10
1.67358
 20
305.163
 11
1.74344
 21
304.948
  0
LINE
  8
0
 10
1.74344
 20
304.948
 11
1.7858
 21
304.726
  0
LINE
  8
0
 10
1.7858
 20
304.726
 11
1.79999
 21
304.5
  0
LINE
  8
0
 10
1.79999
 20
304.5
 11
1.7858
 21
304.274
  0
LINE
  8
0
 10
1.7858
 20
304.274
 11
1.74344
 21
304.052
  0
LINE
  8
0
 10
1.74344
 20
304.052
 11
1.67358
 21
303.837
  0
LINE
  8
0
 10
1.67358
 20
303.837
 11
1.57735
 21
303.633
  0
LINE
  8
0
 10
1.57735
 20
303.633
 11
1.45622
 21
303.442
  0
LINE
  8
0
 10
1.45622
 20
303.442
 11
1.31213
 21
303.268
  0
LINE
  8
0
 10
1.31213
 20
303.268
 11
1.14735
 21
303.113
  0
LINE
  8
0
 10
1.14735
 20
303.113
 11
0.964478
 21
302.98
  0
LINE
  8
0
 10
0.964478
 20
302.98
 11
0.766388
 21
302.871
  0
LINE
  8
0
 10
0.766388
 20
302.871
 11
0.556229
 21
302.788
  0
LINE
  8
0
 10
0.556229
 20
302.788
 11
0.33728
 21
302.732
  0
LINE
  8
0
 10
0.33728
 20
302.732
 11
0.113022
 21
302.704
  0
LINE
  8
0
 10
0.113022
 20
302.704
 11
-0.113022
 21
302.704
  0
LINE
  8
0
 10
7.40581
 20
303.003
 11
7.21892
 21
303.027
  0
LINE
  8
0
 10
7.21892
 20
303.027
 11
7.03647
 21
303.073
  0
LINE
  8
0
 10
7.03647
 20
303.073
 11
6.86133
 21
303.143
  0
LINE
  8
0
 10
6.86133
 20
303.143
 11
6.69626
 21
303.234
  0
LINE
  8
0
 10
6.69626
 20
303.234
 11
6.54385
 21
303.344
  0
LINE
  8
0
 10
6.54385
 20
303.344
 11
6.40654
 21
303.473
  0
LINE
  8
0
 10
6.40654
 20
303.473
 11
6.28647
 21
303.618
  0
LINE
  8
0
 10
6.28647
 20
303.618
 11
6.18553
 21
303.777
  0
LINE
  8
0
 10
6.18553
 20
303.777
 11
6.10533
 21
303.948
  0
LINE
  8
0
 10
6.10533
 20
303.948
 11
6.04712
 21
304.127
  0
LINE
  8
0
 10
6.04712
 20
304.127
 11
6.01183
 21
304.312
  0
LINE
  8
0
 10
6.01183
 20
304.312
 11
6
 21
304.5
  0
LINE
  8
0
 10
6
 20
304.5
 11
6.01183
 21
304.688
  0
LINE
  8
0
 10
6.01183
 20
304.688
 11
6.04712
 21
304.873
  0
LINE
  8
0
 10
6.04712
 20
304.873
 11
6.10533
 21
305.052
  0
LINE
  8
0
 10
6.10533
 20
305.052
 11
6.18553
 21
305.223
  0
LINE
  8
0
 10
6.18553
 20
305.223
 11
6.28647
 21
305.382
  0
LINE
  8
0
 10
6.28647
 20
305.382
 11
6.40654
 21
305.527
  0
LINE
  8
0
 10
6.40654
 20
305.527
 11
6.54385
 21
305.656
  0
LINE
  8
0
 10
6.54385
 20
305.656
 11
6.69626
 21
305.766
  0
LINE
  8
0
 10
6.69626
 20
305.766
 11
6.86133
 21
305.857
  0
LINE
  8
0
 10
6.86133
 20
305.857
 11
7.03647
 21
305.927
  0
LINE
  8
0
 10
7.03647
 20
305.927
 11
7.21892
 21
305.973
  0
LINE
  8
0
 10
7.21892
 20
305.973
 11
7.40581
 21
305.997
  0
LINE
  8
0
 10
7.40581
 20
305.997
 11
7.59418
 21
305.997
  0
LINE
  8
0
 10
7.59418
 20
305.997
 11
7.78107
 21
305.973
  0
LINE
  8
0
 10
7.78107
 20
305.973
 11
7.96352
 21
305.927
  0
LINE
  8
0
 10
7.96352
 20
305.927
 11
8.13866
 21
305.857
  0
LINE
  8
0
 10
8.13866
 20
305.857
 11
8.30373
 21
305.766
  0
LINE
  8
0
 10
8.30373
 20
305.766
 11
8.45613
 21
305.656
  0
LINE
  8
0
 10
8.45613
 20
305.656
 11
8.59344
 21
305.527
  0
LINE
  8
0
 10
8.59344
 20
305.527
 11
8.71352
 21
305.382
  0
LINE
  8
0
 10
8.71352
 20
305.382
 11
8.81445
 21
305.223
  0
LINE
  8
0
 10
8.81445
 20
305.223
 11
8.89465
 21
305.052
  0
LINE
  8
0
 10
8.89465
 20
305.052
 11
8.95287
 21
304.873
  0
LINE
  8
0
 10
8.95287
 20
304.873
 11
8.98816
 21
304.688
  0
LINE
  8
0
 10
8.98816
 20
304.688
 11
9
 21
304.5
  0
LINE
  8
0
 10
9
 20
304.5
 11
8.98816
 21
304.312
  0
LINE
  8
0
 10
8.98816
 20
304.312
 11
8.95287
 21
304.127
  0
LINE
  8
0
 10
8.95287
 20
304.127
 11
8.89465
 21
303.948
  0
LINE
  8
0
 10
8.89465
 20
303.948
 11
8.81445
 21
303.777
  0
LINE
  8
0
 10
8.81445
 20
303.777
 11
8.71352
 21
303.618
  0
LINE
  8
0
 10
8.71352
 20
303.618
 11
8.59344
 21
303.473
  0
LINE
  8
0
 10
8.59344
 20
303.473
 11
8.45613
 21
303.344
  0
LINE
  8
0
 10
8.45613
 20
303.344
 11
8.30373
 21
303.234
  0
LINE
  8
0
 10
8.30373
 20
303.234
 11
8.13866
 21
303.143
  0
LINE
  8
0
 10
8.13866
 20
303.143
 11
7.96352
 21
303.073
  0
LINE
  8
0
 10
7.96352
 20
303.073
 11
7.78107
 21
303.027
  0
LINE
  8
0
 10
7.78107
 20
303.027
 11
7.59418
 21
303.003
  0
LINE
  8
0
 10
7.59418
 20
303.003
 11
7.40581
 21
303.003
  0
LINE
  8
0
 10
-7.59418
 20
303.003
 11
-7.78107
 21
303.027
  0
LINE
  8
0
 10
-7.78107
 20
303.027
 11
-7.96352
 21
303.073
  0
LINE
  8
0
 10
-7.96352
 20
303.073
 11
-8.13866
 21
303.143
  0
LINE
  8
0
 10
-8.13866
 20
303.143
 11
-8.30373
 21
303.234
  0
LINE
  8
0
 10
-8.30373
 20
303.234
 11
-8.45613
 21
303.344
  0
LINE
  8
0
 10
-8.45613
 20
303.344
 11
-8.59344
 21
303.473
  0
LINE
  8
0
 10
-8.59344
 20
303.473
 11
-8.71352
 21
303.618
  0
LINE
  8
0
 10
-8.71352
 20
303.618
 11
-8.81445
 21
303.777
  0
LINE
  8
0
 10
-8.81445
 20
303.777
 11
-8.89465
 21
303.948
  0
LINE
  8
0
 10
-8.89465
 20
303.948
 11
-8.95287
 21
304.127
  0
LINE
  8
0
 10
-8.95287
 20
304.127
 11
-8.98816
 21
304.312
  0
LINE
  8
0
 10
-8.98816
 20
304.312
 11
-9
 21
304.5
  0
LINE
  8
0
 10
-9
 20
304.5
 11
-8.98816
 21
304.688
  0
LINE
  8
0
 10
-8.98816
 20
304.688
 11
-8.95287
 21
304.873
  0
LINE
  8
0
 10
-8.95287
 20
304.873
 11
-8.89465
 21
305.052
  0
LINE
  8
0
 10
-8.89465
 20
305.052
 11
-8.81445
 21
305.223
  0
LINE
  8
0
 10
-8.81445
 20
305.223
 11
-8.71352
 21
305.382
  0
LINE
  8
0
 10
-8.71352
 20
305.382
 11
-8.59344
 21
305.527
  0
LINE
  8
0
 10
-8.59344
 20
305.527
 11
-8.45613
 21
305.656
  0
LINE
  8
0
 10
-8.45613
 20
305.656
 11
-8.30373
 21
305.766
  0
LINE
  8
0
 10
-8.30373
 20
305.766
 11
-8.13866
 21
305.857
  0
LINE
  8
0
 10
-8.13866
 20
305.857
 11
-7.96352
 21
305.927
  0
LINE
  8
0
 10
-7.96352
 20
305.927
 11
-7.78107
 21
305.973
  0
LINE
  8
0
 10
-7.78107
 20
305.973
 11
-7.59418
 21
305.997
  0
LINE
  8
0
 10
-7.59418
 20
305.997
 11
-7.40581
 21
305.997
  0
LINE
  8
0
 10
-7.40581
 20
305.997
 11
-7.21892
 21
305.973
  0
LINE
  8
0
 10
-7.21892
 20
305.973
 11
-7.03647
 21
305.927
  0
LINE
  8
0
 10
-7.03647
 20
305.927
 11
-6.86133
 21
305.857
  0
LINE
  8
0
 10
-6.86133
 20
305.857
 11
-6.69626
 21
305.766
  0
LINE
  8
0
 10
-6.69626
 20
305.766
 11
-6.54385
 21
305.656
  0
LINE
  8
0
 10
-6.54385
 20
305.656
 11
-6.40654
 21
305.527
  0
LINE
  8
0
 10
-6.40654
 20
305.527
 11
-6.28647
 21
305.382
  0
LINE
  8
0
 10
-6.28647
 20
305.382
 11
-6.18553
 21
305.223
  0
LINE
  8
0
 10
-6.18553
 20
305.223
 11
-6.10533
 21
305.052
  0
LINE
  8
0
 10
-6.10533
 20
305.052
 11
-6.04712
 21
304.873
  0
LINE
  8
0
 10
-6.04712
 20
304.873
 11
-6.01183
 21
304.688
  0
LINE
  8
0
 10
-6.01183
 20
304.688
 11
-6
 21
304.5
  0
LINE
  8
0
 10
-6
 20
304.5
 11
-6.01183
 21
304.312
  0
LINE
  8
0
 10
-6.01183
 20
304.312
 11
-6.04712
 21
304.127
  0
LINE
  8
0
 10
-6.04712
 20
304.127
 11
-6.10533
 21
303.948
  0
LINE
  8
0
 10
-6.10533
 20
303.948
 11
-6.18553
 21
303.777
  0
LINE
  8
0
 10
-6.18553
 20
303.777
 11
-6.28647
 21
303.618
  0
LINE
  8
0
 10
-6.28647
 20
303.618
 11
-6.40654
 21
303.473
  0
LINE
  8
0
 10
-6.40654
 20
303.473
 11
-6.54385
 21
303.344
  0
LINE
  8
0
 10
-6.54385
 20
303.344
 11
-6.69626
 21
303.234
  0
LINE
  8
0
 10
-6.69626
 20
303.234
 11
-6.86133
 21
303.143
  0
LINE
  8
0
 10
-6.86133
 20
303.143
 11
-7.03647
 21
303.073
  0
LINE
  8
0
 10
-7.03647
 20
303.073
 11
-7.21892
 21
303.027
  0
LINE
  8
0
 10
-7.21892
 20
303.027
 11
-7.40581
 21
303.003
  0
LINE
  8
0
 10
-7.40581
 20
303.003
 11
-7.59418
 21
303.003
  0
LINE
  8
0
 10
-0.194641
 20
293.906
 11
-0.580872
 21
293.955
  0
LINE
  8
0
 10
-0.580872
 20
293.955
 11
-0.957947
 21
294.052
  0
LINE
  8
0
 10
-0.957947
 20
294.052
 11
-1.3199
 21
294.195
  0
LINE
  8
0
 10
-1.3199
 20
294.195
 11
-1.66106
 21
294.383
  0
LINE
  8
0
 10
-1.66106
 20
294.383
 11
-1.97601
 21
294.611
  0
LINE
  8
0
 10
-1.97601
 20
294.611
 11
-2.2598
 21
294.878
  0
LINE
  8
0
 10
-2.2598
 20
294.878
 11
-2.50795
 21
295.178
  0
LINE
  8
0
 10
-2.50795
 20
295.178
 11
-2.71654
 21
295.507
  0
LINE
  8
0
 10
-2.71654
 20
295.507
 11
-2.88229
 21
295.859
  0
LINE
  8
0
 10
-2.88229
 20
295.859
 11
-3.00259
 21
296.229
  0
LINE
  8
0
 10
-3.00259
 20
296.229
 11
-3.07555
 21
296.611
  0
LINE
  8
0
 10
-3.07555
 20
296.611
 11
-3.09999
 21
297
  0
LINE
  8
0
 10
-3.09999
 20
297
 11
-3.07555
 21
297.389
  0
LINE
  8
0
 10
-3.07555
 20
297.389
 11
-3.00259
 21
297.771
  0
LINE
  8
0
 10
-3.00259
 20
297.771
 11
-2.88229
 21
298.141
  0
LINE
  8
0
 10
-2.88229
 20
298.141
 11
-2.71654
 21
298.493
  0
LINE
  8
0
 10
-2.71654
 20
298.493
 11
-2.50795
 21
298.822
  0
LINE
  8
0
 10
-2.50795
 20
298.822
 11
-2.2598
 21
299.122
  0
LINE
  8
0
 10
-2.2598
 20
299.122
 11
-1.97601
 21
299.389
  0
LINE
  8
0
 10
-1.97601
 20
299.389
 11
-1.66106
 21
299.617
  0
LINE
  8
0
 10
-1.66106
 20
299.617
 11
-1.3199
 21
299.805
  0
LINE
  8
0
 10
-1.3199
 20
299.805
 11
-0.957947
 21
299.948
  0
LINE
  8
0
 10
-0.957947
 20
299.948
 11
-0.580872
 21
300.045
  0
LINE
  8
0
 10
-0.580872
 20
300.045
 11
-0.194641
 21
300.094
  0
LINE
  8
0
 10
-0.194641
 20
300.094
 11
0.194641
 21
300.094
  0
LINE
  8
0
 10
0.194641
 20
300.094
 11
0.580872
 21
300.045
  0
LINE
  8
0
 10
0.580872
 20
300.045
 11
0.957947
 21
299.948
  0
LINE
  8
0
 10
0.957947
 20
299.948
 11
1.3199
 21
299.805
  0
LINE
  8
0
 10
1.3199
 20
299.805
 11
1.66106
 21
299.617
  0
LINE
  8
0
 10
1.66106
 20
299.617
 11
1.97601
 21
299.389
  0
LINE
  8
0
 10
1.97601
 20
299.389
 11
2.2598
 21
299.122
  0
LINE
  8
0
 10
2.2598
 20
299.122
 11
2.50795
 21
298.822
  0
LINE
  8
0
 10
2.50795
 20
298.822
 11
2.71654
 21
298.493
  0
LINE
  8
0
 10
2.71654
 20
298.493
 11
2.88229
 21
298.141
  0
LINE
  8
0
 10
2.88229
 20
298.141
 11
3.00259
 21
297.771
  0
LINE
  8
0
 10
3.00259
 20
297.771
 11
3.07555
 21
297.389
  0
LINE
  8
0
 10
3.07555
 20
297.389
 11
3.09999
 21
297
  0
LINE
  8
0
 10
3.09999
 20
297
 11
3.07555
 21
296.611
  0
LINE
  8
0
 10
3.07555
 20
296.611
 11
3.00259
 21
296.229
  0
LINE
  8
0
 10
3.00259
 20
296.229
 11
2.88229
 21
295.859
  0
LINE
  8
0
 10
2.88229
 20
295.859
 11
2.71654
 21
295.507
  0
LINE
  8
0
 10
2.71654
 20
295.507
 11
2.50795
 21
295.178
  0
LINE
  8
0
 10
2.50795
 20
295.178
 11
2.2598
 21
294.878
  0
LINE
  8
0
 10
2.2598
 20
294.878
 11
1.97601
 21
294.611
  0
LINE
  8
0
 10
1.97601
 20
294.611
 11
1.66106
 21
294.383
  0
LINE
  8
0
 10
1.66106
 20
294.383
 11
1.3199
 21
294.195
  0
LINE
  8
0
 10
1.3199
 20
294.195
 11
0.957947
 21
294.052
  0
LINE
  8
0
 10
0.957947
 20
294.052
 11
0.580872
 21
293.955
  0
LINE
  8
0
 10
0.580872
 20
293.955
 11
0.194641
 21
293.906
  0
LINE
  8
0
 10
0.194641
 20
293.906
 11
-0.194641
 21
293.906
  0
LINE
  8
0
 10
-7.68837
 20
294.006
 11
-8.06213
 21
294.053
  0
LINE
  8
0
 10
-8.06213
 20
294.053
 11
-8.42705
 21
294.147
  0
LINE
  8
0
 10
-8.42705
 20
294.147
 11
-8.77733
 21
294.286
  0
LINE
  8
0
 10
-8.77733
 20
294.286
 11
-9.10747
 21
294.467
  0
LINE
  8
0
 10
-9.10747
 20
294.467
 11
-9.41226
 21
294.688
  0
LINE
  8
0
 10
-9.41226
 20
294.688
 11
-9.6869
 21
294.946
  0
LINE
  8
0
 10
-9.6869
 20
294.946
 11
-9.92705
 21
295.237
  0
LINE
  8
0
 10
-9.92705
 20
295.237
 11
-10.1289
 21
295.555
  0
LINE
  8
0
 10
-10.1289
 20
295.555
 11
-10.2893
 21
295.896
  0
LINE
  8
0
 10
-10.2893
 20
295.896
 11
-10.4057
 21
296.254
  0
LINE
  8
0
 10
-10.4057
 20
296.254
 11
-10.4763
 21
296.624
  0
LINE
  8
0
 10
-10.4763
 20
296.624
 11
-10.5
 21
297
  0
LINE
  8
0
 10
-10.5
 20
297
 11
-10.4763
 21
297.376
  0
LINE
  8
0
 10
-10.4763
 20
297.376
 11
-10.4057
 21
297.746
  0
LINE
  8
0
 10
-10.4057
 20
297.746
 11
-10.2893
 21
298.104
  0
LINE
  8
0
 10
-10.2893
 20
298.104
 11
-10.1289
 21
298.445
  0
LINE
  8
0
 10
-10.1289
 20
298.445
 11
-9.92705
 21
298.763
  0
LINE
  8
0
 10
-9.92705
 20
298.763
 11
-9.6869
 21
299.054
  0
LINE
  8
0
 10
-9.6869
 20
299.054
 11
-9.41226
 21
299.312
  0
LINE
  8
0
 10
-9.41226
 20
299.312
 11
-9.10747
 21
299.533
  0
LINE
  8
0
 10
-9.10747
 20
299.533
 11
-8.77733
 21
299.714
  0
LINE
  8
0
 10
-8.77733
 20
299.714
 11
-8.42705
 21
299.853
  0
LINE
  8
0
 10
-8.42705
 20
299.853
 11
-8.06213
 21
299.947
  0
LINE
  8
0
 10
-8.06213
 20
299.947
 11
-7.68837
 21
299.994
  0
LINE
  8
0
 10
-7.68837
 20
299.994
 11
-7.31161
 21
299.994
  0
LINE
  8
0
 10
-7.31161
 20
299.994
 11
-6.93785
 21
299.947
  0
LINE
  8
0
 10
-6.93785
 20
299.947
 11
-6.57294
 21
299.853
  0
LINE
  8
0
 10
-6.57294
 20
299.853
 11
-6.22266
 21
299.714
  0
LINE
  8
0
 10
-6.22266
 20
299.714
 11
-5.89252
 21
299.533
  0
LINE
  8
0
 10
-5.89252
 20
299.533
 11
-5.58772
 21
299.312
  0
LINE
  8
0
 10
-5.58772
 20
299.312
 11
-5.31308
 21
299.054
  0
LINE
  8
0
 10
-5.31308
 20
299.054
 11
-5.07294
 21
298.763
  0
LINE
  8
0
 10
-5.07294
 20
298.763
 11
-4.87108
 21
298.445
  0
LINE
  8
0
 10
-4.87108
 20
298.445
 11
-4.71066
 21
298.104
  0
LINE
  8
0
 10
-4.71066
 20
298.104
 11
-4.59424
 21
297.746
  0
LINE
  8
0
 10
-4.59424
 20
297.746
 11
-4.52365
 21
297.376
  0
LINE
  8
0
 10
-4.52365
 20
297.376
 11
-4.5
 21
297
  0
LINE
  8
0
 10
-4.5
 20
297
 11
-4.52365
 21
296.624
  0
LINE
  8
0
 10
-4.52365
 20
296.624
 11
-4.59424
 21
296.254
  0
LINE
  8
0
 10
-4.59424
 20
296.254
 11
-4.71066
 21
295.896
  0
LINE
  8
0
 10
-4.71066
 20
295.896
 11
-4.87108
 21
295.555
  0
LINE
  8
0
 10
-4.87108
 20
295.555
 11
-5.07294
 21
295.237
  0
LINE
  8
0
 10
-5.07294
 20
295.237
 11
-5.31308
 21
294.946
  0
LINE
  8
0
 10
-5.31308
 20
294.946
 11
-5.58772
 21
294.688
  0
LINE
  8
0
 10
-5.58772
 20
294.688
 11
-5.89252
 21
294.467
  0
LINE
  8
0
 10
-5.89252
 20
294.467
 11
-6.22266
 21
294.286
  0
LINE
  8
0
 10
-6.22266
 20
294.286
 11
-6.57294
 21
294.147
  0
LINE
  8
0
 10
-6.57294
 20
294.147
 11
-6.93785
 21
294.053
  0
LINE
  8
0
 10
-6.93785
 20
294.053
 11
-7.31161
 21
294.006
  0
LINE
  8
0
 10
-7.31161
 20
294.006
 11
-7.68837
 21
294.006
  0
LINE
  8
0
 10
7.31161
 20
294.006
 11
6.93785
 21
294.053
  0
LINE
  8
0
 10
6.93785
 20
294.053
 11
6.57294
 21
294.147
  0
LINE
  8
0
 10
6.57294
 20
294.147
 11
6.22266
 21
294.286
  0
LINE
  8
0
 10
6.22266
 20
294.286
 11
5.89252
 21
294.467
  0
LINE
  8
0
 10
5.89252
 20
294.467
 11
5.58772
 21
294.688
  0
LINE
  8
0
 10
5.58772
 20
294.688
 11
5.31308
 21
294.946
  0
LINE
  8
0
 10
5.31308
 20
294.946
 11
5.07294
 21
295.237
  0
LINE
  8
0
 10
5.07294
 20
295.237
 11
4.87108
 21
295.555
  0
LINE
  8
0
 10
4.87108
 20
295.555
 11
4.71066
 21
295.896
  0
LINE
  8
0
 10
4.71066
 20
295.896
 11
4.59424
 21
296.254
  0
LINE
  8
0
 10
4.59424
 20
296.254
 11
4.52365
 21
296.624
  0
LINE
  8
0
 10
4.52365
 20
296.624
 11
4.5
 21
297
  0
LINE
  8
0
 10
4.5
 20
297
 11
4.52365
 21
297.376
  0
LINE
  8
0
 10
4.52365
 20
297.376
 11
4.59424
 21
297.746
  0
LINE
  8
0
 10
4.59424
 20
297.746
 11
4.71066
 21
298.104
  0
LINE
  8
0
 10
4.71066
 20
298.104
 11
4.87108
 21
298.445
  0
LINE
  8
0
 10
4.87108
 20
298.445
 11
5.07294
 21
298.763
  0
LINE
  8
0
 10
5.07294
 20
298.763
 11
5.31308
 21
299.054
  0
LINE
  8
0
 10
5.31308
 20
299.054
 11
5.58772
 21
299.312
  0
LINE
  8
0
 10
5.58772
 20
299.312
 11
5.89252
 21
299.533
  0
LINE
  8
0
 10
5.89252
 20
299.533
 11
6.22266
 21
299.714
  0
LINE
  8
0
 10
6.22266
 20
299.714
 11
6.57294
 21
299.853
  0
LINE
  8
0
 10
6.57294
 20
299.853
 11
6.93785
 21
299.947
  0
LINE
  8
0
 10
6.93785
 20
299.947
 11
7.31161
 21
299.994
  0
LINE
  8
0
 10
7.31161
 20
299.994
 11
7.68837
 21
299.994
  0
LINE
  8
0
 10
7.68837
 20
299.994
 11
8.06213
 21
299.947
  0
LINE
  8
0
 10
8.06213
 20
299.947
 11
8.42705
 21
299.853
  0
LINE
  8
0
 10
8.42705
 20
299.853
 11
8.77733
 21
299.714
  0
LINE
  8
0
 10
8.77733
 20
299.714
 11
9.10747
 21
299.533
  0
LINE
  8
0
 10
9.10747
 20
299.533
 11
9.41226
 21
299.312
  0
LINE
  8
0
 10
9.41226
 20
299.312
 11
9.6869
 21
299.054
  0
LINE
  8
0
 10
9.6869
 20
299.054
 11
9.92705
 21
298.763
  0
LINE
  8
0
 10
9.92705
 20
298.763
 11
10.1289
 21
298.445
  0
LINE
  8
0
 10
10.1289
 20
298.445
 11
10.2893
 21
298.104
  0
LINE
  8
0
 10
10.2893
 20
298.104
 11
10.4057
 21
297.746
  0
LINE
  8
0
 10
10.4057
 20
297.746
 11
10.4763
 21
297.376
  0
LINE
  8
0
 10
10.4763
 20
297.376
 11
10.5
 21
297
  0
LINE
  8
0
 10
10.5
 20
297
 11
10.4763
 21
296.624
  0
LINE
  8
0
 10
10.4763
 20
296.624
 11
10.4057
 21
296.254
  0
LINE
  8
0
 10
10.4057
 20
296.254
 11
10.2893
 21
295.896
  0
LINE
  8
0
 10
10.2893
 20
295.896
 11
10.1289
 21
295.555
  0
LINE
  8
0
 10
10.1289
 20
295.555
 11
9.92705
 21
295.237
  0
LINE
  8
0
 10
9.92705
 20
295.237
 11
9.6869
 21
294.946
  0
LINE
  8
0
 10
9.6869
 20
294.946
 11
9.41226
 21
294.688
  0
LINE
  8
0
 10
9.41226
 20
294.688
 11
9.10747
 21
294.467
  0
LINE
  8
0
 10
9.10747
 20
294.467
 11
8.77733
 21
294.286
  0
LINE
  8
0
 10
8.77733
 20
294.286
 11
8.42705
 21
294.147
  0
LINE
  8
0
 10
8.42705
 20
294.147
 11
8.06213
 21
294.053
  0
LINE
  8
0
 10
8.06213
 20
294.053
 11
7.68837
 21
294.006
  0
LINE
  8
0
 10
7.68837
 20
294.006
 11
7.31161
 21
294.006
  0
LINE
  8
0
 10
10.4369
 20
176.089
 11
11.0451
 21
176.245
  0
LINE
  8
0
 10
11.0451
 20
176.245
 11
11.6289
 21
176.476
  0
LINE
  8
0
 10
11.6289
 20
176.476
 11
12.1791
 21
176.778
  0
LINE
  8
0
 10
12.1791
 20
176.778
 11
12.6871
 21
177.147
  0
LINE
  8
0
 10
12.6871
 20
177.147
 11
13.1448
 21
177.577
  0
LINE
  8
0
 10
13.1448
 20
177.577
 11
13.5451
 21
178.061
  0
LINE
  8
0
 10
13.5451
 20
178.061
 11
13.8815
 21
178.591
  0
LINE
  8
0
 10
13.8815
 20
178.591
 11
14.1489
 21
179.159
  0
LINE
  8
0
 10
14.1489
 20
179.159
 11
14.3429
 21
179.757
  0
LINE
  8
0
 10
14.3429
 20
179.757
 11
14.4606
 21
180.373
  0
LINE
  8
0
 10
14.4606
 20
180.373
 11
14.5
 21
181
  0
LINE
  8
0
 10
14.5
 20
181
 11
14.5
 21
275
  0
LINE
  8
0
 10
14.5
 20
275
 11
14.4606
 21
275.627
  0
LINE
  8
0
 10
14.4606
 20
275.627
 11
14.3429
 21
276.243
  0
LINE
  8
0
 10
14.3429
 20
276.243
 11
14.1489
 21
276.841
  0
LINE
  8
0
 10
14.1489
 20
276.841
 11
13.8815
 21
277.409
  0
LINE
  8
0
 10
13.8815
 20
277.409
 11
13.5451
 21
277.939
  0
LINE
  8
0
 10
13.5451
 20
277.939
 11
13.1448
 21
278.423
  0
LINE
  8
0
 10
13.1448
 20
278.423
 11
12.6871
 21
278.853
  0
LINE
  8
0
 10
12.6871
 20
278.853
 11
12.1791
 21
279.222
  0
LINE
  8
0
 10
12.1791
 20
279.222
 11
11.6289
 21
279.524
  0
LINE
  8
0
 10
11.6289
 20
279.524
 11
11.0451
 21
279.755
  0
LINE
  8
0
 10
11.0451
 20
279.755
 11
10.4369
 21
279.911
  0
LINE
  8
0
 10
10.4369
 20
279.911
 11
9.81395
 21
279.99
  0
LINE
  8
0
 10
9.81395
 20
279.99
 11
-9.81395
 21
279.99
  0
LINE
  8
0
 10
-9.81395
 20
279.99
 11
-10.4369
 21
279.911
  0
LINE
  8
0
 10
-10.4369
 20
279.911
 11
-11.0451
 21
279.755
  0
LINE
  8
0
 10
-11.0451
 20
279.755
 11
-11.6289
 21
279.524
  0
LINE
  8
0
 10
-11.6289
 20
279.524
 11
-12.1791
 21
279.222
  0
LINE
  8
0
 10
-12.1791
 20
279.222
 11
-12.6871
 21
278.853
  0
LINE
  8
0
 10
-12.6871
 20
278.853
 11
-13.1448
 21
278.423
  0
LINE
  8
0
 10
-13.1448
 20
278.423
 11
-13.5451
 21
277.939
  0
LINE
  8
0
 10
-13.5451
 20
277.939
 11
-13.8815
 21
277.409
  0
LINE
  8
0
 10
-13.8815
 20
277.409
 11
-14.1489
 21
276.841
  0
LINE
  8
0
 10
-14.1489
 20
276.841
 11
-14.3429
 21
276.243
  0
LINE
  8
0
 10
-14.3429
 20
276.243
 11
-14.4606
 21
275.627
  0
LINE
  8
0
 10
-14.4606
 20
275.627
 11
-14.5
 21
275
  0
LINE
  8
0
 10
-14.5
 20
275
 11
-14.5
 21
181
  0
LINE
  8
0
 10
-14.5
 20
181
 11
-14.4606
 21
180.373
  0
LINE
  8
0
 10
-14.4606
 20
180.373
 11
-14.3429
 21
179.757
  0
LINE
  8
0
 10
-14.3429
 20
179.757
 11
-14.1489
 21
179.159
  0
LINE
  8
0
 10
-14.1489
 20
179.159
 11
-13.8815
 21
178.591
  0
LINE
  8
0
 10
-13.8815
 20
178.591
 11
-13.5451
 21
178.061
  0
LINE
  8
0
 10
-13.5451
 20
178.061
 11
-13.1448
 21
177.577
  0
LINE
  8
0
 10
-13.1448
 20
177.577
 11
-12.6871
 21
177.147
  0
LINE
  8
0
 10
-12.6871
 20
177.147
 11
-12.1791
 21
176.778
  0
LINE
  8
0
 10
-12.1791
 20
176.778
 11
-11.6289
 21
176.476
  0
LINE
  8
0
 10
-11.6289
 20
176.476
 11
-11.0451
 21
176.245
  0
LINE
  8
0
 10
-11.0451
 20
176.245
 11
-10.4369
 21
176.089
  0
LINE
  8
0
 10
-10.4369
 20
176.089
 11
-9.81395
 21
176.01
  0
LINE
  8
0
 10
-9.81395
 20
176.01
 11
9.81395
 21
176.01
  0
LINE
  8
0
 10
9.81395
 20
176.01
 11
10.4369
 21
176.089
  0
LINE
  8
0
 10
7.31161
 20
270.006
 11
6.93785
 21
270.053
  0
LINE
  8
0
 10
6.93785
 20
270.053
 11
6.57294
 21
270.147
  0
LINE
  8
0
 10
6.57294
 20
270.147
 11
6.22266
 21
270.286
  0
LINE
  8
0
 10
6.22266
 20
270.286
 11
5.89252
 21
270.467
  0
LINE
  8
0
 10
5.89252
 20
270.467
 11
5.58772
 21
270.688
  0
LINE
  8
0
 10
5.58772
 20
270.688
 11
5.31308
 21
270.946
  0
LINE
  8
0
 10
5.31308
 20
270.946
 11
5.07294
 21
271.237
  0
LINE
  8
0
 10
5.07294
 20
271.237
 11
4.87108
 21
271.555
  0
LINE
  8
0
 10
4.87108
 20
271.555
 11
4.71066
 21
271.896
  0
LINE
  8
0
 10
4.71066
 20
271.896
 11
4.59424
 21
272.254
  0
LINE
  8
0
 10
4.59424
 20
272.254
 11
4.52365
 21
272.624
  0
LINE
  8
0
 10
4.52365
 20
272.624
 11
4.5
 21
273
  0
LINE
  8
0
 10
4.5
 20
273
 11
4.52365
 21
273.376
  0
LINE
  8
0
 10
4.52365
 20
273.376
 11
4.59424
 21
273.746
  0
LINE
  8
0
 10
4.59424
 20
273.746
 11
4.71066
 21
274.104
  0
LINE
  8
0
 10
4.71066
 20
274.104
 11
4.87108
 21
274.445
  0
LINE
  8
0
 10
4.87108
 20
274.445
 11
5.07294
 21
274.763
  0
LINE
  8
0
 10
5.07294
 20
274.763
 11
5.31308
 21
275.054
  0
LINE
  8
0
 10
5.31308
 20
275.054
 11
5.58772
 21
275.312
  0
LINE
  8
0
 10
5.58772
 20
275.312
 11
5.89252
 21
275.533
  0
LINE
  8
0
 10
5.89252
 20
275.533
 11
6.22266
 21
275.714
  0
LINE
  8
0
 10
6.22266
 20
275.714
 11
6.57294
 21
275.853
  0
LINE
  8
0
 10
6.57294
 20
275.853
 11
6.93785
 21
275.947
  0
LINE
  8
0
 10
6.93785
 20
275.947
 11
7.31161
 21
275.994
  0
LINE
  8
0
 10
7.31161
 20
275.994
 11
7.68837
 21
275.994
  0
LINE
  8
0
 10
7.68837
 20
275.994
 11
8.06213
 21
275.947
  0
LINE
  8
0
 10
8.06213
 20
275.947
 11
8.42705
 21
275.853
  0
LINE
  8
0
 10
8.42705
 20
275.853
 11
8.77733
 21
275.714
  0
LINE
  8
0
 10
8.77733
 20
275.714
 11
9.10747
 21
275.533
  0
LINE
  8
0
 10
9.10747
 20
275.533
 11
9.41226
 21
275.312
  0
LINE
  8
0
 10
9.41226
 20
275.312
 11
9.6869
 21
275.054
  0
LINE
  8
0
 10
9.6869
 20
275.054
 11
9.92705
 21
274.763
  0
LINE
  8
0
 10
9.92705
 20
274.763
 11
10.1289
 21
274.445
  0
LINE
  8
0
 10
10.1289
 20
274.445
 11
10.2893
 21
274.104
  0
LINE
  8
0
 10
10.2893
 20
274.104
 11
10.4057
 21
273.746
  0
LINE
  8
0
 10
10.4057
 20
273.746
 11
10.4763
 21
273.376
  0
LINE
  8
0
 10
10.4763
 20
273.376
 11
10.5
 21
273
  0
LINE
  8
0
 10
10.5
 20
273
 11
10.4763
 21
272.624
  0
LINE
  8
0
 10
10.4763
 20
272.624
 11
10.4057
 21
272.254
  0
LINE
  8
0
 10
10.4057
 20
272.254
 11
10.2893
 21
271.896
  0
LINE
  8
0
 10
10.2893
 20
271.896
 11
10.1289
 21
271.555
  0
LINE
  8
0
 10
10.1289
 20
271.555
 11
9.92705
 21
271.237
  0
LINE
  8
0
 10
9.92705
 20
271.237
 11
9.6869
 21
270.946
  0
LINE
  8
0
 10
9.6869
 20
270.946
 11
9.41226
 21
270.688
  0
LINE
  8
0
 10
9.41226
 20
270.688
 11
9.10747
 21
270.467
  0
LINE
  8
0
 10
9.10747
 20
270.467
 11
8.77733
 21
270.286
  0
LINE
  8
0
 10
8.77733
 20
270.286
 11
8.42705
 21
270.147
  0
LINE
  8
0
 10
8.42705
 20
270.147
 11
8.06213
 21
270.053
  0
LINE
  8
0
 10
8.06213
 20
270.053
 11
7.68837
 21
270.006
  0
LINE
  8
0
 10
7.68837
 20
270.006
 11
7.31161
 21
270.006
  0
LINE
  8
0
 10
-7.68837
 20
270.006
 11
-8.06213
 21
270.053
  0
LINE
  8
0
 10
-8.06213
 20
270.053
 11
-8.42705
 21
270.147
  0
LINE
  8
0
 10
-8.42705
 20
270.147
 11
-8.77733
 21
270.286
  0
LINE
  8
0
 10
-8.77733
 20
270.286
 11
-9.10747
 21
270.467
  0
LINE
  8
0
 10
-9.10747
 20
270.467
 11
-9.41226
 21
270.688
  0
LINE
  8
0
 10
-9.41226
 20
270.688
 11
-9.6869
 21
270.946
  0
LINE
  8
0
 10
-9.6869
 20
270.946
 11
-9.92705
 21
271.237
  0
LINE
  8
0
 10
-9.92705
 20
271.237
 11
-10.1289
 21
271.555
  0
LINE
  8
0
 10
-10.1289
 20
271.555
 11
-10.2893
 21
271.896
  0
LINE
  8
0
 10
-10.2893
 20
271.896
 11
-10.4057
 21
272.254
  0
LINE
  8
0
 10
-10.4057
 20
272.254
 11
-10.4763
 21
272.624
  0
LINE
  8
0
 10
-10.4763
 20
272.624
 11
-10.5
 21
273
  0
LINE
  8
0
 10
-10.5
 20
273
 11
-10.4763
 21
273.376
  0
LINE
  8
0
 10
-10.4763
 20
273.376
 11
-10.4057
 21
273.746
  0
LINE
  8
0
 10
-10.4057
 20
273.746
 11
-10.2893
 21
274.104
  0
LINE
  8
0
 10
-10.2893
 20
274.104
 11
-10.1289
 21
274.445
  0
LINE
  8
0
 10
-10.1289
 20
274.445
 11
-9.92705
 21
274.763
  0
LINE
  8
0
 10
-9.92705
 20
274.763
 11
-9.6869
 21
275.054
  0
LINE
  8
0
 10
-9.6869
 20
275.054
 11
-9.41226
 21
275.312
  0
LINE
  8
0
 10
-9.41226
 20
275.312
 11
-9.10747
 21
275.533
  0
LINE
  8
0
 10
-9.10747
 20
275.533
 11
-8.77733
 21
275.714
  0
LINE
  8
0
 10
-8.77733
 20
275.714
 11
-8.42705
 21
275.853
  0
LINE
  8
0
 10
-8.42705
 20
275.853
 11
-8.06213
 21
275.947
  0
LINE
  8
0
 10
-8.06213
 20
275.947
 11
-7.68837
 21
275.994
  0
LINE
  8
0
 10
-7.68837
 20
275.994
 11
-7.31161
 21
275.994
  0
LINE
  8
0
 10
-7.31161
 20
275.994
 11
-6.93785
 21
275.947
  0
LINE
  8
0
 10
-6.93785
 20
275.947
 11
-6.57294
 21
275.853
  0
LINE
  8
0
 10
-6.57294
 20
275.853
 11
-6.22266
 21
275.714
  0
LINE
  8
0
 10
-6.22266
 20
275.714
 11
-5.89252
 21
275.533
  0
LINE
  8
0
 10
-5.89252
 20
275.533
 11
-5.58772
 21
275.312
  0
LINE
  8
0
 10
-5.58772
 20
275.312
 11
-5.31308
 21
275.054
  0
LINE
  8
0
 10
-5.31308
 20
275.054
 11
-5.07294
 21
274.763
  0
LINE
  8
0
 10
-5.07294
 20
274.763
 11
-4.87108
 21
274.445
  0
LINE
  8
0
 10
-4.87108
 20
274.445
 11
-4.71066
 21
274.104
  0
LINE
  8
0
 10
-4.71066
 20
274.104
 11
-4.59424
 21
273.746
  0
LINE
  8
0
 10
-4.59424
 20
273.746
 11
-4.52365
 21
273.376
  0
LINE
  8
0
 10
-4.52365
 20
273.376
 11
-4.5
 21
273
  0
LINE
  8
0
 10
-4.5
 20
273
 11
-4.52365
 21
272.624
  0
LINE
  8
0
 10
-4.52365
 20
272.624
 11
-4.59424
 21
272.254
  0
LINE
  8
0
 10
-4.59424
 20
272.254
 11
-4.71066
 21
271.896
  0
LINE
  8
0
 10
-4.71066
 20
271.896
 11
-4.87108
 21
271.555
  0
LINE
  8
0
 10
-4.87108
 20
271.555
 11
-5.07294
 21
271.237
  0
LINE
  8
0
 10
-5.07294
 20
271.237
 11
-5.31308
 21
270.946
  0
LINE
  8
0
 10
-5.31308
 20
270.946
 11
-5.58772
 21
270.688
  0
LINE
  8
0
 10
-5.58772
 20
270.688
 11
-5.89252
 21
270.467
  0
LINE
  8
0
 10
-5.89252
 20
270.467
 11
-6.22266
 21
270.286
  0
LINE
  8
0
 10
-6.22266
 20
270.286
 11
-6.57294
 21
270.147
  0
LINE
  8
0
 10
-6.57294
 20
270.147
 11
-6.93785
 21
270.053
  0
LINE
  8
0
 10
-6.93785
 20
270.053
 11
-7.31161
 21
270.006
  0
LINE
  8
0
 10
-7.31161
 20
270.006
 11
-7.68837
 21
270.006
  0
LINE
  8
0
 10
-0.133423
 20
270.879
 11
-0.398178
 21
270.913
  0
LINE
  8
0
 10
-0.398178
 20
270.913
 11
-0.656647
 21
270.979
  0
LINE
  8
0
 10
-0.656647
 20
270.979
 11
-0.90477
 21
271.077
  0
LINE
  8
0
 10
-0.90477
 20
271.077
 11
-1.13863
 21
271.206
  0
LINE
  8
0
 10
-1.13863
 20
271.206
 11
-1.35452
 21
271.363
  0
LINE
  8
0
 10
-1.35452
 20
271.363
 11
-1.54906
 21
271.545
  0
LINE
  8
0
 10
-1.54906
 20
271.545
 11
-1.71915
 21
271.751
  0
LINE
  8
0
 10
-1.71915
 20
271.751
 11
-1.86214
 21
271.976
  0
LINE
  8
0
 10
-1.86214
 20
271.976
 11
-1.97577
 21
272.218
  0
LINE
  8
0
 10
-1.97577
 20
272.218
 11
-2.05823
 21
272.472
  0
LINE
  8
0
 10
-2.05823
 20
272.472
 11
-2.10823
 21
272.734
  0
LINE
  8
0
 10
-2.10823
 20
272.734
 11
-2.125
 21
273
  0
LINE
  8
0
 10
-2.125
 20
273
 11
-2.10823
 21
273.266
  0
LINE
  8
0
 10
-2.10823
 20
273.266
 11
-2.05823
 21
273.528
  0
LINE
  8
0
 10
-2.05823
 20
273.528
 11
-1.97577
 21
273.782
  0
LINE
  8
0
 10
-1.97577
 20
273.782
 11
-1.86214
 21
274.024
  0
LINE
  8
0
 10
-1.86214
 20
274.024
 11
-1.71915
 21
274.249
  0
LINE
  8
0
 10
-1.71915
 20
274.249
 11
-1.54906
 21
274.455
  0
LINE
  8
0
 10
-1.54906
 20
274.455
 11
-1.35452
 21
274.637
  0
LINE
  8
0
 10
-1.35452
 20
274.637
 11
-1.13863
 21
274.794
  0
LINE
  8
0
 10
-1.13863
 20
274.794
 11
-0.90477
 21
274.923
  0
LINE
  8
0
 10
-0.90477
 20
274.923
 11
-0.656647
 21
275.021
  0
LINE
  8
0
 10
-0.656647
 20
275.021
 11
-0.398178
 21
275.087
  0
LINE
  8
0
 10
-0.398178
 20
275.087
 11
-0.133423
 21
275.121
  0
LINE
  8
0
 10
-0.133423
 20
275.121
 11
0.133423
 21
275.121
  0
LINE
  8
0
 10
0.133423
 20
275.121
 11
0.398178
 21
275.087
  0
LINE
  8
0
 10
0.398178
 20
275.087
 11
0.656647
 21
275.021
  0
LINE
  8
0
 10
0.656647
 20
275.021
 11
0.90477
 21
274.923
  0
LINE
  8
0
 10
0.90477
 20
274.923
 11
1.13863
 21
274.794
  0
LINE
  8
0
 10
1.13863
 20
274.794
 11
1.35452
 21
274.637
  0
LINE
  8
0
 10
1.35452
 20
274.637
 11
1.54906
 21
274.455
  0
LINE
  8
0
 10
1.54906
 20
274.455
 11
1.71915
 21
274.249
  0
LINE
  8
0
 10
1.71915
 20
274.249
 11
1.86214
 21
274.024
  0
LINE
  8
0
 10
1.86214
 20
274.024
 11
1.97577
 21
273.782
  0
LINE
  8
0
 10
1.97577
 20
273.782
 11
2.05823
 21
273.528
  0
LINE
  8
0
 10
2.05823
 20
273.528
 11
2.10823
 21
273.266
  0
LINE
  8
0
 10
2.10823
 20
273.266
 11
2.125
 21
273
  0
LINE
  8
0
 10
2.125
 20
273
 11
2.10823
 21
272.734
  0
LINE
  8
0
 10
2.10823
 20
272.734
 11
2.05823
 21
272.472
  0
LINE
  8
0
 10
2.05823
 20
272.472
 11
1.97577
 21
272.218
  0
LINE
  8
0
 10
1.97577
 20
272.218
 11
1.86214
 21
271.976
  0
LINE
  8
0
 10
1.86214
 20
271.976
 11
1.71915
 21
271.751
  0
LINE
  8
0
 10
1.71915
 20
271.751
 11
1.54906
 21
271.545
  0
LINE
  8
0
 10
1.54906
 20
271.545
 11
1.35452
 21
271.363
  0
LINE
  8
0
 10
1.35452
 20
271.363
 11
1.13863
 21
271.206
  0
LINE
  8
0
 10
1.13863
 20
271.206
 11
0.90477
 21
271.077
  0
LINE
  8
0
 10
0.90477
 20
271.077
 11
0.656647
 21
270.979
  0
LINE
  8
0
 10
0.656647
 20
270.979
 11
0.398178
 21
270.913
  0
LINE
  8
0
 10
0.398178
 20
270.913
 11
0.133423
 21
270.879
  0
LINE
  8
0
 10
0.133423
 20
270.879
 11
-0.133423
 21
270.879
  0
LINE
  8
0
 10
-1.58675
 20
262.752
 11
-3.17349
 21
265.5
  0
LINE
  8
0
 10
-3.17349
 20
265.5
 11
-1.58675
 21
268.248
  0
LINE
  8
0
 10
-1.58675
 20
268.248
 11
1.58675
 21
268.248
  0
LINE
  8
0
 10
1.58675
 20
268.248
 11
3.17349
 21
265.5
  0
LINE
  8
0
 10
3.17349
 20
265.5
 11
1.58675
 21
262.752
  0
LINE
  8
0
 10
1.58675
 20
262.752
 11
-1.58675
 21
262.752
  0
LINE
  8
0
 10
-7.59418
 20
264.003
 11
-7.78107
 21
264.027
  0
LINE
  8
0
 10
-7.78107
 20
264.027
 11
-7.96352
 21
264.073
  0
LINE
  8
0
 10
-7.96352
 20
264.073
 11
-8.13866
 21
264.143
  0
LINE
  8
0
 10
-8.13866
 20
264.143
 11
-8.30373
 21
264.234
  0
LINE
  8
0
 10
-8.30373
 20
264.234
 11
-8.45613
 21
264.344
  0
LINE
  8
0
 10
-8.45613
 20
264.344
 11
-8.59344
 21
264.473
  0
LINE
  8
0
 10
-8.59344
 20
264.473
 11
-8.71352
 21
264.618
  0
LINE
  8
0
 10
-8.71352
 20
264.618
 11
-8.81445
 21
264.777
  0
LINE
  8
0
 10
-8.81445
 20
264.777
 11
-8.89465
 21
264.948
  0
LINE
  8
0
 10
-8.89465
 20
264.948
 11
-8.95287
 21
265.127
  0
LINE
  8
0
 10
-8.95287
 20
265.127
 11
-8.98816
 21
265.312
  0
LINE
  8
0
 10
-8.98816
 20
265.312
 11
-9
 21
265.5
  0
LINE
  8
0
 10
-9
 20
265.5
 11
-8.98816
 21
265.688
  0
LINE
  8
0
 10
-8.98816
 20
265.688
 11
-8.95287
 21
265.873
  0
LINE
  8
0
 10
-8.95287
 20
265.873
 11
-8.89465
 21
266.052
  0
LINE
  8
0
 10
-8.89465
 20
266.052
 11
-8.81445
 21
266.223
  0
LINE
  8
0
 10
-8.81445
 20
266.223
 11
-8.71352
 21
266.382
  0
LINE
  8
0
 10
-8.71352
 20
266.382
 11
-8.59344
 21
266.527
  0
LINE
  8
0
 10
-8.59344
 20
266.527
 11
-8.45613
 21
266.656
  0
LINE
  8
0
 10
-8.45613
 20
266.656
 11
-8.30373
 21
266.766
  0
LINE
  8
0
 10
-8.30373
 20
266.766
 11
-8.13866
 21
266.857
  0
LINE
  8
0
 10
-8.13866
 20
266.857
 11
-7.96352
 21
266.927
  0
LINE
  8
0
 10
-7.96352
 20
266.927
 11
-7.78107
 21
266.973
  0
LINE
  8
0
 10
-7.78107
 20
266.973
 11
-7.59418
 21
266.997
  0
LINE
  8
0
 10
-7.59418
 20
266.997
 11
-7.40581
 21
266.997
  0
LINE
  8
0
 10
-7.40581
 20
266.997
 11
-7.21892
 21
266.973
  0
LINE
  8
0
 10
-7.21892
 20
266.973
 11
-7.03647
 21
266.927
  0
LINE
  8
0
 10
-7.03647
 20
266.927
 11
-6.86133
 21
266.857
  0
LINE
  8
0
 10
-6.86133
 20
266.857
 11
-6.69626
 21
266.766
  0
LINE
  8
0
 10
-6.69626
 20
266.766
 11
-6.54385
 21
266.656
  0
LINE
  8
0
 10
-6.54385
 20
266.656
 11
-6.40654
 21
266.527
  0
LINE
  8
0
 10
-6.40654
 20
266.527
 11
-6.28647
 21
266.382
  0
LINE
  8
0
 10
-6.28647
 20
266.382
 11
-6.18553
 21
266.223
  0
LINE
  8
0
 10
-6.18553
 20
266.223
 11
-6.10533
 21
266.052
  0
LINE
  8
0
 10
-6.10533
 20
266.052
 11
-6.04712
 21
265.873
  0
LINE
  8
0
 10
-6.04712
 20
265.873
 11
-6.01183
 21
265.688
  0
LINE
  8
0
 10
-6.01183
 20
265.688
 11
-6
 21
265.5
  0
LINE
  8
0
 10
-6
 20
265.5
 11
-6.01183
 21
265.312
  0
LINE
  8
0
 10
-6.01183
 20
265.312
 11
-6.04712
 21
265.127
  0
LINE
  8
0
 10
-6.04712
 20
265.127
 11
-6.10533
 21
264.948
  0
LINE
  8
0
 10
-6.10533
 20
264.948
 11
-6.18553
 21
264.777
  0
LINE
  8
0
 10
-6.18553
 20
264.777
 11
-6.28647
 21
264.618
  0
LINE
  8
0
 10
-6.28647
 20
264.618
 11
-6.40654
 21
264.473
  0
LINE
  8
0
 10
-6.40654
 20
264.473
 11
-6.54385
 21
264.344
  0
LINE
  8
0
 10
-6.54385
 20
264.344
 11
-6.69626
 21
264.234
  0
LINE
  8
0
 10
-6.69626
 20
264.234
 11
-6.86133
 21
264.143
  0
LINE
  8
0
 10
-6.86133
 20
264.143
 11
-7.03647
 21
264.073
  0
LINE
  8
0
 10
-7.03647
 20
264.073
 11
-7.21892
 21
264.027
  0
LINE
  8
0
 10
-7.21892
 20
264.027
 11
-7.40581
 21
264.003
  0
LINE
  8
0
 10
-7.40581
 20
264.003
 11
-7.59418
 21
264.003
  0
LINE
  8
0
 10
7.40581
 20
264.003
 11
7.21892
 21
264.027
  0
LINE
  8
0
 10
7.21892
 20
264.027
 11
7.03647
 21
264.073
  0
LINE
  8
0
 10
7.03647
 20
264.073
 11
6.86133
 21
264.143
  0
LINE
  8
0
 10
6.86133
 20
264.143
 11
6.69626
 21
264.234
  0
LINE
  8
0
 10
6.69626
 20
264.234
 11
6.54385
 21
264.344
  0
LINE
  8
0
 10
6.54385
 20
264.344
 11
6.40654
 21
264.473
  0
LINE
  8
0
 10
6.40654
 20
264.473
 11
6.28647
 21
264.618
  0
LINE
  8
0
 10
6.28647
 20
264.618
 11
6.18553
 21
264.777
  0
LINE
  8
0
 10
6.18553
 20
264.777
 11
6.10533
 21
264.948
  0
LINE
  8
0
 10
6.10533
 20
264.948
 11
6.04712
 21
265.127
  0
LINE
  8
0
 10
6.04712
 20
265.127
 11
6.01183
 21
265.312
  0
LINE
  8
0
 10
6.01183
 20
265.312
 11
6
 21
265.5
  0
LINE
  8
0
 10
6
 20
265.5
 11
6.01183
 21
265.688
  0
LINE
  8
0
 10
6.01183
 20
265.688
 11
6.04712
 21
265.873
  0
LINE
  8
0
 10
6.04712
 20
265.873
 11
6.10533
 21
266.052
  0
LINE
  8
0
 10
6.10533
 20
266.052
 11
6.18553
 21
266.223
  0
LINE
  8
0
 10
6.18553
 20
266.223
 11
6.28647
 21
266.382
  0
LINE
  8
0
 10
6.28647
 20
266.382
 11
6.40654
 21
266.527
  0
LINE
  8
0
 10
6.40654
 20
266.527
 11
6.54385
 21
266.656
  0
LINE
  8
0
 10
6.54385
 20
266.656
 11
6.69626
 21
266.766
  0
LINE
  8
0
 10
6.69626
 20
266.766
 11
6.86133
 21
266.857
  0
LINE
  8
0
 10
6.86133
 20
266.857
 11
7.03647
 21
266.927
  0
LINE
  8
0
 10
7.03647
 20
266.927
 11
7.21892
 21
266.973
  0
LINE
  8
0
 10
7.21892
 20
266.973
 11
7.40581
 21
266.997
  0
LINE
  8
0
 10
7.40581
 20
266.997
 11
7.59418
 21
266.997
  0
LINE
  8
0
 10
7.59418
 20
266.997
 11
7.78107
 21
266.973
  0
LINE
  8
0
 10
7.78107
 20
266.973
 11
7.96352
 21
266.927
  0
LINE
  8
0
 10
7.96352
 20
266.927
 11
8.13866
 21
266.857
  0
LINE
  8
0
 10
8.13866
 20
266.857
 11
8.30373
 21
266.766
  0
LINE
  8
0
 10
8.30373
 20
266.766
 11
8.45613
 21
266.656
  0
LINE
  8
0
 10
8.45613
 20
266.656
 11
8.59344
 21
266.527
  0
LINE
  8
0
 10
8.59344
 20
266.527
 11
8.71352
 21
266.382
  0
LINE
  8
0
 10
8.71352
 20
266.382
 11
8.81445
 21
266.223
  0
LINE
  8
0
 10
8.81445
 20
266.223
 11
8.89465
 21
266.052
  0
LINE
  8
0
 10
8.89465
 20
266.052
 11
8.95287
 21
265.873
  0
LINE
  8
0
 10
8.95287
 20
265.873
 11
8.98816
 21
265.688
  0
LINE
  8
0
 10
8.98816
 20
265.688
 11
9
 21
265.5
  0
LINE
  8
0
 10
9
 20
265.5
 11
8.98816
 21
265.312
  0
LINE
  8
0
 10
8.98816
 20
265.312
 11
8.95287
 21
265.127
  0
LINE
  8
0
 10
8.95287
 20
265.127
 11
8.89465
 21
264.948
  0
LINE
  8
0
 10
8.89465
 20
264.948
 11
8.81445
 21
264.777
  0
LINE
  8
0
 10
8.81445
 20
264.777
 11
8.71352
 21
264.618
  0
LINE
  8
0
 10
8.71352
 20
264.618
 11
8.59344
 21
264.473
  0
LINE
  8
0
 10
8.59344
 20
264.473
 11
8.45613
 21
264.344
  0
LINE
  8
0
 10
8.45613
 20
264.344
 11
8.30373
 21
264.234
  0
LINE
  8
0
 10
8.30373
 20
264.234
 11
8.13866
 21
264.143
  0
LINE
  8
0
 10
8.13866
 20
264.143
 11
7.96352
 21
264.073
  0
LINE
  8
0
 10
7.96352
 20
264.073
 11
7.78107
 21
264.027
  0
LINE
  8
0
 10
7.78107
 20
264.027
 11
7.59418
 21
264.003
  0
LINE
  8
0
 10
7.59418
 20
264.003
 11
7.40581
 21
264.003
  0
LINE
  8
0
 10
-1.58675
 20
187.752
 11
-3.17349
 21
190.5
  0
LINE
  8
0
 10
-3.17349
 20
190.5
 11
-1.58675
 21
193.248
  0
LINE
  8
0
 10
-1.58675
 20
193.248
 11
1.58675
 21
193.248
  0
LINE
  8
0
 10
1.58675
 20
193.248
 11
3.17349
 21
190.5
  0
LINE
  8
0
 10
3.17349
 20
190.5
 11
1.58675
 21
187.752
  0
LINE
  8
0
 10
1.58675
 20
187.752
 11
-1.58675
 21
187.752
  0
LINE
  8
0
 10
-7.59418
 20
189.003
 11
-7.78107
 21
189.027
  0
LINE
  8
0
 10
-7.78107
 20
189.027
 11
-7.96352
 21
189.073
  0
LINE
  8
0
 10
-7.96352
 20
189.073
 11
-8.13866
 21
189.143
  0
LINE
  8
0
 10
-8.13866
 20
189.143
 11
-8.30373
 21
189.234
  0
LINE
  8
0
 10
-8.30373
 20
189.234
 11
-8.45613
 21
189.344
  0
LINE
  8
0
 10
-8.45613
 20
189.344
 11
-8.59344
 21
189.473
  0
LINE
  8
0
 10
-8.59344
 20
189.473
 11
-8.71352
 21
189.618
  0
LINE
  8
0
 10
-8.71352
 20
189.618
 11
-8.81445
 21
189.777
  0
LINE
  8
0
 10
-8.81445
 20
189.777
 11
-8.89465
 21
189.948
  0
LINE
  8
0
 10
-8.89465
 20
189.948
 11
-8.95287
 21
190.127
  0
LINE
  8
0
 10
-8.95287
 20
190.127
 11
-8.98816
 21
190.312
  0
LINE
  8
0
 10
-8.98816
 20
190.312
 11
-9
 21
190.5
  0
LINE
  8
0
 10
-9
 20
190.5
 11
-8.98816
 21
190.688
  0
LINE
  8
0
 10
-8.98816
 20
190.688
 11
-8.95287
 21
190.873
  0
LINE
  8
0
 10
-8.95287
 20
190.873
 11
-8.89465
 21
191.052
  0
LINE
  8
0
 10
-8.89465
 20
191.052
 11
-8.81445
 21
191.223
  0
LINE
  8
0
 10
-8.81445
 20
191.223
 11
-8.71352
 21
191.382
  0
LINE
  8
0
 10
-8.71352
 20
191.382
 11
-8.59344
 21
191.527
  0
LINE
  8
0
 10
-8.59344
 20
191.527
 11
-8.45613
 21
191.656
  0
LINE
  8
0
 10
-8.45613
 20
191.656
 11
-8.30373
 21
191.766
  0
LINE
  8
0
 10
-8.30373
 20
191.766
 11
-8.13866
 21
191.857
  0
LINE
  8
0
 10
-8.13866
 20
191.857
 11
-7.96352
 21
191.927
  0
LINE
  8
0
 10
-7.96352
 20
191.927
 11
-7.78107
 21
191.973
  0
LINE
  8
0
 10
-7.78107
 20
191.973
 11
-7.59418
 21
191.997
  0
LINE
  8
0
 10
-7.59418
 20
191.997
 11
-7.40581
 21
191.997
  0
LINE
  8
0
 10
-7.40581
 20
191.997
 11
-7.21892
 21
191.973
  0
LINE
  8
0
 10
-7.21892
 20
191.973
 11
-7.03647
 21
191.927
  0
LINE
  8
0
 10
-7.03647
 20
191.927
 11
-6.86133
 21
191.857
  0
LINE
  8
0
 10
-6.86133
 20
191.857
 11
-6.69626
 21
191.766
  0
LINE
  8
0
 10
-6.69626
 20
191.766
 11
-6.54385
 21
191.656
  0
LINE
  8
0
 10
-6.54385
 20
191.656
 11
-6.40654
 21
191.527
  0
LINE
  8
0
 10
-6.40654
 20
191.527
 11
-6.28647
 21
191.382
  0
LINE
  8
0
 10
-6.28647
 20
191.382
 11
-6.18553
 21
191.223
  0
LINE
  8
0
 10
-6.18553
 20
191.223
 11
-6.10533
 21
191.052
  0
LINE
  8
0
 10
-6.10533
 20
191.052
 11
-6.04712
 21
190.873
  0
LINE
  8
0
 10
-6.04712
 20
190.873
 11
-6.01183
 21
190.688
  0
LINE
  8
0
 10
-6.01183
 20
190.688
 11
-6
 21
190.5
  0
LINE
  8
0
 10
-6
 20
190.5
 11
-6.01183
 21
190.312
  0
LINE
  8
0
 10
-6.01183
 20
190.312
 11
-6.04712
 21
190.127
  0
LINE
  8
0
 10
-6.04712
 20
190.127
 11
-6.10533
 21
189.948
  0
LINE
  8
0
 10
-6.10533
 20
189.948
 11
-6.18553
 21
189.777
  0
LINE
  8
0
 10
-6.18553
 20
189.777
 11
-6.28647
 21
189.618
  0
LINE
  8
0
 10
-6.28647
 20
189.618
 11
-6.40654
 21
189.473
  0
LINE
  8
0
 10
-6.40654
 20
189.473
 11
-6.54385
 21
189.344
  0
LINE
  8
0
 10
-6.54385
 20
189.344
 11
-6.69626
 21
189.234
  0
LINE
  8
0
 10
-6.69626
 20
189.234
 11
-6.86133
 21
189.143
  0
LINE
  8
0
 10
-6.86133
 20
189.143
 11
-7.03647
 21
189.073
  0
LINE
  8
0
 10
-7.03647
 20
189.073
 11
-7.21892
 21
189.027
  0
LINE
  8
0
 10
-7.21892
 20
189.027
 11
-7.40581
 21
189.003
  0
LINE
  8
0
 10
-7.40581
 20
189.003
 11
-7.59418
 21
189.003
  0
LINE
  8
0
 10
7.40581
 20
189.003
 11
7.21892
 21
189.027
  0
LINE
  8
0
 10
7.21892
 20
189.027
 11
7.03647
 21
189.073
  0
LINE
  8
0
 10
7.03647
 20
189.073
 11
6.86133
 21
189.143
  0
LINE
  8
0
 10
6.86133
 20
189.143
 11
6.69626
 21
189.234
  0
LINE
  8
0
 10
6.69626
 20
189.234
 11
6.54385
 21
189.344
  0
LINE
  8
0
 10
6.54385
 20
189.344
 11
6.40654
 21
189.473
  0
LINE
  8
0
 10
6.40654
 20
189.473
 11
6.28647
 21
189.618
  0
LINE
  8
0
 10
6.28647
 20
189.618
 11
6.18553
 21
189.777
  0
LINE
  8
0
 10
6.18553
 20
189.777
 11
6.10533
 21
189.948
  0
LINE
  8
0
 10
6.10533
 20
189.948
 11
6.04712
 21
190.127
  0
LINE
  8
0
 10
6.04712
 20
190.127
 11
6.01183
 21
190.312
  0
LINE
  8
0
 10
6.01183
 20
190.312
 11
6
 21
190.5
  0
LINE
  8
0
 10
6
 20
190.5
 11
6.01183
 21
190.688
  0
LINE
  8
0
 10
6.01183
 20
190.688
 11
6.04712
 21
190.873
  0
LINE
  8
0
 10
6.04712
 20
190.873
 11
6.10533
 21
191.052
  0
LINE
  8
0
 10
6.10533
 20
191.052
 11
6.18553
 21
191.223
  0
LINE
  8
0
 10
6.18553
 20
191.223
 11
6.28647
 21
191.382
  0
LINE
  8
0
 10
6.28647
 20
191.382
 11
6.40654
 21
191.527
  0
LINE
  8
0
 10
6.40654
 20
191.527
 11
6.54385
 21
191.656
  0
LINE
  8
0
 10
6.54385
 20
191.656
 11
6.69626
 21
191.766
  0
LINE
  8
0
 10
6.69626
 20
191.766
 11
6.86133
 21
191.857
  0
LINE
  8
0
 10
6.86133
 20
191.857
 11
7.03647
 21
191.927
  0
LINE
  8
0
 10
7.03647
 20
191.927
 11
7.21892
 21
191.973
  0
LINE
  8
0
 10
7.21892
 20
191.973
 11
7.40581
 21
191.997
  0
LINE
  8
0
 10
7.40581
 20
191.997
 11
7.59418
 21
191.997
  0
LINE
  8
0
 10
7.59418
 20
191.997
 11
7.78107
 21
191.973
  0
LINE
  8
0
 10
7.78107
 20
191.973
 11
7.96352
 21
191.927
  0
LINE
  8
0
 10
7.96352
 20
191.927
 11
8.13866
 21
191.857
  0
LINE
  8
0
 10
8.13866
 20
191.857
 11
8.30373
 21
191.766
  0
LINE
  8
0
 10
8.30373
 20
191.766
 11
8.45613
 21
191.656
  0
LINE
  8
0
 10
8.45613
 20
191.656
 11
8.59344
 21
191.527
  0
LINE
  8
0
 10
8.59344
 20
191.527
 11
8.71352
 21
191.382
  0
LINE
  8
0
 10
8.71352
 20
191.382
 11
8.81445
 21
191.223
  0
LINE
  8
0
 10
8.81445
 20
191.223
 11
8.89465
 21
191.052
  0
LINE
  8
0
 10
8.89465
 20
191.052
 11
8.95287
 21
190.873
  0
LINE
  8
0
 10
8.95287
 20
190.873
 11
8.98816
 21
190.688
  0
LINE
  8
0
 10
8.98816
 20
190.688
 11
9
 21
190.5
  0
LINE
  8
0
 10
9
 20
190.5
 11
8.98816
 21
190.312
  0
LINE
  8
0
 10
8.98816
 20
190.312
 11
8.95287
 21
190.127
  0
LINE
  8
0
 10
8.95287
 20
190.127
 11
8.89465
 21
189.948
  0
LINE
  8
0
 10
8.89465
 20
189.948
 11
8.81445
 21
189.777
  0
LINE
  8
0
 10
8.81445
 20
189.777
 11
8.71352
 21
189.618
  0
LINE
  8
0
 10
8.71352
 20
189.618
 11
8.59344
 21
189.473
  0
LINE
  8
0
 10
8.59344
 20
189.473
 11
8.45613
 21
189.344
  0
LINE
  8
0
 10
8.45613
 20
189.344
 11
8.30373
 21
189.234
  0
LINE
  8
0
 10
8.30373
 20
189.234
 11
8.13866
 21
189.143
  0
LINE
  8
0
 10
8.13866
 20
189.143
 11
7.96352
 21
189.073
  0
LINE
  8
0
 10
7.96352
 20
189.073
 11
7.78107
 21
189.027
  0
LINE
  8
0
 10
7.78107
 20
189.027
 11
7.59418
 21
189.003
  0
LINE
  8
0
 10
7.59418
 20
189.003
 11
7.40581
 21
189.003
  0
LINE
  8
0
 10
-7.68837
 20
180.006
 11
-8.06213
 21
180.053
  0
LINE
  8
0
 10
-8.06213
 20
180.053
 11
-8.42705
 21
180.147
  0
LINE
  8
0
 10
-8.42705
 20
180.147
 11
-8.77733
 21
180.286
  0
LINE
  8
0
 10
-8.77733
 20
180.286
 11
-9.10747
 21
180.467
  0
LINE
  8
0
 10
-9.10747
 20
180.467
 11
-9.41226
 21
180.688
  0
LINE
  8
0
 10
-9.41226
 20
180.688
 11
-9.6869
 21
180.946
  0
LINE
  8
0
 10
-9.6869
 20
180.946
 11
-9.92705
 21
181.237
  0
LINE
  8
0
 10
-9.92705
 20
181.237
 11
-10.1289
 21
181.555
  0
LINE
  8
0
 10
-10.1289
 20
181.555
 11
-10.2893
 21
181.896
  0
LINE
  8
0
 10
-10.2893
 20
181.896
 11
-10.4057
 21
182.254
  0
LINE
  8
0
 10
-10.4057
 20
182.254
 11
-10.4763
 21
182.624
  0
LINE
  8
0
 10
-10.4763
 20
182.624
 11
-10.5
 21
183
  0
LINE
  8
0
 10
-10.5
 20
183
 11
-10.4763
 21
183.376
  0
LINE
  8
0
 10
-10.4763
 20
183.376
 11
-10.4057
 21
183.746
  0
LINE
  8
0
 10
-10.4057
 20
183.746
 11
-10.2893
 21
184.104
  0
LINE
  8
0
 10
-10.2893
 20
184.104
 11
-10.1289
 21
184.445
  0
LINE
  8
0
 10
-10.1289
 20
184.445
 11
-9.92705
 21
184.763
  0
LINE
  8
0
 10
-9.92705
 20
184.763
 11
-9.6869
 21
185.054
  0
LINE
  8
0
 10
-9.6869
 20
185.054
 11
-9.41226
 21
185.312
  0
LINE
  8
0
 10
-9.41226
 20
185.312
 11
-9.10747
 21
185.533
  0
LINE
  8
0
 10
-9.10747
 20
185.533
 11
-8.77733
 21
185.714
  0
LINE
  8
0
 10
-8.77733
 20
185.714
 11
-8.42705
 21
185.853
  0
LINE
  8
0
 10
-8.42705
 20
185.853
 11
-8.06213
 21
185.947
  0
LINE
  8
0
 10
-8.06213
 20
185.947
 11
-7.68837
 21
185.994
  0
LINE
  8
0
 10
-7.68837
 20
185.994
 11
-7.31161
 21
185.994
  0
LINE
  8
0
 10
-7.31161
 20
185.994
 11
-6.93785
 21
185.947
  0
LINE
  8
0
 10
-6.93785
 20
185.947
 11
-6.57294
 21
185.853
  0
LINE
  8
0
 10
-6.57294
 20
185.853
 11
-6.22266
 21
185.714
  0
LINE
  8
0
 10
-6.22266
 20
185.714
 11
-5.89252
 21
185.533
  0
LINE
  8
0
 10
-5.89252
 20
185.533
 11
-5.58772
 21
185.312
  0
LINE
  8
0
 10
-5.58772
 20
185.312
 11
-5.31308
 21
185.054
  0
LINE
  8
0
 10
-5.31308
 20
185.054
 11
-5.07294
 21
184.763
  0
LINE
  8
0
 10
-5.07294
 20
184.763
 11
-4.87108
 21
184.445
  0
LINE
  8
0
 10
-4.87108
 20
184.445
 11
-4.71066
 21
184.104
  0
LINE
  8
0
 10
-4.71066
 20
184.104
 11
-4.59424
 21
183.746
  0
LINE
  8
0
 10
-4.59424
 20
183.746
 11
-4.52365
 21
183.376
  0
LINE
  8
0
 10
-4.52365
 20
183.376
 11
-4.5
 21
183
  0
LINE
  8
0
 10
-4.5
 20
183
 11
-4.52365
 21
182.624
  0
LINE
  8
0
 10
-4.52365
 20
182.624
 11
-4.59424
 21
182.254
  0
LINE
  8
0
 10
-4.59424
 20
182.254
 11
-4.71066
 21
181.896
  0
LINE
  8
0
 10
-4.71066
 20
181.896
 11
-4.87108
 21
181.555
  0
LINE
  8
0
 10
-4.87108
 20
181.555
 11
-5.07294
 21
181.237
  0
LINE
  8
0
 10
-5.07294
 20
181.237
 11
-5.31308
 21
180.946
  0
LINE
  8
0
 10
-5.31308
 20
180.946
 11
-5.58772
 21
180.688
  0
LINE
  8
0
 10
-5.58772
 20
180.688
 11
-5.89252
 21
180.467
  0
LINE
  8
0
 10
-5.89252
 20
180.467
 11
-6.22266
 21
180.286
  0
LINE
  8
0
 10
-6.22266
 20
180.286
 11
-6.57294
 21
180.147
  0
LINE
  8
0
 10
-6.57294
 20
180.147
 11
-6.93785
 21
180.053
  0
LINE
  8
0
 10
-6.93785
 20
180.053
 11
-7.31161
 21
180.006
  0
LINE
  8
0
 10
-7.31161
 20
180.006
 11
-7.68837
 21
180.006
  0
LINE
  8
0
 10
7.31161
 20
180.006
 11
6.93785
 21
180.053
  0
LINE
  8
0
 10
6.93785
 20
180.053
 11
6.57294
 21
180.147
  0
LINE
  8
0
 10
6.57294
 20
180.147
 11
6.22266
 21
180.286
  0
LINE
  8
0
 10
6.22266
 20
180.286
 11
5.89252
 21
180.467
  0
LINE
  8
0
 10
5.89252
 20
180.467
 11
5.58772
 21
180.688
  0
LINE
  8
0
 10
5.58772
 20
180.688
 11
5.31308
 21
180.946
  0
LINE
  8
0
 10
5.31308
 20
180.946
 11
5.07294
 21
181.237
  0
LINE
  8
0
 10
5.07294
 20
181.237
 11
4.87108
 21
181.555
  0
LINE
  8
0
 10
4.87108
 20
181.555
 11
4.71066
 21
181.896
  0
LINE
  8
0
 10
4.71066
 20
181.896
 11
4.59424
 21
182.254
  0
LINE
  8
0
 10
4.59424
 20
182.254
 11
4.52365
 21
182.624
  0
LINE
  8
0
 10
4.52365
 20
182.624
 11
4.5
 21
183
  0
LINE
  8
0
 10
4.5
 20
183
 11
4.52365
 21
183.376
  0
LINE
  8
0
 10
4.52365
 20
183.376
 11
4.59424
 21
183.746
  0
LINE
  8
0
 10
4.59424
 20
183.746
 11
4.71066
 21
184.104
  0
LINE
  8
0
 10
4.71066
 20
184.104
 11
4.87108
 21
184.445
  0
LINE
  8
0
 10
4.87108
 20
184.445
 11
5.07294
 21
184.763
  0
LINE
  8
0
 10
5.07294
 20
184.763
 11
5.31308
 21
185.054
  0
LINE
  8
0
 10
5.31308
 20
185.054
 11
5.58772
 21
185.312
  0
LINE
  8
0
 10
5.58772
 20
185.312
 11
5.89252
 21
185.533
  0
LINE
  8
0
 10
5.89252
 20
185.533
 11
6.22266
 21
185.714
  0
LINE
  8
0
 10
6.22266
 20
185.714
 11
6.57294
 21
185.853
  0
LINE
  8
0
 10
6.57294
 20
185.853
 11
6.93785
 21
185.947
  0
LINE
  8
0
 10
6.93785
 20
185.947
 11
7.31161
 21
185.994
  0
LINE
  8
0
 10
7.31161
 20
185.994
 11
7.68837
 21
185.994
  0
LINE
  8
0
 10
7.68837
 20
185.994
 11
8.06213
 21
185.947
  0
LINE
  8
0
 10
8.06213
 20
185.947
 11
8.42705
 21
185.853
  0
LINE
  8
0
 10
8.42705
 20
185.853
 11
8.77733
 21
185.714
  0
LINE
  8
0
 10
8.77733
 20
185.714
 11
9.10747
 21
185.533
  0
LINE
  8
0
 10
9.10747
 20
185.533
 11
9.41226
 21
185.312
  0
LINE
  8
0
 10
9.41226
 20
185.312
 11
9.6869
 21
185.054
  0
LINE
  8
0
 10
9.6869
 20
185.054
 11
9.92705
 21
184.763
  0
LINE
  8
0
 10
9.92705
 20
184.763
 11
10.1289
 21
184.445
  0
LINE
  8
0
 10
10.1289
 20
184.445
 11
10.2893
 21
184.104
  0
LINE
  8
0
 10
10.2893
 20
184.104
 11
10.4057
 21
183.746
  0
LINE
  8
0
 10
10.4057
 20
183.746
 11
10.4763
 21
183.376
  0
LINE
  8
0
 10
10.4763
 20
183.376
 11
10.5
 21
183
  0
LINE
  8
0
 10
10.5
 20
183
 11
10.4763
 21
182.624
  0
LINE
  8
0
 10
10.4763
 20
182.624
 11
10.4057
 21
182.254
  0
LINE
  8
0
 10
10.4057
 20
182.254
 11
10.2893
 21
181.896
  0
LINE
  8
0
 10
10.2893
 20
181.896
 11
10.1289
 21
181.555
  0
LINE
  8
0
 10
10.1289
 20
181.555
 11
9.92705
 21
181.237
  0
LINE
  8
0
 10
9.92705
 20
181.237
 11
9.6869
 21
180.946
  0
LINE
  8
0
 10
9.6869
 20
180.946
 11
9.41226
 21
180.688
  0
LINE
  8
0
 10
9.41226
 20
180.688
 11
9.10747
 21
180.467
  0
LINE
  8
0
 10
9.10747
 20
180.467
 11
8.77733
 21
180.286
  0
LINE
  8
0
 10
8.77733
 20
180.286
 11
8.42705
 21
180.147
  0
LINE
  8
0
 10
8.42705
 20
180.147
 11
8.06213
 21
180.053
  0
LINE
  8
0
 10
8.06213
 20
180.053
 11
7.68837
 21
180.006
  0
LINE
  8
0
 10
7.68837
 20
180.006
 11
7.31161
 21
180.006
  0
LINE
  8
0
 10
-0.133423
 20
180.879
 11
-0.398178
 21
180.913
  0
LINE
  8
0
 10
-0.398178
 20
180.913
 11
-0.656647
 21
180.979
  0
LINE
  8
0
 10
-0.656647
 20
180.979
 11
-0.90477
 21
181.077
  0
LINE
  8
0
 10
-0.90477
 20
181.077
 11
-1.13863
 21
181.206
  0
LINE
  8
0
 10
-1.13863
 20
181.206
 11
-1.35452
 21
181.363
  0
LINE
  8
0
 10
-1.35452
 20
181.363
 11
-1.54906
 21
181.545
  0
LINE
  8
0
 10
-1.54906
 20
181.545
 11
-1.71915
 21
181.751
  0
LINE
  8
0
 10
-1.71915
 20
181.751
 11
-1.86214
 21
181.976
  0
LINE
  8
0
 10
-1.86214
 20
181.976
 11
-1.97577
 21
182.218
  0
LINE
  8
0
 10
-1.97577
 20
182.218
 11
-2.05823
 21
182.472
  0
LINE
  8
0
 10
-2.05823
 20
182.472
 11
-2.10823
 21
182.734
  0
LINE
  8
0
 10
-2.10823
 20
182.734
 11
-2.125
 21
183
  0
LINE
  8
0
 10
-2.125
 20
183
 11
-2.10823
 21
183.266
  0
LINE
  8
0
 10
-2.10823
 20
183.266
 11
-2.05823
 21
183.528
  0
LINE
  8
0
 10
-2.05823
 20
183.528
 11
-1.97577
 21
183.782
  0
LINE
  8
0
 10
-1.97577
 20
183.782
 11
-1.86214
 21
184.024
  0
LINE
  8
0
 10
-1.86214
 20
184.024
 11
-1.71915
 21
184.249
  0
LINE
  8
0
 10
-1.71915
 20
184.249
 11
-1.54906
 21
184.455
  0
LINE
  8
0
 10
-1.54906
 20
184.455
 11
-1.35452
 21
184.637
  0
LINE
  8
0
 10
-1.35452
 20
184.637
 11
-1.13863
 21
184.794
  0
LINE
  8
0
 10
-1.13863
 20
184.794
 11
-0.90477
 21
184.923
  0
LINE
  8
0
 10
-0.90477
 20
184.923
 11
-0.656647
 21
185.021
  0
LINE
  8
0
 10
-0.656647
 20
185.021
 11
-0.398178
 21
185.087
  0
LINE
  8
0
 10
-0.398178
 20
185.087
 11
-0.133423
 21
185.121
  0
LINE
  8
0
 10
-0.133423
 20
185.121
 11
0.133423
 21
185.121
  0
LINE
  8
0
 10
0.133423
 20
185.121
 11
0.398178
 21
185.087
  0
LINE
  8
0
 10
0.398178
 20
185.087
 11
0.656647
 21
185.021
  0
LINE
  8
0
 10
0.656647
 20
185.021
 11
0.90477
 21
184.923
  0
LINE
  8
0
 10
0.90477
 20
184.923
 11
1.13863
 21
184.794
  0
LINE
  8
0
 10
1.13863
 20
184.794
 11
1.35452
 21
184.637
  0
LINE
  8
0
 10
1.35452
 20
184.637
 11
1.54906
 21
184.455
  0
LINE
  8
0
 10
1.54906
 20
184.455
 11
1.71915
 21
184.249
  0
LINE
  8
0
 10
1.71915
 20
184.249
 11
1.86214
 21
184.024
  0
LINE
  8
0
 10
1.86214
 20
184.024
 11
1.97577
 21
183.782
  0
LINE
  8
0
 10
1.97577
 20
183.782
 11
2.05823
 21
183.528
  0
LINE
  8
0
 10
2.05823
 20
183.528
 11
2.10823
 21
183.266
  0
LINE
  8
0
 10
2.10823
 20
183.266
 11
2.125
 21
183
  0
LINE
  8
0
 10
2.125
 20
183
 11
2.10823
 21
182.734
  0
LINE
  8
0
 10
2.10823
 20
182.734
 11
2.05823
 21
182.472
  0
LINE
  8
0
 10
2.05823
 20
182.472
 11
1.97577
 21
182.218
  0
LINE
  8
0
 10
1.97577
 20
182.218
 11
1.86214
 21
181.976
  0
LINE
  8
0
 10
1.86214
 20
181.976
 11
1.71915
 21
181.751
  0
LINE
  8
0
 10
1.71915
 20
181.751
 11
1.54906
 21
181.545
  0
LINE
  8
0
 10
1.54906
 20
181.545
 11
1.35452
 21
181.363
  0
LINE
  8
0
 10
1.35452
 20
181.363
 11
1.13863
 21
181.206
  0
LINE
  8
0
 10
1.13863
 20
181.206
 11
0.90477
 21
181.077
  0
LINE
  8
0
 10
0.90477
 20
181.077
 11
0.656647
 21
180.979
  0
LINE
  8
0
 10
0.656647
 20
180.979
 11
0.398178
 21
180.913
  0
LINE
  8
0
 10
0.398178
 20
180.913
 11
0.133423
 21
180.879
  0
LINE
  8
0
 10
0.133423
 20
180.879
 11
-0.133423
 21
180.879
  0
LINE
  8
0
 10
60.4369
 20
176.089
 11
61.0451
 21
176.245
  0
LINE
  8
0
 10
61.0451
 20
176.245
 11
61.6289
 21
176.476
  0
LINE
  8
0
 10
61.6289
 20
176.476
 11
62.1791
 21
176.778
  0
LINE
  8
0
 10
62.1791
 20
176.778
 11
62.6871
 21
177.147
  0
LINE
  8
0
 10
62.6871
 20
177.147
 11
63.1448
 21
177.577
  0
LINE
  8
0
 10
63.1448
 20
177.577
 11
63.5451
 21
178.061
  0
LINE
  8
0
 10
63.5451
 20
178.061
 11
63.8815
 21
178.591
  0
LINE
  8
0
 10
63.8815
 20
178.591
 11
64.1489
 21
179.159
  0
LINE
  8
0
 10
64.1489
 20
179.159
 11
64.3429
 21
179.757
  0
LINE
  8
0
 10
64.3429
 20
179.757
 11
64.4606
 21
180.373
  0
LINE
  8
0
 10
64.4606
 20
180.373
 11
64.5
 21
181
  0
LINE
  8
0
 10
64.5
 20
181
 11
64.5
 21
275
  0
LINE
  8
0
 10
64.5
 20
275
 11
64.4606
 21
275.627
  0
LINE
  8
0
 10
64.4606
 20
275.627
 11
64.3429
 21
276.243
  0
LINE
  8
0
 10
64.3429
 20
276.243
 11
64.1489
 21
276.841
  0
LINE
  8
0
 10
64.1489
 20
276.841
 11
63.8815
 21
277.409
  0
LINE
  8
0
 10
63.8815
 20
277.409
 11
63.5451
 21
277.939
  0
LINE
  8
0
 10
63.5451
 20
277.939
 11
63.1448
 21
278.423
  0
LINE
  8
0
 10
63.1448
 20
278.423
 11
62.6871
 21
278.853
  0
LINE
  8
0
 10
62.6871
 20
278.853
 11
62.1791
 21
279.222
  0
LINE
  8
0
 10
62.1791
 20
279.222
 11
61.6289
 21
279.524
  0
LINE
  8
0
 10
61.6289
 20
279.524
 11
61.0451
 21
279.755
  0
LINE
  8
0
 10
61.0451
 20
279.755
 11
60.4369
 21
279.911
  0
LINE
  8
0
 10
60.4369
 20
279.911
 11
59.8139
 21
279.99
  0
LINE
  8
0
 10
59.8139
 20
279.99
 11
40.186
 21
279.99
  0
LINE
  8
0
 10
40.186
 20
279.99
 11
39.5631
 21
279.911
  0
LINE
  8
0
 10
39.5631
 20
279.911
 11
38.9549
 21
279.755
  0
LINE
  8
0
 10
38.9549
 20
279.755
 11
38.3711
 21
279.524
  0
LINE
  8
0
 10
38.3711
 20
279.524
 11
37.8209
 21
279.222
  0
LINE
  8
0
 10
37.8209
 20
279.222
 11
37.3129
 21
278.853
  0
LINE
  8
0
 10
37.3129
 20
278.853
 11
36.8551
 21
278.423
  0
LINE
  8
0
 10
36.8551
 20
278.423
 11
36.4549
 21
277.939
  0
LINE
  8
0
 10
36.4549
 20
277.939
 11
36.1185
 21
277.409
  0
LINE
  8
0
 10
36.1185
 20
277.409
 11
35.8511
 21
276.841
  0
LINE
  8
0
 10
35.8511
 20
276.841
 11
35.6571
 21
276.243
  0
LINE
  8
0
 10
35.6571
 20
276.243
 11
35.5394
 21
275.627
  0
LINE
  8
0
 10
35.5394
 20
275.627
 11
35.5
 21
275
  0
LINE
  8
0
 10
35.5
 20
275
 11
35.5
 21
181
  0
LINE
  8
0
 10
35.5
 20
181
 11
35.5394
 21
180.373
  0
LINE
  8
0
 10
35.5394
 20
180.373
 11
35.6571
 21
179.757
  0
LINE
  8
0
 10
35.6571
 20
179.757
 11
35.8511
 21
179.159
  0
LINE
  8
0
 10
35.8511
 20
179.159
 11
36.1185
 21
178.591
  0
LINE
  8
0
 10
36.1185
 20
178.591
 11
36.4549
 21
178.061
  0
LINE
  8
0
 10
36.4549
 20
178.061
 11
36.8551
 21
177.577
  0
LINE
  8
0
 10
36.8551
 20
177.577
 11
37.3129
 21
177.147
  0
LINE
  8
0
 10
37.3129
 20
177.147
 11
37.8209
 21
176.778
  0
LINE
  8
0
 10
37.8209
 20
176.778
 11
38.3711
 21
176.476
  0
LINE
  8
0
 10
38.3711
 20
176.476
 11
38.9549
 21
176.245
  0
LINE
  8
0
 10
38.9549
 20
176.245
 11
39.5631
 21
176.089
  0
LINE
  8
0
 10
39.5631
 20
176.089
 11
40.186
 21
176.01
  0
LINE
  8
0
 10
40.186
 20
176.01
 11
59.8139
 21
176.01
  0
LINE
  8
0
 10
59.8139
 20
176.01
 11
60.4369
 21
176.089
  0
LINE
  8
0
 10
42.3116
 20
270.006
 11
41.9379
 21
270.053
  0
LINE
  8
0
 10
41.9379
 20
270.053
 11
41.5729
 21
270.147
  0
LINE
  8
0
 10
41.5729
 20
270.147
 11
41.2227
 21
270.286
  0
LINE
  8
0
 10
41.2227
 20
270.286
 11
40.8925
 21
270.467
  0
LINE
  8
0
 10
40.8925
 20
270.467
 11
40.5877
 21
270.688
  0
LINE
  8
0
 10
40.5877
 20
270.688
 11
40.3131
 21
270.946
  0
LINE
  8
0
 10
40.3131
 20
270.946
 11
40.0729
 21
271.237
  0
LINE
  8
0
 10
40.0729
 20
271.237
 11
39.8711
 21
271.555
  0
LINE
  8
0
 10
39.8711
 20
271.555
 11
39.7107
 21
271.896
  0
LINE
  8
0
 10
39.7107
 20
271.896
 11
39.5942
 21
272.254
  0
LINE
  8
0
 10
39.5942
 20
272.254
 11
39.5237
 21
272.624
  0
LINE
  8
0
 10
39.5237
 20
272.624
 11
39.5
 21
273
  0
LINE
  8
0
 10
39.5
 20
273
 11
39.5237
 21
273.376
  0
LINE
  8
0
 10
39.5237
 20
273.376
 11
39.5942
 21
273.746
  0
LINE
  8
0
 10
39.5942
 20
273.746
 11
39.7107
 21
274.104
  0
LINE
  8
0
 10
39.7107
 20
274.104
 11
39.8711
 21
274.445
  0
LINE
  8
0
 10
39.8711
 20
274.445
 11
40.0729
 21
274.763
  0
LINE
  8
0
 10
40.0729
 20
274.763
 11
40.3131
 21
275.054
  0
LINE
  8
0
 10
40.3131
 20
275.054
 11
40.5877
 21
275.312
  0
LINE
  8
0
 10
40.5877
 20
275.312
 11
40.8925
 21
275.533
  0
LINE
  8
0
 10
40.8925
 20
275.533
 11
41.2227
 21
275.714
  0
LINE
  8
0
 10
41.2227
 20
275.714
 11
41.5729
 21
275.853
  0
LINE
  8
0
 10
41.5729
 20
275.853
 11
41.9379
 21
275.947
  0
LINE
  8
0
 10
41.9379
 20
275.947
 11
42.3116
 21
275.994
  0
LINE
  8
0
 10
42.3116
 20
275.994
 11
42.6884
 21
275.994
  0
LINE
  8
0
 10
42.6884
 20
275.994
 11
43.0621
 21
275.947
  0
LINE
  8
0
 10
43.0621
 20
275.947
 11
43.427
 21
275.853
  0
LINE
  8
0
 10
43.427
 20
275.853
 11
43.7773
 21
275.714
  0
LINE
  8
0
 10
43.7773
 20
275.714
 11
44.1075
 21
275.533
  0
LINE
  8
0
 10
44.1075
 20
275.533
 11
44.4123
 21
275.312
  0
LINE
  8
0
 10
44.4123
 20
275.312
 11
44.6869
 21
275.054
  0
LINE
  8
0
 10
44.6869
 20
275.054
 11
44.927
 21
274.763
  0
LINE
  8
0
 10
44.927
 20
274.763
 11
45.1289
 21
274.445
  0
LINE
  8
0
 10
45.1289
 20
274.445
 11
45.2893
 21
274.104
  0
LINE
  8
0
 10
45.2893
 20
274.104
 11
45.4057
 21
273.746
  0
LINE
  8
0
 10
45.4057
 20
273.746
 11
45.4763
 21
273.376
  0
LINE
  8
0
 10
45.4763
 20
273.376
 11
45.5
 21
273
  0
LINE
  8
0
 10
45.5
 20
273
 11
45.4763
 21
272.624
  0
LINE
  8
0
 10
45.4763
 20
272.624
 11
45.4057
 21
272.254
  0
LINE
  8
0
 10
45.4057
 20
272.254
 11
45.2893
 21
271.896
  0
LINE
  8
0
 10
45.2893
 20
271.896
 11
45.1289
 21
271.555
  0
LINE
  8
0
 10
45.1289
 20
271.555
 11
44.927
 21
271.237
  0
LINE
  8
0
 10
44.927
 20
271.237
 11
44.6869
 21
270.946
  0
LINE
  8
0
 10
44.6869
 20
270.946
 11
44.4123
 21
270.688
  0
LINE
  8
0
 10
44.4123
 20
270.688
 11
44.1075
 21
270.467
  0
LINE
  8
0
 10
44.1075
 20
270.467
 11
43.7773
 21
270.286
  0
LINE
  8
0
 10
43.7773
 20
270.286
 11
43.427
 21
270.147
  0
LINE
  8
0
 10
43.427
 20
270.147
 11
43.0621
 21
270.053
  0
LINE
  8
0
 10
43.0621
 20
270.053
 11
42.6884
 21
270.006
  0
LINE
  8
0
 10
42.6884
 20
270.006
 11
42.3116
 21
270.006
  0
LINE
  8
0
 10
57.3116
 20
270.006
 11
56.9379
 21
270.053
  0
LINE
  8
0
 10
56.9379
 20
270.053
 11
56.5729
 21
270.147
  0
LINE
  8
0
 10
56.5729
 20
270.147
 11
56.2227
 21
270.286
  0
LINE
  8
0
 10
56.2227
 20
270.286
 11
55.8925
 21
270.467
  0
LINE
  8
0
 10
55.8925
 20
270.467
 11
55.5877
 21
270.688
  0
LINE
  8
0
 10
55.5877
 20
270.688
 11
55.3131
 21
270.946
  0
LINE
  8
0
 10
55.3131
 20
270.946
 11
55.0729
 21
271.237
  0
LINE
  8
0
 10
55.0729
 20
271.237
 11
54.8711
 21
271.555
  0
LINE
  8
0
 10
54.8711
 20
271.555
 11
54.7107
 21
271.896
  0
LINE
  8
0
 10
54.7107
 20
271.896
 11
54.5942
 21
272.254
  0
LINE
  8
0
 10
54.5942
 20
272.254
 11
54.5237
 21
272.624
  0
LINE
  8
0
 10
54.5237
 20
272.624
 11
54.5
 21
273
  0
LINE
  8
0
 10
54.5
 20
273
 11
54.5237
 21
273.376
  0
LINE
  8
0
 10
54.5237
 20
273.376
 11
54.5942
 21
273.746
  0
LINE
  8
0
 10
54.5942
 20
273.746
 11
54.7107
 21
274.104
  0
LINE
  8
0
 10
54.7107
 20
274.104
 11
54.8711
 21
274.445
  0
LINE
  8
0
 10
54.8711
 20
274.445
 11
55.0729
 21
274.763
  0
LINE
  8
0
 10
55.0729
 20
274.763
 11
55.3131
 21
275.054
  0
LINE
  8
0
 10
55.3131
 20
275.054
 11
55.5877
 21
275.312
  0
LINE
  8
0
 10
55.5877
 20
275.312
 11
55.8925
 21
275.533
  0
LINE
  8
0
 10
55.8925
 20
275.533
 11
56.2227
 21
275.714
  0
LINE
  8
0
 10
56.2227
 20
275.714
 11
56.5729
 21
275.853
  0
LINE
  8
0
 10
56.5729
 20
275.853
 11
56.9379
 21
275.947
  0
LINE
  8
0
 10
56.9379
 20
275.947
 11
57.3116
 21
275.994
  0
LINE
  8
0
 10
57.3116
 20
275.994
 11
57.6884
 21
275.994
  0
LINE
  8
0
 10
57.6884
 20
275.994
 11
58.0621
 21
275.947
  0
LINE
  8
0
 10
58.0621
 20
275.947
 11
58.427
 21
275.853
  0
LINE
  8
0
 10
58.427
 20
275.853
 11
58.7773
 21
275.714
  0
LINE
  8
0
 10
58.7773
 20
275.714
 11
59.1075
 21
275.533
  0
LINE
  8
0
 10
59.1075
 20
275.533
 11
59.4123
 21
275.312
  0
LINE
  8
0
 10
59.4123
 20
275.312
 11
59.6869
 21
275.054
  0
LINE
  8
0
 10
59.6869
 20
275.054
 11
59.927
 21
274.763
  0
LINE
  8
0
 10
59.927
 20
274.763
 11
60.1289
 21
274.445
  0
LINE
  8
0
 10
60.1289
 20
274.445
 11
60.2893
 21
274.104
  0
LINE
  8
0
 10
60.2893
 20
274.104
 11
60.4057
 21
273.746
  0
LINE
  8
0
 10
60.4057
 20
273.746
 11
60.4763
 21
273.376
  0
LINE
  8
0
 10
60.4763
 20
273.376
 11
60.5
 21
273
  0
LINE
  8
0
 10
60.5
 20
273
 11
60.4763
 21
272.624
  0
LINE
  8
0
 10
60.4763
 20
272.624
 11
60.4057
 21
272.254
  0
LINE
  8
0
 10
60.4057
 20
272.254
 11
60.2893
 21
271.896
  0
LINE
  8
0
 10
60.2893
 20
271.896
 11
60.1289
 21
271.555
  0
LINE
  8
0
 10
60.1289
 20
271.555
 11
59.927
 21
271.237
  0
LINE
  8
0
 10
59.927
 20
271.237
 11
59.6869
 21
270.946
  0
LINE
  8
0
 10
59.6869
 20
270.946
 11
59.4123
 21
270.688
  0
LINE
  8
0
 10
59.4123
 20
270.688
 11
59.1075
 21
270.467
  0
LINE
  8
0
 10
59.1075
 20
270.467
 11
58.7773
 21
270.286
  0
LINE
  8
0
 10
58.7773
 20
270.286
 11
58.427
 21
270.147
  0
LINE
  8
0
 10
58.427
 20
270.147
 11
58.0621
 21
270.053
  0
LINE
  8
0
 10
58.0621
 20
270.053
 11
57.6884
 21
270.006
  0
LINE
  8
0
 10
57.6884
 20
270.006
 11
57.3116
 21
270.006
  0
LINE
  8
0
 10
49.9058
 20
271.503
 11
49.7189
 21
271.527
  0
LINE
  8
0
 10
49.7189
 20
271.527
 11
49.5365
 21
271.573
  0
LINE
  8
0
 10
49.5365
 20
271.573
 11
49.3613
 21
271.643
  0
LINE
  8
0
 10
49.3613
 20
271.643
 11
49.1963
 21
271.734
  0
LINE
  8
0
 10
49.1963
 20
271.734
 11
49.0439
 21
271.844
  0
LINE
  8
0
 10
49.0439
 20
271.844
 11
48.9065
 21
271.973
  0
LINE
  8
0
 10
48.9065
 20
271.973
 11
48.7865
 21
272.118
  0
LINE
  8
0
 10
48.7865
 20
272.118
 11
48.6855
 21
272.277
  0
LINE
  8
0
 10
48.6855
 20
272.277
 11
48.6053
 21
272.448
  0
LINE
  8
0
 10
48.6053
 20
272.448
 11
48.5471
 21
272.627
  0
LINE
  8
0
 10
48.5471
 20
272.627
 11
48.5118
 21
272.812
  0
LINE
  8
0
 10
48.5118
 20
272.812
 11
48.5
 21
273
  0
LINE
  8
0
 10
48.5
 20
273
 11
48.5118
 21
273.188
  0
LINE
  8
0
 10
48.5118
 20
273.188
 11
48.5471
 21
273.373
  0
LINE
  8
0
 10
48.5471
 20
273.373
 11
48.6053
 21
273.552
  0
LINE
  8
0
 10
48.6053
 20
273.552
 11
48.6855
 21
273.723
  0
LINE
  8
0
 10
48.6855
 20
273.723
 11
48.7865
 21
273.882
  0
LINE
  8
0
 10
48.7865
 20
273.882
 11
48.9065
 21
274.027
  0
LINE
  8
0
 10
48.9065
 20
274.027
 11
49.0439
 21
274.156
  0
LINE
  8
0
 10
49.0439
 20
274.156
 11
49.1963
 21
274.266
  0
LINE
  8
0
 10
49.1963
 20
274.266
 11
49.3613
 21
274.357
  0
LINE
  8
0
 10
49.3613
 20
274.357
 11
49.5365
 21
274.427
  0
LINE
  8
0
 10
49.5365
 20
274.427
 11
49.7189
 21
274.473
  0
LINE
  8
0
 10
49.7189
 20
274.473
 11
49.9058
 21
274.497
  0
LINE
  8
0
 10
49.9058
 20
274.497
 11
50.0942
 21
274.497
  0
LINE
  8
0
 10
50.0942
 20
274.497
 11
50.2811
 21
274.473
  0
LINE
  8
0
 10
50.2811
 20
274.473
 11
50.4635
 21
274.427
  0
LINE
  8
0
 10
50.4635
 20
274.427
 11
50.6387
 21
274.357
  0
LINE
  8
0
 10
50.6387
 20
274.357
 11
50.8037
 21
274.266
  0
LINE
  8
0
 10
50.8037
 20
274.266
 11
50.9561
 21
274.156
  0
LINE
  8
0
 10
50.9561
 20
274.156
 11
51.0934
 21
274.027
  0
LINE
  8
0
 10
51.0934
 20
274.027
 11
51.2135
 21
273.882
  0
LINE
  8
0
 10
51.2135
 20
273.882
 11
51.3145
 21
273.723
  0
LINE
  8
0
 10
51.3145
 20
273.723
 11
51.3947
 21
273.552
  0
LINE
  8
0
 10
51.3947
 20
273.552
 11
51.4529
 21
273.373
  0
LINE
  8
0
 10
51.4529
 20
273.373
 11
51.4882
 21
273.188
  0
LINE
  8
0
 10
51.4882
 20
273.188
 11
51.5
 21
273
  0
LINE
  8
0
 10
51.5
 20
273
 11
51.4882
 21
272.812
  0
LINE
  8
0
 10
51.4882
 20
272.812
 11
51.4529
 21
272.627
  0
LINE
  8
0
 10
51.4529
 20
272.627
 11
51.3947
 21
272.448
  0
LINE
  8
0
 10
51.3947
 20
272.448
 11
51.3145
 21
272.277
  0
LINE
  8
0
 10
51.3145
 20
272.277
 11
51.2135
 21
272.118
  0
LINE
  8
0
 10
51.2135
 20
272.118
 11
51.0934
 21
271.973
  0
LINE
  8
0
 10
51.0934
 20
271.973
 11
50.9561
 21
271.844
  0
LINE
  8
0
 10
50.9561
 20
271.844
 11
50.8037
 21
271.734
  0
LINE
  8
0
 10
50.8037
 20
271.734
 11
50.6387
 21
271.643
  0
LINE
  8
0
 10
50.6387
 20
271.643
 11
50.4635
 21
271.573
  0
LINE
  8
0
 10
50.4635
 20
271.573
 11
50.2811
 21
271.527
  0
LINE
  8
0
 10
50.2811
 20
271.527
 11
50.0942
 21
271.503
  0
LINE
  8
0
 10
50.0942
 20
271.503
 11
49.9058
 21
271.503
  0
LINE
  8
0
 10
49.887
 20
263.704
 11
49.6627
 21
263.732
  0
LINE
  8
0
 10
49.6627
 20
263.732
 11
49.4438
 21
263.788
  0
LINE
  8
0
 10
49.4438
 20
263.788
 11
49.2336
 21
263.871
  0
LINE
  8
0
 10
49.2336
 20
263.871
 11
49.0355
 21
263.98
  0
LINE
  8
0
 10
49.0355
 20
263.98
 11
48.8526
 21
264.113
  0
LINE
  8
0
 10
48.8526
 20
264.113
 11
48.6879
 21
264.268
  0
LINE
  8
0
 10
48.6879
 20
264.268
 11
48.5438
 21
264.442
  0
LINE
  8
0
 10
48.5438
 20
264.442
 11
48.4226
 21
264.633
  0
LINE
  8
0
 10
48.4226
 20
264.633
 11
48.3264
 21
264.837
  0
LINE
  8
0
 10
48.3264
 20
264.837
 11
48.2565
 21
265.052
  0
LINE
  8
0
 10
48.2565
 20
265.052
 11
48.2142
 21
265.274
  0
LINE
  8
0
 10
48.2142
 20
265.274
 11
48.2
 21
265.5
  0
LINE
  8
0
 10
48.2
 20
265.5
 11
48.2142
 21
265.726
  0
LINE
  8
0
 10
48.2142
 20
265.726
 11
48.2565
 21
265.948
  0
LINE
  8
0
 10
48.2565
 20
265.948
 11
48.3264
 21
266.163
  0
LINE
  8
0
 10
48.3264
 20
266.163
 11
48.4226
 21
266.367
  0
LINE
  8
0
 10
48.4226
 20
266.367
 11
48.5438
 21
266.558
  0
LINE
  8
0
 10
48.5438
 20
266.558
 11
48.6879
 21
266.732
  0
LINE
  8
0
 10
48.6879
 20
266.732
 11
48.8526
 21
266.887
  0
LINE
  8
0
 10
48.8526
 20
266.887
 11
49.0355
 21
267.02
  0
LINE
  8
0
 10
49.0355
 20
267.02
 11
49.2336
 21
267.129
  0
LINE
  8
0
 10
49.2336
 20
267.129
 11
49.4438
 21
267.212
  0
LINE
  8
0
 10
49.4438
 20
267.212
 11
49.6627
 21
267.268
  0
LINE
  8
0
 10
49.6627
 20
267.268
 11
49.887
 21
267.296
  0
LINE
  8
0
 10
49.887
 20
267.296
 11
50.113
 21
267.296
  0
LINE
  8
0
 10
50.113
 20
267.296
 11
50.3373
 21
267.268
  0
LINE
  8
0
 10
50.3373
 20
267.268
 11
50.5562
 21
267.212
  0
LINE
  8
0
 10
50.5562
 20
267.212
 11
50.7664
 21
267.129
  0
LINE
  8
0
 10
50.7664
 20
267.129
 11
50.9645
 21
267.02
  0
LINE
  8
0
 10
50.9645
 20
267.02
 11
51.1474
 21
266.887
  0
LINE
  8
0
 10
51.1474
 20
266.887
 11
51.3121
 21
266.732
  0
LINE
  8
0
 10
51.3121
 20
266.732
 11
51.4562
 21
266.558
  0
LINE
  8
0
 10
51.4562
 20
266.558
 11
51.5773
 21
266.367
  0
LINE
  8
0
 10
51.5773
 20
266.367
 11
51.6736
 21
266.163
  0
LINE
  8
0
 10
51.6736
 20
266.163
 11
51.7434
 21
265.948
  0
LINE
  8
0
 10
51.7434
 20
265.948
 11
51.7858
 21
265.726
  0
LINE
  8
0
 10
51.7858
 20
265.726
 11
51.8
 21
265.5
  0
LINE
  8
0
 10
51.8
 20
265.5
 11
51.7858
 21
265.274
  0
LINE
  8
0
 10
51.7858
 20
265.274
 11
51.7434
 21
265.052
  0
LINE
  8
0
 10
51.7434
 20
265.052
 11
51.6736
 21
264.837
  0
LINE
  8
0
 10
51.6736
 20
264.837
 11
51.5773
 21
264.633
  0
LINE
  8
0
 10
51.5773
 20
264.633
 11
51.4562
 21
264.442
  0
LINE
  8
0
 10
51.4562
 20
264.442
 11
51.3121
 21
264.268
  0
LINE
  8
0
 10
51.3121
 20
264.268
 11
51.1474
 21
264.113
  0
LINE
  8
0
 10
51.1474
 20
264.113
 11
50.9645
 21
263.98
  0
LINE
  8
0
 10
50.9645
 20
263.98
 11
50.7664
 21
263.871
  0
LINE
  8
0
 10
50.7664
 20
263.871
 11
50.5562
 21
263.788
  0
LINE
  8
0
 10
50.5562
 20
263.788
 11
50.3373
 21
263.732
  0
LINE
  8
0
 10
50.3373
 20
263.732
 11
50.113
 21
263.704
  0
LINE
  8
0
 10
50.113
 20
263.704
 11
49.887
 21
263.704
  0
LINE
  8
0
 10
57.4058
 20
264.003
 11
57.2189
 21
264.027
  0
LINE
  8
0
 10
57.2189
 20
264.027
 11
57.0365
 21
264.073
  0
LINE
  8
0
 10
57.0365
 20
264.073
 11
56.8613
 21
264.143
  0
LINE
  8
0
 10
56.8613
 20
264.143
 11
56.6963
 21
264.234
  0
LINE
  8
0
 10
56.6963
 20
264.234
 11
56.5439
 21
264.344
  0
LINE
  8
0
 10
56.5439
 20
264.344
 11
56.4065
 21
264.473
  0
LINE
  8
0
 10
56.4065
 20
264.473
 11
56.2865
 21
264.618
  0
LINE
  8
0
 10
56.2865
 20
264.618
 11
56.1855
 21
264.777
  0
LINE
  8
0
 10
56.1855
 20
264.777
 11
56.1053
 21
264.948
  0
LINE
  8
0
 10
56.1053
 20
264.948
 11
56.0471
 21
265.127
  0
LINE
  8
0
 10
56.0471
 20
265.127
 11
56.0118
 21
265.312
  0
LINE
  8
0
 10
56.0118
 20
265.312
 11
56
 21
265.5
  0
LINE
  8
0
 10
56
 20
265.5
 11
56.0118
 21
265.688
  0
LINE
  8
0
 10
56.0118
 20
265.688
 11
56.0471
 21
265.873
  0
LINE
  8
0
 10
56.0471
 20
265.873
 11
56.1053
 21
266.052
  0
LINE
  8
0
 10
56.1053
 20
266.052
 11
56.1855
 21
266.223
  0
LINE
  8
0
 10
56.1855
 20
266.223
 11
56.2865
 21
266.382
  0
LINE
  8
0
 10
56.2865
 20
266.382
 11
56.4065
 21
266.527
  0
LINE
  8
0
 10
56.4065
 20
266.527
 11
56.5439
 21
266.656
  0
LINE
  8
0
 10
56.5439
 20
266.656
 11
56.6963
 21
266.766
  0
LINE
  8
0
 10
56.6963
 20
266.766
 11
56.8613
 21
266.857
  0
LINE
  8
0
 10
56.8613
 20
266.857
 11
57.0365
 21
266.927
  0
LINE
  8
0
 10
57.0365
 20
266.927
 11
57.2189
 21
266.973
  0
LINE
  8
0
 10
57.2189
 20
266.973
 11
57.4058
 21
266.997
  0
LINE
  8
0
 10
57.4058
 20
266.997
 11
57.5942
 21
266.997
  0
LINE
  8
0
 10
57.5942
 20
266.997
 11
57.7811
 21
266.973
  0
LINE
  8
0
 10
57.7811
 20
266.973
 11
57.9635
 21
266.927
  0
LINE
  8
0
 10
57.9635
 20
266.927
 11
58.1387
 21
266.857
  0
LINE
  8
0
 10
58.1387
 20
266.857
 11
58.3037
 21
266.766
  0
LINE
  8
0
 10
58.3037
 20
266.766
 11
58.4561
 21
266.656
  0
LINE
  8
0
 10
58.4561
 20
266.656
 11
58.5934
 21
266.527
  0
LINE
  8
0
 10
58.5934
 20
266.527
 11
58.7135
 21
266.382
  0
LINE
  8
0
 10
58.7135
 20
266.382
 11
58.8145
 21
266.223
  0
LINE
  8
0
 10
58.8145
 20
266.223
 11
58.8947
 21
266.052
  0
LINE
  8
0
 10
58.8947
 20
266.052
 11
58.9529
 21
265.873
  0
LINE
  8
0
 10
58.9529
 20
265.873
 11
58.9882
 21
265.688
  0
LINE
  8
0
 10
58.9882
 20
265.688
 11
59
 21
265.5
  0
LINE
  8
0
 10
59
 20
265.5
 11
58.9882
 21
265.312
  0
LINE
  8
0
 10
58.9882
 20
265.312
 11
58.9529
 21
265.127
  0
LINE
  8
0
 10
58.9529
 20
265.127
 11
58.8947
 21
264.948
  0
LINE
  8
0
 10
58.8947
 20
264.948
 11
58.8145
 21
264.777
  0
LINE
  8
0
 10
58.8145
 20
264.777
 11
58.7135
 21
264.618
  0
LINE
  8
0
 10
58.7135
 20
264.618
 11
58.5934
 21
264.473
  0
LINE
  8
0
 10
58.5934
 20
264.473
 11
58.4561
 21
264.344
  0
LINE
  8
0
 10
58.4561
 20
264.344
 11
58.3037
 21
264.234
  0
LINE
  8
0
 10
58.3037
 20
264.234
 11
58.1387
 21
264.143
  0
LINE
  8
0
 10
58.1387
 20
264.143
 11
57.9635
 21
264.073
  0
LINE
  8
0
 10
57.9635
 20
264.073
 11
57.7811
 21
264.027
  0
LINE
  8
0
 10
57.7811
 20
264.027
 11
57.5942
 21
264.003
  0
LINE
  8
0
 10
57.5942
 20
264.003
 11
57.4058
 21
264.003
  0
LINE
  8
0
 10
42.4058
 20
264.003
 11
42.2189
 21
264.027
  0
LINE
  8
0
 10
42.2189
 20
264.027
 11
42.0365
 21
264.073
  0
LINE
  8
0
 10
42.0365
 20
264.073
 11
41.8613
 21
264.143
  0
LINE
  8
0
 10
41.8613
 20
264.143
 11
41.6963
 21
264.234
  0
LINE
  8
0
 10
41.6963
 20
264.234
 11
41.5439
 21
264.344
  0
LINE
  8
0
 10
41.5439
 20
264.344
 11
41.4065
 21
264.473
  0
LINE
  8
0
 10
41.4065
 20
264.473
 11
41.2865
 21
264.618
  0
LINE
  8
0
 10
41.2865
 20
264.618
 11
41.1855
 21
264.777
  0
LINE
  8
0
 10
41.1855
 20
264.777
 11
41.1053
 21
264.948
  0
LINE
  8
0
 10
41.1053
 20
264.948
 11
41.0471
 21
265.127
  0
LINE
  8
0
 10
41.0471
 20
265.127
 11
41.0118
 21
265.312
  0
LINE
  8
0
 10
41.0118
 20
265.312
 11
41
 21
265.5
  0
LINE
  8
0
 10
41
 20
265.5
 11
41.0118
 21
265.688
  0
LINE
  8
0
 10
41.0118
 20
265.688
 11
41.0471
 21
265.873
  0
LINE
  8
0
 10
41.0471
 20
265.873
 11
41.1053
 21
266.052
  0
LINE
  8
0
 10
41.1053
 20
266.052
 11
41.1855
 21
266.223
  0
LINE
  8
0
 10
41.1855
 20
266.223
 11
41.2865
 21
266.382
  0
LINE
  8
0
 10
41.2865
 20
266.382
 11
41.4065
 21
266.527
  0
LINE
  8
0
 10
41.4065
 20
266.527
 11
41.5439
 21
266.656
  0
LINE
  8
0
 10
41.5439
 20
266.656
 11
41.6963
 21
266.766
  0
LINE
  8
0
 10
41.6963
 20
266.766
 11
41.8613
 21
266.857
  0
LINE
  8
0
 10
41.8613
 20
266.857
 11
42.0365
 21
266.927
  0
LINE
  8
0
 10
42.0365
 20
266.927
 11
42.2189
 21
266.973
  0
LINE
  8
0
 10
42.2189
 20
266.973
 11
42.4058
 21
266.997
  0
LINE
  8
0
 10
42.4058
 20
266.997
 11
42.5942
 21
266.997
  0
LINE
  8
0
 10
42.5942
 20
266.997
 11
42.7811
 21
266.973
  0
LINE
  8
0
 10
42.7811
 20
266.973
 11
42.9635
 21
266.927
  0
LINE
  8
0
 10
42.9635
 20
266.927
 11
43.1387
 21
266.857
  0
LINE
  8
0
 10
43.1387
 20
266.857
 11
43.3037
 21
266.766
  0
LINE
  8
0
 10
43.3037
 20
266.766
 11
43.4561
 21
266.656
  0
LINE
  8
0
 10
43.4561
 20
266.656
 11
43.5934
 21
266.527
  0
LINE
  8
0
 10
43.5934
 20
266.527
 11
43.7135
 21
266.382
  0
LINE
  8
0
 10
43.7135
 20
266.382
 11
43.8145
 21
266.223
  0
LINE
  8
0
 10
43.8145
 20
266.223
 11
43.8947
 21
266.052
  0
LINE
  8
0
 10
43.8947
 20
266.052
 11
43.9529
 21
265.873
  0
LINE
  8
0
 10
43.9529
 20
265.873
 11
43.9882
 21
265.688
  0
LINE
  8
0
 10
43.9882
 20
265.688
 11
44
 21
265.5
  0
LINE
  8
0
 10
44
 20
265.5
 11
43.9882
 21
265.312
  0
LINE
  8
0
 10
43.9882
 20
265.312
 11
43.9529
 21
265.127
  0
LINE
  8
0
 10
43.9529
 20
265.127
 11
43.8947
 21
264.948
  0
LINE
  8
0
 10
43.8947
 20
264.948
 11
43.8145
 21
264.777
  0
LINE
  8
0
 10
43.8145
 20
264.777
 11
43.7135
 21
264.618
  0
LINE
  8
0
 10
43.7135
 20
264.618
 11
43.5934
 21
264.473
  0
LINE
  8
0
 10
43.5934
 20
264.473
 11
43.4561
 21
264.344
  0
LINE
  8
0
 10
43.4561
 20
264.344
 11
43.3037
 21
264.234
  0
LINE
  8
0
 10
43.3037
 20
264.234
 11
43.1387
 21
264.143
  0
LINE
  8
0
 10
43.1387
 20
264.143
 11
42.9635
 21
264.073
  0
LINE
  8
0
 10
42.9635
 20
264.073
 11
42.7811
 21
264.027
  0
LINE
  8
0
 10
42.7811
 20
264.027
 11
42.5942
 21
264.003
  0
LINE
  8
0
 10
42.5942
 20
264.003
 11
42.4058
 21
264.003
  0
LINE
  8
0
 10
49.887
 20
188.704
 11
49.6627
 21
188.732
  0
LINE
  8
0
 10
49.6627
 20
188.732
 11
49.4438
 21
188.788
  0
LINE
  8
0
 10
49.4438
 20
188.788
 11
49.2336
 21
188.871
  0
LINE
  8
0
 10
49.2336
 20
188.871
 11
49.0355
 21
188.98
  0
LINE
  8
0
 10
49.0355
 20
188.98
 11
48.8526
 21
189.113
  0
LINE
  8
0
 10
48.8526
 20
189.113
 11
48.6879
 21
189.268
  0
LINE
  8
0
 10
48.6879
 20
189.268
 11
48.5438
 21
189.442
  0
LINE
  8
0
 10
48.5438
 20
189.442
 11
48.4226
 21
189.633
  0
LINE
  8
0
 10
48.4226
 20
189.633
 11
48.3264
 21
189.837
  0
LINE
  8
0
 10
48.3264
 20
189.837
 11
48.2565
 21
190.052
  0
LINE
  8
0
 10
48.2565
 20
190.052
 11
48.2142
 21
190.274
  0
LINE
  8
0
 10
48.2142
 20
190.274
 11
48.2
 21
190.5
  0
LINE
  8
0
 10
48.2
 20
190.5
 11
48.2142
 21
190.726
  0
LINE
  8
0
 10
48.2142
 20
190.726
 11
48.2565
 21
190.948
  0
LINE
  8
0
 10
48.2565
 20
190.948
 11
48.3264
 21
191.163
  0
LINE
  8
0
 10
48.3264
 20
191.163
 11
48.4226
 21
191.367
  0
LINE
  8
0
 10
48.4226
 20
191.367
 11
48.5438
 21
191.558
  0
LINE
  8
0
 10
48.5438
 20
191.558
 11
48.6879
 21
191.732
  0
LINE
  8
0
 10
48.6879
 20
191.732
 11
48.8526
 21
191.887
  0
LINE
  8
0
 10
48.8526
 20
191.887
 11
49.0355
 21
192.02
  0
LINE
  8
0
 10
49.0355
 20
192.02
 11
49.2336
 21
192.129
  0
LINE
  8
0
 10
49.2336
 20
192.129
 11
49.4438
 21
192.212
  0
LINE
  8
0
 10
49.4438
 20
192.212
 11
49.6627
 21
192.268
  0
LINE
  8
0
 10
49.6627
 20
192.268
 11
49.887
 21
192.296
  0
LINE
  8
0
 10
49.887
 20
192.296
 11
50.113
 21
192.296
  0
LINE
  8
0
 10
50.113
 20
192.296
 11
50.3373
 21
192.268
  0
LINE
  8
0
 10
50.3373
 20
192.268
 11
50.5562
 21
192.212
  0
LINE
  8
0
 10
50.5562
 20
192.212
 11
50.7664
 21
192.129
  0
LINE
  8
0
 10
50.7664
 20
192.129
 11
50.9645
 21
192.02
  0
LINE
  8
0
 10
50.9645
 20
192.02
 11
51.1474
 21
191.887
  0
LINE
  8
0
 10
51.1474
 20
191.887
 11
51.3121
 21
191.732
  0
LINE
  8
0
 10
51.3121
 20
191.732
 11
51.4562
 21
191.558
  0
LINE
  8
0
 10
51.4562
 20
191.558
 11
51.5773
 21
191.367
  0
LINE
  8
0
 10
51.5773
 20
191.367
 11
51.6736
 21
191.163
  0
LINE
  8
0
 10
51.6736
 20
191.163
 11
51.7434
 21
190.948
  0
LINE
  8
0
 10
51.7434
 20
190.948
 11
51.7858
 21
190.726
  0
LINE
  8
0
 10
51.7858
 20
190.726
 11
51.8
 21
190.5
  0
LINE
  8
0
 10
51.8
 20
190.5
 11
51.7858
 21
190.274
  0
LINE
  8
0
 10
51.7858
 20
190.274
 11
51.7434
 21
190.052
  0
LINE
  8
0
 10
51.7434
 20
190.052
 11
51.6736
 21
189.837
  0
LINE
  8
0
 10
51.6736
 20
189.837
 11
51.5773
 21
189.633
  0
LINE
  8
0
 10
51.5773
 20
189.633
 11
51.4562
 21
189.442
  0
LINE
  8
0
 10
51.4562
 20
189.442
 11
51.3121
 21
189.268
  0
LINE
  8
0
 10
51.3121
 20
189.268
 11
51.1474
 21
189.113
  0
LINE
  8
0
 10
51.1474
 20
189.113
 11
50.9645
 21
188.98
  0
LINE
  8
0
 10
50.9645
 20
188.98
 11
50.7664
 21
188.871
  0
LINE
  8
0
 10
50.7664
 20
188.871
 11
50.5562
 21
188.788
  0
LINE
  8
0
 10
50.5562
 20
188.788
 11
50.3373
 21
188.732
  0
LINE
  8
0
 10
50.3373
 20
188.732
 11
50.113
 21
188.704
  0
LINE
  8
0
 10
50.113
 20
188.704
 11
49.887
 21
188.704
  0
LINE
  8
0
 10
57.4058
 20
189.003
 11
57.2189
 21
189.027
  0
LINE
  8
0
 10
57.2189
 20
189.027
 11
57.0365
 21
189.073
  0
LINE
  8
0
 10
57.0365
 20
189.073
 11
56.8613
 21
189.143
  0
LINE
  8
0
 10
56.8613
 20
189.143
 11
56.6963
 21
189.234
  0
LINE
  8
0
 10
56.6963
 20
189.234
 11
56.5439
 21
189.344
  0
LINE
  8
0
 10
56.5439
 20
189.344
 11
56.4065
 21
189.473
  0
LINE
  8
0
 10
56.4065
 20
189.473
 11
56.2865
 21
189.618
  0
LINE
  8
0
 10
56.2865
 20
189.618
 11
56.1855
 21
189.777
  0
LINE
  8
0
 10
56.1855
 20
189.777
 11
56.1053
 21
189.948
  0
LINE
  8
0
 10
56.1053
 20
189.948
 11
56.0471
 21
190.127
  0
LINE
  8
0
 10
56.0471
 20
190.127
 11
56.0118
 21
190.312
  0
LINE
  8
0
 10
56.0118
 20
190.312
 11
56
 21
190.5
  0
LINE
  8
0
 10
56
 20
190.5
 11
56.0118
 21
190.688
  0
LINE
  8
0
 10
56.0118
 20
190.688
 11
56.0471
 21
190.873
  0
LINE
  8
0
 10
56.0471
 20
190.873
 11
56.1053
 21
191.052
  0
LINE
  8
0
 10
56.1053
 20
191.052
 11
56.1855
 21
191.223
  0
LINE
  8
0
 10
56.1855
 20
191.223
 11
56.2865
 21
191.382
  0
LINE
  8
0
 10
56.2865
 20
191.382
 11
56.4065
 21
191.527
  0
LINE
  8
0
 10
56.4065
 20
191.527
 11
56.5439
 21
191.656
  0
LINE
  8
0
 10
56.5439
 20
191.656
 11
56.6963
 21
191.766
  0
LINE
  8
0
 10
56.6963
 20
191.766
 11
56.8613
 21
191.857
  0
LINE
  8
0
 10
56.8613
 20
191.857
 11
57.0365
 21
191.927
  0
LINE
  8
0
 10
57.0365
 20
191.927
 11
57.2189
 21
191.973
  0
LINE
  8
0
 10
57.2189
 20
191.973
 11
57.4058
 21
191.997
  0
LINE
  8
0
 10
57.4058
 20
191.997
 11
57.5942
 21
191.997
  0
LINE
  8
0
 10
57.5942
 20
191.997
 11
57.7811
 21
191.973
  0
LINE
  8
0
 10
57.7811
 20
191.973
 11
57.9635
 21
191.927
  0
LINE
  8
0
 10
57.9635
 20
191.927
 11
58.1387
 21
191.857
  0
LINE
  8
0
 10
58.1387
 20
191.857
 11
58.3037
 21
191.766
  0
LINE
  8
0
 10
58.3037
 20
191.766
 11
58.4561
 21
191.656
  0
LINE
  8
0
 10
58.4561
 20
191.656
 11
58.5934
 21
191.527
  0
LINE
  8
0
 10
58.5934
 20
191.527
 11
58.7135
 21
191.382
  0
LINE
  8
0
 10
58.7135
 20
191.382
 11
58.8145
 21
191.223
  0
LINE
  8
0
 10
58.8145
 20
191.223
 11
58.8947
 21
191.052
  0
LINE
  8
0
 10
58.8947
 20
191.052
 11
58.9529
 21
190.873
  0
LINE
  8
0
 10
58.9529
 20
190.873
 11
58.9882
 21
190.688
  0
LINE
  8
0
 10
58.9882
 20
190.688
 11
59
 21
190.5
  0
LINE
  8
0
 10
59
 20
190.5
 11
58.9882
 21
190.312
  0
LINE
  8
0
 10
58.9882
 20
190.312
 11
58.9529
 21
190.127
  0
LINE
  8
0
 10
58.9529
 20
190.127
 11
58.8947
 21
189.948
  0
LINE
  8
0
 10
58.8947
 20
189.948
 11
58.8145
 21
189.777
  0
LINE
  8
0
 10
58.8145
 20
189.777
 11
58.7135
 21
189.618
  0
LINE
  8
0
 10
58.7135
 20
189.618
 11
58.5934
 21
189.473
  0
LINE
  8
0
 10
58.5934
 20
189.473
 11
58.4561
 21
189.344
  0
LINE
  8
0
 10
58.4561
 20
189.344
 11
58.3037
 21
189.234
  0
LINE
  8
0
 10
58.3037
 20
189.234
 11
58.1387
 21
189.143
  0
LINE
  8
0
 10
58.1387
 20
189.143
 11
57.9635
 21
189.073
  0
LINE
  8
0
 10
57.9635
 20
189.073
 11
57.7811
 21
189.027
  0
LINE
  8
0
 10
57.7811
 20
189.027
 11
57.5942
 21
189.003
  0
LINE
  8
0
 10
57.5942
 20
189.003
 11
57.4058
 21
189.003
  0
LINE
  8
0
 10
42.4058
 20
189.003
 11
42.2189
 21
189.027
  0
LINE
  8
0
 10
42.2189
 20
189.027
 11
42.0365
 21
189.073
  0
LINE
  8
0
 10
42.0365
 20
189.073
 11
41.8613
 21
189.143
  0
LINE
  8
0
 10
41.8613
 20
189.143
 11
41.6963
 21
189.234
  0
LINE
  8
0
 10
41.6963
 20
189.234
 11
41.5439
 21
189.344
  0
LINE
  8
0
 10
41.5439
 20
189.344
 11
41.4065
 21
189.473
  0
LINE
  8
0
 10
41.4065
 20
189.473
 11
41.2865
 21
189.618
  0
LINE
  8
0
 10
41.2865
 20
189.618
 11
41.1855
 21
189.777
  0
LINE
  8
0
 10
41.1855
 20
189.777
 11
41.1053
 21
189.948
  0
LINE
  8
0
 10
41.1053
 20
189.948
 11
41.0471
 21
190.127
  0
LINE
  8
0
 10
41.0471
 20
190.127
 11
41.0118
 21
190.312
  0
LINE
  8
0
 10
41.0118
 20
190.312
 11
41
 21
190.5
  0
LINE
  8
0
 10
41
 20
190.5
 11
41.0118
 21
190.688
  0
LINE
  8
0
 10
41.0118
 20
190.688
 11
41.0471
 21
190.873
  0
LINE
  8
0
 10
41.0471
 20
190.873
 11
41.1053
 21
191.052
  0
LINE
  8
0
 10
41.1053
 20
191.052
 11
41.1855
 21
191.223
  0
LINE
  8
0
 10
41.1855
 20
191.223
 11
41.2865
 21
191.382
  0
LINE
  8
0
 10
41.2865
 20
191.382
 11
41.4065
 21
191.527
  0
LINE
  8
0
 10
41.4065
 20
191.527
 11
41.5439
 21
191.656
  0
LINE
  8
0
 10
41.5439
 20
191.656
 11
41.6963
 21
191.766
  0
LINE
  8
0
 10
41.6963
 20
191.766
 11
41.8613
 21
191.857
  0
LINE
  8
0
 10
41.8613
 20
191.857
 11
42.0365
 21
191.927
  0
LINE
  8
0
 10
42.0365
 20
191.927
 11
42.2189
 21
191.973
  0
LINE
  8
0
 10
42.2189
 20
191.973
 11
42.4058
 21
191.997
  0
LINE
  8
0
 10
42.4058
 20
191.997
 11
42.5942
 21
191.997
  0
LINE
  8
0
 10
42.5942
 20
191.997
 11
42.7811
 21
191.973
  0
LINE
  8
0
 10
42.7811
 20
191.973
 11
42.9635
 21
191.927
  0
LINE
  8
0
 10
42.9635
 20
191.927
 11
43.1387
 21
191.857
  0
LINE
  8
0
 10
43.1387
 20
191.857
 11
43.3037
 21
191.766
  0
LINE
  8
0
 10
43.3037
 20
191.766
 11
43.4561
 21
191.656
  0
LINE
  8
0
 10
43.4561
 20
191.656
 11
43.5934
 21
191.527
  0
LINE
  8
0
 10
43.5934
 20
191.527
 11
43.7135
 21
191.382
  0
LINE
  8
0
 10
43.7135
 20
191.382
 11
43.8145
 21
191.223
  0
LINE
  8
0
 10
43.8145
 20
191.223
 11
43.8947
 21
191.052
  0
LINE
  8
0
 10
43.8947
 20
191.052
 11
43.9529
 21
190.873
  0
LINE
  8
0
 10
43.9529
 20
190.873
 11
43.9882
 21
190.688
  0
LINE
  8
0
 10
43.9882
 20
190.688
 11
44
 21
190.5
  0
LINE
  8
0
 10
44
 20
190.5
 11
43.9882
 21
190.312
  0
LINE
  8
0
 10
43.9882
 20
190.312
 11
43.9529
 21
190.127
  0
LINE
  8
0
 10
43.9529
 20
190.127
 11
43.8947
 21
189.948
  0
LINE
  8
0
 10
43.8947
 20
189.948
 11
43.8145
 21
189.777
  0
LINE
  8
0
 10
43.8145
 20
189.777
 11
43.7135
 21
189.618
  0
LINE
  8
0
 10
43.7135
 20
189.618
 11
43.5934
 21
189.473
  0
LINE
  8
0
 10
43.5934
 20
189.473
 11
43.4561
 21
189.344
  0
LINE
  8
0
 10
43.4561
 20
189.344
 11
43.3037
 21
189.234
  0
LINE
  8
0
 10
43.3037
 20
189.234
 11
43.1387
 21
189.143
  0
LINE
  8
0
 10
43.1387
 20
189.143
 11
42.9635
 21
189.073
  0
LINE
  8
0
 10
42.9635
 20
189.073
 11
42.7811
 21
189.027
  0
LINE
  8
0
 10
42.7811
 20
189.027
 11
42.5942
 21
189.003
  0
LINE
  8
0
 10
42.5942
 20
189.003
 11
42.4058
 21
189.003
  0
LINE
  8
0
 10
57.3116
 20
180.006
 11
56.9379
 21
180.053
  0
LINE
  8
0
 10
56.9379
 20
180.053
 11
56.5729
 21
180.147
  0
LINE
  8
0
 10
56.5729
 20
180.147
 11
56.2227
 21
180.286
  0
LINE
  8
0
 10
56.2227
 20
180.286
 11
55.8925
 21
180.467
  0
LINE
  8
0
 10
55.8925
 20
180.467
 11
55.5877
 21
180.688
  0
LINE
  8
0
 10
55.5877
 20
180.688
 11
55.3131
 21
180.946
  0
LINE
  8
0
 10
55.3131
 20
180.946
 11
55.0729
 21
181.237
  0
LINE
  8
0
 10
55.0729
 20
181.237
 11
54.8711
 21
181.555
  0
LINE
  8
0
 10
54.8711
 20
181.555
 11
54.7107
 21
181.896
  0
LINE
  8
0
 10
54.7107
 20
181.896
 11
54.5942
 21
182.254
  0
LINE
  8
0
 10
54.5942
 20
182.254
 11
54.5237
 21
182.624
  0
LINE
  8
0
 10
54.5237
 20
182.624
 11
54.5
 21
183
  0
LINE
  8
0
 10
54.5
 20
183
 11
54.5237
 21
183.376
  0
LINE
  8
0
 10
54.5237
 20
183.376
 11
54.5942
 21
183.746
  0
LINE
  8
0
 10
54.5942
 20
183.746
 11
54.7107
 21
184.104
  0
LINE
  8
0
 10
54.7107
 20
184.104
 11
54.8711
 21
184.445
  0
LINE
  8
0
 10
54.8711
 20
184.445
 11
55.0729
 21
184.763
  0
LINE
  8
0
 10
55.0729
 20
184.763
 11
55.3131
 21
185.054
  0
LINE
  8
0
 10
55.3131
 20
185.054
 11
55.5877
 21
185.312
  0
LINE
  8
0
 10
55.5877
 20
185.312
 11
55.8925
 21
185.533
  0
LINE
  8
0
 10
55.8925
 20
185.533
 11
56.2227
 21
185.714
  0
LINE
  8
0
 10
56.2227
 20
185.714
 11
56.5729
 21
185.853
  0
LINE
  8
0
 10
56.5729
 20
185.853
 11
56.9379
 21
185.947
  0
LINE
  8
0
 10
56.9379
 20
185.947
 11
57.3116
 21
185.994
  0
LINE
  8
0
 10
57.3116
 20
185.994
 11
57.6884
 21
185.994
  0
LINE
  8
0
 10
57.6884
 20
185.994
 11
58.0621
 21
185.947
  0
LINE
  8
0
 10
58.0621
 20
185.947
 11
58.427
 21
185.853
  0
LINE
  8
0
 10
58.427
 20
185.853
 11
58.7773
 21
185.714
  0
LINE
  8
0
 10
58.7773
 20
185.714
 11
59.1075
 21
185.533
  0
LINE
  8
0
 10
59.1075
 20
185.533
 11
59.4123
 21
185.312
  0
LINE
  8
0
 10
59.4123
 20
185.312
 11
59.6869
 21
185.054
  0
LINE
  8
0
 10
59.6869
 20
185.054
 11
59.927
 21
184.763
  0
LINE
  8
0
 10
59.927
 20
184.763
 11
60.1289
 21
184.445
  0
LINE
  8
0
 10
60.1289
 20
184.445
 11
60.2893
 21
184.104
  0
LINE
  8
0
 10
60.2893
 20
184.104
 11
60.4057
 21
183.746
  0
LINE
  8
0
 10
60.4057
 20
183.746
 11
60.4763
 21
183.376
  0
LINE
  8
0
 10
60.4763
 20
183.376
 11
60.5
 21
183
  0
LINE
  8
0
 10
60.5
 20
183
 11
60.4763
 21
182.624
  0
LINE
  8
0
 10
60.4763
 20
182.624
 11
60.4057
 21
182.254
  0
LINE
  8
0
 10
60.4057
 20
182.254
 11
60.2893
 21
181.896
  0
LINE
  8
0
 10
60.2893
 20
181.896
 11
60.1289
 21
181.555
  0
LINE
  8
0
 10
60.1289
 20
181.555
 11
59.927
 21
181.237
  0
LINE
  8
0
 10
59.927
 20
181.237
 11
59.6869
 21
180.946
  0
LINE
  8
0
 10
59.6869
 20
180.946
 11
59.4123
 21
180.688
  0
LINE
  8
0
 10
59.4123
 20
180.688
 11
59.1075
 21
180.467
  0
LINE
  8
0
 10
59.1075
 20
180.467
 11
58.7773
 21
180.286
  0
LINE
  8
0
 10
58.7773
 20
180.286
 11
58.427
 21
180.147
  0
LINE
  8
0
 10
58.427
 20
180.147
 11
58.0621
 21
180.053
  0
LINE
  8
0
 10
58.0621
 20
180.053
 11
57.6884
 21
180.006
  0
LINE
  8
0
 10
57.6884
 20
180.006
 11
57.3116
 21
180.006
  0
LINE
  8
0
 10
42.3116
 20
180.006
 11
41.9379
 21
180.053
  0
LINE
  8
0
 10
41.9379
 20
180.053
 11
41.5729
 21
180.147
  0
LINE
  8
0
 10
41.5729
 20
180.147
 11
41.2227
 21
180.286
  0
LINE
  8
0
 10
41.2227
 20
180.286
 11
40.8925
 21
180.467
  0
LINE
  8
0
 10
40.8925
 20
180.467
 11
40.5877
 21
180.688
  0
LINE
  8
0
 10
40.5877
 20
180.688
 11
40.3131
 21
180.946
  0
LINE
  8
0
 10
40.3131
 20
180.946
 11
40.0729
 21
181.237
  0
LINE
  8
0
 10
40.0729
 20
181.237
 11
39.8711
 21
181.555
  0
LINE
  8
0
 10
39.8711
 20
181.555
 11
39.7107
 21
181.896
  0
LINE
  8
0
 10
39.7107
 20
181.896
 11
39.5942
 21
182.254
  0
LINE
  8
0
 10
39.5942
 20
182.254
 11
39.5237
 21
182.624
  0
LINE
  8
0
 10
39.5237
 20
182.624
 11
39.5
 21
183
  0
LINE
  8
0
 10
39.5
 20
183
 11
39.5237
 21
183.376
  0
LINE
  8
0
 10
39.5237
 20
183.376
 11
39.5942
 21
183.746
  0
LINE
  8
0
 10
39.5942
 20
183.746
 11
39.7107
 21
184.104
  0
LINE
  8
0
 10
39.7107
 20
184.104
 11
39.8711
 21
184.445
  0
LINE
  8
0
 10
39.8711
 20
184.445
 11
40.0729
 21
184.763
  0
LINE
  8
0
 10
40.0729
 20
184.763
 11
40.3131
 21
185.054
  0
LINE
  8
0
 10
40.3131
 20
185.054
 11
40.5877
 21
185.312
  0
LINE
  8
0
 10
40.5877
 20
185.312
 11
40.8925
 21
185.533
  0
LINE
  8
0
 10
40.8925
 20
185.533
 11
41.2227
 21
185.714
  0
LINE
  8
0
 10
41.2227
 20
185.714
 11
41.5729
 21
185.853
  0
LINE
  8
0
 10
41.5729
 20
185.853
 11
41.9379
 21
185.947
  0
LINE
  8
0
 10
41.9379
 20
185.947
 11
42.3116
 21
185.994
  0
LINE
  8
0
 10
42.3116
 20
185.994
 11
42.6884
 21
185.994
  0
LINE
  8
0
 10
42.6884
 20
185.994
 11
43.0621
 21
185.947
  0
LINE
  8
0
 10
43.0621
 20
185.947
 11
43.427
 21
185.853
  0
LINE
  8
0
 10
43.427
 20
185.853
 11
43.7773
 21
185.714
  0
LINE
  8
0
 10
43.7773
 20
185.714
 11
44.1075
 21
185.533
  0
LINE
  8
0
 10
44.1075
 20
185.533
 11
44.4123
 21
185.312
  0
LINE
  8
0
 10
44.4123
 20
185.312
 11
44.6869
 21
185.054
  0
LINE
  8
0
 10
44.6869
 20
185.054
 11
44.927
 21
184.763
  0
LINE
  8
0
 10
44.927
 20
184.763
 11
45.1289
 21
184.445
  0
LINE
  8
0
 10
45.1289
 20
184.445
 11
45.2893
 21
184.104
  0
LINE
  8
0
 10
45.2893
 20
184.104
 11
45.4057
 21
183.746
  0
LINE
  8
0
 10
45.4057
 20
183.746
 11
45.4763
 21
183.376
  0
LINE
  8
0
 10
45.4763
 20
183.376
 11
45.5
 21
183
  0
LINE
  8
0
 10
45.5
 20
183
 11
45.4763
 21
182.624
  0
LINE
  8
0
 10
45.4763
 20
182.624
 11
45.4057
 21
182.254
  0
LINE
  8
0
 10
45.4057
 20
182.254
 11
45.2893
 21
181.896
  0
LINE
  8
0
 10
45.2893
 20
181.896
 11
45.1289
 21
181.555
  0
LINE
  8
0
 10
45.1289
 20
181.555
 11
44.927
 21
181.237
  0
LINE
  8
0
 10
44.927
 20
181.237
 11
44.6869
 21
180.946
  0
LINE
  8
0
 10
44.6869
 20
180.946
 11
44.4123
 21
180.688
  0
LINE
  8
0
 10
44.4123
 20
180.688
 11
44.1075
 21
180.467
  0
LINE
  8
0
 10
44.1075
 20
180.467
 11
43.7773
 21
180.286
  0
LINE
  8
0
 10
43.7773
 20
180.286
 11
43.427
 21
180.147
  0
LINE
  8
0
 10
43.427
 20
180.147
 11
43.0621
 21
180.053
  0
LINE
  8
0
 10
43.0621
 20
180.053
 11
42.6884
 21
180.006
  0
LINE
  8
0
 10
42.6884
 20
180.006
 11
42.3116
 21
180.006
  0
LINE
  8
0
 10
49.9058
 20
181.503
 11
49.7189
 21
181.527
  0
LINE
  8
0
 10
49.7189
 20
181.527
 11
49.5365
 21
181.573
  0
LINE
  8
0
 10
49.5365
 20
181.573
 11
49.3613
 21
181.643
  0
LINE
  8
0
 10
49.3613
 20
181.643
 11
49.1963
 21
181.734
  0
LINE
  8
0
 10
49.1963
 20
181.734
 11
49.0439
 21
181.844
  0
LINE
  8
0
 10
49.0439
 20
181.844
 11
48.9065
 21
181.973
  0
LINE
  8
0
 10
48.9065
 20
181.973
 11
48.7865
 21
182.118
  0
LINE
  8
0
 10
48.7865
 20
182.118
 11
48.6855
 21
182.277
  0
LINE
  8
0
 10
48.6855
 20
182.277
 11
48.6053
 21
182.448
  0
LINE
  8
0
 10
48.6053
 20
182.448
 11
48.5471
 21
182.627
  0
LINE
  8
0
 10
48.5471
 20
182.627
 11
48.5118
 21
182.812
  0
LINE
  8
0
 10
48.5118
 20
182.812
 11
48.5
 21
183
  0
LINE
  8
0
 10
48.5
 20
183
 11
48.5118
 21
183.188
  0
LINE
  8
0
 10
48.5118
 20
183.188
 11
48.5471
 21
183.373
  0
LINE
  8
0
 10
48.5471
 20
183.373
 11
48.6053
 21
183.552
  0
LINE
  8
0
 10
48.6053
 20
183.552
 11
48.6855
 21
183.723
  0
LINE
  8
0
 10
48.6855
 20
183.723
 11
48.7865
 21
183.882
  0
LINE
  8
0
 10
48.7865
 20
183.882
 11
48.9065
 21
184.027
  0
LINE
  8
0
 10
48.9065
 20
184.027
 11
49.0439
 21
184.156
  0
LINE
  8
0
 10
49.0439
 20
184.156
 11
49.1963
 21
184.266
  0
LINE
  8
0
 10
49.1963
 20
184.266
 11
49.3613
 21
184.357
  0
LINE
  8
0
 10
49.3613
 20
184.357
 11
49.5365
 21
184.427
  0
LINE
  8
0
 10
49.5365
 20
184.427
 11
49.7189
 21
184.473
  0
LINE
  8
0
 10
49.7189
 20
184.473
 11
49.9058
 21
184.497
  0
LINE
  8
0
 10
49.9058
 20
184.497
 11
50.0942
 21
184.497
  0
LINE
  8
0
 10
50.0942
 20
184.497
 11
50.2811
 21
184.473
  0
LINE
  8
0
 10
50.2811
 20
184.473
 11
50.4635
 21
184.427
  0
LINE
  8
0
 10
50.4635
 20
184.427
 11
50.6387
 21
184.357
  0
LINE
  8
0
 10
50.6387
 20
184.357
 11
50.8037
 21
184.266
  0
LINE
  8
0
 10
50.8037
 20
184.266
 11
50.9561
 21
184.156
  0
LINE
  8
0
 10
50.9561
 20
184.156
 11
51.0934
 21
184.027
  0
LINE
  8
0
 10
51.0934
 20
184.027
 11
51.2135
 21
183.882
  0
LINE
  8
0
 10
51.2135
 20
183.882
 11
51.3145
 21
183.723
  0
LINE
  8
0
 10
51.3145
 20
183.723
 11
51.3947
 21
183.552
  0
LINE
  8
0
 10
51.3947
 20
183.552
 11
51.4529
 21
183.373
  0
LINE
  8
0
 10
51.4529
 20
183.373
 11
51.4882
 21
183.188
  0
LINE
  8
0
 10
51.4882
 20
183.188
 11
51.5
 21
183
  0
LINE
  8
0
 10
51.5
 20
183
 11
51.4882
 21
182.812
  0
LINE
  8
0
 10
51.4882
 20
182.812
 11
51.4529
 21
182.627
  0
LINE
  8
0
 10
51.4529
 20
182.627
 11
51.3947
 21
182.448
  0
LINE
  8
0
 10
51.3947
 20
182.448
 11
51.3145
 21
182.277
  0
LINE
  8
0
 10
51.3145
 20
182.277
 11
51.2135
 21
182.118
  0
LINE
  8
0
 10
51.2135
 20
182.118
 11
51.0934
 21
181.973
  0
LINE
  8
0
 10
51.0934
 20
181.973
 11
50.9561
 21
181.844
  0
LINE
  8
0
 10
50.9561
 20
181.844
 11
50.8037
 21
181.734
  0
LINE
  8
0
 10
50.8037
 20
181.734
 11
50.6387
 21
181.643
  0
LINE
  8
0
 10
50.6387
 20
181.643
 11
50.4635
 21
181.573
  0
LINE
  8
0
 10
50.4635
 20
181.573
 11
50.2811
 21
181.527
  0
LINE
  8
0
 10
50.2811
 20
181.527
 11
50.0942
 21
181.503
  0
LINE
  8
0
 10
50.0942
 20
181.503
 11
49.9058
 21
181.503
  0
ENDSEC
  0
SECTION
  2
OBJECTS
  0
DICTIONARY
  0
ENDSEC
  0
EOF
