<?xml version="1.0" standalone="no"?>
<!DOCTYPE svg PUBLIC "-//W3C//DTD SVG 1.1//EN" "http://www.w3.org/Graphics/SVG/1.1/DTD/svg11.dtd">
<svg width="180mm" height="189mm" viewBox="-15 -342 180 189" xmlns="http://www.w3.org/2000/svg" version="1.1">
<title>OpenSCAD Model</title>
<path d="
M 125.506,-341.5 L 121.994,-341.5 L 121.994,-312.5 L 125.506,-312.5 z
M 133.006,-341.5 L 129.494,-341.5 L 129.494,-312.5 L 133.006,-312.5 z
M 140.506,-341.5 L 136.994,-341.5 L 136.994,-312.5 L 140.506,-312.5 z
M 104.5,-312.5 L 110.506,-312.5 L 110.506,-341.5 L 95.5,-341.5 L 94.8733,-341.461 L 94.2565,-341.343
 L 93.6594,-341.149 L 93.0912,-340.882 L 92.5611,-340.545 L 92.0773,-340.145 L 91.6474,-339.687 L 91.2784,-339.179
 L 90.9759,-338.629 L 90.7447,-338.045 L 90.5886,-337.437 L 90.5099,-336.814 L 90.5099,-326.49 L 80.1861,-326.49
 L 79.5631,-326.411 L 78.9549,-326.255 L 78.3711,-326.024 L 77.8209,-325.722 L 77.3129,-325.353 L 76.8551,-324.923
 L 76.4549,-324.439 L 76.1185,-323.909 L 75.8511,-323.341 L 75.6571,-322.743 L 75.5394,-322.127 L 75.5,-321.5
 L 75.5,-306.494 L 104.5,-306.494 z
M 97.124,-331.524 L 96.7539,-331.594 L 96.3956,-331.711 L 96.0547,-331.871 L 95.7366,-332.073 L 95.4464,-332.313
 L 95.1885,-332.588 L 94.967,-332.893 L 94.7855,-333.223 L 94.6468,-333.573 L 94.5531,-333.938 L 94.5059,-334.312
 L 94.5059,-334.688 L 94.5531,-335.062 L 94.6468,-335.427 L 94.7855,-335.777 L 94.967,-336.107 L 95.1885,-336.412
 L 95.4464,-336.687 L 95.7366,-336.927 L 96.0547,-337.129 L 96.3956,-337.289 L 96.7539,-337.406 L 97.124,-337.476
 L 97.5,-337.5 L 97.876,-337.476 L 98.2461,-337.406 L 98.6044,-337.289 L 98.9453,-337.129 L 99.2634,-336.927
 L 99.5536,-336.687 L 99.8115,-336.412 L 100.033,-336.107 L 100.214,-335.777 L 100.353,-335.427 L 100.447,-335.062
 L 100.494,-334.688 L 100.494,-334.312 L 100.447,-333.938 L 100.353,-333.573 L 100.214,-333.223 L 100.033,-332.893
 L 99.8115,-332.588 L 99.5536,-332.313 L 99.2634,-332.073 L 98.9453,-331.871 L 98.6044,-331.711 L 98.2461,-331.594
 L 97.876,-331.524 L 97.5,-331.5 z
M 104.812,-333.012 L 104.627,-333.047 L 104.448,-333.105 L 104.277,-333.186 L 104.118,-333.286 L 103.973,-333.407
 L 103.844,-333.544 L 103.734,-333.696 L 103.643,-333.861 L 103.573,-334.036 L 103.527,-334.219 L 103.503,-334.406
 L 103.503,-334.594 L 103.527,-334.781 L 103.573,-334.964 L 103.643,-335.139 L 103.734,-335.304 L 103.844,-335.456
 L 103.973,-335.593 L 104.118,-335.714 L 104.277,-335.814 L 104.448,-335.895 L 104.627,-335.953 L 104.812,-335.988
 L 105,-336 L 105.188,-335.988 L 105.373,-335.953 L 105.552,-335.895 L 105.723,-335.814 L 105.882,-335.714
 L 106.027,-335.593 L 106.156,-335.456 L 106.266,-335.304 L 106.357,-335.139 L 106.427,-334.964 L 106.473,-334.781
 L 106.497,-334.594 L 106.497,-334.406 L 106.473,-334.219 L 106.427,-334.036 L 106.357,-333.861 L 106.266,-333.696
 L 106.156,-333.544 L 106.027,-333.407 L 105.882,-333.286 L 105.723,-333.186 L 105.552,-333.105 L 105.373,-333.047
 L 105.188,-333.012 L 105,-333 z
M 104.944,-325.204 L 104.887,-325.204 L 104.831,-325.211 L 104.774,-325.214 L 104.719,-325.225 L 104.663,-325.232
 L 104.608,-325.246 L 104.552,-325.257 L 104.499,-325.274 L 104.444,-325.288 L 104.391,-325.309 L 104.337,-325.326
 L 104.286,-325.35 L 104.234,-325.371 L 104.184,-325.399 L 104.133,-325.423 L 104.085,-325.453 L 104.036,-325.48
 L 103.99,-325.513 L 103.942,-325.544 L 103.898,-325.58 L 103.853,-325.613 L 103.811,-325.652 L 103.768,-325.688
 L 103.729,-325.729 L 103.688,-325.768 L 103.652,-325.811 L 103.613,-325.853 L 103.58,-325.898 L 103.544,-325.942
 L 103.513,-325.99 L 103.48,-326.036 L 103.453,-326.085 L 103.423,-326.133 L 103.399,-326.184 L 103.371,-326.234
 L 103.35,-326.286 L 103.326,-326.337 L 103.309,-326.391 L 103.288,-326.444 L 103.274,-326.499 L 103.257,-326.552
 L 103.246,-326.608 L 103.232,-326.663 L 103.225,-326.719 L 103.214,-326.774 L 103.211,-326.831 L 103.204,-326.887
 L 103.204,-326.944 L 103.2,-327 L 103.204,-327.056 L 103.204,-327.113 L 103.211,-327.169 L 103.214,-327.226
 L 103.225,-327.281 L 103.232,-327.337 L 103.246,-327.392 L 103.257,-327.448 L 103.274,-327.501 L 103.288,-327.556
 L 103.309,-327.609 L 103.326,-327.663 L 103.35,-327.714 L 103.371,-327.766 L 103.399,-327.816 L 103.423,-327.867
 L 103.453,-327.915 L 103.48,-327.964 L 103.513,-328.01 L 103.544,-328.058 L 103.58,-328.102 L 103.613,-328.147
 L 103.652,-328.189 L 103.688,-328.232 L 103.729,-328.271 L 103.768,-328.312 L 103.811,-328.348 L 103.853,-328.387
 L 103.898,-328.42 L 103.942,-328.456 L 103.99,-328.487 L 104.036,-328.52 L 104.085,-328.547 L 104.133,-328.577
 L 104.184,-328.601 L 104.234,-328.629 L 104.286,-328.65 L 104.337,-328.674 L 104.391,-328.691 L 104.444,-328.712
 L 104.499,-328.726 L 104.552,-328.743 L 104.608,-328.754 L 104.663,-328.768 L 104.719,-328.775 L 104.774,-328.786
 L 104.831,-328.789 L 104.887,-328.796 L 104.944,-328.796 L 105,-328.8 L 105.056,-328.796 L 105.113,-328.796
 L 105.169,-328.789 L 105.226,-328.786 L 105.281,-328.775 L 105.337,-328.768 L 105.392,-328.754 L 105.448,-328.743
 L 105.501,-328.726 L 105.556,-328.712 L 105.609,-328.691 L 105.663,-328.674 L 105.714,-328.65 L 105.766,-328.629
 L 105.816,-328.601 L 105.867,-328.577 L 105.915,-328.547 L 105.964,-328.52 L 106.01,-328.487 L 106.058,-328.456
 L 106.102,-328.42 L 106.147,-328.387 L 106.189,-328.348 L 106.232,-328.312 L 106.271,-328.271 L 106.312,-328.232
 L 106.348,-328.189 L 106.387,-328.147 L 106.42,-328.102 L 106.456,-328.058 L 106.487,-328.01 L 106.52,-327.964
 L 106.547,-327.915 L 106.577,-327.867 L 106.601,-327.816 L 106.629,-327.766 L 106.65,-327.714 L 106.674,-327.663
 L 106.691,-327.609 L 106.712,-327.556 L 106.726,-327.501 L 106.743,-327.448 L 106.754,-327.392 L 106.768,-327.337
 L 106.775,-327.281 L 106.786,-327.226 L 106.789,-327.169 L 106.796,-327.113 L 106.796,-327.056 L 106.8,-327
 L 106.796,-326.944 L 106.796,-326.887 L 106.789,-326.831 L 106.786,-326.774 L 106.775,-326.719 L 106.768,-326.663
 L 106.754,-326.608 L 106.743,-326.552 L 106.726,-326.499 L 106.712,-326.444 L 106.691,-326.391 L 106.674,-326.337
 L 106.65,-326.286 L 106.629,-326.234 L 106.601,-326.184 L 106.577,-326.133 L 106.547,-326.085 L 106.52,-326.036
 L 106.487,-325.99 L 106.456,-325.942 L 106.42,-325.898 L 106.387,-325.853 L 106.348,-325.811 L 106.312,-325.768
 L 106.271,-325.729 L 106.232,-325.688 L 106.189,-325.652 L 106.147,-325.613 L 106.102,-325.58 L 106.058,-325.544
 L 106.01,-325.513 L 105.964,-325.48 L 105.915,-325.453 L 105.867,-325.423 L 105.816,-325.399 L 105.766,-325.371
 L 105.714,-325.35 L 105.663,-325.326 L 105.609,-325.309 L 105.556,-325.288 L 105.501,-325.274 L 105.448,-325.257
 L 105.392,-325.246 L 105.337,-325.232 L 105.281,-325.225 L 105.226,-325.214 L 105.169,-325.211 L 105.113,-325.204
 L 105.056,-325.204 L 105,-325.2 z
M 96.0918,-326.49 L 96.0734,-326.536 L 96.0266,-326.719 L 96.003,-326.906 L 96.003,-327.094 L 96.0266,-327.281
 L 96.0734,-327.464 L 96.1428,-327.639 L 96.2335,-327.804 L 96.3442,-327.956 L 96.4732,-328.093 L 96.6183,-328.214
 L 96.7774,-328.314 L 96.9478,-328.395 L 97.127,-328.453 L 97.312,-328.488 L 97.5,-328.5 L 97.688,-328.488
 L 97.873,-328.453 L 98.0522,-328.395 L 98.2226,-328.314 L 98.3817,-328.214 L 98.5268,-328.093 L 98.6558,-327.956
 L 98.7665,-327.804 L 98.8572,-327.639 L 98.9266,-327.464 L 98.9734,-327.281 L 98.997,-327.094 L 98.997,-326.906
 L 98.9734,-326.719 L 98.9266,-326.536 L 98.9082,-326.49 z
M 82.3116,-316.506 L 81.9379,-316.553 L 81.573,-316.647 L 81.2227,-316.786 L 80.8925,-316.967 L 80.5877,-317.188
 L 80.3131,-317.446 L 80.073,-317.737 L 79.8711,-318.055 L 79.7107,-318.396 L 79.5943,-318.754 L 79.5237,-319.124
 L 79.5,-319.5 L 79.5237,-319.876 L 79.5943,-320.246 L 79.7107,-320.604 L 79.8711,-320.945 L 80.073,-321.263
 L 80.3131,-321.554 L 80.5877,-321.812 L 80.8925,-322.033 L 81.2227,-322.214 L 81.573,-322.353 L 81.9379,-322.447
 L 82.3116,-322.494 L 82.6884,-322.494 L 83.0621,-322.447 L 83.427,-322.353 L 83.7773,-322.214 L 84.1075,-322.033
 L 84.4123,-321.812 L 84.6869,-321.554 L 84.927,-321.263 L 85.1289,-320.945 L 85.2893,-320.604 L 85.4057,-320.246
 L 85.4763,-319.876 L 85.5,-319.5 L 85.4763,-319.124 L 85.4057,-318.754 L 85.2893,-318.396 L 85.1289,-318.055
 L 84.927,-317.737 L 84.6869,-317.446 L 84.4123,-317.188 L 84.1075,-316.967 L 83.7773,-316.786 L 83.427,-316.647
 L 83.0621,-316.553 L 82.6884,-316.506 z
M 97.4059,-316.506 L 97.2181,-316.518 L 97.0314,-316.541 L 96.8465,-316.577 L 96.6643,-316.623 L 96.4853,-316.682
 L 96.3103,-316.751 L 96.14,-316.831 L 95.9751,-316.922 L 95.8162,-317.022 L 95.664,-317.133 L 95.519,-317.253
 L 95.3818,-317.382 L 95.253,-317.519 L 95.1331,-317.664 L 95.0224,-317.816 L 94.9216,-317.975 L 94.8309,-318.14
 L 94.7508,-318.31 L 94.6815,-318.485 L 94.6234,-318.664 L 94.5766,-318.847 L 94.5413,-319.031 L 94.5177,-319.218
 L 94.5059,-319.406 L 94.5059,-319.594 L 94.5177,-319.782 L 94.5413,-319.969 L 94.5766,-320.153 L 94.6234,-320.336
 L 94.6815,-320.515 L 94.7508,-320.69 L 94.8309,-320.86 L 94.9216,-321.025 L 95.0224,-321.184 L 95.133,-321.336
 L 95.253,-321.481 L 95.3818,-321.618 L 95.519,-321.747 L 95.664,-321.867 L 95.8163,-321.978 L 95.9751,-322.078
 L 96.1401,-322.169 L 96.3103,-322.249 L 96.4853,-322.318 L 96.6643,-322.377 L 96.8465,-322.423 L 97.0314,-322.459
 L 97.2181,-322.482 L 97.4059,-322.494 L 97.5941,-322.494 L 97.7819,-322.482 L 97.9686,-322.459 L 98.1534,-322.423
 L 98.3357,-322.377 L 98.5147,-322.318 L 98.6897,-322.249 L 98.8599,-322.169 L 99.0249,-322.078 L 99.1837,-321.978
 L 99.336,-321.867 L 99.481,-321.747 L 99.6182,-321.618 L 99.747,-321.481 L 99.867,-321.336 L 99.9776,-321.184
 L 100.078,-321.025 L 100.169,-320.86 L 100.249,-320.69 L 100.318,-320.515 L 100.377,-320.336 L 100.423,-320.153
 L 100.459,-319.969 L 100.482,-319.782 L 100.494,-319.594 L 100.494,-319.406 L 100.482,-319.218 L 100.459,-319.031
 L 100.423,-318.847 L 100.377,-318.664 L 100.318,-318.485 L 100.249,-318.31 L 100.169,-318.14 L 100.078,-317.975
 L 99.9776,-317.816 L 99.867,-317.664 L 99.747,-317.519 L 99.6182,-317.382 L 99.481,-317.253 L 99.336,-317.133
 L 99.1837,-317.022 L 99.0249,-316.922 L 98.86,-316.831 L 98.6897,-316.751 L 98.5147,-316.682 L 98.3357,-316.623
 L 98.1535,-316.577 L 97.9686,-316.541 L 97.7819,-316.518 L 97.5941,-316.506 z
M 104.812,-318.012 L 104.627,-318.047 L 104.5,-318.088 L 104.5,-320.912 L 104.627,-320.953 L 104.812,-320.988
 L 105,-321 L 105.188,-320.988 L 105.373,-320.953 L 105.552,-320.895 L 105.723,-320.814 L 105.882,-320.714
 L 106.027,-320.593 L 106.156,-320.456 L 106.266,-320.304 L 106.357,-320.139 L 106.427,-319.964 L 106.473,-319.781
 L 106.497,-319.594 L 106.497,-319.406 L 106.473,-319.219 L 106.427,-319.036 L 106.357,-318.861 L 106.266,-318.696
 L 106.156,-318.544 L 106.027,-318.407 L 105.882,-318.286 L 105.723,-318.186 L 105.552,-318.105 L 105.373,-318.047
 L 105.188,-318.012 L 105,-318 z
M 89.9058,-318.003 L 89.7189,-318.027 L 89.5365,-318.073 L 89.3613,-318.143 L 89.1963,-318.234 L 89.0439,-318.344
 L 88.9065,-318.473 L 88.7865,-318.618 L 88.6855,-318.777 L 88.6053,-318.948 L 88.5471,-319.127 L 88.5118,-319.312
 L 88.5,-319.5 L 88.5118,-319.688 L 88.5471,-319.873 L 88.6053,-320.052 L 88.6855,-320.223 L 88.7865,-320.382
 L 88.9065,-320.527 L 89.0439,-320.656 L 89.1963,-320.766 L 89.3613,-320.857 L 89.5365,-320.927 L 89.7189,-320.973
 L 89.9058,-320.997 L 90.0942,-320.997 L 90.2811,-320.973 L 90.4635,-320.927 L 90.5099,-320.908 L 90.5099,-318.092
 L 90.4635,-318.073 L 90.2811,-318.027 L 90.0942,-318.003 z
M 89.887,-310.204 L 89.6627,-310.232 L 89.4438,-310.288 L 89.2336,-310.371 L 89.0355,-310.48 L 88.8526,-310.613
 L 88.6879,-310.768 L 88.5438,-310.942 L 88.4226,-311.133 L 88.3264,-311.337 L 88.2565,-311.552 L 88.2142,-311.774
 L 88.2,-312 L 88.2142,-312.226 L 88.2565,-312.448 L 88.3264,-312.663 L 88.4226,-312.867 L 88.5438,-313.058
 L 88.6879,-313.232 L 88.8526,-313.387 L 89.0355,-313.52 L 89.2336,-313.629 L 89.4438,-313.712 L 89.6627,-313.768
 L 89.887,-313.796 L 90.113,-313.796 L 90.3373,-313.768 L 90.5562,-313.712 L 90.7664,-313.629 L 90.9645,-313.52
 L 91.1474,-313.387 L 91.3121,-313.232 L 91.4562,-313.058 L 91.5773,-312.867 L 91.6736,-312.663 L 91.7434,-312.448
 L 91.7858,-312.226 L 91.8,-312 L 91.7858,-311.774 L 91.7434,-311.552 L 91.6736,-311.337 L 91.5773,-311.133
 L 91.4562,-310.942 L 91.3121,-310.768 L 91.1474,-310.613 L 90.9645,-310.48 L 90.7664,-310.371 L 90.5562,-310.288
 L 90.3373,-310.232 L 90.113,-310.204 z
M 82.4058,-310.503 L 82.2189,-310.527 L 82.0365,-310.573 L 81.8613,-310.643 L 81.6963,-310.734 L 81.5439,-310.844
 L 81.4065,-310.973 L 81.2865,-311.118 L 81.1855,-311.277 L 81.1053,-311.448 L 81.0471,-311.627 L 81.0118,-311.812
 L 81,-312 L 81.0118,-312.188 L 81.0471,-312.373 L 81.1053,-312.552 L 81.1855,-312.723 L 81.2865,-312.882
 L 81.4065,-313.027 L 81.5439,-313.156 L 81.6963,-313.266 L 81.8613,-313.357 L 82.0365,-313.427 L 82.2189,-313.473
 L 82.4058,-313.497 L 82.5942,-313.497 L 82.7811,-313.473 L 82.9635,-313.427 L 83.1387,-313.357 L 83.3037,-313.266
 L 83.4561,-313.156 L 83.5934,-313.027 L 83.7135,-312.882 L 83.8145,-312.723 L 83.8947,-312.552 L 83.9529,-312.373
 L 83.9882,-312.188 L 84,-312 L 83.9882,-311.812 L 83.9529,-311.627 L 83.8947,-311.448 L 83.8145,-311.277
 L 83.7135,-311.118 L 83.5934,-310.973 L 83.4561,-310.844 L 83.3037,-310.734 L 83.1387,-310.643 L 82.9635,-310.573
 L 82.7811,-310.527 L 82.5942,-310.503 z
M 97.4058,-310.503 L 97.2189,-310.527 L 97.0365,-310.573 L 96.8613,-310.643 L 96.6963,-310.734 L 96.5439,-310.844
 L 96.4065,-310.973 L 96.2865,-311.118 L 96.1855,-311.277 L 96.1053,-311.448 L 96.0471,-311.627 L 96.0118,-311.812
 L 96,-312 L 96.0118,-312.188 L 96.0471,-312.373 L 96.0884,-312.5 L 98.9116,-312.5 L 98.9529,-312.373
 L 98.9882,-312.188 L 99,-312 L 98.9882,-311.812 L 98.9529,-311.627 L 98.8947,-311.448 L 98.8145,-311.277
 L 98.7135,-311.118 L 98.5934,-310.973 L 98.4561,-310.844 L 98.3037,-310.734 L 98.1387,-310.643 L 97.9635,-310.573
 L 97.7811,-310.527 L 97.5942,-310.503 z
M 118.006,-341.5 L 114.494,-341.5 L 114.494,-312.5 L 118.006,-312.5 z
M 160.127,-312.539 L 160.743,-312.657 L 161.341,-312.851 L 161.909,-313.118 L 162.439,-313.455 L 162.923,-313.855
 L 163.353,-314.313 L 163.722,-314.821 L 164.024,-315.371 L 164.255,-315.955 L 164.411,-316.563 L 164.49,-317.186
 L 164.49,-336.814 L 164.411,-337.437 L 164.255,-338.045 L 164.024,-338.629 L 163.722,-339.179 L 163.353,-339.687
 L 162.923,-340.145 L 162.439,-340.545 L 161.909,-340.882 L 161.341,-341.149 L 160.743,-341.343 L 160.127,-341.461
 L 159.5,-341.5 L 144.494,-341.5 L 144.494,-312.5 L 159.5,-312.5 z
M 157.124,-331.524 L 156.754,-331.594 L 156.396,-331.711 L 156.055,-331.871 L 155.737,-332.073 L 155.446,-332.313
 L 155.188,-332.588 L 154.967,-332.893 L 154.786,-333.223 L 154.647,-333.573 L 154.553,-333.938 L 154.506,-334.312
 L 154.506,-334.688 L 154.553,-335.062 L 154.647,-335.427 L 154.786,-335.777 L 154.967,-336.107 L 155.188,-336.412
 L 155.446,-336.687 L 155.737,-336.927 L 156.055,-337.129 L 156.396,-337.289 L 156.754,-337.406 L 157.124,-337.476
 L 157.5,-337.5 L 157.876,-337.476 L 158.246,-337.406 L 158.604,-337.289 L 158.945,-337.129 L 159.263,-336.927
 L 159.554,-336.687 L 159.812,-336.412 L 160.033,-336.107 L 160.214,-335.777 L 160.353,-335.427 L 160.447,-335.062
 L 160.494,-334.688 L 160.494,-334.312 L 160.447,-333.938 L 160.353,-333.573 L 160.214,-333.223 L 160.033,-332.893
 L 159.812,-332.588 L 159.554,-332.313 L 159.263,-332.073 L 158.945,-331.871 L 158.604,-331.711 L 158.246,-331.594
 L 157.876,-331.524 L 157.5,-331.5 z
M 149.812,-333.012 L 149.627,-333.047 L 149.448,-333.105 L 149.277,-333.186 L 149.118,-333.286 L 148.973,-333.407
 L 148.844,-333.544 L 148.734,-333.696 L 148.643,-333.861 L 148.573,-334.036 L 148.527,-334.219 L 148.503,-334.406
 L 148.503,-334.594 L 148.527,-334.781 L 148.573,-334.964 L 148.643,-335.139 L 148.734,-335.304 L 148.844,-335.456
 L 148.973,-335.593 L 149.118,-335.714 L 149.277,-335.814 L 149.448,-335.895 L 149.627,-335.953 L 149.812,-335.988
 L 150,-336 L 150.188,-335.988 L 150.373,-335.953 L 150.552,-335.895 L 150.723,-335.814 L 150.882,-335.714
 L 151.027,-335.593 L 151.156,-335.456 L 151.266,-335.304 L 151.357,-335.139 L 151.427,-334.964 L 151.473,-334.781
 L 151.497,-334.594 L 151.497,-334.406 L 151.473,-334.219 L 151.427,-334.036 L 151.357,-333.861 L 151.266,-333.696
 L 151.156,-333.544 L 151.027,-333.407 L 150.882,-333.286 L 150.723,-333.186 L 150.552,-333.105 L 150.373,-333.047
 L 150.188,-333.012 L 150,-333 z
M 149.774,-325.214 L 149.552,-325.257 L 149.337,-325.326 L 149.133,-325.423 L 148.942,-325.544 L 148.768,-325.688
 L 148.613,-325.853 L 148.48,-326.036 L 148.371,-326.234 L 148.288,-326.444 L 148.232,-326.663 L 148.204,-326.887
 L 148.204,-327.113 L 148.232,-327.337 L 148.288,-327.556 L 148.371,-327.766 L 148.48,-327.964 L 148.613,-328.147
 L 148.768,-328.312 L 148.942,-328.456 L 149.133,-328.577 L 149.337,-328.674 L 149.552,-328.743 L 149.774,-328.786
 L 150,-328.8 L 150.226,-328.786 L 150.448,-328.743 L 150.663,-328.674 L 150.867,-328.577 L 151.058,-328.456
 L 151.232,-328.312 L 151.387,-328.147 L 151.52,-327.964 L 151.629,-327.766 L 151.712,-327.556 L 151.768,-327.337
 L 151.796,-327.113 L 151.796,-326.887 L 151.768,-326.663 L 151.712,-326.444 L 151.629,-326.234 L 151.52,-326.036
 L 151.387,-325.853 L 151.232,-325.688 L 151.058,-325.544 L 150.867,-325.423 L 150.663,-325.326 L 150.448,-325.257
 L 150.226,-325.214 L 150,-325.2 z
M 157.312,-325.512 L 157.127,-325.547 L 156.948,-325.605 L 156.777,-325.686 L 156.618,-325.786 L 156.473,-325.907
 L 156.344,-326.044 L 156.234,-326.196 L 156.143,-326.361 L 156.073,-326.536 L 156.027,-326.719 L 156.003,-326.906
 L 156.003,-327.094 L 156.027,-327.281 L 156.073,-327.464 L 156.143,-327.639 L 156.234,-327.804 L 156.344,-327.956
 L 156.473,-328.093 L 156.618,-328.214 L 156.777,-328.314 L 156.948,-328.395 L 157.127,-328.453 L 157.312,-328.488
 L 157.5,-328.5 L 157.688,-328.488 L 157.873,-328.453 L 158.052,-328.395 L 158.223,-328.314 L 158.382,-328.214
 L 158.527,-328.093 L 158.656,-327.956 L 158.766,-327.804 L 158.857,-327.639 L 158.927,-327.464 L 158.973,-327.281
 L 158.997,-327.094 L 158.997,-326.906 L 158.973,-326.719 L 158.927,-326.536 L 158.857,-326.361 L 158.766,-326.196
 L 158.656,-326.044 L 158.527,-325.907 L 158.382,-325.786 L 158.223,-325.686 L 158.052,-325.605 L 157.873,-325.547
 L 157.688,-325.512 L 157.5,-325.5 z
M 157.124,-316.524 L 156.754,-316.594 L 156.396,-316.711 L 156.055,-316.871 L 155.737,-317.073 L 155.446,-317.313
 L 155.188,-317.588 L 154.967,-317.893 L 154.786,-318.223 L 154.647,-318.573 L 154.553,-318.938 L 154.506,-319.312
 L 154.506,-319.688 L 154.553,-320.062 L 154.647,-320.427 L 154.786,-320.777 L 154.967,-321.107 L 155.188,-321.412
 L 155.446,-321.687 L 155.737,-321.927 L 156.055,-322.129 L 156.396,-322.289 L 156.754,-322.406 L 157.124,-322.476
 L 157.5,-322.5 L 157.876,-322.476 L 158.246,-322.406 L 158.604,-322.289 L 158.945,-322.129 L 159.263,-321.927
 L 159.554,-321.687 L 159.812,-321.412 L 160.033,-321.107 L 160.214,-320.777 L 160.353,-320.427 L 160.447,-320.062
 L 160.494,-319.688 L 160.494,-319.312 L 160.447,-318.938 L 160.353,-318.573 L 160.214,-318.223 L 160.033,-317.893
 L 159.812,-317.588 L 159.554,-317.313 L 159.263,-317.073 L 158.945,-316.871 L 158.604,-316.711 L 158.246,-316.594
 L 157.876,-316.524 L 157.5,-316.5 z
M 149.812,-318.012 L 149.627,-318.047 L 149.448,-318.105 L 149.277,-318.186 L 149.118,-318.286 L 148.973,-318.407
 L 148.844,-318.544 L 148.734,-318.696 L 148.643,-318.861 L 148.573,-319.036 L 148.527,-319.219 L 148.503,-319.406
 L 148.503,-319.594 L 148.527,-319.781 L 148.573,-319.964 L 148.643,-320.139 L 148.734,-320.304 L 148.844,-320.456
 L 148.973,-320.593 L 149.118,-320.714 L 149.277,-320.814 L 149.448,-320.895 L 149.627,-320.953 L 149.812,-320.988
 L 150,-321 L 150.188,-320.988 L 150.373,-320.953 L 150.552,-320.895 L 150.723,-320.814 L 150.882,-320.714
 L 151.027,-320.593 L 151.156,-320.456 L 151.266,-320.304 L 151.357,-320.139 L 151.427,-319.964 L 151.473,-319.781
 L 151.497,-319.594 L 151.497,-319.406 L 151.473,-319.219 L 151.427,-319.036 L 151.357,-318.861 L 151.266,-318.696
 L 151.156,-318.544 L 151.027,-318.407 L 150.882,-318.286 L 150.723,-318.186 L 150.552,-318.105 L 150.373,-318.047
 L 150.188,-318.012 L 150,-318 z
M 14.5,-321.5 L 14.4606,-322.127 L 14.3429,-322.743 L 14.1489,-323.341 L 13.8815,-323.909 L 13.5451,-324.439
 L 13.1448,-324.923 L 12.6871,-325.353 L 12.1791,-325.722 L 11.6289,-326.024 L 11.0451,-326.255 L 10.4369,-326.411
 L 9.81395,-326.49 L -9.81395,-326.49 L -10.4369,-326.411 L -11.0451,-326.255 L -11.6289,-326.024 L -12.1791,-325.722
 L -12.6871,-325.353 L -13.1448,-324.923 L -13.5451,-324.439 L -13.8815,-323.909 L -14.1489,-323.341 L -14.3429,-322.743
 L -14.4606,-322.127 L -14.5,-321.5 L -14.5,-306.494 L 14.5,-306.494 z
M -0.194641,-316.406 L -0.580872,-316.455 L -0.957947,-316.552 L -1.3199,-316.695 L -1.66106,-316.883 L -1.97601,-317.111
 L -2.2598,-317.378 L -2.50795,-317.678 L -2.71654,-318.007 L -2.88229,-318.359 L -3.00259,-318.729 L -3.07555,-319.111
 L -3.09999,-319.5 L -3.07555,-319.889 L -3.00259,-320.271 L -2.88229,-320.641 L -2.71654,-320.993 L -2.50795,-321.322
 L -2.2598,-321.622 L -1.97601,-321.889 L -1.66106,-322.117 L -1.3199,-322.305 L -0.957947,-322.448 L -0.580872,-322.545
 L -0.194641,-322.594 L 0.194641,-322.594 L 0.580872,-322.545 L 0.957947,-322.448 L 1.3199,-322.305 L 1.66106,-322.117
 L 1.97601,-321.889 L 2.2598,-321.622 L 2.50795,-321.322 L 2.71654,-320.993 L 2.88229,-320.641 L 3.00259,-320.271
 L 3.07555,-319.889 L 3.09999,-319.5 L 3.07555,-319.111 L 3.00259,-318.729 L 2.88229,-318.359 L 2.71654,-318.007
 L 2.50795,-317.678 L 2.2598,-317.378 L 1.97601,-317.111 L 1.66106,-316.883 L 1.3199,-316.695 L 0.957947,-316.552
 L 0.580872,-316.455 L 0.194641,-316.406 z
M 7.31161,-316.506 L 6.93785,-316.553 L 6.57294,-316.647 L 6.22266,-316.786 L 5.89252,-316.967 L 5.58772,-317.188
 L 5.31308,-317.446 L 5.07294,-317.737 L 4.87108,-318.055 L 4.71066,-318.396 L 4.59424,-318.754 L 4.52365,-319.124
 L 4.5,-319.5 L 4.52365,-319.876 L 4.59424,-320.246 L 4.71066,-320.604 L 4.87108,-320.945 L 5.07294,-321.263
 L 5.31308,-321.554 L 5.58772,-321.812 L 5.89252,-322.033 L 6.22266,-322.214 L 6.57294,-322.353 L 6.93785,-322.447
 L 7.31161,-322.494 L 7.68837,-322.494 L 8.06213,-322.447 L 8.42705,-322.353 L 8.77733,-322.214 L 9.10747,-322.033
 L 9.41226,-321.812 L 9.6869,-321.554 L 9.92705,-321.263 L 10.1289,-320.945 L 10.2893,-320.604 L 10.4057,-320.246
 L 10.4763,-319.876 L 10.5,-319.5 L 10.4763,-319.124 L 10.4057,-318.754 L 10.2893,-318.396 L 10.1289,-318.055
 L 9.92705,-317.737 L 9.6869,-317.446 L 9.41226,-317.188 L 9.10747,-316.967 L 8.77733,-316.786 L 8.42705,-316.647
 L 8.06213,-316.553 L 7.68837,-316.506 z
M -7.68837,-316.506 L -8.06213,-316.553 L -8.42705,-316.647 L -8.77733,-316.786 L -9.10747,-316.967 L -9.41226,-317.188
 L -9.6869,-317.446 L -9.92705,-317.737 L -10.1289,-318.055 L -10.2893,-318.396 L -10.4057,-318.754 L -10.4763,-319.124
 L -10.5,-319.5 L -10.4763,-319.876 L -10.4057,-320.246 L -10.2893,-320.604 L -10.1289,-320.945 L -9.92705,-321.263
 L -9.6869,-321.554 L -9.41226,-321.812 L -9.10747,-322.033 L -8.77733,-322.214 L -8.42705,-322.353 L -8.06213,-322.447
 L -7.68837,-322.494 L -7.31161,-322.494 L -6.93785,-322.447 L -6.57294,-322.353 L -6.22266,-322.214 L -5.89252,-322.033
 L -5.58772,-321.812 L -5.31308,-321.554 L -5.07294,-321.263 L -4.87108,-320.945 L -4.71066,-320.604 L -4.59424,-320.246
 L -4.52365,-319.876 L -4.5,-319.5 L -4.52365,-319.124 L -4.59424,-318.754 L -4.71066,-318.396 L -4.87108,-318.055
 L -5.07294,-317.737 L -5.31308,-317.446 L -5.58772,-317.188 L -5.89252,-316.967 L -6.22266,-316.786 L -6.57294,-316.647
 L -6.93785,-316.553 L -7.31161,-316.506 z
M -0.113022,-310.204 L -0.33728,-310.232 L -0.556229,-310.288 L -0.766388,-310.371 L -0.964478,-310.48 L -1.14735,-310.613
 L -1.31213,-310.768 L -1.45622,-310.942 L -1.57735,-311.133 L -1.67358,-311.337 L -1.74344,-311.552 L -1.7858,-311.774
 L -1.79999,-312 L -1.7858,-312.226 L -1.74344,-312.448 L -1.67358,-312.663 L -1.57735,-312.867 L -1.45622,-313.058
 L -1.31213,-313.232 L -1.14735,-313.387 L -0.964478,-313.52 L -0.766388,-313.629 L -0.556229,-313.712 L -0.33728,-313.768
 L -0.113022,-313.796 L 0.113022,-313.796 L 0.33728,-313.768 L 0.556229,-313.712 L 0.766388,-313.629 L 0.964478,-313.52
 L 1.14735,-313.387 L 1.31213,-313.232 L 1.45622,-313.058 L 1.57735,-312.867 L 1.67358,-312.663 L 1.74344,-312.448
 L 1.7858,-312.226 L 1.79999,-312 L 1.7858,-311.774 L 1.74344,-311.552 L 1.67358,-311.337 L 1.57735,-311.133
 L 1.45622,-310.942 L 1.31213,-310.768 L 1.14735,-310.613 L 0.964478,-310.48 L 0.766388,-310.371 L 0.556229,-310.288
 L 0.33728,-310.232 L 0.113022,-310.204 z
M -7.59418,-310.503 L -7.78107,-310.527 L -7.96352,-310.573 L -8.13866,-310.643 L -8.30373,-310.734 L -8.45613,-310.844
 L -8.59344,-310.973 L -8.71352,-311.118 L -8.81445,-311.277 L -8.89465,-311.448 L -8.95287,-311.627 L -8.98816,-311.812
 L -9,-312 L -8.98816,-312.188 L -8.95287,-312.373 L -8.89465,-312.552 L -8.81445,-312.723 L -8.71352,-312.882
 L -8.59344,-313.027 L -8.45613,-313.156 L -8.30373,-313.266 L -8.13866,-313.357 L -7.96352,-313.427 L -7.78107,-313.473
 L -7.59418,-313.497 L -7.40581,-313.497 L -7.21892,-313.473 L -7.03647,-313.427 L -6.86133,-313.357 L -6.69626,-313.266
 L -6.54385,-313.156 L -6.40654,-313.027 L -6.28647,-312.882 L -6.18553,-312.723 L -6.10533,-312.552 L -6.04712,-312.373
 L -6.01183,-312.188 L -6,-312 L -6.01183,-311.812 L -6.04712,-311.627 L -6.10533,-311.448 L -6.18553,-311.277
 L -6.28647,-311.118 L -6.40654,-310.973 L -6.54385,-310.844 L -6.69626,-310.734 L -6.86133,-310.643 L -7.03647,-310.573
 L -7.21892,-310.527 L -7.40581,-310.503 z
M 7.40581,-310.503 L 7.21892,-310.527 L 7.03647,-310.573 L 6.86133,-310.643 L 6.69626,-310.734 L 6.54385,-310.844
 L 6.40654,-310.973 L 6.28647,-311.118 L 6.18553,-311.277 L 6.10533,-311.448 L 6.04712,-311.627 L 6.01183,-311.812
 L 6,-312 L 6.01183,-312.188 L 6.04712,-312.373 L 6.10533,-312.552 L 6.18553,-312.723 L 6.28647,-312.882
 L 6.40654,-313.027 L 6.54385,-313.156 L 6.69626,-313.266 L 6.86133,-313.357 L 7.03647,-313.427 L 7.21892,-313.473
 L 7.40581,-313.497 L 7.59418,-313.497 L 7.78107,-313.473 L 7.96352,-313.427 L 8.13866,-313.357 L 8.30373,-313.266
 L 8.45613,-313.156 L 8.59344,-313.027 L 8.71352,-312.882 L 8.81445,-312.723 L 8.89465,-312.552 L 8.95287,-312.373
 L 8.98816,-312.188 L 9,-312 L 8.98816,-311.812 L 8.95287,-311.627 L 8.89465,-311.448 L 8.81445,-311.277
 L 8.71352,-311.118 L 8.59344,-310.973 L 8.45613,-310.844 L 8.30373,-310.734 L 8.13866,-310.643 L 7.96352,-310.573
 L 7.78107,-310.527 L 7.59418,-310.503 z
M 104.5,-302.506 L 75.5,-302.506 L 75.5,-298.994 L 104.5,-298.994 z
M 14.5,-302.506 L -14.5,-302.506 L -14.5,-298.994 L 14.5,-298.994 z
M 14.5,-295.006 L -14.5,-295.006 L -14.5,-291.494 L 14.5,-291.494 z
M 104.5,-295.006 L 75.5,-295.006 L 75.5,-291.494 L 104.5,-291.494 z
M 104.5,-287.506 L 75.5,-287.506 L 75.5,-283.994 L 104.5,-283.994 z
M 14.5,-287.506 L -14.5,-287.506 L -14.5,-283.994 L 14.5,-283.994 z
M 104.5,-280.006 L 75.5,-280.006 L 75.5,-276.494 L 104.5,-276.494 z
M 14.5,-280.006 L -14.5,-280.006 L -14.5,-276.494 L 14.5,-276.494 z
M 70.1267,-153.539 L 70.7434,-153.657 L 71.3406,-153.851 L 71.9088,-154.118 L 72.4389,-154.455 L 72.9227,-154.855
 L 73.3526,-155.313 L 73.7216,-155.821 L 74.0241,-156.371 L 74.2553,-156.955 L 74.4114,-157.563 L 74.4901,-158.186
 L 74.4901,-177.814 L 74.4114,-178.437 L 74.2553,-179.045 L 74.0241,-179.629 L 73.7216,-180.179 L 73.3526,-180.687
 L 72.9227,-181.145 L 72.4389,-181.545 L 71.9088,-181.882 L 71.3406,-182.149 L 70.7434,-182.343 L 70.1267,-182.461
 L 69.5,-182.5 L 14.5,-182.5 L 14.5,-237.5 L 20.5057,-237.5 L 20.5057,-266.5 L 14.5,-266.5
 L 14.5,-272.506 L -14.5,-272.506 L -14.5,-257.5 L -14.4606,-256.873 L -14.3429,-256.257 L -14.1489,-255.659
 L -13.8815,-255.091 L -13.5451,-254.561 L -13.1448,-254.077 L -12.6871,-253.647 L -12.1791,-253.278 L -11.6289,-252.976
 L -11.0451,-252.745 L -10.4369,-252.589 L -9.81395,-252.51 L 0.509857,-252.51 L 0.509857,-242.49 L -9.81395,-242.49
 L -10.4369,-242.411 L -11.0451,-242.255 L -11.6289,-242.024 L -12.1791,-241.722 L -12.6871,-241.353 L -13.1448,-240.923
 L -13.5451,-240.439 L -13.8815,-239.909 L -14.1489,-239.341 L -14.3429,-238.743 L -14.4606,-238.127 L -14.5,-237.5
 L -14.5,-173.5 L -14.4606,-172.873 L -14.3429,-172.257 L -14.1489,-171.659 L -13.8815,-171.091 L -13.5451,-170.561
 L -13.1448,-170.077 L -12.6871,-169.647 L -12.1791,-169.278 L -11.6289,-168.976 L -11.0451,-168.745 L -10.4369,-168.589
 L -9.81395,-168.51 L 0.509857,-168.51 L 0.509857,-158.186 L 0.588562,-157.563 L 0.744705,-156.955 L 0.975861,-156.371
 L 1.27835,-155.821 L 1.64743,-155.313 L 2.07726,-154.855 L 2.56107,-154.455 L 3.09123,-154.118 L 3.65938,-153.851
 L 4.25655,-153.657 L 4.87332,-153.539 L 5.5,-153.5 L 69.5,-153.5 z
M -0.113022,-265.204 L -0.33728,-265.232 L -0.556229,-265.288 L -0.766388,-265.371 L -0.964478,-265.48 L -1.14735,-265.613
 L -1.31213,-265.768 L -1.45622,-265.942 L -1.57735,-266.133 L -1.67358,-266.337 L -1.74344,-266.552 L -1.7858,-266.774
 L -1.79999,-267 L -1.7858,-267.226 L -1.74344,-267.448 L -1.67358,-267.663 L -1.57735,-267.867 L -1.45622,-268.058
 L -1.31213,-268.232 L -1.14735,-268.387 L -0.964478,-268.52 L -0.766388,-268.629 L -0.556229,-268.712 L -0.33728,-268.768
 L -0.113022,-268.796 L 0.113022,-268.796 L 0.33728,-268.768 L 0.556229,-268.712 L 0.766388,-268.629 L 0.964478,-268.52
 L 1.14735,-268.387 L 1.31213,-268.232 L 1.45622,-268.058 L 1.57735,-267.867 L 1.67358,-267.663 L 1.74344,-267.448
 L 1.7858,-267.226 L 1.79999,-267 L 1.7858,-266.774 L 1.74344,-266.552 L 1.67358,-266.337 L 1.57735,-266.133
 L 1.45622,-265.942 L 1.31213,-265.768 L 1.14735,-265.613 L 0.964478,-265.48 L 0.766388,-265.371 L 0.556229,-265.288
 L 0.33728,-265.232 L 0.113022,-265.204 z
M 6.08838,-266.5 L 6.04712,-266.627 L 6.01183,-266.812 L 6,-267 L 6.01183,-267.188 L 6.04712,-267.373
 L 6.10533,-267.552 L 6.18553,-267.723 L 6.28647,-267.882 L 6.40654,-268.027 L 6.54385,-268.156 L 6.69626,-268.266
 L 6.86133,-268.357 L 7.03647,-268.427 L 7.21892,-268.473 L 7.40581,-268.497 L 7.59418,-268.497 L 7.78107,-268.473
 L 7.96352,-268.427 L 8.13866,-268.357 L 8.30373,-268.266 L 8.45613,-268.156 L 8.59344,-268.027 L 8.71352,-267.882
 L 8.81445,-267.723 L 8.89465,-267.552 L 8.95287,-267.373 L 8.98816,-267.188 L 9,-267 L 8.98816,-266.812
 L 8.95287,-266.627 L 8.91161,-266.5 z
M -7.59418,-265.503 L -7.78107,-265.527 L -7.96352,-265.573 L -8.13866,-265.643 L -8.30373,-265.734 L -8.45613,-265.844
 L -8.59344,-265.973 L -8.71352,-266.118 L -8.81445,-266.277 L -8.89465,-266.448 L -8.95287,-266.627 L -8.98816,-266.812
 L -9,-267 L -8.98816,-267.188 L -8.95287,-267.373 L -8.89465,-267.552 L -8.81445,-267.723 L -8.71352,-267.882
 L -8.59344,-268.027 L -8.45613,-268.156 L -8.30373,-268.266 L -8.13866,-268.357 L -7.96352,-268.427 L -7.78107,-268.473
 L -7.59418,-268.497 L -7.40581,-268.497 L -7.21892,-268.473 L -7.03647,-268.427 L -6.86133,-268.357 L -6.69626,-268.266
 L -6.54385,-268.156 L -6.40654,-268.027 L -6.28647,-267.882 L -6.18553,-267.723 L -6.10533,-267.552 L -6.04712,-267.373
 L -6.01183,-267.188 L -6,-267 L -6.01183,-266.812 L -6.04712,-266.627 L -6.10533,-266.448 L -6.18553,-266.277
 L -6.28647,-266.118 L -6.40654,-265.973 L -6.54385,-265.844 L -6.69626,-265.734 L -6.86133,-265.643 L -7.03647,-265.573
 L -7.21892,-265.527 L -7.40581,-265.503 z
M -0.194641,-256.406 L -0.580872,-256.455 L -0.957947,-256.552 L -1.3199,-256.695 L -1.66106,-256.883 L -1.97601,-257.111
 L -2.2598,-257.378 L -2.50795,-257.678 L -2.71654,-258.007 L -2.88229,-258.359 L -3.00259,-258.729 L -3.07555,-259.111
 L -3.09999,-259.5 L -3.07555,-259.889 L -3.00259,-260.271 L -2.88229,-260.641 L -2.71654,-260.993 L -2.50795,-261.322
 L -2.2598,-261.622 L -1.97601,-261.889 L -1.66106,-262.117 L -1.3199,-262.305 L -0.957947,-262.448 L -0.580872,-262.545
 L -0.194641,-262.594 L 0.194641,-262.594 L 0.580872,-262.545 L 0.614136,-262.537 L 0.588562,-262.437 L 0.509857,-261.814
 L 0.509857,-256.446 L 0.194641,-256.406 z
M 7.40588,-256.506 L 7.21809,-256.518 L 7.03137,-256.541 L 6.84654,-256.577 L 6.66425,-256.623 L 6.48529,-256.682
 L 6.3103,-256.751 L 6.14005,-256.831 L 5.97511,-256.922 L 5.81624,-257.022 L 5.66399,-257.133 L 5.519,-257.253
 L 5.38181,-257.382 L 5.25299,-257.519 L 5.13304,-257.664 L 5.02242,-257.816 L 4.9216,-257.975 L 4.83092,-258.14
 L 4.75081,-258.31 L 4.68153,-258.485 L 4.62338,-258.664 L 4.57657,-258.847 L 4.54132,-259.031 L 4.51773,-259.218
 L 4.50592,-259.406 L 4.50592,-259.594 L 4.51773,-259.782 L 4.54132,-259.969 L 4.57657,-260.153 L 4.62338,-260.336
 L 4.68152,-260.515 L 4.75081,-260.69 L 4.83092,-260.86 L 4.9216,-261.025 L 5.02242,-261.184 L 5.13304,-261.336
 L 5.25298,-261.481 L 5.38182,-261.618 L 5.51898,-261.747 L 5.66402,-261.867 L 5.81622,-261.978 L 5.97514,-262.078
 L 6.14003,-262.169 L 6.31033,-262.249 L 6.48526,-262.318 L 6.66428,-262.377 L 6.84651,-262.423 L 7.0314,-262.459
 L 7.21806,-262.482 L 7.40591,-262.494 L 7.59407,-262.494 L 7.78192,-262.482 L 7.96858,-262.459 L 8.15346,-262.423
 L 8.33571,-262.377 L 8.51472,-262.318 L 8.68967,-262.249 L 8.85995,-262.169 L 9.02486,-262.078 L 9.18375,-261.978
 L 9.33598,-261.867 L 9.48099,-261.747 L 9.61818,-261.618 L 9.74699,-261.481 L 9.86696,-261.336 L 9.97755,-261.184
 L 10.0784,-261.025 L 10.1691,-260.86 L 10.2492,-260.69 L 10.3185,-260.515 L 10.3766,-260.336 L 10.4234,-260.153
 L 10.4587,-259.969 L 10.4823,-259.782 L 10.4941,-259.594 L 10.4941,-259.406 L 10.4823,-259.218 L 10.4587,-259.031
 L 10.4234,-258.847 L 10.3766,-258.664 L 10.3185,-258.485 L 10.2492,-258.31 L 10.1691,-258.14 L 10.0784,-257.975
 L 9.97755,-257.816 L 9.86696,-257.664 L 9.74698,-257.519 L 9.61819,-257.382 L 9.48097,-257.253 L 9.33601,-257.133
 L 9.18373,-257.022 L 9.02489,-256.922 L 8.85992,-256.831 L 8.68968,-256.751 L 8.51469,-256.682 L 8.33574,-256.623
 L 8.15344,-256.577 L 7.96861,-256.541 L 7.78189,-256.518 L 7.5941,-256.506 z
M -7.68837,-256.506 L -8.06213,-256.553 L -8.42705,-256.647 L -8.77733,-256.786 L -9.10747,-256.967 L -9.41226,-257.188
 L -9.6869,-257.446 L -9.92705,-257.737 L -10.1289,-258.055 L -10.2893,-258.396 L -10.4057,-258.754 L -10.4763,-259.124
 L -10.5,-259.5 L -10.4763,-259.876 L -10.4057,-260.246 L -10.2893,-260.604 L -10.1289,-260.945 L -9.92705,-261.263
 L -9.6869,-261.554 L -9.41226,-261.812 L -9.10747,-262.033 L -8.77733,-262.214 L -8.42705,-262.353 L -8.06213,-262.447
 L -7.68837,-262.494 L -7.31161,-262.494 L -6.93785,-262.447 L -6.57294,-262.353 L -6.22266,-262.214 L -5.89252,-262.033
 L -5.58772,-261.812 L -5.31308,-261.554 L -5.07294,-261.263 L -4.87108,-260.945 L -4.71066,-260.604 L -4.59424,-260.246
 L -4.52365,-259.876 L -4.5,-259.5 L -4.52365,-259.124 L -4.59424,-258.754 L -4.71066,-258.396 L -4.87108,-258.055
 L -5.07294,-257.737 L -5.31308,-257.446 L -5.58772,-257.188 L -5.89252,-256.967 L -6.22266,-256.786 L -6.57294,-256.647
 L -6.93785,-256.553 L -7.31161,-256.506 z
M 14.812,-258.012 L 14.627,-258.047 L 14.5,-258.088 L 14.5,-260.912 L 14.627,-260.953 L 14.812,-260.988
 L 15,-261 L 15.188,-260.988 L 15.373,-260.953 L 15.5522,-260.895 L 15.7226,-260.814 L 15.8817,-260.714
 L 16.0268,-260.593 L 16.1558,-260.456 L 16.2665,-260.304 L 16.3572,-260.139 L 16.4266,-259.964 L 16.4734,-259.781
 L 16.497,-259.594 L 16.497,-259.406 L 16.4734,-259.219 L 16.4266,-259.036 L 16.3572,-258.861 L 16.2665,-258.696
 L 16.1558,-258.544 L 16.0268,-258.407 L 15.8817,-258.286 L 15.7226,-258.186 L 15.5522,-258.105 L 15.373,-258.047
 L 15.188,-258.012 L 15,-258 z
M 14.9435,-250.204 L 14.887,-250.204 L 14.8308,-250.211 L 14.7744,-250.214 L 14.7188,-250.225 L 14.6627,-250.232
 L 14.6079,-250.246 L 14.5524,-250.257 L 14.4986,-250.274 L 14.4438,-250.288 L 14.3912,-250.309 L 14.3374,-250.326
 L 14.2862,-250.35 L 14.2336,-250.371 L 14.184,-250.399 L 14.1328,-250.423 L 14.0851,-250.453 L 14.0355,-250.48
 L 13.9897,-250.513 L 13.942,-250.544 L 13.8984,-250.58 L 13.8526,-250.613 L 13.8114,-250.652 L 13.7678,-250.688
 L 13.7291,-250.729 L 13.6879,-250.768 L 13.6518,-250.811 L 13.6131,-250.853 L 13.5798,-250.898 L 13.5438,-250.942
 L 13.5135,-250.99 L 13.4802,-251.036 L 13.453,-251.085 L 13.4226,-251.133 L 13.3986,-251.184 L 13.3713,-251.234
 L 13.3505,-251.286 L 13.3264,-251.337 L 13.3089,-251.391 L 13.2881,-251.444 L 13.274,-251.499 L 13.2565,-251.552
 L 13.2459,-251.608 L 13.2319,-251.663 L 13.2248,-251.719 L 13.2142,-251.774 L 13.2106,-251.831 L 13.2036,-251.887
 L 13.2036,-251.944 L 13.2,-252 L 13.2036,-252.056 L 13.2036,-252.113 L 13.2106,-252.169 L 13.2142,-252.226
 L 13.2248,-252.281 L 13.2319,-252.337 L 13.2459,-252.392 L 13.2565,-252.448 L 13.274,-252.501 L 13.2881,-252.556
 L 13.3089,-252.609 L 13.3264,-252.663 L 13.3505,-252.714 L 13.3713,-252.766 L 13.3986,-252.816 L 13.4226,-252.867
 L 13.453,-252.915 L 13.4802,-252.964 L 13.5135,-253.01 L 13.5438,-253.058 L 13.5798,-253.102 L 13.6131,-253.147
 L 13.6518,-253.189 L 13.6879,-253.232 L 13.7291,-253.271 L 13.7678,-253.312 L 13.8114,-253.348 L 13.8526,-253.387
 L 13.8984,-253.42 L 13.942,-253.456 L 13.9897,-253.487 L 14.0355,-253.52 L 14.0851,-253.547 L 14.1328,-253.577
 L 14.184,-253.601 L 14.2336,-253.629 L 14.2862,-253.65 L 14.3374,-253.674 L 14.3912,-253.691 L 14.4438,-253.712
 L 14.4986,-253.726 L 14.5524,-253.743 L 14.6079,-253.754 L 14.6627,-253.768 L 14.7188,-253.775 L 14.7744,-253.786
 L 14.8308,-253.789 L 14.887,-253.796 L 14.9435,-253.796 L 15,-253.8 L 15.0564,-253.796 L 15.113,-253.796
 L 15.1691,-253.789 L 15.2256,-253.786 L 15.2811,-253.775 L 15.3373,-253.768 L 15.3921,-253.754 L 15.4476,-253.743
 L 15.5014,-253.726 L 15.5562,-253.712 L 15.6088,-253.691 L 15.6626,-253.674 L 15.7138,-253.65 L 15.7664,-253.629
 L 15.816,-253.601 L 15.8671,-253.577 L 15.9149,-253.547 L 15.9645,-253.52 L 16.0103,-253.487 L 16.058,-253.456
 L 16.1016,-253.42 L 16.1474,-253.387 L 16.1886,-253.348 L 16.2322,-253.312 L 16.2709,-253.271 L 16.3121,-253.232
 L 16.3482,-253.189 L 16.3869,-253.147 L 16.4202,-253.102 L 16.4562,-253.058 L 16.4865,-253.01 L 16.5198,-252.964
 L 16.547,-252.915 L 16.5773,-252.867 L 16.6014,-252.816 L 16.6287,-252.766 L 16.6495,-252.714 L 16.6736,-252.663
 L 16.6911,-252.609 L 16.7119,-252.556 L 16.726,-252.501 L 16.7434,-252.448 L 16.754,-252.392 L 16.7681,-252.337
 L 16.7752,-252.281 L 16.7858,-252.226 L 16.7894,-252.169 L 16.7964,-252.113 L 16.7964,-252.056 L 16.8,-252
 L 16.7964,-251.944 L 16.7964,-251.887 L 16.7894,-251.831 L 16.7858,-251.774 L 16.7752,-251.719 L 16.7681,-251.663
 L 16.754,-251.608 L 16.7434,-251.552 L 16.726,-251.499 L 16.7119,-251.444 L 16.6911,-251.391 L 16.6736,-251.337
 L 16.6495,-251.286 L 16.6287,-251.234 L 16.6014,-251.184 L 16.5773,-251.133 L 16.547,-251.085 L 16.5198,-251.036
 L 16.4865,-250.99 L 16.4562,-250.942 L 16.4202,-250.898 L 16.3869,-250.853 L 16.3482,-250.811 L 16.3121,-250.768
 L 16.2709,-250.729 L 16.2322,-250.688 L 16.1886,-250.652 L 16.1474,-250.613 L 16.1016,-250.58 L 16.058,-250.544
 L 16.0103,-250.513 L 15.9645,-250.48 L 15.9149,-250.453 L 15.8671,-250.423 L 15.816,-250.399 L 15.7664,-250.371
 L 15.7138,-250.35 L 15.6626,-250.326 L 15.6088,-250.309 L 15.5562,-250.288 L 15.5014,-250.274 L 15.4476,-250.257
 L 15.3921,-250.246 L 15.3373,-250.232 L 15.2811,-250.225 L 15.2256,-250.214 L 15.1691,-250.211 L 15.113,-250.204
 L 15.0564,-250.204 L 15,-250.2 z
M 7.11147,-248.924 L 6.72905,-248.997 L 6.35881,-249.118 L 6.00656,-249.283 L 5.67786,-249.492 L 5.3779,-249.74
 L 5.1114,-250.024 L 4.88258,-250.339 L 4.69502,-250.68 L 4.55171,-251.042 L 4.4549,-251.419 L 4.40611,-251.805
 L 4.40611,-252.195 L 4.44594,-252.51 L 9.81395,-252.51 L 10.4369,-252.589 L 10.5365,-252.614 L 10.5451,-252.581
 L 10.5939,-252.195 L 10.5939,-251.805 L 10.5451,-251.419 L 10.4483,-251.042 L 10.305,-250.68 L 10.1174,-250.339
 L 9.88858,-250.024 L 9.62209,-249.74 L 9.32213,-249.492 L 8.99342,-249.283 L 8.64117,-249.118 L 8.27094,-248.997
 L 7.88852,-248.924 L 7.5,-248.9 z
M 5.28011,-242.49 L 5.18845,-242.588 L 4.96701,-242.893 L 4.78551,-243.223 L 4.64682,-243.573 L 4.55313,-243.938
 L 4.50592,-244.312 L 4.50592,-244.688 L 4.55313,-245.062 L 4.64682,-245.427 L 4.78551,-245.777 L 4.96701,-246.107
 L 5.18845,-246.412 L 5.44635,-246.687 L 5.73663,-246.927 L 6.05473,-247.129 L 6.39561,-247.289 L 6.75392,-247.406
 L 7.12399,-247.476 L 7.5,-247.5 L 7.87599,-247.476 L 8.24606,-247.406 L 8.60437,-247.289 L 8.94525,-247.129
 L 9.26335,-246.927 L 9.55363,-246.687 L 9.81154,-246.412 L 10.033,-246.107 L 10.2145,-245.777 L 10.3532,-245.427
 L 10.4469,-245.062 L 10.4941,-244.688 L 10.4941,-244.312 L 10.4469,-243.938 L 10.3532,-243.573 L 10.2145,-243.223
 L 10.033,-242.893 L 9.81154,-242.588 L 9.71988,-242.49 z
M 14.812,-243.012 L 14.627,-243.047 L 14.4478,-243.105 L 14.2774,-243.186 L 14.1183,-243.286 L 13.9732,-243.407
 L 13.8442,-243.544 L 13.7335,-243.696 L 13.6427,-243.861 L 13.5734,-244.036 L 13.5266,-244.219 L 13.503,-244.406
 L 13.503,-244.594 L 13.5266,-244.781 L 13.5734,-244.964 L 13.6427,-245.139 L 13.7335,-245.304 L 13.8442,-245.456
 L 13.9732,-245.593 L 14.1183,-245.714 L 14.2774,-245.814 L 14.4478,-245.895 L 14.627,-245.953 L 14.812,-245.988
 L 15,-246 L 15.188,-245.988 L 15.373,-245.953 L 15.5522,-245.895 L 15.7226,-245.814 L 15.8817,-245.714
 L 16.0268,-245.593 L 16.1558,-245.456 L 16.2665,-245.304 L 16.3572,-245.139 L 16.4266,-244.964 L 16.4734,-244.781
 L 16.497,-244.594 L 16.497,-244.406 L 16.4734,-244.219 L 16.4266,-244.036 L 16.3572,-243.861 L 16.2665,-243.696
 L 16.1558,-243.544 L 16.0268,-243.407 L 15.8817,-243.286 L 15.7226,-243.186 L 15.5522,-243.105 L 15.373,-243.047
 L 15.188,-243.012 L 15,-243 z
M -7.68837,-232.506 L -8.06213,-232.553 L -8.42705,-232.647 L -8.77733,-232.786 L -9.10747,-232.967 L -9.41226,-233.188
 L -9.6869,-233.446 L -9.92705,-233.737 L -10.1289,-234.055 L -10.2893,-234.396 L -10.4057,-234.754 L -10.4763,-235.124
 L -10.5,-235.5 L -10.4763,-235.876 L -10.4057,-236.246 L -10.2893,-236.604 L -10.1289,-236.945 L -9.92705,-237.263
 L -9.6869,-237.554 L -9.41226,-237.812 L -9.10747,-238.033 L -8.77733,-238.214 L -8.42705,-238.353 L -8.06213,-238.447
 L -7.68837,-238.494 L -7.31161,-238.494 L -6.93785,-238.447 L -6.57294,-238.353 L -6.22266,-238.214 L -5.89252,-238.033
 L -5.58772,-237.812 L -5.31308,-237.554 L -5.07294,-237.263 L -4.87108,-236.945 L -4.71066,-236.604 L -4.59424,-236.246
 L -4.52365,-235.876 L -4.5,-235.5 L -4.52365,-235.124 L -4.59424,-234.754 L -4.71066,-234.396 L -4.87108,-234.055
 L -5.07294,-233.737 L -5.31308,-233.446 L -5.58772,-233.188 L -5.89252,-232.967 L -6.22266,-232.786 L -6.57294,-232.647
 L -6.93785,-232.553 L -7.31161,-232.506 z
M -0.133423,-233.379 L -0.398178,-233.413 L -0.656647,-233.479 L -0.90477,-233.577 L -1.13863,-233.706 L -1.35452,-233.863
 L -1.54906,-234.045 L -1.71915,-234.251 L -1.86214,-234.476 L -1.97577,-234.718 L -2.05823,-234.972 L -2.10823,-235.234
 L -2.125,-235.5 L -2.10823,-235.766 L -2.05823,-236.028 L -1.97577,-236.282 L -1.86214,-236.524 L -1.71915,-236.749
 L -1.54906,-236.955 L -1.35452,-237.137 L -1.13863,-237.294 L -0.90477,-237.423 L -0.656647,-237.521 L -0.398178,-237.587
 L -0.133423,-237.621 L 0.133423,-237.621 L 0.398178,-237.587 L 0.656647,-237.521 L 0.90477,-237.423 L 1.13863,-237.294
 L 1.35452,-237.137 L 1.54906,-236.955 L 1.71915,-236.749 L 1.86214,-236.524 L 1.97577,-236.282 L 2.05823,-236.028
 L 2.10823,-235.766 L 2.125,-235.5 L 2.10823,-235.234 L 2.05823,-234.972 L 1.97577,-234.718 L 1.86214,-234.476
 L 1.71915,-234.251 L 1.54906,-234.045 L 1.35452,-233.863 L 1.13863,-233.706 L 0.90477,-233.577 L 0.656647,-233.479
 L 0.398178,-233.413 L 0.133423,-233.379 z
M 7.31161,-232.506 L 6.93785,-232.553 L 6.57294,-232.647 L 6.22266,-232.786 L 5.89252,-232.967 L 5.58772,-233.188
 L 5.31308,-233.446 L 5.07294,-233.737 L 4.87108,-234.055 L 4.71066,-234.396 L 4.59424,-234.754 L 4.52365,-235.124
 L 4.5,-235.5 L 4.52365,-235.876 L 4.59424,-236.246 L 4.71066,-236.604 L 4.87108,-236.945 L 5.07294,-237.263
 L 5.28015,-237.514 L 5.5,-237.5 L 9.73128,-237.5 L 9.92705,-237.263 L 10.1289,-236.945 L 10.2893,-236.604
 L 10.4057,-236.246 L 10.4763,-235.876 L 10.5,-235.5 L 10.4763,-235.124 L 10.4057,-234.754 L 10.2893,-234.396
 L 10.1289,-234.055 L 9.92705,-233.737 L 9.6869,-233.446 L 9.41226,-233.188 L 9.10747,-232.967 L 8.77733,-232.786
 L 8.42705,-232.647 L 8.06213,-232.553 L 7.68837,-232.506 z
M -1.58675,-225.252 L -3.17349,-228 L -1.58675,-230.748 L 1.58675,-230.748 L 3.17349,-228 L 1.58675,-225.252
 z
M -7.59418,-226.503 L -7.78107,-226.527 L -7.96352,-226.573 L -8.13866,-226.643 L -8.30373,-226.734 L -8.45613,-226.844
 L -8.59344,-226.973 L -8.71352,-227.118 L -8.81445,-227.277 L -8.89465,-227.448 L -8.95287,-227.627 L -8.98816,-227.812
 L -9,-228 L -8.98816,-228.188 L -8.95287,-228.373 L -8.89465,-228.552 L -8.81445,-228.723 L -8.71352,-228.882
 L -8.59344,-229.027 L -8.45613,-229.156 L -8.30373,-229.266 L -8.13866,-229.357 L -7.96352,-229.427 L -7.78107,-229.473
 L -7.59418,-229.497 L -7.40581,-229.497 L -7.21892,-229.473 L -7.03647,-229.427 L -6.86133,-229.357 L -6.69626,-229.266
 L -6.54385,-229.156 L -6.40654,-229.027 L -6.28647,-228.882 L -6.18553,-228.723 L -6.10533,-228.552 L -6.04712,-228.373
 L -6.01183,-228.188 L -6,-228 L -6.01183,-227.812 L -6.04712,-227.627 L -6.10533,-227.448 L -6.18553,-227.277
 L -6.28647,-227.118 L -6.40654,-226.973 L -6.54385,-226.844 L -6.69626,-226.734 L -6.86133,-226.643 L -7.03647,-226.573
 L -7.21892,-226.527 L -7.40581,-226.503 z
M 7.40581,-226.503 L 7.21892,-226.527 L 7.03647,-226.573 L 6.86133,-226.643 L 6.69626,-226.734 L 6.54385,-226.844
 L 6.40654,-226.973 L 6.28647,-227.118 L 6.18553,-227.277 L 6.10533,-227.448 L 6.04712,-227.627 L 6.01183,-227.812
 L 6,-228 L 6.01183,-228.188 L 6.04712,-228.373 L 6.10533,-228.552 L 6.18553,-228.723 L 6.28647,-228.882
 L 6.40654,-229.027 L 6.54385,-229.156 L 6.69626,-229.266 L 6.86133,-229.357 L 7.03647,-229.427 L 7.21892,-229.473
 L 7.40581,-229.497 L 7.59418,-229.497 L 7.78107,-229.473 L 7.96352,-229.427 L 8.13866,-229.357 L 8.30373,-229.266
 L 8.45613,-229.156 L 8.59344,-229.027 L 8.71352,-228.882 L 8.81445,-228.723 L 8.89465,-228.552 L 8.95287,-228.373
 L 8.98816,-228.188 L 9,-228 L 8.98816,-227.812 L 8.95287,-227.627 L 8.89465,-227.448 L 8.81445,-227.277
 L 8.71352,-227.118 L 8.59344,-226.973 L 8.45613,-226.844 L 8.30373,-226.734 L 8.13866,-226.643 L 7.96352,-226.573
 L 7.78107,-226.527 L 7.59418,-226.503 z
M -1.58675,-180.252 L -3.17349,-183 L -1.58675,-185.748 L 1.58675,-185.748 L 3.17349,-183 L 1.58675,-180.252
 z
M 6.08838,-182.5 L 6.04712,-182.627 L 6.01183,-182.812 L 6,-183 L 6.01183,-183.188 L 6.04712,-183.373
 L 6.10533,-183.552 L 6.18553,-183.723 L 6.28647,-183.882 L 6.40654,-184.027 L 6.54385,-184.156 L 6.69626,-184.266
 L 6.86133,-184.357 L 7.03647,-184.427 L 7.21892,-184.473 L 7.40581,-184.497 L 7.59418,-184.497 L 7.78107,-184.473
 L 7.96352,-184.427 L 8.13866,-184.357 L 8.30373,-184.266 L 8.45613,-184.156 L 8.59344,-184.027 L 8.71352,-183.882
 L 8.81445,-183.723 L 8.89465,-183.552 L 8.95287,-183.373 L 8.98816,-183.188 L 9,-183 L 8.98816,-182.812
 L 8.95287,-182.627 L 8.91161,-182.5 z
M -7.59418,-181.503 L -7.78107,-181.527 L -7.96352,-181.573 L -8.13866,-181.643 L -8.30373,-181.734 L -8.45613,-181.844
 L -8.59344,-181.973 L -8.71352,-182.118 L -8.81445,-182.277 L -8.89465,-182.448 L -8.95287,-182.627 L -8.98816,-182.812
 L -9,-183 L -8.98816,-183.188 L -8.95287,-183.373 L -8.89465,-183.552 L -8.81445,-183.723 L -8.71352,-183.882
 L -8.59344,-184.027 L -8.45613,-184.156 L -8.30373,-184.266 L -8.13866,-184.357 L -7.96352,-184.427 L -7.78107,-184.473
 L -7.59418,-184.497 L -7.40581,-184.497 L -7.21892,-184.473 L -7.03647,-184.427 L -6.86133,-184.357 L -6.69626,-184.266
 L -6.54385,-184.156 L -6.40654,-184.027 L -6.28647,-183.882 L -6.18553,-183.723 L -6.10533,-183.552 L -6.04712,-183.373
 L -6.01183,-183.188 L -6,-183 L -6.01183,-182.812 L -6.04712,-182.627 L -6.10533,-182.448 L -6.18553,-182.277
 L -6.28647,-182.118 L -6.40654,-181.973 L -6.54385,-181.844 L -6.69626,-181.734 L -6.86133,-181.643 L -7.03647,-181.573
 L -7.21892,-181.527 L -7.40581,-181.503 z
M 67.124,-172.524 L 66.7539,-172.594 L 66.3956,-172.711 L 66.0547,-172.871 L 65.7366,-173.073 L 65.4464,-173.313
 L 65.1885,-173.588 L 64.967,-173.893 L 64.7855,-174.223 L 64.6468,-174.573 L 64.5531,-174.938 L 64.5059,-175.312
 L 64.5059,-175.688 L 64.5531,-176.062 L 64.6468,-176.427 L 64.7855,-176.777 L 64.967,-177.107 L 65.1885,-177.412
 L 65.4464,-177.687 L 65.7366,-177.927 L 66.0547,-178.129 L 66.3956,-178.289 L 66.7539,-178.406 L 67.124,-178.476
 L 67.5,-178.5 L 67.876,-178.476 L 68.2461,-178.406 L 68.6044,-178.289 L 68.9453,-178.129 L 69.2634,-177.927
 L 69.5536,-177.687 L 69.8115,-177.412 L 70.033,-177.107 L 70.2145,-176.777 L 70.3532,-176.427 L 70.4469,-176.062
 L 70.4941,-175.688 L 70.4941,-175.312 L 70.4469,-174.938 L 70.3532,-174.573 L 70.2145,-174.223 L 70.033,-173.893
 L 69.8115,-173.588 L 69.5536,-173.313 L 69.2634,-173.073 L 68.9453,-172.871 L 68.6044,-172.711 L 68.2461,-172.594
 L 67.876,-172.524 L 67.5,-172.5 z
M -7.68837,-172.506 L -8.06213,-172.553 L -8.42705,-172.647 L -8.77733,-172.786 L -9.10747,-172.967 L -9.41226,-173.188
 L -9.6869,-173.446 L -9.92705,-173.737 L -10.1289,-174.055 L -10.2893,-174.396 L -10.4057,-174.754 L -10.4763,-175.124
 L -10.5,-175.5 L -10.4763,-175.876 L -10.4057,-176.246 L -10.2893,-176.604 L -10.1289,-176.945 L -9.92705,-177.263
 L -9.6869,-177.554 L -9.41226,-177.812 L -9.10747,-178.033 L -8.77733,-178.214 L -8.42705,-178.353 L -8.06213,-178.447
 L -7.68837,-178.494 L -7.31161,-178.494 L -6.93785,-178.447 L -6.57294,-178.353 L -6.22266,-178.214 L -5.89252,-178.033
 L -5.58772,-177.812 L -5.31308,-177.554 L -5.07294,-177.263 L -4.87108,-176.945 L -4.71066,-176.604 L -4.59424,-176.246
 L -4.52365,-175.876 L -4.5,-175.5 L -4.52365,-175.124 L -4.59424,-174.754 L -4.71066,-174.396 L -4.87108,-174.055
 L -5.07294,-173.737 L -5.31308,-173.446 L -5.58772,-173.188 L -5.89252,-172.967 L -6.22266,-172.786 L -6.57294,-172.647
 L -6.93785,-172.553 L -7.31161,-172.506 z
M 7.40588,-172.506 L 7.21809,-172.518 L 7.03137,-172.541 L 6.84654,-172.577 L 6.66425,-172.623 L 6.48529,-172.682
 L 6.3103,-172.751 L 6.14005,-172.831 L 5.97511,-172.922 L 5.81624,-173.022 L 5.66399,-173.133 L 5.519,-173.253
 L 5.38181,-173.382 L 5.25299,-173.519 L 5.13304,-173.664 L 5.02242,-173.816 L 4.9216,-173.975 L 4.83092,-174.14
 L 4.75081,-174.31 L 4.68153,-174.485 L 4.62338,-174.664 L 4.57657,-174.847 L 4.54132,-175.031 L 4.51773,-175.218
 L 4.50592,-175.406 L 4.50592,-175.594 L 4.51773,-175.782 L 4.54132,-175.969 L 4.57657,-176.153 L 4.62338,-176.336
 L 4.68152,-176.515 L 4.75081,-176.69 L 4.83092,-176.86 L 4.9216,-177.025 L 5.02242,-177.184 L 5.13304,-177.336
 L 5.25298,-177.481 L 5.38182,-177.618 L 5.51898,-177.747 L 5.66402,-177.867 L 5.81622,-177.978 L 5.97514,-178.078
 L 6.14003,-178.169 L 6.31033,-178.249 L 6.48526,-178.318 L 6.66428,-178.377 L 6.84651,-178.423 L 7.0314,-178.459
 L 7.21806,-178.482 L 7.40591,-178.494 L 7.59407,-178.494 L 7.78192,-178.482 L 7.96858,-178.459 L 8.15346,-178.423
 L 8.33571,-178.377 L 8.51472,-178.318 L 8.68967,-178.249 L 8.85995,-178.169 L 9.02486,-178.078 L 9.18375,-177.978
 L 9.33598,-177.867 L 9.48099,-177.747 L 9.61818,-177.618 L 9.74699,-177.481 L 9.86696,-177.336 L 9.97755,-177.184
 L 10.0784,-177.025 L 10.1691,-176.86 L 10.2492,-176.69 L 10.3185,-176.515 L 10.3766,-176.336 L 10.4234,-176.153
 L 10.4587,-175.969 L 10.4823,-175.782 L 10.4941,-175.594 L 10.4941,-175.406 L 10.4823,-175.218 L 10.4587,-175.031
 L 10.4234,-174.847 L 10.3766,-174.664 L 10.3185,-174.485 L 10.2492,-174.31 L 10.1691,-174.14 L 10.0784,-173.975
 L 9.97755,-173.816 L 9.86696,-173.664 L 9.74698,-173.519 L 9.61819,-173.382 L 9.48097,-173.253 L 9.33601,-173.133
 L 9.18373,-173.022 L 9.02489,-172.922 L 8.85992,-172.831 L 8.68968,-172.751 L 8.51469,-172.682 L 8.33574,-172.623
 L 8.15344,-172.577 L 7.96861,-172.541 L 7.78189,-172.518 L 7.5941,-172.506 z
M -0.133423,-173.379 L -0.398178,-173.413 L -0.656647,-173.479 L -0.90477,-173.577 L -1.13863,-173.706 L -1.35452,-173.863
 L -1.54906,-174.045 L -1.71915,-174.251 L -1.86214,-174.476 L -1.97577,-174.718 L -2.05823,-174.972 L -2.10823,-175.234
 L -2.125,-175.5 L -2.10823,-175.766 L -2.05823,-176.028 L -1.97577,-176.282 L -1.86214,-176.524 L -1.71915,-176.749
 L -1.54906,-176.955 L -1.35452,-177.137 L -1.13863,-177.294 L -0.90477,-177.423 L -0.656647,-177.521 L -0.398178,-177.587
 L -0.133423,-177.621 L 0.133423,-177.621 L 0.398178,-177.587 L 0.509857,-177.559 L 0.509857,-173.441 L 0.398178,-173.413
 L 0.133423,-173.379 z
M 59.812,-174.012 L 59.627,-174.047 L 59.4478,-174.105 L 59.2774,-174.186 L 59.1183,-174.286 L 58.9732,-174.407
 L 58.8442,-174.544 L 58.7335,-174.696 L 58.6428,-174.861 L 58.5734,-175.036 L 58.5266,-175.219 L 58.503,-175.406
 L 58.503,-175.594 L 58.5266,-175.781 L 58.5734,-175.964 L 58.6428,-176.139 L 58.7335,-176.304 L 58.8442,-176.456
 L 58.9732,-176.593 L 59.1183,-176.714 L 59.2774,-176.814 L 59.4478,-176.895 L 59.627,-176.953 L 59.812,-176.988
 L 60,-177 L 60.188,-176.988 L 60.373,-176.953 L 60.5522,-176.895 L 60.7226,-176.814 L 60.8817,-176.714
 L 61.0268,-176.593 L 61.1558,-176.456 L 61.2665,-176.304 L 61.3572,-176.139 L 61.4266,-175.964 L 61.4734,-175.781
 L 61.497,-175.594 L 61.497,-175.406 L 61.4734,-175.219 L 61.4266,-175.036 L 61.3572,-174.861 L 61.2665,-174.696
 L 61.1558,-174.544 L 61.0268,-174.407 L 60.8817,-174.286 L 60.7226,-174.186 L 60.5522,-174.105 L 60.373,-174.047
 L 60.188,-174.012 L 60,-174 z
M 14.812,-174.012 L 14.627,-174.047 L 14.5,-174.088 L 14.5,-176.912 L 14.627,-176.953 L 14.812,-176.988
 L 15,-177 L 15.188,-176.988 L 15.373,-176.953 L 15.5522,-176.895 L 15.7226,-176.814 L 15.8817,-176.714
 L 16.0268,-176.593 L 16.1558,-176.456 L 16.2665,-176.304 L 16.3572,-176.139 L 16.4266,-175.964 L 16.4734,-175.781
 L 16.497,-175.594 L 16.497,-175.406 L 16.4734,-175.219 L 16.4266,-175.036 L 16.3572,-174.861 L 16.2665,-174.696
 L 16.1558,-174.544 L 16.0268,-174.407 L 15.8817,-174.286 L 15.7226,-174.186 L 15.5522,-174.105 L 15.373,-174.047
 L 15.188,-174.012 L 15,-174 z
M 57.2517,-166.413 L 57.2517,-169.587 L 60,-171.173 L 62.7483,-169.587 L 62.7483,-166.413 L 60,-164.827
 z
M 14.2636,-165.252 L 13.4133,-165.252 L 12.9881,-165.988 L 12.2517,-166.413 L 12.2517,-167.264 L 11.8265,-168
 L 12.2517,-168.736 L 12.2517,-169.331 L 12.6871,-169.647 L 12.8849,-169.833 L 13.4133,-170.748 L 14.2636,-170.748
 L 15,-171.173 L 15.7364,-170.748 L 16.5867,-170.748 L 17.0119,-170.012 L 17.7483,-169.587 L 17.7483,-168.736
 L 18.1735,-168 L 17.7483,-167.264 L 17.7483,-166.413 L 17.0119,-165.988 L 16.5867,-165.252 L 15.7364,-165.252
 L 15,-164.827 z
M 67.2337,-165.892 L 66.9715,-165.942 L 66.7177,-166.024 L 66.4763,-166.138 L 66.2509,-166.281 L 66.0453,-166.451
 L 65.8627,-166.645 L 65.7058,-166.861 L 65.5772,-167.095 L 65.479,-167.343 L 65.4126,-167.602 L 65.3792,-167.867
 L 65.3792,-168.133 L 65.4126,-168.398 L 65.479,-168.657 L 65.5772,-168.905 L 65.7058,-169.139 L 65.8627,-169.355
 L 66.0453,-169.549 L 66.2509,-169.719 L 66.4763,-169.862 L 66.7177,-169.976 L 66.9715,-170.058 L 67.2337,-170.108
 L 67.5,-170.125 L 67.7663,-170.108 L 68.0285,-170.058 L 68.2823,-169.976 L 68.5237,-169.862 L 68.749,-169.719
 L 68.9547,-169.549 L 69.1373,-169.355 L 69.2942,-169.139 L 69.4228,-168.905 L 69.521,-168.657 L 69.5874,-168.398
 L 69.6208,-168.133 L 69.6208,-167.867 L 69.5874,-167.602 L 69.521,-167.343 L 69.4228,-167.095 L 69.2942,-166.861
 L 69.1373,-166.645 L 68.9547,-166.451 L 68.749,-166.281 L 68.5237,-166.138 L 68.2823,-166.024 L 68.0285,-165.942
 L 67.7663,-165.892 L 67.5,-165.875 z
M 7.23366,-165.892 L 6.97153,-165.942 L 6.71773,-166.024 L 6.47627,-166.138 L 6.25095,-166.281 L 6.04533,-166.451
 L 5.86266,-166.645 L 5.7058,-166.861 L 5.57724,-167.095 L 5.479,-167.343 L 5.41263,-167.602 L 5.37918,-167.867
 L 5.37918,-168.133 L 5.41263,-168.398 L 5.44131,-168.51 L 9.55869,-168.51 L 9.58736,-168.398 L 9.6208,-168.133
 L 9.6208,-167.867 L 9.58736,-167.602 L 9.52098,-167.343 L 9.42274,-167.095 L 9.29419,-166.861 L 9.13733,-166.645
 L 8.95465,-166.451 L 8.74904,-166.281 L 8.52371,-166.138 L 8.28226,-166.024 L 8.02846,-165.942 L 7.76633,-165.892
 L 7.5,-165.875 z
M 7.12399,-157.524 L 6.75392,-157.594 L 6.39561,-157.711 L 6.05473,-157.871 L 5.73663,-158.073 L 5.44635,-158.313
 L 5.18845,-158.588 L 4.96701,-158.893 L 4.78551,-159.223 L 4.64682,-159.573 L 4.55313,-159.938 L 4.50592,-160.312
 L 4.50592,-160.688 L 4.55313,-161.062 L 4.64682,-161.427 L 4.78551,-161.777 L 4.96701,-162.107 L 5.18845,-162.412
 L 5.44635,-162.687 L 5.73663,-162.927 L 6.05473,-163.129 L 6.39561,-163.289 L 6.75392,-163.406 L 7.12399,-163.476
 L 7.5,-163.5 L 7.87599,-163.476 L 8.24606,-163.406 L 8.60437,-163.289 L 8.94525,-163.129 L 9.26335,-162.927
 L 9.55363,-162.687 L 9.81154,-162.412 L 10.033,-162.107 L 10.2145,-161.777 L 10.3532,-161.427 L 10.4469,-161.062
 L 10.4941,-160.688 L 10.4941,-160.312 L 10.4469,-159.938 L 10.3532,-159.573 L 10.2145,-159.223 L 10.033,-158.893
 L 9.81154,-158.588 L 9.55363,-158.313 L 9.26335,-158.073 L 8.94525,-157.871 L 8.60437,-157.711 L 8.24606,-157.594
 L 7.87599,-157.524 L 7.5,-157.5 z
M 67.124,-157.524 L 66.7539,-157.594 L 66.3956,-157.711 L 66.0547,-157.871 L 65.7366,-158.073 L 65.4464,-158.313
 L 65.1885,-158.588 L 64.967,-158.893 L 64.7855,-159.223 L 64.6468,-159.573 L 64.5531,-159.938 L 64.5059,-160.312
 L 64.5059,-160.688 L 64.5531,-161.062 L 64.6468,-161.427 L 64.7855,-161.777 L 64.967,-162.107 L 65.1885,-162.412
 L 65.4464,-162.687 L 65.7366,-162.927 L 66.0547,-163.129 L 66.3956,-163.289 L 66.7539,-163.406 L 67.124,-163.476
 L 67.5,-163.5 L 67.876,-163.476 L 68.2461,-163.406 L 68.6044,-163.289 L 68.9453,-163.129 L 69.2634,-162.927
 L 69.5536,-162.687 L 69.8115,-162.412 L 70.033,-162.107 L 70.2145,-161.777 L 70.3532,-161.427 L 70.4469,-161.062
 L 70.4941,-160.688 L 70.4941,-160.312 L 70.4469,-159.938 L 70.3532,-159.573 L 70.2145,-159.223 L 70.033,-158.893
 L 69.8115,-158.588 L 69.5536,-158.313 L 69.2634,-158.073 L 68.9453,-157.871 L 68.6044,-157.711 L 68.2461,-157.594
 L 67.876,-157.524 L 67.5,-157.5 z
M 59.812,-159.012 L 59.627,-159.047 L 59.4478,-159.105 L 59.2774,-159.186 L 59.1183,-159.286 L 58.9732,-159.407
 L 58.8442,-159.544 L 58.7335,-159.696 L 58.6428,-159.861 L 58.5734,-160.036 L 58.5266,-160.219 L 58.503,-160.406
 L 58.503,-160.594 L 58.5266,-160.781 L 58.5734,-160.964 L 58.6428,-161.139 L 58.7335,-161.304 L 58.8442,-161.456
 L 58.9732,-161.593 L 59.1183,-161.714 L 59.2774,-161.814 L 59.4478,-161.895 L 59.627,-161.953 L 59.812,-161.988
 L 60,-162 L 60.188,-161.988 L 60.373,-161.953 L 60.5522,-161.895 L 60.7226,-161.814 L 60.8817,-161.714
 L 61.0268,-161.593 L 61.1558,-161.456 L 61.2665,-161.304 L 61.3572,-161.139 L 61.4266,-160.964 L 61.4734,-160.781
 L 61.497,-160.594 L 61.497,-160.406 L 61.4734,-160.219 L 61.4266,-160.036 L 61.3572,-159.861 L 61.2665,-159.696
 L 61.1558,-159.544 L 61.0268,-159.407 L 60.8817,-159.286 L 60.7226,-159.186 L 60.5522,-159.105 L 60.373,-159.047
 L 60.188,-159.012 L 60,-159 z
M 14.812,-159.012 L 14.627,-159.047 L 14.4478,-159.105 L 14.2774,-159.186 L 14.1183,-159.286 L 13.9732,-159.407
 L 13.8442,-159.544 L 13.7335,-159.696 L 13.6427,-159.861 L 13.5734,-160.036 L 13.5266,-160.219 L 13.503,-160.406
 L 13.503,-160.594 L 13.5266,-160.781 L 13.5734,-160.964 L 13.6427,-161.139 L 13.7335,-161.304 L 13.8442,-161.456
 L 13.9732,-161.593 L 14.1183,-161.714 L 14.2774,-161.814 L 14.4478,-161.895 L 14.627,-161.953 L 14.812,-161.988
 L 15,-162 L 15.188,-161.988 L 15.373,-161.953 L 15.5522,-161.895 L 15.7226,-161.814 L 15.8817,-161.714
 L 16.0268,-161.593 L 16.1558,-161.456 L 16.2665,-161.304 L 16.3572,-161.139 L 16.4266,-160.964 L 16.4734,-160.781
 L 16.497,-160.594 L 16.497,-160.406 L 16.4734,-160.219 L 16.4266,-160.036 L 16.3572,-159.861 L 16.2665,-159.696
 L 16.1558,-159.544 L 16.0268,-159.407 L 15.8817,-159.286 L 15.7226,-159.186 L 15.5522,-159.105 L 15.373,-159.047
 L 15.188,-159.012 L 15,-159 z
M 100.437,-168.589 L 101.045,-168.745 L 101.629,-168.976 L 102.179,-169.278 L 102.687,-169.647 L 103.145,-170.077
 L 103.545,-170.561 L 103.882,-171.091 L 104.149,-171.659 L 104.343,-172.257 L 104.461,-172.873 L 104.5,-173.5
 L 104.5,-228.5 L 159.5,-228.5 L 160.127,-228.539 L 160.743,-228.657 L 161.341,-228.851 L 161.909,-229.118
 L 162.439,-229.455 L 162.923,-229.855 L 163.353,-230.313 L 163.722,-230.821 L 164.024,-231.371 L 164.255,-231.955
 L 164.411,-232.563 L 164.49,-233.186 L 164.49,-252.814 L 164.411,-253.437 L 164.255,-254.045 L 164.024,-254.629
 L 163.722,-255.179 L 163.353,-255.687 L 162.923,-256.145 L 162.439,-256.545 L 161.909,-256.882 L 161.341,-257.149
 L 160.743,-257.343 L 160.127,-257.461 L 159.5,-257.5 L 104.5,-257.5 L 104.5,-272.506 L 75.5,-272.506
 L 75.5,-257.5 L 75.5394,-256.873 L 75.6571,-256.257 L 75.8511,-255.659 L 76.1185,-255.091 L 76.4549,-254.561
 L 76.8551,-254.077 L 77.3129,-253.647 L 77.8209,-253.278 L 78.3711,-252.976 L 78.9549,-252.745 L 79.5631,-252.589
 L 80.1861,-252.51 L 90.5099,-252.51 L 90.5099,-242.49 L 80.1861,-242.49 L 79.5631,-242.411 L 78.9549,-242.255
 L 78.3711,-242.024 L 77.8209,-241.722 L 77.3129,-241.353 L 76.8551,-240.923 L 76.4549,-240.439 L 76.1185,-239.909
 L 75.8511,-239.341 L 75.6571,-238.743 L 75.5394,-238.127 L 75.5,-237.5 L 75.5,-173.5 L 75.5394,-172.873
 L 75.6571,-172.257 L 75.8511,-171.659 L 76.1185,-171.091 L 76.4549,-170.561 L 76.8551,-170.077 L 77.3129,-169.647
 L 77.8209,-169.278 L 78.3711,-168.976 L 78.9549,-168.745 L 79.5631,-168.589 L 80.1861,-168.51 L 99.8139,-168.51
 z
M 89.887,-265.204 L 89.6627,-265.232 L 89.4438,-265.288 L 89.2336,-265.371 L 89.0355,-265.48 L 88.8526,-265.613
 L 88.6879,-265.768 L 88.5438,-265.942 L 88.4226,-266.133 L 88.3264,-266.337 L 88.2565,-266.552 L 88.2142,-266.774
 L 88.2,-267 L 88.2142,-267.226 L 88.2565,-267.448 L 88.3264,-267.663 L 88.4226,-267.867 L 88.5438,-268.058
 L 88.6879,-268.232 L 88.8526,-268.387 L 89.0355,-268.52 L 89.2336,-268.629 L 89.4438,-268.712 L 89.6627,-268.768
 L 89.887,-268.796 L 90.113,-268.796 L 90.3373,-268.768 L 90.5562,-268.712 L 90.7664,-268.629 L 90.9645,-268.52
 L 91.1474,-268.387 L 91.3121,-268.232 L 91.4562,-268.058 L 91.5773,-267.867 L 91.6736,-267.663 L 91.7434,-267.448
 L 91.7858,-267.226 L 91.8,-267 L 91.7858,-266.774 L 91.7434,-266.552 L 91.6736,-266.337 L 91.5773,-266.133
 L 91.4562,-265.942 L 91.3121,-265.768 L 91.1474,-265.613 L 90.9645,-265.48 L 90.7664,-265.371 L 90.5562,-265.288
 L 90.3373,-265.232 L 90.113,-265.204 z
M 82.4058,-265.503 L 82.2189,-265.527 L 82.0365,-265.573 L 81.8613,-265.643 L 81.6963,-265.734 L 81.5439,-265.844
 L 81.4065,-265.973 L 81.2865,-266.118 L 81.1855,-266.277 L 81.1053,-266.448 L 81.0471,-266.627 L 81.0118,-266.812
 L 81,-267 L 81.0118,-267.188 L 81.0471,-267.373 L 81.1053,-267.552 L 81.1855,-267.723 L 81.2865,-267.882
 L 81.4065,-268.027 L 81.5439,-268.156 L 81.6963,-268.266 L 81.8613,-268.357 L 82.0365,-268.427 L 82.2189,-268.473
 L 82.4058,-268.497 L 82.5942,-268.497 L 82.7811,-268.473 L 82.9635,-268.427 L 83.1387,-268.357 L 83.3037,-268.266
 L 83.4561,-268.156 L 83.5934,-268.027 L 83.7135,-267.882 L 83.8145,-267.723 L 83.8947,-267.552 L 83.9529,-267.373
 L 83.9882,-267.188 L 84,-267 L 83.9882,-266.812 L 83.9529,-266.627 L 83.8947,-266.448 L 83.8145,-266.277
 L 83.7135,-266.118 L 83.5934,-265.973 L 83.4561,-265.844 L 83.3037,-265.734 L 83.1387,-265.643 L 82.9635,-265.573
 L 82.7811,-265.527 L 82.5942,-265.503 z
M 97.4058,-265.503 L 97.2189,-265.527 L 97.0365,-265.573 L 96.8613,-265.643 L 96.6963,-265.734 L 96.5439,-265.844
 L 96.4065,-265.973 L 96.2865,-266.118 L 96.1855,-266.277 L 96.1053,-266.448 L 96.0471,-266.627 L 96.0118,-266.812
 L 96,-267 L 96.0118,-267.188 L 96.0471,-267.373 L 96.1053,-267.552 L 96.1855,-267.723 L 96.2865,-267.882
 L 96.4065,-268.027 L 96.5439,-268.156 L 96.6963,-268.266 L 96.8613,-268.357 L 97.0365,-268.427 L 97.2189,-268.473
 L 97.4058,-268.497 L 97.5942,-268.497 L 97.7811,-268.473 L 97.9635,-268.427 L 98.1387,-268.357 L 98.3037,-268.266
 L 98.4561,-268.156 L 98.5934,-268.027 L 98.7135,-267.882 L 98.8145,-267.723 L 98.8947,-267.552 L 98.9529,-267.373
 L 98.9882,-267.188 L 99,-267 L 98.9882,-266.812 L 98.9529,-266.627 L 98.8947,-266.448 L 98.8145,-266.277
 L 98.7135,-266.118 L 98.5934,-265.973 L 98.4561,-265.844 L 98.3037,-265.734 L 98.1387,-265.643 L 97.9635,-265.573
 L 97.7811,-265.527 L 97.5942,-265.503 z
M 95.073,-257.737 L 94.8711,-258.055 L 94.7107,-258.396 L 94.5943,-258.754 L 94.5237,-259.124 L 94.5,-259.5
 L 94.5237,-259.876 L 94.5943,-260.246 L 94.7107,-260.604 L 94.8711,-260.945 L 95.073,-261.263 L 95.3131,-261.554
 L 95.5877,-261.812 L 95.8925,-262.033 L 96.2227,-262.214 L 96.573,-262.353 L 96.9379,-262.447 L 97.3116,-262.494
 L 97.6884,-262.494 L 98.0621,-262.447 L 98.427,-262.353 L 98.7773,-262.214 L 99.1075,-262.033 L 99.4123,-261.812
 L 99.6869,-261.554 L 99.927,-261.263 L 100.129,-260.945 L 100.289,-260.604 L 100.406,-260.246 L 100.476,-259.876
 L 100.5,-259.5 L 100.476,-259.124 L 100.406,-258.754 L 100.289,-258.396 L 100.129,-258.055 L 99.927,-257.737
 L 99.7313,-257.5 L 95.5,-257.5 L 95.2802,-257.486 z
M 82.3116,-256.506 L 81.9379,-256.553 L 81.573,-256.647 L 81.2227,-256.786 L 80.8925,-256.967 L 80.5877,-257.188
 L 80.3131,-257.446 L 80.073,-257.737 L 79.8711,-258.055 L 79.7107,-258.396 L 79.5943,-258.754 L 79.5237,-259.124
 L 79.5,-259.5 L 79.5237,-259.876 L 79.5943,-260.246 L 79.7107,-260.604 L 79.8711,-260.945 L 80.073,-261.263
 L 80.3131,-261.554 L 80.5877,-261.812 L 80.8925,-262.033 L 81.2227,-262.214 L 81.573,-262.353 L 81.9379,-262.447
 L 82.3116,-262.494 L 82.6884,-262.494 L 83.0621,-262.447 L 83.427,-262.353 L 83.7773,-262.214 L 84.1075,-262.033
 L 84.4123,-261.812 L 84.6869,-261.554 L 84.927,-261.263 L 85.1289,-260.945 L 85.2893,-260.604 L 85.4057,-260.246
 L 85.4763,-259.876 L 85.5,-259.5 L 85.4763,-259.124 L 85.4057,-258.754 L 85.2893,-258.396 L 85.1289,-258.055
 L 84.927,-257.737 L 84.6869,-257.446 L 84.4123,-257.188 L 84.1075,-256.967 L 83.7773,-256.786 L 83.427,-256.647
 L 83.0621,-256.553 L 82.6884,-256.506 z
M 89.9058,-258.003 L 89.7189,-258.027 L 89.5365,-258.073 L 89.3613,-258.143 L 89.1963,-258.234 L 89.0439,-258.344
 L 88.9065,-258.473 L 88.7865,-258.618 L 88.6855,-258.777 L 88.6053,-258.948 L 88.5471,-259.127 L 88.5118,-259.312
 L 88.5,-259.5 L 88.5118,-259.688 L 88.5471,-259.873 L 88.6053,-260.052 L 88.6855,-260.223 L 88.7865,-260.382
 L 88.9065,-260.527 L 89.0439,-260.656 L 89.1963,-260.766 L 89.3613,-260.857 L 89.5365,-260.927 L 89.7189,-260.973
 L 89.9058,-260.997 L 90.0942,-260.997 L 90.2811,-260.973 L 90.4635,-260.927 L 90.6387,-260.857 L 90.8037,-260.766
 L 90.9561,-260.656 L 91.0934,-260.527 L 91.2135,-260.382 L 91.3145,-260.223 L 91.3947,-260.052 L 91.4529,-259.873
 L 91.4882,-259.688 L 91.5,-259.5 L 91.4882,-259.312 L 91.4529,-259.127 L 91.3947,-258.948 L 91.3145,-258.777
 L 91.2135,-258.618 L 91.0934,-258.473 L 90.9561,-258.344 L 90.8037,-258.234 L 90.6387,-258.143 L 90.4635,-258.073
 L 90.2811,-258.027 L 90.0942,-258.003 z
M 157.124,-247.524 L 156.754,-247.594 L 156.396,-247.711 L 156.055,-247.871 L 155.737,-248.073 L 155.446,-248.313
 L 155.188,-248.588 L 154.967,-248.893 L 154.786,-249.223 L 154.647,-249.573 L 154.553,-249.938 L 154.506,-250.312
 L 154.506,-250.688 L 154.553,-251.062 L 154.647,-251.427 L 154.786,-251.777 L 154.967,-252.107 L 155.188,-252.412
 L 155.446,-252.687 L 155.737,-252.927 L 156.055,-253.129 L 156.396,-253.289 L 156.754,-253.406 L 157.124,-253.476
 L 157.5,-253.5 L 157.876,-253.476 L 158.246,-253.406 L 158.604,-253.289 L 158.945,-253.129 L 159.263,-252.927
 L 159.554,-252.687 L 159.812,-252.412 L 160.033,-252.107 L 160.214,-251.777 L 160.353,-251.427 L 160.447,-251.062
 L 160.494,-250.688 L 160.494,-250.312 L 160.447,-249.938 L 160.353,-249.573 L 160.214,-249.223 L 160.033,-248.893
 L 159.812,-248.588 L 159.554,-248.313 L 159.263,-248.073 L 158.945,-247.871 L 158.604,-247.711 L 158.246,-247.594
 L 157.876,-247.524 L 157.5,-247.5 z
M 97.124,-247.524 L 96.7539,-247.594 L 96.3956,-247.711 L 96.0547,-247.871 L 95.7366,-248.073 L 95.4464,-248.313
 L 95.1885,-248.588 L 94.967,-248.893 L 94.7855,-249.223 L 94.6468,-249.573 L 94.5531,-249.938 L 94.5059,-250.312
 L 94.5059,-250.688 L 94.5531,-251.062 L 94.6468,-251.427 L 94.7855,-251.777 L 94.967,-252.107 L 95.1885,-252.412
 L 95.2801,-252.51 L 99.7199,-252.51 L 99.8115,-252.412 L 100.033,-252.107 L 100.214,-251.777 L 100.353,-251.427
 L 100.447,-251.062 L 100.494,-250.688 L 100.494,-250.312 L 100.447,-249.938 L 100.353,-249.573 L 100.214,-249.223
 L 100.033,-248.893 L 99.8115,-248.588 L 99.5536,-248.313 L 99.2634,-248.073 L 98.9453,-247.871 L 98.6044,-247.711
 L 98.2461,-247.594 L 97.876,-247.524 L 97.5,-247.5 z
M 104.812,-249.012 L 104.627,-249.047 L 104.448,-249.105 L 104.277,-249.186 L 104.118,-249.286 L 103.973,-249.407
 L 103.844,-249.544 L 103.734,-249.696 L 103.643,-249.861 L 103.573,-250.036 L 103.527,-250.219 L 103.503,-250.406
 L 103.503,-250.594 L 103.527,-250.781 L 103.573,-250.964 L 103.643,-251.139 L 103.734,-251.304 L 103.844,-251.456
 L 103.973,-251.593 L 104.118,-251.714 L 104.277,-251.814 L 104.448,-251.895 L 104.627,-251.953 L 104.812,-251.988
 L 105,-252 L 105.188,-251.988 L 105.373,-251.953 L 105.552,-251.895 L 105.723,-251.814 L 105.882,-251.714
 L 106.027,-251.593 L 106.156,-251.456 L 106.266,-251.304 L 106.357,-251.139 L 106.427,-250.964 L 106.473,-250.781
 L 106.497,-250.594 L 106.497,-250.406 L 106.473,-250.219 L 106.427,-250.036 L 106.357,-249.861 L 106.266,-249.696
 L 106.156,-249.544 L 106.027,-249.407 L 105.882,-249.286 L 105.723,-249.186 L 105.552,-249.105 L 105.373,-249.047
 L 105.188,-249.012 L 105,-249 z
M 149.812,-249.012 L 149.627,-249.047 L 149.448,-249.105 L 149.277,-249.186 L 149.118,-249.286 L 148.973,-249.407
 L 148.844,-249.544 L 148.734,-249.696 L 148.643,-249.861 L 148.573,-250.036 L 148.527,-250.219 L 148.503,-250.406
 L 148.503,-250.594 L 148.527,-250.781 L 148.573,-250.964 L 148.643,-251.139 L 148.734,-251.304 L 148.844,-251.456
 L 148.973,-251.593 L 149.118,-251.714 L 149.277,-251.814 L 149.448,-251.895 L 149.627,-251.953 L 149.812,-251.988
 L 150,-252 L 150.188,-251.988 L 150.373,-251.953 L 150.552,-251.895 L 150.723,-251.814 L 150.882,-251.714
 L 151.027,-251.593 L 151.156,-251.456 L 151.266,-251.304 L 151.357,-251.139 L 151.427,-250.964 L 151.473,-250.781
 L 151.497,-250.594 L 151.497,-250.406 L 151.473,-250.219 L 151.427,-250.036 L 151.357,-249.861 L 151.266,-249.696
 L 151.156,-249.544 L 151.027,-249.407 L 150.882,-249.286 L 150.723,-249.186 L 150.552,-249.105 L 150.373,-249.047
 L 150.188,-249.012 L 150,-249 z
M 149.774,-241.214 L 149.552,-241.257 L 149.337,-241.326 L 149.133,-241.423 L 148.942,-241.544 L 148.768,-241.688
 L 148.613,-241.853 L 148.48,-242.036 L 148.371,-242.234 L 148.288,-242.444 L 148.232,-242.663 L 148.204,-242.887
 L 148.204,-243.113 L 148.232,-243.337 L 148.288,-243.556 L 148.371,-243.766 L 148.48,-243.964 L 148.613,-244.147
 L 148.768,-244.312 L 148.942,-244.456 L 149.133,-244.577 L 149.337,-244.674 L 149.552,-244.743 L 149.774,-244.786
 L 150,-244.8 L 150.226,-244.786 L 150.448,-244.743 L 150.663,-244.674 L 150.867,-244.577 L 151.058,-244.456
 L 151.232,-244.312 L 151.387,-244.147 L 151.52,-243.964 L 151.629,-243.766 L 151.712,-243.556 L 151.768,-243.337
 L 151.796,-243.113 L 151.796,-242.887 L 151.768,-242.663 L 151.712,-242.444 L 151.629,-242.234 L 151.52,-242.036
 L 151.387,-241.853 L 151.232,-241.688 L 151.058,-241.544 L 150.867,-241.423 L 150.663,-241.326 L 150.448,-241.257
 L 150.226,-241.214 L 150,-241.2 z
M 104.944,-241.204 L 104.887,-241.204 L 104.831,-241.211 L 104.774,-241.214 L 104.719,-241.225 L 104.663,-241.232
 L 104.608,-241.246 L 104.552,-241.257 L 104.499,-241.274 L 104.444,-241.288 L 104.391,-241.309 L 104.337,-241.326
 L 104.286,-241.35 L 104.234,-241.371 L 104.184,-241.399 L 104.133,-241.423 L 104.085,-241.453 L 104.036,-241.48
 L 103.99,-241.513 L 103.942,-241.544 L 103.898,-241.58 L 103.853,-241.613 L 103.811,-241.652 L 103.768,-241.688
 L 103.729,-241.729 L 103.688,-241.768 L 103.652,-241.811 L 103.613,-241.853 L 103.58,-241.898 L 103.544,-241.942
 L 103.513,-241.99 L 103.48,-242.036 L 103.453,-242.085 L 103.423,-242.133 L 103.399,-242.184 L 103.371,-242.234
 L 103.35,-242.286 L 103.326,-242.337 L 103.309,-242.391 L 103.288,-242.444 L 103.274,-242.499 L 103.257,-242.552
 L 103.246,-242.608 L 103.232,-242.663 L 103.225,-242.719 L 103.214,-242.774 L 103.211,-242.831 L 103.204,-242.887
 L 103.204,-242.944 L 103.2,-243 L 103.204,-243.056 L 103.204,-243.113 L 103.211,-243.169 L 103.214,-243.226
 L 103.225,-243.281 L 103.232,-243.337 L 103.246,-243.392 L 103.257,-243.448 L 103.274,-243.501 L 103.288,-243.556
 L 103.309,-243.609 L 103.326,-243.663 L 103.35,-243.714 L 103.371,-243.766 L 103.399,-243.816 L 103.423,-243.867
 L 103.453,-243.915 L 103.48,-243.964 L 103.513,-244.01 L 103.544,-244.058 L 103.58,-244.102 L 103.613,-244.147
 L 103.652,-244.189 L 103.688,-244.232 L 103.729,-244.271 L 103.768,-244.312 L 103.811,-244.348 L 103.853,-244.387
 L 103.898,-244.42 L 103.942,-244.456 L 103.99,-244.487 L 104.036,-244.52 L 104.085,-244.547 L 104.133,-244.577
 L 104.184,-244.601 L 104.234,-244.629 L 104.286,-244.65 L 104.337,-244.674 L 104.391,-244.691 L 104.444,-244.712
 L 104.499,-244.726 L 104.552,-244.743 L 104.608,-244.754 L 104.663,-244.768 L 104.719,-244.775 L 104.774,-244.786
 L 104.831,-244.789 L 104.887,-244.796 L 104.944,-244.796 L 105,-244.8 L 105.056,-244.796 L 105.113,-244.796
 L 105.169,-244.789 L 105.226,-244.786 L 105.281,-244.775 L 105.337,-244.768 L 105.392,-244.754 L 105.448,-244.743
 L 105.501,-244.726 L 105.556,-244.712 L 105.609,-244.691 L 105.663,-244.674 L 105.714,-244.65 L 105.766,-244.629
 L 105.816,-244.601 L 105.867,-244.577 L 105.915,-244.547 L 105.964,-244.52 L 106.01,-244.487 L 106.058,-244.456
 L 106.102,-244.42 L 106.147,-244.387 L 106.189,-244.348 L 106.232,-244.312 L 106.271,-244.271 L 106.312,-244.232
 L 106.348,-244.189 L 106.387,-244.147 L 106.42,-244.102 L 106.456,-244.058 L 106.487,-244.01 L 106.52,-243.964
 L 106.547,-243.915 L 106.577,-243.867 L 106.601,-243.816 L 106.629,-243.766 L 106.65,-243.714 L 106.674,-243.663
 L 106.691,-243.609 L 106.712,-243.556 L 106.726,-243.501 L 106.743,-243.448 L 106.754,-243.392 L 106.768,-243.337
 L 106.775,-243.281 L 106.786,-243.226 L 106.789,-243.169 L 106.796,-243.113 L 106.796,-243.056 L 106.8,-243
 L 106.796,-242.944 L 106.796,-242.887 L 106.789,-242.831 L 106.786,-242.774 L 106.775,-242.719 L 106.768,-242.663
 L 106.754,-242.608 L 106.743,-242.552 L 106.726,-242.499 L 106.712,-242.444 L 106.691,-242.391 L 106.674,-242.337
 L 106.65,-242.286 L 106.629,-242.234 L 106.601,-242.184 L 106.577,-242.133 L 106.547,-242.085 L 106.52,-242.036
 L 106.487,-241.99 L 106.456,-241.942 L 106.42,-241.898 L 106.387,-241.853 L 106.348,-241.811 L 106.312,-241.768
 L 106.271,-241.729 L 106.232,-241.688 L 106.189,-241.652 L 106.147,-241.613 L 106.102,-241.58 L 106.058,-241.544
 L 106.01,-241.513 L 105.964,-241.48 L 105.915,-241.453 L 105.867,-241.423 L 105.816,-241.399 L 105.766,-241.371
 L 105.714,-241.35 L 105.663,-241.326 L 105.609,-241.309 L 105.556,-241.288 L 105.501,-241.274 L 105.448,-241.257
 L 105.392,-241.246 L 105.337,-241.232 L 105.281,-241.225 L 105.226,-241.214 L 105.169,-241.211 L 105.113,-241.204
 L 105.056,-241.204 L 105,-241.2 z
M 157.312,-241.512 L 157.127,-241.547 L 156.948,-241.605 L 156.777,-241.686 L 156.618,-241.786 L 156.473,-241.907
 L 156.344,-242.044 L 156.234,-242.196 L 156.143,-242.361 L 156.073,-242.536 L 156.027,-242.719 L 156.003,-242.906
 L 156.003,-243.094 L 156.027,-243.281 L 156.073,-243.464 L 156.143,-243.639 L 156.234,-243.804 L 156.344,-243.956
 L 156.473,-244.093 L 156.618,-244.214 L 156.777,-244.314 L 156.948,-244.395 L 157.127,-244.453 L 157.312,-244.488
 L 157.5,-244.5 L 157.688,-244.488 L 157.873,-244.453 L 158.052,-244.395 L 158.223,-244.314 L 158.382,-244.214
 L 158.527,-244.093 L 158.656,-243.956 L 158.766,-243.804 L 158.857,-243.639 L 158.927,-243.464 L 158.973,-243.281
 L 158.997,-243.094 L 158.997,-242.906 L 158.973,-242.719 L 158.927,-242.536 L 158.857,-242.361 L 158.766,-242.196
 L 158.656,-242.044 L 158.527,-241.907 L 158.382,-241.786 L 158.223,-241.686 L 158.052,-241.605 L 157.873,-241.547
 L 157.688,-241.512 L 157.5,-241.5 z
M 96.0918,-242.49 L 96.0734,-242.536 L 96.0266,-242.719 L 96.003,-242.906 L 96.003,-243.094 L 96.0266,-243.281
 L 96.0734,-243.464 L 96.1428,-243.639 L 96.2335,-243.804 L 96.3442,-243.956 L 96.4732,-244.093 L 96.6183,-244.214
 L 96.7774,-244.314 L 96.9478,-244.395 L 97.127,-244.453 L 97.312,-244.488 L 97.5,-244.5 L 97.688,-244.488
 L 97.873,-244.453 L 98.0522,-244.395 L 98.2226,-244.314 L 98.3817,-244.214 L 98.5268,-244.093 L 98.6558,-243.956
 L 98.7665,-243.804 L 98.8572,-243.639 L 98.9266,-243.464 L 98.9734,-243.281 L 98.997,-243.094 L 98.997,-242.906
 L 98.9734,-242.719 L 98.9266,-242.536 L 98.9082,-242.49 z
M 157.124,-232.524 L 156.754,-232.594 L 156.396,-232.711 L 156.055,-232.871 L 155.737,-233.073 L 155.446,-233.313
 L 155.188,-233.588 L 154.967,-233.893 L 154.786,-234.223 L 154.647,-234.573 L 154.553,-234.938 L 154.506,-235.312
 L 154.506,-235.688 L 154.553,-236.062 L 154.647,-236.427 L 154.786,-236.777 L 154.967,-237.107 L 155.188,-237.412
 L 155.446,-237.687 L 155.737,-237.927 L 156.055,-238.129 L 156.396,-238.289 L 156.754,-238.406 L 157.124,-238.476
 L 157.5,-238.5 L 157.876,-238.476 L 158.246,-238.406 L 158.604,-238.289 L 158.945,-238.129 L 159.263,-237.927
 L 159.554,-237.687 L 159.812,-237.412 L 160.033,-237.107 L 160.214,-236.777 L 160.353,-236.427 L 160.447,-236.062
 L 160.494,-235.688 L 160.494,-235.312 L 160.447,-234.938 L 160.353,-234.573 L 160.214,-234.223 L 160.033,-233.893
 L 159.812,-233.588 L 159.554,-233.313 L 159.263,-233.073 L 158.945,-232.871 L 158.604,-232.711 L 158.246,-232.594
 L 157.876,-232.524 L 157.5,-232.5 z
M 97.4059,-232.506 L 97.2181,-232.518 L 97.0314,-232.541 L 96.8465,-232.577 L 96.6643,-232.623 L 96.4853,-232.682
 L 96.3103,-232.751 L 96.14,-232.831 L 95.9751,-232.922 L 95.8162,-233.022 L 95.664,-233.133 L 95.519,-233.253
 L 95.3818,-233.382 L 95.253,-233.519 L 95.1331,-233.664 L 95.0224,-233.816 L 94.9216,-233.975 L 94.8309,-234.14
 L 94.7508,-234.31 L 94.6815,-234.485 L 94.6234,-234.664 L 94.5766,-234.847 L 94.5413,-235.031 L 94.5177,-235.218
 L 94.5059,-235.406 L 94.5059,-235.594 L 94.5177,-235.782 L 94.5413,-235.969 L 94.5766,-236.153 L 94.6234,-236.336
 L 94.6815,-236.515 L 94.7508,-236.69 L 94.8309,-236.86 L 94.9216,-237.025 L 95.0224,-237.184 L 95.133,-237.336
 L 95.253,-237.481 L 95.3818,-237.618 L 95.519,-237.747 L 95.664,-237.867 L 95.8163,-237.978 L 95.9751,-238.078
 L 96.1401,-238.169 L 96.3103,-238.249 L 96.4853,-238.318 L 96.6643,-238.377 L 96.8465,-238.423 L 97.0314,-238.459
 L 97.2181,-238.482 L 97.4059,-238.494 L 97.5941,-238.494 L 97.7819,-238.482 L 97.9686,-238.459 L 98.1534,-238.423
 L 98.3357,-238.377 L 98.5147,-238.318 L 98.6897,-238.249 L 98.8599,-238.169 L 99.0249,-238.078 L 99.1837,-237.978
 L 99.336,-237.867 L 99.481,-237.747 L 99.6182,-237.618 L 99.747,-237.481 L 99.867,-237.336 L 99.9776,-237.184
 L 100.078,-237.025 L 100.169,-236.86 L 100.249,-236.69 L 100.318,-236.515 L 100.377,-236.336 L 100.423,-236.153
 L 100.459,-235.969 L 100.482,-235.782 L 100.494,-235.594 L 100.494,-235.406 L 100.482,-235.218 L 100.459,-235.031
 L 100.423,-234.847 L 100.377,-234.664 L 100.318,-234.485 L 100.249,-234.31 L 100.169,-234.14 L 100.078,-233.975
 L 99.9776,-233.816 L 99.867,-233.664 L 99.747,-233.519 L 99.6182,-233.382 L 99.481,-233.253 L 99.336,-233.133
 L 99.1837,-233.022 L 99.0249,-232.922 L 98.86,-232.831 L 98.6897,-232.751 L 98.5147,-232.682 L 98.3357,-232.623
 L 98.1535,-232.577 L 97.9686,-232.541 L 97.7819,-232.518 L 97.5941,-232.506 z
M 82.3116,-232.506 L 81.9379,-232.553 L 81.573,-232.647 L 81.2227,-232.786 L 80.8925,-232.967 L 80.5877,-233.188
 L 80.3131,-233.446 L 80.073,-233.737 L 79.8711,-234.055 L 79.7107,-234.396 L 79.5943,-234.754 L 79.5237,-235.124
 L 79.5,-235.5 L 79.5237,-235.876 L 79.5943,-236.246 L 79.7107,-236.604 L 79.8711,-236.945 L 80.073,-237.263
 L 80.3131,-237.554 L 80.5877,-237.812 L 80.8925,-238.033 L 81.2227,-238.214 L 81.573,-238.353 L 81.9379,-238.447
 L 82.3116,-238.494 L 82.6884,-238.494 L 83.0621,-238.447 L 83.427,-238.353 L 83.7773,-238.214 L 84.1075,-238.033
 L 84.4123,-237.812 L 84.6869,-237.554 L 84.927,-237.263 L 85.1289,-236.945 L 85.2893,-236.604 L 85.4057,-236.246
 L 85.4763,-235.876 L 85.5,-235.5 L 85.4763,-235.124 L 85.4057,-234.754 L 85.2893,-234.396 L 85.1289,-234.055
 L 84.927,-233.737 L 84.6869,-233.446 L 84.4123,-233.188 L 84.1075,-232.967 L 83.7773,-232.786 L 83.427,-232.647
 L 83.0621,-232.553 L 82.6884,-232.506 z
M 104.812,-234.012 L 104.627,-234.047 L 104.5,-234.088 L 104.5,-236.912 L 104.627,-236.953 L 104.812,-236.988
 L 105,-237 L 105.188,-236.988 L 105.373,-236.953 L 105.552,-236.895 L 105.723,-236.814 L 105.882,-236.714
 L 106.027,-236.593 L 106.156,-236.456 L 106.266,-236.304 L 106.357,-236.139 L 106.427,-235.964 L 106.473,-235.781
 L 106.497,-235.594 L 106.497,-235.406 L 106.473,-235.219 L 106.427,-235.036 L 106.357,-234.861 L 106.266,-234.696
 L 106.156,-234.544 L 106.027,-234.407 L 105.882,-234.286 L 105.723,-234.186 L 105.552,-234.105 L 105.373,-234.047
 L 105.188,-234.012 L 105,-234 z
M 149.812,-234.012 L 149.627,-234.047 L 149.448,-234.105 L 149.277,-234.186 L 149.118,-234.286 L 148.973,-234.407
 L 148.844,-234.544 L 148.734,-234.696 L 148.643,-234.861 L 148.573,-235.036 L 148.527,-235.219 L 148.503,-235.406
 L 148.503,-235.594 L 148.527,-235.781 L 148.573,-235.964 L 148.643,-236.139 L 148.734,-236.304 L 148.844,-236.456
 L 148.973,-236.593 L 149.118,-236.714 L 149.277,-236.814 L 149.448,-236.895 L 149.627,-236.953 L 149.812,-236.988
 L 150,-237 L 150.188,-236.988 L 150.373,-236.953 L 150.552,-236.895 L 150.723,-236.814 L 150.882,-236.714
 L 151.027,-236.593 L 151.156,-236.456 L 151.266,-236.304 L 151.357,-236.139 L 151.427,-235.964 L 151.473,-235.781
 L 151.497,-235.594 L 151.497,-235.406 L 151.473,-235.219 L 151.427,-235.036 L 151.357,-234.861 L 151.266,-234.696
 L 151.156,-234.544 L 151.027,-234.407 L 150.882,-234.286 L 150.723,-234.186 L 150.552,-234.105 L 150.373,-234.047
 L 150.188,-234.012 L 150,-234 z
M 89.9058,-234.003 L 89.7189,-234.027 L 89.5365,-234.073 L 89.3613,-234.143 L 89.1963,-234.234 L 89.0439,-234.344
 L 88.9065,-234.473 L 88.7865,-234.618 L 88.6855,-234.777 L 88.6053,-234.948 L 88.5471,-235.127 L 88.5118,-235.312
 L 88.5,-235.5 L 88.5118,-235.688 L 88.5471,-235.873 L 88.6053,-236.052 L 88.6855,-236.223 L 88.7865,-236.382
 L 88.9065,-236.527 L 89.0439,-236.656 L 89.1963,-236.766 L 89.3613,-236.857 L 89.5365,-236.927 L 89.7189,-236.973
 L 89.9058,-236.997 L 90.0942,-236.997 L 90.2811,-236.973 L 90.4635,-236.927 L 90.5099,-236.908 L 90.5099,-234.092
 L 90.4635,-234.073 L 90.2811,-234.027 L 90.0942,-234.003 z
M 89.887,-226.204 L 89.6627,-226.232 L 89.4438,-226.288 L 89.2336,-226.371 L 89.0355,-226.48 L 88.8526,-226.613
 L 88.6879,-226.768 L 88.5438,-226.942 L 88.4226,-227.133 L 88.3264,-227.337 L 88.2565,-227.552 L 88.2142,-227.774
 L 88.2,-228 L 88.2142,-228.226 L 88.2565,-228.448 L 88.3264,-228.663 L 88.4226,-228.867 L 88.5438,-229.058
 L 88.6879,-229.232 L 88.8526,-229.387 L 89.0355,-229.52 L 89.2336,-229.629 L 89.4438,-229.712 L 89.6627,-229.768
 L 89.887,-229.796 L 90.113,-229.796 L 90.3373,-229.768 L 90.5562,-229.712 L 90.7664,-229.629 L 90.9645,-229.52
 L 91.1474,-229.387 L 91.3121,-229.232 L 91.4562,-229.058 L 91.5773,-228.867 L 91.6736,-228.663 L 91.7434,-228.448
 L 91.7858,-228.226 L 91.8,-228 L 91.7858,-227.774 L 91.7434,-227.552 L 91.6736,-227.337 L 91.5773,-227.133
 L 91.4562,-226.942 L 91.3121,-226.768 L 91.1474,-226.613 L 90.9645,-226.48 L 90.7664,-226.371 L 90.5562,-226.288
 L 90.3373,-226.232 L 90.113,-226.204 z
M 82.4058,-226.503 L 82.2189,-226.527 L 82.0365,-226.573 L 81.8613,-226.643 L 81.6963,-226.734 L 81.5439,-226.844
 L 81.4065,-226.973 L 81.2865,-227.118 L 81.1855,-227.277 L 81.1053,-227.448 L 81.0471,-227.627 L 81.0118,-227.812
 L 81,-228 L 81.0118,-228.188 L 81.0471,-228.373 L 81.1053,-228.552 L 81.1855,-228.723 L 81.2865,-228.882
 L 81.4065,-229.027 L 81.5439,-229.156 L 81.6963,-229.266 L 81.8613,-229.357 L 82.0365,-229.427 L 82.2189,-229.473
 L 82.4058,-229.497 L 82.5942,-229.497 L 82.7811,-229.473 L 82.9635,-229.427 L 83.1387,-229.357 L 83.3037,-229.266
 L 83.4561,-229.156 L 83.5934,-229.027 L 83.7135,-228.882 L 83.8145,-228.723 L 83.8947,-228.552 L 83.9529,-228.373
 L 83.9882,-228.188 L 84,-228 L 83.9882,-227.812 L 83.9529,-227.627 L 83.8947,-227.448 L 83.8145,-227.277
 L 83.7135,-227.118 L 83.5934,-226.973 L 83.4561,-226.844 L 83.3037,-226.734 L 83.1387,-226.643 L 82.9635,-226.573
 L 82.7811,-226.527 L 82.5942,-226.503 z
M 97.4058,-226.503 L 97.2189,-226.527 L 97.0365,-226.573 L 96.8613,-226.643 L 96.6963,-226.734 L 96.5439,-226.844
 L 96.4065,-226.973 L 96.2865,-227.118 L 96.1855,-227.277 L 96.1053,-227.448 L 96.0471,-227.627 L 96.0118,-227.812
 L 96,-228 L 96.0118,-228.188 L 96.0471,-228.373 L 96.0884,-228.5 L 98.9116,-228.5 L 98.9529,-228.373
 L 98.9882,-228.188 L 99,-228 L 98.9882,-227.812 L 98.9529,-227.627 L 98.8947,-227.448 L 98.8145,-227.277
 L 98.7135,-227.118 L 98.5934,-226.973 L 98.4561,-226.844 L 98.3037,-226.734 L 98.1387,-226.643 L 97.9635,-226.573
 L 97.7811,-226.527 L 97.5942,-226.503 z
M 89.887,-181.204 L 89.6627,-181.232 L 89.4438,-181.288 L 89.2336,-181.371 L 89.0355,-181.48 L 88.8526,-181.613
 L 88.6879,-181.768 L 88.5438,-181.942 L 88.4226,-182.133 L 88.3264,-182.337 L 88.2565,-182.552 L 88.2142,-182.774
 L 88.2,-183 L 88.2142,-183.226 L 88.2565,-183.448 L 88.3264,-183.663 L 88.4226,-183.867 L 88.5438,-184.058
 L 88.6879,-184.232 L 88.8526,-184.387 L 89.0355,-184.52 L 89.2336,-184.629 L 89.4438,-184.712 L 89.6627,-184.768
 L 89.887,-184.796 L 90.113,-184.796 L 90.3373,-184.768 L 90.5562,-184.712 L 90.7664,-184.629 L 90.9645,-184.52
 L 91.1474,-184.387 L 91.3121,-184.232 L 91.4562,-184.058 L 91.5773,-183.867 L 91.6736,-183.663 L 91.7434,-183.448
 L 91.7858,-183.226 L 91.8,-183 L 91.7858,-182.774 L 91.7434,-182.552 L 91.6736,-182.337 L 91.5773,-182.133
 L 91.4562,-181.942 L 91.3121,-181.768 L 91.1474,-181.613 L 90.9645,-181.48 L 90.7664,-181.371 L 90.5562,-181.288
 L 90.3373,-181.232 L 90.113,-181.204 z
M 97.4058,-181.503 L 97.2189,-181.527 L 97.0365,-181.573 L 96.8613,-181.643 L 96.6963,-181.734 L 96.5439,-181.844
 L 96.4065,-181.973 L 96.2865,-182.118 L 96.1855,-182.277 L 96.1053,-182.448 L 96.0471,-182.627 L 96.0118,-182.812
 L 96,-183 L 96.0118,-183.188 L 96.0471,-183.373 L 96.1053,-183.552 L 96.1855,-183.723 L 96.2865,-183.882
 L 96.4065,-184.027 L 96.5439,-184.156 L 96.6963,-184.266 L 96.8613,-184.357 L 97.0365,-184.427 L 97.2189,-184.473
 L 97.4058,-184.497 L 97.5942,-184.497 L 97.7811,-184.473 L 97.9635,-184.427 L 98.1387,-184.357 L 98.3037,-184.266
 L 98.4561,-184.156 L 98.5934,-184.027 L 98.7135,-183.882 L 98.8145,-183.723 L 98.8947,-183.552 L 98.9529,-183.373
 L 98.9882,-183.188 L 99,-183 L 98.9882,-182.812 L 98.9529,-182.627 L 98.8947,-182.448 L 98.8145,-182.277
 L 98.7135,-182.118 L 98.5934,-181.973 L 98.4561,-181.844 L 98.3037,-181.734 L 98.1387,-181.643 L 97.9635,-181.573
 L 97.7811,-181.527 L 97.5942,-181.503 z
M 82.4058,-181.503 L 82.2189,-181.527 L 82.0365,-181.573 L 81.8613,-181.643 L 81.6963,-181.734 L 81.5439,-181.844
 L 81.4065,-181.973 L 81.2865,-182.118 L 81.1855,-182.277 L 81.1053,-182.448 L 81.0471,-182.627 L 81.0118,-182.812
 L 81,-183 L 81.0118,-183.188 L 81.0471,-183.373 L 81.1053,-183.552 L 81.1855,-183.723 L 81.2865,-183.882
 L 81.4065,-184.027 L 81.5439,-184.156 L 81.6963,-184.266 L 81.8613,-184.357 L 82.0365,-184.427 L 82.2189,-184.473
 L 82.4058,-184.497 L 82.5942,-184.497 L 82.7811,-184.473 L 82.9635,-184.427 L 83.1387,-184.357 L 83.3037,-184.266
 L 83.4561,-184.156 L 83.5934,-184.027 L 83.7135,-183.882 L 83.8145,-183.723 L 83.8947,-183.552 L 83.9529,-183.373
 L 83.9882,-183.188 L 84,-183 L 83.9882,-182.812 L 83.9529,-182.627 L 83.8947,-182.448 L 83.8145,-182.277
 L 83.7135,-182.118 L 83.5934,-181.973 L 83.4561,-181.844 L 83.3037,-181.734 L 83.1387,-181.643 L 82.9635,-181.573
 L 82.7811,-181.527 L 82.5942,-181.503 z
M 97.3116,-172.506 L 96.9379,-172.553 L 96.573,-172.647 L 96.2227,-172.786 L 95.8925,-172.967 L 95.5877,-173.188
 L 95.3131,-173.446 L 95.073,-173.737 L 94.8711,-174.055 L 94.7107,-174.396 L 94.5943,-174.754 L 94.5237,-175.124
 L 94.5,-175.5 L 94.5237,-175.876 L 94.5943,-176.246 L 94.7107,-176.604 L 94.8711,-176.945 L 95.073,-177.263
 L 95.3131,-177.554 L 95.5877,-177.812 L 95.8925,-178.033 L 96.2227,-178.214 L 96.573,-178.353 L 96.9379,-178.447
 L 97.3116,-178.494 L 97.6884,-178.494 L 98.0621,-178.447 L 98.427,-178.353 L 98.7773,-178.214 L 99.1075,-178.033
 L 99.4123,-177.812 L 99.6869,-177.554 L 99.927,-177.263 L 100.129,-176.945 L 100.289,-176.604 L 100.406,-176.246
 L 100.476,-175.876 L 100.5,-175.5 L 100.476,-175.124 L 100.406,-174.754 L 100.289,-174.396 L 100.129,-174.055
 L 99.927,-173.737 L 99.6869,-173.446 L 99.4123,-173.188 L 99.1075,-172.967 L 98.7773,-172.786 L 98.427,-172.647
 L 98.0621,-172.553 L 97.6884,-172.506 z
M 82.3116,-172.506 L 81.9379,-172.553 L 81.573,-172.647 L 81.2227,-172.786 L 80.8925,-172.967 L 80.5877,-173.188
 L 80.3131,-173.446 L 80.073,-173.737 L 79.8711,-174.055 L 79.7107,-174.396 L 79.5943,-174.754 L 79.5237,-175.124
 L 79.5,-175.5 L 79.5237,-175.876 L 79.5943,-176.246 L 79.7107,-176.604 L 79.8711,-176.945 L 80.073,-177.263
 L 80.3131,-177.554 L 80.5877,-177.812 L 80.8925,-178.033 L 81.2227,-178.214 L 81.573,-178.353 L 81.9379,-178.447
 L 82.3116,-178.494 L 82.6884,-178.494 L 83.0621,-178.447 L 83.427,-178.353 L 83.7773,-178.214 L 84.1075,-178.033
 L 84.4123,-177.812 L 84.6869,-177.554 L 84.927,-177.263 L 85.1289,-176.945 L 85.2893,-176.604 L 85.4057,-176.246
 L 85.4763,-175.876 L 85.5,-175.5 L 85.4763,-175.124 L 85.4057,-174.754 L 85.2893,-174.396 L 85.1289,-174.055
 L 84.927,-173.737 L 84.6869,-173.446 L 84.4123,-173.188 L 84.1075,-172.967 L 83.7773,-172.786 L 83.427,-172.647
 L 83.0621,-172.553 L 82.6884,-172.506 z
M 89.9058,-174.003 L 89.7189,-174.027 L 89.5365,-174.073 L 89.3613,-174.143 L 89.1963,-174.234 L 89.0439,-174.344
 L 88.9065,-174.473 L 88.7865,-174.618 L 88.6855,-174.777 L 88.6053,-174.948 L 88.5471,-175.127 L 88.5118,-175.312
 L 88.5,-175.5 L 88.5118,-175.688 L 88.5471,-175.873 L 88.6053,-176.052 L 88.6855,-176.223 L 88.7865,-176.382
 L 88.9065,-176.527 L 89.0439,-176.656 L 89.1963,-176.766 L 89.3613,-176.857 L 89.5365,-176.927 L 89.7189,-176.973
 L 89.9058,-176.997 L 90.0942,-176.997 L 90.2811,-176.973 L 90.4635,-176.927 L 90.6387,-176.857 L 90.8037,-176.766
 L 90.9561,-176.656 L 91.0934,-176.527 L 91.2135,-176.382 L 91.3145,-176.223 L 91.3947,-176.052 L 91.4529,-175.873
 L 91.4882,-175.688 L 91.5,-175.5 L 91.4882,-175.312 L 91.4529,-175.127 L 91.3947,-174.948 L 91.3145,-174.777
 L 91.2135,-174.618 L 91.0934,-174.473 L 90.9561,-174.344 L 90.8037,-174.234 L 90.6387,-174.143 L 90.4635,-174.073
 L 90.2811,-174.027 L 90.0942,-174.003 z
M 43.0057,-266.5 L 39.4942,-266.5 L 39.4942,-237.5 L 43.0057,-237.5 z
M 70.1267,-237.539 L 70.7434,-237.657 L 71.3406,-237.851 L 71.9088,-238.118 L 72.4389,-238.455 L 72.9227,-238.855
 L 73.3526,-239.313 L 73.7216,-239.821 L 74.0241,-240.371 L 74.2553,-240.955 L 74.4114,-241.563 L 74.4901,-242.186
 L 74.4901,-261.814 L 74.4114,-262.437 L 74.2553,-263.045 L 74.0241,-263.629 L 73.7216,-264.179 L 73.3526,-264.687
 L 72.9227,-265.145 L 72.4389,-265.545 L 71.9088,-265.882 L 71.3406,-266.149 L 70.7434,-266.343 L 70.1267,-266.461
 L 69.5,-266.5 L 54.4942,-266.5 L 54.4942,-237.5 L 69.5,-237.5 z
M 67.124,-256.524 L 66.7539,-256.594 L 66.3956,-256.711 L 66.0547,-256.871 L 65.7366,-257.073 L 65.4464,-257.313
 L 65.1885,-257.588 L 64.967,-257.893 L 64.7855,-258.223 L 64.6468,-258.573 L 64.5531,-258.938 L 64.5059,-259.312
 L 64.5059,-259.688 L 64.5531,-260.062 L 64.6468,-260.427 L 64.7855,-260.777 L 64.967,-261.107 L 65.1885,-261.412
 L 65.4464,-261.687 L 65.7366,-261.927 L 66.0547,-262.129 L 66.3956,-262.289 L 66.7539,-262.406 L 67.124,-262.476
 L 67.5,-262.5 L 67.876,-262.476 L 68.2461,-262.406 L 68.6044,-262.289 L 68.9453,-262.129 L 69.2634,-261.927
 L 69.5536,-261.687 L 69.8115,-261.412 L 70.033,-261.107 L 70.2145,-260.777 L 70.3532,-260.427 L 70.4469,-260.062
 L 70.4941,-259.688 L 70.4941,-259.312 L 70.4469,-258.938 L 70.3532,-258.573 L 70.2145,-258.223 L 70.033,-257.893
 L 69.8115,-257.588 L 69.5536,-257.313 L 69.2634,-257.073 L 68.9453,-256.871 L 68.6044,-256.711 L 68.2461,-256.594
 L 67.876,-256.524 L 67.5,-256.5 z
M 59.812,-258.012 L 59.627,-258.047 L 59.4478,-258.105 L 59.2774,-258.186 L 59.1183,-258.286 L 58.9732,-258.407
 L 58.8442,-258.544 L 58.7335,-258.696 L 58.6428,-258.861 L 58.5734,-259.036 L 58.5266,-259.219 L 58.503,-259.406
 L 58.503,-259.594 L 58.5266,-259.781 L 58.5734,-259.964 L 58.6428,-260.139 L 58.7335,-260.304 L 58.8442,-260.456
 L 58.9732,-260.593 L 59.1183,-260.714 L 59.2774,-260.814 L 59.4478,-260.895 L 59.627,-260.953 L 59.812,-260.988
 L 60,-261 L 60.188,-260.988 L 60.373,-260.953 L 60.5522,-260.895 L 60.7226,-260.814 L 60.8817,-260.714
 L 61.0268,-260.593 L 61.1558,-260.456 L 61.2665,-260.304 L 61.3572,-260.139 L 61.4266,-259.964 L 61.4734,-259.781
 L 61.497,-259.594 L 61.497,-259.406 L 61.4734,-259.219 L 61.4266,-259.036 L 61.3572,-258.861 L 61.2665,-258.696
 L 61.1558,-258.544 L 61.0268,-258.407 L 60.8817,-258.286 L 60.7226,-258.186 L 60.5522,-258.105 L 60.373,-258.047
 L 60.188,-258.012 L 60,-258 z
M 67.1115,-248.924 L 66.7291,-248.997 L 66.3588,-249.118 L 66.0066,-249.283 L 65.6779,-249.492 L 65.3779,-249.74
 L 65.1114,-250.024 L 64.8826,-250.339 L 64.695,-250.68 L 64.5517,-251.042 L 64.4549,-251.419 L 64.4061,-251.805
 L 64.4061,-252.195 L 64.4549,-252.581 L 64.5517,-252.958 L 64.695,-253.32 L 64.8826,-253.661 L 65.1114,-253.976
 L 65.3779,-254.26 L 65.6779,-254.508 L 66.0066,-254.717 L 66.3588,-254.882 L 66.7291,-255.003 L 67.1115,-255.076
 L 67.5,-255.1 L 67.8885,-255.076 L 68.2709,-255.003 L 68.6412,-254.882 L 68.9934,-254.717 L 69.3221,-254.508
 L 69.6221,-254.26 L 69.8886,-253.976 L 70.1174,-253.661 L 70.305,-253.32 L 70.4483,-252.958 L 70.5451,-252.581
 L 70.5939,-252.195 L 70.5939,-251.805 L 70.5451,-251.419 L 70.4483,-251.042 L 70.305,-250.68 L 70.1174,-250.339
 L 69.8886,-250.024 L 69.6221,-249.74 L 69.3221,-249.492 L 68.9934,-249.283 L 68.6412,-249.118 L 68.2709,-248.997
 L 67.8885,-248.924 L 67.5,-248.9 z
M 59.7744,-250.214 L 59.5524,-250.257 L 59.3374,-250.326 L 59.1328,-250.423 L 58.942,-250.544 L 58.7678,-250.688
 L 58.6131,-250.853 L 58.4802,-251.036 L 58.3713,-251.234 L 58.2881,-251.444 L 58.2319,-251.663 L 58.2036,-251.887
 L 58.2036,-252.113 L 58.2319,-252.337 L 58.2881,-252.556 L 58.3713,-252.766 L 58.4802,-252.964 L 58.6131,-253.147
 L 58.7678,-253.312 L 58.942,-253.456 L 59.1328,-253.577 L 59.3374,-253.674 L 59.5524,-253.743 L 59.7744,-253.786
 L 60,-253.8 L 60.2256,-253.786 L 60.4476,-253.743 L 60.6626,-253.674 L 60.8672,-253.577 L 61.058,-253.456
 L 61.2322,-253.312 L 61.3869,-253.147 L 61.5198,-252.964 L 61.6287,-252.766 L 61.7119,-252.556 L 61.7681,-252.337
 L 61.7964,-252.113 L 61.7964,-251.887 L 61.7681,-251.663 L 61.7119,-251.444 L 61.6287,-251.234 L 61.5198,-251.036
 L 61.3869,-250.853 L 61.2322,-250.688 L 61.058,-250.544 L 60.8672,-250.423 L 60.6626,-250.326 L 60.4476,-250.257
 L 60.2256,-250.214 L 60,-250.2 z
M 67.124,-241.524 L 66.7539,-241.594 L 66.3956,-241.711 L 66.0547,-241.871 L 65.7366,-242.073 L 65.4464,-242.313
 L 65.1885,-242.588 L 64.967,-242.893 L 64.7855,-243.223 L 64.6468,-243.573 L 64.5531,-243.938 L 64.5059,-244.312
 L 64.5059,-244.688 L 64.5531,-245.062 L 64.6468,-245.427 L 64.7855,-245.777 L 64.967,-246.107 L 65.1885,-246.412
 L 65.4464,-246.687 L 65.7366,-246.927 L 66.0547,-247.129 L 66.3956,-247.289 L 66.7539,-247.406 L 67.124,-247.476
 L 67.5,-247.5 L 67.876,-247.476 L 68.2461,-247.406 L 68.6044,-247.289 L 68.9453,-247.129 L 69.2634,-246.927
 L 69.5536,-246.687 L 69.8115,-246.412 L 70.033,-246.107 L 70.2145,-245.777 L 70.3532,-245.427 L 70.4469,-245.062
 L 70.4941,-244.688 L 70.4941,-244.312 L 70.4469,-243.938 L 70.3532,-243.573 L 70.2145,-243.223 L 70.033,-242.893
 L 69.8115,-242.588 L 69.5536,-242.313 L 69.2634,-242.073 L 68.9453,-241.871 L 68.6044,-241.711 L 68.2461,-241.594
 L 67.876,-241.524 L 67.5,-241.5 z
M 59.812,-243.012 L 59.627,-243.047 L 59.4478,-243.105 L 59.2774,-243.186 L 59.1183,-243.286 L 58.9732,-243.407
 L 58.8442,-243.544 L 58.7335,-243.696 L 58.6428,-243.861 L 58.5734,-244.036 L 58.5266,-244.219 L 58.503,-244.406
 L 58.503,-244.594 L 58.5266,-244.781 L 58.5734,-244.964 L 58.6428,-245.139 L 58.7335,-245.304 L 58.8442,-245.456
 L 58.9732,-245.593 L 59.1183,-245.714 L 59.2774,-245.814 L 59.4478,-245.895 L 59.627,-245.953 L 59.812,-245.988
 L 60,-246 L 60.188,-245.988 L 60.373,-245.953 L 60.5522,-245.895 L 60.7226,-245.814 L 60.8817,-245.714
 L 61.0268,-245.593 L 61.1558,-245.456 L 61.2665,-245.304 L 61.3572,-245.139 L 61.4266,-244.964 L 61.4734,-244.781
 L 61.497,-244.594 L 61.497,-244.406 L 61.4734,-244.219 L 61.4266,-244.036 L 61.3572,-243.861 L 61.2665,-243.696
 L 61.1558,-243.544 L 61.0268,-243.407 L 60.8817,-243.286 L 60.7226,-243.186 L 60.5522,-243.105 L 60.373,-243.047
 L 60.188,-243.012 L 60,-243 z
M 28.0057,-266.5 L 24.4942,-266.5 L 24.4942,-237.5 L 28.0057,-237.5 z
M 35.5057,-266.5 L 31.9942,-266.5 L 31.9942,-237.5 L 35.5057,-237.5 z
M 50.5057,-266.5 L 46.9942,-266.5 L 46.9942,-237.5 L 50.5057,-237.5 z
" stroke="black" fill="lightgray" stroke-width="0.5"/>
</svg>
